<svg id="Layer_1" data-name="Layer 1" xmlns="http://www.w3.org/2000/svg" viewBox="0 0 579.27 157.6"><title>1</title><path d="M55.64,8.56h-.41c-.25,0-.37,0-.37,0A12.31,12.31,0,0,0,50,8.83a3.78,3.78,0,0,1-1.2,0,1,1,0,0,1-.46-.32q-.78-1,.09-1.56a5.22,5.22,0,0,1,1.24-.6A10.26,10.26,0,0,1,53.06,6q3.73,0,4.46,0a16.31,16.31,0,0,0,3-.46,3.53,3.53,0,0,1,1.75.09,4,4,0,0,1,1.68.67,9.23,9.23,0,0,1,1.13,2,1.91,1.91,0,0,1,0,2l-.71,1.15q-.48.78-.76,1.2a42.31,42.31,0,0,0-2.76,5.29q-.64,1.52-2,4.55t-2,4.55q-.28.69-.78,2.09t-.78,2.09q-2.12,5.52-3.17,8.23l-.11.25-.12.25a2.66,2.66,0,0,1-.34.62.35.35,0,0,1-.25.12,1.82,1.82,0,0,1-.55-.18,1.8,1.8,0,0,0-.53-.18,1.58,1.58,0,0,1-.58-.23,14,14,0,0,1-2-1.47,1.89,1.89,0,0,1-.46-2.21q.14-.41.48-1.17t.48-1.13q5-12.79,6.26-15.82a68.21,68.21,0,0,1,3.68-8.19,6.3,6.3,0,0,0,.37-.81,5.09,5.09,0,0,1,.32-.71Z"/><path d="M78.45,22.08a4.2,4.2,0,0,1,1.89,2.07,8.17,8.17,0,0,1,.14,6.35,20.29,20.29,0,0,1-5.15,8,11.32,11.32,0,0,1-1.56,1.15,2.88,2.88,0,0,1-2.12.37q-.46-.09-2.44-.32h-.28q-1.24.37-2.21-1.52a10.06,10.06,0,0,1-.64-1.56,3.58,3.58,0,0,1-.28-1.06q0-.74.14-.92a1,1,0,0,1,.78-.14,3.54,3.54,0,0,1,2.48,1.29q.28.37.44.39c.11,0,.27-.07.48-.25a7.9,7.9,0,0,0,1.1-1q.92-1.15,2.76-3.54a12.3,12.3,0,0,0,1.47-3.17,6.36,6.36,0,0,0,.37-2.9q-.14-1.93-1.79-1.52a4.07,4.07,0,0,1-3-.09,4.27,4.27,0,0,0-1.2-.32q-.92-.23-1.15-1.61a1.62,1.62,0,0,1,.69-1.66A19,19,0,0,0,74,14.9a12.05,12.05,0,0,0,1.52-4.42,5.65,5.65,0,0,0-.64-2.62.7.7,0,0,0-.46-.37,3.9,3.9,0,0,0-1.52-.23A6.16,6.16,0,0,0,70.4,8.33a4.8,4.8,0,0,0-1.22,1.52,8.24,8.24,0,0,0-.67,1.59q-.18.67-.41,2,0,.28-.12.83c0,.37-.08.64-.11.83a1.29,1.29,0,0,1-.3.67.59.59,0,0,1-.53.16q-.64-.14-.69-1a15.23,15.23,0,0,1,1-6.21,2.12,2.12,0,0,1,.3-.62A5.59,5.59,0,0,1,68,7.54L68.42,7c.18-.21.32-.37.41-.46A6.08,6.08,0,0,1,73,4.74a2,2,0,0,1,.67,0l.8.18.69.16,1.13.28,1.17.28a4.86,4.86,0,0,1,2.81,2.07,4.79,4.79,0,0,1,.55,1.89A7.78,7.78,0,0,1,80.71,13a16.23,16.23,0,0,1-2.48,5.75q-.14.23-1.1,1.43-.18.28-.6.78A11.1,11.1,0,0,0,78.45,22.08Z"/><path d="M110.84,17.8A17.93,17.93,0,0,1,108.17,22a14.5,14.5,0,0,1-1.08,1.15q-.62.6-1,.9t-1.24,1l-1.08.83q-.51.46-1.29,1.06a1.2,1.2,0,0,0-.41,1q-.23,3-.23,3.59,0,.87,0,2.62t0,2.62q0,1.15-.09,3.27a.58.58,0,0,1-.32.6,3.34,3.34,0,0,1-.83.32l-1.17.25-1.13.25-.18,0-.18,0h-.58l-.18,0a.29.29,0,0,1-.21-.09.79.79,0,0,0-.16-.16.64.64,0,0,1-.18-.25l-.16-.39a3.66,3.66,0,0,1-.32-2.07q0-.73.07-2.09t0-1.77q0-2.21,0-3.36l.41-6.07q.23-3.31.28-6.53V16.79q0-.92.07-2.76t.11-2.76V9.89a.67.67,0,0,0-.51-.74L96.16,9a.68.68,0,0,1-.35-.6.59.59,0,0,1,.3-.6,3.13,3.13,0,0,1,.55-.23,17.78,17.78,0,0,1,4.6-.87q2.25-.09,2.9,0a6.36,6.36,0,0,1,2.9.74,3.18,3.18,0,0,0,.46.23,4.3,4.3,0,0,1,2.94,2.21q.14.28.6,1.47a11.73,11.73,0,0,1,.64,2.94A8.59,8.59,0,0,1,110.84,17.8Zm-7.64,5.8a21,21,0,0,0,3.22-3.08,15,15,0,0,0,3.13-5.8,4.55,4.55,0,0,0,0-2.71,11.36,11.36,0,0,0-.37-1.1,2.12,2.12,0,0,0-1.06-1.29q-2-.87-2.3-1t-2.16-.32a.55.55,0,0,0-.51.11,1,1,0,0,0-.14.62v.69q-.09,1.2-.25,3.56t-.21,3.52q-.14,2.3-.23,6.81v.12a.24.24,0,0,0,0,.11.84.84,0,0,1,.07.32A8.64,8.64,0,0,0,103.2,23.6Z"/><path d="M120.27,38.64l2.62-.39,2.62-.39h.18q.92-.09,1.15.14t.14,1.15a.62.62,0,0,1-.46.74l-.28,0-.28,0a45.29,45.29,0,0,0-5.66.74,7.07,7.07,0,0,1-1.22.12,8,8,0,0,0-1,.07q-1.2,0-1.84,0a1.58,1.58,0,0,1-1.79-1.38,3.11,3.11,0,0,1-.09-1.52q.6-3.73.92-8.51,0-.87.11-2.58t.12-2.53.41-6.12q0-1.43.23-4.28.14-1.75.32-5.24a1.19,1.19,0,0,1,.41-.83,3.92,3.92,0,0,1,2-.78l2-.16,2.32-.16a6.79,6.79,0,0,1,.9,0,10.3,10.3,0,0,0,1,0,4,4,0,0,0,.87-.18h.41a1.9,1.9,0,0,1,.81.21,1.53,1.53,0,0,1,.11.8,1.84,1.84,0,0,1-.14.94q-.14.16-.92.21-2.39.09-3.59.18a.92.92,0,0,0-.58.18,1.46,1.46,0,0,0-.16.69l-.55,6.62s0,.89-.14,2.58l-.14,2.9q0,.64.14.76t.74,0l2.67-.28a1,1,0,0,1,.64.07,1.46,1.46,0,0,1,.28.67,1.52,1.52,0,0,1,.09.37c0,.43-.14.66-.51.69s-1,.12-1.75.18-1.58.12-2,.18-.51.32-.51.78-.06,1-.09,1.7,0,1.3,0,1.7q-.46,5.84-.64,6.81-.09.55-.21,1.7t-.16,1.38A1.26,1.26,0,0,0,120.27,38.64Z"/><path d="M137.7,25a4.33,4.33,0,0,0-.64.48,1.25,1.25,0,0,0-.32.6,12.11,12.11,0,0,0-.09,1.24q-.18,3.27-.46,9.8L136,39.84a1,1,0,0,1-.6.87,10,10,0,0,1-1.08.41q-.58.18-1.31.35l-1.1.25a.88.88,0,0,1-.57,0,1.39,1.39,0,0,1-.39-.55,2.06,2.06,0,0,0-.32-.51,1.85,1.85,0,0,1-.28-1.33l.41-5.24q.37-5.06.51-7.59.14-1.56.32-4.69.37-3.82.51-6,0-.92,0-2.76c0-.18,0-.56,0-1.13s0-1,.07-1.31a1.23,1.23,0,0,0-.37-1.06.66.66,0,0,1-.37-.78.78.78,0,0,1,.64-.64q.46-.09,1.27-.3l1.47-.37,1.26-.3a24.92,24.92,0,0,1,4.69-.46,6.84,6.84,0,0,1,3,.78,3.92,3.92,0,0,1,1.56,1.79,7.62,7.62,0,0,1,.51,5.7,10.42,10.42,0,0,1-2.44,4.46q-.37.41-1,1.22t-.74.94q-.18.23-.64.69a1.3,1.3,0,0,0-.46,1.33l.48,2.23q.39,1.82.62,2.83t2.07,8.65q.09.28.35,1.1t.34,1.29a1.7,1.7,0,0,1-.16,1.31,1.29,1.29,0,0,1-.94.71.29.29,0,0,1-.37-.09,2.47,2.47,0,0,1-.92-1.38q-.28-1.66-.67-3.45t-.92-4q-.53-2.23-.76-3.38-.18-.83-.6-2.32t-.55-2l-.28-.6A4.29,4.29,0,0,1,137.7,25Zm-.6-2.37.6-.41a5.31,5.31,0,0,0,.69-.55,33,33,0,0,0,4.37-5,9.39,9.39,0,0,0,1.52-5.06q.14-2.53-2.21-2.85-.69,0-4,0a2.2,2.2,0,0,0-.55.23,4,4,0,0,1,.35,1,8.64,8.64,0,0,1-.07,1.2.63.63,0,0,0,0,.28v.28q-.37,4.6-.51,6.85-.14,1.29-.32,3.86A.75.75,0,0,1,137.1,22.59Z"/><path d="M148.42,28.57a65.18,65.18,0,0,1,1.47-11.45,17.25,17.25,0,0,1,1.7-5.06,24.86,24.86,0,0,1,1.93-3.31,5.23,5.23,0,0,1,3.31-2.12,2.09,2.09,0,0,1,1.43.09.19.19,0,0,1,.12.07l.14.16.12.14-.12.14-.14.16a.19.19,0,0,1-.12.07l-.6.11-.6.12a4.45,4.45,0,0,0-2.48,2,10.11,10.11,0,0,0-.69,1.22q-.32.67-.69,1.59t-.55,1.33a9.24,9.24,0,0,0-.87,2.85q-.41,2.72-1,7.36,0,.09-.28,2.44a18.22,18.22,0,0,0,.23,4,6.94,6.94,0,0,0,1.84,3.45,2.71,2.71,0,0,0,2.3.74,6.25,6.25,0,0,0,2-.69,7.31,7.31,0,0,0,1.61-1.33,43,43,0,0,0,4.46-7l.28-.55q.32-.73,1-.46a.83.83,0,0,1,.23.09,1.54,1.54,0,0,1,.78.55,2.3,2.3,0,0,1,0,1.1,12.25,12.25,0,0,1-1.52,4.69q-2,3.4-2.71,4.55a12.47,12.47,0,0,1-5,4.51,3.94,3.94,0,0,1-4.6-.64,6.71,6.71,0,0,1-2-2.81.83.83,0,0,0-.23-.37,2.27,2.27,0,0,1-.46-1.29q-.09-.83-.18-1.24v0Q148.42,31.79,148.42,28.57Z"/><path d="M173.85,38.64l2.62-.39,2.62-.39h.18q.92-.09,1.15.14t.14,1.15a.62.62,0,0,1-.46.74l-.28,0-.28,0a45.29,45.29,0,0,0-5.66.74,7.07,7.07,0,0,1-1.22.12,8,8,0,0,0-1,.07q-1.2,0-1.84,0A1.58,1.58,0,0,1,168,39.51a3.11,3.11,0,0,1-.09-1.52q.6-3.73.92-8.51,0-.87.11-2.58t.12-2.53.41-6.12q0-1.43.23-4.28.14-1.75.32-5.24a1.19,1.19,0,0,1,.41-.83,3.92,3.92,0,0,1,2-.78l2-.16,2.32-.16a6.79,6.79,0,0,1,.9,0,10.3,10.3,0,0,0,1,0,4,4,0,0,0,.87-.18h.41a1.9,1.9,0,0,1,.81.21,1.53,1.53,0,0,1,.11.8,1.84,1.84,0,0,1-.14.94q-.14.16-.92.21-2.39.09-3.59.18a.92.92,0,0,0-.58.18,1.46,1.46,0,0,0-.16.69l-.55,6.62s0,.89-.14,2.58l-.14,2.9q0,.64.14.76t.74,0l2.67-.28a1,1,0,0,1,.64.07,1.46,1.46,0,0,1,.28.67,1.52,1.52,0,0,1,.09.37c0,.43-.14.66-.51.69s-1,.12-1.75.18-1.58.12-2,.18-.51.32-.51.78-.06,1-.09,1.7,0,1.3,0,1.7q-.46,5.84-.64,6.81-.09.55-.21,1.7t-.16,1.38A1.26,1.26,0,0,0,173.85,38.64Z"/><path d="M197.36,32.06q0-1,.11-3t.12-3q0-1.06.16-3.1t.16-3q.28-4,.37-6.16.09-1.56.18-4.51a4.54,4.54,0,0,1,0-.78q.09-1.15,1.1-1.1l3.54.46a.64.64,0,0,1,.64.74,3,3,0,0,1,0,.87q0,1-.14,2.94l-.14,3.33q-.09,2.23-.18,3.33,0,.78-.09,2.3t-.14,2.3q0,.78,0,2.3v2.3q0,.87-.09,3.54t-.09,4.14q0,.32-.07,2.07a5.77,5.77,0,0,0,.12,2.07.83.83,0,0,1-.78,1.15l-.67.09-.76.09-.64.09a5.63,5.63,0,0,1-2.67-.74,1.08,1.08,0,0,1-.51-.74q-.46-1.38-1.29-4.14-.18-.6-.74-2.48t-.83-2.9l-.48-1.93L193,26.29q-.3-1.22-.48-1.91-1.29-5.06-2-7.59a21.19,21.19,0,0,0-.83-2.62q0,.46,0,1.4T189.54,17q0,.92-.11,2.53t-.12,2.92q0,1.31,0,2.51,0,2,.09,5.93.09,5.52.14,8.33a4,4,0,0,1-.09.74.65.65,0,0,1-.6.51l-.37,0-.39.07a1.71,1.71,0,0,1-.35,0,2.74,2.74,0,0,0-.6,0h-1.2a1.42,1.42,0,0,1-.51,0,1.68,1.68,0,0,1-1.15-.48,1.92,1.92,0,0,1-.28-1.31q.09-4.23.09-6.35,0-.87,0-3.63t0-4.28q0-1,.23-6.16.09-2.71,0-5.38,0-1.56-.18-4.78a1.71,1.71,0,0,1,.16-1,1.29,1.29,0,0,1,.81-.44A5.44,5.44,0,0,1,188.3,7a4.7,4.7,0,0,1,1.38.69,2.52,2.52,0,0,1,.69,1.15q.32,1.15.94,3.47t.9,3.52l.28.8q.23.67.32,1,.37,1.52,1.15,4.55t1.2,4.51q.32,1.29,1,3.66t.78,2.78a1.08,1.08,0,0,0,.23.37h.14Q197.36,33,197.36,32.06Z"/><path d="M211.94,13.11q0-1.06,0-1.61v-.64a1.47,1.47,0,0,0-.21-.78.81.81,0,0,0-.62-.18h-3a6.94,6.94,0,0,1-.92,0,.73.73,0,0,1-.53-.44,1.26,1.26,0,0,1-.16-.76.73.73,0,0,1,.78-.74q.51,0,1.45,0l1.73.07,1.47,0a13.52,13.52,0,0,0,3.08-.23,23.35,23.35,0,0,1,5.38-.46q.83,0,2.35-.09t2-.09A1.19,1.19,0,0,1,226,8.23q.14.55-.28.69l-.23,0-.23,0L219,9.15h-.37q-.69,0-.85.28a2.1,2.1,0,0,0-.07,1.15,6,6,0,0,1,0,.87q-.09,1.84-.18,2.76t-.23,2.67q0,.51-.14,1.43T217,20q-.07.74-.11,1.43-.37,5.29-.51,7.68-.23,3.13-.46,5.61T215.67,38q0,.23,0,.74c0,.34,0,.6,0,.78a1,1,0,0,1-.55.87,6.54,6.54,0,0,1-1.54.37q-1,.14-1.36.23a2.34,2.34,0,0,1-1.1-.14q-.87-.28-.78-1.52.09-1.06.41-4.16t.46-5.22q.23-2.85.51-8.74l.14-2.78.14-2.78v-1h0Q211.9,14.17,211.94,13.11Z"/><path d="M241.34,30.13q-.46-4-.51-4.65a25.36,25.36,0,0,1,1.38-10.63,16.2,16.2,0,0,1,2.25-4.37q.23-.23.67-.71L245.8,9a2.66,2.66,0,0,0,.74-1,.57.57,0,0,1,.37-.41l.83-.16a7.77,7.77,0,0,0,.83-.21,2.43,2.43,0,0,1,1.08-.07l1.06.12q.3,0,1.06.23t1.08.23A4.43,4.43,0,0,1,256,10.21a41.9,41.9,0,0,1,3,8.1,26.32,26.32,0,0,1,.41,9.57q-.46,3.31-.6,4a13.36,13.36,0,0,1-.69,2.44q-.74,2.12-1.15,3.13A5.72,5.72,0,0,1,254.68,40l-1.2.64q-.78.41-1.15.64t-.6.18l-1.31,0q-1.17,0-1.31-.14a5.81,5.81,0,0,0-1.93-.32,3.63,3.63,0,0,1-3.27-2.3q-.32-.69-1.52-3.5A36.8,36.8,0,0,1,241.34,30.13ZM252.81,14.4q-.39-.87-.92-1.93t-.8-1.66a1,1,0,0,0-.64-.64,7.07,7.07,0,0,0-1.79-.55,1.38,1.38,0,0,0-1,.23,6.74,6.74,0,0,0-2.48,2.85A21.28,21.28,0,0,0,243,19.55a31.62,31.62,0,0,0-.28,5.57q.32,3.54,1.06,7.41a27,27,0,0,0,1.7,5.11q.55,1.15,1.43,1.1h1.43a1.74,1.74,0,0,0,.69-.09,6.28,6.28,0,0,0,3.63-3.5A38.63,38.63,0,0,0,254,30.91q0-.14.55-3.4a23.37,23.37,0,0,0,0-6.07,20.22,20.22,0,0,0-1.2-5.34A9,9,0,0,0,252.81,14.4Z"/><path d="M270,22.4a9.38,9.38,0,0,1,1.52-.18q1,0,.74,1.06-.32,1.29-1.47,1.15-.23,0-1.84.23-.51,0-.51.64,0,3.77-.23,11.55,0,.46,0,1.4t0,1.4a1.58,1.58,0,0,1-.09.64.6.6,0,0,1-.21.25,2.47,2.47,0,0,1-.62.16,11.71,11.71,0,0,1-1.89.18q-1.24,0-1.61.09a.6.6,0,0,1-.74-.37,4.22,4.22,0,0,1-.46-1.7q0-.87,0-2.67t0-2.71q.37-10.9.37-12.33,0-.83.18-5.93l.41-6.49q.09-.78.51-.92a11.86,11.86,0,0,1,1.2-.37l.9,0c.41,0,.73,0,.94,0A10.86,10.86,0,0,0,269,7.5a8.07,8.07,0,0,0,1-.09,8.46,8.46,0,0,1,.85-.09q.46-.09,1.47-.18l.6-.09.41,0q.09,0,1.43-.28a4.92,4.92,0,0,1,1.1-.09.53.53,0,0,1,.37.09q.23.09.14.69a2.23,2.23,0,0,0,0,.74q.09.37-.37.46l-1,.16-1.13.16q-2.44.18-3.5.32a1.59,1.59,0,0,0-.83.28,1.49,1.49,0,0,0-.23.87q0,1.15-.21,3.54t-.25,3.63q-.14,2.07-.14,4c0,.09,0,.23,0,.41s0,.34,0,.46Q269.72,22.4,270,22.4Z"/><path d="M306.56,17.8A18,18,0,0,1,303.9,22a14.52,14.52,0,0,1-1.08,1.15q-.62.6-1,.9t-1.24,1l-1.08.83q-.51.46-1.29,1.06a1.2,1.2,0,0,0-.41,1q-.23,3-.23,3.59,0,.87,0,2.62t0,2.62q0,1.15-.09,3.27a.58.58,0,0,1-.32.6,3.33,3.33,0,0,1-.83.32l-1.17.25-1.13.25-.18,0-.18,0H293l-.18,0a.29.29,0,0,1-.21-.09.78.78,0,0,0-.16-.16.65.65,0,0,1-.18-.25l-.16-.39a3.66,3.66,0,0,1-.32-2.07q0-.73.07-2.09t0-1.77q0-2.21,0-3.36l.41-6.07q.23-3.31.28-6.53V16.79q0-.92.07-2.76t.12-2.76V9.89a.67.67,0,0,0-.51-.74L291.89,9a.68.68,0,0,1-.35-.6.59.59,0,0,1,.3-.6,3.16,3.16,0,0,1,.55-.23,17.78,17.78,0,0,1,4.6-.87q2.25-.09,2.9,0a6.36,6.36,0,0,1,2.9.74,3.16,3.16,0,0,0,.46.23,4.29,4.29,0,0,1,2.94,2.21q.14.28.6,1.47a11.7,11.7,0,0,1,.64,2.94A8.57,8.57,0,0,1,306.56,17.8Zm-7.64,5.8a21,21,0,0,0,3.22-3.08,15,15,0,0,0,3.13-5.8,4.53,4.53,0,0,0,0-2.71,11.19,11.19,0,0,0-.37-1.1,2.12,2.12,0,0,0-1.06-1.29q-2-.87-2.3-1t-2.16-.32a.55.55,0,0,0-.51.11,1,1,0,0,0-.14.62v.69q-.09,1.2-.25,3.56t-.21,3.52q-.14,2.3-.23,6.81v.12a.24.24,0,0,0,0,.11.8.8,0,0,1,0,.14.74.74,0,0,1,0,.18A8.57,8.57,0,0,0,298.93,23.6Z"/><path d="M316,38.64l2.62-.39,2.62-.39h.18q.92-.09,1.15.14c.15.15.2.54.14,1.15a.62.62,0,0,1-.46.74l-.28,0-.28,0a45.28,45.28,0,0,0-5.66.74,7.06,7.06,0,0,1-1.22.12,8,8,0,0,0-1,.07q-1.2,0-1.84,0a1.58,1.58,0,0,1-1.79-1.38,3.1,3.1,0,0,1-.09-1.52q.6-3.73.92-8.51,0-.87.11-2.58t.12-2.53.41-6.12q0-1.43.23-4.28.14-1.75.32-5.24a1.19,1.19,0,0,1,.41-.83,3.92,3.92,0,0,1,2-.78l2-.16,2.32-.16a6.79,6.79,0,0,1,.9,0,10.3,10.3,0,0,0,1,0,4,4,0,0,0,.88-.18h.41a1.9,1.9,0,0,1,.8.21,1.53,1.53,0,0,1,.12.8,1.84,1.84,0,0,1-.14.94q-.14.16-.92.21-2.39.09-3.59.18a.92.92,0,0,0-.58.18,1.47,1.47,0,0,0-.16.69l-.55,6.62s0,.89-.14,2.58l-.14,2.9c0,.43,0,.68.14.76s.34.08.74,0l2.67-.28a1,1,0,0,1,.64.07,1.46,1.46,0,0,1,.28.67,1.54,1.54,0,0,1,.09.37q0,.64-.51.69t-1.75.18q-1.38.09-2,.18c-.34.06-.51.32-.51.78s-.06,1-.09,1.7,0,1.3,0,1.7q-.46,5.84-.64,6.81-.09.55-.21,1.7c-.08.77-.13,1.23-.16,1.38A1.26,1.26,0,0,0,316,38.64Z"/><path d="M326.66,30.13q-.46-4-.51-4.65a25.37,25.37,0,0,1,1.38-10.63,16.22,16.22,0,0,1,2.25-4.37c.15-.15.38-.39.67-.71l.67-.76a2.66,2.66,0,0,0,.74-1,.56.56,0,0,1,.37-.41l.83-.16a7.72,7.72,0,0,0,.83-.21A2.44,2.44,0,0,1,335,7.15l1.06.12q.3,0,1.06.23t1.08.23a4.43,4.43,0,0,1,3.17,2.48,41.82,41.82,0,0,1,3,8.1,26.29,26.29,0,0,1,.41,9.57q-.46,3.31-.6,4a13.43,13.43,0,0,1-.69,2.44q-.74,2.12-1.15,3.13A5.72,5.72,0,0,1,340,40l-1.2.64q-.78.41-1.15.64t-.6.18l-1.31,0q-1.17,0-1.31-.14a5.8,5.8,0,0,0-1.93-.32,3.63,3.63,0,0,1-3.27-2.3q-.32-.69-1.52-3.5A36.67,36.67,0,0,1,326.66,30.13ZM338.14,14.4q-.39-.87-.92-1.93t-.8-1.66a1,1,0,0,0-.64-.64A7.06,7.06,0,0,0,334,9.61a1.38,1.38,0,0,0-1,.23,6.73,6.73,0,0,0-2.48,2.85,21.28,21.28,0,0,0-2.12,6.85,31.66,31.66,0,0,0-.28,5.57q.32,3.54,1.06,7.41a26.92,26.92,0,0,0,1.7,5.11q.55,1.15,1.43,1.1h1.43a1.74,1.74,0,0,0,.69-.09,6.28,6.28,0,0,0,3.63-3.5,38.74,38.74,0,0,0,1.29-4.23q0-.14.55-3.4a23.42,23.42,0,0,0,0-6.07,20.2,20.2,0,0,0-1.2-5.34A8.93,8.93,0,0,0,338.14,14.4Z"/><path d="M362.87,17.8A18,18,0,0,1,360.2,22a14.52,14.52,0,0,1-1.08,1.15q-.62.6-1,.9t-1.24,1l-1.08.83q-.51.46-1.29,1.06a1.2,1.2,0,0,0-.41,1q-.23,3-.23,3.59,0,.87,0,2.62t0,2.62q0,1.15-.09,3.27a.58.58,0,0,1-.32.6,3.33,3.33,0,0,1-.83.32l-1.17.25-1.13.25-.18,0-.18,0h-.57l-.18,0a.29.29,0,0,1-.21-.09.78.78,0,0,0-.16-.16.65.65,0,0,1-.18-.25l-.16-.39a3.66,3.66,0,0,1-.32-2.07q0-.73.07-2.09t0-1.77q0-2.21,0-3.36l.41-6.07q.23-3.31.28-6.53V16.79q0-.92.07-2.76t.12-2.76V9.89a.67.67,0,0,0-.51-.74L348.19,9a.68.68,0,0,1-.35-.6.59.59,0,0,1,.3-.6,3.16,3.16,0,0,1,.55-.23,17.78,17.78,0,0,1,4.6-.87q2.25-.09,2.9,0a6.36,6.36,0,0,1,2.9.74,3.16,3.16,0,0,0,.46.23,4.29,4.29,0,0,1,2.94,2.21q.14.28.6,1.47a11.7,11.7,0,0,1,.64,2.94A8.57,8.57,0,0,1,362.87,17.8Zm-7.64,5.8a21,21,0,0,0,3.22-3.08,15,15,0,0,0,3.13-5.8,4.53,4.53,0,0,0,0-2.71,11.19,11.19,0,0,0-.37-1.1,2.12,2.12,0,0,0-1.06-1.29q-2-.87-2.3-1t-2.16-.32a.55.55,0,0,0-.51.11,1,1,0,0,0-.14.62v.69q-.09,1.2-.25,3.56t-.21,3.52q-.14,2.3-.23,6.81v.12a.24.24,0,0,0,0,.11.8.8,0,0,1,0,.14.74.74,0,0,1,0,.18A8.57,8.57,0,0,0,355.23,23.6Z"/><path d="M372.85,20.33q-.14,8.65-.14,8.74,0,1.29-.37,7.36a5.61,5.61,0,0,0,0,.85,5.58,5.58,0,0,1,0,.85c0,.34.08.55.32.64l1,.14,3.73-.14a1.71,1.71,0,0,1,.55,0q.46,0,.55.64a3.1,3.1,0,0,1,0,1.29q-.12.18-1,.18c-.18,0-.44,0-.78,0s-.6,0-.78,0h-1.33l-2.53-.14q-.64,0-1.89.07l-1.89.12h-.23a1.51,1.51,0,0,1-1.38-2q.46-3.22.74-9.71.14-2.21.23-9.89,0-2.07.18-6.21V9.38c0-.21,0-.54,0-1s0-.75,0-1a1.2,1.2,0,0,1,.87-1.33,4.65,4.65,0,0,1,4.19.83A1.13,1.13,0,0,1,373.17,8V9.61h0Q372.94,16.79,372.85,20.33Z"/><path d="M387,38.64l2.62-.39,2.62-.39h.18q.92-.09,1.15.14c.15.15.2.54.14,1.15a.62.62,0,0,1-.46.74l-.28,0-.28,0a45.31,45.31,0,0,0-5.66.74,7.07,7.07,0,0,1-1.22.12,8,8,0,0,0-1,.07q-1.2,0-1.84,0a1.58,1.58,0,0,1-1.79-1.38,3.12,3.12,0,0,1-.09-1.52q.6-3.73.92-8.51,0-.87.12-2.58t.12-2.53.41-6.12q0-1.43.23-4.28.14-1.75.32-5.24a1.19,1.19,0,0,1,.41-.83,3.91,3.91,0,0,1,2-.78l2-.16,2.32-.16a6.78,6.78,0,0,1,.9,0,10.31,10.31,0,0,0,1,0,4,4,0,0,0,.87-.18h.41a1.9,1.9,0,0,1,.81.21,1.54,1.54,0,0,1,.11.8,1.83,1.83,0,0,1-.14.94c-.09.11-.4.18-.92.21q-2.39.09-3.59.18a.92.92,0,0,0-.58.18,1.46,1.46,0,0,0-.16.69l-.55,6.62s0,.89-.14,2.58l-.14,2.9c0,.43,0,.68.14.76s.34.08.74,0l2.67-.28a1,1,0,0,1,.64.07,1.46,1.46,0,0,1,.28.67,1.51,1.51,0,0,1,.09.37c0,.43-.14.66-.51.69s-1,.12-1.75.18-1.58.12-2,.18-.51.32-.51.78-.06,1-.09,1.7,0,1.3,0,1.7q-.46,5.84-.64,6.81-.09.55-.21,1.7c-.08.77-.13,1.23-.16,1.38A1.25,1.25,0,0,0,387,38.64Z"/><path d="M419.49,32a5.47,5.47,0,0,1,.23-.58,27.83,27.83,0,0,0,1.61-5.2q.37-1.47.8-3.13t1-3.68q.55-2,.83-3.13c0-.12.07-.31.12-.58s.08-.45.12-.57a2.27,2.27,0,0,1,.51-.83q.6-.64,1.1.09a3,3,0,0,1,.6,2,27.89,27.89,0,0,0,.74,4.6q.83,3.41,1.2,5.11l1,5.38q0,.14.14.58t.18.76a5.89,5.89,0,0,0,.55-1.79q.46-3.22.64-4.83.74-5.61,1-8.42.37-3.31.92-9.94.09-.73.18-2,.09-1,.74-1a2.48,2.48,0,0,1,.55,0,8.57,8.57,0,0,0,2.3.18,5.29,5.29,0,0,1,1.66.51q.55.23.41,1.15-.41,2.3-.92,8.37-.14,1.52-1.33,11.22-.14.92-.35,2.71t-.3,2.62q-.14,1-.46,2.94t-.46,2.94L434.62,39q-.14,1.47-1.29,1.61l-.51,0a2,2,0,0,1-.6,0,6.43,6.43,0,0,1-1.56-.14q-1.79-.51-2.25-3.08-.32-1.56-.87-4.67t-.83-4.62q-.74-4.23-1.15-6.3a6.72,6.72,0,0,0-.64-1.66l-.28.94-.28.94q-1.52,6-1.66,6.44Q422.3,30,421.28,33T420,36.89a.13.13,0,0,1,0,.09v.09a2.12,2.12,0,0,1-.11.67c-.08.23-.14.4-.18.51a3.14,3.14,0,0,1-.37.55l-.35.44a3.2,3.2,0,0,1-.41.37l-1,.53q-.83.44-1.24.71t-1-.23a5.93,5.93,0,0,1-1.06-2.71q-.23-2.39-1.7-9.61-1.56-7.82-2.3-11.78-.18-1.06-.51-3.22t-.51-3.22a2.63,2.63,0,0,1,1.06-2.76,4.22,4.22,0,0,1,3.59-.64,1.33,1.33,0,0,1,1,1.24q.09,1.2.14,1.75.78,7.22,1.43,10.12,1.33,6.07,2.16,10,.23.87.6,2.71a.27.27,0,0,1,.18,0C419.34,32.45,419.4,32.25,419.49,32Z"/><path d="M451.92,30.25q.09-3.2.14-4.76a1.29,1.29,0,0,0-.11-.67c-.08-.11-.25-.16-.53-.16a22.43,22.43,0,0,1-3-.18q-.78-.14-.83.64-.41,5.7-.51,7,0,.74-.18,2.21t-.18,2.21a6.76,6.76,0,0,0,0,1.29l0,1.29a1.48,1.48,0,0,1-.12.55,1.34,1.34,0,0,1-.53.23,30.36,30.36,0,0,1-3.59.55,1.43,1.43,0,0,1-1.13-.41,1.33,1.33,0,0,1-.44-1.1q.28-5.8.28-5.89.46-6.72.64-9.75l.41-5.38q.09-.83.23-2.39t.18-2.39q0-.51.18-1.5t.18-1.45q.09-1.47.09-2.25a1.11,1.11,0,0,1,.87-1.1A6.52,6.52,0,0,1,447.5,7l.32.09a2.08,2.08,0,0,1,1,.6,2.4,2.4,0,0,1,.12,1.15q0,.78-.21,2.23t-.21,1.68q-.09,1.15-.3,3.38t-.3,3.24q0,.55-.18,2.58a1,1,0,0,0,.07.62.94.94,0,0,0,.58.25,21.12,21.12,0,0,0,3.08.14q.64,0,.69-.55a21.73,21.73,0,0,0,.14-2.39q0-1.24.16-3.7t.16-3.7q0-.78,0-2.28t0-2.28a1.82,1.82,0,0,1,0-.51.6.6,0,0,1,.44-.57.72.72,0,0,1,.71.16A2.69,2.69,0,0,1,455,9.34q-.09,1.24-.12,3.47t-.07,3.1l-.28,5.52q0,.28,0,.83t0,.83q0,1-.09,3.06t-.09,3.06.14,8.1q0,.28,0,1a6.88,6.88,0,0,0,0,1.13.86.86,0,0,1-.55.74,1.39,1.39,0,0,1-1.47-.09,1.58,1.58,0,0,1-.55-1.43,12,12,0,0,0,.14-1.79q0-.6-.09-1.79a0,0,0,0,0,0,0Q451.83,33.44,451.92,30.25Z"/><path d="M458.18,30.13q-.46-4-.51-4.65a25.35,25.35,0,0,1,1.38-10.63,16.2,16.2,0,0,1,2.25-4.37q.23-.23.67-.71l.67-.76a2.65,2.65,0,0,0,.74-1,.57.57,0,0,1,.37-.41l.83-.16a7.78,7.78,0,0,0,.83-.21,2.43,2.43,0,0,1,1.08-.07l1.06.12q.3,0,1.06.23t1.08.23a4.43,4.43,0,0,1,3.17,2.48,41.9,41.9,0,0,1,3,8.1,26.33,26.33,0,0,1,.41,9.57q-.46,3.31-.6,4a13.35,13.35,0,0,1-.69,2.44q-.74,2.12-1.15,3.13A5.71,5.71,0,0,1,471.52,40l-1.2.64q-.78.41-1.15.64t-.6.18l-1.31,0q-1.17,0-1.31-.14a5.8,5.8,0,0,0-1.93-.32,3.63,3.63,0,0,1-3.27-2.3q-.32-.69-1.52-3.5A36.66,36.66,0,0,1,458.18,30.13ZM469.65,14.4q-.39-.87-.92-1.93t-.8-1.66a1,1,0,0,0-.64-.64,7.06,7.06,0,0,0-1.79-.55,1.38,1.38,0,0,0-1,.23A6.73,6.73,0,0,0,462,12.7a21.3,21.3,0,0,0-2.12,6.85,31.66,31.66,0,0,0-.28,5.57q.32,3.54,1.06,7.41a26.9,26.9,0,0,0,1.7,5.11q.55,1.15,1.43,1.1h1.43a1.74,1.74,0,0,0,.69-.09,6.28,6.28,0,0,0,3.63-3.5,38.47,38.47,0,0,0,1.29-4.23q0-.14.55-3.4a23.33,23.33,0,0,0,0-6.07,20.2,20.2,0,0,0-1.2-5.34A8.94,8.94,0,0,0,469.65,14.4Z"/><path d="M501,20.65a3.34,3.34,0,0,1,1.66.18l.25.09a1,1,0,0,0,.25,0,3.16,3.16,0,0,1,2.67,1.75,9.06,9.06,0,0,1,1.24,3.22s0,.11,0,.23a2.6,2.6,0,0,1,0,.28,17.17,17.17,0,0,1-1.24,5.38,16.08,16.08,0,0,1-1.75,2.76,16.44,16.44,0,0,1-6.58,5.06q-.42.23-1.22.58l-1.08.48a2.28,2.28,0,0,1-2.58-.23l-.14-.14q-1-.28-.87-1.52.14-6.95.09-8.37,0-1.61-.23-9.75v-.37q-.09-3.22-.18-9.57a9.81,9.81,0,0,0,0-1.1,1.63,1.63,0,0,1,.28-1.1A2,2,0,0,1,493,7.64l2.25-.14a19.32,19.32,0,0,1,2.3-.14,22.31,22.31,0,0,1,2.39.18c.15,0,.38,0,.67,0s.51,0,.67,0a3.55,3.55,0,0,1,2,.8,3.11,3.11,0,0,1,1.22,1.73,7,7,0,0,1-1.15,6.07,33.76,33.76,0,0,1-3.08,3.82,1.86,1.86,0,0,0-.32.51C500.54,20.62,500.89,20.65,501,20.65Zm-3.91-.18c.09-.09.29-.26.6-.51a27.78,27.78,0,0,0,4.19-5.06A6.06,6.06,0,0,0,503,11.09a1.61,1.61,0,0,0-1.38-1.61,15.71,15.71,0,0,0-3.87-.41.62.62,0,0,0-.69.64q-.14,2.21-.14,2.3v7.64c0,.09,0,.22,0,.39s0,.3,0,.39A.27.27,0,0,1,497.14,20.47Zm.55,17,.51-.28a15.83,15.83,0,0,0,5.11-4.88,10.22,10.22,0,0,0,1.38-3q.14-.55.46-2.07a5.55,5.55,0,0,0-.74-3.77,2.48,2.48,0,0,0-1.1-1,10.53,10.53,0,0,0-5.29-.14,1.15,1.15,0,0,0-.76.37,1.57,1.57,0,0,0-.21.92q.14,3.59.14,3.63,0,.92,0,2.69t0,2.65q0,1.52,0,4.46s0,.26.09.69A4.57,4.57,0,0,0,497.69,37.49Z"/><path d="M510.06,17.94q.14-3.45.51-9.84,0-1,.69-1a1.05,1.05,0,0,1,.71.41,1.17,1.17,0,0,1,.25.87L512.09,10q-.09,1.08-.14,1.63a5.49,5.49,0,0,0-.09.87q-.09,10.35-.09,12.42t.28,6.62q0,.32.37,1.7a10,10,0,0,0,.32,1.2,7.79,7.79,0,0,0,.32,1.06q.46,1,1.29.78A5.2,5.2,0,0,0,518.11,32l.12-.46c0-.18.08-.36.11-.53a2.73,2.73,0,0,0,0-.48q.55-3.77.78-5.7.55-5.75.64-7.13.23-3.17.32-7.22a10.65,10.65,0,0,0-.09-1.7,2.16,2.16,0,0,1,1.2-2.35,1.66,1.66,0,0,1,1.43-.09,4.57,4.57,0,0,0,.92.18,2.76,2.76,0,0,1,2.49,3.08q-.14,2.94-.51,9.34-.46,5.89-.74,9.2a40.69,40.69,0,0,1-.64,4.42q0,.32-1.1,3.54l-.39.87a6.8,6.8,0,0,0-.34.87,8.56,8.56,0,0,1-2.48,3.08,5.64,5.64,0,0,1-4.65,1.38,3.29,3.29,0,0,1-1.93-1q-1.93-1.89-2.76-6.12,0-.41-.18-2.53-.09-1.66-.23-4.88t-.18-4.88H510Q510,18.77,510.06,17.94Z"/><path d="M535.48,20.52q.3-1.06.44-1.61.42-1.79,1.13-5.13t1-4.71q.37-1.75.55-2.67a1.31,1.31,0,0,1,1-1.2,3.54,3.54,0,0,1,3,.74,2.68,2.68,0,0,1,.46.32l.37.32a1.81,1.81,0,0,1,.64,2.07q-1.61,6.16-2.21,9-.23,1.15-.55,2.42t-.73,2.81L540,25.21q-.51,2.07-2,8.19-.18.83-.53,2.51t-.53,2.51l-.69,2.81c-.12.31-.25.46-.37.46a3.94,3.94,0,0,1-1.33.18,22.84,22.84,0,0,1-2.95-.51q-.37-.09-.62-.81a2.18,2.18,0,0,1-.11-1.26l1.52-6.35q.5-2.07,1.52-6.3a4.41,4.41,0,0,0,0-1.79l-1.24-4.28q-.28-1.06-.83-3.08T531,14.4a.62.62,0,0,0,0-.14.59.59,0,0,1,0-.14q-.28-.74-.85-2.21t-.85-2.21q-.23-.6-.37-1.06a1.21,1.21,0,0,1,.46-1.43c.37-.28.72-.17,1.06.32a3.15,3.15,0,0,1,.55,1q.41,1.24,1.33,3.73A21.83,21.83,0,0,1,533,14.7q.44,1.63.48,1.77.46,1.66,1.38,4.88a2,2,0,0,0,.23.41Q535.18,21.57,535.48,20.52Z"/><path d="M94.57,77.6a9.49,9.49,0,0,1,1.52-.18q1,0,.74,1.06-.32,1.29-1.47,1.15-.23,0-1.84.23-.51,0-.51.64,0,3.77-.23,11.55,0,.46,0,1.4t0,1.4a1.59,1.59,0,0,1-.09.64.6.6,0,0,1-.21.25,2.49,2.49,0,0,1-.62.16,11.72,11.72,0,0,1-1.89.18q-1.24,0-1.61.09a.59.59,0,0,1-.74-.37,4.22,4.22,0,0,1-.46-1.7q0-.87,0-2.67t0-2.71q.37-10.9.37-12.33,0-.83.18-5.93L88.32,64q.09-.78.51-.92A11.86,11.86,0,0,1,90,62.7l.9,0c.41,0,.73,0,.94,0a10.86,10.86,0,0,0,1.66-.09,8.07,8.07,0,0,0,1-.09,8.46,8.46,0,0,1,.85-.09q.46-.09,1.47-.18l.6-.09.41,0q.09,0,1.43-.28a4.92,4.92,0,0,1,1.1-.09.53.53,0,0,1,.37.09q.23.09.14.69a2.23,2.23,0,0,0,0,.74q.09.37-.37.46l-1,.16-1.13.16q-2.44.18-3.5.32a1.59,1.59,0,0,0-.83.28,1.49,1.49,0,0,0-.23.87q0,1.15-.21,3.54t-.25,3.63q-.14,2.07-.14,4c0,.09,0,.23,0,.41s0,.34,0,.46Q94.25,77.6,94.57,77.6Z"/><path d="M110.44,75.53q-.14,8.65-.14,8.74,0,1.29-.37,7.36a5.58,5.58,0,0,0,0,.85,5.73,5.73,0,0,1,0,.85q0,.51.32.64l1,.14,3.73-.14a1.69,1.69,0,0,1,.55,0q.46,0,.55.64a3.11,3.11,0,0,1,0,1.29q-.11.18-1,.18-.28,0-.78,0c-.34,0-.6,0-.78,0h-1.33L109.52,96q-.64,0-1.89.07l-1.89.12h-.23a1.51,1.51,0,0,1-1.38-2q.46-3.22.74-9.71.14-2.21.23-9.89,0-2.07.18-6.21V64.58c0-.21,0-.54,0-1s0-.75,0-1a1.2,1.2,0,0,1,.87-1.33,4.65,4.65,0,0,1,4.19.83,1.13,1.13,0,0,1,.46,1.06v1.61h0Q110.53,72,110.44,75.53Z"/><path d="M119.37,85.33q-.46-4-.51-4.65a25.36,25.36,0,0,1,1.38-10.63,16.2,16.2,0,0,1,2.25-4.37q.23-.23.67-.71l.67-.76a2.66,2.66,0,0,0,.74-1,.57.57,0,0,1,.37-.41l.83-.16a7.77,7.77,0,0,0,.83-.21,2.43,2.43,0,0,1,1.08-.07l1.06.12q.3,0,1.06.23t1.08.23A4.43,4.43,0,0,1,134,65.41a41.91,41.91,0,0,1,3,8.1,26.32,26.32,0,0,1,.41,9.57q-.46,3.31-.6,4a13.37,13.37,0,0,1-.69,2.44q-.74,2.12-1.15,3.13a5.72,5.72,0,0,1-2.35,2.58l-1.2.64q-.78.41-1.15.64t-.6.18l-1.31,0q-1.17,0-1.31-.14a5.8,5.8,0,0,0-1.93-.32,3.63,3.63,0,0,1-3.27-2.3q-.32-.69-1.52-3.5A36.82,36.82,0,0,1,119.37,85.33ZM130.84,69.6q-.39-.87-.92-1.93t-.8-1.66a1,1,0,0,0-.64-.64,7.07,7.07,0,0,0-1.79-.55,1.38,1.38,0,0,0-1,.23,6.74,6.74,0,0,0-2.48,2.85,21.27,21.27,0,0,0-2.12,6.85,31.63,31.63,0,0,0-.28,5.57q.32,3.54,1.06,7.41a27,27,0,0,0,1.7,5.11q.55,1.15,1.43,1.1h1.43a1.72,1.72,0,0,0,.69-.09,6.28,6.28,0,0,0,3.63-3.5A38.65,38.65,0,0,0,132,86.11q0-.14.55-3.4a23.38,23.38,0,0,0,0-6.07,20.2,20.2,0,0,0-1.2-5.34A9,9,0,0,0,130.84,69.6Z"/><path d="M150.92,87.19a5.61,5.61,0,0,1,.23-.58,27.87,27.87,0,0,0,1.61-5.2q.37-1.47.8-3.13t1-3.68q.55-2,.83-3.13c0-.12.07-.31.12-.58s.08-.45.11-.58a2.27,2.27,0,0,1,.51-.83q.6-.64,1.1.09a3,3,0,0,1,.6,2,27.87,27.87,0,0,0,.74,4.6q.83,3.41,1.2,5.11l1,5.38c0,.09.08.28.14.58s.12.54.18.76a5.92,5.92,0,0,0,.55-1.79q.46-3.22.64-4.83.74-5.61,1-8.42.37-3.31.92-9.94.09-.73.18-2,.09-1,.74-1a2.48,2.48,0,0,1,.55,0,8.57,8.57,0,0,0,2.3.18,5.3,5.3,0,0,1,1.66.51q.55.23.41,1.15-.41,2.3-.92,8.37-.14,1.52-1.33,11.22-.14.92-.34,2.71t-.3,2.62q-.14,1-.46,2.94t-.46,2.94l-.14,1.52q-.14,1.47-1.29,1.61l-.51,0a2,2,0,0,1-.6,0,6.46,6.46,0,0,1-1.56-.14q-1.79-.51-2.25-3.08-.32-1.56-.87-4.67t-.83-4.62q-.74-4.23-1.15-6.3a6.67,6.67,0,0,0-.64-1.66l-.28.94-.28.94q-1.52,6-1.66,6.44-.41,1.52-1.43,4.46t-1.29,3.91a.13.13,0,0,1,0,.09v.09a2.12,2.12,0,0,1-.11.67c-.08.23-.14.4-.18.51a3.26,3.26,0,0,1-.37.55l-.34.44a3.29,3.29,0,0,1-.41.37l-1,.53q-.83.44-1.24.71t-1-.23a5.93,5.93,0,0,1-1.06-2.71q-.23-2.39-1.7-9.61-1.56-7.82-2.3-11.78-.18-1.06-.51-3.22t-.51-3.22a2.63,2.63,0,0,1,1.06-2.76,4.22,4.22,0,0,1,3.59-.64,1.33,1.33,0,0,1,1,1.24q.09,1.2.14,1.75.78,7.22,1.43,10.12,1.33,6.07,2.16,10,.23.88.6,2.71a.27.27,0,0,1,.18,0C150.77,87.65,150.83,87.45,150.92,87.19Z"/><path d="M178.61,93.84l2.62-.39,2.62-.39H184q.92-.09,1.15.14t.14,1.15a.62.62,0,0,1-.46.74l-.28,0-.28,0a45.23,45.23,0,0,0-5.66.74,7.07,7.07,0,0,1-1.22.12,7.87,7.87,0,0,0-1,.07q-1.2,0-1.84,0a1.58,1.58,0,0,1-1.79-1.38,3.12,3.12,0,0,1-.09-1.52q.6-3.73.92-8.51,0-.87.11-2.58t.12-2.53.41-6.12q0-1.43.23-4.28.14-1.75.32-5.24a1.19,1.19,0,0,1,.41-.83,3.92,3.92,0,0,1,2-.78l2-.16,2.32-.16a6.79,6.79,0,0,1,.9,0,10.3,10.3,0,0,0,1,0,4,4,0,0,0,.87-.18h.41a1.9,1.9,0,0,1,.81.21,1.53,1.53,0,0,1,.11.8,1.84,1.84,0,0,1-.14.94q-.14.16-.92.21-2.39.09-3.59.18a.92.92,0,0,0-.58.18,1.46,1.46,0,0,0-.16.69l-.55,6.62s0,.89-.14,2.58l-.14,2.9c0,.43,0,.68.14.76s.34.09.74,0l2.67-.28a1,1,0,0,1,.64.07,1.46,1.46,0,0,1,.28.67,1.53,1.53,0,0,1,.09.37c0,.43-.14.66-.51.69s-1,.12-1.75.18-1.58.12-2,.18-.51.32-.51.78-.06,1-.09,1.7,0,1.3,0,1.7q-.46,5.84-.64,6.81c-.06.37-.13.94-.21,1.7s-.13,1.23-.16,1.38A1.26,1.26,0,0,0,178.61,93.84Z"/><path d="M196,80.16a4.3,4.3,0,0,0-.64.48,1.25,1.25,0,0,0-.32.6,12.1,12.1,0,0,0-.09,1.24q-.18,3.27-.46,9.8L194.39,95a1,1,0,0,1-.6.87,10,10,0,0,1-1.08.41q-.58.18-1.31.35l-1.1.25a.88.88,0,0,1-.57,0,1.39,1.39,0,0,1-.39-.55,2.07,2.07,0,0,0-.32-.51,1.85,1.85,0,0,1-.28-1.33l.41-5.24q.37-5.06.51-7.59.14-1.56.32-4.69.37-3.82.51-6,0-.92,0-2.76c0-.18,0-.56,0-1.13s0-1,.07-1.31a1.23,1.23,0,0,0-.37-1.06.66.66,0,0,1-.37-.78.78.78,0,0,1,.64-.64q.46-.09,1.27-.3l1.47-.37,1.26-.3a24.92,24.92,0,0,1,4.69-.46,6.84,6.84,0,0,1,3,.78,3.92,3.92,0,0,1,1.56,1.79,7.62,7.62,0,0,1,.51,5.7,10.42,10.42,0,0,1-2.44,4.46c-.25.28-.58.68-1,1.22s-.67.85-.74.94a9.4,9.4,0,0,1-.64.69,1.3,1.3,0,0,0-.46,1.33l.48,2.23q.39,1.82.62,2.83t2.07,8.65q.09.28.35,1.1t.34,1.29a1.71,1.71,0,0,1-.16,1.31,1.29,1.29,0,0,1-.94.71.29.29,0,0,1-.37-.09,2.48,2.48,0,0,1-.92-1.38q-.28-1.66-.67-3.45t-.92-4q-.53-2.23-.76-3.38-.18-.83-.6-2.32t-.55-2l-.28-.6A4.25,4.25,0,0,1,196,80.16Zm-.6-2.37.6-.41a5.27,5.27,0,0,0,.69-.55,33,33,0,0,0,4.37-5,9.39,9.39,0,0,0,1.52-5.06q.14-2.53-2.21-2.85-.69,0-4,0a2.2,2.2,0,0,0-.55.23,4,4,0,0,1,.35,1,8.64,8.64,0,0,1-.07,1.2.63.63,0,0,0,0,.28v.28q-.37,4.6-.51,6.85-.14,1.29-.32,3.86A.75.75,0,0,1,195.45,77.79Z"/><path d="M225.17,79.35a6.28,6.28,0,0,1,.14,1,8.12,8.12,0,0,0,.09.87,30.88,30.88,0,0,1-1.29,7.31,9.83,9.83,0,0,1-.46,1.13,8.77,8.77,0,0,1-.48.9l-.67,1q-.46.69-.6.88a12.82,12.82,0,0,1-3.63,3.63l-.09,0a4.35,4.35,0,0,1-1,.48,9.38,9.38,0,0,1-1.77.35,6.79,6.79,0,0,1-2.74-.35A11.75,11.75,0,0,1,209.39,95a9.29,9.29,0,0,1-1.47-3.06,12.92,12.92,0,0,1-.55-2.87V87.91l.14-.69a12.46,12.46,0,0,1,.46-1.56q.28-.69,1-.28c.21.09.32.21.32.37l0,.18c0,.09-.08.25-.14.48a5.54,5.54,0,0,0-.14.67,5.32,5.32,0,0,0-.14,2.48,5.15,5.15,0,0,0,4.65,5.06,3.48,3.48,0,0,0,2.9-.58A4.73,4.73,0,0,0,218,91.47a18.42,18.42,0,0,0,.6-3.24,22.53,22.53,0,0,0,0-3.22,13.44,13.44,0,0,0-.18-2.3l-.14-.69q-.87-3.73-3.73-4.51L212.52,77a4.52,4.52,0,0,1-2.85-4.37,10.74,10.74,0,0,1,.74-3.5A12.39,12.39,0,0,1,212,66,7.49,7.49,0,0,1,216.33,63a23.6,23.6,0,0,1,2.9-.55,5.37,5.37,0,0,1,3.27,1,5.8,5.8,0,0,1,1.61,1.33,2.06,2.06,0,0,1,.23.41q.09.46,0,.55a.45.45,0,0,1-.41.23,1.56,1.56,0,0,1-.6-.41,8.2,8.2,0,0,0-2.25-1.43,3.91,3.91,0,0,0-3.08,0,10.36,10.36,0,0,0-2.76,1.24,6.87,6.87,0,0,0-2.76,3.4,10.86,10.86,0,0,0-1,2.94,2.49,2.49,0,0,0-.09.51,1.73,1.73,0,0,0,.25,1.22,1,1,0,0,0,.94.25,24.94,24.94,0,0,1,3.31-.14c.31,0,.83,0,1.59-.09a11.92,11.92,0,0,1,1.73,0,5.51,5.51,0,0,1,4.19,2.25A8.22,8.22,0,0,1,225.17,79.35Z"/><path d="M247.66,77.6a9.49,9.49,0,0,1,1.52-.18q1,0,.74,1.06-.32,1.29-1.47,1.15-.23,0-1.84.23-.51,0-.51.64,0,3.77-.23,11.55,0,.46,0,1.4t0,1.4a1.59,1.59,0,0,1-.09.64.6.6,0,0,1-.21.25,2.49,2.49,0,0,1-.62.16,11.72,11.72,0,0,1-1.89.18q-1.24,0-1.61.09a.59.59,0,0,1-.74-.37,4.22,4.22,0,0,1-.46-1.7q0-.87,0-2.67t0-2.71q.37-10.9.37-12.33,0-.83.18-5.93L241.4,64q.09-.78.51-.92a11.86,11.86,0,0,1,1.2-.37l.9,0c.41,0,.73,0,.94,0a10.86,10.86,0,0,0,1.66-.09,8.07,8.07,0,0,0,1-.09,8.46,8.46,0,0,1,.85-.09q.46-.09,1.47-.18l.6-.09.41,0q.09,0,1.43-.28a4.92,4.92,0,0,1,1.1-.09.53.53,0,0,1,.37.09q.23.09.14.69a2.23,2.23,0,0,0,0,.74q.09.37-.37.46l-1,.16-1.13.16q-2.44.18-3.5.32a1.59,1.59,0,0,0-.83.28,1.49,1.49,0,0,0-.23.87q0,1.15-.21,3.54t-.25,3.63q-.14,2.07-.14,4c0,.09,0,.23,0,.41s0,.34,0,.46Q247.34,77.6,247.66,77.6Z"/><path d="M255.43,85.33q-.46-4-.51-4.65a25.36,25.36,0,0,1,1.38-10.63,16.2,16.2,0,0,1,2.25-4.37q.23-.23.67-.71l.67-.76a2.66,2.66,0,0,0,.74-1,.57.57,0,0,1,.37-.41l.83-.16a7.77,7.77,0,0,0,.83-.21,2.43,2.43,0,0,1,1.08-.07l1.06.12q.3,0,1.06.23t1.08.23a4.43,4.43,0,0,1,3.17,2.48,41.91,41.91,0,0,1,3,8.1,26.32,26.32,0,0,1,.41,9.57q-.46,3.31-.6,4a13.37,13.37,0,0,1-.69,2.44q-.74,2.12-1.15,3.13a5.72,5.72,0,0,1-2.35,2.58l-1.2.64q-.78.41-1.15.64t-.6.18l-1.31,0q-1.17,0-1.31-.14a5.8,5.8,0,0,0-1.93-.32A3.63,3.63,0,0,1,258,94q-.32-.69-1.52-3.5A36.82,36.82,0,0,1,255.43,85.33ZM266.91,69.6q-.39-.87-.92-1.93t-.8-1.66a1,1,0,0,0-.64-.64,7.07,7.07,0,0,0-1.79-.55,1.38,1.38,0,0,0-1,.23,6.74,6.74,0,0,0-2.48,2.85,21.27,21.27,0,0,0-2.12,6.85,31.63,31.63,0,0,0-.28,5.57q.32,3.54,1.06,7.41a27,27,0,0,0,1.7,5.11q.55,1.15,1.43,1.1h1.43a1.72,1.72,0,0,0,.69-.09,6.28,6.28,0,0,0,3.63-3.5,38.65,38.65,0,0,0,1.29-4.23q0-.14.55-3.4a23.38,23.38,0,0,0,0-6.07,20.2,20.2,0,0,0-1.2-5.34A9,9,0,0,0,266.91,69.6Z"/><path d="M283.91,80.16a4.3,4.3,0,0,0-.64.48,1.25,1.25,0,0,0-.32.6,12.1,12.1,0,0,0-.09,1.24q-.18,3.27-.46,9.8L282.25,95a1,1,0,0,1-.6.87,10,10,0,0,1-1.08.41q-.58.18-1.31.35l-1.1.25a.88.88,0,0,1-.57,0,1.39,1.39,0,0,1-.39-.55,2.07,2.07,0,0,0-.32-.51,1.85,1.85,0,0,1-.28-1.33l.41-5.24q.37-5.06.51-7.59.14-1.56.32-4.69.37-3.82.51-6,0-.92,0-2.76c0-.18,0-.56,0-1.13s0-1,.07-1.31a1.23,1.23,0,0,0-.37-1.06.66.66,0,0,1-.37-.78.78.78,0,0,1,.64-.64q.46-.09,1.27-.3l1.47-.37,1.26-.3a24.92,24.92,0,0,1,4.69-.46,6.84,6.84,0,0,1,3,.78,3.92,3.92,0,0,1,1.56,1.79,7.62,7.62,0,0,1,.51,5.7,10.42,10.42,0,0,1-2.44,4.46c-.25.28-.58.68-1,1.22s-.67.85-.74.94a9.4,9.4,0,0,1-.64.69,1.3,1.3,0,0,0-.46,1.33l.48,2.23q.39,1.82.62,2.83T290,92.55q.09.28.35,1.1t.34,1.29a1.71,1.71,0,0,1-.16,1.31,1.29,1.29,0,0,1-.94.71.29.29,0,0,1-.37-.09,2.48,2.48,0,0,1-.92-1.38q-.28-1.66-.67-3.45t-.92-4q-.53-2.23-.76-3.38-.18-.83-.6-2.32t-.55-2l-.28-.6A4.25,4.25,0,0,1,283.91,80.16Zm-.6-2.37.6-.41a5.27,5.27,0,0,0,.69-.55,33,33,0,0,0,4.37-5,9.39,9.39,0,0,0,1.52-5.06q.14-2.53-2.21-2.85-.69,0-4,0a2.2,2.2,0,0,0-.55.23,4,4,0,0,1,.35,1,8.64,8.64,0,0,1-.07,1.2.63.63,0,0,0,0,.28v.28q-.37,4.6-.51,6.85-.14,1.29-.32,3.86A.75.75,0,0,1,283.31,77.79Z"/><path d="M313.09,85.58l.12-.48q.09-.37.69-3.08t1-4.14q.37-1.47,1.15-4.16l1-3.33q1-3,1.06-3.5.41-1.84,1.52-5.34.18-.78.83-.74a3,3,0,0,1,1.1.23q1,.55,2.94,1.75.41.23.32,1a.57.57,0,0,1,0,.16.52.52,0,0,1-.09.16,12.36,12.36,0,0,0-.69,1.56q-.32.87-.51,1.52l-.48,1.73q-.3,1.08-.44,1.63-.37,1.24-1.08,3.73T320.34,78q-1.33,5.2-1.61,6.39l-1,5.57q-.55,3.86-.87,5.75a1.48,1.48,0,0,1-.46,1,.85.85,0,0,1-.87.11,9.24,9.24,0,0,1-3.45-2.21,2.07,2.07,0,0,1-.64-1.38q-.09-.92-.32-2.71t-.23-1.93q-.28-2.39-.41-3.63-.28-2.21-.37-3.36-.09-1.89-.87-6.9-.55-3.17-1.56-9.52-.09-.37-.25-1.08T307.23,63a1.75,1.75,0,0,1,.16-1.13.67.67,0,0,1,.76-.34.78.78,0,0,1,.64.64,19.16,19.16,0,0,1,.51,1.93q0,.37.55,3.91t.83,5.38q.09.46,1.66,10,.14.69.32,2.07l.18.6H313A2.18,2.18,0,0,1,313.09,85.58Z"/><path d="M327.1,94.94a7.86,7.86,0,0,1,.28-1.33q.37-1.15.87-3.33t.74-3.06q.28-1.1.69-3.15t.51-2.55q1.2-5.43,1.52-6.62l.39-1.36.46-1.59.39-1.33,1.24-5.11a3.07,3.07,0,0,0,0-.87,1.17,1.17,0,0,1,.64-1.47q.28-.14.85-.37a6.26,6.26,0,0,0,.81-.37,6.82,6.82,0,0,1,2.12-.28,1,1,0,0,1,1.2.78,4,4,0,0,1,.23.87q.69,6.35.92,8.83.23,2.12.6,5.75c0,.15.05.31.07.48s0,.35,0,.55,0,.36,0,.48q.37,3.4.55,5.06.18,2.16.55,6.39a10.66,10.66,0,0,1,0,1.17v1.22a.89.89,0,0,1-.41.69,10,10,0,0,1-3.08,1.29.44.44,0,0,0-.32.14.83.83,0,0,1-.92,0,1,1,0,0,1-.55-1,63.91,63.91,0,0,0-.64-8.6c-.06-.37-.13-.9-.21-1.61s-.13-1.24-.16-1.61a1.66,1.66,0,0,0-.23-.71c-.09-.11-.31-.14-.64-.12s-1.59.08-3.59.23a.88.88,0,0,0-.87.83q-.18,1-1.2,5.43-.18.64-.53,1.93t-.48,1.93a20.66,20.66,0,0,1-.78,2.76q-.46.41-.6.28c0-.06-.06-.09-.09-.09a.13.13,0,0,0,0,.09v0l-.28.14A3.11,3.11,0,0,1,327.1,94.94ZM331.89,81l1.29-.14q.41,0,1.22-.07l1.22,0c.31,0,.49,0,.55-.12s.06-.27,0-.58-.14-1.06-.23-1.91-.15-1.48-.18-1.91q-.09-1-.3-3.06t-.34-3.06a1.62,1.62,0,0,0-.07-.39,1.6,1.6,0,0,1-.07-.35A55.48,55.48,0,0,0,331.89,81Z"/><path d="M351.94,75.53q-.14,8.65-.14,8.74,0,1.29-.37,7.36a5.59,5.59,0,0,0,0,.85,5.73,5.73,0,0,1,0,.85q0,.51.32.64l1,.14,3.73-.14a1.69,1.69,0,0,1,.55,0q.46,0,.55.64a3.1,3.1,0,0,1,0,1.29q-.11.18-1,.18-.28,0-.78,0c-.34,0-.6,0-.78,0h-1.33L351,96q-.64,0-1.89.07l-1.89.12H347a1.51,1.51,0,0,1-1.38-2q.46-3.22.74-9.71.14-2.21.23-9.89,0-2.07.18-6.21V64.58c0-.21,0-.54,0-1s0-.75,0-1a1.2,1.2,0,0,1,.87-1.33,4.65,4.65,0,0,1,4.19.83,1.13,1.13,0,0,1,.46,1.06v1.61h0Q352,72,351.94,75.53Z"/><path d="M366.11,93.84l2.62-.39,2.62-.39h.18q.92-.09,1.15.14t.14,1.15a.62.62,0,0,1-.46.74l-.28,0-.28,0a45.22,45.22,0,0,0-5.66.74,7.08,7.08,0,0,1-1.22.12,7.88,7.88,0,0,0-1,.07q-1.2,0-1.84,0a1.58,1.58,0,0,1-1.79-1.38,3.12,3.12,0,0,1-.09-1.52q.6-3.73.92-8.51,0-.87.12-2.58t.12-2.53.41-6.12q0-1.43.23-4.28.14-1.75.32-5.24a1.19,1.19,0,0,1,.41-.83,3.92,3.92,0,0,1,2-.78l2-.16L369,62a6.8,6.8,0,0,1,.9,0,10.3,10.3,0,0,0,1,0,4,4,0,0,0,.87-.18h.41a1.89,1.89,0,0,1,.8.21,1.53,1.53,0,0,1,.12.8,1.83,1.83,0,0,1-.14.94q-.14.16-.92.21-2.39.09-3.59.18a.91.91,0,0,0-.57.18,1.45,1.45,0,0,0-.16.69l-.55,6.62s0,.89-.14,2.58l-.14,2.9c0,.43,0,.68.14.76s.34.09.74,0l2.67-.28a1,1,0,0,1,.64.07,1.47,1.47,0,0,1,.28.67,1.54,1.54,0,0,1,.09.37q0,.64-.51.69c-.37.06-1,.12-1.75.18s-1.58.12-2,.18-.51.32-.51.78-.06,1-.09,1.7,0,1.3,0,1.7q-.46,5.84-.64,6.81c-.06.37-.13.94-.21,1.7s-.13,1.23-.16,1.38A1.26,1.26,0,0,0,366.11,93.84Z"/><path d="M389.61,87.26q0-1,.12-3t.12-3q0-1.06.16-3.1t.16-3q.28-4,.37-6.16.09-1.56.18-4.51a4.47,4.47,0,0,1,0-.78q.09-1.15,1.1-1.1l3.54.46a.64.64,0,0,1,.64.74,3,3,0,0,1,0,.87q0,1-.14,2.94,0,1.1-.14,3.33t-.18,3.33q0,.78-.09,2.3t-.14,2.3q0,.78,0,2.3v2.3q0,.87-.09,3.54t-.09,4.14q0,.32-.07,2.07a5.8,5.8,0,0,0,.12,2.07.83.83,0,0,1-.78,1.15l-.67.09-.76.09c-.28,0-.49.06-.64.09a5.63,5.63,0,0,1-2.67-.74,1.08,1.08,0,0,1-.51-.74q-.46-1.38-1.29-4.14-.18-.6-.74-2.48t-.83-2.9l-.48-1.93-.55-2.23q-.3-1.22-.48-1.91-1.29-5.06-2-7.59a21.45,21.45,0,0,0-.83-2.62q0,.46,0,1.4t-.09,1.45q0,.92-.12,2.53t-.12,2.92q0,1.31,0,2.51,0,2,.09,5.93.09,5.52.14,8.33a3.94,3.94,0,0,1-.09.74.65.65,0,0,1-.6.51l-.37,0-.39.07a1.68,1.68,0,0,1-.35,0,2.76,2.76,0,0,0-.6,0h-1.2a1.42,1.42,0,0,1-.51,0,1.68,1.68,0,0,1-1.15-.48,1.92,1.92,0,0,1-.28-1.31q.09-4.23.09-6.35,0-.87,0-3.63t0-4.28q0-1,.23-6.16.09-2.71,0-5.38,0-1.56-.18-4.78a1.7,1.7,0,0,1,.16-1,1.29,1.29,0,0,1,.8-.44,5.43,5.43,0,0,1,3.27.18,4.71,4.71,0,0,1,1.38.69,2.53,2.53,0,0,1,.69,1.15q.32,1.15.94,3.47t.9,3.52l.28.8q.23.67.32,1,.37,1.52,1.15,4.55t1.2,4.51q.32,1.29,1,3.66t.78,2.78a1.07,1.07,0,0,0,.23.37h.14Q389.61,88.23,389.61,87.26Z"/><path d="M404.2,68.31c0-.71,0-1.24,0-1.61v-.64a1.47,1.47,0,0,0-.21-.78.81.81,0,0,0-.62-.18h-3a6.94,6.94,0,0,1-.92,0,.73.73,0,0,1-.53-.44,1.27,1.27,0,0,1-.16-.76.73.73,0,0,1,.78-.74q.5,0,1.45,0l1.73.07,1.47,0a13.51,13.51,0,0,0,3.08-.23,23.35,23.35,0,0,1,5.38-.46q.83,0,2.35-.09t2-.09a1.2,1.2,0,0,1,1.2,1.06q.14.55-.28.69l-.23,0-.23,0-6.26.14h-.37c-.46,0-.74.12-.85.28a2.1,2.1,0,0,0-.07,1.15,6.1,6.1,0,0,1,0,.87q-.09,1.84-.18,2.76t-.23,2.67q0,.51-.14,1.43t-.16,1.66q-.07.74-.12,1.43-.37,5.29-.51,7.68-.23,3.13-.46,5.61t-.23,3.36c0,.15,0,.4,0,.74s0,.6,0,.78a1,1,0,0,1-.55.88,6.55,6.55,0,0,1-1.54.37q-1,.14-1.36.23a2.33,2.33,0,0,1-1.1-.14q-.87-.28-.78-1.52.09-1.06.41-4.16t.46-5.22q.23-2.85.51-8.74,0-.92.14-2.78l.14-2.78v-1h0Q404.15,69.37,404.2,68.31Z"/><path d="M427.47,66.33a43.7,43.7,0,0,0-.46,6.53l-.14,7.87v5.15q0,1-.09,2.88t-.09,2.88c0,.31,0,.77,0,1.38s0,1.07,0,1.38a1.15,1.15,0,0,1-.12.64,1.56,1.56,0,0,1-.53.32,8.16,8.16,0,0,1-2.16.55q-.6,0-1.75,0a.49.49,0,0,1-.46-.23,3.52,3.52,0,0,1-.51-1.89c0-.21.05-.54.07-1s0-.75,0-1q0-1.15.18-13.66,0-4.14.28-8.37,0-.83.18-2.55t.18-2.6c0-.4,0-1,0-1.79a1.17,1.17,0,0,1,.87-1.29,2.9,2.9,0,0,1,1.56-.18,5.73,5.73,0,0,1,2.25.69,1.87,1.87,0,0,1,.85.62,3,3,0,0,1,.16,1.22Q427.61,65.55,427.47,66.33Z"/><path d="M443.94,87.26q0-1,.11-3t.12-3q0-1.06.16-3.1t.16-3q.28-4,.37-6.16.09-1.56.18-4.51a4.62,4.62,0,0,1,0-.78q.09-1.15,1.1-1.1l3.54.46a.64.64,0,0,1,.64.74,3.06,3.06,0,0,1,0,.87q0,1-.14,2.94,0,1.1-.14,3.33t-.18,3.33q0,.78-.09,2.3t-.14,2.3q0,.78,0,2.3v2.3q0,.87-.09,3.54t-.09,4.14q0,.32-.07,2.07a5.75,5.75,0,0,0,.12,2.07.83.83,0,0,1-.78,1.15l-.67.09-.76.09-.64.09a5.63,5.63,0,0,1-2.67-.74,1.09,1.09,0,0,1-.51-.74Q443,93.79,442.15,91q-.18-.6-.74-2.48t-.83-2.9l-.48-1.93q-.25-1-.55-2.23t-.48-1.91q-1.29-5.06-2-7.59a20.94,20.94,0,0,0-.83-2.62q0,.46,0,1.4t-.09,1.45q0,.92-.11,2.53t-.12,2.92q0,1.31,0,2.51,0,2,.09,5.93.09,5.52.14,8.33a4,4,0,0,1-.09.74.65.65,0,0,1-.6.51l-.37,0-.39.07a1.66,1.66,0,0,1-.34,0,2.77,2.77,0,0,0-.6,0h-1.2a1.42,1.42,0,0,1-.51,0,1.68,1.68,0,0,1-1.15-.48,1.92,1.92,0,0,1-.28-1.31q.09-4.23.09-6.35,0-.87,0-3.63t0-4.28q0-1,.23-6.16.09-2.71,0-5.38,0-1.56-.18-4.78a1.72,1.72,0,0,1,.16-1,1.3,1.3,0,0,1,.81-.44,5.44,5.44,0,0,1,3.27.18,4.69,4.69,0,0,1,1.38.69,2.52,2.52,0,0,1,.69,1.15q.32,1.15.94,3.47t.9,3.52l.28.8q.23.67.32,1,.37,1.52,1.15,4.55t1.2,4.51q.32,1.29,1,3.66t.78,2.78a1.08,1.08,0,0,0,.23.37h.14C443.92,88.4,443.94,87.91,443.94,87.26Z"/><path d="M458.93,93.84l2.62-.39,2.62-.39h.18q.92-.09,1.15.14c.15.15.2.54.14,1.15a.62.62,0,0,1-.46.74l-.28,0-.28,0a45.24,45.24,0,0,0-5.66.74,7.07,7.07,0,0,1-1.22.12,7.85,7.85,0,0,0-1,.07q-1.2,0-1.84,0a1.58,1.58,0,0,1-1.79-1.38A3.13,3.13,0,0,1,453,93.2q.6-3.73.92-8.51,0-.87.12-2.58t.12-2.53.41-6.12q0-1.43.23-4.28.14-1.75.32-5.24a1.19,1.19,0,0,1,.41-.83,3.91,3.91,0,0,1,2-.78l2-.16,2.32-.16a6.78,6.78,0,0,1,.9,0,10.31,10.31,0,0,0,1,0,4,4,0,0,0,.87-.18H465a1.9,1.9,0,0,1,.81.21,1.54,1.54,0,0,1,.11.8,1.83,1.83,0,0,1-.14.94c-.09.11-.4.18-.92.21q-2.39.09-3.59.18a.92.92,0,0,0-.58.18,1.46,1.46,0,0,0-.16.69L460,71.58s0,.89-.14,2.58l-.14,2.9c0,.43,0,.68.14.76s.34.09.74,0l2.67-.28a1,1,0,0,1,.64.07,1.47,1.47,0,0,1,.28.67,1.51,1.51,0,0,1,.09.37c0,.43-.14.66-.51.69s-1,.12-1.75.18-1.58.12-2,.18-.51.32-.51.78-.06,1-.09,1.7,0,1.3,0,1.7q-.46,5.84-.64,6.81c-.06.37-.13.94-.21,1.7s-.13,1.23-.16,1.38A1.26,1.26,0,0,0,458.93,93.84Z"/><path d="M469.38,60q-.14-3.13,1.15-3.13.46,0,.67.67a13.18,13.18,0,0,1,.25,2.88,13.15,13.15,0,0,1-.07,2.12,4.75,4.75,0,0,1-.35,1.4,3.18,3.18,0,0,1-.53.8.74.74,0,0,1-.58.3,2.33,2.33,0,0,1-.55-.12.75.75,0,0,1-.32-.58,2.67,2.67,0,0,1,.07-.9,12.78,12.78,0,0,0,.21-1.47A14.28,14.28,0,0,0,469.38,60Z"/><path d="M492,79.35a6.28,6.28,0,0,1,.14,1,8.08,8.08,0,0,0,.09.87,30.89,30.89,0,0,1-1.29,7.31,9.91,9.91,0,0,1-.46,1.13,8.86,8.86,0,0,1-.48.9l-.67,1q-.46.69-.6.88a12.82,12.82,0,0,1-3.63,3.63l-.09,0a4.34,4.34,0,0,1-1,.48,9.38,9.38,0,0,1-1.77.35,6.79,6.79,0,0,1-2.74-.35A11.75,11.75,0,0,1,476.23,95a9.3,9.3,0,0,1-1.47-3.06,13,13,0,0,1-.55-2.87V87.91l.14-.69a12.46,12.46,0,0,1,.46-1.56c.18-.46.52-.55,1-.28.21.09.32.21.32.37l0,.18c0,.09-.08.25-.14.48a5.63,5.63,0,0,0-.14.67,5.32,5.32,0,0,0-.14,2.48,5.15,5.15,0,0,0,4.65,5.06,3.48,3.48,0,0,0,2.9-.58,4.72,4.72,0,0,0,1.61-2.58,18.46,18.46,0,0,0,.6-3.24,22.45,22.45,0,0,0,0-3.22,13.39,13.39,0,0,0-.18-2.3l-.14-.69q-.88-3.73-3.73-4.51L479.36,77a4.52,4.52,0,0,1-2.85-4.37,10.73,10.73,0,0,1,.74-3.5A12.37,12.37,0,0,1,478.85,66,7.49,7.49,0,0,1,483.18,63a23.59,23.59,0,0,1,2.9-.55,5.37,5.37,0,0,1,3.27,1,5.79,5.79,0,0,1,1.61,1.33,2,2,0,0,1,.23.41q.09.46,0,.55a.45.45,0,0,1-.41.23,1.56,1.56,0,0,1-.6-.41,8.23,8.23,0,0,0-2.25-1.43,3.92,3.92,0,0,0-3.08,0,10.36,10.36,0,0,0-2.76,1.24,6.86,6.86,0,0,0-2.76,3.4,10.82,10.82,0,0,0-1,2.94,2.46,2.46,0,0,0-.09.51,1.73,1.73,0,0,0,.25,1.22,1,1,0,0,0,.94.25,25,25,0,0,1,3.31-.14c.31,0,.83,0,1.59-.09a11.92,11.92,0,0,1,1.73,0,5.51,5.51,0,0,1,4.19,2.25A8.23,8.23,0,0,1,492,79.35Z"/><path d="M193.86,120.52l-.64.09a.93.93,0,0,1-.6-.18.6.6,0,0,1-.41-.51c0-.09.14-.28.41-.55a5.57,5.57,0,0,1,1-.46,8.85,8.85,0,0,0,1.66-.87,2.83,2.83,0,0,1,1.75-.55,51.49,51.49,0,0,1,6.67.14,4.36,4.36,0,0,1,2.25,1q.28.23.92.67t.92.67a6,6,0,0,1,1.43,2.35,11,11,0,0,1,.51,5.89,15.94,15.94,0,0,1-1.52,4.74q-.51.92-2.35,5.52a36.05,36.05,0,0,1-2.62,5.34l-2.9,4.74q-.78,1.29-1.89,2.9a.59.59,0,0,1-.6.37,2.81,2.81,0,0,0-.44-.09l-.46-.07a.83.83,0,0,1-.37-.18.93.93,0,0,1-.3-.39l-.41-.18-.67,0a5.09,5.09,0,0,1-.67-.07q-1.2-.09-1.06-1.43,0-.69.16-2t.16-2q0-.6.09-1.63t.09-1.91q0-.87.09-1.66.09-1.1.23-3.31t.23-3.31q.18-3.5.23-5.52,0-2.35,0-7a3.51,3.51,0,0,0,0-.64Q194.41,120.43,193.86,120.52Zm5.7,25,.23-.28q.55-1,.83-1.47a46.67,46.67,0,0,0,3.73-7.54q.18-.55,2.21-5a12.39,12.39,0,0,0,1.29-6.49q-.14-3.63-3.91-5.24a9.63,9.63,0,0,0-2.62-.32q-.55,0-.71.14a1.39,1.39,0,0,0-.16.83q-.09,2.07-.18,6.3,0,.83,0,2.44t-.09,2.44q0,1.06-.23,3.22t-.23,3.27q-.28,4.88-.41,7.27a2.54,2.54,0,0,0,0,.78Q199.38,145.73,199.57,145.5Z"/><path d="M212.54,150.14a7.82,7.82,0,0,1,.28-1.33q.37-1.15.87-3.33t.74-3.06q.28-1.1.69-3.15t.51-2.55q1.2-5.43,1.52-6.62l.39-1.36.46-1.59.39-1.33,1.24-5.11a3.1,3.1,0,0,0,0-.87,1.17,1.17,0,0,1,.64-1.47q.28-.14.85-.37a6.37,6.37,0,0,0,.81-.37,6.84,6.84,0,0,1,2.12-.28,1,1,0,0,1,1.2.78,4,4,0,0,1,.23.87q.69,6.35.92,8.83.23,2.12.6,5.75,0,.23.07.48t0,.55c0,.2,0,.36,0,.48q.37,3.41.55,5.06.18,2.16.55,6.39a10.67,10.67,0,0,1,0,1.17v1.22a.89.89,0,0,1-.41.69,10,10,0,0,1-3.08,1.29.44.44,0,0,0-.32.14.83.83,0,0,1-.92,0,1,1,0,0,1-.55-1,64,64,0,0,0-.64-8.6q-.09-.55-.21-1.61t-.16-1.61a1.66,1.66,0,0,0-.23-.71q-.14-.16-.64-.11t-3.59.23a.88.88,0,0,0-.87.83q-.18,1-1.2,5.43-.18.65-.53,1.93t-.48,1.93a20.49,20.49,0,0,1-.78,2.76q-.46.41-.6.28c0-.06-.06-.09-.09-.09a.13.13,0,0,0,0,.09v0l-.28.14A3.1,3.1,0,0,1,212.54,150.14Zm4.78-13.94,1.29-.14q.41,0,1.22-.07l1.22,0q.46,0,.55-.11c.06-.08.06-.27,0-.58s-.14-1.07-.23-1.91-.15-1.48-.18-1.91q-.09-1-.3-3.06t-.34-3.06a1.62,1.62,0,0,0-.07-.39,1.61,1.61,0,0,1-.07-.34A55.59,55.59,0,0,0,217.32,136.21Z"/><path d="M237.68,130.92q.3-1.06.44-1.61.41-1.79,1.13-5.13t1-4.71q.37-1.75.55-2.67a1.32,1.32,0,0,1,1-1.2,3.54,3.54,0,0,1,3,.74,2.61,2.61,0,0,1,.46.32l.37.32a1.81,1.81,0,0,1,.64,2.07q-1.61,6.17-2.21,9-.23,1.15-.55,2.42t-.74,2.81q-.41,1.54-.64,2.37-.51,2.07-2,8.19-.18.83-.53,2.51t-.53,2.51l-.69,2.81c-.12.31-.25.46-.37.46a3.92,3.92,0,0,1-1.33.18,22.8,22.8,0,0,1-2.94-.51q-.37-.09-.62-.8a2.19,2.19,0,0,1-.12-1.27l1.52-6.35q.51-2.07,1.52-6.3a4.44,4.44,0,0,0,0-1.79L234.85,131q-.28-1.06-.83-3.08t-.83-3.08a.64.64,0,0,0,0-.14.61.61,0,0,1,0-.14q-.28-.73-.85-2.21t-.85-2.21q-.23-.6-.37-1.06a1.21,1.21,0,0,1,.46-1.43q.55-.41,1.06.32a3.14,3.14,0,0,1,.55,1q.41,1.24,1.33,3.73a21.78,21.78,0,0,1,.76,2.42q.44,1.63.48,1.77.46,1.66,1.38,4.88a2.06,2.06,0,0,0,.23.41Q237.38,132,237.68,130.92Z"/><path d="M260.7,150.14a7.82,7.82,0,0,1,.28-1.33q.37-1.15.87-3.33t.74-3.06q.28-1.1.69-3.15t.51-2.55q1.2-5.43,1.52-6.62l.39-1.36.46-1.59.39-1.33,1.24-5.11a3.1,3.1,0,0,0,0-.87,1.17,1.17,0,0,1,.64-1.47q.28-.14.85-.37a6.37,6.37,0,0,0,.81-.37,6.84,6.84,0,0,1,2.12-.28,1,1,0,0,1,1.2.78,4,4,0,0,1,.23.87q.69,6.35.92,8.83.23,2.12.6,5.75,0,.23.07.48t0,.55c0,.2,0,.36,0,.48q.37,3.41.55,5.06.18,2.16.55,6.39a10.67,10.67,0,0,1,0,1.17v1.22a.89.89,0,0,1-.41.69,10,10,0,0,1-3.08,1.29.44.44,0,0,0-.32.14.83.83,0,0,1-.92,0,1,1,0,0,1-.55-1,64,64,0,0,0-.64-8.6q-.09-.55-.21-1.61t-.16-1.61a1.66,1.66,0,0,0-.23-.71q-.14-.16-.64-.11t-3.59.23a.88.88,0,0,0-.87.83q-.18,1-1.2,5.43-.18.65-.53,1.93t-.48,1.93a20.49,20.49,0,0,1-.78,2.76q-.46.41-.6.28c0-.06-.06-.09-.09-.09a.13.13,0,0,0,0,.09v0l-.28.14A3.1,3.1,0,0,1,260.7,150.14Zm4.78-13.94,1.29-.14q.41,0,1.22-.07l1.22,0q.46,0,.55-.11c.06-.08.06-.27,0-.58s-.14-1.07-.23-1.91-.15-1.48-.18-1.91q-.09-1-.3-3.06t-.34-3.06a1.62,1.62,0,0,0-.07-.39,1.61,1.61,0,0,1-.07-.34A55.59,55.59,0,0,0,265.48,136.21Z"/><path d="M286.51,135.35a4.36,4.36,0,0,0-.64.48,1.25,1.25,0,0,0-.32.6,12.14,12.14,0,0,0-.09,1.24q-.18,3.27-.46,9.8l-.14,2.76a1,1,0,0,1-.6.87,10.25,10.25,0,0,1-1.08.41q-.58.18-1.31.34l-1.1.25a.89.89,0,0,1-.57,0,1.39,1.39,0,0,1-.39-.55,2.08,2.08,0,0,0-.32-.51,1.85,1.85,0,0,1-.28-1.33l.41-5.24q.37-5.06.51-7.59.14-1.56.32-4.69.37-3.82.51-6,0-.92,0-2.76,0-.28,0-1.13t.07-1.31a1.23,1.23,0,0,0-.37-1.06.66.66,0,0,1-.37-.78.78.78,0,0,1,.64-.64q.46-.09,1.27-.3l1.47-.37,1.26-.3a24.91,24.91,0,0,1,4.69-.46,6.82,6.82,0,0,1,3,.78,3.91,3.91,0,0,1,1.56,1.79,7.62,7.62,0,0,1,.51,5.7,10.41,10.41,0,0,1-2.44,4.46c-.25.28-.58.68-1,1.22s-.67.85-.74.94-.34.38-.64.69a1.3,1.3,0,0,0-.46,1.33l.48,2.23q.39,1.82.62,2.83t2.07,8.65l.35,1.1q.25.83.34,1.29a1.7,1.7,0,0,1-.16,1.31,1.29,1.29,0,0,1-.94.71.28.28,0,0,1-.37-.09,2.48,2.48,0,0,1-.92-1.38q-.28-1.66-.67-3.45t-.92-4q-.53-2.23-.76-3.38-.18-.83-.6-2.32t-.55-2l-.28-.6A4.2,4.2,0,0,1,286.51,135.35Zm-.6-2.37.6-.41a5.34,5.34,0,0,0,.69-.55,33,33,0,0,0,4.37-5,9.38,9.38,0,0,0,1.52-5.06q.14-2.53-2.21-2.85-.69,0-4,0a2.21,2.21,0,0,0-.55.23,4,4,0,0,1,.35,1,8.64,8.64,0,0,1-.07,1.2.63.63,0,0,0,0,.28v.28q-.37,4.6-.51,6.85-.14,1.29-.32,3.86A.75.75,0,0,1,285.91,133Z"/><path d="M303.62,149l2.62-.39,2.62-.39H309q.92-.09,1.15.14c.15.15.2.54.14,1.15a.62.62,0,0,1-.46.74l-.28,0-.28,0a45.22,45.22,0,0,0-5.66.74,7,7,0,0,1-1.22.12,8.08,8.08,0,0,0-1,.07q-1.2,0-1.84,0a1.58,1.58,0,0,1-1.79-1.38,3.1,3.1,0,0,1-.09-1.52q.6-3.73.92-8.51,0-.87.11-2.58t.12-2.53.41-6.12q0-1.43.23-4.28.14-1.75.32-5.24a1.2,1.2,0,0,1,.41-.83,3.92,3.92,0,0,1,2-.78l2-.16,2.32-.16a6.79,6.79,0,0,1,.9,0q.58,0,1,0a4,4,0,0,0,.88-.18h.41a1.92,1.92,0,0,1,.8.21,1.54,1.54,0,0,1,.12.81,1.84,1.84,0,0,1-.14.94c-.09.11-.4.18-.92.21q-2.39.09-3.59.18a.91.91,0,0,0-.58.18,1.47,1.47,0,0,0-.16.69l-.55,6.62s0,.89-.14,2.58l-.14,2.9c0,.43,0,.68.14.76s.34.08.74,0l2.67-.28a1,1,0,0,1,.64.07,1.46,1.46,0,0,1,.28.67,1.54,1.54,0,0,1,.09.37q0,.64-.51.69t-1.75.18q-1.38.09-2,.18t-.51.78q0,.6-.09,1.7c0,.74,0,1.3,0,1.7q-.46,5.84-.64,6.81-.09.55-.21,1.7c-.08.77-.13,1.23-.16,1.38A1.26,1.26,0,0,0,303.62,149Z"/><path d="M341.15,125.9c-.06.25-.15.62-.28,1.13l-.28,1.13q-.28.92-.74,2.85t-.74,2.85a38,38,0,0,1-1.29,4.65,7.29,7.29,0,0,1-.92,1.56,1.23,1.23,0,0,1-1.33.37q-.6-.18-.69-1.06-.23-1.75-.9-4.83t-.85-4.19q-.23-1.29-1.43-6.07,0-.18-.28-.83a4,4,0,0,0-.28,1.66q-.18,5.06-.18,7.54v4.74q.09,2,.09,3,0,3.08-.09,9.15a2.62,2.62,0,0,1-.09.6.61.61,0,0,1-.55.6,13.08,13.08,0,0,1-3.63,0,1,1,0,0,1-1-1.1c0-.37,0-.92,0-1.66a3,3,0,0,1,0-.3,3.16,3.16,0,0,0,0-.34q0-4,.14-12,0-3.63,0-5.47a76.38,76.38,0,0,1,1-11.27,1.76,1.76,0,0,1,.25-.76.87.87,0,0,1,.62-.25h.64a3.43,3.43,0,0,0,.64,0l.44,0a5.06,5.06,0,0,0,.58-.09,1,1,0,0,1,1.2.37,9.09,9.09,0,0,1,1.33,2.62,64.28,64.28,0,0,1,1.75,6.3q.69,3.4,1.75,8.46,0,.09.32,1.33l.28-.6.55-2.37.55-2.37.55-2.09q.37-1.4.55-2.14.23-.92.74-3.5.28-1.2.46-1.79.55-2.12.88-3.17a1.54,1.54,0,0,1,.46-.78,4.89,4.89,0,0,1,3.5-1.29A6,6,0,0,1,347,117q.83.28.69,1.56-.18,1.66-.23,2.48-.23,2.58-.46,11.78,0,1.79-.37,10.17-.09,4-.14,6a3.16,3.16,0,0,1-.12.83q-.07.14-.62.32l-.28.14a3.51,3.51,0,0,1-1,.48,7.67,7.67,0,0,1-1.26.25,7.83,7.83,0,0,0-1.06.18.55.55,0,0,1-.6-.28,1.79,1.79,0,0,1-.6-1.56q0-2.3.23-6.58v-.18q.28-7.77.28-8,0-2.07,0-6.26.09-2.21.14-3.27v-.87h-.09Q341.43,124.8,341.15,125.9Z"/><path d="M356.24,149l2.62-.39,2.62-.39h.18q.92-.09,1.15.14c.15.15.2.54.14,1.15a.62.62,0,0,1-.46.74l-.28,0-.28,0a45.22,45.22,0,0,0-5.66.74,7,7,0,0,1-1.22.12,8.08,8.08,0,0,0-1,.07q-1.2,0-1.84,0a1.58,1.58,0,0,1-1.79-1.38,3.1,3.1,0,0,1-.09-1.52q.6-3.73.92-8.51,0-.87.11-2.58t.12-2.53.41-6.12q0-1.43.23-4.28.14-1.75.32-5.24a1.2,1.2,0,0,1,.41-.83,3.92,3.92,0,0,1,2-.78l2-.16,2.32-.16a6.79,6.79,0,0,1,.9,0q.58,0,1,0a4,4,0,0,0,.88-.18h.41a1.92,1.92,0,0,1,.8.21,1.54,1.54,0,0,1,.12.81,1.84,1.84,0,0,1-.14.94c-.09.11-.4.18-.92.21q-2.39.09-3.59.18a.91.91,0,0,0-.58.18,1.47,1.47,0,0,0-.16.69l-.55,6.62s0,.89-.14,2.58l-.14,2.9c0,.43,0,.68.14.76s.34.08.74,0l2.67-.28a1,1,0,0,1,.64.07,1.46,1.46,0,0,1,.28.67,1.54,1.54,0,0,1,.09.37q0,.64-.51.69t-1.75.18q-1.38.09-2,.18t-.51.78q0,.6-.09,1.7c0,.74,0,1.3,0,1.7q-.46,5.84-.64,6.81-.09.55-.21,1.7c-.08.77-.13,1.23-.16,1.38A1.26,1.26,0,0,0,356.24,149Z"/><path d="M379.75,142.46q0-1,.11-3t.12-3q0-1.06.16-3.1t.16-3q.28-4,.37-6.16.09-1.56.18-4.51a4.59,4.59,0,0,1,0-.78q.09-1.15,1.1-1.1l3.54.46a.64.64,0,0,1,.64.74,3,3,0,0,1,0,.87l-.14,2.94q0,1.1-.14,3.33t-.18,3.34q0,.78-.09,2.3t-.14,2.3q0,.78,0,2.3v2.3q0,.87-.09,3.54t-.09,4.14q0,.32-.07,2.07a5.77,5.77,0,0,0,.12,2.07.83.83,0,0,1-.78,1.15l-.67.09-.76.09-.64.09a5.62,5.62,0,0,1-2.67-.74,1.09,1.09,0,0,1-.51-.74q-.46-1.38-1.29-4.14-.18-.6-.74-2.48t-.83-2.9l-.48-1.93-.55-2.23q-.3-1.22-.48-1.91-1.29-5.06-2-7.59a21.16,21.16,0,0,0-.83-2.62q0,.46,0,1.4t-.09,1.45q0,.92-.12,2.53t-.12,2.92q0,1.31,0,2.51,0,2,.09,5.93.09,5.52.14,8.33a3.94,3.94,0,0,1-.09.74.65.65,0,0,1-.6.51l-.37,0-.39.07a1.67,1.67,0,0,1-.34,0,2.77,2.77,0,0,0-.6,0h-1.2a1.42,1.42,0,0,1-.51,0,1.68,1.68,0,0,1-1.15-.48,1.92,1.92,0,0,1-.28-1.31q.09-4.23.09-6.35,0-.87,0-3.63t0-4.28q0-1,.23-6.16.09-2.71,0-5.38,0-1.56-.18-4.78a1.71,1.71,0,0,1,.16-1,1.3,1.3,0,0,1,.81-.44,5.44,5.44,0,0,1,3.27.18,4.72,4.72,0,0,1,1.38.69,2.54,2.54,0,0,1,.69,1.15q.32,1.15.94,3.47t.9,3.52l.28.81c.15.44.26.79.32,1q.37,1.52,1.15,4.55t1.2,4.51q.32,1.29,1,3.66t.78,2.78a1.06,1.06,0,0,0,.23.37h.14C379.73,143.6,379.75,143.11,379.75,142.46Z"/></svg>