<svg id="Layer_1" data-name="Layer 1" xmlns="http://www.w3.org/2000/svg" viewBox="0 0 526.23 102.4"><title>10</title><path d="M5.38,39.74a7.81,7.81,0,0,1,.28-1.33q.37-1.15.87-3.33T7.27,32q.28-1.1.69-3.15t.51-2.55q1.2-5.43,1.52-6.62l.39-1.36.46-1.59.39-1.33,1.24-5.11a3.1,3.1,0,0,0,0-.87A1.17,1.17,0,0,1,13.06,8q.28-.14.85-.37a6.31,6.31,0,0,0,.81-.37,6.82,6.82,0,0,1,2.12-.28,1,1,0,0,1,1.2.78,4,4,0,0,1,.23.87q.69,6.35.92,8.83.23,2.12.6,5.75,0,.23.07.48t0,.55q0,.3,0,.48.37,3.4.55,5.06.18,2.16.55,6.39a10.67,10.67,0,0,1,0,1.17v1.22a.89.89,0,0,1-.41.69,10,10,0,0,1-3.08,1.29.44.44,0,0,0-.32.14.84.84,0,0,1-.92,0,1,1,0,0,1-.55-1,64,64,0,0,0-.64-8.6q-.09-.55-.21-1.61t-.16-1.61a1.65,1.65,0,0,0-.23-.71Q14.4,27,13.89,27t-3.59.23a.88.88,0,0,0-.87.83q-.18,1-1.2,5.43-.18.64-.53,1.93T7.22,37.4a20.52,20.52,0,0,1-.78,2.76q-.46.41-.6.28c0-.06-.06-.09-.09-.09a.13.13,0,0,0,0,.09v0l-.28.14A3.1,3.1,0,0,1,5.38,39.74Zm4.78-13.94,1.29-.14q.41,0,1.22-.07l1.22,0q.46,0,.55-.12t0-.57q-.09-.64-.23-1.91T14,21.07q-.09-1-.3-3.06T13.39,15a1.62,1.62,0,0,0-.07-.39,1.61,1.61,0,0,1-.07-.35A55.61,55.61,0,0,0,10.17,25.81Z"/><path d="M33.63,20.65a3.34,3.34,0,0,1,1.66.18l.25.09a1,1,0,0,0,.25,0,3.16,3.16,0,0,1,2.67,1.75,9,9,0,0,1,1.24,3.22s0,.11,0,.23a2.5,2.5,0,0,1,0,.28,17.19,17.19,0,0,1-1.24,5.38,16.11,16.11,0,0,1-1.75,2.76,16.43,16.43,0,0,1-6.58,5.06q-.41.23-1.22.58l-1.08.48a2.28,2.28,0,0,1-2.58-.23l-.14-.14q-1-.28-.87-1.52.14-6.95.09-8.37,0-1.61-.23-9.75v-.37q-.09-3.22-.18-9.57a9.78,9.78,0,0,0,0-1.1,1.63,1.63,0,0,1,.28-1.1,2,2,0,0,1,1.43-.92l2.25-.14a19.32,19.32,0,0,1,2.3-.14,22.3,22.3,0,0,1,2.39.18c.15,0,.38,0,.67,0s.51,0,.67,0a3.55,3.55,0,0,1,2,.8,3.1,3.1,0,0,1,1.22,1.73A7,7,0,0,1,36,16.24a33.93,33.93,0,0,1-3.08,3.82,1.84,1.84,0,0,0-.32.51Q33.4,20.66,33.63,20.65Zm-3.91-.18c.09-.09.29-.26.6-.51A27.78,27.78,0,0,0,34.5,14.9a6.06,6.06,0,0,0,1.06-3.82,1.61,1.61,0,0,0-1.38-1.61,15.7,15.7,0,0,0-3.86-.41.62.62,0,0,0-.69.64q-.14,2.21-.14,2.3v7.64c0,.09,0,.22,0,.39s0,.3,0,.39A.27.27,0,0,1,29.72,20.47Zm.55,17,.51-.28a15.84,15.84,0,0,0,5.11-4.88,10.21,10.21,0,0,0,1.38-3q.14-.55.46-2.07A5.55,5.55,0,0,0,37,23.46a2.49,2.49,0,0,0-1.1-1,10.53,10.53,0,0,0-5.29-.14,1.15,1.15,0,0,0-.76.37,1.57,1.57,0,0,0-.21.92q.14,3.59.14,3.63,0,.92,0,2.69t0,2.65q0,1.52,0,4.46s0,.26.09.69A4.61,4.61,0,0,0,30.27,37.49Z"/><path d="M43.06,30.13q-.46-4-.51-4.65a25.36,25.36,0,0,1,1.38-10.63,16.2,16.2,0,0,1,2.25-4.37q.23-.23.67-.71L47.52,9a2.66,2.66,0,0,0,.74-1,.57.57,0,0,1,.37-.41l.83-.16a7.77,7.77,0,0,0,.83-.21,2.43,2.43,0,0,1,1.08-.07l1.06.12q.3,0,1.06.23t1.08.23a4.43,4.43,0,0,1,3.17,2.48,41.9,41.9,0,0,1,3,8.1,26.32,26.32,0,0,1,.41,9.57q-.46,3.31-.6,4a13.36,13.36,0,0,1-.69,2.44q-.74,2.12-1.15,3.13A5.72,5.72,0,0,1,56.4,40l-1.2.64q-.78.41-1.15.64t-.6.18l-1.31,0q-1.17,0-1.31-.14a5.81,5.81,0,0,0-1.93-.32,3.63,3.63,0,0,1-3.27-2.3q-.32-.69-1.52-3.5A36.8,36.8,0,0,1,43.06,30.13ZM54.53,14.4q-.39-.87-.92-1.93t-.8-1.66a1,1,0,0,0-.64-.64,7.07,7.07,0,0,0-1.79-.55,1.38,1.38,0,0,0-1,.23,6.74,6.74,0,0,0-2.48,2.85,21.28,21.28,0,0,0-2.12,6.85,31.62,31.62,0,0,0-.28,5.57q.32,3.54,1.06,7.41a27,27,0,0,0,1.7,5.11q.55,1.15,1.43,1.1h1.43a1.74,1.74,0,0,0,.69-.09,6.28,6.28,0,0,0,3.63-3.5,38.63,38.63,0,0,0,1.29-4.23q0-.14.55-3.4a23.37,23.37,0,0,0,0-6.07,20.22,20.22,0,0,0-1.2-5.34A9,9,0,0,0,54.53,14.4Z"/><path d="M64.35,17.94q.14-3.45.51-9.84,0-1,.69-1a1.05,1.05,0,0,1,.71.41,1.17,1.17,0,0,1,.25.87L66.38,10q-.09,1.08-.14,1.63a5.6,5.6,0,0,0-.09.87q-.09,10.35-.09,12.42t.28,6.62q0,.32.37,1.7a9.87,9.87,0,0,0,.32,1.2,7.66,7.66,0,0,0,.32,1.06q.46,1,1.29.78A5.2,5.2,0,0,0,72.4,32l.12-.46q.07-.28.11-.53a2.73,2.73,0,0,0,0-.48q.55-3.77.78-5.7.55-5.75.64-7.13.23-3.17.32-7.22a10.65,10.65,0,0,0-.09-1.7,2.16,2.16,0,0,1,1.2-2.35A1.66,1.66,0,0,1,77,6.35a4.56,4.56,0,0,0,.92.18,2.76,2.76,0,0,1,2.48,3.08q-.14,2.94-.51,9.34-.46,5.89-.74,9.2a40.57,40.57,0,0,1-.64,4.42q0,.32-1.1,3.54L77,37a6.67,6.67,0,0,0-.35.87,8.55,8.55,0,0,1-2.48,3.08,5.64,5.64,0,0,1-4.65,1.38,3.29,3.29,0,0,1-1.93-1q-1.93-1.89-2.76-6.12,0-.41-.18-2.53-.09-1.66-.23-4.88t-.18-4.88h.09Q64.31,18.77,64.35,17.94Z"/><path d="M88.5,13.11q0-1.06,0-1.61v-.64a1.47,1.47,0,0,0-.21-.78.81.81,0,0,0-.62-.18h-3a6.94,6.94,0,0,1-.92,0,.73.73,0,0,1-.53-.44,1.26,1.26,0,0,1-.16-.76.73.73,0,0,1,.78-.74q.51,0,1.45,0L87.08,8l1.47,0a13.52,13.52,0,0,0,3.08-.23A23.35,23.35,0,0,1,97,7.36q.83,0,2.35-.09t2-.09a1.19,1.19,0,0,1,1.2,1.06q.14.55-.28.69l-.23,0-.23,0-6.26.14h-.37q-.69,0-.85.28a2.1,2.1,0,0,0-.07,1.15,6,6,0,0,1,0,.87q-.09,1.84-.18,2.76t-.23,2.67q0,.51-.14,1.43T93.54,20q-.07.74-.11,1.43-.37,5.29-.51,7.68-.23,3.13-.46,5.61T92.23,38q0,.23,0,.74c0,.34,0,.6,0,.78a1,1,0,0,1-.55.87A6.54,6.54,0,0,1,90,40.8q-1,.14-1.36.23a2.34,2.34,0,0,1-1.1-.14q-.87-.28-.78-1.52.09-1.06.41-4.16T87.67,30q.23-2.85.51-8.74l.14-2.78.14-2.78v-1h0Q88.46,14.17,88.5,13.11Z"/><path d="M120.52,13.48A8.65,8.65,0,0,1,119,16a5.64,5.64,0,0,1-.78.69c-.28.22-.51.23-.69,0a.84.84,0,0,1,0-.83,2.51,2.51,0,0,1,.23-.6q.55-1.1,3.08-6.39a3.1,3.1,0,0,0,.32-1.06,2.13,2.13,0,0,1,.83-1.7,3.39,3.39,0,0,1,3.13-1l.74.12.74.11a1.34,1.34,0,0,1,.94.48A2,2,0,0,1,127.56,7q0,.46-.28,2T127,11.32q-.18,1.75-.37,5.43-.28,3.86-.37,5.61,0,.92-.18,2.76t-.18,2.76q0,1.2-.18,3.52t-.18,3.47q-.09,1.43-.18,4.46a1.63,1.63,0,0,1,0,.46.92.92,0,0,1-.51.64l-.23.14a9.5,9.5,0,0,1-3.17.83,1.2,1.2,0,0,1-1-.46,1.6,1.6,0,0,1-.39-1.2q.14-2.16.51-6.49a10.37,10.37,0,0,0,0-1.15q.09-1.47.18-4.51t.18-4.51q.09-1,.18-3t.18-3q0-1.24.23-3.82V11.91a.19.19,0,0,1-.14,0Z"/><path d="M152.07,20.65a3.34,3.34,0,0,1,1.66.18l.25.09a1,1,0,0,0,.25,0,3.16,3.16,0,0,1,2.67,1.75,9,9,0,0,1,1.24,3.22s0,.11,0,.23a2.5,2.5,0,0,1,0,.28,17.19,17.19,0,0,1-1.24,5.38,16.11,16.11,0,0,1-1.75,2.76,16.43,16.43,0,0,1-6.58,5.06q-.41.23-1.22.58l-1.08.48a2.28,2.28,0,0,1-2.58-.23l-.14-.14q-1-.28-.87-1.52.14-6.95.09-8.37,0-1.61-.23-9.75v-.37q-.09-3.22-.18-9.57a9.78,9.78,0,0,0,0-1.1,1.63,1.63,0,0,1,.28-1.1,2,2,0,0,1,1.43-.92l2.25-.14a19.32,19.32,0,0,1,2.3-.14,22.3,22.3,0,0,1,2.39.18c.15,0,.38,0,.67,0s.51,0,.67,0a3.55,3.55,0,0,1,2,.8,3.1,3.1,0,0,1,1.22,1.73,7,7,0,0,1-1.15,6.07,33.93,33.93,0,0,1-3.08,3.82,1.84,1.84,0,0,0-.32.51Q151.84,20.66,152.07,20.65Zm-3.91-.18c.09-.09.29-.26.6-.51a27.78,27.78,0,0,0,4.19-5.06A6.06,6.06,0,0,0,154,11.09a1.61,1.61,0,0,0-1.38-1.61,15.7,15.7,0,0,0-3.86-.41.62.62,0,0,0-.69.64q-.14,2.21-.14,2.3v7.64c0,.09,0,.22,0,.39s0,.3,0,.39A.27.27,0,0,1,148.16,20.47Zm.55,17,.51-.28a15.84,15.84,0,0,0,5.11-4.88,10.21,10.21,0,0,0,1.38-3q.14-.55.46-2.07a5.55,5.55,0,0,0-.74-3.77,2.49,2.49,0,0,0-1.1-1,10.53,10.53,0,0,0-5.29-.14,1.15,1.15,0,0,0-.76.37,1.57,1.57,0,0,0-.21.92q.14,3.59.14,3.63,0,.92,0,2.69t0,2.65q0,1.52,0,4.46s0,.26.09.69A4.61,4.61,0,0,0,148.72,37.49Z"/><path d="M167.35,11.13a43.7,43.7,0,0,0-.46,6.53l-.14,7.87v5.15q0,1-.09,2.88t-.09,2.88q0,.46,0,1.38t0,1.38a1.15,1.15,0,0,1-.11.64,1.59,1.59,0,0,1-.53.32,8.18,8.18,0,0,1-2.16.55q-.6,0-1.75,0a.49.49,0,0,1-.46-.23,3.53,3.53,0,0,1-.51-1.89q0-.32.07-1t0-1q0-1.15.18-13.66,0-4.14.28-8.37,0-.83.18-2.55t.18-2.6q0-.6,0-1.79a1.17,1.17,0,0,1,.87-1.29,2.9,2.9,0,0,1,1.56-.18,5.73,5.73,0,0,1,2.25.69,1.86,1.86,0,0,1,.85.62,3,3,0,0,1,.16,1.22Q167.48,10.35,167.35,11.13Z"/><path d="M176.78,20.33q-.14,8.65-.14,8.74,0,1.29-.37,7.36a5.59,5.59,0,0,0,0,.85,5.74,5.74,0,0,1,0,.85q0,.51.32.64l1,.14,3.73-.14a1.71,1.71,0,0,1,.55,0q.46,0,.55.64a3.11,3.11,0,0,1,0,1.29q-.11.18-1,.18-.28,0-.78,0c-.34,0-.6,0-.78,0h-1.33l-2.53-.14q-.64,0-1.89.07l-1.89.12h-.23a1.51,1.51,0,0,1-1.38-2q.46-3.22.74-9.71.14-2.21.23-9.89,0-2.07.18-6.21V9.38c0-.21,0-.54,0-1s0-.75,0-1a1.2,1.2,0,0,1,.87-1.33,4.65,4.65,0,0,1,4.19.83A1.13,1.13,0,0,1,177.1,8V9.61h0Q176.87,16.79,176.78,20.33Z"/><path d="M191.5,20.33q-.14,8.65-.14,8.74,0,1.29-.37,7.36a5.59,5.59,0,0,0,0,.85,5.74,5.74,0,0,1,0,.85q0,.51.32.64l1,.14,3.73-.14a1.71,1.71,0,0,1,.55,0q.46,0,.55.64a3.11,3.11,0,0,1,0,1.29q-.11.18-1,.18-.28,0-.78,0c-.34,0-.6,0-.78,0H193.1l-2.53-.14q-.64,0-1.89.07L186.8,41h-.23a1.51,1.51,0,0,1-1.38-2q.46-3.22.74-9.71.14-2.21.23-9.89,0-2.07.18-6.21V9.38c0-.21,0-.54,0-1s0-.75,0-1a1.2,1.2,0,0,1,.87-1.33,4.65,4.65,0,0,1,4.19.83A1.13,1.13,0,0,1,191.82,8V9.61h0Q191.59,16.79,191.5,20.33Z"/><path d="M206.26,11.13a43.7,43.7,0,0,0-.46,6.53l-.14,7.87v5.15q0,1-.09,2.88t-.09,2.88q0,.46,0,1.38t0,1.38a1.15,1.15,0,0,1-.11.64,1.59,1.59,0,0,1-.53.32,8.18,8.18,0,0,1-2.16.55q-.6,0-1.75,0a.49.49,0,0,1-.46-.23,3.53,3.53,0,0,1-.51-1.89q0-.32.07-1t0-1q0-1.15.18-13.66,0-4.14.28-8.37,0-.83.18-2.55t.18-2.6q0-.6,0-1.79a1.17,1.17,0,0,1,.87-1.29,2.9,2.9,0,0,1,1.56-.18,5.73,5.73,0,0,1,2.25.69,1.86,1.86,0,0,1,.85.62,3,3,0,0,1,.16,1.22Q206.4,10.35,206.26,11.13Z"/><path d="M209.89,30.13q-.46-4-.51-4.65a25.36,25.36,0,0,1,1.38-10.63A16.2,16.2,0,0,1,213,10.49q.23-.23.67-.71l.67-.76a2.66,2.66,0,0,0,.74-1,.57.57,0,0,1,.37-.41l.83-.16a7.77,7.77,0,0,0,.83-.21,2.43,2.43,0,0,1,1.08-.07l1.06.12q.3,0,1.06.23t1.08.23a4.43,4.43,0,0,1,3.17,2.48,41.9,41.9,0,0,1,3,8.1,26.32,26.32,0,0,1,.41,9.57q-.46,3.31-.6,4a13.36,13.36,0,0,1-.69,2.44q-.74,2.12-1.15,3.13A5.72,5.72,0,0,1,223.23,40l-1.2.64q-.78.41-1.15.64t-.6.18l-1.31,0q-1.17,0-1.31-.14a5.81,5.81,0,0,0-1.93-.32,3.63,3.63,0,0,1-3.27-2.3q-.32-.69-1.52-3.5A36.8,36.8,0,0,1,209.89,30.13ZM221.37,14.4q-.39-.87-.92-1.93t-.8-1.66a1,1,0,0,0-.64-.64,7.07,7.07,0,0,0-1.79-.55,1.38,1.38,0,0,0-1,.23,6.74,6.74,0,0,0-2.48,2.85,21.28,21.28,0,0,0-2.12,6.85,31.62,31.62,0,0,0-.28,5.57q.32,3.54,1.06,7.41a27,27,0,0,0,1.7,5.11q.55,1.15,1.43,1.1h1.43a1.74,1.74,0,0,0,.69-.09,6.28,6.28,0,0,0,3.63-3.5,38.63,38.63,0,0,0,1.29-4.23q0-.14.55-3.4a23.37,23.37,0,0,0,0-6.07,20.22,20.22,0,0,0-1.2-5.34A9,9,0,0,0,221.37,14.4Z"/><path d="M244.44,32.06q0-1,.11-3t.12-3q0-1.06.16-3.1t.16-3q.28-4,.37-6.16.09-1.56.18-4.51a4.54,4.54,0,0,1,0-.78q.09-1.15,1.1-1.1l3.54.46a.64.64,0,0,1,.64.74,3,3,0,0,1,0,.87q0,1-.14,2.94l-.14,3.33q-.09,2.23-.18,3.33,0,.78-.09,2.3t-.14,2.3q0,.78,0,2.3v2.3q0,.87-.09,3.54t-.09,4.14q0,.32-.07,2.07A5.77,5.77,0,0,0,250,40a.83.83,0,0,1-.78,1.15l-.67.09-.76.09-.64.09a5.63,5.63,0,0,1-2.67-.74,1.08,1.08,0,0,1-.51-.74q-.46-1.38-1.29-4.14-.18-.6-.74-2.48t-.83-2.9l-.48-1.93L240,26.29q-.3-1.22-.48-1.91-1.29-5.06-2-7.59a21.19,21.19,0,0,0-.83-2.62q0,.46,0,1.4T236.62,17q0,.92-.11,2.53t-.12,2.92q0,1.31,0,2.51,0,2,.09,5.93.09,5.52.14,8.33a4,4,0,0,1-.09.74.65.65,0,0,1-.6.51l-.37,0-.39.07a1.71,1.71,0,0,1-.35,0,2.74,2.74,0,0,0-.6,0H233a1.42,1.42,0,0,1-.51,0,1.68,1.68,0,0,1-1.15-.48,1.92,1.92,0,0,1-.28-1.31q.09-4.23.09-6.35,0-.87,0-3.63t0-4.28q0-1,.23-6.16.09-2.71,0-5.38,0-1.56-.18-4.78a1.71,1.71,0,0,1,.16-1,1.29,1.29,0,0,1,.81-.44,5.44,5.44,0,0,1,3.27.18,4.7,4.7,0,0,1,1.38.69,2.52,2.52,0,0,1,.69,1.15q.32,1.15.94,3.47t.9,3.52l.28.8q.23.67.32,1,.37,1.52,1.15,4.55t1.2,4.51q.32,1.29,1,3.66t.78,2.78a1.08,1.08,0,0,0,.23.37h.14Q244.44,33,244.44,32.06Z"/><path d="M271.51,30.38l.11-.48q.09-.37.69-3.08t1-4.14q.37-1.47,1.15-4.16l1-3.33q1-3,1.06-3.5.41-1.84,1.52-5.34.18-.78.83-.74a3,3,0,0,1,1.1.23q1,.55,2.94,1.75.41.23.32,1a.55.55,0,0,1,0,.16.49.49,0,0,1-.09.16,12.5,12.5,0,0,0-.69,1.56q-.32.87-.51,1.52l-.48,1.73q-.3,1.08-.44,1.63-.37,1.24-1.08,3.73t-1.08,3.73q-1.34,5.2-1.61,6.39l-1,5.57q-.55,3.86-.87,5.75a1.47,1.47,0,0,1-.46,1,.85.85,0,0,1-.87.11,9.23,9.23,0,0,1-3.45-2.21,2.07,2.07,0,0,1-.64-1.38q-.09-.92-.32-2.71t-.23-1.93q-.28-2.39-.41-3.63-.28-2.21-.37-3.36-.09-1.89-.87-6.9-.55-3.17-1.56-9.52-.09-.37-.25-1.08t-.21-1.08a1.75,1.75,0,0,1,.16-1.13.67.67,0,0,1,.76-.34.78.78,0,0,1,.64.64,18.89,18.89,0,0,1,.51,1.93q0,.37.55,3.91t.83,5.38q.09.46,1.66,10,.14.69.32,2.07l.18.6h.18A2.2,2.2,0,0,1,271.51,30.38Z"/><path d="M285.52,39.74a7.85,7.85,0,0,1,.28-1.33q.37-1.15.87-3.33T287.4,32q.28-1.1.69-3.15t.51-2.55q1.2-5.43,1.52-6.62l.39-1.36.46-1.59.39-1.33,1.24-5.11a3.08,3.08,0,0,0,0-.87A1.17,1.17,0,0,1,293.2,8q.28-.14.85-.37a6.33,6.33,0,0,0,.81-.37A6.82,6.82,0,0,1,297,6.95a1,1,0,0,1,1.2.78,4,4,0,0,1,.23.87q.69,6.35.92,8.83.23,2.12.6,5.75c0,.15.05.31.07.48s0,.35,0,.55,0,.36,0,.48q.37,3.4.55,5.06.18,2.16.55,6.39a10.67,10.67,0,0,1,0,1.17v1.22a.89.89,0,0,1-.41.69,10,10,0,0,1-3.08,1.29.44.44,0,0,0-.32.14.84.84,0,0,1-.92,0,1,1,0,0,1-.55-1,63.92,63.92,0,0,0-.64-8.6q-.09-.55-.21-1.61t-.16-1.61a1.66,1.66,0,0,0-.23-.71Q294.53,27,294,27t-3.59.23a.88.88,0,0,0-.87.83q-.18,1-1.2,5.43-.18.64-.53,1.93t-.48,1.93a20.69,20.69,0,0,1-.78,2.76q-.46.41-.6.28c0-.06-.06-.09-.09-.09a.13.13,0,0,0,0,.09v0l-.28.14A3.11,3.11,0,0,1,285.52,39.74Zm4.78-13.94,1.29-.14q.41,0,1.22-.07l1.22,0c.31,0,.49,0,.55-.12s.06-.27,0-.57-.14-1.07-.23-1.91-.15-1.48-.18-1.91q-.09-1-.3-3.06T293.52,15a1.62,1.62,0,0,0-.07-.39,1.62,1.62,0,0,1-.07-.35A55.61,55.61,0,0,0,290.3,25.81Z"/><path d="M310.36,20.33q-.14,8.65-.14,8.74,0,1.29-.37,7.36a5.61,5.61,0,0,0,0,.85,5.74,5.74,0,0,1,0,.85q0,.51.32.64l1,.14,3.73-.14a1.71,1.71,0,0,1,.55,0q.46,0,.55.64a3.1,3.1,0,0,1,0,1.29q-.11.18-1,.18-.28,0-.78,0t-.78,0H312l-2.53-.14q-.64,0-1.89.07l-1.89.12h-.23a1.51,1.51,0,0,1-1.38-2q.46-3.22.74-9.71.14-2.21.23-9.89,0-2.07.18-6.21V9.38c0-.21,0-.54,0-1s0-.75,0-1A1.2,1.2,0,0,1,306,6.12a4.65,4.65,0,0,1,4.19.83A1.13,1.13,0,0,1,310.68,8V9.61h0Q310.45,16.79,310.36,20.33Z"/><path d="M324.52,38.64l2.62-.39,2.62-.39H330q.92-.09,1.15.14t.14,1.15a.62.62,0,0,1-.46.74l-.28,0-.28,0a45.31,45.31,0,0,0-5.66.74,7.06,7.06,0,0,1-1.22.12,8,8,0,0,0-1,.07q-1.2,0-1.84,0a1.58,1.58,0,0,1-1.79-1.38,3.1,3.1,0,0,1-.09-1.52q.6-3.73.92-8.51,0-.87.11-2.58t.12-2.53.41-6.12q0-1.43.23-4.28.14-1.75.32-5.24a1.19,1.19,0,0,1,.41-.83,3.92,3.92,0,0,1,2-.78l2-.16,2.32-.16a6.8,6.8,0,0,1,.9,0,10.31,10.31,0,0,0,1,0,4,4,0,0,0,.87-.18h.41a1.9,1.9,0,0,1,.8.21,1.53,1.53,0,0,1,.12.8,1.83,1.83,0,0,1-.14.94q-.14.16-.92.21-2.39.09-3.59.18a.92.92,0,0,0-.58.18,1.47,1.47,0,0,0-.16.69l-.55,6.62s0,.89-.14,2.58l-.14,2.9q0,.64.14.76t.74,0l2.67-.28a1,1,0,0,1,.64.07,1.46,1.46,0,0,1,.28.67,1.54,1.54,0,0,1,.09.37q0,.64-.51.69t-1.75.18q-1.38.09-2,.18c-.34.06-.51.32-.51.78s-.06,1-.09,1.7,0,1.3,0,1.7q-.46,5.84-.64,6.81-.09.55-.21,1.7T324,38.59A1.26,1.26,0,0,0,324.52,38.64Z"/><path d="M348,32.06q0-1,.11-3t.12-3q0-1.06.16-3.1t.16-3q.28-4,.37-6.16.09-1.56.18-4.51a4.6,4.6,0,0,1,0-.78q.09-1.15,1.1-1.1l3.54.46a.64.64,0,0,1,.64.74,3,3,0,0,1,0,.87l-.14,2.94q0,1.1-.14,3.33T354,19q0,.78-.09,2.3t-.14,2.3q0,.78,0,2.3v2.3q0,.87-.09,3.54t-.09,4.14q0,.32-.07,2.07a5.77,5.77,0,0,0,.12,2.07.83.83,0,0,1-.78,1.15l-.67.09-.76.09-.64.09a5.63,5.63,0,0,1-2.67-.74,1.09,1.09,0,0,1-.51-.74q-.46-1.38-1.29-4.14-.18-.6-.74-2.48t-.83-2.9l-.48-1.93-.55-2.23q-.3-1.22-.48-1.91-1.29-5.06-2-7.59a21.11,21.11,0,0,0-.83-2.62q0,.46,0,1.4T340.21,17q0,.92-.12,2.53T340,22.47q0,1.31,0,2.51,0,2,.09,5.93.09,5.52.14,8.33a4,4,0,0,1-.09.74.65.65,0,0,1-.6.51l-.37,0-.39.07a1.7,1.7,0,0,1-.34,0,2.74,2.74,0,0,0-.6,0h-1.2a1.42,1.42,0,0,1-.51,0,1.68,1.68,0,0,1-1.15-.48,1.92,1.92,0,0,1-.28-1.31q.09-4.23.09-6.35,0-.87,0-3.63t0-4.28q0-1,.23-6.16.09-2.71,0-5.38,0-1.56-.18-4.78a1.71,1.71,0,0,1,.16-1,1.3,1.3,0,0,1,.81-.44A5.43,5.43,0,0,1,339,7a4.68,4.68,0,0,1,1.38.69A2.53,2.53,0,0,1,341,8.83q.32,1.15.94,3.47t.9,3.52l.28.8q.23.67.32,1,.37,1.52,1.15,4.55t1.2,4.51q.32,1.29,1,3.66t.78,2.78a1.07,1.07,0,0,0,.23.37H348C348,33.2,348,32.71,348,32.06Z"/><path d="M362.61,13.11c0-.71,0-1.24,0-1.61v-.64a1.47,1.47,0,0,0-.21-.78.81.81,0,0,0-.62-.18h-3a6.93,6.93,0,0,1-.92,0,.73.73,0,0,1-.53-.44,1.27,1.27,0,0,1-.16-.76.73.73,0,0,1,.78-.74q.51,0,1.45,0l1.72.07,1.47,0a13.52,13.52,0,0,0,3.08-.23,23.35,23.35,0,0,1,5.38-.46q.83,0,2.35-.09t2-.09a1.19,1.19,0,0,1,1.2,1.06c.09.37,0,.6-.28.69l-.23,0L376,9l-6.26.14h-.37q-.69,0-.85.28a2.1,2.1,0,0,0-.07,1.15,6.1,6.1,0,0,1,0,.87q-.09,1.84-.18,2.76t-.23,2.67q0,.51-.14,1.43T367.65,20q-.07.74-.11,1.43-.37,5.29-.51,7.68-.23,3.13-.46,5.61T366.34,38q0,.23,0,.74c0,.34,0,.6,0,.78a1,1,0,0,1-.55.87,6.54,6.54,0,0,1-1.54.37q-1,.14-1.36.23a2.34,2.34,0,0,1-1.1-.14q-.87-.28-.78-1.52.09-1.06.41-4.16t.46-5.22q.23-2.85.51-8.74l.14-2.78.14-2.78v-1h0Q362.56,14.17,362.61,13.11Z"/><path d="M385.89,11.13a43.56,43.56,0,0,0-.46,6.53l-.14,7.87v5.15q0,1-.09,2.88t-.09,2.88q0,.46,0,1.38c0,.61,0,1.07,0,1.38a1.15,1.15,0,0,1-.12.64,1.59,1.59,0,0,1-.53.32,8.18,8.18,0,0,1-2.16.55q-.6,0-1.75,0a.49.49,0,0,1-.46-.23,3.52,3.52,0,0,1-.51-1.89q0-.32.07-1t0-1q0-1.15.18-13.66,0-4.14.28-8.37,0-.83.18-2.55t.18-2.6c0-.4,0-1,0-1.79a1.17,1.17,0,0,1,.87-1.29,2.89,2.89,0,0,1,1.56-.18,5.72,5.72,0,0,1,2.25.69,1.86,1.86,0,0,1,.85.62,3,3,0,0,1,.16,1.22Q386,10.35,385.89,11.13Z"/><path d="M402.36,32.06q0-1,.11-3t.12-3q0-1.06.16-3.1t.16-3q.28-4,.37-6.16.09-1.56.18-4.51a4.6,4.6,0,0,1,0-.78q.09-1.15,1.1-1.1l3.54.46a.64.64,0,0,1,.64.74,3,3,0,0,1,0,.87l-.14,2.94q0,1.1-.14,3.33T408.29,19q0,.78-.09,2.3t-.14,2.3q0,.78,0,2.3v2.3q0,.87-.09,3.54t-.09,4.14q0,.32-.07,2.07a5.77,5.77,0,0,0,.12,2.07.83.83,0,0,1-.78,1.15l-.67.09-.76.09-.64.09a5.63,5.63,0,0,1-2.67-.74,1.09,1.09,0,0,1-.51-.74q-.46-1.38-1.29-4.14-.18-.6-.74-2.48t-.83-2.9l-.48-1.93L398,26.29q-.3-1.22-.48-1.91-1.29-5.06-2-7.59a21.11,21.11,0,0,0-.83-2.62q0,.46,0,1.4T394.54,17q0,.92-.12,2.53t-.12,2.92q0,1.31,0,2.51,0,2,.09,5.93.09,5.52.14,8.33a4,4,0,0,1-.09.74.65.65,0,0,1-.6.51l-.37,0-.39.07a1.7,1.7,0,0,1-.34,0,2.74,2.74,0,0,0-.6,0h-1.2a1.42,1.42,0,0,1-.51,0,1.68,1.68,0,0,1-1.15-.48,1.92,1.92,0,0,1-.28-1.31q.09-4.23.09-6.35,0-.87,0-3.63t0-4.28q0-1,.23-6.16.09-2.71,0-5.38,0-1.56-.18-4.78a1.71,1.71,0,0,1,.16-1,1.3,1.3,0,0,1,.81-.44,5.43,5.43,0,0,1,3.27.18,4.68,4.68,0,0,1,1.38.69,2.53,2.53,0,0,1,.69,1.15q.32,1.15.94,3.47t.9,3.52l.28.8q.23.67.32,1,.37,1.52,1.15,4.55t1.2,4.51q.32,1.29,1,3.66t.78,2.78a1.07,1.07,0,0,0,.23.37h.14C402.34,33.2,402.36,32.71,402.36,32.06Z"/><path d="M417.35,38.64l2.62-.39,2.62-.39h.18q.92-.09,1.15.14t.14,1.15a.62.62,0,0,1-.46.74l-.28,0-.28,0a45.28,45.28,0,0,0-5.66.74,7.07,7.07,0,0,1-1.22.12,8,8,0,0,0-1,.07q-1.2,0-1.84,0a1.58,1.58,0,0,1-1.79-1.38,3.12,3.12,0,0,1-.09-1.52q.6-3.73.92-8.51,0-.87.12-2.58t.12-2.53.41-6.12q0-1.43.23-4.28.14-1.75.32-5.24a1.19,1.19,0,0,1,.41-.83,3.91,3.91,0,0,1,2-.78l2-.16,2.32-.16a6.77,6.77,0,0,1,.9,0,10.3,10.3,0,0,0,1,0,4,4,0,0,0,.87-.18h.41a1.9,1.9,0,0,1,.81.21,1.54,1.54,0,0,1,.11.8,1.84,1.84,0,0,1-.14.94c-.09.11-.4.18-.92.21q-2.39.09-3.59.18a.92.92,0,0,0-.58.18,1.45,1.45,0,0,0-.16.69l-.55,6.62s0,.89-.14,2.58l-.14,2.9q0,.64.14.76t.74,0l2.67-.28a1,1,0,0,1,.64.07,1.46,1.46,0,0,1,.28.67,1.51,1.51,0,0,1,.09.37c0,.43-.14.66-.51.69s-1,.12-1.75.18-1.58.12-2,.18-.51.32-.51.78-.06,1-.09,1.7,0,1.3,0,1.7q-.46,5.84-.64,6.81-.09.55-.21,1.7t-.16,1.38A1.26,1.26,0,0,0,417.35,38.64Z"/><path d="M431.54,5.66c0,.4-.08.67-.09.83s-.05.38-.11.69a4.07,4.07,0,0,1-.23.78,3.43,3.43,0,0,1-.37.64,4.47,4.47,0,0,0-.32.37,4.54,4.54,0,0,1-.32.37,1.51,1.51,0,0,1-2.39,0,.6.6,0,0,1,0-1l.18-.18a3.51,3.51,0,0,0,1.7-3s0-.64-.14-1.84l-.14-.69a.77.77,0,0,1,.69-1,.8.8,0,0,1,1.1.51,7.06,7.06,0,0,1,.37,1.43c0,.15,0,.38,0,.69s0,.54,0,.69S431.59,5.26,431.54,5.66Z"/><path d="M452.17,24.15a6.38,6.38,0,0,1,.14,1,8.16,8.16,0,0,0,.09.87,30.88,30.88,0,0,1-1.29,7.31,9.64,9.64,0,0,1-.46,1.13,8.55,8.55,0,0,1-.48.9l-.67,1q-.46.69-.6.87a12.82,12.82,0,0,1-3.63,3.63l-.09,0a4.34,4.34,0,0,1-1,.48,9.45,9.45,0,0,1-1.77.35,6.79,6.79,0,0,1-2.74-.35,11.71,11.71,0,0,1-3.24-1.63,9.28,9.28,0,0,1-1.47-3.06,12.92,12.92,0,0,1-.55-2.87V32.71l.14-.69a12.34,12.34,0,0,1,.46-1.56q.28-.69,1-.28c.21.09.32.21.32.37l0,.18q0,.14-.14.48a5.66,5.66,0,0,0-.14.67,5.31,5.31,0,0,0-.14,2.48,5.15,5.15,0,0,0,4.65,5.06,3.48,3.48,0,0,0,2.9-.57A4.73,4.73,0,0,0,445,36.27a18.39,18.39,0,0,0,.6-3.24,22.58,22.58,0,0,0,0-3.22,13.4,13.4,0,0,0-.18-2.3l-.14-.69q-.87-3.73-3.73-4.51l-2.07-.55a4.52,4.52,0,0,1-2.85-4.37,10.73,10.73,0,0,1,.74-3.5A12.37,12.37,0,0,1,439,10.76a7.49,7.49,0,0,1,4.32-2.94,23.61,23.61,0,0,1,2.9-.55,5.37,5.37,0,0,1,3.27,1,5.79,5.79,0,0,1,1.61,1.33,2.09,2.09,0,0,1,.23.41q.09.46,0,.55a.45.45,0,0,1-.41.23,1.56,1.56,0,0,1-.6-.41,8.2,8.2,0,0,0-2.25-1.43,3.91,3.91,0,0,0-3.08,0,10.36,10.36,0,0,0-2.76,1.24,6.86,6.86,0,0,0-2.76,3.4,10.82,10.82,0,0,0-1,2.94,2.45,2.45,0,0,0-.09.51,1.73,1.73,0,0,0,.25,1.22,1,1,0,0,0,.94.25,24.89,24.89,0,0,1,3.31-.14q.46,0,1.59-.09a11.84,11.84,0,0,1,1.72,0,5.51,5.51,0,0,1,4.19,2.25A8.23,8.23,0,0,1,452.17,24.15Z"/><path d="M467.9,10.12l-.64.09a.93.93,0,0,1-.6-.18.6.6,0,0,1-.41-.51c0-.09.14-.28.41-.55a5.56,5.56,0,0,1,1-.46,8.78,8.78,0,0,0,1.66-.87,2.83,2.83,0,0,1,1.75-.55,51.54,51.54,0,0,1,6.67.14,4.37,4.37,0,0,1,2.25,1c.18.15.49.38.92.67s.74.51.92.67a6,6,0,0,1,1.43,2.35,11,11,0,0,1,.51,5.89,16,16,0,0,1-1.52,4.74q-.51.92-2.35,5.52a35.94,35.94,0,0,1-2.62,5.34l-2.9,4.74q-.78,1.29-1.89,2.9a.59.59,0,0,1-.6.37,2.85,2.85,0,0,0-.44-.09l-.46-.07a.82.82,0,0,1-.37-.18.93.93,0,0,1-.3-.39l-.41-.18-.67,0a5.24,5.24,0,0,1-.67-.07q-1.2-.09-1.06-1.43,0-.69.16-2t.16-2q0-.6.09-1.63t.09-1.91q0-.87.09-1.66.09-1.1.23-3.31t.23-3.31q.18-3.5.23-5.52,0-2.35,0-7a3.51,3.51,0,0,0,0-.64Q468.46,10,467.9,10.12Zm5.7,25,.23-.28q.55-1,.83-1.47a46.7,46.7,0,0,0,3.73-7.54q.18-.55,2.21-5a12.4,12.4,0,0,0,1.29-6.49q-.14-3.63-3.91-5.24a9.62,9.62,0,0,0-2.62-.32q-.55,0-.71.14a1.38,1.38,0,0,0-.16.83q-.09,2.07-.18,6.3,0,.83,0,2.44t-.09,2.44q0,1.06-.23,3.22t-.23,3.27q-.28,4.88-.41,7.27a2.56,2.56,0,0,0,0,.78Z"/><path d="M486.58,39.74a7.85,7.85,0,0,1,.28-1.33q.37-1.15.87-3.33t.74-3.06q.28-1.1.69-3.15t.51-2.55q1.2-5.43,1.52-6.62l.39-1.36.46-1.59.39-1.33,1.24-5.11a3.08,3.08,0,0,0,0-.87A1.17,1.17,0,0,1,494.26,8q.28-.14.85-.37a6.3,6.3,0,0,0,.8-.37A6.83,6.83,0,0,1,498,6.95a1,1,0,0,1,1.2.78,4,4,0,0,1,.23.87q.69,6.35.92,8.83.23,2.12.6,5.75a4.81,4.81,0,0,1,.07.48c0,.17,0,.35,0,.55s0,.36,0,.48q.37,3.4.55,5.06.18,2.16.55,6.39a10.92,10.92,0,0,1,0,1.17v1.22a.89.89,0,0,1-.41.69,10,10,0,0,1-3.08,1.29.44.44,0,0,0-.32.14.84.84,0,0,1-.92,0,1,1,0,0,1-.55-1,64.08,64.08,0,0,0-.64-8.6q-.09-.55-.21-1.61T496,27.88a1.65,1.65,0,0,0-.23-.71q-.14-.16-.64-.12t-3.59.23a.89.89,0,0,0-.87.83q-.18,1-1.2,5.43-.18.64-.53,1.93t-.48,1.93a20.61,20.61,0,0,1-.78,2.76q-.46.41-.6.28c0-.06-.06-.09-.09-.09a.13.13,0,0,0,0,.09v0l-.28.14A3.13,3.13,0,0,1,486.58,39.74Zm4.78-13.94,1.29-.14c.28,0,.68-.05,1.22-.07l1.22,0c.31,0,.49,0,.55-.12s.06-.27,0-.57-.14-1.07-.23-1.91-.15-1.48-.18-1.91q-.09-1-.3-3.06T494.58,15a1.61,1.61,0,0,0-.07-.39,1.62,1.62,0,0,1-.07-.35A55.61,55.61,0,0,0,491.36,25.81Z"/><path d="M511.72,20.52q.3-1.06.44-1.61.41-1.79,1.13-5.13t1-4.71q.37-1.75.55-2.67a1.31,1.31,0,0,1,1-1.2,3.54,3.54,0,0,1,3,.74,2.64,2.64,0,0,1,.46.32l.37.32a1.81,1.81,0,0,1,.64,2.07q-1.61,6.16-2.21,9-.23,1.15-.55,2.42t-.74,2.81q-.41,1.54-.64,2.37-.51,2.07-2,8.19-.18.83-.53,2.51t-.53,2.51l-.69,2.81q-.18.46-.37.46a3.93,3.93,0,0,1-1.33.18,22.83,22.83,0,0,1-2.94-.51q-.37-.09-.62-.81a2.18,2.18,0,0,1-.11-1.26l1.52-6.35q.51-2.07,1.52-6.3a4.44,4.44,0,0,0,0-1.79l-1.24-4.28q-.28-1.06-.83-3.08t-.83-3.08a.62.62,0,0,0,0-.14.61.61,0,0,1,0-.14q-.28-.74-.85-2.21t-.85-2.21q-.23-.6-.37-1.06a1.21,1.21,0,0,1,.46-1.43q.55-.41,1.06.32a3.17,3.17,0,0,1,.55,1q.41,1.24,1.33,3.73a21.79,21.79,0,0,1,.76,2.42q.44,1.63.48,1.77.46,1.66,1.38,4.88a2.06,2.06,0,0,0,.23.41Q511.42,21.57,511.72,20.52Z"/><path d="M12.74,83.77a65.18,65.18,0,0,1,1.47-11.45,17.25,17.25,0,0,1,1.7-5.06,24.86,24.86,0,0,1,1.93-3.31,5.23,5.23,0,0,1,3.31-2.12,2.09,2.09,0,0,1,1.43.09.19.19,0,0,1,.12.07l.14.16.12.14-.12.14-.14.16a.19.19,0,0,1-.12.07l-.6.11-.6.12a4.45,4.45,0,0,0-2.48,2,10.11,10.11,0,0,0-.69,1.22q-.32.67-.69,1.59T17,69a9.24,9.24,0,0,0-.87,2.85q-.41,2.72-1,7.36,0,.09-.28,2.44a18.22,18.22,0,0,0,.23,4,6.94,6.94,0,0,0,1.84,3.45,2.71,2.71,0,0,0,2.3.74,6.25,6.25,0,0,0,2-.69,7.31,7.31,0,0,0,1.61-1.33,43,43,0,0,0,4.46-7l.28-.55q.32-.73,1-.46a.83.83,0,0,1,.23.09,1.54,1.54,0,0,1,.78.55,2.3,2.3,0,0,1,0,1.1,12.25,12.25,0,0,1-1.52,4.69q-2,3.4-2.71,4.55a12.47,12.47,0,0,1-5,4.51,3.94,3.94,0,0,1-4.6-.64,6.71,6.71,0,0,1-2-2.81.83.83,0,0,0-.23-.37,2.27,2.27,0,0,1-.46-1.29Q13,89.38,12.88,89v0Q12.74,87,12.74,83.77Z"/><path d="M28.29,94.94a7.81,7.81,0,0,1,.28-1.33q.37-1.15.87-3.33t.74-3.06q.28-1.1.69-3.15t.51-2.55q1.2-5.43,1.52-6.62l.39-1.36.46-1.59.39-1.33,1.24-5.11a3.1,3.1,0,0,0,0-.87A1.17,1.17,0,0,1,36,63.16q.28-.14.85-.37a6.31,6.31,0,0,0,.81-.37,6.82,6.82,0,0,1,2.12-.28,1,1,0,0,1,1.2.78,4,4,0,0,1,.23.87q.69,6.35.92,8.83.23,2.12.6,5.75,0,.23.07.48t0,.55q0,.3,0,.48.37,3.4.55,5.06.18,2.16.55,6.39a10.67,10.67,0,0,1,0,1.17v1.22a.89.89,0,0,1-.41.69,10,10,0,0,1-3.08,1.29.44.44,0,0,0-.32.14.84.84,0,0,1-.92,0,1,1,0,0,1-.55-1A64,64,0,0,0,38,86.3q-.09-.55-.21-1.61t-.16-1.61a1.65,1.65,0,0,0-.23-.71q-.14-.16-.64-.12t-3.59.23a.88.88,0,0,0-.87.83q-.18,1-1.2,5.43-.18.64-.53,1.93t-.48,1.93a20.52,20.52,0,0,1-.78,2.76q-.46.41-.6.28c0-.06-.06-.09-.09-.09a.13.13,0,0,0,0,.09v0l-.28.14A3.1,3.1,0,0,1,28.29,94.94ZM33.07,81l1.29-.14q.41,0,1.22-.07l1.22,0q.46,0,.55-.12t0-.57q-.09-.64-.23-1.91t-.18-1.91q-.09-1-.3-3.06t-.34-3.06a1.62,1.62,0,0,0-.07-.39,1.61,1.61,0,0,1-.07-.35A55.61,55.61,0,0,0,33.07,81Z"/><path d="M54.1,80.16a4.33,4.33,0,0,0-.64.48,1.25,1.25,0,0,0-.32.6A12.11,12.11,0,0,0,53,82.48q-.18,3.27-.46,9.8L52.44,95a1,1,0,0,1-.6.87,10,10,0,0,1-1.08.41q-.58.18-1.31.35l-1.1.25a.88.88,0,0,1-.57,0,1.39,1.39,0,0,1-.39-.55,2.06,2.06,0,0,0-.32-.51,1.85,1.85,0,0,1-.28-1.33l.41-5.24q.37-5.06.51-7.59.14-1.56.32-4.69.37-3.82.51-6,0-.92,0-2.76c0-.18,0-.56,0-1.13s0-1,.07-1.31a1.23,1.23,0,0,0-.37-1.06.66.66,0,0,1-.37-.78.78.78,0,0,1,.64-.64q.46-.09,1.27-.3l1.47-.37,1.26-.3a24.92,24.92,0,0,1,4.69-.46,6.84,6.84,0,0,1,3,.78,3.92,3.92,0,0,1,1.56,1.79,7.62,7.62,0,0,1,.51,5.7,10.42,10.42,0,0,1-2.44,4.46q-.37.41-1,1.22t-.74.94q-.18.23-.64.69A1.3,1.3,0,0,0,57,78.84l.48,2.23q.39,1.82.62,2.83t2.07,8.65q.09.28.35,1.1t.34,1.29a1.7,1.7,0,0,1-.16,1.31,1.29,1.29,0,0,1-.94.71.29.29,0,0,1-.37-.09,2.47,2.47,0,0,1-.92-1.38q-.28-1.66-.67-3.45t-.92-4q-.53-2.23-.76-3.38-.18-.83-.6-2.32t-.55-2l-.28-.6A4.29,4.29,0,0,1,54.1,80.16Zm-.6-2.37.6-.41a5.31,5.31,0,0,0,.69-.55,33,33,0,0,0,4.37-5,9.39,9.39,0,0,0,1.52-5.06q.14-2.53-2.21-2.85-.69,0-4,0a2.2,2.2,0,0,0-.55.23,4,4,0,0,1,.35,1,8.64,8.64,0,0,1-.07,1.2.63.63,0,0,0,0,.28v.28q-.37,4.6-.51,6.85-.14,1.29-.32,3.86A.75.75,0,0,1,53.5,77.79Z"/><path d="M66.19,65.32l-.64.09a.92.92,0,0,1-.6-.18.6.6,0,0,1-.41-.51q0-.14.41-.55a5.53,5.53,0,0,1,1-.46,8.79,8.79,0,0,0,1.66-.87,2.83,2.83,0,0,1,1.75-.55,51.55,51.55,0,0,1,6.67.14,4.37,4.37,0,0,1,2.25,1q.28.23.92.67t.92.67a6,6,0,0,1,1.43,2.35A11,11,0,0,1,82.06,73a15.94,15.94,0,0,1-1.52,4.74q-.51.92-2.35,5.52a36,36,0,0,1-2.62,5.34l-2.9,4.74q-.78,1.29-1.89,2.9a.59.59,0,0,1-.6.37,2.87,2.87,0,0,0-.44-.09l-.46-.07a.83.83,0,0,1-.37-.18.93.93,0,0,1-.3-.39l-.41-.18-.67,0a5.25,5.25,0,0,1-.67-.07q-1.2-.09-1.06-1.43,0-.69.16-2t.16-2q0-.6.09-1.63t.09-1.91q0-.87.09-1.66.09-1.1.23-3.31t.23-3.31q.18-3.5.23-5.52,0-2.35,0-7a3.51,3.51,0,0,0,0-.64Q66.75,65.23,66.19,65.32Zm5.7,25,.23-.28q.55-1,.83-1.47A46.65,46.65,0,0,0,76.68,81q.18-.55,2.21-5a12.39,12.39,0,0,0,1.29-6.49q-.14-3.63-3.91-5.24A9.62,9.62,0,0,0,73.65,64q-.55,0-.71.14a1.39,1.39,0,0,0-.16.83q-.09,2.07-.18,6.3,0,.83,0,2.44t-.09,2.44q0,1.06-.23,3.22T72,82.62q-.28,4.88-.41,7.27a2.54,2.54,0,0,0,0,.78C71.68,90.57,71.77,90.45,71.9,90.3Z"/><path d="M103.09,79.35a6.26,6.26,0,0,1,.14,1,8.12,8.12,0,0,0,.09.87A30.88,30.88,0,0,1,102,88.55a9.73,9.73,0,0,1-.46,1.13,8.63,8.63,0,0,1-.48.9l-.67,1q-.46.69-.6.87a12.82,12.82,0,0,1-3.63,3.63l-.09,0a4.33,4.33,0,0,1-1,.48,9.43,9.43,0,0,1-1.77.35,6.79,6.79,0,0,1-2.74-.35A11.72,11.72,0,0,1,87.31,95a9.29,9.29,0,0,1-1.47-3.06,12.92,12.92,0,0,1-.55-2.87V87.91l.14-.69a12.5,12.5,0,0,1,.46-1.56q.28-.69,1-.28c.21.09.32.21.32.37l0,.18q0,.14-.14.48a5.56,5.56,0,0,0-.14.67,5.32,5.32,0,0,0-.14,2.48,5.15,5.15,0,0,0,4.65,5.06A3.48,3.48,0,0,0,94.3,94a4.73,4.73,0,0,0,1.61-2.58,18.43,18.43,0,0,0,.6-3.24,22.51,22.51,0,0,0,0-3.22,13.45,13.45,0,0,0-.18-2.3L96.23,82q-.87-3.73-3.73-4.51L90.44,77a4.52,4.52,0,0,1-2.85-4.37,10.74,10.74,0,0,1,.74-3.5A12.39,12.39,0,0,1,89.93,66,7.49,7.49,0,0,1,94.25,63a23.6,23.6,0,0,1,2.9-.55,5.37,5.37,0,0,1,3.27,1A5.8,5.8,0,0,1,102,64.77a2.06,2.06,0,0,1,.23.41q.09.46,0,.55a.45.45,0,0,1-.41.23,1.56,1.56,0,0,1-.6-.41A8.2,8.2,0,0,0,99,64.12a3.91,3.91,0,0,0-3.08,0,10.36,10.36,0,0,0-2.76,1.24,6.87,6.87,0,0,0-2.76,3.4,10.86,10.86,0,0,0-1,2.94,2.48,2.48,0,0,0-.09.51,1.73,1.73,0,0,0,.25,1.22,1,1,0,0,0,.94.25,24.88,24.88,0,0,1,3.31-.14q.46,0,1.59-.09a11.85,11.85,0,0,1,1.73,0,5.51,5.51,0,0,1,4.19,2.25A8.23,8.23,0,0,1,103.09,79.35Z"/><path d="M117.62,94.94a7.81,7.81,0,0,1,.28-1.33q.37-1.15.87-3.33t.74-3.06q.28-1.1.69-3.15t.51-2.55q1.2-5.43,1.52-6.62l.39-1.36.46-1.59.39-1.33,1.24-5.11a3.1,3.1,0,0,0,0-.87,1.17,1.17,0,0,1,.64-1.47q.28-.14.85-.37a6.31,6.31,0,0,0,.81-.37,6.82,6.82,0,0,1,2.12-.28,1,1,0,0,1,1.2.78,4,4,0,0,1,.23.87q.69,6.35.92,8.83.23,2.12.6,5.75,0,.23.07.48t0,.55q0,.3,0,.48.37,3.4.55,5.06.18,2.16.55,6.39a10.67,10.67,0,0,1,0,1.17v1.22a.89.89,0,0,1-.41.69,10,10,0,0,1-3.08,1.29.44.44,0,0,0-.32.14.84.84,0,0,1-.92,0,1,1,0,0,1-.55-1,64,64,0,0,0-.64-8.6q-.09-.55-.21-1.61T127,83.08a1.65,1.65,0,0,0-.23-.71q-.14-.16-.64-.12t-3.59.23a.88.88,0,0,0-.87.83q-.18,1-1.2,5.43-.18.64-.53,1.93t-.48,1.93a20.52,20.52,0,0,1-.78,2.76q-.46.41-.6.28c0-.06-.06-.09-.09-.09a.13.13,0,0,0,0,.09v0l-.28.14A3.1,3.1,0,0,1,117.62,94.94ZM122.41,81l1.29-.14q.41,0,1.22-.07l1.22,0q.46,0,.55-.12t0-.57q-.09-.64-.23-1.91t-.18-1.91q-.09-1-.3-3.06t-.34-3.06a1.62,1.62,0,0,0-.07-.39,1.61,1.61,0,0,1-.07-.35A55.61,55.61,0,0,0,122.41,81Z"/><path d="M143.43,80.16a4.33,4.33,0,0,0-.64.48,1.25,1.25,0,0,0-.32.6,12.11,12.11,0,0,0-.09,1.24q-.18,3.27-.46,9.8L141.77,95a1,1,0,0,1-.6.87,10,10,0,0,1-1.08.41q-.58.18-1.31.35l-1.1.25a.88.88,0,0,1-.57,0,1.39,1.39,0,0,1-.39-.55,2.06,2.06,0,0,0-.32-.51,1.85,1.85,0,0,1-.28-1.33l.41-5.24q.37-5.06.51-7.59.14-1.56.32-4.69.37-3.82.51-6,0-.92,0-2.76c0-.18,0-.56,0-1.13s0-1,.07-1.31a1.23,1.23,0,0,0-.37-1.06.66.66,0,0,1-.37-.78.78.78,0,0,1,.64-.64q.46-.09,1.27-.3l1.47-.37,1.26-.3a24.92,24.92,0,0,1,4.69-.46,6.84,6.84,0,0,1,3,.78,3.92,3.92,0,0,1,1.56,1.79,7.62,7.62,0,0,1,.51,5.7,10.42,10.42,0,0,1-2.44,4.46q-.37.41-1,1.22t-.74.94q-.18.23-.64.69a1.3,1.3,0,0,0-.46,1.33l.48,2.23q.39,1.82.62,2.83t2.07,8.65q.09.28.35,1.1t.34,1.29a1.7,1.7,0,0,1-.16,1.31,1.29,1.29,0,0,1-.94.71.29.29,0,0,1-.37-.09,2.47,2.47,0,0,1-.92-1.38q-.28-1.66-.67-3.45t-.92-4q-.53-2.23-.76-3.38-.18-.83-.6-2.32t-.55-2l-.28-.6A4.29,4.29,0,0,1,143.43,80.16Zm-.6-2.37.6-.41a5.31,5.31,0,0,0,.69-.55,33,33,0,0,0,4.37-5A9.39,9.39,0,0,0,150,66.75q.14-2.53-2.21-2.85-.69,0-4,0a2.2,2.2,0,0,0-.55.23,4,4,0,0,1,.35,1,8.64,8.64,0,0,1-.07,1.2.63.63,0,0,0,0,.28v.28q-.37,4.6-.51,6.85-.14,1.29-.32,3.86A.75.75,0,0,1,142.83,77.79Z"/><path d="M160.54,93.84l2.62-.39,2.62-.39H166q.92-.09,1.15.14t.14,1.15a.62.62,0,0,1-.46.74l-.28,0-.28,0a45.29,45.29,0,0,0-5.66.74,7.07,7.07,0,0,1-1.22.12,8,8,0,0,0-1,.07q-1.2,0-1.84,0a1.58,1.58,0,0,1-1.79-1.38,3.11,3.11,0,0,1-.09-1.52q.6-3.73.92-8.51,0-.87.11-2.58t.12-2.53.41-6.12q0-1.43.23-4.28.14-1.75.32-5.24a1.19,1.19,0,0,1,.41-.83,3.92,3.92,0,0,1,2-.78l2-.16,2.32-.16a6.79,6.79,0,0,1,.9,0,10.3,10.3,0,0,0,1,0,4,4,0,0,0,.87-.18h.41a1.9,1.9,0,0,1,.81.21,1.53,1.53,0,0,1,.11.8,1.84,1.84,0,0,1-.14.94q-.14.16-.92.21-2.39.09-3.59.18a.92.92,0,0,0-.58.18,1.46,1.46,0,0,0-.16.69l-.55,6.62s0,.89-.14,2.58l-.14,2.9q0,.64.14.76t.74,0l2.67-.28a1,1,0,0,1,.64.07,1.46,1.46,0,0,1,.28.67,1.52,1.52,0,0,1,.09.37c0,.43-.14.66-.51.69s-1,.12-1.75.18-1.58.12-2,.18-.51.32-.51.78-.06,1-.09,1.7,0,1.3,0,1.7q-.46,5.84-.64,6.81-.09.55-.21,1.7T160,93.79A1.26,1.26,0,0,0,160.54,93.84Z"/><path d="M188.41,93.84l2.62-.39,2.62-.39h.18q.92-.09,1.15.14t.14,1.15a.62.62,0,0,1-.46.74l-.28,0-.28,0a45.29,45.29,0,0,0-5.66.74,7.07,7.07,0,0,1-1.22.12,8,8,0,0,0-1,.07q-1.2,0-1.84,0a1.58,1.58,0,0,1-1.79-1.38,3.11,3.11,0,0,1-.09-1.52q.6-3.73.92-8.51,0-.87.11-2.58t.12-2.53.41-6.12q0-1.43.23-4.28.14-1.75.32-5.24a1.19,1.19,0,0,1,.41-.83,3.92,3.92,0,0,1,2-.78l2-.16,2.32-.16a6.79,6.79,0,0,1,.9,0,10.3,10.3,0,0,0,1,0,4,4,0,0,0,.87-.18h.41a1.9,1.9,0,0,1,.81.21,1.53,1.53,0,0,1,.11.8,1.84,1.84,0,0,1-.14.94q-.14.16-.92.21-2.39.09-3.59.18a.92.92,0,0,0-.58.18A1.46,1.46,0,0,0,190,65l-.55,6.62s0,.89-.14,2.58l-.14,2.9q0,.64.14.76t.74,0l2.67-.28a1,1,0,0,1,.64.07,1.46,1.46,0,0,1,.28.67,1.52,1.52,0,0,1,.09.37c0,.43-.14.66-.51.69s-1,.12-1.75.18-1.58.12-2,.18-.51.32-.51.78-.06,1-.09,1.7,0,1.3,0,1.7q-.46,5.84-.64,6.81-.09.55-.21,1.7t-.16,1.38A1.26,1.26,0,0,0,188.41,93.84Z"/><path d="M207.41,69.92q1.2-2.85,3.68-8.46.55-1.33,1.7-.92A5,5,0,0,1,215,62.19l.44.46q.3.32.44.51a1.8,1.8,0,0,1,.18,2.12,12.57,12.57,0,0,1-.92,1.61A53,53,0,0,0,212.7,72q-1.15,2.67-3.36,8.19a2,2,0,0,0,0,1.56q.69,1.89,2.9,6.39a28.19,28.19,0,0,1,2.16,5.15,12,12,0,0,1,.28,2.12q0,.87-.64.87a1.51,1.51,0,0,1-1.38-1.24A30.59,30.59,0,0,0,210.45,90q-.32-.74-1-2.37t-1.1-2.46a8.61,8.61,0,0,0-.41-.92l-.21.41-.16.32q-.74,2.21-1.75,4.88-.37,1.1-1.2,3.22-.23.51-.6,1.52t-.6,1.52q-.28.55-.44.62a1.08,1.08,0,0,1-.62-.07,5.56,5.56,0,0,1-1.43-.58l-1-.53a2.5,2.5,0,0,1-1.33-1.7,2.71,2.71,0,0,1,.18-1.56q1.89-4.78,2.07-5.29.78-2,2.19-5.84t1.82-4.88a2.67,2.67,0,0,0,0-1.89q-.28-.69-.76-2t-.9-2.42q-.41-1.06-.83-2l-.87-2.09q-.64-1.54-1-2.37a4.34,4.34,0,0,1-.32-1,1.34,1.34,0,0,1,.28-1.38.68.68,0,0,1,.6-.18.71.71,0,0,1,.55.37q.14.28.44.76a6.74,6.74,0,0,1,.48.92,4.75,4.75,0,0,1,.28.9,10.3,10.3,0,0,0,.37,1q1.29,2.81,2.81,6.81a7.81,7.81,0,0,1,.32.74Q207.18,70.38,207.41,69.92Z"/><path d="M218.45,83.77a65.18,65.18,0,0,1,1.47-11.45,17.25,17.25,0,0,1,1.7-5.06,24.86,24.86,0,0,1,1.93-3.31,5.23,5.23,0,0,1,3.31-2.12,2.09,2.09,0,0,1,1.43.09.19.19,0,0,1,.12.07l.14.16.12.14-.12.14-.14.16a.19.19,0,0,1-.12.07l-.6.11-.6.12a4.45,4.45,0,0,0-2.48,2,10.11,10.11,0,0,0-.69,1.22q-.32.67-.69,1.59T222.68,69a9.24,9.24,0,0,0-.87,2.85q-.41,2.72-1,7.36,0,.09-.28,2.44a18.22,18.22,0,0,0,.23,4,6.94,6.94,0,0,0,1.84,3.45,2.71,2.71,0,0,0,2.3.74,6.25,6.25,0,0,0,2-.69,7.31,7.31,0,0,0,1.61-1.33,43,43,0,0,0,4.46-7l.28-.55q.32-.73,1-.46a.83.83,0,0,1,.23.09,1.54,1.54,0,0,1,.78.55,2.3,2.3,0,0,1,0,1.1,12.25,12.25,0,0,1-1.52,4.69q-2,3.4-2.71,4.55a12.47,12.47,0,0,1-5,4.51,3.94,3.94,0,0,1-4.6-.64,6.71,6.71,0,0,1-2-2.81.83.83,0,0,0-.23-.37,2.27,2.27,0,0,1-.46-1.29q-.09-.83-.18-1.24v0Q218.45,87,218.45,83.77Z"/><path d="M248.63,85.45q.09-3.2.14-4.76a1.29,1.29,0,0,0-.11-.67c-.08-.11-.25-.16-.53-.16a22.42,22.42,0,0,1-3-.18q-.78-.14-.83.64-.41,5.7-.51,7,0,.74-.18,2.21t-.18,2.21a6.81,6.81,0,0,0,0,1.29l0,1.29a1.49,1.49,0,0,1-.11.55,1.34,1.34,0,0,1-.53.23,30.4,30.4,0,0,1-3.59.55,1.43,1.43,0,0,1-1.13-.41,1.33,1.33,0,0,1-.44-1.1q.28-5.8.28-5.89.46-6.72.64-9.75l.41-5.38q.09-.83.23-2.39t.18-2.39q0-.51.18-1.5t.18-1.45q.09-1.47.09-2.25a1.11,1.11,0,0,1,.87-1.1,6.52,6.52,0,0,1,3.54.18l.32.09a2.09,2.09,0,0,1,1,.6,2.41,2.41,0,0,1,.11,1.15q0,.78-.21,2.23T245.22,68q-.09,1.15-.3,3.38t-.3,3.24q0,.55-.18,2.58a1,1,0,0,0,.07.62,1,1,0,0,0,.58.25,21.12,21.12,0,0,0,3.08.14q.64,0,.69-.55a21.73,21.73,0,0,0,.14-2.39q0-1.24.16-3.7t.16-3.7q0-.78,0-2.28t0-2.28a1.83,1.83,0,0,1,0-.51.6.6,0,0,1,.44-.57.72.72,0,0,1,.71.16,2.69,2.69,0,0,1,1.06,2.16q-.09,1.24-.12,3.47t-.07,3.1l-.28,5.52c0,.18,0,.46,0,.83s0,.64,0,.83q0,1-.09,3.06T251,84.41t.14,8.1q0,.28,0,1a6.77,6.77,0,0,0,0,1.13.86.86,0,0,1-.55.74,1.39,1.39,0,0,1-1.47-.09,1.58,1.58,0,0,1-.55-1.43,12,12,0,0,0,.14-1.79q0-.6-.09-1.79a0,0,0,0,0,0,0Z"/><path d="M253.92,94.94a7.81,7.81,0,0,1,.28-1.33q.37-1.15.87-3.33t.74-3.06q.28-1.1.69-3.15t.51-2.55q1.2-5.43,1.52-6.62l.39-1.36.46-1.59.39-1.33L261,65.5a3.1,3.1,0,0,0,0-.87,1.17,1.17,0,0,1,.64-1.47q.28-.14.85-.37a6.31,6.31,0,0,0,.81-.37,6.82,6.82,0,0,1,2.12-.28,1,1,0,0,1,1.2.78,4,4,0,0,1,.23.87q.69,6.35.92,8.83.23,2.12.6,5.75,0,.23.07.48t0,.55q0,.3,0,.48.37,3.4.55,5.06.18,2.16.55,6.39a10.67,10.67,0,0,1,0,1.17v1.22a.89.89,0,0,1-.41.69,10,10,0,0,1-3.08,1.29.44.44,0,0,0-.32.14.84.84,0,0,1-.92,0,1,1,0,0,1-.55-1,64,64,0,0,0-.64-8.6q-.09-.55-.21-1.61t-.16-1.61a1.65,1.65,0,0,0-.23-.71q-.14-.16-.64-.12t-3.59.23a.88.88,0,0,0-.87.83q-.18,1-1.2,5.43-.18.64-.53,1.93t-.48,1.93a20.52,20.52,0,0,1-.78,2.76q-.46.41-.6.28c0-.06-.06-.09-.09-.09a.13.13,0,0,0,0,.09v0l-.28.14A3.1,3.1,0,0,1,253.92,94.94ZM258.7,81l1.29-.14q.41,0,1.22-.07l1.22,0q.46,0,.55-.12t0-.57q-.09-.64-.23-1.91t-.18-1.91q-.09-1-.3-3.06t-.34-3.06a1.62,1.62,0,0,0-.07-.39,1.61,1.61,0,0,1-.07-.35A55.61,55.61,0,0,0,258.7,81Z"/><path d="M285.79,87.26q0-1,.11-3t.12-3q0-1.06.16-3.1t.16-3q.28-4,.37-6.16.09-1.56.18-4.51a4.6,4.6,0,0,1,0-.78q.09-1.15,1.1-1.1l3.54.46a.64.64,0,0,1,.64.74,3,3,0,0,1,0,.87l-.14,2.94q0,1.1-.14,3.33t-.18,3.33q0,.78-.09,2.3t-.14,2.3q0,.78,0,2.3v2.3q0,.87-.09,3.54t-.09,4.14q0,.32-.07,2.07a5.77,5.77,0,0,0,.12,2.07.83.83,0,0,1-.78,1.15l-.67.09-.76.09-.64.09a5.63,5.63,0,0,1-2.67-.74,1.09,1.09,0,0,1-.51-.74Q284.83,93.79,284,91q-.18-.6-.74-2.48t-.83-2.9L282,83.72l-.55-2.23q-.3-1.22-.48-1.91-1.29-5.06-2-7.59a21.11,21.11,0,0,0-.83-2.62q0,.46,0,1.4T278,72.22q0,.92-.12,2.53t-.12,2.92q0,1.31,0,2.51,0,2,.09,5.93.09,5.52.14,8.33a4,4,0,0,1-.09.74.65.65,0,0,1-.6.51l-.37,0-.39.07a1.7,1.7,0,0,1-.34,0,2.74,2.74,0,0,0-.6,0h-1.2a1.42,1.42,0,0,1-.51,0,1.68,1.68,0,0,1-1.15-.48,1.92,1.92,0,0,1-.28-1.31q.09-4.23.09-6.35,0-.87,0-3.63t0-4.28q0-1,.23-6.16.09-2.71,0-5.38,0-1.56-.18-4.78a1.71,1.71,0,0,1,.16-1,1.29,1.29,0,0,1,.81-.44,5.43,5.43,0,0,1,3.27.18,4.68,4.68,0,0,1,1.38.69A2.53,2.53,0,0,1,278.8,64q.32,1.15.94,3.47t.9,3.52l.28.8q.23.67.32,1,.37,1.52,1.15,4.55t1.2,4.51q.32,1.29,1,3.66t.78,2.78a1.07,1.07,0,0,0,.23.37h.14C285.78,88.4,285.79,87.91,285.79,87.26Z"/><path d="M295.09,72.77a17.81,17.81,0,0,1,2.62-6.07q.18-.28,1.7-1.93a8.69,8.69,0,0,1,2.81-2.07,4.68,4.68,0,0,1,4.78,0A7.8,7.8,0,0,1,308.29,64a.53.53,0,0,1,0,.78q-.23.37-.69.09l-.18-.12a.29.29,0,0,0-.14-.07,4.1,4.1,0,0,0-5.29,0,12.57,12.57,0,0,0-4.78,7,37.27,37.27,0,0,0-1.43,9.57q0,1-.14,2.94a18.72,18.72,0,0,0,.41,4.92,2.34,2.34,0,0,0,2,2.16,4.85,4.85,0,0,0,4.23-1,8.35,8.35,0,0,0,2.71-4.28,23.9,23.9,0,0,0,.69-4.92v-.6a.45.45,0,0,0-.51-.51h-2.44a1.87,1.87,0,0,1-1.56-.78q-.51-.74.23-1.1a1.66,1.66,0,0,1,.83-.18l1.56-.11,1.56-.12,3.08-.41a1.44,1.44,0,0,1,1.06.16,3.34,3.34,0,0,1,.74,1.13,7.06,7.06,0,0,1,.37,1.24,5.83,5.83,0,0,1,0,1.2q0,.37-.16,1.08a7.35,7.35,0,0,0-.12,1.08,31.75,31.75,0,0,1-.78,5.66,9.41,9.41,0,0,0-.32,1.33,10.5,10.5,0,0,1-3.4,5,3.89,3.89,0,0,1-1.29.83,5.85,5.85,0,0,1-4.28.28q-.23-.09-2.35-1.33a10.27,10.27,0,0,1-3-3.08,6,6,0,0,1-1-3.17q-.09-1.38-.32-3.68A65,65,0,0,1,295.09,72.77Z"/><path d="M319.24,93.84l2.62-.39,2.62-.39h.18q.92-.09,1.15.14t.14,1.15a.62.62,0,0,1-.46.74l-.28,0-.28,0a45.28,45.28,0,0,0-5.66.74,7.07,7.07,0,0,1-1.22.12,8,8,0,0,0-1,.07q-1.2,0-1.84,0a1.58,1.58,0,0,1-1.79-1.38,3.12,3.12,0,0,1-.09-1.52q.6-3.73.92-8.51,0-.87.12-2.58t.12-2.53.41-6.12q0-1.43.23-4.28.14-1.75.32-5.24a1.19,1.19,0,0,1,.41-.83,3.91,3.91,0,0,1,2-.78l2-.16,2.32-.16a6.77,6.77,0,0,1,.9,0,10.3,10.3,0,0,0,1,0,4,4,0,0,0,.87-.18h.41a1.9,1.9,0,0,1,.81.21,1.54,1.54,0,0,1,.11.8,1.84,1.84,0,0,1-.14.94c-.09.11-.4.18-.92.21q-2.39.09-3.59.18a.92.92,0,0,0-.58.18,1.45,1.45,0,0,0-.16.69l-.55,6.62s0,.89-.14,2.58l-.14,2.9q0,.64.14.76t.74,0l2.67-.28a1,1,0,0,1,.64.07,1.46,1.46,0,0,1,.28.67,1.51,1.51,0,0,1,.09.37c0,.43-.14.66-.51.69s-1,.12-1.75.18-1.58.12-2,.18-.51.32-.51.78-.06,1-.09,1.7,0,1.3,0,1.7q-.46,5.84-.64,6.81-.09.55-.21,1.7t-.16,1.38A1.26,1.26,0,0,0,319.24,93.84Z"/><path d="M330.14,65.32l-.64.09a.92.92,0,0,1-.6-.18.6.6,0,0,1-.41-.51q0-.14.41-.55a5.51,5.51,0,0,1,1-.46,8.81,8.81,0,0,0,1.66-.87,2.83,2.83,0,0,1,1.75-.55,51.55,51.55,0,0,1,6.67.14,4.37,4.37,0,0,1,2.25,1q.28.23.92.67c.43.29.74.51.92.67a6,6,0,0,1,1.43,2.35A11,11,0,0,1,346,73a16,16,0,0,1-1.52,4.74q-.51.92-2.35,5.52a36.13,36.13,0,0,1-2.62,5.34l-2.9,4.74q-.78,1.29-1.89,2.9a.59.59,0,0,1-.6.37,2.9,2.9,0,0,0-.44-.09l-.46-.07a.83.83,0,0,1-.37-.18.94.94,0,0,1-.3-.39l-.41-.18-.67,0a5.26,5.26,0,0,1-.67-.07q-1.2-.09-1.06-1.43,0-.69.16-2t.16-2q0-.6.09-1.63t.09-1.91q0-.87.09-1.66.09-1.1.23-3.31t.23-3.31q.18-3.5.23-5.52,0-2.35,0-7a3.51,3.51,0,0,0,0-.64Q330.69,65.23,330.14,65.32Zm5.7,25,.23-.28q.55-1,.83-1.47A46.6,46.6,0,0,0,340.63,81q.18-.55,2.21-5a12.38,12.38,0,0,0,1.29-6.49q-.14-3.63-3.91-5.24a9.62,9.62,0,0,0-2.62-.32c-.37,0-.61,0-.71.14a1.39,1.39,0,0,0-.16.83q-.09,2.07-.18,6.3,0,.83,0,2.44t-.09,2.44q0,1.06-.23,3.22t-.23,3.27q-.28,4.88-.41,7.27a2.52,2.52,0,0,0,0,.78C335.63,90.57,335.72,90.45,335.84,90.3Z"/><path d="M367,93.84l2.62-.39,2.62-.39h.18q.92-.09,1.15.14t.14,1.15a.62.62,0,0,1-.46.74l-.28,0-.28,0a45.28,45.28,0,0,0-5.66.74,7.07,7.07,0,0,1-1.22.12,8,8,0,0,0-1,.07q-1.2,0-1.84,0a1.58,1.58,0,0,1-1.79-1.38A3.12,3.12,0,0,1,361,93.2q.6-3.73.92-8.51,0-.87.12-2.58t.12-2.53.41-6.12q0-1.43.23-4.28.14-1.75.32-5.24a1.19,1.19,0,0,1,.41-.83,3.91,3.91,0,0,1,2-.78l2-.16,2.32-.16a6.77,6.77,0,0,1,.9,0,10.3,10.3,0,0,0,1,0,4,4,0,0,0,.87-.18h.41a1.9,1.9,0,0,1,.81.21,1.54,1.54,0,0,1,.11.8,1.84,1.84,0,0,1-.14.94c-.09.11-.4.18-.92.21q-2.39.09-3.59.18a.92.92,0,0,0-.58.18,1.45,1.45,0,0,0-.16.69L368,71.58s0,.89-.14,2.58l-.14,2.9q0,.64.14.76t.74,0l2.67-.28a1,1,0,0,1,.64.07,1.46,1.46,0,0,1,.28.67,1.51,1.51,0,0,1,.09.37c0,.43-.14.66-.51.69s-1,.12-1.75.18-1.58.12-2,.18-.51.32-.51.78-.06,1-.09,1.7,0,1.3,0,1.7q-.46,5.84-.64,6.81-.09.55-.21,1.7t-.16,1.38A1.26,1.26,0,0,0,367,93.84Z"/><path d="M374.85,94.94a7.76,7.76,0,0,1,.28-1.33q.37-1.15.87-3.33t.74-3.06q.28-1.1.69-3.15t.51-2.55q1.2-5.43,1.52-6.62l.39-1.36.46-1.59.39-1.33,1.24-5.11a3.12,3.12,0,0,0,0-.87,1.17,1.17,0,0,1,.64-1.47q.28-.14.85-.37a6.3,6.3,0,0,0,.8-.37,6.82,6.82,0,0,1,2.12-.28,1,1,0,0,1,1.2.78,4,4,0,0,1,.23.87q.69,6.35.92,8.83.23,2.12.6,5.75a4.81,4.81,0,0,1,.07.48c0,.17,0,.35,0,.55s0,.36,0,.48q.37,3.4.55,5.06.18,2.16.55,6.39a10.67,10.67,0,0,1,0,1.17v1.22a.89.89,0,0,1-.41.69A10,10,0,0,1,387,95.73a.44.44,0,0,0-.32.14.84.84,0,0,1-.92,0,1,1,0,0,1-.55-1,64,64,0,0,0-.64-8.6q-.09-.55-.21-1.61t-.16-1.61a1.65,1.65,0,0,0-.23-.71q-.14-.16-.64-.12t-3.59.23a.88.88,0,0,0-.87.83q-.18,1-1.2,5.43-.18.64-.53,1.93t-.48,1.93a20.34,20.34,0,0,1-.78,2.76q-.46.41-.6.28c0-.06-.06-.09-.09-.09a.13.13,0,0,0,0,.09v0l-.28.14A3.09,3.09,0,0,1,374.85,94.94ZM379.63,81l1.29-.14q.41,0,1.22-.07l1.22,0q.46,0,.55-.12t0-.57q-.09-.64-.23-1.91t-.18-1.91q-.09-1-.3-3.06t-.34-3.06a1.62,1.62,0,0,0-.07-.39,1.6,1.6,0,0,1-.07-.35A55.61,55.61,0,0,0,379.63,81Z"/><path d="M392.74,83.77a65.22,65.22,0,0,1,1.47-11.45,17.27,17.27,0,0,1,1.7-5.06,24.85,24.85,0,0,1,1.93-3.31,5.23,5.23,0,0,1,3.31-2.12,2.09,2.09,0,0,1,1.43.09.19.19,0,0,1,.12.07l.14.16.12.14-.12.14-.14.16a.19.19,0,0,1-.12.07l-.6.11-.6.12a4.45,4.45,0,0,0-2.48,2,10.11,10.11,0,0,0-.69,1.22q-.32.67-.69,1.59T397,69a9.24,9.24,0,0,0-.87,2.85q-.41,2.72-1,7.36,0,.09-.28,2.44a18.22,18.22,0,0,0,.23,4,7,7,0,0,0,1.84,3.45,2.71,2.71,0,0,0,2.3.74,6.25,6.25,0,0,0,2-.69,7.31,7.31,0,0,0,1.61-1.33,43,43,0,0,0,4.46-7l.28-.55q.32-.73,1-.46a.83.83,0,0,1,.23.09,1.53,1.53,0,0,1,.78.55,2.31,2.31,0,0,1,0,1.1,12.26,12.26,0,0,1-1.52,4.69q-2,3.4-2.71,4.55a12.47,12.47,0,0,1-5,4.51,3.93,3.93,0,0,1-4.6-.64,6.7,6.7,0,0,1-2-2.81.82.82,0,0,0-.23-.37,2.26,2.26,0,0,1-.46-1.29c-.06-.55-.12-1-.18-1.24v0Q392.74,87,392.74,83.77Z"/><path d="M422.92,85.45q.09-3.2.14-4.76a1.29,1.29,0,0,0-.12-.67q-.12-.16-.53-.16a22.41,22.41,0,0,1-3-.18q-.78-.14-.83.64-.41,5.7-.51,7,0,.74-.18,2.21t-.18,2.21a6.76,6.76,0,0,0,0,1.29l0,1.29a1.5,1.5,0,0,1-.12.55,1.34,1.34,0,0,1-.53.23,30.4,30.4,0,0,1-3.59.55,1.43,1.43,0,0,1-1.13-.41,1.33,1.33,0,0,1-.44-1.1q.28-5.8.28-5.89.46-6.72.64-9.75l.41-5.38q.09-.83.23-2.39t.18-2.39q0-.51.18-1.5t.18-1.45q.09-1.47.09-2.25a1.11,1.11,0,0,1,.87-1.1,6.52,6.52,0,0,1,3.54.18l.32.09a2.08,2.08,0,0,1,1,.6,2.4,2.4,0,0,1,.12,1.15q0,.78-.21,2.23T419.51,68q-.09,1.15-.3,3.38t-.3,3.24q0,.55-.18,2.58a1,1,0,0,0,.07.62.94.94,0,0,0,.58.25,21.12,21.12,0,0,0,3.08.14q.64,0,.69-.55a21.73,21.73,0,0,0,.14-2.39q0-1.24.16-3.7t.16-3.7q0-.78,0-2.28t0-2.28a1.82,1.82,0,0,1,0-.51.6.6,0,0,1,.44-.57.72.72,0,0,1,.71.16A2.69,2.69,0,0,1,426,64.54q-.09,1.24-.12,3.47t-.07,3.1l-.28,5.52c0,.18,0,.46,0,.83s0,.64,0,.83q0,1-.09,3.06t-.09,3.06.14,8.1q0,.28,0,1a6.88,6.88,0,0,0,0,1.13.86.86,0,0,1-.55.74,1.39,1.39,0,0,1-1.47-.09,1.58,1.58,0,0,1-.55-1.43,12,12,0,0,0,.14-1.79q0-.6-.09-1.79a0,0,0,0,0,0,0Q422.82,88.64,422.92,85.45Z"/><path d="M447.23,75.72q.3-1.06.44-1.61.41-1.79,1.13-5.13t1-4.71q.37-1.75.55-2.67a1.31,1.31,0,0,1,1-1.2,3.54,3.54,0,0,1,3,.74,2.68,2.68,0,0,1,.46.32l.37.32a1.81,1.81,0,0,1,.64,2.07q-1.61,6.16-2.21,9-.23,1.15-.55,2.42T452.36,78q-.41,1.54-.64,2.37-.51,2.07-2,8.19-.18.83-.53,2.51t-.53,2.51L448,96.42q-.18.46-.37.46a3.93,3.93,0,0,1-1.33.18,22.79,22.79,0,0,1-2.94-.51q-.37-.09-.62-.81a2.19,2.19,0,0,1-.12-1.26l1.52-6.35q.51-2.07,1.52-6.3a4.44,4.44,0,0,0,0-1.79l-1.24-4.28q-.28-1.06-.83-3.08t-.83-3.08a.67.67,0,0,0,0-.14.62.62,0,0,1,0-.14q-.28-.74-.85-2.21T441,64.91q-.23-.6-.37-1.06a1.21,1.21,0,0,1,.46-1.43q.55-.41,1.06.32a3.15,3.15,0,0,1,.55,1q.41,1.24,1.33,3.73a21.58,21.58,0,0,1,.76,2.42q.44,1.63.48,1.77.46,1.66,1.38,4.88a2,2,0,0,0,.23.41Q446.93,76.77,447.23,75.72Z"/><path d="M464.5,93.84l2.62-.39,2.62-.39h.18q.92-.09,1.15.14t.14,1.15a.62.62,0,0,1-.46.74l-.28,0-.28,0a45.28,45.28,0,0,0-5.66.74,7.07,7.07,0,0,1-1.22.12,8,8,0,0,0-1,.07q-1.2,0-1.84,0a1.58,1.58,0,0,1-1.79-1.38,3.12,3.12,0,0,1-.09-1.52q.6-3.73.92-8.51,0-.87.12-2.58t.12-2.53.41-6.12q0-1.43.23-4.28.14-1.75.32-5.24a1.19,1.19,0,0,1,.41-.83,3.91,3.91,0,0,1,2-.78l2-.16,2.32-.16a6.77,6.77,0,0,1,.9,0,10.3,10.3,0,0,0,1,0,4,4,0,0,0,.87-.18h.41a1.9,1.9,0,0,1,.81.21,1.54,1.54,0,0,1,.11.8,1.84,1.84,0,0,1-.14.94c-.09.11-.4.18-.92.21q-2.39.09-3.59.18a.92.92,0,0,0-.58.18,1.45,1.45,0,0,0-.16.69l-.55,6.62s0,.89-.14,2.58l-.14,2.9q0,.64.14.76t.74,0l2.67-.28a1,1,0,0,1,.64.07,1.46,1.46,0,0,1,.28.67,1.51,1.51,0,0,1,.09.37c0,.43-.14.66-.51.69s-1,.12-1.75.18-1.58.12-2,.18-.51.32-.51.78-.06,1-.09,1.7,0,1.3,0,1.7q-.46,5.84-.64,6.81-.09.55-.21,1.7t-.16,1.38A1.26,1.26,0,0,0,464.5,93.84Z"/><path d="M472.37,94.94a7.76,7.76,0,0,1,.28-1.33q.37-1.15.87-3.33t.74-3.06q.28-1.1.69-3.15t.51-2.55q1.2-5.43,1.52-6.62l.39-1.36.46-1.59.39-1.33,1.24-5.11a3.12,3.12,0,0,0,0-.87,1.17,1.17,0,0,1,.64-1.47q.28-.14.85-.37a6.3,6.3,0,0,0,.8-.37,6.82,6.82,0,0,1,2.12-.28,1,1,0,0,1,1.2.78,4,4,0,0,1,.23.87q.69,6.35.92,8.83.23,2.12.6,5.75a4.81,4.81,0,0,1,.07.48c0,.17,0,.35,0,.55s0,.36,0,.48q.37,3.4.55,5.06.18,2.16.55,6.39a10.92,10.92,0,0,1,0,1.17v1.22a.89.89,0,0,1-.41.69,10,10,0,0,1-3.08,1.29.44.44,0,0,0-.32.14.84.84,0,0,1-.92,0,1,1,0,0,1-.55-1,64.08,64.08,0,0,0-.64-8.6q-.09-.55-.21-1.61c-.08-.71-.13-1.24-.16-1.61a1.66,1.66,0,0,0-.23-.71q-.14-.16-.64-.12t-3.59.23a.88.88,0,0,0-.87.83q-.18,1-1.2,5.43-.18.64-.53,1.93t-.48,1.93a20.34,20.34,0,0,1-.78,2.76q-.46.41-.6.28c0-.06-.06-.09-.09-.09a.13.13,0,0,0,0,.09v0l-.28.14A3.09,3.09,0,0,1,472.37,94.94ZM477.15,81l1.29-.14q.41,0,1.22-.07l1.22,0q.46,0,.55-.12t0-.57q-.09-.64-.23-1.91T481,76.27q-.09-1-.3-3.06t-.34-3.06a1.62,1.62,0,0,0-.07-.39,1.6,1.6,0,0,1-.07-.35A55.61,55.61,0,0,0,477.15,81Z"/><path d="M498.17,80.16a4.27,4.27,0,0,0-.64.48,1.26,1.26,0,0,0-.32.6,12.25,12.25,0,0,0-.09,1.24q-.18,3.27-.46,9.8L496.52,95a1,1,0,0,1-.6.87,10.08,10.08,0,0,1-1.08.41q-.58.18-1.31.35l-1.1.25a.88.88,0,0,1-.58,0,1.39,1.39,0,0,1-.39-.55,2,2,0,0,0-.32-.51,1.85,1.85,0,0,1-.28-1.33l.41-5.24q.37-5.06.51-7.59.14-1.56.32-4.69.37-3.82.51-6,0-.92,0-2.76c0-.18,0-.56,0-1.13s0-1,.07-1.31a1.23,1.23,0,0,0-.37-1.06A.66.66,0,0,1,492,64a.78.78,0,0,1,.64-.64q.46-.09,1.27-.3l1.47-.37,1.26-.3a24.92,24.92,0,0,1,4.69-.46,6.84,6.84,0,0,1,3,.78,3.93,3.93,0,0,1,1.56,1.79,7.62,7.62,0,0,1,.51,5.7A10.42,10.42,0,0,1,504,74.66q-.37.41-1,1.22t-.74.94q-.18.23-.64.69a1.3,1.3,0,0,0-.46,1.33l.48,2.23q.39,1.82.62,2.83t2.07,8.65q.09.28.35,1.1t.34,1.29a1.7,1.7,0,0,1-.16,1.31,1.29,1.29,0,0,1-.94.71.28.28,0,0,1-.37-.09,2.47,2.47,0,0,1-.92-1.38q-.28-1.66-.67-3.45T501,88q-.53-2.23-.76-3.38-.18-.83-.6-2.32t-.55-2l-.28-.6A4.34,4.34,0,0,1,498.17,80.16Zm-.6-2.37.6-.41a5.3,5.3,0,0,0,.69-.55,33,33,0,0,0,4.37-5,9.4,9.4,0,0,0,1.52-5.06q.14-2.53-2.21-2.85-.69,0-4,0a2.21,2.21,0,0,0-.55.23,4.06,4.06,0,0,1,.35,1,8.84,8.84,0,0,1-.07,1.2.63.63,0,0,0,0,.28v.28q-.37,4.6-.51,6.85-.14,1.29-.32,3.86A.74.74,0,0,1,497.58,77.79Z"/><path d="M510.13,92.92a.66.66,0,0,1,.78-.18,3.09,3.09,0,0,1,.74.18,1.35,1.35,0,0,1,1.15,1.33,2.74,2.74,0,0,1,0,1.29q-.46.87-1.2.64a8.33,8.33,0,0,1-1.66-.83,1,1,0,0,1-.41-1.06A1.89,1.89,0,0,1,510.13,92.92Z"/></svg>