<svg id="Layer_1" data-name="Layer 1" xmlns="http://www.w3.org/2000/svg" viewBox="0 0 579.27 157.6"><title>2</title><path d="M52.62,25a4.33,4.33,0,0,0-.64.48,1.25,1.25,0,0,0-.32.6,12.11,12.11,0,0,0-.09,1.24q-.18,3.27-.46,9.8L51,39.84a1,1,0,0,1-.6.87,10,10,0,0,1-1.08.41q-.58.18-1.31.35l-1.1.25a.88.88,0,0,1-.57,0,1.39,1.39,0,0,1-.39-.55,2.06,2.06,0,0,0-.32-.51,1.85,1.85,0,0,1-.28-1.33l.41-5.24q.37-5.06.51-7.59.14-1.56.32-4.69.37-3.82.51-6,0-.92,0-2.76c0-.18,0-.56,0-1.13s0-1,.07-1.31a1.23,1.23,0,0,0-.37-1.06.66.66,0,0,1-.37-.78.78.78,0,0,1,.64-.64q.46-.09,1.27-.3l1.47-.37,1.26-.3a24.92,24.92,0,0,1,4.69-.46,6.84,6.84,0,0,1,3,.78,3.92,3.92,0,0,1,1.56,1.79,7.62,7.62,0,0,1,.51,5.7,10.42,10.42,0,0,1-2.44,4.46q-.37.41-1,1.22t-.74.94q-.18.23-.64.69a1.3,1.3,0,0,0-.46,1.33L56,25.88q.39,1.82.62,2.83t2.07,8.65q.09.28.35,1.1t.34,1.29a1.7,1.7,0,0,1-.16,1.31,1.29,1.29,0,0,1-.94.71.29.29,0,0,1-.37-.09A2.47,2.47,0,0,1,57,40.3q-.28-1.66-.67-3.45t-.92-4q-.53-2.23-.76-3.38-.18-.83-.6-2.32t-.55-2l-.28-.6A4.29,4.29,0,0,1,52.62,25ZM52,22.59l.6-.41a5.31,5.31,0,0,0,.69-.55,33,33,0,0,0,4.37-5,9.39,9.39,0,0,0,1.52-5.06Q59.34,9,57,8.69q-.69,0-4,0a2.2,2.2,0,0,0-.55.23,4,4,0,0,1,.35,1,8.64,8.64,0,0,1-.07,1.2.63.63,0,0,0,0,.28v.28q-.37,4.6-.51,6.85-.14,1.29-.32,3.86A.75.75,0,0,1,52,22.59Z"/><path d="M70.33,11.13a43.7,43.7,0,0,0-.46,6.53l-.14,7.87v5.15q0,1-.09,2.88t-.09,2.88q0,.46,0,1.38t0,1.38a1.15,1.15,0,0,1-.11.64,1.59,1.59,0,0,1-.53.32,8.18,8.18,0,0,1-2.16.55q-.6,0-1.75,0a.49.49,0,0,1-.46-.23A3.53,3.53,0,0,1,64,38.64q0-.32.07-1t0-1q0-1.15.18-13.66,0-4.14.28-8.37,0-.83.18-2.55t.18-2.6q0-.6,0-1.79a1.17,1.17,0,0,1,.87-1.29,2.9,2.9,0,0,1,1.56-.18,5.73,5.73,0,0,1,2.25.69,1.86,1.86,0,0,1,.85.62,3,3,0,0,1,.16,1.22Q70.47,10.35,70.33,11.13Z"/><path d="M72.82,28.57a65.18,65.18,0,0,1,1.47-11.45A17.25,17.25,0,0,1,76,12.05a24.86,24.86,0,0,1,1.93-3.31,5.23,5.23,0,0,1,3.31-2.12,2.09,2.09,0,0,1,1.43.09.19.19,0,0,1,.12.07l.14.16.12.14-.12.14-.14.16a.19.19,0,0,1-.12.07l-.6.11-.6.12a4.45,4.45,0,0,0-2.48,2,10.11,10.11,0,0,0-.69,1.22q-.32.67-.69,1.59T77,13.8a9.24,9.24,0,0,0-.87,2.85q-.41,2.72-1,7.36,0,.09-.28,2.44a18.22,18.22,0,0,0,.23,4A6.94,6.94,0,0,0,77,33.9a2.71,2.71,0,0,0,2.3.74,6.25,6.25,0,0,0,2-.69,7.31,7.31,0,0,0,1.61-1.33,43,43,0,0,0,4.46-7l.28-.55q.32-.73,1-.46a.83.83,0,0,1,.23.09,1.54,1.54,0,0,1,.78.55,2.3,2.3,0,0,1,0,1.1,12.25,12.25,0,0,1-1.52,4.69q-2,3.4-2.71,4.55a12.47,12.47,0,0,1-5,4.51,3.94,3.94,0,0,1-4.6-.64,6.71,6.71,0,0,1-2-2.81.83.83,0,0,0-.23-.37A2.27,2.27,0,0,1,73.14,35Q73,34.18,73,33.76v0Q72.82,31.79,72.82,28.57Z"/><path d="M103,30.25q.09-3.2.14-4.76a1.29,1.29,0,0,0-.11-.67c-.08-.11-.25-.16-.53-.16a22.42,22.42,0,0,1-3-.18q-.78-.14-.83.64-.41,5.7-.51,7,0,.74-.18,2.21t-.18,2.21a6.81,6.81,0,0,0,0,1.29l0,1.29a1.49,1.49,0,0,1-.11.55,1.34,1.34,0,0,1-.53.23,30.4,30.4,0,0,1-3.59.55,1.43,1.43,0,0,1-1.13-.41A1.33,1.33,0,0,1,92,39q.28-5.8.28-5.89.46-6.72.64-9.75l.41-5.38q.09-.83.23-2.39t.18-2.39q0-.51.18-1.5t.18-1.45q.09-1.47.09-2.25A1.11,1.11,0,0,1,95,6.85,6.52,6.52,0,0,1,98.58,7l.32.09a2.09,2.09,0,0,1,1,.6A2.41,2.41,0,0,1,100,8.88q0,.78-.21,2.23t-.21,1.68q-.09,1.15-.3,3.38T99,19.41q0,.55-.18,2.58a1,1,0,0,0,.07.62,1,1,0,0,0,.58.25,21.12,21.12,0,0,0,3.08.14q.64,0,.69-.55a21.73,21.73,0,0,0,.14-2.39q0-1.24.16-3.7t.16-3.7q0-.78,0-2.28t0-2.28a1.83,1.83,0,0,1,0-.51.6.6,0,0,1,.44-.57.72.72,0,0,1,.71.16A2.69,2.69,0,0,1,106,9.34q-.09,1.24-.12,3.47t-.07,3.1l-.28,5.52c0,.18,0,.46,0,.83s0,.64,0,.83q0,1-.09,3.06t-.09,3.06.14,8.1q0,.28,0,1a6.77,6.77,0,0,0,0,1.13.86.86,0,0,1-.55.74,1.39,1.39,0,0,1-1.47-.09,1.58,1.58,0,0,1-.55-1.43,12,12,0,0,0,.14-1.79q0-.6-.09-1.79a0,0,0,0,0,0,0Z"/><path d="M108.28,39.74a7.81,7.81,0,0,1,.28-1.33q.37-1.15.87-3.33t.74-3.06q.28-1.1.69-3.15t.51-2.55q1.2-5.43,1.52-6.62l.39-1.36.46-1.59.39-1.33,1.24-5.11a3.1,3.1,0,0,0,0-.87A1.17,1.17,0,0,1,116,8q.28-.14.85-.37a6.31,6.31,0,0,0,.81-.37,6.82,6.82,0,0,1,2.12-.28,1,1,0,0,1,1.2.78,4,4,0,0,1,.23.87q.69,6.35.92,8.83.23,2.12.6,5.75,0,.23.07.48t0,.55q0,.3,0,.48.37,3.4.55,5.06.18,2.16.55,6.39a10.67,10.67,0,0,1,0,1.17v1.22a.89.89,0,0,1-.41.69,10,10,0,0,1-3.08,1.29.44.44,0,0,0-.32.14.84.84,0,0,1-.92,0,1,1,0,0,1-.55-1,64,64,0,0,0-.64-8.6q-.09-.55-.21-1.61t-.16-1.61a1.65,1.65,0,0,0-.23-.71q-.14-.16-.64-.12t-3.59.23a.88.88,0,0,0-.87.83q-.18,1-1.2,5.43-.18.64-.53,1.93t-.48,1.93a20.52,20.52,0,0,1-.78,2.76q-.46.41-.6.28c0-.06-.06-.09-.09-.09a.13.13,0,0,0,0,.09v0l-.28.14A3.1,3.1,0,0,1,108.28,39.74Zm4.78-13.94,1.29-.14q.41,0,1.22-.07l1.22,0q.46,0,.55-.12t0-.57q-.09-.64-.23-1.91t-.18-1.91q-.09-1-.3-3.06T116.29,15a1.62,1.62,0,0,0-.07-.39,1.61,1.61,0,0,1-.07-.35A55.61,55.61,0,0,0,113.07,25.81Z"/><path d="M134.09,25a4.33,4.33,0,0,0-.64.48,1.25,1.25,0,0,0-.32.6,12.11,12.11,0,0,0-.09,1.24q-.18,3.27-.46,9.8l-.14,2.76a1,1,0,0,1-.6.87,10,10,0,0,1-1.08.41q-.58.18-1.31.35l-1.1.25a.88.88,0,0,1-.57,0,1.39,1.39,0,0,1-.39-.55,2.06,2.06,0,0,0-.32-.51,1.85,1.85,0,0,1-.28-1.33l.41-5.24q.37-5.06.51-7.59.14-1.56.32-4.69.37-3.82.51-6,0-.92,0-2.76c0-.18,0-.56,0-1.13s0-1,.07-1.31a1.23,1.23,0,0,0-.37-1.06.66.66,0,0,1-.37-.78.78.78,0,0,1,.64-.64q.46-.09,1.27-.3l1.47-.37,1.26-.3a24.92,24.92,0,0,1,4.69-.46,6.84,6.84,0,0,1,3,.78,3.92,3.92,0,0,1,1.56,1.79,7.62,7.62,0,0,1,.51,5.7,10.42,10.42,0,0,1-2.44,4.46q-.37.41-1,1.22t-.74.94q-.18.23-.64.69a1.3,1.3,0,0,0-.46,1.33l.48,2.23q.39,1.82.62,2.83t2.07,8.65q.09.28.35,1.1t.34,1.29a1.7,1.7,0,0,1-.16,1.31,1.29,1.29,0,0,1-.94.71.29.29,0,0,1-.37-.09,2.47,2.47,0,0,1-.92-1.38q-.28-1.66-.67-3.45t-.92-4q-.53-2.23-.76-3.38-.18-.83-.6-2.32t-.55-2l-.28-.6A4.29,4.29,0,0,1,134.09,25Zm-.6-2.37.6-.41a5.31,5.31,0,0,0,.69-.55,33,33,0,0,0,4.37-5,9.39,9.39,0,0,0,1.52-5.06q.14-2.53-2.21-2.85-.69,0-4,0a2.2,2.2,0,0,0-.55.23,4,4,0,0,1,.35,1,8.64,8.64,0,0,1-.07,1.2.63.63,0,0,0,0,.28v.28q-.37,4.6-.51,6.85-.14,1.29-.32,3.86A.75.75,0,0,1,133.49,22.59Z"/><path d="M146.19,10.12l-.64.09a.92.92,0,0,1-.6-.18.6.6,0,0,1-.41-.51q0-.14.41-.55a5.53,5.53,0,0,1,1-.46,8.79,8.79,0,0,0,1.66-.87,2.83,2.83,0,0,1,1.75-.55,51.55,51.55,0,0,1,6.67.14,4.37,4.37,0,0,1,2.25,1q.28.23.92.67t.92.67a6,6,0,0,1,1.43,2.35,11,11,0,0,1,.51,5.89,15.94,15.94,0,0,1-1.52,4.74q-.51.92-2.35,5.52a36,36,0,0,1-2.62,5.34l-2.9,4.74q-.78,1.29-1.89,2.9a.59.59,0,0,1-.6.37,2.87,2.87,0,0,0-.44-.09l-.46-.07a.83.83,0,0,1-.37-.18.93.93,0,0,1-.3-.39l-.41-.18-.67,0a5.25,5.25,0,0,1-.67-.07q-1.2-.09-1.06-1.43,0-.69.16-2t.16-2q0-.6.09-1.63t.09-1.91q0-.87.09-1.66.09-1.1.23-3.31t.23-3.31q.18-3.5.23-5.52,0-2.35,0-7a3.51,3.51,0,0,0,0-.64Q146.74,10,146.19,10.12Zm5.7,25,.23-.28q.55-1,.83-1.47a46.65,46.65,0,0,0,3.73-7.54q.18-.55,2.21-5a12.39,12.39,0,0,0,1.29-6.49q-.14-3.63-3.91-5.24a9.62,9.62,0,0,0-2.62-.32q-.55,0-.71.14a1.39,1.39,0,0,0-.16.83q-.09,2.07-.18,6.3,0,.83,0,2.44t-.09,2.44q0,1.06-.23,3.22T152,27.42q-.28,4.88-.41,7.27a2.54,2.54,0,0,0,0,.78C151.67,35.37,151.77,35.25,151.89,35.1Z"/><path d="M176.64,28.57a65.18,65.18,0,0,1,1.47-11.45,17.25,17.25,0,0,1,1.7-5.06,24.86,24.86,0,0,1,1.93-3.31,5.23,5.23,0,0,1,3.31-2.12,2.09,2.09,0,0,1,1.43.09.19.19,0,0,1,.12.07l.14.16.12.14-.12.14-.14.16a.19.19,0,0,1-.12.07l-.6.11-.6.12a4.45,4.45,0,0,0-2.48,2,10.11,10.11,0,0,0-.69,1.22q-.32.67-.69,1.59t-.55,1.33a9.24,9.24,0,0,0-.87,2.85q-.41,2.72-1,7.36,0,.09-.28,2.44a18.22,18.22,0,0,0,.23,4,6.94,6.94,0,0,0,1.84,3.45,2.71,2.71,0,0,0,2.3.74,6.25,6.25,0,0,0,2-.69,7.31,7.31,0,0,0,1.61-1.33,43,43,0,0,0,4.46-7l.28-.55q.32-.73,1-.46a.83.83,0,0,1,.23.09,1.54,1.54,0,0,1,.78.55,2.3,2.3,0,0,1,0,1.1A12.25,12.25,0,0,1,192,31.05q-2,3.4-2.71,4.55a12.47,12.47,0,0,1-5,4.51,3.94,3.94,0,0,1-4.6-.64,6.71,6.71,0,0,1-2-2.81.83.83,0,0,0-.23-.37A2.27,2.27,0,0,1,177,35q-.09-.83-.18-1.24v0Q176.64,31.79,176.64,28.57Z"/><path d="M195.86,39.74a7.81,7.81,0,0,1,.28-1.33q.37-1.15.87-3.33t.74-3.06q.28-1.1.69-3.15t.51-2.55q1.2-5.43,1.52-6.62l.39-1.36.46-1.59.39-1.33,1.24-5.11a3.1,3.1,0,0,0,0-.87A1.17,1.17,0,0,1,203.55,8q.28-.14.85-.37a6.31,6.31,0,0,0,.81-.37,6.82,6.82,0,0,1,2.12-.28,1,1,0,0,1,1.2.78,4,4,0,0,1,.23.87q.69,6.35.92,8.83.23,2.12.6,5.75,0,.23.07.48t0,.55q0,.3,0,.48.37,3.4.55,5.06.18,2.16.55,6.39a10.67,10.67,0,0,1,0,1.17v1.22a.89.89,0,0,1-.41.69,10,10,0,0,1-3.08,1.29.44.44,0,0,0-.32.14.84.84,0,0,1-.92,0,1,1,0,0,1-.55-1,64,64,0,0,0-.64-8.6q-.09-.55-.21-1.61t-.16-1.61a1.65,1.65,0,0,0-.23-.71q-.14-.16-.64-.12t-3.59.23a.88.88,0,0,0-.87.83q-.18,1-1.2,5.43-.18.64-.53,1.93t-.48,1.93a20.52,20.52,0,0,1-.78,2.76q-.46.41-.6.28c0-.06-.06-.09-.09-.09a.13.13,0,0,0,0,.09v0l-.28.14A3.1,3.1,0,0,1,195.86,39.74Zm4.78-13.94,1.29-.14q.41,0,1.22-.07l1.22,0q.46,0,.55-.12t0-.57q-.09-.64-.23-1.91t-.18-1.91q-.09-1-.3-3.06T203.87,15a1.62,1.62,0,0,0-.07-.39,1.61,1.61,0,0,1-.07-.35A55.61,55.61,0,0,0,200.65,25.81Z"/><path d="M215.14,10.12l-.64.09a.92.92,0,0,1-.6-.18.6.6,0,0,1-.41-.51q0-.14.41-.55a5.53,5.53,0,0,1,1-.46,8.79,8.79,0,0,0,1.66-.87,2.83,2.83,0,0,1,1.75-.55,51.55,51.55,0,0,1,6.67.14,4.37,4.37,0,0,1,2.25,1q.28.23.92.67t.92.67a6,6,0,0,1,1.43,2.35,11,11,0,0,1,.51,5.89,15.94,15.94,0,0,1-1.52,4.74q-.51.92-2.35,5.52a36,36,0,0,1-2.62,5.34l-2.9,4.74q-.78,1.29-1.89,2.9a.59.59,0,0,1-.6.37,2.87,2.87,0,0,0-.44-.09l-.46-.07a.83.83,0,0,1-.37-.18.93.93,0,0,1-.3-.39l-.41-.18-.67,0a5.25,5.25,0,0,1-.67-.07q-1.2-.09-1.06-1.43,0-.69.16-2t.16-2q0-.6.09-1.63t.09-1.91q0-.87.09-1.66.09-1.1.23-3.31t.23-3.31q.18-3.5.23-5.52,0-2.35,0-7a3.51,3.51,0,0,0,0-.64Q215.69,10,215.14,10.12Zm5.7,25,.23-.28q.55-1,.83-1.47a46.65,46.65,0,0,0,3.73-7.54q.18-.55,2.21-5a12.39,12.39,0,0,0,1.29-6.49q-.14-3.63-3.91-5.24a9.62,9.62,0,0,0-2.62-.32q-.55,0-.71.14a1.39,1.39,0,0,0-.16.83q-.09,2.07-.18,6.3,0,.83,0,2.44t-.09,2.44q0,1.06-.23,3.22t-.23,3.27q-.28,4.88-.41,7.27a2.54,2.54,0,0,0,0,.78C220.63,35.37,220.72,35.25,220.84,35.1Z"/><path d="M244,20.65a3.34,3.34,0,0,1,1.66.18l.25.09a1,1,0,0,0,.25,0,3.16,3.16,0,0,1,2.67,1.75,9,9,0,0,1,1.24,3.22s0,.11,0,.23a2.5,2.5,0,0,1,0,.28,17.19,17.19,0,0,1-1.24,5.38,16.11,16.11,0,0,1-1.75,2.76,16.43,16.43,0,0,1-6.58,5.06q-.41.23-1.22.58l-1.08.48a2.28,2.28,0,0,1-2.58-.23l-.14-.14q-1-.28-.87-1.52.14-6.95.09-8.37,0-1.61-.23-9.75v-.37q-.09-3.22-.18-9.57a9.78,9.78,0,0,0,0-1.1,1.63,1.63,0,0,1,.28-1.1A2,2,0,0,1,236,7.64l2.25-.14a19.32,19.32,0,0,1,2.3-.14,22.3,22.3,0,0,1,2.39.18c.15,0,.38,0,.67,0s.51,0,.67,0a3.55,3.55,0,0,1,2,.8,3.1,3.1,0,0,1,1.22,1.73,7,7,0,0,1-1.15,6.07,33.93,33.93,0,0,1-3.08,3.82,1.84,1.84,0,0,0-.32.51Q243.75,20.66,244,20.65Zm-3.91-.18c.09-.09.29-.26.6-.51a27.78,27.78,0,0,0,4.19-5.06,6.06,6.06,0,0,0,1.06-3.82,1.61,1.61,0,0,0-1.38-1.61,15.7,15.7,0,0,0-3.86-.41.62.62,0,0,0-.69.64q-.14,2.21-.14,2.3v7.64c0,.09,0,.22,0,.39s0,.3,0,.39A.27.27,0,0,1,240.07,20.47Zm.55,17,.51-.28a15.84,15.84,0,0,0,5.11-4.88,10.21,10.21,0,0,0,1.38-3q.14-.55.46-2.07a5.55,5.55,0,0,0-.74-3.77,2.49,2.49,0,0,0-1.1-1,10.53,10.53,0,0,0-5.29-.14,1.15,1.15,0,0,0-.76.37,1.57,1.57,0,0,0-.21.92q.14,3.59.14,3.63,0,.92,0,2.69t0,2.65q0,1.52,0,4.46s0,.26.09.69A4.61,4.61,0,0,0,240.62,37.49Z"/><path d="M253,17.94q.14-3.45.51-9.84,0-1,.69-1a1.05,1.05,0,0,1,.71.41,1.17,1.17,0,0,1,.25.87L255,10q-.09,1.08-.14,1.63a5.6,5.6,0,0,0-.09.87q-.09,10.35-.09,12.42t.28,6.62q0,.32.37,1.7a9.87,9.87,0,0,0,.32,1.2,7.66,7.66,0,0,0,.32,1.06q.46,1,1.29.78A5.2,5.2,0,0,0,261,32l.12-.46q.07-.28.11-.53a2.73,2.73,0,0,0,0-.48q.55-3.77.78-5.7.55-5.75.64-7.13.23-3.17.32-7.22a10.65,10.65,0,0,0-.09-1.7,2.16,2.16,0,0,1,1.2-2.35,1.66,1.66,0,0,1,1.43-.09,4.56,4.56,0,0,0,.92.18A2.76,2.76,0,0,1,269,9.61q-.14,2.94-.51,9.34-.46,5.89-.74,9.2a40.57,40.57,0,0,1-.64,4.42q0,.32-1.1,3.54l-.39.87a6.67,6.67,0,0,0-.35.87,8.55,8.55,0,0,1-2.48,3.08,5.64,5.64,0,0,1-4.65,1.38,3.29,3.29,0,0,1-1.93-1q-1.93-1.89-2.76-6.12,0-.41-.18-2.53-.09-1.66-.23-4.88t-.18-4.88h.09Q252.95,18.77,253,17.94Z"/><path d="M279.08,25a4.33,4.33,0,0,0-.64.48,1.25,1.25,0,0,0-.32.6,12.11,12.11,0,0,0-.09,1.24q-.18,3.27-.46,9.8l-.14,2.76a1,1,0,0,1-.6.87,10,10,0,0,1-1.08.41q-.58.18-1.31.35l-1.1.25a.88.88,0,0,1-.57,0,1.39,1.39,0,0,1-.39-.55,2.06,2.06,0,0,0-.32-.51,1.85,1.85,0,0,1-.28-1.33l.41-5.24q.37-5.06.51-7.59.14-1.56.32-4.69.37-3.82.51-6,0-.92,0-2.76c0-.18,0-.56,0-1.13s0-1,.07-1.31a1.23,1.23,0,0,0-.37-1.06.66.66,0,0,1-.37-.78.78.78,0,0,1,.64-.64q.46-.09,1.27-.3l1.47-.37,1.26-.3a24.92,24.92,0,0,1,4.69-.46,6.84,6.84,0,0,1,3,.78,3.92,3.92,0,0,1,1.56,1.79,7.62,7.62,0,0,1,.51,5.7,10.42,10.42,0,0,1-2.44,4.46q-.37.41-1,1.22t-.74.94q-.18.23-.64.69a1.3,1.3,0,0,0-.46,1.33l.48,2.23q.39,1.82.62,2.83t2.07,8.65q.09.28.35,1.1t.34,1.29a1.7,1.7,0,0,1-.16,1.31,1.29,1.29,0,0,1-.94.71.29.29,0,0,1-.37-.09,2.47,2.47,0,0,1-.92-1.38q-.28-1.66-.67-3.45t-.92-4q-.53-2.23-.76-3.38-.18-.83-.6-2.32t-.55-2l-.28-.6A4.29,4.29,0,0,1,279.08,25Zm-.6-2.37.6-.41a5.31,5.31,0,0,0,.69-.55,33,33,0,0,0,4.37-5,9.39,9.39,0,0,0,1.52-5.06q.14-2.53-2.21-2.85-.69,0-4,0a2.2,2.2,0,0,0-.55.23,4,4,0,0,1,.35,1,8.64,8.64,0,0,1-.07,1.2.63.63,0,0,0,0,.28v.28q-.37,4.6-.51,6.85-.14,1.29-.32,3.86A.75.75,0,0,1,278.48,22.59Z"/><path d="M297,20.52q.3-1.06.44-1.61.41-1.79,1.13-5.13t1-4.71q.37-1.75.55-2.67a1.31,1.31,0,0,1,1-1.2,3.54,3.54,0,0,1,3,.74,2.64,2.64,0,0,1,.46.32l.37.32a1.81,1.81,0,0,1,.64,2.07q-1.61,6.16-2.21,9-.23,1.15-.55,2.42t-.74,2.81q-.41,1.54-.64,2.37-.51,2.07-2,8.19-.18.83-.53,2.51t-.53,2.51l-.69,2.81q-.18.46-.37.46a3.93,3.93,0,0,1-1.33.18,22.8,22.8,0,0,1-2.94-.51q-.37-.09-.62-.81a2.19,2.19,0,0,1-.12-1.26l1.52-6.35q.51-2.07,1.52-6.3a4.44,4.44,0,0,0,0-1.79l-1.24-4.28q-.28-1.06-.83-3.08t-.83-3.08a.62.62,0,0,0,0-.14.61.61,0,0,1,0-.14q-.28-.74-.85-2.21t-.85-2.21c-.15-.4-.28-.75-.37-1.06a1.21,1.21,0,0,1,.46-1.43q.55-.41,1.06.32a3.15,3.15,0,0,1,.55,1q.41,1.24,1.33,3.73a21.79,21.79,0,0,1,.76,2.42q.44,1.63.48,1.77.46,1.66,1.38,4.88a2.06,2.06,0,0,0,.23.41Q296.74,21.57,297,20.52Z"/><path d="M335.52,17.8A18,18,0,0,1,332.85,22a14.5,14.5,0,0,1-1.08,1.15q-.62.6-1,.9t-1.24,1l-1.08.83q-.51.46-1.29,1.06a1.2,1.2,0,0,0-.41,1q-.23,3-.23,3.59,0,.87,0,2.62t0,2.62q0,1.15-.09,3.27a.58.58,0,0,1-.32.6,3.33,3.33,0,0,1-.83.32l-1.17.25-1.13.25-.18,0-.18,0H322l-.18,0a.29.29,0,0,1-.21-.09.77.77,0,0,0-.16-.16.64.64,0,0,1-.18-.25l-.16-.39a3.66,3.66,0,0,1-.32-2.07q0-.73.07-2.09t0-1.77q0-2.21,0-3.36l.41-6.07q.23-3.31.28-6.53V16.79q0-.92.07-2.76t.12-2.76V9.89a.67.67,0,0,0-.51-.74L320.85,9a.68.68,0,0,1-.35-.6.59.59,0,0,1,.3-.6,3.13,3.13,0,0,1,.55-.23,17.78,17.78,0,0,1,4.6-.87q2.25-.09,2.9,0a6.36,6.36,0,0,1,2.9.74,3.21,3.21,0,0,0,.46.23,4.29,4.29,0,0,1,2.94,2.21q.14.28.6,1.47a11.75,11.75,0,0,1,.64,2.94A8.59,8.59,0,0,1,335.52,17.8Zm-7.64,5.8a21,21,0,0,0,3.22-3.08,15,15,0,0,0,3.13-5.8,4.55,4.55,0,0,0,0-2.71,11.26,11.26,0,0,0-.37-1.1,2.12,2.12,0,0,0-1.06-1.29q-2-.87-2.3-1t-2.16-.32a.55.55,0,0,0-.51.11,1,1,0,0,0-.14.62v.69q-.09,1.2-.25,3.56t-.21,3.52q-.14,2.3-.23,6.81v.12a.25.25,0,0,0,0,.11.73.73,0,0,1,0,.14.74.74,0,0,1,0,.18A8.8,8.8,0,0,0,327.88,23.6Z"/><path d="M346.47,25a4.3,4.3,0,0,0-.64.48,1.25,1.25,0,0,0-.32.6,12.25,12.25,0,0,0-.09,1.24q-.18,3.27-.46,9.8l-.14,2.76a1,1,0,0,1-.6.87,10,10,0,0,1-1.08.41q-.58.18-1.31.35l-1.1.25a.88.88,0,0,1-.57,0,1.39,1.39,0,0,1-.39-.55,2,2,0,0,0-.32-.51,1.85,1.85,0,0,1-.28-1.33l.41-5.24q.37-5.06.51-7.59.14-1.56.32-4.69.37-3.82.51-6,0-.92,0-2.76c0-.18,0-.56,0-1.13s0-1,.07-1.31a1.23,1.23,0,0,0-.37-1.06.66.66,0,0,1-.37-.78.78.78,0,0,1,.64-.64q.46-.09,1.26-.3l1.47-.37,1.26-.3a24.92,24.92,0,0,1,4.69-.46,6.84,6.84,0,0,1,3,.78,3.92,3.92,0,0,1,1.56,1.79,7.63,7.63,0,0,1,.51,5.7,10.42,10.42,0,0,1-2.44,4.46q-.37.41-1,1.22t-.74.94q-.18.23-.64.69a1.3,1.3,0,0,0-.46,1.33l.48,2.23q.39,1.82.62,2.83t2.07,8.65q.09.28.35,1.1t.34,1.29a1.71,1.71,0,0,1-.16,1.31,1.29,1.29,0,0,1-.94.71.29.29,0,0,1-.37-.09,2.48,2.48,0,0,1-.92-1.38q-.28-1.66-.67-3.45t-.92-4q-.53-2.23-.76-3.38-.18-.83-.6-2.32t-.55-2l-.28-.6A4.3,4.3,0,0,1,346.47,25Zm-.6-2.37.6-.41a5.32,5.32,0,0,0,.69-.55,33.05,33.05,0,0,0,4.37-5A9.39,9.39,0,0,0,353,11.55q.14-2.53-2.21-2.85-.69,0-4,0a2.21,2.21,0,0,0-.55.23,4,4,0,0,1,.34,1,8.61,8.61,0,0,1-.07,1.2.63.63,0,0,0,0,.28v.28q-.37,4.6-.51,6.85-.14,1.29-.32,3.86A.74.74,0,0,1,345.87,22.59Z"/><path d="M358.33,30.13q-.46-4-.51-4.65a25.35,25.35,0,0,1,1.38-10.63,16.22,16.22,0,0,1,2.25-4.37q.23-.23.67-.71L362.8,9a2.66,2.66,0,0,0,.74-1,.56.56,0,0,1,.37-.41l.83-.16a7.78,7.78,0,0,0,.83-.21,2.44,2.44,0,0,1,1.08-.07l1.06.12q.3,0,1.06.23t1.08.23A4.43,4.43,0,0,1,373,10.21a41.9,41.9,0,0,1,3,8.1,26.31,26.31,0,0,1,.41,9.57q-.46,3.31-.6,4a13.37,13.37,0,0,1-.69,2.44q-.74,2.12-1.15,3.13A5.71,5.71,0,0,1,371.67,40l-1.2.64q-.78.41-1.15.64t-.6.18l-1.31,0q-1.17,0-1.31-.14a5.81,5.81,0,0,0-1.93-.32,3.63,3.63,0,0,1-3.27-2.3q-.32-.69-1.52-3.5A36.8,36.8,0,0,1,358.33,30.13ZM369.81,14.4q-.39-.87-.92-1.93t-.8-1.66a1,1,0,0,0-.64-.64,7.08,7.08,0,0,0-1.79-.55,1.38,1.38,0,0,0-1,.23,6.73,6.73,0,0,0-2.48,2.85A21.28,21.28,0,0,0,360,19.55a31.58,31.58,0,0,0-.28,5.57q.32,3.54,1.06,7.41a26.92,26.92,0,0,0,1.7,5.11q.55,1.15,1.43,1.1h1.43a1.74,1.74,0,0,0,.69-.09,6.28,6.28,0,0,0,3.63-3.5A38.74,38.74,0,0,0,371,30.91q0-.14.55-3.4a23.38,23.38,0,0,0,0-6.07,20.2,20.2,0,0,0-1.2-5.34A8.93,8.93,0,0,0,369.81,14.4Z"/><path d="M380.28,10.12l-.64.09A.93.93,0,0,1,379,10a.6.6,0,0,1-.41-.51c0-.09.14-.28.41-.55a5.56,5.56,0,0,1,1-.46,8.78,8.78,0,0,0,1.66-.87,2.83,2.83,0,0,1,1.75-.55,51.54,51.54,0,0,1,6.67.14,4.37,4.37,0,0,1,2.25,1c.18.15.49.38.92.67s.74.51.92.67a6,6,0,0,1,1.43,2.35,11,11,0,0,1,.51,5.89,15.93,15.93,0,0,1-1.52,4.74q-.51.92-2.35,5.52a35.94,35.94,0,0,1-2.62,5.34l-2.9,4.74q-.78,1.29-1.89,2.9a.59.59,0,0,1-.6.37,2.85,2.85,0,0,0-.44-.09l-.46-.07A.82.82,0,0,1,383,41a.93.93,0,0,1-.3-.39l-.41-.18-.67,0a5.24,5.24,0,0,1-.67-.07q-1.2-.09-1.06-1.43,0-.69.16-2t.16-2q0-.6.09-1.63t.09-1.91q0-.87.09-1.66.09-1.1.23-3.31t.23-3.31q.18-3.5.23-5.52,0-2.35,0-7a3.51,3.51,0,0,0,0-.64Q380.83,10,380.28,10.12Zm5.7,25,.23-.28q.55-1,.83-1.47a46.7,46.7,0,0,0,3.73-7.54q.18-.55,2.21-5a12.4,12.4,0,0,0,1.29-6.49q-.14-3.63-3.91-5.24a9.62,9.62,0,0,0-2.62-.32q-.55,0-.71.14a1.38,1.38,0,0,0-.16.83q-.09,2.07-.18,6.3,0,.83,0,2.44t-.09,2.44q0,1.06-.23,3.22t-.23,3.27q-.28,4.88-.41,7.27a2.56,2.56,0,0,0,0,.78Z"/><path d="M399.5,17.94q.14-3.45.51-9.84,0-1,.69-1a1.05,1.05,0,0,1,.71.41,1.17,1.17,0,0,1,.25.87L401.53,10q-.09,1.08-.14,1.63a5.6,5.6,0,0,0-.09.87q-.09,10.35-.09,12.42t.28,6.62q0,.32.37,1.7a10,10,0,0,0,.32,1.2,7.65,7.65,0,0,0,.32,1.06q.46,1,1.29.78A5.2,5.2,0,0,0,407.55,32l.12-.46q.07-.28.12-.53a2.73,2.73,0,0,0,0-.48q.55-3.77.78-5.7.55-5.75.64-7.13.23-3.17.32-7.22a10.65,10.65,0,0,0-.09-1.7,2.15,2.15,0,0,1,1.2-2.35,1.66,1.66,0,0,1,1.43-.09,4.55,4.55,0,0,0,.92.18,2.76,2.76,0,0,1,2.48,3.08q-.14,2.94-.51,9.34-.46,5.89-.74,9.2a40.46,40.46,0,0,1-.64,4.42q0,.32-1.1,3.54l-.39.87a6.66,6.66,0,0,0-.34.87,8.56,8.56,0,0,1-2.48,3.08,5.64,5.64,0,0,1-4.65,1.38,3.29,3.29,0,0,1-1.93-1q-1.93-1.89-2.76-6.12,0-.41-.18-2.53-.09-1.66-.23-4.88t-.18-4.88h.09Q399.46,18.77,399.5,17.94Z"/><path d="M417.67,28.57a65.22,65.22,0,0,1,1.47-11.45,17.27,17.27,0,0,1,1.7-5.06,24.85,24.85,0,0,1,1.93-3.31,5.23,5.23,0,0,1,3.31-2.12,2.09,2.09,0,0,1,1.43.09.19.19,0,0,1,.12.07l.14.16.12.14-.12.14-.14.16a.19.19,0,0,1-.12.07l-.6.11-.6.12a4.45,4.45,0,0,0-2.48,2,10.11,10.11,0,0,0-.69,1.22q-.32.67-.69,1.59t-.55,1.33a9.24,9.24,0,0,0-.87,2.85q-.41,2.72-1,7.36,0,.09-.28,2.44a18.22,18.22,0,0,0,.23,4,7,7,0,0,0,1.84,3.45,2.71,2.71,0,0,0,2.3.74,6.25,6.25,0,0,0,2-.69,7.31,7.31,0,0,0,1.61-1.33,43,43,0,0,0,4.46-7l.28-.55q.32-.73,1-.46a.83.83,0,0,1,.23.09,1.53,1.53,0,0,1,.78.55,2.31,2.31,0,0,1,0,1.1A12.26,12.26,0,0,1,433,31.05q-2,3.4-2.71,4.55a12.47,12.47,0,0,1-5,4.51,3.93,3.93,0,0,1-4.6-.64,6.7,6.7,0,0,1-2-2.81.82.82,0,0,0-.23-.37A2.26,2.26,0,0,1,418,35c-.06-.55-.12-1-.18-1.24v0Q417.67,31.79,417.67,28.57Z"/><path d="M443.11,38.64l2.62-.39,2.62-.39h.18q.92-.09,1.15.14t.14,1.15a.62.62,0,0,1-.46.74l-.28,0-.28,0a45.31,45.31,0,0,0-5.66.74,7.06,7.06,0,0,1-1.22.12,8,8,0,0,0-1,.07q-1.2,0-1.84,0a1.58,1.58,0,0,1-1.79-1.38,3.1,3.1,0,0,1-.09-1.52q.6-3.73.92-8.51,0-.87.11-2.58t.12-2.53.41-6.12q0-1.43.23-4.28.14-1.75.32-5.24a1.19,1.19,0,0,1,.41-.83,3.92,3.92,0,0,1,2-.78l2-.16L446,6.81a6.8,6.8,0,0,1,.9,0,10.31,10.31,0,0,0,1,0,4,4,0,0,0,.87-.18h.41a1.9,1.9,0,0,1,.8.21,1.53,1.53,0,0,1,.12.8,1.83,1.83,0,0,1-.14.94q-.14.16-.92.21-2.39.09-3.59.18a.92.92,0,0,0-.58.18,1.47,1.47,0,0,0-.16.69l-.55,6.62s0,.89-.14,2.58l-.14,2.9q0,.64.14.76t.74,0l2.67-.28a1,1,0,0,1,.64.07,1.46,1.46,0,0,1,.28.67,1.54,1.54,0,0,1,.09.37q0,.64-.51.69t-1.75.18q-1.38.09-2,.18c-.34.06-.51.32-.51.78s-.06,1-.09,1.7,0,1.3,0,1.7q-.46,5.84-.64,6.81-.09.55-.21,1.7t-.16,1.38A1.26,1.26,0,0,0,443.11,38.64Z"/><path d="M454,10.12l-.64.09a.93.93,0,0,1-.6-.18.6.6,0,0,1-.41-.51c0-.09.14-.28.41-.55a5.56,5.56,0,0,1,1-.46,8.78,8.78,0,0,0,1.66-.87,2.83,2.83,0,0,1,1.75-.55,51.54,51.54,0,0,1,6.67.14,4.37,4.37,0,0,1,2.25,1c.18.15.49.38.92.67s.74.51.92.67a6,6,0,0,1,1.43,2.35,11,11,0,0,1,.51,5.89,15.93,15.93,0,0,1-1.52,4.74q-.51.92-2.35,5.52a35.94,35.94,0,0,1-2.62,5.34l-2.9,4.74q-.78,1.29-1.89,2.9a.59.59,0,0,1-.6.37,2.85,2.85,0,0,0-.44-.09l-.46-.07a.82.82,0,0,1-.37-.18.93.93,0,0,1-.3-.39l-.41-.18-.67,0a5.24,5.24,0,0,1-.67-.07q-1.2-.09-1.06-1.43,0-.69.16-2t.16-2q0-.6.09-1.63t.09-1.91q0-.87.09-1.66.09-1.1.23-3.31t.23-3.31q.18-3.5.23-5.52,0-2.35,0-7a3.51,3.51,0,0,0,0-.64Q454.56,10,454,10.12Zm5.7,25,.23-.28q.55-1,.83-1.47a46.7,46.7,0,0,0,3.73-7.54q.18-.55,2.21-5A12.4,12.4,0,0,0,468,14.35q-.14-3.63-3.91-5.24a9.62,9.62,0,0,0-2.62-.32q-.55,0-.71.14a1.38,1.38,0,0,0-.16.83q-.09,2.07-.18,6.3,0,.83,0,2.44t-.09,2.44q0,1.06-.23,3.22t-.23,3.27q-.28,4.88-.41,7.27a2.56,2.56,0,0,0,0,.78Z"/><path d="M490.44,13.11q0-1.06,0-1.61v-.64a1.46,1.46,0,0,0-.21-.78.81.81,0,0,0-.62-.18h-3a7,7,0,0,1-.92,0,.73.73,0,0,1-.53-.44,1.26,1.26,0,0,1-.16-.76.73.73,0,0,1,.78-.74q.51,0,1.45,0L489,8l1.47,0a13.51,13.51,0,0,0,3.08-.23A23.36,23.36,0,0,1,499,7.36q.83,0,2.35-.09t2-.09a1.2,1.2,0,0,1,1.2,1.06q.14.55-.28.69L504,9l-.23,0-6.26.14h-.37c-.46,0-.74.12-.85.28a2.1,2.1,0,0,0-.07,1.15,6,6,0,0,1,0,.87q-.09,1.84-.18,2.76t-.23,2.67q0,.51-.14,1.43T495.48,20q-.07.74-.12,1.43-.37,5.29-.51,7.68-.23,3.13-.46,5.61T494.17,38q0,.23,0,.74c0,.34,0,.6,0,.78a1,1,0,0,1-.55.87,6.53,6.53,0,0,1-1.54.37q-1,.14-1.36.23a2.33,2.33,0,0,1-1.1-.14q-.87-.28-.78-1.52.09-1.06.41-4.16t.46-5.22q.23-2.85.51-8.74,0-.92.14-2.78t.14-2.78v-1h0Q490.4,14.17,490.44,13.11Z"/><path d="M515.1,30.25q.09-3.2.14-4.76a1.29,1.29,0,0,0-.12-.67q-.12-.16-.53-.16a22.41,22.41,0,0,1-3-.18q-.78-.14-.83.64-.41,5.7-.51,7,0,.74-.18,2.21t-.18,2.21a6.76,6.76,0,0,0,0,1.29l0,1.29a1.5,1.5,0,0,1-.12.55,1.34,1.34,0,0,1-.53.23,30.4,30.4,0,0,1-3.59.55,1.43,1.43,0,0,1-1.13-.41,1.33,1.33,0,0,1-.44-1.1q.28-5.8.28-5.89.46-6.72.64-9.75l.41-5.38q.09-.83.23-2.39t.18-2.39q0-.51.18-1.5t.18-1.45q.09-1.47.09-2.25a1.11,1.11,0,0,1,.87-1.1,6.52,6.52,0,0,1,3.54.18l.32.09a2.08,2.08,0,0,1,1,.6,2.4,2.4,0,0,1,.12,1.15q0,.78-.21,2.23t-.21,1.68q-.09,1.15-.3,3.38t-.3,3.24q0,.55-.18,2.58a1,1,0,0,0,.07.62.94.94,0,0,0,.58.25,21.12,21.12,0,0,0,3.08.14q.64,0,.69-.55a21.73,21.73,0,0,0,.14-2.39q0-1.24.16-3.7t.16-3.7q0-.78,0-2.28t0-2.28a1.82,1.82,0,0,1,0-.51.6.6,0,0,1,.44-.57.72.72,0,0,1,.71.16,2.69,2.69,0,0,1,1.06,2.16q-.09,1.24-.12,3.47t-.07,3.1l-.28,5.52c0,.18,0,.46,0,.83s0,.64,0,.83q0,1-.09,3.06t-.09,3.06.14,8.1q0,.28,0,1a6.88,6.88,0,0,0,0,1.13.86.86,0,0,1-.55.74,1.39,1.39,0,0,1-1.47-.09,1.58,1.58,0,0,1-.55-1.43,12,12,0,0,0,.14-1.79q0-.6-.09-1.79a0,0,0,0,0,0,0Q515,33.44,515.1,30.25Z"/><path d="M526.6,38.64l2.62-.39,2.62-.39H532q.92-.09,1.15.14c.15.15.2.54.14,1.15a.61.61,0,0,1-.46.74l-.28,0-.28,0a45.37,45.37,0,0,0-5.66.74,7,7,0,0,1-1.22.12,8,8,0,0,0-1,.07q-1.2,0-1.84,0a1.58,1.58,0,0,1-1.79-1.38,3.12,3.12,0,0,1-.09-1.52q.6-3.73.92-8.51,0-.87.12-2.58t.12-2.53.41-6.12q0-1.43.23-4.28.14-1.75.32-5.24a1.19,1.19,0,0,1,.41-.83,3.91,3.91,0,0,1,2-.78l2-.16,2.32-.16a6.79,6.79,0,0,1,.9,0,10.31,10.31,0,0,0,1,0,4,4,0,0,0,.88-.18h.41a1.9,1.9,0,0,1,.8.21,1.53,1.53,0,0,1,.12.8,1.84,1.84,0,0,1-.14.94q-.14.16-.92.21-2.39.09-3.59.18a.91.91,0,0,0-.57.18,1.45,1.45,0,0,0-.16.69l-.55,6.62s0,.89-.14,2.58l-.14,2.9c0,.43,0,.68.14.76s.34.08.74,0l2.67-.28a1,1,0,0,1,.64.07,1.44,1.44,0,0,1,.28.67,1.54,1.54,0,0,1,.09.37q0,.64-.51.69t-1.75.18q-1.38.09-2,.18c-.34.06-.51.32-.51.78s-.06,1-.09,1.7,0,1.3,0,1.7q-.46,5.84-.64,6.81-.09.55-.21,1.7c-.08.77-.13,1.23-.16,1.38A1.26,1.26,0,0,0,526.6,38.64Z"/><path d="M59.09,77.6a9.38,9.38,0,0,1,1.52-.18q1,0,.74,1.06-.32,1.29-1.47,1.15-.23,0-1.84.23-.51,0-.51.64,0,3.77-.23,11.55,0,.46,0,1.4t0,1.4a1.58,1.58,0,0,1-.09.64.6.6,0,0,1-.21.25,2.47,2.47,0,0,1-.62.16,11.71,11.71,0,0,1-1.89.18q-1.24,0-1.61.09a.6.6,0,0,1-.74-.37,4.22,4.22,0,0,1-.46-1.7q0-.87,0-2.67t0-2.71q.37-10.9.37-12.33,0-.83.18-5.93L52.83,64q.09-.78.51-.92a11.86,11.86,0,0,1,1.2-.37l.9,0c.41,0,.73,0,.94,0A10.86,10.86,0,0,0,58,62.7a8.07,8.07,0,0,0,1-.09,8.46,8.46,0,0,1,.85-.09q.46-.09,1.47-.18l.6-.09.41,0q.09,0,1.43-.28a4.92,4.92,0,0,1,1.1-.09.53.53,0,0,1,.37.09q.23.09.14.69a2.23,2.23,0,0,0,0,.74q.09.37-.37.46L64,64l-1.13.16q-2.44.18-3.5.32a1.59,1.59,0,0,0-.83.28,1.49,1.49,0,0,0-.23.87q0,1.15-.21,3.54t-.25,3.63q-.14,2.07-.14,4c0,.09,0,.23,0,.41s0,.34,0,.46Q58.76,77.6,59.09,77.6Z"/><path d="M75,66.33a43.7,43.7,0,0,0-.46,6.53l-.14,7.87v5.15q0,1-.09,2.88t-.09,2.88q0,.46,0,1.38t0,1.38a1.15,1.15,0,0,1-.11.64,1.59,1.59,0,0,1-.53.32,8.18,8.18,0,0,1-2.16.55q-.6,0-1.75,0a.49.49,0,0,1-.46-.23,3.53,3.53,0,0,1-.51-1.89q0-.32.07-1t0-1q0-1.15.18-13.66,0-4.14.28-8.37,0-.83.18-2.55t.18-2.6q0-.6,0-1.79a1.17,1.17,0,0,1,.87-1.29,2.9,2.9,0,0,1,1.56-.18,5.73,5.73,0,0,1,2.25.69,1.86,1.86,0,0,1,.85.62A3,3,0,0,1,75.32,64Q75.14,65.55,75,66.33Z"/><path d="M85.4,80.16a4.33,4.33,0,0,0-.64.48,1.25,1.25,0,0,0-.32.6,12.11,12.11,0,0,0-.09,1.24q-.18,3.27-.46,9.8L83.74,95a1,1,0,0,1-.6.87,10,10,0,0,1-1.08.41q-.58.18-1.31.35l-1.1.25a.88.88,0,0,1-.57,0,1.39,1.39,0,0,1-.39-.55,2.06,2.06,0,0,0-.32-.51,1.85,1.85,0,0,1-.28-1.33l.41-5.24q.37-5.06.51-7.59.14-1.56.32-4.69.37-3.82.51-6,0-.92,0-2.76c0-.18,0-.56,0-1.13s0-1,.07-1.31a1.23,1.23,0,0,0-.37-1.06.66.66,0,0,1-.37-.78.78.78,0,0,1,.64-.64q.46-.09,1.27-.3l1.47-.37,1.26-.3a24.92,24.92,0,0,1,4.69-.46,6.84,6.84,0,0,1,3,.78,3.92,3.92,0,0,1,1.56,1.79,7.62,7.62,0,0,1,.51,5.7,10.42,10.42,0,0,1-2.44,4.46q-.37.41-1,1.22t-.74.94q-.18.23-.64.69a1.3,1.3,0,0,0-.46,1.33l.48,2.23q.39,1.82.62,2.83t2.07,8.65q.09.28.35,1.1t.34,1.29A1.7,1.7,0,0,1,92,96.26a1.29,1.29,0,0,1-.94.71.29.29,0,0,1-.37-.09,2.47,2.47,0,0,1-.92-1.38q-.28-1.66-.67-3.45t-.92-4q-.53-2.23-.76-3.38-.18-.83-.6-2.32t-.55-2l-.28-.6A4.29,4.29,0,0,1,85.4,80.16Zm-.6-2.37.6-.41a5.31,5.31,0,0,0,.69-.55,33,33,0,0,0,4.37-5A9.39,9.39,0,0,0,92,66.75q.14-2.53-2.21-2.85-.69,0-4,0a2.2,2.2,0,0,0-.55.23,4,4,0,0,1,.35,1,8.64,8.64,0,0,1-.07,1.2.63.63,0,0,0,0,.28v.28q-.37,4.6-.51,6.85-.14,1.29-.32,3.86A.75.75,0,0,1,84.8,77.79Z"/><path d="M114.52,79.35a6.26,6.26,0,0,1,.14,1,8.12,8.12,0,0,0,.09.87,30.88,30.88,0,0,1-1.29,7.31,9.73,9.73,0,0,1-.46,1.13,8.63,8.63,0,0,1-.48.9l-.67,1q-.46.69-.6.87a12.82,12.82,0,0,1-3.63,3.63l-.09,0a4.33,4.33,0,0,1-1,.48,9.43,9.43,0,0,1-1.77.35,6.79,6.79,0,0,1-2.74-.35A11.72,11.72,0,0,1,98.74,95a9.29,9.29,0,0,1-1.47-3.06,12.92,12.92,0,0,1-.55-2.87V87.91l.14-.69a12.5,12.5,0,0,1,.46-1.56q.28-.69,1-.28c.21.09.32.21.32.37l0,.18q0,.14-.14.48a5.56,5.56,0,0,0-.14.67,5.32,5.32,0,0,0-.14,2.48,5.15,5.15,0,0,0,4.65,5.06,3.48,3.48,0,0,0,2.9-.57,4.73,4.73,0,0,0,1.61-2.58,18.43,18.43,0,0,0,.6-3.24A22.51,22.51,0,0,0,108,85a13.45,13.45,0,0,0-.18-2.3l-.14-.69q-.87-3.73-3.73-4.51L101.87,77A4.52,4.52,0,0,1,99,72.59a10.74,10.74,0,0,1,.74-3.5A12.39,12.39,0,0,1,101.36,66,7.49,7.49,0,0,1,105.68,63a23.6,23.6,0,0,1,2.9-.55,5.37,5.37,0,0,1,3.27,1,5.8,5.8,0,0,1,1.61,1.33,2.06,2.06,0,0,1,.23.41q.09.46,0,.55a.45.45,0,0,1-.41.23,1.56,1.56,0,0,1-.6-.41,8.2,8.2,0,0,0-2.25-1.43,3.91,3.91,0,0,0-3.08,0,10.36,10.36,0,0,0-2.76,1.24,6.87,6.87,0,0,0-2.76,3.4,10.86,10.86,0,0,0-1,2.94,2.48,2.48,0,0,0-.09.51,1.73,1.73,0,0,0,.25,1.22,1,1,0,0,0,.94.25,24.88,24.88,0,0,1,3.31-.14q.46,0,1.59-.09a11.85,11.85,0,0,1,1.73,0,5.51,5.51,0,0,1,4.19,2.25A8.23,8.23,0,0,1,114.52,79.35Z"/><path d="M122.89,68.31q0-1.06,0-1.61v-.64a1.47,1.47,0,0,0-.21-.78.81.81,0,0,0-.62-.18h-3a6.94,6.94,0,0,1-.92,0,.73.73,0,0,1-.53-.44,1.26,1.26,0,0,1-.16-.76.73.73,0,0,1,.78-.74q.51,0,1.45,0l1.73.07,1.47,0A13.52,13.52,0,0,0,126,63a23.35,23.35,0,0,1,5.38-.46q.83,0,2.35-.09t2-.09a1.19,1.19,0,0,1,1.2,1.06q.14.55-.28.69l-.23,0-.23,0-6.26.14h-.37q-.69,0-.85.28a2.1,2.1,0,0,0-.07,1.15,6,6,0,0,1,0,.87q-.09,1.84-.18,2.76t-.23,2.67q0,.51-.14,1.43t-.16,1.66q-.07.74-.11,1.43-.37,5.29-.51,7.68-.23,3.13-.46,5.61t-.23,3.36q0,.23,0,.74c0,.34,0,.6,0,.78a1,1,0,0,1-.55.87,6.54,6.54,0,0,1-1.54.37q-1,.14-1.36.23a2.34,2.34,0,0,1-1.1-.14q-.87-.28-.78-1.52.09-1.06.41-4.16t.46-5.22q.23-2.85.51-8.74l.14-2.78.14-2.78v-1h0Q122.84,69.37,122.89,68.31Z"/><path d="M161.48,75.85a3.34,3.34,0,0,1,1.66.18l.25.09a1,1,0,0,0,.25,0,3.16,3.16,0,0,1,2.67,1.75,9,9,0,0,1,1.24,3.22s0,.11,0,.23a2.5,2.5,0,0,1,0,.28A17.19,17.19,0,0,1,166.36,87a16.11,16.11,0,0,1-1.75,2.76A16.43,16.43,0,0,1,158,94.85q-.41.23-1.22.58l-1.08.48a2.28,2.28,0,0,1-2.58-.23l-.14-.14q-1-.28-.87-1.52.14-6.95.09-8.37,0-1.61-.23-9.75v-.37q-.09-3.22-.18-9.57a9.78,9.78,0,0,0,0-1.1,1.63,1.63,0,0,1,.28-1.1,2,2,0,0,1,1.43-.92l2.25-.14a19.32,19.32,0,0,1,2.3-.14,22.3,22.3,0,0,1,2.39.18c.15,0,.38,0,.67,0s.51,0,.67,0a3.55,3.55,0,0,1,2,.8A3.1,3.1,0,0,1,165,65.37a7,7,0,0,1-1.15,6.07,33.93,33.93,0,0,1-3.08,3.82,1.84,1.84,0,0,0-.32.51Q161.25,75.86,161.48,75.85Zm-3.91-.18c.09-.09.29-.26.6-.51a27.78,27.78,0,0,0,4.19-5.06,6.06,6.06,0,0,0,1.06-3.82A1.61,1.61,0,0,0,162,64.68a15.7,15.7,0,0,0-3.86-.41.62.62,0,0,0-.69.64q-.14,2.21-.14,2.3v7.64c0,.09,0,.22,0,.39s0,.3,0,.39A.27.27,0,0,1,157.57,75.67Zm.55,17,.51-.28a15.84,15.84,0,0,0,5.11-4.88,10.21,10.21,0,0,0,1.38-3q.14-.55.46-2.07a5.55,5.55,0,0,0-.74-3.77,2.49,2.49,0,0,0-1.1-1,10.53,10.53,0,0,0-5.29-.14,1.15,1.15,0,0,0-.76.37,1.57,1.57,0,0,0-.21.92q.14,3.59.14,3.63,0,.92,0,2.69t0,2.65q0,1.52,0,4.46s0,.26.09.69A4.61,4.61,0,0,0,158.12,92.69Z"/><path d="M170.91,85.33q-.46-4-.51-4.65a25.36,25.36,0,0,1,1.38-10.63A16.2,16.2,0,0,1,174,65.69q.23-.23.67-.71l.67-.76a2.66,2.66,0,0,0,.74-1,.57.57,0,0,1,.37-.41l.83-.16a7.77,7.77,0,0,0,.83-.21,2.43,2.43,0,0,1,1.08-.07l1.06.12q.3,0,1.06.23t1.08.23a4.43,4.43,0,0,1,3.17,2.48,41.9,41.9,0,0,1,3,8.1,26.32,26.32,0,0,1,.41,9.57q-.46,3.31-.6,4a13.36,13.36,0,0,1-.69,2.44q-.74,2.12-1.15,3.13a5.72,5.72,0,0,1-2.35,2.58l-1.2.64q-.78.41-1.15.64t-.6.18l-1.31,0q-1.17,0-1.31-.14a5.81,5.81,0,0,0-1.93-.32,3.63,3.63,0,0,1-3.27-2.3q-.32-.69-1.52-3.5A36.8,36.8,0,0,1,170.91,85.33ZM182.39,69.6q-.39-.87-.92-1.93t-.8-1.66a1,1,0,0,0-.64-.64,7.07,7.07,0,0,0-1.79-.55,1.38,1.38,0,0,0-1,.23,6.74,6.74,0,0,0-2.48,2.85,21.28,21.28,0,0,0-2.12,6.85,31.62,31.62,0,0,0-.28,5.57q.32,3.54,1.06,7.41a27,27,0,0,0,1.7,5.11q.55,1.15,1.43,1.1h1.43a1.74,1.74,0,0,0,.69-.09,6.28,6.28,0,0,0,3.63-3.5,38.63,38.63,0,0,0,1.29-4.23q0-.14.55-3.4a23.37,23.37,0,0,0,0-6.07A20.22,20.22,0,0,0,183,71.3,9,9,0,0,0,182.39,69.6Z"/><path d="M199.57,69.92q1.2-2.85,3.68-8.46.55-1.33,1.7-.92a5,5,0,0,1,2.16,1.66l.44.46q.3.32.44.51a1.8,1.8,0,0,1,.18,2.12,12.57,12.57,0,0,1-.92,1.61A53,53,0,0,0,204.86,72q-1.15,2.67-3.36,8.19a2,2,0,0,0,0,1.56q.69,1.89,2.9,6.39a28.19,28.19,0,0,1,2.16,5.15,12,12,0,0,1,.28,2.12q0,.87-.64.87a1.51,1.51,0,0,1-1.38-1.24A30.59,30.59,0,0,0,202.6,90q-.32-.74-1-2.37t-1.1-2.46a8.61,8.61,0,0,0-.41-.92l-.21.41-.16.32Q199,87.22,198,89.88q-.37,1.1-1.2,3.22-.23.51-.6,1.52t-.6,1.52q-.28.55-.44.62a1.08,1.08,0,0,1-.62-.07,5.56,5.56,0,0,1-1.43-.58l-1-.53a2.5,2.5,0,0,1-1.33-1.7,2.71,2.71,0,0,1,.18-1.56Q192.81,87.54,193,87q.78-2,2.19-5.84T197,76.31a2.67,2.67,0,0,0,0-1.89q-.28-.69-.76-2t-.9-2.42q-.41-1.06-.83-2l-.87-2.09q-.64-1.54-1-2.37a4.34,4.34,0,0,1-.32-1,1.34,1.34,0,0,1,.28-1.38.68.68,0,0,1,.6-.18.71.71,0,0,1,.55.37q.14.28.44.76a6.74,6.74,0,0,1,.48.92,4.75,4.75,0,0,1,.28.9,10.3,10.3,0,0,0,.37,1q1.29,2.81,2.81,6.81a7.81,7.81,0,0,1,.32.74Q199.34,70.38,199.57,69.92Z"/><path d="M223.72,85.33q-.46-4-.51-4.65a25.36,25.36,0,0,1,1.38-10.63,16.2,16.2,0,0,1,2.25-4.37q.23-.23.67-.71l.67-.76a2.66,2.66,0,0,0,.74-1,.57.57,0,0,1,.37-.41l.83-.16a7.77,7.77,0,0,0,.83-.21,2.43,2.43,0,0,1,1.08-.07l1.06.12q.3,0,1.06.23t1.08.23a4.43,4.43,0,0,1,3.17,2.48,41.9,41.9,0,0,1,3,8.1,26.32,26.32,0,0,1,.41,9.57q-.46,3.31-.6,4a13.36,13.36,0,0,1-.69,2.44q-.74,2.12-1.15,3.13a5.72,5.72,0,0,1-2.35,2.58l-1.2.64q-.78.41-1.15.64t-.6.18l-1.31,0q-1.17,0-1.31-.14a5.81,5.81,0,0,0-1.93-.32,3.63,3.63,0,0,1-3.27-2.3q-.32-.69-1.52-3.5A36.8,36.8,0,0,1,223.72,85.33ZM235.2,69.6q-.39-.87-.92-1.93t-.8-1.66a1,1,0,0,0-.64-.64,7.07,7.07,0,0,0-1.79-.55,1.38,1.38,0,0,0-1,.23,6.74,6.74,0,0,0-2.48,2.85,21.28,21.28,0,0,0-2.12,6.85,31.62,31.62,0,0,0-.28,5.57q.32,3.54,1.06,7.41a27,27,0,0,0,1.7,5.11q.55,1.15,1.43,1.1h1.43a1.74,1.74,0,0,0,.69-.09,6.28,6.28,0,0,0,3.63-3.5,38.63,38.63,0,0,0,1.29-4.23q0-.14.55-3.4a23.37,23.37,0,0,0,0-6.07,20.22,20.22,0,0,0-1.2-5.34A9,9,0,0,0,235.2,69.6Z"/><path d="M252.42,77.6a9.38,9.38,0,0,1,1.52-.18q1,0,.74,1.06-.32,1.29-1.47,1.15-.23,0-1.84.23-.51,0-.51.64,0,3.77-.23,11.55,0,.46,0,1.4t0,1.4a1.58,1.58,0,0,1-.09.64.6.6,0,0,1-.21.25,2.47,2.47,0,0,1-.62.16,11.71,11.71,0,0,1-1.89.18q-1.24,0-1.61.09a.6.6,0,0,1-.74-.37,4.22,4.22,0,0,1-.46-1.7q0-.87,0-2.67t0-2.71q.37-10.9.37-12.33,0-.83.18-5.93l.41-6.49q.09-.78.51-.92a11.86,11.86,0,0,1,1.2-.37l.9,0c.41,0,.73,0,.94,0a10.86,10.86,0,0,0,1.66-.09,8.07,8.07,0,0,0,1-.09,8.46,8.46,0,0,1,.85-.09q.46-.09,1.47-.18l.6-.09.41,0q.09,0,1.43-.28a4.92,4.92,0,0,1,1.1-.09.53.53,0,0,1,.37.09q.23.09.14.69a2.23,2.23,0,0,0,0,.74q.09.37-.37.46l-1,.16-1.13.16q-2.44.18-3.5.32a1.59,1.59,0,0,0-.83.28,1.49,1.49,0,0,0-.23.87q0,1.15-.21,3.54t-.25,3.63q-.14,2.07-.14,4c0,.09,0,.23,0,.41s0,.34,0,.46Q252.1,77.6,252.42,77.6Z"/><path d="M273.31,83.77a65.18,65.18,0,0,1,1.47-11.45,17.25,17.25,0,0,1,1.7-5.06,24.86,24.86,0,0,1,1.93-3.31,5.23,5.23,0,0,1,3.31-2.12,2.09,2.09,0,0,1,1.43.09.19.19,0,0,1,.12.07l.14.16.12.14-.12.14-.14.16a.19.19,0,0,1-.12.07l-.6.11-.6.12a4.45,4.45,0,0,0-2.48,2,10.11,10.11,0,0,0-.69,1.22q-.32.67-.69,1.59T277.54,69a9.24,9.24,0,0,0-.87,2.85q-.41,2.72-1,7.36,0,.09-.28,2.44a18.22,18.22,0,0,0,.23,4,6.94,6.94,0,0,0,1.84,3.45,2.71,2.71,0,0,0,2.3.74,6.25,6.25,0,0,0,2-.69,7.31,7.31,0,0,0,1.61-1.33,43,43,0,0,0,4.46-7l.28-.55q.32-.73,1-.46a.83.83,0,0,1,.23.09,1.54,1.54,0,0,1,.78.55,2.3,2.3,0,0,1,0,1.1,12.25,12.25,0,0,1-1.52,4.69q-2,3.4-2.71,4.55a12.47,12.47,0,0,1-5,4.51,3.94,3.94,0,0,1-4.6-.64,6.71,6.71,0,0,1-2-2.81.83.83,0,0,0-.23-.37,2.27,2.27,0,0,1-.46-1.29q-.09-.83-.18-1.24v0Q273.31,87,273.31,83.77Z"/><path d="M303.48,85.45l.14-4.76a1.29,1.29,0,0,0-.11-.67c-.08-.11-.25-.16-.53-.16a22.43,22.43,0,0,1-3-.18q-.78-.14-.83.64-.41,5.7-.51,7,0,.74-.18,2.21t-.18,2.21a6.87,6.87,0,0,0,0,1.29l0,1.29a1.48,1.48,0,0,1-.11.55,1.35,1.35,0,0,1-.53.23,30.4,30.4,0,0,1-3.59.55,1.43,1.43,0,0,1-1.13-.41,1.33,1.33,0,0,1-.44-1.1q.28-5.8.28-5.89.46-6.72.64-9.75l.41-5.38q.09-.83.23-2.39t.18-2.39q0-.51.18-1.5t.18-1.45q.09-1.47.09-2.25a1.11,1.11,0,0,1,.87-1.1,6.52,6.52,0,0,1,3.54.18l.32.09a2.09,2.09,0,0,1,1,.6,2.42,2.42,0,0,1,.11,1.15q0,.78-.21,2.23T300.08,68q-.09,1.15-.3,3.38l-.3,3.24q0,.55-.18,2.58a1,1,0,0,0,.07.62,1,1,0,0,0,.58.25,21.12,21.12,0,0,0,3.08.14q.64,0,.69-.55a21.73,21.73,0,0,0,.14-2.39q0-1.24.16-3.7t.16-3.7q0-.78,0-2.28t0-2.28a1.83,1.83,0,0,1,0-.51.6.6,0,0,1,.44-.57.72.72,0,0,1,.71.16,2.69,2.69,0,0,1,1.06,2.16q-.09,1.24-.12,3.47t-.07,3.1l-.28,5.52q0,.28,0,.83c0,.37,0,.64,0,.83q0,1-.09,3.06t-.09,3.06.14,8.1q0,.28,0,1a6.67,6.67,0,0,0,0,1.13.86.86,0,0,1-.55.74,1.39,1.39,0,0,1-1.47-.09,1.58,1.58,0,0,1-.55-1.43,12.11,12.11,0,0,0,.14-1.79q0-.6-.09-1.79a0,0,0,0,0,0,0Z"/><path d="M309.74,85.33q-.46-4-.51-4.65a25.35,25.35,0,0,1,1.38-10.63,16.22,16.22,0,0,1,2.25-4.37q.23-.23.67-.71l.67-.76a2.66,2.66,0,0,0,.74-1,.56.56,0,0,1,.37-.41l.83-.16a7.78,7.78,0,0,0,.83-.21,2.44,2.44,0,0,1,1.08-.07l1.06.12q.3,0,1.06.23t1.08.23a4.43,4.43,0,0,1,3.17,2.48,41.9,41.9,0,0,1,3,8.1,26.31,26.31,0,0,1,.41,9.57q-.46,3.31-.6,4a13.37,13.37,0,0,1-.69,2.44q-.74,2.12-1.15,3.13a5.71,5.71,0,0,1-2.35,2.58l-1.2.64q-.78.41-1.15.64t-.6.18l-1.31,0q-1.17,0-1.31-.14a5.81,5.81,0,0,0-1.93-.32,3.63,3.63,0,0,1-3.27-2.3q-.32-.69-1.52-3.5A36.8,36.8,0,0,1,309.74,85.33ZM321.21,69.6q-.39-.87-.92-1.93t-.8-1.66a1,1,0,0,0-.64-.64,7.08,7.08,0,0,0-1.79-.55,1.38,1.38,0,0,0-1,.23,6.73,6.73,0,0,0-2.48,2.85,21.28,21.28,0,0,0-2.12,6.85,31.58,31.58,0,0,0-.28,5.57q.32,3.54,1.06,7.41a26.92,26.92,0,0,0,1.7,5.11q.55,1.15,1.43,1.1h1.43a1.74,1.74,0,0,0,.69-.09,6.28,6.28,0,0,0,3.63-3.5,38.74,38.74,0,0,0,1.29-4.23q0-.14.55-3.4a23.38,23.38,0,0,0,0-6.07,20.2,20.2,0,0,0-1.2-5.34A8.93,8.93,0,0,0,321.21,69.6Z"/><path d="M330.3,83.77a65.22,65.22,0,0,1,1.47-11.45,17.27,17.27,0,0,1,1.7-5.06,24.85,24.85,0,0,1,1.93-3.31,5.23,5.23,0,0,1,3.31-2.12,2.09,2.09,0,0,1,1.43.09.19.19,0,0,1,.12.07l.14.16.12.14-.12.14-.14.16a.19.19,0,0,1-.12.07l-.6.11-.6.12a4.45,4.45,0,0,0-2.48,2,10.11,10.11,0,0,0-.69,1.22q-.32.67-.69,1.59T334.53,69a9.24,9.24,0,0,0-.87,2.85q-.41,2.72-1,7.36,0,.09-.28,2.44a18.22,18.22,0,0,0,.23,4,7,7,0,0,0,1.84,3.45,2.71,2.71,0,0,0,2.3.74,6.25,6.25,0,0,0,2-.69,7.31,7.31,0,0,0,1.61-1.33,43,43,0,0,0,4.46-7l.28-.55q.32-.73,1-.46a.83.83,0,0,1,.23.09,1.53,1.53,0,0,1,.78.55,2.31,2.31,0,0,1,0,1.1,12.26,12.26,0,0,1-1.52,4.69q-2,3.4-2.71,4.55a12.47,12.47,0,0,1-5,4.51,3.93,3.93,0,0,1-4.6-.64,6.7,6.7,0,0,1-2-2.81.82.82,0,0,0-.23-.37,2.26,2.26,0,0,1-.46-1.29c-.06-.55-.12-1-.18-1.24v0Q330.3,87,330.3,83.77Z"/><path d="M350.49,85.33q-.46-4-.51-4.65a25.35,25.35,0,0,1,1.38-10.63,16.22,16.22,0,0,1,2.25-4.37q.23-.23.67-.71l.67-.76a2.66,2.66,0,0,0,.74-1,.56.56,0,0,1,.37-.41l.83-.16a7.78,7.78,0,0,0,.83-.21,2.44,2.44,0,0,1,1.08-.07l1.06.12q.3,0,1.06.23t1.08.23a4.43,4.43,0,0,1,3.17,2.48,41.9,41.9,0,0,1,3,8.1,26.31,26.31,0,0,1,.41,9.57q-.46,3.31-.6,4a13.37,13.37,0,0,1-.69,2.44q-.74,2.12-1.15,3.13a5.71,5.71,0,0,1-2.35,2.58l-1.2.64q-.78.41-1.15.64t-.6.18l-1.31,0q-1.17,0-1.31-.14a5.81,5.81,0,0,0-1.93-.32,3.63,3.63,0,0,1-3.27-2.3q-.32-.69-1.52-3.5A36.8,36.8,0,0,1,350.49,85.33ZM362,69.6q-.39-.87-.92-1.93t-.8-1.66a1,1,0,0,0-.64-.64,7.08,7.08,0,0,0-1.79-.55,1.38,1.38,0,0,0-1,.23,6.73,6.73,0,0,0-2.48,2.85,21.28,21.28,0,0,0-2.12,6.85,31.58,31.58,0,0,0-.28,5.57q.32,3.54,1.06,7.41a26.92,26.92,0,0,0,1.7,5.11q.55,1.15,1.43,1.1h1.43a1.74,1.74,0,0,0,.69-.09,6.28,6.28,0,0,0,3.63-3.5,38.74,38.74,0,0,0,1.29-4.23q0-.14.55-3.4a23.38,23.38,0,0,0,0-6.07,20.2,20.2,0,0,0-1.2-5.34A8.93,8.93,0,0,0,362,69.6Z"/><path d="M378,75.53q-.14,8.65-.14,8.74,0,1.29-.37,7.36a5.58,5.58,0,0,0,0,.85,5.74,5.74,0,0,1,0,.85c0,.34.08.55.32.64l1,.14,3.73-.14a1.71,1.71,0,0,1,.55,0q.46,0,.55.64a3.11,3.11,0,0,1,0,1.29q-.12.18-1,.18-.28,0-.78,0c-.34,0-.6,0-.78,0h-1.33L377.08,96q-.64,0-1.89.07l-1.89.12h-.23a1.51,1.51,0,0,1-1.38-2q.46-3.22.74-9.71.14-2.21.23-9.89,0-2.07.18-6.21V64.58q0-.32,0-1c0-.43,0-.75,0-1a1.2,1.2,0,0,1,.87-1.33,4.65,4.65,0,0,1,4.19.83,1.13,1.13,0,0,1,.46,1.06v1.61h0Z"/><path d="M386,94.94a7.85,7.85,0,0,1,.28-1.33q.37-1.15.87-3.33t.74-3.06q.28-1.1.69-3.15t.51-2.55q1.2-5.43,1.52-6.62l.39-1.36.46-1.59.39-1.33L393,65.5a3.08,3.08,0,0,0,0-.87,1.17,1.17,0,0,1,.64-1.47q.28-.14.85-.37a6.33,6.33,0,0,0,.81-.37,6.82,6.82,0,0,1,2.12-.28,1,1,0,0,1,1.2.78,4,4,0,0,1,.23.87q.69,6.35.92,8.83.23,2.12.6,5.75c0,.15.05.31.07.48s0,.35,0,.55,0,.36,0,.48q.37,3.4.55,5.06.18,2.16.55,6.39a10.67,10.67,0,0,1,0,1.17v1.22a.89.89,0,0,1-.41.69,10,10,0,0,1-3.08,1.29.44.44,0,0,0-.32.14.84.84,0,0,1-.92,0,1,1,0,0,1-.55-1,63.92,63.92,0,0,0-.64-8.6q-.09-.55-.21-1.61t-.16-1.61a1.66,1.66,0,0,0-.23-.71q-.14-.16-.64-.12t-3.59.23a.88.88,0,0,0-.87.83q-.18,1-1.2,5.43-.18.64-.53,1.93t-.48,1.93a20.69,20.69,0,0,1-.78,2.76q-.46.41-.6.28c0-.06-.06-.09-.09-.09a.13.13,0,0,0,0,.09v0l-.28.14A3.11,3.11,0,0,1,386,94.94ZM390.74,81l1.29-.14q.41,0,1.22-.07l1.22,0c.31,0,.49,0,.55-.12s.06-.27,0-.57-.14-1.07-.23-1.91-.15-1.48-.18-1.91q-.09-1-.3-3.06T394,70.15a1.62,1.62,0,0,0-.07-.39,1.62,1.62,0,0,1-.07-.35A55.61,55.61,0,0,0,390.74,81Z"/><path d="M409.83,68.31q0-1.06,0-1.61v-.64a1.46,1.46,0,0,0-.21-.78.81.81,0,0,0-.62-.18h-3a7,7,0,0,1-.92,0,.73.73,0,0,1-.53-.44,1.26,1.26,0,0,1-.16-.76.73.73,0,0,1,.78-.74q.51,0,1.45,0l1.73.07,1.47,0A13.51,13.51,0,0,0,413,63a23.36,23.36,0,0,1,5.38-.46q.83,0,2.35-.09t2-.09a1.2,1.2,0,0,1,1.2,1.06q.14.55-.28.69l-.23,0-.23,0-6.26.14h-.37c-.46,0-.74.12-.85.28a2.1,2.1,0,0,0-.07,1.15,6,6,0,0,1,0,.87q-.09,1.84-.18,2.76t-.23,2.67q0,.51-.14,1.43t-.16,1.66q-.07.74-.12,1.43-.37,5.29-.51,7.68-.23,3.13-.46,5.61t-.23,3.36q0,.23,0,.74c0,.34,0,.6,0,.78a1,1,0,0,1-.55.87,6.53,6.53,0,0,1-1.54.37q-1,.14-1.36.23a2.33,2.33,0,0,1-1.1-.14q-.87-.28-.78-1.52.09-1.06.41-4.16t.46-5.22q.23-2.85.51-8.74,0-.92.14-2.78t.14-2.78v-1h0Q409.78,69.37,409.83,68.31Z"/><path d="M432.51,93.84l2.62-.39,2.62-.39h.18q.92-.09,1.15.14t.14,1.15a.62.62,0,0,1-.46.74l-.28,0-.28,0a45.31,45.31,0,0,0-5.66.74,7.06,7.06,0,0,1-1.22.12,8,8,0,0,0-1,.07q-1.2,0-1.84,0a1.58,1.58,0,0,1-1.79-1.38,3.1,3.1,0,0,1-.09-1.52q.6-3.73.92-8.51,0-.87.11-2.58t.12-2.53.41-6.12q0-1.43.23-4.28.14-1.75.32-5.24a1.19,1.19,0,0,1,.41-.83,3.92,3.92,0,0,1,2-.78l2-.16,2.32-.16a6.8,6.8,0,0,1,.9,0,10.31,10.31,0,0,0,1,0,4,4,0,0,0,.87-.18h.41a1.9,1.9,0,0,1,.8.21,1.53,1.53,0,0,1,.12.8,1.83,1.83,0,0,1-.14.94q-.14.16-.92.21-2.39.09-3.59.18a.92.92,0,0,0-.58.18,1.47,1.47,0,0,0-.16.69l-.55,6.62s0,.89-.14,2.58l-.14,2.9q0,.64.14.76t.74,0l2.67-.28a1,1,0,0,1,.64.07,1.46,1.46,0,0,1,.28.67,1.54,1.54,0,0,1,.09.37q0,.64-.51.69t-1.75.18q-1.38.09-2,.18c-.34.06-.51.32-.51.78s-.06,1-.09,1.7,0,1.3,0,1.7q-.46,5.84-.64,6.81-.09.55-.21,1.7T432,93.79A1.26,1.26,0,0,0,432.51,93.84Z"/><path d="M460.43,79.35a6.38,6.38,0,0,1,.14,1,8.16,8.16,0,0,0,.09.87,30.88,30.88,0,0,1-1.29,7.31,9.64,9.64,0,0,1-.46,1.13,8.55,8.55,0,0,1-.48.9l-.67,1q-.46.69-.6.87a12.82,12.82,0,0,1-3.63,3.63l-.09,0a4.34,4.34,0,0,1-1,.48,9.45,9.45,0,0,1-1.77.35,6.79,6.79,0,0,1-2.74-.35A11.71,11.71,0,0,1,444.65,95a9.28,9.28,0,0,1-1.47-3.06,12.92,12.92,0,0,1-.55-2.87V87.91l.14-.69a12.34,12.34,0,0,1,.46-1.56q.28-.69,1-.28c.21.09.32.21.32.37l0,.18q0,.14-.14.48a5.66,5.66,0,0,0-.14.67,5.31,5.31,0,0,0-.14,2.48,5.15,5.15,0,0,0,4.65,5.06,3.48,3.48,0,0,0,2.9-.57,4.73,4.73,0,0,0,1.61-2.58,18.39,18.39,0,0,0,.6-3.24,22.58,22.58,0,0,0,0-3.22,13.4,13.4,0,0,0-.18-2.3l-.14-.69q-.87-3.73-3.73-4.51L447.78,77a4.52,4.52,0,0,1-2.85-4.37,10.73,10.73,0,0,1,.74-3.5A12.37,12.37,0,0,1,447.27,66,7.49,7.49,0,0,1,451.6,63a23.61,23.61,0,0,1,2.9-.55,5.37,5.37,0,0,1,3.27,1,5.79,5.79,0,0,1,1.61,1.33,2.09,2.09,0,0,1,.23.41q.09.46,0,.55a.45.45,0,0,1-.41.23,1.56,1.56,0,0,1-.6-.41,8.2,8.2,0,0,0-2.25-1.43,3.91,3.91,0,0,0-3.08,0,10.36,10.36,0,0,0-2.76,1.24,6.86,6.86,0,0,0-2.76,3.4,10.82,10.82,0,0,0-1,2.94,2.45,2.45,0,0,0-.09.51,1.73,1.73,0,0,0,.25,1.22,1,1,0,0,0,.94.25,24.89,24.89,0,0,1,3.31-.14q.46,0,1.59-.09a11.84,11.84,0,0,1,1.72,0,5.51,5.51,0,0,1,4.19,2.25A8.23,8.23,0,0,1,460.43,79.35Z"/><path d="M482.92,77.6a9.39,9.39,0,0,1,1.52-.18q1,0,.74,1.06-.32,1.29-1.47,1.15-.23,0-1.84.23c-.34,0-.51.25-.51.64q0,3.77-.23,11.55,0,.46,0,1.4c0,.63,0,1.1,0,1.4a1.57,1.57,0,0,1-.09.64.6.6,0,0,1-.21.25,2.46,2.46,0,0,1-.62.16,11.71,11.71,0,0,1-1.89.18q-1.24,0-1.61.09a.6.6,0,0,1-.74-.37,4.2,4.2,0,0,1-.46-1.7q0-.87,0-2.67t0-2.71q.37-10.9.37-12.33,0-.83.18-5.93l.41-6.49q.09-.78.51-.92a11.91,11.91,0,0,1,1.2-.37l.9,0c.41,0,.73,0,.94,0a10.86,10.86,0,0,0,1.66-.09,8.08,8.08,0,0,0,1-.09,8.46,8.46,0,0,1,.85-.09q.46-.09,1.47-.18l.6-.09.41,0q.09,0,1.43-.28a4.92,4.92,0,0,1,1.1-.09.53.53,0,0,1,.37.09q.23.09.14.69a2.21,2.21,0,0,0,0,.74q.09.37-.37.46l-1,.16-1.13.16q-2.44.18-3.5.32a1.59,1.59,0,0,0-.83.28,1.49,1.49,0,0,0-.23.87q0,1.15-.21,3.54t-.25,3.63q-.14,2.07-.14,4,0,.14,0,.41c0,.18,0,.34,0,.46Q482.6,77.6,482.92,77.6Z"/><path d="M490.7,85.33q-.46-4-.51-4.65a25.35,25.35,0,0,1,1.38-10.63,16.22,16.22,0,0,1,2.25-4.37q.23-.23.67-.71l.67-.76a2.66,2.66,0,0,0,.74-1,.56.56,0,0,1,.37-.41l.83-.16a7.78,7.78,0,0,0,.83-.21,2.44,2.44,0,0,1,1.08-.07l1.06.12q.3,0,1.06.23t1.08.23a4.43,4.43,0,0,1,3.17,2.48,41.9,41.9,0,0,1,3,8.1,26.31,26.31,0,0,1,.41,9.57q-.46,3.31-.6,4a13.37,13.37,0,0,1-.69,2.44q-.74,2.12-1.15,3.13A5.71,5.71,0,0,1,504,95.22l-1.2.64q-.78.41-1.15.64t-.6.18l-1.31,0q-1.17,0-1.31-.14a5.81,5.81,0,0,0-1.93-.32,3.63,3.63,0,0,1-3.27-2.3q-.32-.69-1.52-3.5A36.8,36.8,0,0,1,490.7,85.33ZM502.18,69.6q-.39-.87-.92-1.93t-.8-1.66a1,1,0,0,0-.64-.64,7.08,7.08,0,0,0-1.79-.55,1.38,1.38,0,0,0-1,.23,6.73,6.73,0,0,0-2.48,2.85,21.28,21.28,0,0,0-2.12,6.85,31.58,31.58,0,0,0-.28,5.57q.32,3.54,1.06,7.41a26.92,26.92,0,0,0,1.7,5.11q.55,1.15,1.43,1.1h1.43a1.74,1.74,0,0,0,.69-.09,6.28,6.28,0,0,0,3.63-3.5,38.74,38.74,0,0,0,1.29-4.23q0-.14.55-3.4a23.38,23.38,0,0,0,0-6.07,20.2,20.2,0,0,0-1.2-5.34A8.93,8.93,0,0,0,502.18,69.6Z"/><path d="M519.17,80.16a4.37,4.37,0,0,0-.64.48,1.25,1.25,0,0,0-.32.6,12,12,0,0,0-.09,1.24q-.18,3.27-.46,9.8L517.52,95a1,1,0,0,1-.6.87,10.08,10.08,0,0,1-1.08.41q-.58.18-1.31.35l-1.1.25a.88.88,0,0,1-.58,0,1.39,1.39,0,0,1-.39-.55,2.07,2.07,0,0,0-.32-.51,1.85,1.85,0,0,1-.28-1.33l.41-5.24q.37-5.06.51-7.59.14-1.56.32-4.69.37-3.82.51-6,0-.92,0-2.76c0-.18,0-.56,0-1.13s0-1,.07-1.31a1.23,1.23,0,0,0-.37-1.06A.66.66,0,0,1,513,64a.78.78,0,0,1,.64-.64q.46-.09,1.27-.3l1.47-.37,1.26-.3a24.92,24.92,0,0,1,4.69-.46,6.84,6.84,0,0,1,3,.78,3.91,3.91,0,0,1,1.56,1.79,7.61,7.61,0,0,1,.51,5.7A10.4,10.4,0,0,1,525,74.66q-.37.41-1,1.22t-.74.94q-.18.23-.64.69a1.3,1.3,0,0,0-.46,1.33l.48,2.23q.39,1.82.62,2.83t2.07,8.65l.35,1.1q.25.83.34,1.29a1.7,1.7,0,0,1-.16,1.31,1.29,1.29,0,0,1-.94.71.28.28,0,0,1-.37-.09,2.47,2.47,0,0,1-.92-1.38q-.28-1.66-.67-3.45T522,88q-.53-2.23-.76-3.38-.18-.83-.6-2.32t-.55-2l-.28-.6A4.28,4.28,0,0,1,519.17,80.16Zm-.6-2.37.6-.41a5.3,5.3,0,0,0,.69-.55,33,33,0,0,0,4.37-5,9.39,9.39,0,0,0,1.52-5.06q.14-2.53-2.21-2.85-.69,0-4,0a2.2,2.2,0,0,0-.55.23,4,4,0,0,1,.35,1,8.67,8.67,0,0,1-.07,1.2.63.63,0,0,0,0,.28v.28q-.37,4.6-.51,6.85-.14,1.29-.32,3.86A.75.75,0,0,1,518.57,77.79Z"/><path d="M20.47,140.78l.11-.48q.09-.37.69-3.08t1-4.14q.37-1.47,1.15-4.16l1-3.33q1-3,1.06-3.5.41-1.84,1.52-5.34.18-.78.83-.74a3,3,0,0,1,1.1.23q1,.55,2.94,1.75.41.23.32,1a.54.54,0,0,1,0,.16.49.49,0,0,1-.09.16,12.49,12.49,0,0,0-.69,1.56q-.32.87-.51,1.52l-.48,1.72q-.3,1.08-.44,1.63-.37,1.24-1.08,3.73t-1.08,3.73q-1.34,5.2-1.61,6.39l-1,5.57q-.55,3.86-.87,5.75a1.47,1.47,0,0,1-.46,1,.84.84,0,0,1-.87.12,9.23,9.23,0,0,1-3.45-2.21,2.07,2.07,0,0,1-.64-1.38q-.09-.92-.32-2.71t-.23-1.93q-.28-2.39-.41-3.63-.28-2.21-.37-3.36-.09-1.89-.87-6.9-.55-3.17-1.56-9.52-.09-.37-.25-1.08t-.21-1.08a1.75,1.75,0,0,1,.16-1.13.67.67,0,0,1,.76-.34.78.78,0,0,1,.64.64,18.85,18.85,0,0,1,.51,1.93q0,.37.55,3.91t.83,5.38q.09.46,1.66,10,.14.69.32,2.07l.18.6h.18A2.2,2.2,0,0,1,20.47,140.78Z"/><path d="M34.48,150.14a7.82,7.82,0,0,1,.28-1.33q.37-1.15.87-3.33t.74-3.06q.28-1.1.69-3.15t.51-2.55q1.2-5.43,1.52-6.62l.39-1.36.46-1.59.39-1.33,1.24-5.11a3.1,3.1,0,0,0,0-.87,1.17,1.17,0,0,1,.64-1.47q.28-.14.85-.37a6.37,6.37,0,0,0,.81-.37,6.84,6.84,0,0,1,2.12-.28,1,1,0,0,1,1.2.78,4,4,0,0,1,.23.87q.69,6.35.92,8.83.23,2.12.6,5.75,0,.23.07.48t0,.55c0,.2,0,.36,0,.48q.37,3.41.55,5.06.18,2.16.55,6.39a10.67,10.67,0,0,1,0,1.17v1.22a.89.89,0,0,1-.41.69,10,10,0,0,1-3.08,1.29.44.44,0,0,0-.32.14.83.83,0,0,1-.92,0,1,1,0,0,1-.55-1,64,64,0,0,0-.64-8.6q-.09-.55-.21-1.61t-.16-1.61a1.66,1.66,0,0,0-.23-.71q-.14-.16-.64-.11t-3.59.23a.88.88,0,0,0-.87.83q-.18,1-1.2,5.43-.18.65-.53,1.93t-.48,1.93a20.49,20.49,0,0,1-.78,2.76q-.46.41-.6.28c0-.06-.06-.09-.09-.09a.13.13,0,0,0,0,.09v0l-.28.14A3.1,3.1,0,0,1,34.48,150.14Zm4.78-13.94,1.29-.14q.41,0,1.22-.07L43,136q.46,0,.55-.11c.06-.08.06-.27,0-.58s-.14-1.07-.23-1.91-.15-1.48-.18-1.91q-.09-1-.3-3.06t-.34-3.06a1.62,1.62,0,0,0-.07-.39,1.61,1.61,0,0,1-.07-.34A55.59,55.59,0,0,0,39.26,136.21Z"/><path d="M59.31,130.73q-.14,8.65-.14,8.74,0,1.29-.37,7.36a5.59,5.59,0,0,0,0,.85,5.75,5.75,0,0,1,0,.85c0,.34.08.55.32.64l1,.14,3.73-.14a1.69,1.69,0,0,1,.55,0q.46,0,.55.64a3.11,3.11,0,0,1,0,1.29q-.11.18-1,.18c-.18,0-.44,0-.78,0s-.6,0-.78,0H60.92l-2.53-.14q-.64,0-1.89.07l-1.89.11h-.23a1.51,1.51,0,0,1-1.38-2q.46-3.22.74-9.71.14-2.21.23-9.89,0-2.07.18-6.21v-3.86c0-.21,0-.54,0-1s0-.75,0-1a1.2,1.2,0,0,1,.87-1.33,4.66,4.66,0,0,1,4.19.83,1.13,1.13,0,0,1,.46,1.06V120h0Q59.41,127.19,59.31,130.73Z"/><path d="M73.48,149l2.62-.39,2.62-.39h.18q.92-.09,1.15.14t.14,1.15a.62.62,0,0,1-.46.74l-.28,0-.28,0a45.23,45.23,0,0,0-5.66.74,7,7,0,0,1-1.22.12,8.05,8.05,0,0,0-1,.07q-1.2,0-1.84,0a1.58,1.58,0,0,1-1.79-1.38,3.11,3.11,0,0,1-.09-1.52q.6-3.73.92-8.51,0-.87.11-2.58t.12-2.53.41-6.12q0-1.43.23-4.28.14-1.75.32-5.24a1.2,1.2,0,0,1,.41-.83,3.91,3.91,0,0,1,2-.78l2-.16,2.32-.16a6.79,6.79,0,0,1,.9,0q.57,0,1,0a4,4,0,0,0,.87-.18h.41a1.91,1.91,0,0,1,.81.21,1.54,1.54,0,0,1,.11.81,1.83,1.83,0,0,1-.14.94c-.09.11-.4.18-.92.21q-2.39.09-3.59.18a.91.91,0,0,0-.58.18,1.46,1.46,0,0,0-.16.69l-.55,6.62s0,.89-.14,2.58l-.14,2.9q0,.64.14.76t.74,0l2.67-.28a1,1,0,0,1,.64.07,1.46,1.46,0,0,1,.28.67,1.52,1.52,0,0,1,.09.37c0,.43-.14.66-.51.69s-1,.12-1.75.18-1.58.12-2,.18-.51.32-.51.78-.06,1-.09,1.7,0,1.3,0,1.7q-.46,5.84-.64,6.81-.09.55-.21,1.7T72.93,149A1.25,1.25,0,0,0,73.48,149Z"/><path d="M97,142.46q0-1,.11-3t.12-3q0-1.06.16-3.1t.16-3q.28-4,.37-6.16.09-1.56.18-4.51a4.53,4.53,0,0,1,0-.78q.09-1.15,1.1-1.1l3.54.46a.64.64,0,0,1,.64.74,3,3,0,0,1,0,.87q0,1-.14,2.94l-.14,3.33q-.09,2.23-.18,3.34,0,.78-.09,2.3t-.14,2.3q0,.78,0,2.3v2.3q0,.87-.09,3.54t-.09,4.14q0,.32-.07,2.07a5.77,5.77,0,0,0,.12,2.07.83.83,0,0,1-.78,1.15l-.67.09-.76.09-.64.09a5.63,5.63,0,0,1-2.67-.74,1.09,1.09,0,0,1-.51-.74Q96,149,95.19,146.23q-.18-.6-.74-2.48t-.83-2.9l-.48-1.93-.55-2.23q-.3-1.22-.48-1.91-1.29-5.06-2-7.59a21.08,21.08,0,0,0-.83-2.62q0,.46,0,1.4t-.09,1.45q0,.92-.11,2.53t-.12,2.92q0,1.31,0,2.51,0,2,.09,5.93.09,5.52.14,8.33a4,4,0,0,1-.09.74.65.65,0,0,1-.6.51l-.37,0-.39.07a1.67,1.67,0,0,1-.35,0,2.77,2.77,0,0,0-.6,0h-1.2a1.42,1.42,0,0,1-.51,0,1.68,1.68,0,0,1-1.15-.48,1.92,1.92,0,0,1-.28-1.31q.09-4.23.09-6.35,0-.87,0-3.63t0-4.28q0-1,.23-6.16.09-2.71,0-5.38,0-1.56-.18-4.78a1.71,1.71,0,0,1,.16-1,1.3,1.3,0,0,1,.81-.44,5.44,5.44,0,0,1,3.27.18,4.72,4.72,0,0,1,1.38.69,2.53,2.53,0,0,1,.69,1.15q.32,1.15.94,3.47t.9,3.52l.28.81c.15.44.26.79.32,1q.37,1.52,1.15,4.55t1.2,4.51q.32,1.29,1,3.66t.78,2.78a1.07,1.07,0,0,0,.23.37h.14Q97,143.43,97,142.46Z"/><path d="M111.57,123.51q0-1.06,0-1.61v-.64a1.47,1.47,0,0,0-.21-.78.82.82,0,0,0-.62-.18h-3a7,7,0,0,1-.92,0,.73.73,0,0,1-.53-.44,1.26,1.26,0,0,1-.16-.76.73.73,0,0,1,.78-.74c.34,0,.82,0,1.45,0l1.73.07,1.47,0a13.49,13.49,0,0,0,3.08-.23,23.38,23.38,0,0,1,5.38-.46q.83,0,2.35-.09t2-.09a1.19,1.19,0,0,1,1.2,1.06q.14.55-.28.69l-.23,0-.23,0-6.26.14h-.37q-.69,0-.85.28a2.1,2.1,0,0,0-.07,1.15,6,6,0,0,1,0,.87q-.09,1.84-.18,2.76t-.23,2.67q0,.51-.14,1.43t-.16,1.66q-.07.74-.11,1.43-.37,5.29-.51,7.68-.23,3.13-.46,5.61t-.23,3.36q0,.23,0,.74t0,.78a1,1,0,0,1-.55.87,6.49,6.49,0,0,1-1.54.37q-1,.14-1.36.23a2.33,2.33,0,0,1-1.1-.14q-.87-.28-.78-1.52.09-1.06.41-4.16t.46-5.22q.23-2.85.51-8.74l.14-2.78.14-2.78v-1h0Q111.52,124.57,111.57,123.51Z"/><path d="M134.85,121.53a43.69,43.69,0,0,0-.46,6.53l-.14,7.87v5.15q0,1-.09,2.88t-.09,2.88q0,.46,0,1.38t0,1.38a1.15,1.15,0,0,1-.11.64,1.6,1.6,0,0,1-.53.32,8.18,8.18,0,0,1-2.16.55q-.6,0-1.75,0a.49.49,0,0,1-.46-.23,3.53,3.53,0,0,1-.51-1.89q0-.32.07-1c0-.43,0-.75,0-1q0-1.15.18-13.66,0-4.14.28-8.37,0-.83.18-2.55t.18-2.6q0-.6,0-1.79a1.17,1.17,0,0,1,.87-1.29,2.89,2.89,0,0,1,1.56-.18,5.72,5.72,0,0,1,2.25.69,1.86,1.86,0,0,1,.85.62,3,3,0,0,1,.16,1.22Q135,120.75,134.85,121.53Z"/><path d="M151.31,142.46q0-1,.11-3t.12-3q0-1.06.16-3.1t.16-3q.28-4,.37-6.16.09-1.56.18-4.51a4.53,4.53,0,0,1,0-.78q.09-1.15,1.1-1.1l3.54.46a.64.64,0,0,1,.64.74,3,3,0,0,1,0,.87q0,1-.14,2.94l-.14,3.33q-.09,2.23-.18,3.34,0,.78-.09,2.3T157,134q0,.78,0,2.3v2.3q0,.87-.09,3.54t-.09,4.14q0,.32-.07,2.07a5.77,5.77,0,0,0,.12,2.07.83.83,0,0,1-.78,1.15l-.67.09-.76.09-.64.09a5.63,5.63,0,0,1-2.67-.74,1.09,1.09,0,0,1-.51-.74q-.46-1.38-1.29-4.14-.18-.6-.74-2.48t-.83-2.9l-.48-1.93-.55-2.23q-.3-1.22-.48-1.91-1.29-5.06-2-7.59a21.08,21.08,0,0,0-.83-2.62q0,.46,0,1.4t-.09,1.45q0,.92-.11,2.53t-.12,2.92q0,1.31,0,2.51,0,2,.09,5.93.09,5.52.14,8.33a4,4,0,0,1-.09.74.65.65,0,0,1-.6.51l-.37,0L142,151a1.67,1.67,0,0,1-.35,0,2.77,2.77,0,0,0-.6,0h-1.2a1.42,1.42,0,0,1-.51,0,1.68,1.68,0,0,1-1.15-.48,1.92,1.92,0,0,1-.28-1.31q.09-4.23.09-6.35,0-.87,0-3.63t0-4.28q0-1,.23-6.16.09-2.71,0-5.38,0-1.56-.18-4.78a1.71,1.71,0,0,1,.16-1,1.3,1.3,0,0,1,.81-.44,5.44,5.44,0,0,1,3.27.18,4.72,4.72,0,0,1,1.38.69,2.53,2.53,0,0,1,.69,1.15q.32,1.15.94,3.47t.9,3.52l.28.81c.15.44.26.79.32,1q.37,1.52,1.15,4.55t1.2,4.51q.32,1.29,1,3.66t.78,2.78a1.07,1.07,0,0,0,.23.37h.14Q151.31,143.43,151.31,142.46Z"/><path d="M166.31,149l2.62-.39,2.62-.39h.18q.92-.09,1.15.14t.14,1.15a.62.62,0,0,1-.46.74l-.28,0-.28,0a45.23,45.23,0,0,0-5.66.74,7,7,0,0,1-1.22.12,8.05,8.05,0,0,0-1,.07q-1.2,0-1.84,0a1.58,1.58,0,0,1-1.79-1.38,3.11,3.11,0,0,1-.09-1.52q.6-3.73.92-8.51,0-.87.11-2.58t.12-2.53.41-6.12q0-1.43.23-4.28.14-1.75.32-5.24a1.2,1.2,0,0,1,.41-.83,3.91,3.91,0,0,1,2-.78l2-.16,2.32-.16a6.79,6.79,0,0,1,.9,0q.57,0,1,0a4,4,0,0,0,.87-.18h.41a1.91,1.91,0,0,1,.81.21,1.54,1.54,0,0,1,.11.81,1.83,1.83,0,0,1-.14.94c-.09.11-.4.18-.92.21q-2.39.09-3.59.18a.91.91,0,0,0-.58.18,1.46,1.46,0,0,0-.16.69l-.55,6.62s0,.89-.14,2.58l-.14,2.9q0,.64.14.76t.74,0l2.67-.28a1,1,0,0,1,.64.07,1.46,1.46,0,0,1,.28.67,1.52,1.52,0,0,1,.09.37c0,.43-.14.66-.51.69s-1,.12-1.75.18-1.58.12-2,.18-.51.32-.51.78-.06,1-.09,1.7,0,1.3,0,1.7q-.46,5.84-.64,6.81-.09.55-.21,1.7t-.16,1.38A1.25,1.25,0,0,0,166.31,149Z"/><path d="M176.75,115.18q-.14-3.13,1.15-3.13.46,0,.67.67a20.81,20.81,0,0,1,.18,5,4.78,4.78,0,0,1-.35,1.4,3.2,3.2,0,0,1-.53.8.73.73,0,0,1-.58.3,2.31,2.31,0,0,1-.55-.11.76.76,0,0,1-.32-.58,2.66,2.66,0,0,1,.07-.9,12.6,12.6,0,0,0,.21-1.47A14.13,14.13,0,0,0,176.75,115.18Z"/><path d="M199.38,134.55a6.27,6.27,0,0,1,.14,1,8.06,8.06,0,0,0,.09.87,30.87,30.87,0,0,1-1.29,7.31,9.69,9.69,0,0,1-.46,1.13,8.7,8.7,0,0,1-.48.9l-.67,1q-.46.69-.6.87a12.81,12.81,0,0,1-3.63,3.63l-.09,0a4.35,4.35,0,0,1-1,.48,9.48,9.48,0,0,1-1.77.34,6.81,6.81,0,0,1-2.74-.34,11.75,11.75,0,0,1-3.24-1.63,9.29,9.29,0,0,1-1.47-3.06,12.91,12.91,0,0,1-.55-2.87v-1.15l.14-.69a12.51,12.51,0,0,1,.46-1.56q.28-.69,1-.28c.21.09.32.21.32.37l0,.18q0,.14-.14.48a5.5,5.5,0,0,0-.14.67,5.32,5.32,0,0,0-.14,2.48,5.15,5.15,0,0,0,4.65,5.06,3.48,3.48,0,0,0,2.9-.58,4.73,4.73,0,0,0,1.61-2.58,18.43,18.43,0,0,0,.6-3.24,22.51,22.51,0,0,0,0-3.22,13.46,13.46,0,0,0-.18-2.3l-.14-.69q-.87-3.73-3.73-4.51l-2.07-.55a4.52,4.52,0,0,1-2.85-4.37,10.75,10.75,0,0,1,.74-3.5,12.4,12.4,0,0,1,1.61-3.13,7.49,7.49,0,0,1,4.32-2.94,23.6,23.6,0,0,1,2.9-.55,5.37,5.37,0,0,1,3.27,1,5.81,5.81,0,0,1,1.61,1.33,2.07,2.07,0,0,1,.23.41c.06.31.06.49,0,.55a.45.45,0,0,1-.41.23,1.56,1.56,0,0,1-.6-.41,8.18,8.18,0,0,0-2.25-1.43,3.91,3.91,0,0,0-3.08,0,10.36,10.36,0,0,0-2.76,1.24,6.86,6.86,0,0,0-2.76,3.4,10.86,10.86,0,0,0-1,2.94,2.49,2.49,0,0,0-.09.51,1.73,1.73,0,0,0,.25,1.22,1,1,0,0,0,.94.25,25,25,0,0,1,3.31-.14q.46,0,1.59-.09a11.78,11.78,0,0,1,1.73,0,5.51,5.51,0,0,1,4.19,2.25A8.22,8.22,0,0,1,199.38,134.55Z"/><path d="M215.11,120.52l-.64.09a.93.93,0,0,1-.6-.18.6.6,0,0,1-.41-.51c0-.09.14-.28.41-.55a5.57,5.57,0,0,1,1-.46,8.85,8.85,0,0,0,1.66-.87,2.83,2.83,0,0,1,1.75-.55,51.49,51.49,0,0,1,6.67.14,4.36,4.36,0,0,1,2.25,1q.28.23.92.67t.92.67a6,6,0,0,1,1.43,2.35,11,11,0,0,1,.51,5.89,15.94,15.94,0,0,1-1.52,4.74q-.51.92-2.35,5.52a36.05,36.05,0,0,1-2.62,5.34l-2.9,4.74q-.78,1.29-1.89,2.9a.59.59,0,0,1-.6.37,2.81,2.81,0,0,0-.44-.09l-.46-.07a.83.83,0,0,1-.37-.18.93.93,0,0,1-.3-.39l-.41-.18-.67,0a5.09,5.09,0,0,1-.67-.07q-1.2-.09-1.06-1.43,0-.69.16-2t.16-2q0-.6.09-1.63t.09-1.91q0-.87.09-1.66.09-1.1.23-3.31t.23-3.31Q216,130,216,128q0-2.35,0-7a3.51,3.51,0,0,0,0-.64Q215.67,120.43,215.11,120.52Zm5.7,25,.23-.28q.55-1,.83-1.47a46.67,46.67,0,0,0,3.73-7.54q.18-.55,2.21-5a12.39,12.39,0,0,0,1.29-6.49q-.14-3.63-3.91-5.24a9.63,9.63,0,0,0-2.62-.32q-.55,0-.71.14a1.39,1.39,0,0,0-.16.83q-.09,2.07-.18,6.3,0,.83,0,2.44t-.09,2.44q0,1.06-.23,3.22t-.23,3.27q-.28,4.88-.41,7.27a2.54,2.54,0,0,0,0,.78Q220.63,145.73,220.82,145.5Z"/><path d="M233.79,150.14a7.82,7.82,0,0,1,.28-1.33q.37-1.15.87-3.33t.74-3.06q.28-1.1.69-3.15t.51-2.55q1.2-5.43,1.52-6.62l.39-1.36.46-1.59.39-1.33,1.24-5.11a3.1,3.1,0,0,0,0-.87,1.17,1.17,0,0,1,.64-1.47q.28-.14.85-.37a6.37,6.37,0,0,0,.81-.37,6.84,6.84,0,0,1,2.12-.28,1,1,0,0,1,1.2.78,4,4,0,0,1,.23.87q.69,6.35.92,8.83.23,2.12.6,5.75,0,.23.07.48t0,.55c0,.2,0,.36,0,.48q.37,3.41.55,5.06.18,2.16.55,6.39a10.67,10.67,0,0,1,0,1.17v1.22a.89.89,0,0,1-.41.69,10,10,0,0,1-3.08,1.29.44.44,0,0,0-.32.14.83.83,0,0,1-.92,0,1,1,0,0,1-.55-1,64,64,0,0,0-.64-8.6q-.09-.55-.21-1.61t-.16-1.61a1.66,1.66,0,0,0-.23-.71q-.14-.16-.64-.11t-3.59.23a.88.88,0,0,0-.87.83q-.18,1-1.2,5.43-.18.65-.53,1.93t-.48,1.93a20.49,20.49,0,0,1-.78,2.76q-.46.41-.6.28c0-.06-.06-.09-.09-.09a.13.13,0,0,0,0,.09v0l-.28.14A3.1,3.1,0,0,1,233.79,150.14Zm4.78-13.94,1.29-.14q.41,0,1.22-.07l1.22,0q.46,0,.55-.11c.06-.08.06-.27,0-.58s-.14-1.07-.23-1.91-.15-1.48-.18-1.91q-.09-1-.3-3.06t-.34-3.06a1.62,1.62,0,0,0-.07-.39,1.61,1.61,0,0,1-.07-.34A55.59,55.59,0,0,0,238.57,136.21Z"/><path d="M258.93,130.92q.3-1.06.44-1.61.41-1.79,1.13-5.13t1-4.71q.37-1.75.55-2.67a1.32,1.32,0,0,1,1-1.2,3.54,3.54,0,0,1,3,.74,2.61,2.61,0,0,1,.46.32l.37.32a1.81,1.81,0,0,1,.64,2.07q-1.61,6.17-2.21,9-.23,1.15-.55,2.42t-.74,2.81q-.41,1.54-.64,2.37-.51,2.07-2,8.19-.18.83-.53,2.51t-.53,2.51l-.69,2.81c-.12.31-.25.46-.37.46a3.92,3.92,0,0,1-1.33.18,22.8,22.8,0,0,1-2.94-.51q-.37-.09-.62-.8a2.19,2.19,0,0,1-.12-1.27l1.52-6.35q.51-2.07,1.52-6.3a4.44,4.44,0,0,0,0-1.79L256.1,131q-.28-1.06-.83-3.08t-.83-3.08a.64.64,0,0,0,0-.14.61.61,0,0,1,0-.14q-.28-.73-.85-2.21t-.85-2.21q-.23-.6-.37-1.06a1.21,1.21,0,0,1,.46-1.43q.55-.41,1.06.32a3.14,3.14,0,0,1,.55,1q.41,1.24,1.33,3.73a21.78,21.78,0,0,1,.76,2.42q.44,1.63.48,1.77.46,1.66,1.38,4.88a2.06,2.06,0,0,0,.23.41Q258.63,132,258.93,130.92Z"/><path d="M288.76,121.53a43.69,43.69,0,0,0-.46,6.53l-.14,7.87v5.15q0,1-.09,2.88t-.09,2.88q0,.46,0,1.38t0,1.38a1.15,1.15,0,0,1-.11.64,1.6,1.6,0,0,1-.53.32,8.18,8.18,0,0,1-2.16.55q-.6,0-1.75,0a.49.49,0,0,1-.46-.23,3.53,3.53,0,0,1-.51-1.89q0-.32.07-1c0-.43,0-.75,0-1q0-1.15.18-13.66,0-4.14.28-8.37,0-.83.18-2.55t.18-2.6q0-.6,0-1.79a1.17,1.17,0,0,1,.87-1.29,2.89,2.89,0,0,1,1.56-.18,5.72,5.72,0,0,1,2.25.69,1.86,1.86,0,0,1,.85.62,3,3,0,0,1,.16,1.22Q288.9,120.75,288.76,121.53Z"/><path d="M305.23,142.46q0-1,.11-3t.12-3q0-1.06.16-3.1t.16-3q.28-4,.37-6.16.09-1.56.18-4.51a4.59,4.59,0,0,1,0-.78q.09-1.15,1.1-1.1l3.54.46a.64.64,0,0,1,.64.74,3,3,0,0,1,0,.87l-.14,2.94q0,1.1-.14,3.33t-.18,3.34q0,.78-.09,2.3t-.14,2.3q0,.78,0,2.3v2.3q0,.87-.09,3.54t-.09,4.14q0,.32-.07,2.07a5.77,5.77,0,0,0,.12,2.07.83.83,0,0,1-.78,1.15l-.67.09-.76.09-.64.09a5.62,5.62,0,0,1-2.67-.74,1.09,1.09,0,0,1-.51-.74q-.46-1.38-1.29-4.14-.18-.6-.74-2.48t-.83-2.9l-.48-1.93-.55-2.23q-.3-1.22-.48-1.91-1.29-5.06-2-7.59a21,21,0,0,0-.83-2.62q0,.46,0,1.4t-.09,1.45q0,.92-.12,2.53t-.12,2.92q0,1.31,0,2.51,0,2,.09,5.93.09,5.52.14,8.33a4,4,0,0,1-.09.74.65.65,0,0,1-.6.51l-.37,0-.39.07a1.67,1.67,0,0,1-.34,0,2.77,2.77,0,0,0-.6,0h-1.2a1.42,1.42,0,0,1-.51,0,1.68,1.68,0,0,1-1.15-.48,1.92,1.92,0,0,1-.28-1.31q.09-4.23.09-6.35,0-.87,0-3.63t0-4.28q0-1,.23-6.16.09-2.71,0-5.38,0-1.56-.18-4.78a1.71,1.71,0,0,1,.16-1,1.3,1.3,0,0,1,.81-.44,5.44,5.44,0,0,1,3.27.18,4.71,4.71,0,0,1,1.38.69,2.53,2.53,0,0,1,.69,1.15q.32,1.15.94,3.47t.9,3.52l.28.81c.15.44.26.79.32,1q.37,1.52,1.15,4.55t1.2,4.51q.32,1.29,1,3.66t.78,2.78a1.06,1.06,0,0,0,.23.37h.14C305.21,143.6,305.23,143.11,305.23,142.46Z"/><path d="M331.77,123.51c0-.71,0-1.24,0-1.61v-.64a1.47,1.47,0,0,0-.21-.78.82.82,0,0,0-.62-.18h-3a7,7,0,0,1-.92,0,.73.73,0,0,1-.53-.44,1.27,1.27,0,0,1-.16-.76.73.73,0,0,1,.78-.74c.34,0,.82,0,1.45,0l1.72.07,1.47,0a13.49,13.49,0,0,0,3.08-.23,23.38,23.38,0,0,1,5.38-.46q.83,0,2.35-.09t2-.09a1.19,1.19,0,0,1,1.2,1.06c.09.37,0,.6-.28.69l-.23,0-.23,0-6.26.14h-.37q-.69,0-.85.28a2.1,2.1,0,0,0-.07,1.15,6.09,6.09,0,0,1,0,.87q-.09,1.84-.18,2.76t-.23,2.67q0,.51-.14,1.43t-.16,1.66q-.07.74-.11,1.43-.37,5.29-.51,7.68-.23,3.13-.46,5.61t-.23,3.36q0,.23,0,.74c0,.34,0,.6,0,.78a1,1,0,0,1-.55.87,6.5,6.5,0,0,1-1.54.37q-1,.14-1.36.23a2.33,2.33,0,0,1-1.1-.14q-.87-.28-.78-1.52.09-1.06.41-4.16t.46-5.22q.23-2.85.51-8.74l.14-2.78.14-2.78v-1h0Q331.72,124.57,331.77,123.51Z"/><path d="M356.43,140.64l.14-4.76a1.29,1.29,0,0,0-.11-.67c-.08-.11-.25-.16-.53-.16a22.36,22.36,0,0,1-3-.18q-.78-.14-.83.64-.41,5.71-.51,7,0,.74-.18,2.21t-.18,2.21a6.86,6.86,0,0,0,0,1.29l0,1.29a1.48,1.48,0,0,1-.11.55,1.33,1.33,0,0,1-.53.23,30.29,30.29,0,0,1-3.59.55,1.42,1.42,0,0,1-1.13-.41,1.33,1.33,0,0,1-.44-1.1q.28-5.8.28-5.89.46-6.71.64-9.75l.41-5.38q.09-.83.23-2.39t.18-2.39q0-.51.18-1.5t.18-1.45q.09-1.47.09-2.25a1.11,1.11,0,0,1,.87-1.1,6.53,6.53,0,0,1,3.54.18l.32.09a2.1,2.1,0,0,1,1,.6,2.42,2.42,0,0,1,.11,1.15q0,.78-.21,2.23t-.21,1.68q-.09,1.15-.3,3.38l-.3,3.24q0,.55-.18,2.58a1,1,0,0,0,.07.62.94.94,0,0,0,.58.25,21.17,21.17,0,0,0,3.08.14q.64,0,.69-.55a21.72,21.72,0,0,0,.14-2.39q0-1.24.16-3.7t.16-3.7q0-.78,0-2.28t0-2.28a1.83,1.83,0,0,1,0-.51.6.6,0,0,1,.44-.58.72.72,0,0,1,.71.16,2.69,2.69,0,0,1,1.06,2.16q-.09,1.24-.12,3.47t-.07,3.11l-.28,5.52q0,.28,0,.83c0,.37,0,.64,0,.83q0,1-.09,3.06t-.09,3.06.14,8.1q0,.28,0,1a6.67,6.67,0,0,0,0,1.13.86.86,0,0,1-.55.74,1.39,1.39,0,0,1-1.47-.09,1.58,1.58,0,0,1-.55-1.43,12.11,12.11,0,0,0,.14-1.79q0-.6-.09-1.79a0,0,0,0,0,0,0Z"/><path d="M367.93,149l2.62-.39,2.62-.39h.18q.92-.09,1.15.14t.14,1.15a.62.62,0,0,1-.46.74l-.28,0-.28,0a45.24,45.24,0,0,0-5.66.74,7,7,0,0,1-1.22.12,8,8,0,0,0-1,.07q-1.2,0-1.84,0a1.58,1.58,0,0,1-1.79-1.38,3.1,3.1,0,0,1-.09-1.52q.6-3.73.92-8.51,0-.87.11-2.58t.12-2.53.41-6.12q0-1.43.23-4.28.14-1.75.32-5.24a1.2,1.2,0,0,1,.41-.83,3.92,3.92,0,0,1,2-.78l2-.16,2.32-.16a6.8,6.8,0,0,1,.9,0c.38,0,.73,0,1,0a4,4,0,0,0,.87-.18H374a1.91,1.91,0,0,1,.8.21,1.54,1.54,0,0,1,.12.81,1.83,1.83,0,0,1-.14.94c-.09.11-.4.18-.92.21q-2.39.09-3.59.18a.91.91,0,0,0-.58.18,1.47,1.47,0,0,0-.16.69l-.55,6.62s0,.89-.14,2.58l-.14,2.9q0,.64.14.76t.74,0l2.67-.28a1,1,0,0,1,.64.07,1.46,1.46,0,0,1,.28.67,1.54,1.54,0,0,1,.09.37q0,.64-.51.69t-1.75.18q-1.38.09-2,.18t-.51.78q0,.6-.09,1.7c0,.74,0,1.3,0,1.7q-.46,5.84-.64,6.81-.09.55-.21,1.7t-.16,1.38A1.25,1.25,0,0,0,367.93,149Z"/><path d="M396.35,130.73q-.14,8.65-.14,8.74,0,1.29-.37,7.36a5.57,5.57,0,0,0,0,.85,5.75,5.75,0,0,1,0,.85c0,.34.08.55.32.64l1,.14,3.73-.14a1.69,1.69,0,0,1,.55,0q.46,0,.55.64a3.11,3.11,0,0,1,0,1.29q-.12.18-1,.18c-.18,0-.45,0-.78,0s-.6,0-.78,0H398l-2.53-.14q-.64,0-1.89.07l-1.89.11h-.23a1.51,1.51,0,0,1-1.38-2q.46-3.22.74-9.71.14-2.21.23-9.89,0-2.07.18-6.21v-3.86c0-.21,0-.54,0-1s0-.75,0-1a1.2,1.2,0,0,1,.87-1.33,4.66,4.66,0,0,1,4.19.83,1.13,1.13,0,0,1,.46,1.06V120h0Z"/><path d="M404.31,150.14a7.86,7.86,0,0,1,.28-1.33q.37-1.15.87-3.33t.74-3.06q.28-1.1.69-3.15t.51-2.55q1.2-5.43,1.52-6.62l.39-1.36.46-1.59.39-1.33,1.24-5.11a3.08,3.08,0,0,0,0-.87,1.17,1.17,0,0,1,.64-1.47q.28-.14.85-.37a6.38,6.38,0,0,0,.81-.37,6.84,6.84,0,0,1,2.12-.28,1,1,0,0,1,1.2.78,4,4,0,0,1,.23.87q.69,6.35.92,8.83.23,2.12.6,5.75c0,.15.05.31.07.48s0,.35,0,.55,0,.36,0,.48q.37,3.41.55,5.06.18,2.16.55,6.39a10.67,10.67,0,0,1,0,1.17v1.22a.89.89,0,0,1-.41.69,10,10,0,0,1-3.08,1.29.44.44,0,0,0-.32.14.83.83,0,0,1-.92,0,1,1,0,0,1-.55-1,63.92,63.92,0,0,0-.64-8.6q-.09-.55-.21-1.61t-.16-1.61a1.67,1.67,0,0,0-.23-.71q-.14-.16-.64-.11t-3.59.23a.88.88,0,0,0-.87.83q-.18,1-1.2,5.43-.18.65-.53,1.93t-.48,1.93a20.67,20.67,0,0,1-.78,2.76q-.46.41-.6.28c0-.06-.06-.09-.09-.09a.13.13,0,0,0,0,.09v0l-.28.14A3.11,3.11,0,0,1,404.31,150.14Zm4.78-13.94,1.29-.14q.41,0,1.22-.07l1.22,0c.31,0,.49,0,.55-.11s.06-.27,0-.58-.14-1.07-.23-1.91-.15-1.48-.18-1.91q-.09-1-.3-3.06t-.34-3.06a1.62,1.62,0,0,0-.07-.39,1.62,1.62,0,0,1-.07-.34A55.59,55.59,0,0,0,409.09,136.21Z"/><path d="M428.18,123.51q0-1.06,0-1.61v-.64a1.47,1.47,0,0,0-.21-.78.81.81,0,0,0-.62-.18h-3a7,7,0,0,1-.92,0,.73.73,0,0,1-.53-.44,1.26,1.26,0,0,1-.16-.76.73.73,0,0,1,.78-.74c.34,0,.82,0,1.45,0l1.73.07,1.47,0a13.48,13.48,0,0,0,3.08-.23,23.39,23.39,0,0,1,5.38-.46q.83,0,2.35-.09t2-.09a1.2,1.2,0,0,1,1.2,1.06q.14.55-.28.69l-.23,0-.23,0-6.26.14h-.37c-.46,0-.74.12-.85.28A2.09,2.09,0,0,0,434,121a6,6,0,0,1,0,.87q-.09,1.84-.18,2.76t-.23,2.67q0,.51-.14,1.43t-.16,1.66q-.07.74-.12,1.43-.37,5.29-.51,7.68-.23,3.13-.46,5.61t-.23,3.36q0,.23,0,.74t0,.78a1,1,0,0,1-.55.87,6.48,6.48,0,0,1-1.54.37q-1,.14-1.36.23a2.32,2.32,0,0,1-1.1-.14q-.87-.28-.78-1.52.09-1.06.41-4.16t.46-5.22q.23-2.85.51-8.74,0-.92.14-2.78t.14-2.78v-1h0Q428.14,124.57,428.18,123.51Z"/><path d="M450.86,149l2.62-.39,2.62-.39h.18q.92-.09,1.15.14t.14,1.15a.62.62,0,0,1-.46.74l-.28,0-.28,0a45.24,45.24,0,0,0-5.66.74,7,7,0,0,1-1.22.12,8,8,0,0,0-1,.07q-1.2,0-1.84,0a1.58,1.58,0,0,1-1.79-1.38,3.1,3.1,0,0,1-.09-1.52q.6-3.73.92-8.51,0-.87.11-2.58t.12-2.53.41-6.12q0-1.43.23-4.28.14-1.75.32-5.24a1.2,1.2,0,0,1,.41-.83,3.92,3.92,0,0,1,2-.78l2-.16,2.32-.16a6.8,6.8,0,0,1,.9,0c.38,0,.73,0,1,0a4,4,0,0,0,.87-.18h.41a1.91,1.91,0,0,1,.8.21,1.54,1.54,0,0,1,.12.81,1.83,1.83,0,0,1-.14.94c-.09.11-.4.18-.92.21q-2.39.09-3.59.18a.91.91,0,0,0-.58.18,1.47,1.47,0,0,0-.16.69l-.55,6.62s0,.89-.14,2.58l-.14,2.9q0,.64.14.76t.74,0l2.67-.28a1,1,0,0,1,.64.07,1.46,1.46,0,0,1,.28.67,1.54,1.54,0,0,1,.09.37q0,.64-.51.69t-1.75.18q-1.38.09-2,.18t-.51.78q0,.6-.09,1.7c0,.74,0,1.3,0,1.7q-.46,5.84-.64,6.81-.09.55-.21,1.7t-.16,1.38A1.25,1.25,0,0,0,450.86,149Z"/><path d="M476.12,123.88a8.66,8.66,0,0,1-1.56,2.48,5.7,5.7,0,0,1-.78.69q-.41.32-.69,0a.84.84,0,0,1,0-.83,2.49,2.49,0,0,1,.23-.6q.55-1.1,3.08-6.39a3.11,3.11,0,0,0,.32-1.06,2.13,2.13,0,0,1,.83-1.7,3.39,3.39,0,0,1,3.13-1l.74.12.74.12a1.34,1.34,0,0,1,.94.48,2,2,0,0,1,.11,1.17q0,.46-.28,2t-.32,2.35q-.18,1.75-.37,5.43-.28,3.86-.37,5.61,0,.92-.18,2.76t-.18,2.76q0,1.2-.18,3.52t-.18,3.47q-.09,1.43-.18,4.46a1.64,1.64,0,0,1,0,.46.91.91,0,0,1-.51.64l-.23.14a9.48,9.48,0,0,1-3.17.83,1.2,1.2,0,0,1-1-.46,1.6,1.6,0,0,1-.39-1.2q.14-2.16.51-6.49a10.37,10.37,0,0,0,0-1.15q.09-1.47.18-4.51t.18-4.51q.09-1,.18-3t.18-3q0-1.24.23-3.82v-1.33a.18.18,0,0,1-.14,0Z"/><path d="M499.21,138.41q.18.37.46,1.1a6.91,6.91,0,0,1,.28,1.47V142a9.4,9.4,0,0,1-.25,1.59,15.35,15.35,0,0,1-1.31,3.29,9.75,9.75,0,0,1-2.71,3.4q-.41.18-1.29.62a14.22,14.22,0,0,1-1.38.62q-1,.32-1.79.51l-.62.07a5.78,5.78,0,0,1-1.15-.14,4.38,4.38,0,0,1-1.59-.6,5.74,5.74,0,0,1-1.47-1.54,8.82,8.82,0,0,1-1.24-2.76,1.57,1.57,0,0,0,0-.23.58.58,0,0,0-.09-.23,12,12,0,0,1,.51-7.77q.6-1.1.74-1.29a9.1,9.1,0,0,1,.92-1.2q.64-.74.87-1.06.46-.6,1.38-1.89t1.38-1.89a.8.8,0,0,0,0-1l-.25-.39-.25-.39q-.32-.6-1.06-1.86T488.17,126a10.21,10.21,0,0,1-1.06-3.36,6.07,6.07,0,0,1,1.24-4.69,10.44,10.44,0,0,1,2.81-1.89,9.68,9.68,0,0,1,3-1l3.17-.28a.71.71,0,0,1,.41,0,3.08,3.08,0,0,0,1.75.09,1.46,1.46,0,0,1,1,.12,2.87,2.87,0,0,1,.64,1.08,7.44,7.44,0,0,1,.41,1.47,7.82,7.82,0,0,1-.16,3.68,15.81,15.81,0,0,1-1.54,3.86q-1,1.79-2.07,3.36a29.44,29.44,0,0,1-1.84,2.48l-.78.92.16.18a1.37,1.37,0,0,1,.16.23,3,3,0,0,0,.18.32l.74,1A26.41,26.41,0,0,1,499.21,138.41ZM489.78,125q.18.41,1.79,3.22a5.61,5.61,0,0,0,.41.58c.18.23.31.38.37.44l1.1-1.52q.23-.37.87-1.33t1-1.47a8.8,8.8,0,0,0,1.29-2.48,5.9,5.9,0,0,0-.32-5.24c-.28-.46-.6-.67-1-.64a12,12,0,0,0-4.92,2,2.88,2.88,0,0,0-1.15,2A7,7,0,0,0,489.78,125Zm7,16.65a6.49,6.49,0,0,0-.39-3.56,9.75,9.75,0,0,0-1.59-2.87l-.87-1a.36.36,0,0,1,0,.14,0,0,0,0,0,0,0l0-.09a23.15,23.15,0,0,0-2.67,3.31,9.21,9.21,0,0,0-1.2,3.22v0a8.31,8.31,0,0,0-.18.87.52.52,0,0,1,0,.23,5,5,0,0,0,0,1q.18,2.58,2.16,2.94Q495.85,146.6,496.77,141.68Z"/><path d="M504.13,139.24q-.46-4.14-.51-5a30,30,0,0,1,1.29-11.36,14.63,14.63,0,0,1,2.16-4.55,4.92,4.92,0,0,1,.62-.81,5.42,5.42,0,0,0,.58-.71,2.53,2.53,0,0,0,.74-1.06.41.41,0,0,1,.37-.41,9.68,9.68,0,0,1,1.52-.32,2,2,0,0,1,1,0l1,.16a10.29,10.29,0,0,1,1,.28l1,.32a4.5,4.5,0,0,1,3,2.81,42.58,42.58,0,0,1,2.94,8.83,31.59,31.59,0,0,1,.41,10.21q-.37,2.85-.51,4.23-.32,1.38-.69,2.62-.55,1.7-1.1,3.31a4.93,4.93,0,0,1-2.25,2.62l-2.21,1.29a1,1,0,0,1-.6.18H513a3.69,3.69,0,0,1-1.47-.23,7.22,7.22,0,0,0-1.79-.41q-2.07-.14-3.13-2.62-.32-.69-.85-2.12t-.62-1.7A38.49,38.49,0,0,1,504.13,139.24ZM515,122.89q-.34-.94-.87-2.09t-.76-1.79a1.13,1.13,0,0,0-.64-.74,11.35,11.35,0,0,0-1.7-.69,1.24,1.24,0,0,0-1,.23,6.31,6.31,0,0,0-2.35,2.94,22.64,22.64,0,0,0-2,7.27,40,40,0,0,0-.23,6q.55,5.2,1,8a26.07,26.07,0,0,0,1.66,5.52q.46,1.24,1.33,1.24a2.89,2.89,0,0,1,.74,0l.64,0a2,2,0,0,0,.64,0,6.12,6.12,0,0,0,3.45-3.59q.46-1.29,1.24-4.46.09-.6.25-1.84t.25-1.79a27,27,0,0,0,0-6.49,23.51,23.51,0,0,0-1.2-5.8A12.64,12.64,0,0,0,515,122.89Z"/><path d="M525.93,139.24q-.46-4.14-.51-5a30,30,0,0,1,1.29-11.36,14.65,14.65,0,0,1,2.16-4.55,4.92,4.92,0,0,1,.62-.81,5.34,5.34,0,0,0,.58-.71,2.54,2.54,0,0,0,.74-1.06.41.41,0,0,1,.37-.41,9.68,9.68,0,0,1,1.52-.32,2,2,0,0,1,1,0l1,.16a10.29,10.29,0,0,1,1,.28l1,.32a4.5,4.5,0,0,1,3,2.81,42.64,42.64,0,0,1,2.94,8.83,31.62,31.62,0,0,1,.41,10.21q-.37,2.85-.51,4.23-.32,1.38-.69,2.62-.55,1.7-1.1,3.31a4.92,4.92,0,0,1-2.25,2.62l-2.21,1.29a1,1,0,0,1-.6.18h-1.06a3.69,3.69,0,0,1-1.47-.23,7.22,7.22,0,0,0-1.79-.41q-2.07-.14-3.13-2.62-.32-.69-.85-2.12t-.62-1.7A38.36,38.36,0,0,1,525.93,139.24Zm10.88-16.35q-.35-.94-.87-2.09t-.76-1.79a1.13,1.13,0,0,0-.64-.74,11.35,11.35,0,0,0-1.7-.69,1.24,1.24,0,0,0-1,.23,6.31,6.31,0,0,0-2.35,2.94,22.62,22.62,0,0,0-2,7.27,39.8,39.8,0,0,0-.23,6q.55,5.2,1,8a26.08,26.08,0,0,0,1.66,5.52q.46,1.24,1.33,1.24a2.88,2.88,0,0,1,.74,0l.64,0a2,2,0,0,0,.64,0,6.12,6.12,0,0,0,3.45-3.59q.46-1.29,1.24-4.46.09-.6.25-1.84t.25-1.79a26.9,26.9,0,0,0,0-6.49,23.51,23.51,0,0,0-1.2-5.8A12.75,12.75,0,0,0,536.81,122.89Z"/><path d="M564.48,134.55a6.25,6.25,0,0,1,.14,1,8.1,8.1,0,0,0,.09.87,30.87,30.87,0,0,1-1.29,7.31,9.78,9.78,0,0,1-.46,1.13,8.41,8.41,0,0,1-.48.9l-.67,1q-.46.69-.6.87a12.81,12.81,0,0,1-3.63,3.63l-.09,0a4.36,4.36,0,0,1-1,.48,9.49,9.49,0,0,1-1.77.34,6.8,6.8,0,0,1-2.74-.34,11.74,11.74,0,0,1-3.24-1.63,9.3,9.3,0,0,1-1.47-3.06,12.91,12.91,0,0,1-.55-2.87v-1.15l.14-.69a12.68,12.68,0,0,1,.46-1.56q.28-.69,1-.28.32.14.32.37l0,.18q0,.14-.14.48a5.6,5.6,0,0,0-.14.67,5.33,5.33,0,0,0-.14,2.48,5.16,5.16,0,0,0,4.65,5.06,3.49,3.49,0,0,0,2.9-.58,4.73,4.73,0,0,0,1.61-2.58,18.38,18.38,0,0,0,.6-3.24,22.44,22.44,0,0,0,0-3.22,13.51,13.51,0,0,0-.18-2.3l-.14-.69q-.87-3.73-3.73-4.51l-2.07-.55a4.52,4.52,0,0,1-2.85-4.37,10.76,10.76,0,0,1,.74-3.5,12.38,12.38,0,0,1,1.61-3.13,7.48,7.48,0,0,1,4.32-2.94,23.59,23.59,0,0,1,2.9-.55,5.37,5.37,0,0,1,3.27,1,5.79,5.79,0,0,1,1.61,1.33,2,2,0,0,1,.23.41c.06.31.06.49,0,.55a.45.45,0,0,1-.41.23,1.56,1.56,0,0,1-.6-.41,8.19,8.19,0,0,0-2.25-1.43,3.91,3.91,0,0,0-3.08,0,10.36,10.36,0,0,0-2.76,1.24,6.86,6.86,0,0,0-2.76,3.4,10.87,10.87,0,0,0-1,2.94,2.53,2.53,0,0,0-.09.51,1.74,1.74,0,0,0,.25,1.22,1,1,0,0,0,.94.25,25,25,0,0,1,3.31-.14q.46,0,1.59-.09a11.77,11.77,0,0,1,1.72,0,5.51,5.51,0,0,1,4.19,2.25A8.2,8.2,0,0,1,564.48,134.55Z"/></svg>