<svg id="Layer_1" data-name="Layer 1" xmlns="http://www.w3.org/2000/svg" viewBox="0 0 579.27 157.6"><title>3</title><path d="M51.33,11.13a43.7,43.7,0,0,0-.46,6.53l-.14,7.87v5.15q0,1-.09,2.88t-.09,2.88q0,.46,0,1.38t0,1.38a1.15,1.15,0,0,1-.11.64,1.59,1.59,0,0,1-.53.32,8.18,8.18,0,0,1-2.16.55q-.6,0-1.75,0a.49.49,0,0,1-.46-.23A3.53,3.53,0,0,1,45,38.64q0-.32.07-1t0-1q0-1.15.18-13.66,0-4.14.28-8.37,0-.83.18-2.55t.18-2.6q0-.6,0-1.79a1.17,1.17,0,0,1,.87-1.29,2.9,2.9,0,0,1,1.56-.18,5.73,5.73,0,0,1,2.25.69,1.86,1.86,0,0,1,.85.62,3,3,0,0,1,.16,1.22Q51.47,10.35,51.33,11.13Z"/><path d="M67.8,32.06q0-1,.11-3T68,26q0-1.06.16-3.1t.16-3q.28-4,.37-6.16.09-1.56.18-4.51a4.54,4.54,0,0,1,0-.78q.09-1.15,1.1-1.1l3.54.46a.64.64,0,0,1,.64.74,3,3,0,0,1,0,.87q0,1-.14,2.94l-.14,3.33q-.09,2.23-.18,3.33,0,.78-.09,2.3t-.14,2.3q0,.78,0,2.3v2.3q0,.87-.09,3.54t-.09,4.14q0,.32-.07,2.07A5.77,5.77,0,0,0,73.32,40a.83.83,0,0,1-.78,1.15l-.67.09-.76.09-.64.09a5.63,5.63,0,0,1-2.67-.74A1.08,1.08,0,0,1,67.3,40q-.46-1.38-1.29-4.14-.18-.6-.74-2.48t-.83-2.9L64,28.52l-.55-2.23q-.3-1.22-.48-1.91-1.29-5.06-2-7.59a21.19,21.19,0,0,0-.83-2.62q0,.46,0,1.4T60,17q0,.92-.11,2.53t-.12,2.92q0,1.31,0,2.51,0,2,.09,5.93.09,5.52.14,8.33a4,4,0,0,1-.09.74.65.65,0,0,1-.6.51l-.37,0-.39.07a1.71,1.71,0,0,1-.35,0,2.74,2.74,0,0,0-.6,0h-1.2a1.42,1.42,0,0,1-.51,0,1.68,1.68,0,0,1-1.15-.48,1.92,1.92,0,0,1-.28-1.31q.09-4.23.09-6.35,0-.87,0-3.63t0-4.28q0-1,.23-6.16.09-2.71,0-5.38,0-1.56-.18-4.78a1.71,1.71,0,0,1,.16-1,1.29,1.29,0,0,1,.81-.44A5.44,5.44,0,0,1,58.74,7a4.7,4.7,0,0,1,1.38.69,2.52,2.52,0,0,1,.69,1.15q.32,1.15.94,3.47t.9,3.52l.28.8q.23.67.32,1,.37,1.52,1.15,4.55t1.2,4.51q.32,1.29,1,3.66t.78,2.78a1.08,1.08,0,0,0,.23.37h.14Q67.8,33,67.8,32.06Z"/><path d="M96.51,22.4A9.38,9.38,0,0,1,98,22.22q1,0,.74,1.06-.32,1.29-1.47,1.15-.23,0-1.84.23-.51,0-.51.64,0,3.77-.23,11.55,0,.46,0,1.4t0,1.4a1.58,1.58,0,0,1-.09.64.6.6,0,0,1-.21.25,2.47,2.47,0,0,1-.62.16,11.71,11.71,0,0,1-1.89.18q-1.24,0-1.61.09a.6.6,0,0,1-.74-.37,4.22,4.22,0,0,1-.46-1.7q0-.87,0-2.67t0-2.71q.37-10.9.37-12.33,0-.83.18-5.93l.41-6.49q.09-.78.51-.92A11.86,11.86,0,0,1,92,7.5l.9,0c.41,0,.73,0,.94,0a10.86,10.86,0,0,0,1.66-.09,8.07,8.07,0,0,0,1-.09,8.46,8.46,0,0,1,.85-.09q.46-.09,1.47-.18L99.4,7l.41,0q.09,0,1.43-.28a4.92,4.92,0,0,1,1.1-.09.53.53,0,0,1,.37.09q.23.09.14.69a2.23,2.23,0,0,0,0,.74q.09.37-.37.46l-1,.16-1.13.16q-2.44.18-3.5.32a1.59,1.59,0,0,0-.83.28,1.49,1.49,0,0,0-.23.87q0,1.15-.21,3.54t-.25,3.63q-.14,2.07-.14,4c0,.09,0,.23,0,.41s0,.34,0,.46Q96.18,22.4,96.51,22.4Z"/><path d="M112.42,11.13a43.7,43.7,0,0,0-.46,6.53l-.14,7.87v5.15q0,1-.09,2.88t-.09,2.88q0,.46,0,1.38t0,1.38a1.15,1.15,0,0,1-.11.64,1.59,1.59,0,0,1-.53.32,8.18,8.18,0,0,1-2.16.55q-.6,0-1.75,0a.49.49,0,0,1-.46-.23,3.53,3.53,0,0,1-.51-1.89q0-.32.07-1t0-1q0-1.15.18-13.66,0-4.14.28-8.37,0-.83.18-2.55t.18-2.6q0-.6,0-1.79a1.17,1.17,0,0,1,.87-1.29,2.9,2.9,0,0,1,1.56-.18,5.73,5.73,0,0,1,2.25.69,1.86,1.86,0,0,1,.85.62,3,3,0,0,1,.16,1.22Q112.56,10.35,112.42,11.13Z"/><path d="M128.89,32.06q0-1,.11-3t.12-3q0-1.06.16-3.1t.16-3q.28-4,.37-6.16.09-1.56.18-4.51a4.54,4.54,0,0,1,0-.78q.09-1.15,1.1-1.1l3.54.46a.64.64,0,0,1,.64.74,3,3,0,0,1,0,.87q0,1-.14,2.94L135,15.66q-.09,2.23-.18,3.33,0,.78-.09,2.3t-.14,2.3q0,.78,0,2.3v2.3q0,.87-.09,3.54t-.09,4.14q0,.32-.07,2.07a5.77,5.77,0,0,0,.12,2.07.83.83,0,0,1-.78,1.15l-.67.09-.76.09-.64.09a5.63,5.63,0,0,1-2.67-.74,1.08,1.08,0,0,1-.51-.74q-.46-1.38-1.29-4.14-.18-.6-.74-2.48t-.83-2.9L125,28.52l-.55-2.23q-.3-1.22-.48-1.91-1.29-5.06-2-7.59a21.19,21.19,0,0,0-.83-2.62q0,.46,0,1.4T121.07,17q0,.92-.11,2.53t-.12,2.92q0,1.31,0,2.51,0,2,.09,5.93.09,5.52.14,8.33a4,4,0,0,1-.09.74.65.65,0,0,1-.6.51l-.37,0-.39.07a1.71,1.71,0,0,1-.35,0,2.74,2.74,0,0,0-.6,0h-1.2a1.42,1.42,0,0,1-.51,0,1.68,1.68,0,0,1-1.15-.48,1.92,1.92,0,0,1-.28-1.31q.09-4.23.09-6.35,0-.87,0-3.63t0-4.28q0-1,.23-6.16.09-2.71,0-5.38,0-1.56-.18-4.78a1.71,1.71,0,0,1,.16-1,1.29,1.29,0,0,1,.81-.44,5.44,5.44,0,0,1,3.27.18,4.7,4.7,0,0,1,1.38.69,2.52,2.52,0,0,1,.69,1.15q.32,1.15.94,3.47t.9,3.52l.28.8q.23.67.32,1,.37,1.52,1.15,4.55t1.2,4.51q.32,1.29,1,3.66t.78,2.78a1.08,1.08,0,0,0,.23.37h.14Q128.89,33,128.89,32.06Z"/><path d="M144.44,20.33q-.14,8.65-.14,8.74,0,1.29-.37,7.36a5.59,5.59,0,0,0,0,.85,5.74,5.74,0,0,1,0,.85q0,.51.32.64l1,.14,3.73-.14a1.71,1.71,0,0,1,.55,0q.46,0,.55.64a3.11,3.11,0,0,1,0,1.29q-.11.18-1,.18-.28,0-.78,0c-.34,0-.6,0-.78,0H146l-2.53-.14q-.64,0-1.89.07l-1.89.12h-.23a1.51,1.51,0,0,1-1.38-2q.46-3.22.74-9.71.14-2.21.23-9.89,0-2.07.18-6.21V9.38c0-.21,0-.54,0-1s0-.75,0-1a1.2,1.2,0,0,1,.87-1.33,4.65,4.65,0,0,1,4.19.83A1.13,1.13,0,0,1,144.76,8V9.61h0Q144.53,16.79,144.44,20.33Z"/><path d="M152.39,39.74a7.81,7.81,0,0,1,.28-1.33q.37-1.15.87-3.33t.74-3.06q.28-1.1.69-3.15t.51-2.55q1.2-5.43,1.52-6.62l.39-1.36.46-1.59.39-1.33,1.24-5.11a3.1,3.1,0,0,0,0-.87A1.17,1.17,0,0,1,160.08,8q.28-.14.85-.37a6.31,6.31,0,0,0,.81-.37,6.82,6.82,0,0,1,2.12-.28,1,1,0,0,1,1.2.78,4,4,0,0,1,.23.87q.69,6.35.92,8.83.23,2.12.6,5.75,0,.23.07.48t0,.55q0,.3,0,.48.37,3.4.55,5.06.18,2.16.55,6.39a10.67,10.67,0,0,1,0,1.17v1.22a.89.89,0,0,1-.41.69,10,10,0,0,1-3.08,1.29.44.44,0,0,0-.32.14.84.84,0,0,1-.92,0,1,1,0,0,1-.55-1,64,64,0,0,0-.64-8.6q-.09-.55-.21-1.61t-.16-1.61a1.65,1.65,0,0,0-.23-.71q-.14-.16-.64-.12t-3.59.23a.88.88,0,0,0-.87.83q-.18,1-1.2,5.43-.18.64-.53,1.93t-.48,1.93a20.52,20.52,0,0,1-.78,2.76q-.46.41-.6.28c0-.06-.06-.09-.09-.09a.13.13,0,0,0,0,.09v0l-.28.14A3.1,3.1,0,0,1,152.39,39.74Zm4.78-13.94,1.29-.14q.41,0,1.22-.07l1.22,0q.46,0,.55-.12t0-.57q-.09-.64-.23-1.91T161,21.07q-.09-1-.3-3.06t-.34-3.06a1.62,1.62,0,0,0-.07-.39,1.61,1.61,0,0,1-.07-.35A55.61,55.61,0,0,0,157.18,25.81Z"/><path d="M184.27,32.06q0-1,.11-3t.12-3q0-1.06.16-3.1t.16-3q.28-4,.37-6.16.09-1.56.18-4.51a4.54,4.54,0,0,1,0-.78q.09-1.15,1.1-1.1l3.54.46a.64.64,0,0,1,.64.74,3,3,0,0,1,0,.87q0,1-.14,2.94l-.14,3.33q-.09,2.23-.18,3.33,0,.78-.09,2.3T190,23.6q0,.78,0,2.3v2.3q0,.87-.09,3.54t-.09,4.14q0,.32-.07,2.07a5.77,5.77,0,0,0,.12,2.07.83.83,0,0,1-.78,1.15l-.67.09-.76.09-.64.09a5.63,5.63,0,0,1-2.67-.74,1.08,1.08,0,0,1-.51-.74q-.46-1.38-1.29-4.14-.18-.6-.74-2.48t-.83-2.9l-.48-1.93-.55-2.23q-.3-1.22-.48-1.91-1.29-5.06-2-7.59a21.19,21.19,0,0,0-.83-2.62q0,.46,0,1.4T176.45,17q0,.92-.11,2.53t-.12,2.92q0,1.31,0,2.51,0,2,.09,5.93.09,5.52.14,8.33a4,4,0,0,1-.09.74.65.65,0,0,1-.6.51l-.37,0-.39.07a1.71,1.71,0,0,1-.35,0,2.74,2.74,0,0,0-.6,0h-1.2a1.42,1.42,0,0,1-.51,0,1.68,1.68,0,0,1-1.15-.48,1.92,1.92,0,0,1-.28-1.31q.09-4.23.09-6.35,0-.87,0-3.63t0-4.28q0-1,.23-6.16.09-2.71,0-5.38,0-1.56-.18-4.78a1.71,1.71,0,0,1,.16-1,1.29,1.29,0,0,1,.81-.44,5.44,5.44,0,0,1,3.27.18,4.7,4.7,0,0,1,1.38.69,2.52,2.52,0,0,1,.69,1.15q.32,1.15.94,3.47t.9,3.52l.28.8q.23.67.32,1,.37,1.52,1.15,4.55t1.2,4.51q.32,1.29,1,3.66t.78,2.78a1.08,1.08,0,0,0,.23.37h.14Q184.27,33,184.27,32.06Z"/><path d="M194.25,10.12l-.64.09A.92.92,0,0,1,193,10a.6.6,0,0,1-.41-.51q0-.14.41-.55a5.53,5.53,0,0,1,1-.46,8.79,8.79,0,0,0,1.66-.87,2.83,2.83,0,0,1,1.75-.55,51.55,51.55,0,0,1,6.67.14,4.37,4.37,0,0,1,2.25,1q.28.23.92.67t.92.67a6,6,0,0,1,1.43,2.35,11,11,0,0,1,.51,5.89,15.94,15.94,0,0,1-1.52,4.74q-.51.92-2.35,5.52a36,36,0,0,1-2.62,5.34l-2.9,4.74q-.78,1.29-1.89,2.9a.59.59,0,0,1-.6.37,2.87,2.87,0,0,0-.44-.09l-.46-.07A.83.83,0,0,1,197,41a.93.93,0,0,1-.3-.39l-.41-.18-.67,0a5.25,5.25,0,0,1-.67-.07q-1.2-.09-1.06-1.43,0-.69.16-2t.16-2q0-.6.09-1.63t.09-1.91q0-.87.09-1.66.09-1.1.23-3.31t.23-3.31q.18-3.5.23-5.52,0-2.35,0-7a3.51,3.51,0,0,0,0-.64Q194.81,10,194.25,10.12Zm5.7,25,.23-.28q.55-1,.83-1.47a46.65,46.65,0,0,0,3.73-7.54q.18-.55,2.21-5a12.39,12.39,0,0,0,1.29-6.49q-.14-3.63-3.91-5.24a9.62,9.62,0,0,0-2.62-.32q-.55,0-.71.14a1.39,1.39,0,0,0-.16.83q-.09,2.07-.18,6.3,0,.83,0,2.44t-.09,2.44q0,1.06-.23,3.22t-.23,3.27q-.28,4.88-.41,7.27a2.54,2.54,0,0,0,0,.78C199.74,35.37,199.84,35.25,200,35.1Z"/><path d="M231.21,30.38l.11-.48q.09-.37.69-3.08t1-4.14q.37-1.47,1.15-4.16l1-3.33q1-3,1.06-3.5.41-1.84,1.52-5.34.18-.78.83-.74a3,3,0,0,1,1.1.23q1,.55,2.94,1.75.41.23.32,1a.54.54,0,0,1,0,.16.5.5,0,0,1-.09.16,12.5,12.5,0,0,0-.69,1.56q-.32.87-.51,1.52l-.48,1.73q-.3,1.08-.44,1.63-.37,1.24-1.08,3.73t-1.08,3.73q-1.34,5.2-1.61,6.39l-1,5.57q-.55,3.86-.87,5.75a1.47,1.47,0,0,1-.46,1,.85.85,0,0,1-.87.11,9.23,9.23,0,0,1-3.45-2.21,2.07,2.07,0,0,1-.64-1.38q-.09-.92-.32-2.71T229,33.35q-.28-2.39-.41-3.63-.28-2.21-.37-3.36-.09-1.89-.87-6.9-.55-3.17-1.56-9.52-.09-.37-.25-1.08t-.21-1.08a1.75,1.75,0,0,1,.16-1.13.67.67,0,0,1,.76-.34.78.78,0,0,1,.64.64,18.89,18.89,0,0,1,.51,1.93q0,.37.55,3.91t.83,5.38q.09.46,1.66,10,.14.69.32,2.07l.18.6h.18A2.2,2.2,0,0,1,231.21,30.38Z"/><path d="M245.22,39.74a7.81,7.81,0,0,1,.28-1.33q.37-1.15.87-3.33t.74-3.06q.28-1.1.69-3.15t.51-2.55q1.2-5.43,1.52-6.62l.39-1.36.46-1.59.39-1.33,1.24-5.11a3.1,3.1,0,0,0,0-.87A1.17,1.17,0,0,1,252.9,8q.28-.14.85-.37a6.31,6.31,0,0,0,.81-.37,6.82,6.82,0,0,1,2.12-.28,1,1,0,0,1,1.2.78,4,4,0,0,1,.23.87q.69,6.35.92,8.83.23,2.12.6,5.75,0,.23.07.48t0,.55q0,.3,0,.48.37,3.4.55,5.06.18,2.16.55,6.39a10.67,10.67,0,0,1,0,1.17v1.22a.89.89,0,0,1-.41.69,10,10,0,0,1-3.08,1.29.44.44,0,0,0-.32.14.84.84,0,0,1-.92,0,1,1,0,0,1-.55-1,64,64,0,0,0-.64-8.6q-.09-.55-.21-1.61t-.16-1.61a1.65,1.65,0,0,0-.23-.71q-.14-.16-.64-.12t-3.59.23a.88.88,0,0,0-.87.83q-.18,1-1.2,5.43-.18.64-.53,1.93t-.48,1.93a20.52,20.52,0,0,1-.78,2.76q-.46.41-.6.28c0-.06-.06-.09-.09-.09a.13.13,0,0,0,0,.09v0l-.28.14A3.1,3.1,0,0,1,245.22,39.74ZM250,25.81l1.29-.14q.41,0,1.22-.07l1.22,0q.46,0,.55-.12t0-.57q-.09-.64-.23-1.91t-.18-1.91q-.09-1-.3-3.06t-.34-3.06a1.62,1.62,0,0,0-.07-.39,1.61,1.61,0,0,1-.07-.35A55.61,55.61,0,0,0,250,25.81Z"/><path d="M270.06,20.33q-.14,8.65-.14,8.74,0,1.29-.37,7.36a5.59,5.59,0,0,0,0,.85,5.74,5.74,0,0,1,0,.85q0,.51.32.64l1,.14,3.73-.14a1.71,1.71,0,0,1,.55,0q.46,0,.55.64a3.11,3.11,0,0,1,0,1.29q-.11.18-1,.18-.28,0-.78,0c-.34,0-.6,0-.78,0h-1.33l-2.53-.14q-.64,0-1.89.07l-1.89.12h-.23a1.51,1.51,0,0,1-1.38-2q.46-3.22.74-9.71.14-2.21.23-9.89,0-2.07.18-6.21V9.38c0-.21,0-.54,0-1s0-.75,0-1a1.2,1.2,0,0,1,.87-1.33,4.65,4.65,0,0,1,4.19.83A1.13,1.13,0,0,1,270.38,8V9.61h0Q270.15,16.79,270.06,20.33Z"/><path d="M284.23,38.64l2.62-.39,2.62-.39h.18q.92-.09,1.15.14t.14,1.15a.62.62,0,0,1-.46.74l-.28,0-.28,0a45.29,45.29,0,0,0-5.66.74,7.07,7.07,0,0,1-1.22.12,8,8,0,0,0-1,.07q-1.2,0-1.84,0a1.58,1.58,0,0,1-1.79-1.38,3.11,3.11,0,0,1-.09-1.52q.6-3.73.92-8.51,0-.87.11-2.58t.12-2.53.41-6.12q0-1.43.23-4.28.14-1.75.32-5.24a1.19,1.19,0,0,1,.41-.83,3.92,3.92,0,0,1,2-.78l2-.16,2.32-.16a6.79,6.79,0,0,1,.9,0,10.3,10.3,0,0,0,1,0,4,4,0,0,0,.87-.18h.41a1.9,1.9,0,0,1,.81.21,1.53,1.53,0,0,1,.12.8,1.83,1.83,0,0,1-.14.94q-.14.16-.92.21-2.39.09-3.59.18a.92.92,0,0,0-.58.18,1.46,1.46,0,0,0-.16.69l-.55,6.62s0,.89-.14,2.58l-.14,2.9q0,.64.14.76t.74,0l2.67-.28a1,1,0,0,1,.64.07,1.46,1.46,0,0,1,.28.67,1.52,1.52,0,0,1,.09.37c0,.43-.14.66-.51.69s-1,.12-1.75.18-1.58.12-2,.18-.51.32-.51.78-.06,1-.09,1.7,0,1.3,0,1.7q-.46,5.84-.64,6.81-.09.55-.21,1.7t-.16,1.38A1.26,1.26,0,0,0,284.23,38.64Z"/><path d="M307.73,32.06q0-1,.11-3t.12-3q0-1.06.16-3.1t.16-3q.28-4,.37-6.16.09-1.56.18-4.51a4.6,4.6,0,0,1,0-.78q.09-1.15,1.1-1.1l3.54.46a.64.64,0,0,1,.64.74,3,3,0,0,1,0,.87L314,12.33q0,1.1-.14,3.33T313.67,19q0,.78-.09,2.3t-.14,2.3q0,.78,0,2.3v2.3q0,.87-.09,3.54t-.09,4.14q0,.32-.07,2.07a5.77,5.77,0,0,0,.12,2.07.83.83,0,0,1-.78,1.15l-.67.09-.76.09-.64.09a5.63,5.63,0,0,1-2.67-.74,1.09,1.09,0,0,1-.51-.74q-.46-1.38-1.29-4.14-.18-.6-.74-2.48t-.83-2.9l-.48-1.93-.55-2.23q-.3-1.22-.48-1.91-1.29-5.06-2-7.59a21.11,21.11,0,0,0-.83-2.62q0,.46,0,1.4T299.91,17q0,.92-.12,2.53t-.12,2.92q0,1.31,0,2.51,0,2,.09,5.93.09,5.52.14,8.33a4,4,0,0,1-.09.74.65.65,0,0,1-.6.51l-.37,0-.39.07a1.7,1.7,0,0,1-.34,0,2.74,2.74,0,0,0-.6,0h-1.2a1.42,1.42,0,0,1-.51,0,1.68,1.68,0,0,1-1.15-.48,1.92,1.92,0,0,1-.28-1.31q.09-4.23.09-6.35,0-.87,0-3.63t0-4.28q0-1,.23-6.16.09-2.71,0-5.38,0-1.56-.18-4.78a1.71,1.71,0,0,1,.16-1,1.3,1.3,0,0,1,.81-.44,5.43,5.43,0,0,1,3.27.18,4.68,4.68,0,0,1,1.38.69,2.53,2.53,0,0,1,.69,1.15q.32,1.15.94,3.47t.9,3.52l.28.8q.23.67.32,1,.37,1.52,1.15,4.55t1.2,4.51q.32,1.29,1,3.66t.78,2.78a1.07,1.07,0,0,0,.23.37h.14C307.72,33.2,307.73,32.71,307.73,32.06Z"/><path d="M322.32,13.11c0-.71,0-1.24,0-1.61v-.64a1.47,1.47,0,0,0-.21-.78.81.81,0,0,0-.62-.18h-3a6.93,6.93,0,0,1-.92,0,.73.73,0,0,1-.53-.44,1.27,1.27,0,0,1-.16-.76.73.73,0,0,1,.78-.74q.51,0,1.45,0l1.72.07,1.47,0a13.52,13.52,0,0,0,3.08-.23,23.35,23.35,0,0,1,5.38-.46q.83,0,2.35-.09t2-.09a1.19,1.19,0,0,1,1.2,1.06c.09.37,0,.6-.28.69l-.23,0-.23,0-6.26.14H329q-.69,0-.85.28a2.1,2.1,0,0,0-.07,1.15,6.1,6.1,0,0,1,0,.87q-.09,1.84-.18,2.76t-.23,2.67q0,.51-.14,1.43T327.35,20q-.07.74-.11,1.43-.37,5.29-.51,7.68-.23,3.13-.46,5.61T326,38q0,.23,0,.74c0,.34,0,.6,0,.78a1,1,0,0,1-.55.87,6.54,6.54,0,0,1-1.54.37q-1,.14-1.36.23a2.34,2.34,0,0,1-1.1-.14q-.87-.28-.78-1.52.09-1.06.41-4.16t.46-5.22q.23-2.85.51-8.74l.14-2.78.14-2.78v-1h0Q322.27,14.17,322.32,13.11Z"/><path d="M345.59,11.13a43.56,43.56,0,0,0-.46,6.53L345,25.53v5.15q0,1-.09,2.88t-.09,2.88q0,.46,0,1.38c0,.61,0,1.07,0,1.38a1.15,1.15,0,0,1-.12.64,1.59,1.59,0,0,1-.53.32,8.18,8.18,0,0,1-2.16.55q-.6,0-1.75,0a.49.49,0,0,1-.46-.23,3.52,3.52,0,0,1-.51-1.89q0-.32.07-1t0-1q0-1.15.18-13.66,0-4.14.28-8.37,0-.83.18-2.55t.18-2.6c0-.4,0-1,0-1.79a1.17,1.17,0,0,1,.87-1.29,2.89,2.89,0,0,1,1.56-.18,5.72,5.72,0,0,1,2.25.69,1.86,1.86,0,0,1,.85.62,3,3,0,0,1,.16,1.22Q345.73,10.35,345.59,11.13Z"/><path d="M362.06,32.06q0-1,.11-3t.12-3q0-1.06.16-3.1t.16-3q.28-4,.37-6.16.09-1.56.18-4.51a4.6,4.6,0,0,1,0-.78q.09-1.15,1.1-1.1l3.54.46a.64.64,0,0,1,.64.74,3,3,0,0,1,0,.87l-.14,2.94q0,1.1-.14,3.33T368,19q0,.78-.09,2.3t-.14,2.3q0,.78,0,2.3v2.3q0,.87-.09,3.54t-.09,4.14q0,.32-.07,2.07a5.77,5.77,0,0,0,.12,2.07.83.83,0,0,1-.78,1.15l-.67.09-.76.09-.64.09a5.63,5.63,0,0,1-2.67-.74,1.09,1.09,0,0,1-.51-.74q-.46-1.38-1.29-4.14-.18-.6-.74-2.48t-.83-2.9l-.48-1.93-.55-2.23q-.3-1.22-.48-1.91-1.29-5.06-2-7.59a21.11,21.11,0,0,0-.83-2.62q0,.46,0,1.4T354.24,17q0,.92-.12,2.53T354,22.47q0,1.31,0,2.51,0,2,.09,5.93.09,5.52.14,8.33a4,4,0,0,1-.09.74.65.65,0,0,1-.6.51l-.37,0-.39.07a1.7,1.7,0,0,1-.34,0,2.74,2.74,0,0,0-.6,0h-1.2a1.42,1.42,0,0,1-.51,0,1.68,1.68,0,0,1-1.15-.48,1.92,1.92,0,0,1-.28-1.31q.09-4.23.09-6.35,0-.87,0-3.63t0-4.28q0-1,.23-6.16.09-2.71,0-5.38,0-1.56-.18-4.78a1.71,1.71,0,0,1,.16-1,1.3,1.3,0,0,1,.81-.44A5.43,5.43,0,0,1,353,7a4.68,4.68,0,0,1,1.38.69,2.53,2.53,0,0,1,.69,1.15q.32,1.15.94,3.47t.9,3.52l.28.8q.23.67.32,1,.37,1.52,1.15,4.55t1.2,4.51q.32,1.29,1,3.66t.78,2.78a1.07,1.07,0,0,0,.23.37H362C362,33.2,362.06,32.71,362.06,32.06Z"/><path d="M377.06,38.64l2.62-.39,2.62-.39h.18q.92-.09,1.15.14t.14,1.15a.62.62,0,0,1-.46.74l-.28,0-.28,0a45.28,45.28,0,0,0-5.66.74,7.07,7.07,0,0,1-1.22.12,8,8,0,0,0-1,.07q-1.2,0-1.84,0a1.58,1.58,0,0,1-1.79-1.38,3.12,3.12,0,0,1-.09-1.52q.6-3.73.92-8.51,0-.87.12-2.58t.12-2.53.41-6.12q0-1.43.23-4.28.14-1.75.32-5.24a1.19,1.19,0,0,1,.41-.83,3.91,3.91,0,0,1,2-.78l2-.16,2.32-.16a6.77,6.77,0,0,1,.9,0,10.3,10.3,0,0,0,1,0,4,4,0,0,0,.87-.18h.41a1.9,1.9,0,0,1,.81.21,1.54,1.54,0,0,1,.11.8,1.84,1.84,0,0,1-.14.94c-.09.11-.4.18-.92.21q-2.39.09-3.59.18a.92.92,0,0,0-.58.18,1.45,1.45,0,0,0-.16.69l-.55,6.62s0,.89-.14,2.58l-.14,2.9q0,.64.14.76t.74,0l2.67-.28a1,1,0,0,1,.64.07,1.46,1.46,0,0,1,.28.67,1.51,1.51,0,0,1,.09.37c0,.43-.14.66-.51.69s-1,.12-1.75.18-1.58.12-2,.18-.51.32-.51.78-.06,1-.09,1.7,0,1.3,0,1.7q-.46,5.84-.64,6.81-.09.55-.21,1.7t-.16,1.38A1.26,1.26,0,0,0,377.06,38.64Z"/><path d="M391.25,5.66c0,.4-.08.67-.09.83s-.05.38-.11.69a4.07,4.07,0,0,1-.23.78,3.43,3.43,0,0,1-.37.64,4.47,4.47,0,0,0-.32.37,4.54,4.54,0,0,1-.32.37,1.51,1.51,0,0,1-2.39,0,.6.6,0,0,1,0-1l.18-.18a3.51,3.51,0,0,0,1.7-3s0-.64-.14-1.84l-.14-.69a.77.77,0,0,1,.69-1,.8.8,0,0,1,1.1.51,7.06,7.06,0,0,1,.37,1.43c0,.15,0,.38,0,.69s0,.54,0,.69S391.29,5.26,391.25,5.66Z"/><path d="M411.88,24.15a6.38,6.38,0,0,1,.14,1,8.16,8.16,0,0,0,.09.87,30.88,30.88,0,0,1-1.29,7.31,9.64,9.64,0,0,1-.46,1.13,8.55,8.55,0,0,1-.48.9l-.67,1q-.46.69-.6.87A12.82,12.82,0,0,1,405,40.89l-.09,0a4.34,4.34,0,0,1-1,.48,9.45,9.45,0,0,1-1.77.35,6.79,6.79,0,0,1-2.74-.35,11.71,11.71,0,0,1-3.24-1.63,9.28,9.28,0,0,1-1.47-3.06,12.92,12.92,0,0,1-.55-2.87V32.71l.14-.69a12.34,12.34,0,0,1,.46-1.56q.28-.69,1-.28c.21.09.32.21.32.37l0,.18q0,.14-.14.48a5.66,5.66,0,0,0-.14.67,5.31,5.31,0,0,0-.14,2.48,5.15,5.15,0,0,0,4.65,5.06,3.48,3.48,0,0,0,2.9-.57,4.73,4.73,0,0,0,1.61-2.58,18.39,18.39,0,0,0,.6-3.24,22.58,22.58,0,0,0,0-3.22,13.4,13.4,0,0,0-.18-2.3l-.14-.69q-.87-3.73-3.73-4.51l-2.07-.55a4.52,4.52,0,0,1-2.85-4.37,10.73,10.73,0,0,1,.74-3.5,12.37,12.37,0,0,1,1.61-3.13A7.49,7.49,0,0,1,403,7.82a23.61,23.61,0,0,1,2.9-.55,5.37,5.37,0,0,1,3.27,1,5.79,5.79,0,0,1,1.61,1.33A2.09,2.09,0,0,1,411,10q.09.46,0,.55a.45.45,0,0,1-.41.23,1.56,1.56,0,0,1-.6-.41,8.2,8.2,0,0,0-2.25-1.43,3.91,3.91,0,0,0-3.08,0,10.36,10.36,0,0,0-2.76,1.24,6.86,6.86,0,0,0-2.76,3.4,10.82,10.82,0,0,0-1,2.94,2.45,2.45,0,0,0-.09.51,1.73,1.73,0,0,0,.25,1.22,1,1,0,0,0,.94.25,24.89,24.89,0,0,1,3.31-.14q.46,0,1.59-.09a11.84,11.84,0,0,1,1.72,0,5.51,5.51,0,0,1,4.19,2.25A8.23,8.23,0,0,1,411.88,24.15Z"/><path d="M427.61,10.12l-.64.09a.93.93,0,0,1-.6-.18.6.6,0,0,1-.41-.51c0-.09.14-.28.41-.55a5.56,5.56,0,0,1,1-.46A8.78,8.78,0,0,0,429,7.64a2.83,2.83,0,0,1,1.75-.55,51.54,51.54,0,0,1,6.67.14,4.37,4.37,0,0,1,2.25,1c.18.15.49.38.92.67s.74.51.92.67A6,6,0,0,1,443,11.87a11,11,0,0,1,.51,5.89A15.93,15.93,0,0,1,442,22.49q-.51.92-2.35,5.52A35.94,35.94,0,0,1,437,33.35l-2.9,4.74q-.78,1.29-1.89,2.9a.59.59,0,0,1-.6.37,2.85,2.85,0,0,0-.44-.09l-.46-.07a.82.82,0,0,1-.37-.18.93.93,0,0,1-.3-.39l-.41-.18-.67,0a5.24,5.24,0,0,1-.67-.07q-1.2-.09-1.06-1.43,0-.69.16-2t.16-2q0-.6.09-1.63t.09-1.91q0-.87.09-1.66.09-1.1.23-3.31t.23-3.31q.18-3.5.23-5.52,0-2.35,0-7a3.51,3.51,0,0,0,0-.64Q428.16,10,427.61,10.12Zm5.7,25,.23-.28q.55-1,.83-1.47a46.7,46.7,0,0,0,3.73-7.54q.18-.55,2.21-5a12.4,12.4,0,0,0,1.29-6.49q-.14-3.63-3.91-5.24a9.62,9.62,0,0,0-2.62-.32q-.55,0-.71.14a1.38,1.38,0,0,0-.16.83q-.09,2.07-.18,6.3,0,.83,0,2.44t-.09,2.44q0,1.06-.23,3.22t-.23,3.27q-.28,4.88-.41,7.27a2.56,2.56,0,0,0,0,.78Z"/><path d="M446.28,39.74a7.76,7.76,0,0,1,.28-1.33q.37-1.15.87-3.33t.74-3.06q.28-1.1.69-3.15t.51-2.55q1.2-5.43,1.52-6.62l.39-1.36.46-1.59.39-1.33,1.24-5.11a3.12,3.12,0,0,0,0-.87A1.17,1.17,0,0,1,454,8q.28-.14.85-.37a6.3,6.3,0,0,0,.8-.37,6.82,6.82,0,0,1,2.12-.28,1,1,0,0,1,1.2.78,4,4,0,0,1,.23.87q.69,6.35.92,8.83.23,2.12.6,5.75a4.81,4.81,0,0,1,.07.48c0,.17,0,.35,0,.55s0,.36,0,.48q.37,3.4.55,5.06.18,2.16.55,6.39a10.67,10.67,0,0,1,0,1.17v1.22a.89.89,0,0,1-.41.69,10,10,0,0,1-3.08,1.29.44.44,0,0,0-.32.14.84.84,0,0,1-.92,0,1,1,0,0,1-.55-1,64,64,0,0,0-.64-8.6q-.09-.55-.21-1.61t-.16-1.61a1.65,1.65,0,0,0-.23-.71q-.14-.16-.64-.12t-3.59.23a.88.88,0,0,0-.87.83q-.18,1-1.2,5.43-.18.64-.53,1.93t-.48,1.93a20.34,20.34,0,0,1-.78,2.76q-.46.41-.6.28c0-.06-.06-.09-.09-.09a.13.13,0,0,0,0,.09v0l-.28.14A3.09,3.09,0,0,1,446.28,39.74Zm4.78-13.94,1.29-.14q.41,0,1.22-.07l1.22,0q.46,0,.55-.12t0-.57q-.09-.64-.23-1.91t-.18-1.91q-.09-1-.3-3.06t-.34-3.06a1.62,1.62,0,0,0-.07-.39,1.6,1.6,0,0,1-.07-.35A55.61,55.61,0,0,0,451.07,25.81Z"/><path d="M471.42,20.52q.3-1.06.44-1.61.41-1.79,1.13-5.13t1-4.71q.37-1.75.55-2.67a1.31,1.31,0,0,1,1-1.2,3.54,3.54,0,0,1,3,.74,2.68,2.68,0,0,1,.46.32l.37.32A1.81,1.81,0,0,1,480,8.65q-1.61,6.16-2.21,9-.23,1.15-.55,2.42t-.74,2.81q-.41,1.54-.64,2.37-.51,2.07-2,8.19-.18.83-.53,2.51t-.53,2.51l-.69,2.81q-.18.46-.37.46a3.93,3.93,0,0,1-1.33.18,22.79,22.79,0,0,1-2.94-.51q-.37-.09-.62-.81a2.19,2.19,0,0,1-.12-1.26l1.52-6.35q.51-2.07,1.52-6.3a4.44,4.44,0,0,0,0-1.79l-1.24-4.28q-.28-1.06-.83-3.08t-.83-3.08a.67.67,0,0,0,0-.14.62.62,0,0,1,0-.14q-.28-.74-.85-2.21t-.85-2.21q-.23-.6-.37-1.06a1.21,1.21,0,0,1,.46-1.43q.55-.41,1.06.32a3.15,3.15,0,0,1,.55,1q.41,1.24,1.33,3.73A21.58,21.58,0,0,1,469,14.7q.44,1.63.48,1.77.46,1.66,1.38,4.88a2,2,0,0,0,.23.41Q471.12,21.57,471.42,20.52Z"/><path d="M501.25,11.13a43.56,43.56,0,0,0-.46,6.53l-.14,7.87v5.15q0,1-.09,2.88t-.09,2.88q0,.46,0,1.38c0,.61,0,1.07,0,1.38a1.15,1.15,0,0,1-.12.64,1.59,1.59,0,0,1-.53.32,8.18,8.18,0,0,1-2.16.55q-.6,0-1.75,0a.49.49,0,0,1-.46-.23,3.52,3.52,0,0,1-.51-1.89q0-.32.07-1t0-1q0-1.15.18-13.66,0-4.14.28-8.37,0-.83.18-2.55t.18-2.6c0-.4,0-1,0-1.79a1.17,1.17,0,0,1,.87-1.29,2.89,2.89,0,0,1,1.56-.18,5.72,5.72,0,0,1,2.25.69,1.86,1.86,0,0,1,.85.62,3,3,0,0,1,.16,1.22Q501.39,10.35,501.25,11.13Z"/><path d="M522.14,24.15a6.38,6.38,0,0,1,.14,1,8.16,8.16,0,0,0,.09.87,30.88,30.88,0,0,1-1.29,7.31,9.64,9.64,0,0,1-.46,1.13,8.55,8.55,0,0,1-.48.9l-.67,1q-.46.69-.6.87a12.82,12.82,0,0,1-3.63,3.63l-.09,0a4.34,4.34,0,0,1-1,.48,9.45,9.45,0,0,1-1.77.35,6.79,6.79,0,0,1-2.74-.35,11.71,11.71,0,0,1-3.24-1.63,9.28,9.28,0,0,1-1.47-3.06,12.92,12.92,0,0,1-.55-2.87V32.71l.14-.69a12.34,12.34,0,0,1,.46-1.56q.28-.69,1-.28c.21.09.32.21.32.37l0,.18q0,.14-.14.48a5.66,5.66,0,0,0-.14.67,5.31,5.31,0,0,0-.14,2.48,5.15,5.15,0,0,0,4.65,5.06,3.48,3.48,0,0,0,2.9-.57A4.73,4.73,0,0,0,515,36.27a18.39,18.39,0,0,0,.6-3.24,22.58,22.58,0,0,0,0-3.22,13.4,13.4,0,0,0-.18-2.3l-.14-.69q-.87-3.73-3.73-4.51l-2.07-.55a4.52,4.52,0,0,1-2.85-4.37,10.73,10.73,0,0,1,.74-3.5A12.37,12.37,0,0,1,509,10.76a7.49,7.49,0,0,1,4.32-2.94,23.61,23.61,0,0,1,2.9-.55,5.37,5.37,0,0,1,3.27,1,5.79,5.79,0,0,1,1.61,1.33,2.09,2.09,0,0,1,.23.41q.09.46,0,.55a.45.45,0,0,1-.41.23,1.56,1.56,0,0,1-.6-.41A8.2,8.2,0,0,0,518,8.92a3.91,3.91,0,0,0-3.08,0,10.36,10.36,0,0,0-2.76,1.24,6.86,6.86,0,0,0-2.76,3.4,10.82,10.82,0,0,0-1,2.94,2.45,2.45,0,0,0-.09.51,1.73,1.73,0,0,0,.25,1.22,1,1,0,0,0,.94.25,24.89,24.89,0,0,1,3.31-.14q.46,0,1.59-.09a11.84,11.84,0,0,1,1.72,0,5.51,5.51,0,0,1,4.19,2.25A8.23,8.23,0,0,1,522.14,24.15Z"/><path d="M122.2,83.77a65.18,65.18,0,0,1,1.47-11.45,17.25,17.25,0,0,1,1.7-5.06,24.86,24.86,0,0,1,1.93-3.31,5.23,5.23,0,0,1,3.31-2.12,2.09,2.09,0,0,1,1.43.09.19.19,0,0,1,.12.07l.14.16.12.14-.12.14-.14.16a.19.19,0,0,1-.12.07l-.6.11-.6.12a4.45,4.45,0,0,0-2.48,2,10.11,10.11,0,0,0-.69,1.22q-.32.67-.69,1.59T126.43,69a9.24,9.24,0,0,0-.87,2.85q-.41,2.72-1,7.36,0,.09-.28,2.44a18.22,18.22,0,0,0,.23,4,6.94,6.94,0,0,0,1.84,3.45,2.71,2.71,0,0,0,2.3.74,6.25,6.25,0,0,0,2-.69,7.31,7.31,0,0,0,1.61-1.33,43,43,0,0,0,4.46-7l.28-.55q.32-.73,1-.46a.83.83,0,0,1,.23.09,1.54,1.54,0,0,1,.78.55,2.3,2.3,0,0,1,0,1.1,12.25,12.25,0,0,1-1.52,4.69q-2,3.4-2.71,4.55a12.47,12.47,0,0,1-5,4.51,3.94,3.94,0,0,1-4.6-.64,6.71,6.71,0,0,1-2-2.81.83.83,0,0,0-.23-.37,2.27,2.27,0,0,1-.46-1.29q-.09-.83-.18-1.24v0Q122.2,87,122.2,83.77Z"/><path d="M137.74,94.94a7.81,7.81,0,0,1,.28-1.33q.37-1.15.87-3.33t.74-3.06q.28-1.1.69-3.15t.51-2.55q1.2-5.43,1.52-6.62l.39-1.36.46-1.59.39-1.33,1.24-5.11a3.1,3.1,0,0,0,0-.87,1.17,1.17,0,0,1,.64-1.47q.28-.14.85-.37a6.31,6.31,0,0,0,.81-.37,6.82,6.82,0,0,1,2.12-.28,1,1,0,0,1,1.2.78,4,4,0,0,1,.23.87q.69,6.35.92,8.83.23,2.12.6,5.75,0,.23.07.48t0,.55q0,.3,0,.48.37,3.4.55,5.06.18,2.16.55,6.39a10.67,10.67,0,0,1,0,1.17v1.22a.89.89,0,0,1-.41.69,10,10,0,0,1-3.08,1.29.44.44,0,0,0-.32.14.84.84,0,0,1-.92,0,1,1,0,0,1-.55-1,64,64,0,0,0-.64-8.6q-.09-.55-.21-1.61t-.16-1.61a1.65,1.65,0,0,0-.23-.71q-.14-.16-.64-.12t-3.59.23a.88.88,0,0,0-.87.83q-.18,1-1.2,5.43-.18.64-.53,1.93t-.48,1.93a20.52,20.52,0,0,1-.78,2.76q-.46.41-.6.28c0-.06-.06-.09-.09-.09a.13.13,0,0,0,0,.09v0l-.28.14A3.1,3.1,0,0,1,137.74,94.94ZM142.53,81l1.29-.14q.41,0,1.22-.07l1.22,0q.46,0,.55-.12t0-.57q-.09-.64-.23-1.91t-.18-1.91q-.09-1-.3-3.06t-.34-3.06a1.62,1.62,0,0,0-.07-.39,1.61,1.61,0,0,1-.07-.35A55.61,55.61,0,0,0,142.53,81Z"/><path d="M162.58,75.53q-.14,8.65-.14,8.74,0,1.29-.37,7.36a5.59,5.59,0,0,0,0,.85,5.74,5.74,0,0,1,0,.85q0,.51.32.64l1,.14L167,94a1.71,1.71,0,0,1,.55,0q.46,0,.55.64a3.11,3.11,0,0,1,0,1.29q-.11.18-1,.18-.28,0-.78,0c-.34,0-.6,0-.78,0h-1.33L161.66,96q-.64,0-1.89.07l-1.89.12h-.23a1.51,1.51,0,0,1-1.38-2q.46-3.22.74-9.71.14-2.21.23-9.89,0-2.07.18-6.21V64.58c0-.21,0-.54,0-1s0-.75,0-1a1.2,1.2,0,0,1,.87-1.33,4.65,4.65,0,0,1,4.19.83,1.13,1.13,0,0,1,.46,1.06v1.61h0Q162.68,72,162.58,75.53Z"/><path d="M177.3,75.53q-.14,8.65-.14,8.74,0,1.29-.37,7.36a5.59,5.59,0,0,0,0,.85,5.74,5.74,0,0,1,0,.85q0,.51.32.64l1,.14,3.73-.14a1.71,1.71,0,0,1,.55,0q.46,0,.55.64a3.11,3.11,0,0,1,0,1.29q-.11.18-1,.18-.28,0-.78,0c-.34,0-.6,0-.78,0h-1.33L176.38,96q-.64,0-1.89.07l-1.89.12h-.23a1.51,1.51,0,0,1-1.38-2q.46-3.22.74-9.71.14-2.21.23-9.89,0-2.07.18-6.21V64.58c0-.21,0-.54,0-1s0-.75,0-1a1.2,1.2,0,0,1,.87-1.33,4.65,4.65,0,0,1,4.19.83,1.13,1.13,0,0,1,.46,1.06v1.61h0Q177.4,72,177.3,75.53Z"/><path d="M191.47,93.84l2.62-.39,2.62-.39h.18q.92-.09,1.15.14t.14,1.15a.62.62,0,0,1-.46.74l-.28,0-.28,0a45.29,45.29,0,0,0-5.66.74,7.07,7.07,0,0,1-1.22.12,8,8,0,0,0-1,.07q-1.2,0-1.84,0a1.58,1.58,0,0,1-1.79-1.38,3.11,3.11,0,0,1-.09-1.52q.6-3.73.92-8.51,0-.87.11-2.58t.12-2.53.41-6.12q0-1.43.23-4.28.14-1.75.32-5.24a1.19,1.19,0,0,1,.41-.83,3.92,3.92,0,0,1,2-.78l2-.16,2.32-.16a6.79,6.79,0,0,1,.9,0,10.3,10.3,0,0,0,1,0,4,4,0,0,0,.87-.18h.41a1.9,1.9,0,0,1,.81.21,1.53,1.53,0,0,1,.11.8,1.84,1.84,0,0,1-.14.94q-.14.16-.92.21-2.39.09-3.59.18a.92.92,0,0,0-.58.18,1.46,1.46,0,0,0-.16.69l-.55,6.62s0,.89-.14,2.58l-.14,2.9q0,.64.14.76t.74,0l2.67-.28a1,1,0,0,1,.64.07,1.46,1.46,0,0,1,.28.67,1.52,1.52,0,0,1,.09.37c0,.43-.14.66-.51.69s-1,.12-1.75.18-1.58.12-2,.18-.51.32-.51.78-.06,1-.09,1.7,0,1.3,0,1.7q-.46,5.84-.64,6.81-.09.55-.21,1.7t-.16,1.38A1.26,1.26,0,0,0,191.47,93.84Z"/><path d="M202.37,65.32l-.64.09a.92.92,0,0,1-.6-.18.6.6,0,0,1-.41-.51q0-.14.41-.55a5.53,5.53,0,0,1,1-.46,8.79,8.79,0,0,0,1.66-.87,2.83,2.83,0,0,1,1.75-.55,51.55,51.55,0,0,1,6.67.14,4.37,4.37,0,0,1,2.25,1q.28.23.92.67t.92.67a6,6,0,0,1,1.43,2.35,11,11,0,0,1,.51,5.89,15.94,15.94,0,0,1-1.52,4.74q-.51.92-2.35,5.52a36,36,0,0,1-2.62,5.34l-2.9,4.74q-.78,1.29-1.89,2.9a.59.59,0,0,1-.6.37,2.87,2.87,0,0,0-.44-.09l-.46-.07a.83.83,0,0,1-.37-.18.93.93,0,0,1-.3-.39l-.41-.18-.67,0a5.25,5.25,0,0,1-.67-.07q-1.2-.09-1.06-1.43,0-.69.16-2t.16-2q0-.6.09-1.63t.09-1.91q0-.87.09-1.66.09-1.1.23-3.31t.23-3.31q.18-3.5.23-5.52,0-2.35,0-7a3.51,3.51,0,0,0,0-.64Q202.92,65.23,202.37,65.32Zm5.7,25,.23-.28q.55-1,.83-1.47A46.65,46.65,0,0,0,212.86,81q.18-.55,2.21-5a12.39,12.39,0,0,0,1.29-6.49q-.14-3.63-3.91-5.24a9.62,9.62,0,0,0-2.62-.32q-.55,0-.71.14A1.39,1.39,0,0,0,209,65q-.09,2.07-.18,6.3,0,.83,0,2.44t-.09,2.44q0,1.06-.23,3.22t-.23,3.27q-.28,4.88-.41,7.27a2.54,2.54,0,0,0,0,.78C207.86,90.57,208,90.45,208.08,90.3Z"/><path d="M240.07,75.72q.3-1.06.44-1.61.41-1.79,1.13-5.13t1-4.71q.37-1.75.55-2.67a1.31,1.31,0,0,1,1-1.2,3.54,3.54,0,0,1,3,.74,2.66,2.66,0,0,1,.46.32l.37.32a1.81,1.81,0,0,1,.64,2.07q-1.61,6.16-2.21,9-.23,1.15-.55,2.42T245.2,78q-.41,1.54-.64,2.37-.51,2.07-2,8.19-.18.83-.53,2.51t-.53,2.51l-.69,2.81q-.18.46-.37.46a3.93,3.93,0,0,1-1.33.18,22.8,22.8,0,0,1-2.94-.51q-.37-.09-.62-.81a2.19,2.19,0,0,1-.12-1.26L237,88.14q.51-2.07,1.52-6.3a4.44,4.44,0,0,0,0-1.79l-1.24-4.28q-.28-1.06-.83-3.08t-.83-3.08a.64.64,0,0,0,0-.14.61.61,0,0,1,0-.14q-.28-.74-.85-2.21t-.85-2.21q-.23-.6-.37-1.06a1.21,1.21,0,0,1,.46-1.43q.55-.41,1.06.32a3.15,3.15,0,0,1,.55,1q.41,1.24,1.33,3.73a21.68,21.68,0,0,1,.76,2.42q.44,1.63.48,1.77.46,1.66,1.38,4.88a2,2,0,0,0,.23.41Q239.77,76.77,240.07,75.72Z"/><path d="M269.35,79.35a6.26,6.26,0,0,1,.14,1,8.12,8.12,0,0,0,.09.87,30.88,30.88,0,0,1-1.29,7.31,9.73,9.73,0,0,1-.46,1.13,8.63,8.63,0,0,1-.48.9l-.67,1q-.46.69-.6.87a12.82,12.82,0,0,1-3.63,3.63l-.09,0a4.33,4.33,0,0,1-1,.48,9.43,9.43,0,0,1-1.77.35,6.79,6.79,0,0,1-2.74-.35A11.72,11.72,0,0,1,253.57,95a9.29,9.29,0,0,1-1.47-3.06,12.92,12.92,0,0,1-.55-2.87V87.91l.14-.69a12.5,12.5,0,0,1,.46-1.56q.28-.69,1-.28c.21.09.32.21.32.37l0,.18q0,.14-.14.48a5.56,5.56,0,0,0-.14.67,5.32,5.32,0,0,0-.14,2.48,5.15,5.15,0,0,0,4.65,5.06,3.48,3.48,0,0,0,2.9-.57,4.73,4.73,0,0,0,1.61-2.58,18.43,18.43,0,0,0,.6-3.24,22.51,22.51,0,0,0,0-3.22,13.45,13.45,0,0,0-.18-2.3l-.14-.69q-.87-3.73-3.73-4.51L256.7,77a4.52,4.52,0,0,1-2.85-4.37,10.74,10.74,0,0,1,.74-3.5A12.39,12.39,0,0,1,256.19,66,7.49,7.49,0,0,1,260.52,63a23.6,23.6,0,0,1,2.9-.55,5.37,5.37,0,0,1,3.27,1,5.8,5.8,0,0,1,1.61,1.33,2.06,2.06,0,0,1,.23.41q.09.46,0,.55a.45.45,0,0,1-.41.23,1.56,1.56,0,0,1-.6-.41,8.2,8.2,0,0,0-2.25-1.43,3.91,3.91,0,0,0-3.08,0,10.36,10.36,0,0,0-2.76,1.24,6.87,6.87,0,0,0-2.76,3.4,10.86,10.86,0,0,0-1,2.94,2.48,2.48,0,0,0-.09.51,1.73,1.73,0,0,0,.25,1.22,1,1,0,0,0,.94.25,24.88,24.88,0,0,1,3.31-.14q.46,0,1.59-.09a11.85,11.85,0,0,1,1.73,0,5.51,5.51,0,0,1,4.19,2.25A8.23,8.23,0,0,1,269.35,79.35Z"/><path d="M277.72,68.31q0-1.06,0-1.61v-.64a1.47,1.47,0,0,0-.21-.78.81.81,0,0,0-.62-.18h-3a6.94,6.94,0,0,1-.92,0,.73.73,0,0,1-.53-.44,1.26,1.26,0,0,1-.16-.76.73.73,0,0,1,.78-.74q.51,0,1.45,0l1.73.07,1.47,0a13.52,13.52,0,0,0,3.08-.23,23.35,23.35,0,0,1,5.38-.46q.83,0,2.35-.09t2-.09a1.19,1.19,0,0,1,1.2,1.06c.09.37,0,.6-.28.69l-.23,0-.23,0-6.26.14h-.37q-.69,0-.85.28a2.1,2.1,0,0,0-.07,1.15,6,6,0,0,1,0,.87q-.09,1.84-.18,2.76t-.23,2.67q0,.51-.14,1.43t-.16,1.66q-.07.74-.11,1.43-.37,5.29-.51,7.68-.23,3.13-.46,5.61t-.23,3.36q0,.23,0,.74c0,.34,0,.6,0,.78a1,1,0,0,1-.55.87,6.54,6.54,0,0,1-1.54.37q-1,.14-1.36.23a2.34,2.34,0,0,1-1.1-.14q-.87-.28-.78-1.52.09-1.06.41-4.16t.46-5.22q.23-2.85.51-8.74l.14-2.78.14-2.78v-1h0Q277.67,69.37,277.72,68.31Z"/><path d="M289.59,94.94a7.81,7.81,0,0,1,.28-1.33q.37-1.15.87-3.33t.74-3.06q.28-1.1.69-3.15t.51-2.55q1.2-5.43,1.52-6.62l.39-1.36.46-1.59.39-1.33,1.24-5.11a3.08,3.08,0,0,0,0-.87,1.17,1.17,0,0,1,.64-1.47q.28-.14.85-.37a6.33,6.33,0,0,0,.81-.37,6.82,6.82,0,0,1,2.12-.28,1,1,0,0,1,1.2.78,4,4,0,0,1,.23.87q.69,6.35.92,8.83.23,2.12.6,5.75c0,.15.05.31.07.48s0,.35,0,.55,0,.36,0,.48q.37,3.4.55,5.06.18,2.16.55,6.39a10.67,10.67,0,0,1,0,1.17v1.22a.89.89,0,0,1-.41.69,10,10,0,0,1-3.08,1.29.44.44,0,0,0-.32.14.84.84,0,0,1-.92,0,1,1,0,0,1-.55-1,63.92,63.92,0,0,0-.64-8.6q-.09-.55-.21-1.61T299,83.08a1.66,1.66,0,0,0-.23-.71q-.14-.16-.64-.12t-3.59.23a.88.88,0,0,0-.87.83q-.18,1-1.2,5.43-.18.64-.53,1.93t-.48,1.93a20.69,20.69,0,0,1-.78,2.76q-.46.41-.6.28c0-.06-.06-.09-.09-.09a.13.13,0,0,0,0,.09v0l-.28.14A3.1,3.1,0,0,1,289.59,94.94ZM294.37,81l1.29-.14q.41,0,1.22-.07l1.22,0c.31,0,.49,0,.55-.12s.06-.27,0-.57-.14-1.07-.23-1.91-.15-1.48-.18-1.91q-.09-1-.3-3.06t-.34-3.06a1.62,1.62,0,0,0-.07-.39,1.62,1.62,0,0,1-.07-.35A55.61,55.61,0,0,0,294.37,81Zm2.3-23.41a.58.58,0,0,1,.6-.18,1.36,1.36,0,0,0,.3.09,1.45,1.45,0,0,1,.3.09,1.06,1.06,0,0,1,.87,1,2.59,2.59,0,0,1,0,1,.72.72,0,0,1-.92.46,7.12,7.12,0,0,1-1.29-.6.76.76,0,0,1-.32-.83A1.45,1.45,0,0,1,296.67,57.59Zm4.23,0a.52.52,0,0,1,.6-.18,1.39,1.39,0,0,0,.28.09l.28.09a1.07,1.07,0,0,1,.92,1v1q-.41.64-.92.46a9,9,0,0,1-1.33-.6,1,1,0,0,1-.32-.83A1.81,1.81,0,0,1,300.9,57.59Z"/><path d="M314,85.58l.11-.48q.09-.37.69-3.08t1-4.14q.37-1.47,1.15-4.16l1-3.33q1-3,1.06-3.5.41-1.84,1.52-5.34.18-.78.83-.74a3,3,0,0,1,1.1.23q1,.55,2.94,1.75.41.23.32,1a.55.55,0,0,1,0,.16.49.49,0,0,1-.09.16,12.5,12.5,0,0,0-.69,1.56q-.32.87-.51,1.52l-.48,1.73q-.3,1.08-.44,1.63-.37,1.24-1.08,3.73T321.24,78q-1.34,5.2-1.61,6.39l-1,5.57q-.55,3.86-.87,5.75a1.47,1.47,0,0,1-.46,1,.85.85,0,0,1-.87.11A9.22,9.22,0,0,1,313,94.58a2.07,2.07,0,0,1-.64-1.38q-.09-.92-.32-2.71t-.23-1.93q-.28-2.39-.41-3.63-.28-2.21-.37-3.36-.09-1.89-.87-6.9-.55-3.17-1.56-9.52-.09-.37-.25-1.08T308.13,63a1.75,1.75,0,0,1,.16-1.13.67.67,0,0,1,.76-.34.78.78,0,0,1,.64.64,19.16,19.16,0,0,1,.51,1.93q0,.37.55,3.91t.83,5.38q.09.46,1.66,10,.14.69.32,2.07l.18.6h.18A2.21,2.21,0,0,1,314,85.58Z"/><path d="M323.4,94.94a7.85,7.85,0,0,1,.28-1.33q.37-1.15.87-3.33t.74-3.06q.28-1.1.69-3.15t.51-2.55q1.2-5.43,1.52-6.62l.39-1.36.46-1.59.39-1.33,1.24-5.11a3.08,3.08,0,0,0,0-.87,1.17,1.17,0,0,1,.64-1.47q.28-.14.85-.37a6.33,6.33,0,0,0,.81-.37,6.82,6.82,0,0,1,2.12-.28,1,1,0,0,1,1.2.78,4,4,0,0,1,.23.87q.69,6.35.92,8.83.23,2.12.6,5.75c0,.15.05.31.07.48s0,.35,0,.55,0,.36,0,.48q.37,3.4.55,5.06.18,2.16.55,6.39a10.67,10.67,0,0,1,0,1.17v1.22a.89.89,0,0,1-.41.69,10,10,0,0,1-3.08,1.29.44.44,0,0,0-.32.14.84.84,0,0,1-.92,0,1,1,0,0,1-.55-1,63.92,63.92,0,0,0-.64-8.6q-.09-.55-.21-1.61t-.16-1.61a1.66,1.66,0,0,0-.23-.71q-.14-.16-.64-.12t-3.59.23a.88.88,0,0,0-.87.83q-.18,1-1.2,5.43-.18.64-.53,1.93t-.48,1.93a20.69,20.69,0,0,1-.78,2.76q-.46.41-.6.28c0-.06-.06-.09-.09-.09a.13.13,0,0,0,0,.09v0l-.28.14A3.11,3.11,0,0,1,323.4,94.94ZM328.18,81l1.29-.14q.41,0,1.22-.07l1.22,0c.31,0,.49,0,.55-.12s.06-.27,0-.57-.14-1.07-.23-1.91-.15-1.48-.18-1.91q-.09-1-.3-3.06t-.34-3.06a1.62,1.62,0,0,0-.07-.39,1.62,1.62,0,0,1-.07-.35A55.61,55.61,0,0,0,328.18,81Zm2.3-23.41a.58.58,0,0,1,.6-.18,1.36,1.36,0,0,0,.3.09,1.45,1.45,0,0,1,.3.09,1.06,1.06,0,0,1,.87,1,2.59,2.59,0,0,1,0,1,.72.72,0,0,1-.92.46,7.12,7.12,0,0,1-1.29-.6.76.76,0,0,1-.32-.83A1.45,1.45,0,0,1,330.48,57.59Zm4.23,0a.52.52,0,0,1,.6-.18,1.39,1.39,0,0,0,.28.09l.28.09a1.07,1.07,0,0,1,.92,1v1q-.41.64-.92.46a9,9,0,0,1-1.33-.6,1,1,0,0,1-.32-.83A1.81,1.81,0,0,1,334.71,57.59Z"/><path d="M355.28,87.26q0-1,.12-3t.12-3q0-1.06.16-3.1t.16-3q.28-4,.37-6.16.09-1.56.18-4.51a4.49,4.49,0,0,1,0-.78q.09-1.15,1.1-1.1l3.54.46a.64.64,0,0,1,.64.74,3,3,0,0,1,0,.87q0,1-.14,2.94l-.14,3.33q-.09,2.23-.18,3.33,0,.78-.09,2.3T361,78.8q0,.78,0,2.3v2.3q0,.87-.09,3.54t-.09,4.14q0,.32-.07,2.07a5.77,5.77,0,0,0,.12,2.07.83.83,0,0,1-.78,1.15l-.67.09-.76.09-.64.09a5.63,5.63,0,0,1-2.67-.74,1.08,1.08,0,0,1-.51-.74q-.46-1.38-1.29-4.14-.18-.6-.74-2.48t-.83-2.9l-.48-1.93-.55-2.23q-.3-1.22-.48-1.91-1.29-5.06-2-7.59a21.27,21.27,0,0,0-.83-2.62q0,.46,0,1.4t-.09,1.45q0,.92-.11,2.53t-.12,2.92q0,1.31,0,2.51,0,2,.09,5.93.09,5.52.14,8.33a4,4,0,0,1-.09.74.65.65,0,0,1-.6.51l-.37,0-.39.07a1.71,1.71,0,0,1-.35,0,2.73,2.73,0,0,0-.6,0h-1.2a1.42,1.42,0,0,1-.51,0,1.68,1.68,0,0,1-1.15-.48,1.92,1.92,0,0,1-.28-1.31q.09-4.23.09-6.35,0-.87,0-3.63t0-4.28q0-1,.23-6.16.09-2.71,0-5.38,0-1.56-.18-4.78a1.71,1.71,0,0,1,.16-1,1.29,1.29,0,0,1,.8-.44,5.44,5.44,0,0,1,3.27.18,4.71,4.71,0,0,1,1.38.69,2.52,2.52,0,0,1,.69,1.15q.32,1.15.94,3.47t.9,3.52l.28.8q.23.67.32,1,.37,1.52,1.15,4.55t1.2,4.51q.32,1.29,1,3.66t.78,2.78a1.09,1.09,0,0,0,.23.37h.14Q355.28,88.23,355.28,87.26Z"/><path d="M379.52,73a18,18,0,0,1-2.67,4.23,14.5,14.5,0,0,1-1.08,1.15q-.62.6-1,.9t-1.24,1l-1.08.83q-.51.46-1.29,1.06a1.2,1.2,0,0,0-.41,1q-.23,3-.23,3.59,0,.87,0,2.62t0,2.62q0,1.15-.09,3.27a.58.58,0,0,1-.32.6,3.33,3.33,0,0,1-.83.32l-1.17.25-1.13.25-.18,0-.18,0H366l-.18,0a.29.29,0,0,1-.21-.09.77.77,0,0,0-.16-.16.64.64,0,0,1-.18-.25l-.16-.39a3.66,3.66,0,0,1-.32-2.07q0-.73.07-2.09t0-1.77q0-2.21,0-3.36l.41-6.07q.23-3.31.28-6.53V72q0-.92.07-2.76t.12-2.76V65.09a.67.67,0,0,0-.51-.74l-.41-.14a.68.68,0,0,1-.35-.6.59.59,0,0,1,.3-.6,3.13,3.13,0,0,1,.55-.23,17.78,17.78,0,0,1,4.6-.87q2.25-.09,2.9,0a6.36,6.36,0,0,1,2.9.74,3.21,3.21,0,0,0,.46.23A4.29,4.29,0,0,1,379.15,65q.14.28.6,1.47a11.75,11.75,0,0,1,.64,2.94A8.59,8.59,0,0,1,379.52,73Zm-7.64,5.8a21,21,0,0,0,3.22-3.08,15,15,0,0,0,3.13-5.8,4.55,4.55,0,0,0,0-2.71,11.26,11.26,0,0,0-.37-1.1,2.12,2.12,0,0,0-1.06-1.29q-2-.87-2.3-1t-2.16-.32a.55.55,0,0,0-.51.11,1,1,0,0,0-.14.62V65q-.09,1.2-.25,3.56T371.24,72q-.14,2.3-.23,6.81V79a.25.25,0,0,0,0,.11.73.73,0,0,1,0,.14.74.74,0,0,1,0,.18A8.8,8.8,0,0,0,371.88,78.8Z"/><path d="M378.6,94.94a7.85,7.85,0,0,1,.28-1.33q.37-1.15.87-3.33t.74-3.06q.28-1.1.69-3.15t.51-2.55q1.2-5.43,1.52-6.62l.39-1.36.46-1.59.39-1.33,1.24-5.11a3.08,3.08,0,0,0,0-.87,1.17,1.17,0,0,1,.64-1.47q.28-.14.85-.37a6.33,6.33,0,0,0,.81-.37,6.82,6.82,0,0,1,2.12-.28,1,1,0,0,1,1.2.78,4,4,0,0,1,.23.87q.69,6.35.92,8.83.23,2.12.6,5.75c0,.15.05.31.07.48s0,.35,0,.55,0,.36,0,.48q.37,3.4.55,5.06.18,2.16.55,6.39a10.67,10.67,0,0,1,0,1.17v1.22a.89.89,0,0,1-.41.69,10,10,0,0,1-3.08,1.29.44.44,0,0,0-.32.14.84.84,0,0,1-.92,0,1,1,0,0,1-.55-1,63.92,63.92,0,0,0-.64-8.6q-.09-.55-.21-1.61T388,83.08a1.66,1.66,0,0,0-.23-.71q-.14-.16-.64-.12t-3.59.23a.88.88,0,0,0-.87.83q-.18,1-1.2,5.43-.18.64-.53,1.93t-.48,1.93a20.69,20.69,0,0,1-.78,2.76q-.46.41-.6.28c0-.06-.06-.09-.09-.09a.13.13,0,0,0,0,.09v0l-.28.14A3.11,3.11,0,0,1,378.6,94.94ZM383.38,81l1.29-.14q.41,0,1.22-.07l1.22,0c.31,0,.49,0,.55-.12s.06-.27,0-.57-.14-1.07-.23-1.91-.15-1.48-.18-1.91q-.09-1-.3-3.06t-.34-3.06a1.62,1.62,0,0,0-.07-.39,1.62,1.62,0,0,1-.07-.35A55.61,55.61,0,0,0,383.38,81Zm2.3-23.41a.58.58,0,0,1,.6-.18,1.36,1.36,0,0,0,.3.09,1.45,1.45,0,0,1,.3.09,1.06,1.06,0,0,1,.87,1,2.59,2.59,0,0,1,0,1,.72.72,0,0,1-.92.46,7.12,7.12,0,0,1-1.29-.6.76.76,0,0,1-.32-.83A1.45,1.45,0,0,1,385.68,57.59Zm4.23,0a.52.52,0,0,1,.6-.18,1.39,1.39,0,0,0,.28.09l.28.09a1.07,1.07,0,0,1,.92,1v1q-.41.64-.92.46a9,9,0,0,1-1.33-.6,1,1,0,0,1-.32-.83A1.81,1.81,0,0,1,389.91,57.59Z"/><path d="M403.48,66.33a43.84,43.84,0,0,0-.46,6.53l-.14,7.87v5.15q0,1-.09,2.88t-.09,2.88c0,.31,0,.77,0,1.38s0,1.07,0,1.38a1.15,1.15,0,0,1-.11.64,1.59,1.59,0,0,1-.53.32,8.18,8.18,0,0,1-2.16.55q-.6,0-1.75,0a.49.49,0,0,1-.46-.23,3.53,3.53,0,0,1-.51-1.89c0-.21.05-.54.07-1s0-.75,0-1q0-1.15.18-13.66,0-4.14.28-8.37,0-.83.18-2.55t.18-2.6q0-.6,0-1.79a1.17,1.17,0,0,1,.87-1.29,2.9,2.9,0,0,1,1.56-.18,5.73,5.73,0,0,1,2.25.69,1.85,1.85,0,0,1,.85.62,3,3,0,0,1,.16,1.22Q403.62,65.55,403.48,66.33Z"/><path d="M412.48,85.58l.11-.48q.09-.37.69-3.08t1-4.14q.37-1.47,1.15-4.16l1-3.33q1-3,1.06-3.5.41-1.84,1.52-5.34.18-.78.83-.74a3,3,0,0,1,1.1.23q1,.55,2.94,1.75.41.23.32,1a.55.55,0,0,1,0,.16.49.49,0,0,1-.09.16,12.5,12.5,0,0,0-.69,1.56q-.32.87-.51,1.52l-.48,1.73q-.3,1.08-.44,1.63-.37,1.24-1.08,3.73T419.72,78q-1.34,5.2-1.61,6.39l-1,5.57q-.55,3.86-.87,5.75a1.47,1.47,0,0,1-.46,1,.85.85,0,0,1-.87.11,9.22,9.22,0,0,1-3.45-2.21,2.07,2.07,0,0,1-.64-1.38q-.09-.92-.32-2.71t-.23-1.93q-.28-2.39-.41-3.63-.28-2.21-.37-3.36-.09-1.89-.87-6.9-.55-3.17-1.56-9.52-.09-.37-.25-1.08T406.61,63a1.75,1.75,0,0,1,.16-1.13.67.67,0,0,1,.76-.34.78.78,0,0,1,.64.64,19.16,19.16,0,0,1,.51,1.93q0,.37.55,3.91t.83,5.38q.09.46,1.66,10,.14.69.32,2.07l.18.6h.18A2.21,2.21,0,0,1,412.48,85.58Z"/><path d="M421.88,94.94a7.85,7.85,0,0,1,.28-1.33q.37-1.15.87-3.33t.74-3.06q.28-1.1.69-3.15t.51-2.55q1.2-5.43,1.52-6.62l.39-1.36.46-1.59.39-1.33L429,65.5a3.08,3.08,0,0,0,0-.87,1.17,1.17,0,0,1,.64-1.47q.28-.14.85-.37a6.33,6.33,0,0,0,.81-.37,6.82,6.82,0,0,1,2.12-.28,1,1,0,0,1,1.2.78,4,4,0,0,1,.23.87q.69,6.35.92,8.83.23,2.12.6,5.75c0,.15.05.31.07.48s0,.35,0,.55,0,.36,0,.48q.37,3.4.55,5.06.18,2.16.55,6.39a10.67,10.67,0,0,1,0,1.17v1.22a.89.89,0,0,1-.41.69,10,10,0,0,1-3.08,1.29.44.44,0,0,0-.32.14.84.84,0,0,1-.92,0,1,1,0,0,1-.55-1,63.92,63.92,0,0,0-.64-8.6q-.09-.55-.21-1.61t-.16-1.61a1.66,1.66,0,0,0-.23-.71q-.14-.16-.64-.12t-3.59.23a.88.88,0,0,0-.87.83q-.18,1-1.2,5.43-.18.64-.53,1.93t-.48,1.93a20.69,20.69,0,0,1-.78,2.76q-.46.41-.6.28c0-.06-.06-.09-.09-.09a.13.13,0,0,0,0,.09v0l-.28.14A3.11,3.11,0,0,1,421.88,94.94ZM426.67,81l1.29-.14q.41,0,1.22-.07l1.22,0c.31,0,.49,0,.55-.12s.06-.27,0-.57-.14-1.07-.23-1.91-.15-1.48-.18-1.91q-.09-1-.3-3.06t-.34-3.06a1.62,1.62,0,0,0-.07-.39,1.62,1.62,0,0,1-.07-.35A55.61,55.61,0,0,0,426.67,81ZM429,57.59a.58.58,0,0,1,.6-.18,1.36,1.36,0,0,0,.3.09,1.45,1.45,0,0,1,.3.09,1.06,1.06,0,0,1,.87,1,2.59,2.59,0,0,1,0,1,.72.72,0,0,1-.92.46,7.12,7.12,0,0,1-1.29-.6.76.76,0,0,1-.32-.83A1.45,1.45,0,0,1,429,57.59Zm4.23,0a.52.52,0,0,1,.6-.18,1.39,1.39,0,0,0,.28.09l.28.09a1.07,1.07,0,0,1,.92,1v1q-.41.64-.92.46a9,9,0,0,1-1.33-.6,1,1,0,0,1-.32-.83A1.81,1.81,0,0,1,433.2,57.59Z"/><path d="M444.45,97.57c0,.4-.08.67-.09.83s-.05.38-.11.69a4.09,4.09,0,0,1-.23.78,3.46,3.46,0,0,1-.37.64,1.42,1.42,0,0,0-.32.35,3.46,3.46,0,0,1-.32.39,1.51,1.51,0,0,1-2.39,0,.6.6,0,0,1,0-1l.18-.18a3.51,3.51,0,0,0,1.7-3l-.14-1.84-.14-.69a.77.77,0,0,1,.69-1,.8.8,0,0,1,1.1.51,7.05,7.05,0,0,1,.37,1.43c0,.15,0,.38,0,.69s0,.54,0,.69S444.49,97.17,444.45,97.57Z"/><path d="M84,142.39a5.48,5.48,0,0,1,.23-.57,27.87,27.87,0,0,0,1.61-5.2q.37-1.47.8-3.13t1-3.68q.55-2,.83-3.13c0-.12.07-.31.12-.57s.08-.45.11-.58a2.26,2.26,0,0,1,.51-.83q.6-.64,1.1.09a3,3,0,0,1,.6,2,27.9,27.9,0,0,0,.74,4.6q.83,3.4,1.2,5.11l1,5.38c0,.09.08.28.14.57s.12.54.18.76a5.93,5.93,0,0,0,.55-1.79q.46-3.22.64-4.83.74-5.61,1-8.42.37-3.31.92-9.94.09-.74.18-2,.09-1,.74-1a2.54,2.54,0,0,1,.55,0,8.56,8.56,0,0,0,2.3.18,5.3,5.3,0,0,1,1.66.51q.55.23.41,1.15-.41,2.3-.92,8.37-.14,1.52-1.33,11.22-.14.92-.34,2.71t-.3,2.62q-.14,1-.46,2.94t-.46,2.94l-.14,1.52Q99,150.88,97.82,151l-.51,0a2,2,0,0,1-.6,0,6.46,6.46,0,0,1-1.56-.14q-1.79-.51-2.25-3.08-.32-1.56-.87-4.67t-.83-4.62q-.74-4.23-1.15-6.3a6.69,6.69,0,0,0-.64-1.66l-.28.94-.28.94q-1.52,6-1.66,6.44-.41,1.52-1.43,4.46t-1.29,3.91a.13.13,0,0,1,0,.09v.09a2.12,2.12,0,0,1-.11.67q-.12.35-.18.51a3.27,3.27,0,0,1-.37.55l-.34.44A3.13,3.13,0,0,1,83,150l-1,.53q-.83.44-1.24.71t-1-.23a5.92,5.92,0,0,1-1.06-2.71q-.23-2.39-1.7-9.61-1.56-7.82-2.3-11.78-.18-1.06-.51-3.22t-.51-3.22a2.63,2.63,0,0,1,1.06-2.76,4.22,4.22,0,0,1,3.59-.64,1.33,1.33,0,0,1,1,1.24q.09,1.2.14,1.75.78,7.22,1.43,10.12,1.33,6.07,2.16,10,.23.87.6,2.71a.27.27,0,0,1,.18,0C83.82,142.85,83.88,142.65,84,142.39Z"/><path d="M116.4,140.64q.09-3.2.14-4.76a1.29,1.29,0,0,0-.11-.67c-.08-.11-.25-.16-.53-.16a22.35,22.35,0,0,1-3-.18q-.78-.14-.83.64-.41,5.71-.51,7,0,.74-.18,2.21t-.18,2.21a6.81,6.81,0,0,0,0,1.29l0,1.29a1.49,1.49,0,0,1-.11.55,1.33,1.33,0,0,1-.53.23,30.29,30.29,0,0,1-3.59.55,1.43,1.43,0,0,1-1.13-.41,1.33,1.33,0,0,1-.44-1.1q.28-5.8.28-5.89.46-6.71.64-9.75l.41-5.38q.09-.83.23-2.39t.18-2.39q0-.51.18-1.5t.18-1.45q.09-1.47.09-2.25a1.11,1.11,0,0,1,.87-1.1,6.53,6.53,0,0,1,3.54.18l.32.09a2.09,2.09,0,0,1,1,.6,2.41,2.41,0,0,1,.11,1.15q0,.78-.21,2.23t-.21,1.68q-.09,1.15-.3,3.38t-.3,3.24q0,.55-.18,2.58a1,1,0,0,0,.07.62.94.94,0,0,0,.58.25,21.17,21.17,0,0,0,3.08.14q.64,0,.69-.55a21.72,21.72,0,0,0,.14-2.39q0-1.24.16-3.7t.16-3.7q0-.78,0-2.28t0-2.28a1.82,1.82,0,0,1,0-.51.6.6,0,0,1,.44-.58.72.72,0,0,1,.71.16,2.69,2.69,0,0,1,1.06,2.16q-.09,1.24-.12,3.47t-.07,3.11l-.28,5.52c0,.18,0,.46,0,.83s0,.64,0,.83q0,1-.09,3.06t-.09,3.06.14,8.1q0,.28,0,1a6.77,6.77,0,0,0,0,1.13.86.86,0,0,1-.55.74,1.39,1.39,0,0,1-1.47-.09,1.58,1.58,0,0,1-.55-1.43,12,12,0,0,0,.14-1.79q0-.6-.09-1.79a0,0,0,0,0,0,0Z"/><path d="M128.5,121.53a43.69,43.69,0,0,0-.46,6.53l-.14,7.87v5.15q0,1-.09,2.88t-.09,2.88q0,.46,0,1.38t0,1.38a1.15,1.15,0,0,1-.11.64,1.6,1.6,0,0,1-.53.32,8.18,8.18,0,0,1-2.16.55q-.6,0-1.75,0a.49.49,0,0,1-.46-.23,3.53,3.53,0,0,1-.51-1.89q0-.32.07-1c0-.43,0-.75,0-1q0-1.15.18-13.66,0-4.14.28-8.37,0-.83.18-2.55t.18-2.6q0-.6,0-1.79a1.17,1.17,0,0,1,.87-1.29,2.89,2.89,0,0,1,1.56-.18,5.72,5.72,0,0,1,2.25.69,1.86,1.86,0,0,1,.85.62,3,3,0,0,1,.16,1.22Q128.64,120.75,128.5,121.53Z"/><path d="M131,139a65.17,65.17,0,0,1,1.47-11.45,17.25,17.25,0,0,1,1.7-5.06,25,25,0,0,1,1.93-3.31A5.23,5.23,0,0,1,139.4,117a2.08,2.08,0,0,1,1.43.09.19.19,0,0,1,.12.07l.14.16.12.14-.12.14-.14.16a.19.19,0,0,1-.12.07l-.6.12-.6.12a4.45,4.45,0,0,0-2.48,2,10.12,10.12,0,0,0-.69,1.22q-.32.67-.69,1.59t-.55,1.33a9.23,9.23,0,0,0-.87,2.85q-.41,2.71-1,7.36,0,.09-.28,2.44a18.22,18.22,0,0,0,.23,4,6.94,6.94,0,0,0,1.84,3.45,2.71,2.71,0,0,0,2.3.74,6.23,6.23,0,0,0,2-.69,7.3,7.3,0,0,0,1.61-1.33,42.89,42.89,0,0,0,4.46-7l.28-.55q.32-.74,1-.46a.84.84,0,0,1,.23.09,1.54,1.54,0,0,1,.78.55,2.3,2.3,0,0,1,0,1.1,12.25,12.25,0,0,1-1.52,4.69q-2,3.4-2.71,4.55a12.46,12.46,0,0,1-5,4.51,3.94,3.94,0,0,1-4.6-.64,6.71,6.71,0,0,1-2-2.81.82.82,0,0,0-.23-.37,2.27,2.27,0,0,1-.46-1.29c-.06-.55-.12-1-.18-1.24v0Q131,142.19,131,139Z"/><path d="M161.16,140.64q.09-3.2.14-4.76a1.29,1.29,0,0,0-.11-.67c-.08-.11-.25-.16-.53-.16a22.35,22.35,0,0,1-3-.18q-.78-.14-.83.64-.41,5.71-.51,7,0,.74-.18,2.21t-.18,2.21a6.81,6.81,0,0,0,0,1.29l0,1.29a1.49,1.49,0,0,1-.11.55,1.33,1.33,0,0,1-.53.23,30.29,30.29,0,0,1-3.59.55,1.43,1.43,0,0,1-1.13-.41,1.33,1.33,0,0,1-.44-1.1q.28-5.8.28-5.89.46-6.71.64-9.75l.41-5.38q.09-.83.23-2.39t.18-2.39q0-.51.18-1.5t.18-1.45q.09-1.47.09-2.25a1.11,1.11,0,0,1,.87-1.1,6.53,6.53,0,0,1,3.54.18l.32.09a2.09,2.09,0,0,1,1,.6,2.41,2.41,0,0,1,.11,1.15q0,.78-.21,2.23t-.21,1.68q-.09,1.15-.3,3.38t-.3,3.24q0,.55-.18,2.58a1,1,0,0,0,.07.62.94.94,0,0,0,.58.25,21.17,21.17,0,0,0,3.08.14q.64,0,.69-.55a21.72,21.72,0,0,0,.14-2.39q0-1.24.16-3.7t.16-3.7q0-.78,0-2.28t0-2.28a1.82,1.82,0,0,1,0-.51.6.6,0,0,1,.44-.58.72.72,0,0,1,.71.16,2.69,2.69,0,0,1,1.06,2.16q-.09,1.24-.12,3.47t-.07,3.11l-.28,5.52c0,.18,0,.46,0,.83s0,.64,0,.83q0,1-.09,3.06t-.09,3.06.14,8.1q0,.28,0,1a6.77,6.77,0,0,0,0,1.13.86.86,0,0,1-.55.74,1.39,1.39,0,0,1-1.47-.09A1.58,1.58,0,0,1,161,149a12,12,0,0,0,.14-1.79q0-.6-.09-1.79a0,0,0,0,0,0,0Z"/><path d="M194.28,125.9,194,127l-.28,1.13q-.28.92-.74,2.85t-.74,2.85a38,38,0,0,1-1.29,4.65,7.33,7.33,0,0,1-.92,1.56,1.23,1.23,0,0,1-1.33.37q-.6-.18-.69-1.06-.23-1.75-.9-4.83t-.85-4.19q-.23-1.29-1.43-6.07,0-.18-.28-.83a4,4,0,0,0-.28,1.66q-.18,5.06-.18,7.54v4.74q.09,2,.09,3,0,3.08-.09,9.15a2.59,2.59,0,0,1-.09.6.61.61,0,0,1-.55.6,13.08,13.08,0,0,1-3.63,0,1,1,0,0,1-1-1.1c0-.37,0-.92,0-1.66a3,3,0,0,1,0-.3,3.27,3.27,0,0,0,0-.34q0-4,.14-12,0-3.63,0-5.47a76.25,76.25,0,0,1,1-11.27,1.77,1.77,0,0,1,.25-.76.87.87,0,0,1,.62-.25h.64a3.42,3.42,0,0,0,.64,0l.44,0a5.08,5.08,0,0,0,.58-.09,1,1,0,0,1,1.2.37,9.1,9.1,0,0,1,1.33,2.62,64.28,64.28,0,0,1,1.75,6.3q.69,3.4,1.75,8.46,0,.09.32,1.33l.28-.6.55-2.37.55-2.37.55-2.09q.37-1.4.55-2.14.23-.92.74-3.5.28-1.2.46-1.79.55-2.12.87-3.17a1.55,1.55,0,0,1,.46-.78,4.89,4.89,0,0,1,3.5-1.29,6,6,0,0,1,2.07.55q.83.28.69,1.56-.18,1.66-.23,2.48-.23,2.58-.46,11.78,0,1.79-.37,10.17l-.14,6a3.19,3.19,0,0,1-.11.83q-.07.14-.62.32l-.28.14a3.52,3.52,0,0,1-1,.48,7.69,7.69,0,0,1-1.27.25,7.79,7.79,0,0,0-1.06.18.55.55,0,0,1-.6-.28,1.79,1.79,0,0,1-.6-1.56q0-2.3.23-6.58v-.18q.28-7.77.28-8,0-2.07,0-6.26.09-2.21.14-3.27v-.87h-.09Q194.55,124.8,194.28,125.9Z"/><path d="M209.36,149l2.62-.39,2.62-.39h.18q.92-.09,1.15.14t.14,1.15a.62.62,0,0,1-.46.74l-.28,0-.28,0a45.23,45.23,0,0,0-5.66.74,7,7,0,0,1-1.22.12,8.05,8.05,0,0,0-1,.07q-1.2,0-1.84,0a1.58,1.58,0,0,1-1.79-1.38,3.11,3.11,0,0,1-.09-1.52q.6-3.73.92-8.51,0-.87.11-2.58t.12-2.53.41-6.12q0-1.43.23-4.28.14-1.75.32-5.24a1.2,1.2,0,0,1,.41-.83,3.91,3.91,0,0,1,2-.78l2-.16,2.32-.16a6.79,6.79,0,0,1,.9,0q.57,0,1,0a4,4,0,0,0,.87-.18h.41a1.91,1.91,0,0,1,.81.21,1.54,1.54,0,0,1,.11.81,1.83,1.83,0,0,1-.14.94c-.09.11-.4.18-.92.21q-2.39.09-3.59.18a.91.91,0,0,0-.58.18,1.46,1.46,0,0,0-.16.69l-.55,6.62s0,.89-.14,2.58l-.14,2.9q0,.64.14.76t.74,0l2.67-.28a1,1,0,0,1,.64.07,1.46,1.46,0,0,1,.28.67,1.52,1.52,0,0,1,.09.37c0,.43-.14.66-.51.69s-1,.12-1.75.18-1.58.12-2,.18-.51.32-.51.78-.06,1-.09,1.7,0,1.3,0,1.7q-.46,5.84-.64,6.81-.09.55-.21,1.7t-.16,1.38A1.25,1.25,0,0,0,209.36,149Z"/><path d="M217.23,150.14a7.82,7.82,0,0,1,.28-1.33q.37-1.15.87-3.33t.74-3.06q.28-1.1.69-3.15t.51-2.55q1.2-5.43,1.52-6.62l.39-1.36.46-1.59.39-1.33,1.24-5.11a3.1,3.1,0,0,0,0-.87,1.17,1.17,0,0,1,.64-1.47q.28-.14.85-.37a6.37,6.37,0,0,0,.81-.37,6.84,6.84,0,0,1,2.12-.28,1,1,0,0,1,1.2.78,4,4,0,0,1,.23.87q.69,6.35.92,8.83.23,2.12.6,5.75,0,.23.07.48t0,.55c0,.2,0,.36,0,.48q.37,3.41.55,5.06.18,2.16.55,6.39a10.67,10.67,0,0,1,0,1.17v1.22a.89.89,0,0,1-.41.69,10,10,0,0,1-3.08,1.29.44.44,0,0,0-.32.14.83.83,0,0,1-.92,0,1,1,0,0,1-.55-1,64,64,0,0,0-.64-8.6q-.09-.55-.21-1.61t-.16-1.61a1.66,1.66,0,0,0-.23-.71q-.14-.16-.64-.11t-3.59.23a.88.88,0,0,0-.87.83q-.18,1-1.2,5.43-.18.65-.53,1.93t-.48,1.93a20.49,20.49,0,0,1-.78,2.76q-.46.41-.6.28c0-.06-.06-.09-.09-.09a.13.13,0,0,0,0,.09v0l-.28.14A3.1,3.1,0,0,1,217.23,150.14ZM222,136.21l1.29-.14q.41,0,1.22-.07l1.22,0q.46,0,.55-.11c.06-.08.06-.27,0-.58s-.14-1.07-.23-1.91-.15-1.48-.18-1.91q-.09-1-.3-3.06t-.34-3.06a1.62,1.62,0,0,0-.07-.39,1.61,1.61,0,0,1-.07-.34A55.59,55.59,0,0,0,222,136.21Z"/><path d="M249.11,142.46q0-1,.11-3t.12-3q0-1.06.16-3.1t.16-3q.28-4,.37-6.16.09-1.56.18-4.51a4.53,4.53,0,0,1,0-.78q.09-1.15,1.1-1.1l3.54.46a.64.64,0,0,1,.64.74,3,3,0,0,1,0,.87q0,1-.14,2.94l-.14,3.33q-.09,2.23-.18,3.34,0,.78-.09,2.3t-.14,2.3q0,.78,0,2.3v2.3q0,.87-.09,3.54t-.09,4.14q0,.32-.07,2.07a5.77,5.77,0,0,0,.12,2.07.83.83,0,0,1-.78,1.15l-.67.09-.76.09-.64.09a5.63,5.63,0,0,1-2.67-.74,1.09,1.09,0,0,1-.51-.74q-.46-1.38-1.29-4.14-.18-.6-.74-2.48t-.83-2.9l-.48-1.93-.55-2.23q-.3-1.22-.48-1.91-1.29-5.06-2-7.59a21.08,21.08,0,0,0-.83-2.62q0,.46,0,1.4t-.09,1.45q0,.92-.11,2.53t-.12,2.92q0,1.31,0,2.51,0,2,.09,5.93.09,5.52.14,8.33a4,4,0,0,1-.09.74.65.65,0,0,1-.6.51l-.37,0-.39.07a1.67,1.67,0,0,1-.35,0,2.77,2.77,0,0,0-.6,0h-1.2a1.42,1.42,0,0,1-.51,0,1.68,1.68,0,0,1-1.15-.48,1.92,1.92,0,0,1-.28-1.31q.09-4.23.09-6.35,0-.87,0-3.63t0-4.28q0-1,.23-6.16.09-2.71,0-5.38,0-1.56-.18-4.78a1.71,1.71,0,0,1,.16-1,1.3,1.3,0,0,1,.81-.44,5.44,5.44,0,0,1,3.27.18,4.72,4.72,0,0,1,1.38.69,2.53,2.53,0,0,1,.69,1.15q.32,1.15.94,3.47t.9,3.52l.28.81c.15.44.26.79.32,1q.37,1.52,1.15,4.55t1.2,4.51q.32,1.29,1,3.66t.78,2.78a1.07,1.07,0,0,0,.23.37h.14Q249.11,143.43,249.11,142.46Z"/><path d="M276.11,134.55a6.27,6.27,0,0,1,.14,1,8.06,8.06,0,0,0,.09.87,30.87,30.87,0,0,1-1.29,7.31,9.69,9.69,0,0,1-.46,1.13,8.7,8.7,0,0,1-.48.9l-.67,1q-.46.69-.6.87a12.81,12.81,0,0,1-3.63,3.63l-.09,0a4.35,4.35,0,0,1-1,.48,9.48,9.48,0,0,1-1.77.34,6.81,6.81,0,0,1-2.74-.34,11.75,11.75,0,0,1-3.24-1.63,9.29,9.29,0,0,1-1.47-3.06,12.91,12.91,0,0,1-.55-2.87v-1.15l.14-.69a12.51,12.51,0,0,1,.46-1.56q.28-.69,1-.28c.21.09.32.21.32.37l0,.18q0,.14-.14.48a5.5,5.5,0,0,0-.14.67,5.32,5.32,0,0,0-.14,2.48,5.15,5.15,0,0,0,4.65,5.06,3.48,3.48,0,0,0,2.9-.58,4.73,4.73,0,0,0,1.61-2.58,18.43,18.43,0,0,0,.6-3.24,22.51,22.51,0,0,0,0-3.22,13.46,13.46,0,0,0-.18-2.3l-.14-.69q-.87-3.73-3.73-4.51l-2.07-.55a4.52,4.52,0,0,1-2.85-4.37,10.75,10.75,0,0,1,.74-3.5,12.4,12.4,0,0,1,1.61-3.13,7.49,7.49,0,0,1,4.32-2.94,23.6,23.6,0,0,1,2.9-.55,5.37,5.37,0,0,1,3.27,1,5.81,5.81,0,0,1,1.61,1.33,2.07,2.07,0,0,1,.23.41c.06.31.06.49,0,.55a.45.45,0,0,1-.41.23,1.56,1.56,0,0,1-.6-.41,8.18,8.18,0,0,0-2.25-1.43,3.91,3.91,0,0,0-3.08,0,10.36,10.36,0,0,0-2.76,1.24,6.86,6.86,0,0,0-2.76,3.4,10.86,10.86,0,0,0-1,2.94,2.49,2.49,0,0,0-.09.51,1.73,1.73,0,0,0,.25,1.22,1,1,0,0,0,.94.25,25,25,0,0,1,3.31-.14q.46,0,1.59-.09a11.78,11.78,0,0,1,1.73,0,5.51,5.51,0,0,1,4.19,2.25A8.22,8.22,0,0,1,276.11,134.55Z"/><path d="M291.2,113.76a3.53,3.53,0,0,0,.23-.44l.23-.48a1.52,1.52,0,0,1,1-.83,1.67,1.67,0,0,1,1.31.18.59.59,0,0,1,.18.92.27.27,0,0,1-.14.23,3.51,3.51,0,0,0-.69,3.4q0,.09.69,1.7l.16.32.16.32a.81.81,0,0,1-.37,1.1.86.86,0,0,1-1.2-.14,9.37,9.37,0,0,1-.83-1.29,11.51,11.51,0,0,0-.46-1.29A8.41,8.41,0,0,1,291.2,113.76Zm4.74,0a3.38,3.38,0,0,0,.23-.44l.23-.48a1.52,1.52,0,0,1,1-.83,1.67,1.67,0,0,1,1.31.18.59.59,0,0,1,.18.92.27.27,0,0,1-.14.23,3.51,3.51,0,0,0-.69,3.4q0,.09.69,1.7l.16.32.16.32a.81.81,0,0,1-.37,1.1.86.86,0,0,1-1.2-.14,9.27,9.27,0,0,1-.83-1.29,11.73,11.73,0,0,0-.46-1.29A8.42,8.42,0,0,1,295.94,113.76Z"/><path d="M309.46,132.8a9.39,9.39,0,0,1,1.52-.18q1,0,.74,1.06-.32,1.29-1.47,1.15-.23,0-1.84.23c-.34,0-.51.25-.51.64q0,3.77-.23,11.55,0,.46,0,1.4c0,.63,0,1.1,0,1.4a1.58,1.58,0,0,1-.09.64.6.6,0,0,1-.21.25,2.52,2.52,0,0,1-.62.16,11.83,11.83,0,0,1-1.89.18q-1.24,0-1.61.09a.6.6,0,0,1-.74-.37,4.2,4.2,0,0,1-.46-1.7q0-.87,0-2.67t0-2.71q.37-10.9.37-12.33,0-.83.18-5.93l.41-6.49q.09-.78.51-.92a11.73,11.73,0,0,1,1.2-.37l.9,0c.41,0,.73,0,.94,0a10.92,10.92,0,0,0,1.66-.09,7.94,7.94,0,0,0,1-.09c.44-.06.73-.09.85-.09q.46-.09,1.47-.18l.6-.09.41,0q.09,0,1.43-.28a4.9,4.9,0,0,1,1.1-.09.53.53,0,0,1,.37.09c.15.06.2.29.14.69a2.21,2.21,0,0,0,0,.74c.06.25-.06.4-.37.46l-1,.16-1.13.16q-2.44.18-3.5.32a1.59,1.59,0,0,0-.83.28,1.49,1.49,0,0,0-.23.87q0,1.15-.21,3.54t-.25,3.63q-.14,2.07-.14,4c0,.09,0,.23,0,.41s0,.34,0,.46Q309.14,132.8,309.46,132.8Z"/><path d="M326.3,135.35a4.4,4.4,0,0,0-.64.48,1.25,1.25,0,0,0-.32.6,12,12,0,0,0-.09,1.24q-.18,3.27-.46,9.8l-.14,2.76a1,1,0,0,1-.6.87,10.29,10.29,0,0,1-1.08.41q-.58.18-1.31.34l-1.1.25a.89.89,0,0,1-.58,0,1.39,1.39,0,0,1-.39-.55,2.09,2.09,0,0,0-.32-.51,1.85,1.85,0,0,1-.28-1.33l.41-5.24q.37-5.06.51-7.59.14-1.56.32-4.69.37-3.82.51-6,0-.92,0-2.76,0-.28,0-1.13t.07-1.31a1.23,1.23,0,0,0-.37-1.06.66.66,0,0,1-.37-.78.78.78,0,0,1,.64-.64q.46-.09,1.27-.3l1.47-.37,1.26-.3a24.92,24.92,0,0,1,4.69-.46,6.82,6.82,0,0,1,3,.78,3.91,3.91,0,0,1,1.56,1.79,7.62,7.62,0,0,1,.51,5.7,10.43,10.43,0,0,1-2.44,4.46q-.37.41-1,1.22t-.74.94q-.18.23-.64.69a1.3,1.3,0,0,0-.46,1.33l.48,2.23q.39,1.82.62,2.83t2.07,8.65q.09.28.34,1.1t.34,1.29a1.7,1.7,0,0,1-.16,1.31,1.28,1.28,0,0,1-.94.71.28.28,0,0,1-.37-.09,2.47,2.47,0,0,1-.92-1.38q-.28-1.66-.67-3.45t-.92-4q-.53-2.23-.76-3.38-.18-.83-.6-2.32t-.55-2l-.28-.6A4.19,4.19,0,0,1,326.3,135.35Zm-.6-2.37.6-.41A5.33,5.33,0,0,0,327,132a33,33,0,0,0,4.37-5,9.39,9.39,0,0,0,1.52-5.06q.14-2.53-2.21-2.85-.69,0-4,0a2.21,2.21,0,0,0-.55.23,4,4,0,0,1,.35,1,8.67,8.67,0,0,1-.07,1.2.63.63,0,0,0,0,.28v.28q-.37,4.6-.51,6.85-.14,1.29-.32,3.86A.75.75,0,0,1,325.7,133Z"/><path d="M344,121.53a43.55,43.55,0,0,0-.46,6.53l-.14,7.87v5.15q0,1-.09,2.88t-.09,2.88q0,.46,0,1.38c0,.61,0,1.07,0,1.38a1.15,1.15,0,0,1-.12.64,1.6,1.6,0,0,1-.53.32,8.18,8.18,0,0,1-2.16.55q-.6,0-1.75,0a.49.49,0,0,1-.46-.23,3.52,3.52,0,0,1-.51-1.89q0-.32.07-1c0-.43,0-.75,0-1q0-1.15.18-13.66,0-4.14.28-8.37,0-.83.18-2.55t.18-2.6c0-.4,0-1,0-1.79a1.17,1.17,0,0,1,.87-1.29,2.88,2.88,0,0,1,1.56-.18,5.71,5.71,0,0,1,2.25.69,1.86,1.86,0,0,1,.85.62,3,3,0,0,1,.16,1.22Q344.14,120.75,344,121.53Z"/><path d="M352.88,149l2.62-.39,2.62-.39h.18q.92-.09,1.15.14t.14,1.15a.62.62,0,0,1-.46.74l-.28,0-.28,0a45.22,45.22,0,0,0-5.66.74,7,7,0,0,1-1.22.12,8.06,8.06,0,0,0-1,.07q-1.2,0-1.84,0a1.58,1.58,0,0,1-1.79-1.38,3.13,3.13,0,0,1-.09-1.52q.6-3.73.92-8.51,0-.87.12-2.58t.12-2.53.41-6.12q0-1.43.23-4.28.14-1.75.32-5.24a1.19,1.19,0,0,1,.41-.83,3.91,3.91,0,0,1,2-.78l2-.16,2.32-.16a6.77,6.77,0,0,1,.9,0q.58,0,1,0a4,4,0,0,0,.87-.18H359a1.92,1.92,0,0,1,.81.21,1.54,1.54,0,0,1,.11.81,1.84,1.84,0,0,1-.14.94c-.09.11-.4.18-.92.21q-2.39.09-3.59.18a.91.91,0,0,0-.58.18,1.45,1.45,0,0,0-.16.69l-.55,6.62s0,.89-.14,2.58l-.14,2.9q0,.64.14.76t.74,0l2.67-.28a1,1,0,0,1,.64.07,1.46,1.46,0,0,1,.28.67,1.51,1.51,0,0,1,.09.37c0,.43-.14.66-.51.69s-1,.12-1.75.18-1.58.12-2,.18-.51.32-.51.78-.06,1-.09,1.7,0,1.3,0,1.7q-.46,5.84-.64,6.81-.09.55-.21,1.7t-.16,1.38A1.25,1.25,0,0,0,352.88,149Z"/><path d="M376.39,142.46q0-1,.12-3t.12-3q0-1.06.16-3.1t.16-3q.28-4,.37-6.16.09-1.56.18-4.51a4.48,4.48,0,0,1,0-.78q.09-1.15,1.1-1.1l3.54.46a.64.64,0,0,1,.64.74,3,3,0,0,1,0,.87q0,1-.14,2.94l-.14,3.33q-.09,2.23-.18,3.34,0,.78-.09,2.3t-.14,2.3q0,.78,0,2.3v2.3q0,.87-.09,3.54t-.09,4.14q0,.32-.07,2.07a5.77,5.77,0,0,0,.12,2.07.83.83,0,0,1-.78,1.15l-.67.09-.76.09-.64.09a5.63,5.63,0,0,1-2.67-.74,1.09,1.09,0,0,1-.51-.74q-.46-1.38-1.29-4.14-.18-.6-.74-2.48t-.83-2.9l-.48-1.93-.55-2.23q-.3-1.22-.48-1.91-1.29-5.06-2-7.59a21.16,21.16,0,0,0-.83-2.62q0,.46,0,1.4t-.09,1.45q0,.92-.11,2.53t-.12,2.92q0,1.31,0,2.51,0,2,.09,5.93.09,5.52.14,8.33a3.94,3.94,0,0,1-.09.74.65.65,0,0,1-.6.51l-.37,0-.39.07a1.68,1.68,0,0,1-.35,0,2.76,2.76,0,0,0-.6,0h-1.2a1.42,1.42,0,0,1-.51,0,1.68,1.68,0,0,1-1.15-.48,1.92,1.92,0,0,1-.28-1.31q.09-4.23.09-6.35,0-.87,0-3.63t0-4.28q0-1,.23-6.16.09-2.71,0-5.38,0-1.56-.18-4.78a1.71,1.71,0,0,1,.16-1,1.3,1.3,0,0,1,.8-.44,5.44,5.44,0,0,1,3.27.18,4.73,4.73,0,0,1,1.38.69,2.53,2.53,0,0,1,.69,1.15q.32,1.15.94,3.47t.9,3.52l.28.81c.15.44.26.79.32,1q.37,1.52,1.15,4.55t1.2,4.51q.32,1.29,1,3.66t.78,2.78a1.08,1.08,0,0,0,.23.37h.14Q376.39,143.43,376.39,142.46Z"/><path d="M386.37,120.52l-.64.09a.92.92,0,0,1-.6-.18.6.6,0,0,1-.41-.51c0-.09.14-.28.41-.55a5.54,5.54,0,0,1,1-.46,8.87,8.87,0,0,0,1.66-.87,2.83,2.83,0,0,1,1.75-.55,51.49,51.49,0,0,1,6.67.14,4.36,4.36,0,0,1,2.25,1q.28.23.92.67c.43.29.74.51.92.67a6,6,0,0,1,1.43,2.35,11,11,0,0,1,.51,5.89,16,16,0,0,1-1.52,4.74q-.51.92-2.35,5.52a36.15,36.15,0,0,1-2.62,5.34l-2.9,4.74q-.78,1.29-1.89,2.9a.59.59,0,0,1-.6.37,2.84,2.84,0,0,0-.44-.09l-.46-.07a.84.84,0,0,1-.37-.18.94.94,0,0,1-.3-.39l-.41-.18-.67,0a5.1,5.1,0,0,1-.67-.07q-1.2-.09-1.06-1.43,0-.69.16-2t.16-2q0-.6.09-1.63t.09-1.91q0-.87.09-1.66.09-1.1.23-3.31t.23-3.31q.18-3.5.23-5.52,0-2.35,0-7a3.51,3.51,0,0,0,0-.64Q386.92,120.43,386.37,120.52Zm5.7,25,.23-.28q.55-1,.83-1.47a46.62,46.62,0,0,0,3.73-7.54q.18-.55,2.21-5a12.38,12.38,0,0,0,1.29-6.49q-.14-3.63-3.91-5.24a9.63,9.63,0,0,0-2.62-.32c-.37,0-.61,0-.71.14a1.39,1.39,0,0,0-.16.83q-.09,2.07-.18,6.3,0,.83,0,2.44t-.09,2.44q0,1.06-.23,3.22t-.23,3.27q-.28,4.88-.41,7.27a2.52,2.52,0,0,0,0,.78C391.86,145.77,392,145.65,392.07,145.5Z"/><path d="M409.53,116.06c0,.4-.08.67-.09.83s-.05.38-.12.69a4,4,0,0,1-.23.78,3.46,3.46,0,0,1-.37.64,4.45,4.45,0,0,0-.32.37,4.62,4.62,0,0,1-.32.37,1.51,1.51,0,0,1-2.39,0,.6.6,0,0,1,0-1l.18-.18a3.51,3.51,0,0,0,1.7-3s0-.64-.14-1.84l-.14-.69a.77.77,0,0,1,.69-1,.8.8,0,0,1,1.1.51,7.08,7.08,0,0,1,.37,1.43c0,.15,0,.38,0,.69s0,.54,0,.69S409.58,115.66,409.53,116.06Z"/><path d="M430.16,134.55a6.16,6.16,0,0,1,.14,1,8,8,0,0,0,.09.87,30.87,30.87,0,0,1-1.29,7.31,9.78,9.78,0,0,1-.46,1.13,8.78,8.78,0,0,1-.48.9l-.67,1q-.46.69-.6.87a12.81,12.81,0,0,1-3.63,3.63l-.09,0a4.34,4.34,0,0,1-1,.48,9.46,9.46,0,0,1-1.77.34,6.81,6.81,0,0,1-2.74-.34,11.76,11.76,0,0,1-3.24-1.63,9.3,9.3,0,0,1-1.47-3.06,12.91,12.91,0,0,1-.55-2.87v-1.15l.14-.69a12.68,12.68,0,0,1,.46-1.56q.28-.69,1-.28.32.14.32.37l0,.18q0,.14-.14.48a5.41,5.41,0,0,0-.14.67,5.33,5.33,0,0,0-.14,2.48,5.15,5.15,0,0,0,4.65,5.06,3.48,3.48,0,0,0,2.9-.58,4.73,4.73,0,0,0,1.61-2.58,18.47,18.47,0,0,0,.6-3.24,22.44,22.44,0,0,0,0-3.22,13.51,13.51,0,0,0-.18-2.3l-.14-.69q-.87-3.73-3.73-4.51l-2.07-.55a4.52,4.52,0,0,1-2.85-4.37,10.76,10.76,0,0,1,.74-3.5,12.41,12.41,0,0,1,1.61-3.13,7.49,7.49,0,0,1,4.32-2.94,23.59,23.59,0,0,1,2.9-.55,5.37,5.37,0,0,1,3.27,1A5.81,5.81,0,0,1,429.1,120a2,2,0,0,1,.23.41c.06.31.06.49,0,.55a.45.45,0,0,1-.41.23,1.56,1.56,0,0,1-.6-.41,8.19,8.19,0,0,0-2.25-1.43,3.91,3.91,0,0,0-3.08,0,10.36,10.36,0,0,0-2.76,1.24,6.87,6.87,0,0,0-2.76,3.4,10.89,10.89,0,0,0-1,2.94,2.53,2.53,0,0,0-.09.51,1.73,1.73,0,0,0,.25,1.22,1,1,0,0,0,.94.25,25,25,0,0,1,3.31-.14q.46,0,1.59-.09a11.78,11.78,0,0,1,1.73,0,5.51,5.51,0,0,1,4.19,2.25A8.21,8.21,0,0,1,430.16,134.55Z"/><path d="M445.89,120.52l-.64.09a.92.92,0,0,1-.6-.18.6.6,0,0,1-.41-.51c0-.09.14-.28.41-.55a5.54,5.54,0,0,1,1-.46,8.87,8.87,0,0,0,1.66-.87,2.83,2.83,0,0,1,1.75-.55,51.49,51.49,0,0,1,6.67.14,4.36,4.36,0,0,1,2.25,1q.28.23.92.67c.43.29.74.51.92.67a6,6,0,0,1,1.43,2.35,11,11,0,0,1,.51,5.89,16,16,0,0,1-1.52,4.74q-.51.92-2.35,5.52a36.15,36.15,0,0,1-2.62,5.34l-2.9,4.74q-.78,1.29-1.89,2.9a.59.59,0,0,1-.6.37,2.84,2.84,0,0,0-.44-.09l-.46-.07a.84.84,0,0,1-.37-.18.94.94,0,0,1-.3-.39l-.41-.18-.67,0a5.1,5.1,0,0,1-.67-.07q-1.2-.09-1.06-1.43,0-.69.16-2t.16-2q0-.6.09-1.63t.09-1.91q0-.87.09-1.66.09-1.1.23-3.31t.23-3.31q.18-3.5.23-5.52,0-2.35,0-7a3.51,3.51,0,0,0,0-.64Q446.44,120.43,445.89,120.52Zm5.7,25,.23-.28q.55-1,.83-1.47a46.62,46.62,0,0,0,3.73-7.54q.18-.55,2.21-5a12.38,12.38,0,0,0,1.29-6.49q-.14-3.63-3.91-5.24a9.63,9.63,0,0,0-2.62-.32c-.37,0-.61,0-.71.14a1.39,1.39,0,0,0-.16.83q-.09,2.07-.18,6.3,0,.83,0,2.44t-.09,2.44q0,1.06-.23,3.22t-.23,3.27q-.28,4.88-.41,7.27a2.52,2.52,0,0,0,0,.78C451.38,145.77,451.48,145.65,451.6,145.5Z"/><path d="M460.43,150.14a7.86,7.86,0,0,1,.28-1.33q.37-1.15.87-3.33t.74-3.06q.28-1.1.69-3.15t.51-2.55q1.2-5.43,1.52-6.62l.39-1.36.46-1.59.39-1.33,1.24-5.11a3.08,3.08,0,0,0,0-.87,1.17,1.17,0,0,1,.64-1.47q.28-.14.85-.37a6.38,6.38,0,0,0,.81-.37,6.84,6.84,0,0,1,2.12-.28,1,1,0,0,1,1.2.78,4,4,0,0,1,.23.87q.69,6.35.92,8.83.23,2.12.6,5.75c0,.15.05.31.07.48s0,.35,0,.55,0,.36,0,.48q.37,3.41.55,5.06.18,2.16.55,6.39a10.67,10.67,0,0,1,0,1.17v1.22a.89.89,0,0,1-.41.69,10,10,0,0,1-3.08,1.29.44.44,0,0,0-.32.14.83.83,0,0,1-.92,0,1,1,0,0,1-.55-1,63.92,63.92,0,0,0-.64-8.6q-.09-.55-.21-1.61t-.16-1.61a1.67,1.67,0,0,0-.23-.71q-.14-.16-.64-.11t-3.59.23a.88.88,0,0,0-.87.83q-.18,1-1.2,5.43-.18.65-.53,1.93t-.48,1.93a20.67,20.67,0,0,1-.78,2.76q-.46.41-.6.28c0-.06-.06-.09-.09-.09a.13.13,0,0,0,0,.09v0l-.28.14A3.11,3.11,0,0,1,460.43,150.14Zm4.78-13.94,1.29-.14q.41,0,1.22-.07l1.22,0c.31,0,.49,0,.55-.11s.06-.27,0-.58-.14-1.07-.23-1.91-.15-1.48-.18-1.91q-.09-1-.3-3.06t-.34-3.06a1.62,1.62,0,0,0-.07-.39,1.62,1.62,0,0,1-.07-.34A55.59,55.59,0,0,0,465.21,136.21Z"/><path d="M485.57,130.92q.3-1.06.44-1.61.41-1.79,1.13-5.13t1-4.71q.37-1.75.55-2.67a1.32,1.32,0,0,1,1-1.2,3.54,3.54,0,0,1,3,.74,2.59,2.59,0,0,1,.46.32l.37.32a1.81,1.81,0,0,1,.64,2.07q-1.61,6.17-2.21,9-.23,1.15-.55,2.42t-.74,2.81q-.41,1.54-.64,2.37-.51,2.07-2,8.19-.18.83-.53,2.51t-.53,2.51l-.69,2.81c-.12.31-.25.46-.37.46a3.92,3.92,0,0,1-1.33.18,22.8,22.8,0,0,1-2.94-.51q-.37-.09-.62-.8a2.19,2.19,0,0,1-.12-1.27l1.52-6.35q.51-2.07,1.52-6.3a4.44,4.44,0,0,0,0-1.79L482.74,131q-.28-1.06-.83-3.08t-.83-3.08a.62.62,0,0,0,0-.14.61.61,0,0,1,0-.14q-.28-.73-.85-2.21t-.85-2.21q-.23-.6-.37-1.06a1.21,1.21,0,0,1,.46-1.43q.55-.41,1.06.32a3.14,3.14,0,0,1,.55,1q.41,1.24,1.33,3.73a21.89,21.89,0,0,1,.76,2.42q.44,1.63.48,1.77.46,1.66,1.38,4.88a2.07,2.07,0,0,0,.23.41Q485.27,132,485.57,130.92Z"/><path d="M500.82,115.92v.83c0,.15,0,.38,0,.69a3.48,3.48,0,0,1-.46,1.47l-.55.83a1.56,1.56,0,0,1-1.13.6,1.82,1.82,0,0,1-1.26-.41.6.6,0,0,1,0-1l.18-.18a3.65,3.65,0,0,0,1.38-3.22,13.32,13.32,0,0,0-.37-1.79,1.06,1.06,0,0,0-.09-.37,1,1,0,0,1-.09-.32,1,1,0,0,1,1.75-.64,9.24,9.24,0,0,1,.51,1.38c0,.15.07.38.12.69s.08.54.11.69Zm4.88,0v.83c0,.15,0,.38,0,.69a3.48,3.48,0,0,1-.46,1.47,2.08,2.08,0,0,1-.16.25l-.21.3-.18.28a1.56,1.56,0,0,1-1.13.6,1.82,1.82,0,0,1-1.26-.41.6.6,0,0,1,0-1l.18-.18a3.65,3.65,0,0,0,1.38-3.22q0-.32-.16-1t-.16-.83a4.41,4.41,0,0,0-.23-.69,1,1,0,0,1,1.75-.64,9.24,9.24,0,0,1,.51,1.38c0,.15.07.38.12.69s.08.54.11.69Z"/></svg>