<svg id="Layer_1" data-name="Layer 1" xmlns="http://www.w3.org/2000/svg" viewBox="0 0 579.27 217.81"><title>4</title><path d="M54.23,25a4.31,4.31,0,0,0-.64.48,1.26,1.26,0,0,0-.32.6,12.11,12.11,0,0,0-.09,1.24q-.18,3.27-.46,9.8l-.14,2.76a1,1,0,0,1-.6.87,10,10,0,0,1-1.08.41q-.58.18-1.31.34l-1.1.25a.88.88,0,0,1-.57,0,1.39,1.39,0,0,1-.39-.55,2,2,0,0,0-.32-.51,1.85,1.85,0,0,1-.28-1.33l.41-5.24q.37-5.06.51-7.59.14-1.56.32-4.69.37-3.82.51-6,0-.92,0-2.76c0-.18,0-.56,0-1.13s0-1,.07-1.31a1.23,1.23,0,0,0-.37-1.06.66.66,0,0,1-.37-.78.78.78,0,0,1,.64-.64c.31-.06.73-.16,1.27-.3l1.47-.37,1.26-.3a24.91,24.91,0,0,1,4.69-.46,6.83,6.83,0,0,1,3,.78A3.92,3.92,0,0,1,62,9.29a7.62,7.62,0,0,1,.51,5.7A10.42,10.42,0,0,1,60,19.46q-.37.41-1,1.22c-.43.54-.67.85-.74.94s-.34.38-.64.69a1.3,1.3,0,0,0-.46,1.33l.48,2.23q.39,1.82.62,2.83t2.07,8.65q.09.28.35,1.1T61,39.74a1.7,1.7,0,0,1-.16,1.31,1.29,1.29,0,0,1-.94.71.28.28,0,0,1-.37-.09,2.47,2.47,0,0,1-.92-1.38q-.28-1.66-.67-3.45t-.92-4q-.53-2.23-.76-3.38-.18-.83-.6-2.32t-.55-2l-.28-.6A4.25,4.25,0,0,1,54.23,25Zm-.6-2.37.6-.41a5.35,5.35,0,0,0,.69-.55,33.05,33.05,0,0,0,4.37-5,9.39,9.39,0,0,0,1.52-5.06Q60.95,9,58.6,8.69q-.69,0-4,0A2.19,2.19,0,0,0,54,9a4,4,0,0,1,.35,1,8.64,8.64,0,0,1-.07,1.2.64.64,0,0,0,0,.28v.28q-.37,4.6-.51,6.85-.14,1.29-.32,3.86A.72.72,0,0,1,53.63,22.59Z"/><path d="M71.34,38.64,74,38.25l2.62-.39h.18q.92-.09,1.15.14t.14,1.15a.62.62,0,0,1-.46.74l-.28,0-.28,0a45.36,45.36,0,0,0-5.66.74,7.17,7.17,0,0,1-1.22.12,8.12,8.12,0,0,0-1,.07q-1.2,0-1.84,0a1.58,1.58,0,0,1-1.79-1.38A3.11,3.11,0,0,1,65.41,38q.6-3.73.92-8.51,0-.87.11-2.58t.12-2.53T67,18.26q0-1.43.23-4.28.14-1.75.32-5.24a1.19,1.19,0,0,1,.41-.83,3.91,3.91,0,0,1,2-.78l2-.16,2.32-.16a6.79,6.79,0,0,1,.9,0,10.31,10.31,0,0,0,1,0A4,4,0,0,0,77,6.53h.41a1.9,1.9,0,0,1,.81.21,1.53,1.53,0,0,1,.11.8,1.83,1.83,0,0,1-.14.94q-.14.16-.92.21-2.39.09-3.59.18a.92.92,0,0,0-.58.18,1.46,1.46,0,0,0-.16.69l-.55,6.62s0,.89-.14,2.58l-.14,2.9q0,.64.14.76t.74,0l2.67-.28a1,1,0,0,1,.64.07,1.46,1.46,0,0,1,.28.67,1.52,1.52,0,0,1,.09.37c0,.43-.14.66-.51.69s-1,.12-1.75.18-1.58.12-2,.18-.51.32-.51.78-.06,1-.09,1.7,0,1.3,0,1.7q-.46,5.84-.64,6.81-.09.55-.21,1.7t-.16,1.38A1.25,1.25,0,0,0,71.34,38.64Z"/><path d="M82.25,10.12l-.64.09A.93.93,0,0,1,81,10a.6.6,0,0,1-.41-.51q0-.14.41-.55a5.57,5.57,0,0,1,1-.46,8.74,8.74,0,0,0,1.66-.87,2.83,2.83,0,0,1,1.75-.55,51.49,51.49,0,0,1,6.67.14,4.37,4.37,0,0,1,2.25,1q.28.23.92.67t.92.67a6,6,0,0,1,1.43,2.35,11,11,0,0,1,.51,5.89,16,16,0,0,1-1.52,4.74q-.51.92-2.35,5.52a36,36,0,0,1-2.62,5.34l-2.9,4.74q-.78,1.29-1.89,2.9a.59.59,0,0,1-.6.37,2.93,2.93,0,0,0-.44-.09l-.46-.07A.82.82,0,0,1,85,41a.93.93,0,0,1-.3-.39l-.41-.18-.67,0a5.24,5.24,0,0,1-.67-.07q-1.2-.09-1.06-1.43,0-.69.16-2t.16-2q0-.6.09-1.63t.09-1.91q0-.87.09-1.66.09-1.1.23-3.31t.23-3.31q.18-3.5.23-5.52,0-2.35,0-7a3.52,3.52,0,0,0,0-.64C82.92,10,82.61,10.06,82.25,10.12Zm5.7,25,.23-.28q.55-1,.83-1.47a46.63,46.63,0,0,0,3.73-7.54q.18-.55,2.21-5a12.39,12.39,0,0,0,1.29-6.49q-.14-3.63-3.91-5.24a9.65,9.65,0,0,0-2.62-.32q-.55,0-.71.14a1.39,1.39,0,0,0-.16.83q-.09,2.07-.18,6.3,0,.83,0,2.44t-.09,2.44q0,1.06-.23,3.22T88,27.42q-.28,4.88-.41,7.27a2.54,2.54,0,0,0,0,.78C87.73,35.37,87.83,35.25,88,35.1Z"/><path d="M120.61,25a4.31,4.31,0,0,0-.64.48,1.26,1.26,0,0,0-.32.6,12.11,12.11,0,0,0-.09,1.24q-.18,3.27-.46,9.8L119,39.84a1,1,0,0,1-.6.87,10,10,0,0,1-1.08.41q-.58.18-1.31.34l-1.1.25a.88.88,0,0,1-.57,0,1.39,1.39,0,0,1-.39-.55,2,2,0,0,0-.32-.51,1.85,1.85,0,0,1-.28-1.33l.41-5.24q.37-5.06.51-7.59.14-1.56.32-4.69.37-3.82.51-6,0-.92,0-2.76c0-.18,0-.56,0-1.13s0-1,.07-1.31a1.23,1.23,0,0,0-.37-1.06.66.66,0,0,1-.37-.78.78.78,0,0,1,.64-.64c.31-.06.73-.16,1.27-.3l1.47-.37,1.26-.3a24.91,24.91,0,0,1,4.69-.46,6.83,6.83,0,0,1,3,.78,3.92,3.92,0,0,1,1.56,1.79,7.62,7.62,0,0,1,.51,5.7,10.42,10.42,0,0,1-2.44,4.46q-.37.41-1,1.22c-.43.54-.67.85-.74.94s-.34.38-.64.69a1.3,1.3,0,0,0-.46,1.33l.48,2.23q.39,1.82.62,2.83t2.07,8.65q.09.28.35,1.1t.34,1.29a1.7,1.7,0,0,1-.16,1.31,1.29,1.29,0,0,1-.94.71.28.28,0,0,1-.37-.09A2.47,2.47,0,0,1,125,40.3q-.28-1.66-.67-3.45t-.92-4q-.53-2.23-.76-3.38-.18-.83-.6-2.32t-.55-2l-.28-.6A4.25,4.25,0,0,1,120.61,25Zm-.6-2.37.6-.41a5.35,5.35,0,0,0,.69-.55,33.05,33.05,0,0,0,4.37-5,9.39,9.39,0,0,0,1.52-5.06Q127.33,9,125,8.69q-.69,0-4,0a2.19,2.19,0,0,0-.55.23,4,4,0,0,1,.35,1,8.64,8.64,0,0,1-.07,1.2.64.64,0,0,0,0,.28v.28q-.37,4.6-.51,6.85-.14,1.29-.32,3.86A.72.72,0,0,1,120,22.59Z"/><path d="M132.48,30.13q-.46-4-.51-4.65a25.36,25.36,0,0,1,1.38-10.63,16.19,16.19,0,0,1,2.25-4.37q.23-.23.67-.71l.67-.76a2.66,2.66,0,0,0,.74-1,.57.57,0,0,1,.37-.41l.83-.16a7.77,7.77,0,0,0,.83-.21,2.44,2.44,0,0,1,1.08-.07l1.06.12q.3,0,1.06.23t1.08.23a4.43,4.43,0,0,1,3.17,2.48,41.91,41.91,0,0,1,3,8.1,26.32,26.32,0,0,1,.41,9.57q-.46,3.31-.6,4a13.37,13.37,0,0,1-.69,2.44q-.74,2.12-1.15,3.13A5.71,5.71,0,0,1,145.82,40l-1.2.64q-.78.41-1.15.64t-.6.18l-1.31,0q-1.17,0-1.31-.14a5.8,5.8,0,0,0-1.93-.32,3.63,3.63,0,0,1-3.27-2.3q-.32-.69-1.52-3.5A36.82,36.82,0,0,1,132.48,30.13ZM144,14.4q-.39-.87-.92-1.93t-.8-1.66a1,1,0,0,0-.64-.64,7.05,7.05,0,0,0-1.79-.55,1.38,1.38,0,0,0-1,.23,6.74,6.74,0,0,0-2.48,2.85,21.27,21.27,0,0,0-2.12,6.85,31.62,31.62,0,0,0-.28,5.57q.32,3.54,1.06,7.41a27,27,0,0,0,1.7,5.11q.55,1.15,1.43,1.1h1.43a1.74,1.74,0,0,0,.69-.09,6.28,6.28,0,0,0,3.63-3.5,38.65,38.65,0,0,0,1.29-4.23q0-.14.55-3.4a23.37,23.37,0,0,0,0-6.07,20.22,20.22,0,0,0-1.2-5.34A9,9,0,0,0,144,14.4Z"/><path d="M171.44,24.15a6.26,6.26,0,0,1,.14,1,8.12,8.12,0,0,0,.09.87,30.87,30.87,0,0,1-1.29,7.31,9.69,9.69,0,0,1-.46,1.13,8.7,8.7,0,0,1-.48.9l-.67,1q-.46.69-.6.87a12.81,12.81,0,0,1-3.63,3.63l-.09,0a4.31,4.31,0,0,1-1,.48,9.48,9.48,0,0,1-1.77.34,6.79,6.79,0,0,1-2.74-.34,11.75,11.75,0,0,1-3.24-1.63,9.28,9.28,0,0,1-1.47-3.06,12.91,12.91,0,0,1-.55-2.87V32.71l.14-.69a12.49,12.49,0,0,1,.46-1.56q.28-.69,1-.28c.21.09.32.21.32.37l0,.18q0,.14-.14.48a5.54,5.54,0,0,0-.14.67,5.32,5.32,0,0,0-.14,2.48,5.15,5.15,0,0,0,4.65,5.06,3.48,3.48,0,0,0,2.9-.58,4.73,4.73,0,0,0,1.61-2.58,18.43,18.43,0,0,0,.6-3.24,22.51,22.51,0,0,0,0-3.22,13.46,13.46,0,0,0-.18-2.3l-.14-.69q-.87-3.73-3.73-4.51l-2.07-.55a4.52,4.52,0,0,1-2.85-4.37,10.75,10.75,0,0,1,.74-3.5,12.4,12.4,0,0,1,1.61-3.13,7.49,7.49,0,0,1,4.32-2.94,23.79,23.79,0,0,1,2.9-.55,5.37,5.37,0,0,1,3.27,1,5.81,5.81,0,0,1,1.61,1.33,2.07,2.07,0,0,1,.23.41c.06.31.06.49,0,.55a.45.45,0,0,1-.41.23,1.55,1.55,0,0,1-.6-.41,8.2,8.2,0,0,0-2.25-1.43,3.91,3.91,0,0,0-3.08,0,10.33,10.33,0,0,0-2.76,1.24,6.87,6.87,0,0,0-2.76,3.4,10.87,10.87,0,0,0-1,2.94,2.49,2.49,0,0,0-.09.51,1.73,1.73,0,0,0,.25,1.22,1,1,0,0,0,.94.25,24.77,24.77,0,0,1,3.31-.14q.46,0,1.59-.09a11.78,11.78,0,0,1,1.73,0,5.51,5.51,0,0,1,4.19,2.25A8.22,8.22,0,0,1,171.44,24.15Z"/><path d="M180.22,38.64l2.62-.39,2.62-.39h.18q.92-.09,1.15.14t.14,1.15a.62.62,0,0,1-.46.74l-.28,0-.28,0a45.36,45.36,0,0,0-5.66.74,7.17,7.17,0,0,1-1.22.12,8.12,8.12,0,0,0-1,.07q-1.2,0-1.84,0a1.58,1.58,0,0,1-1.79-1.38,3.11,3.11,0,0,1-.09-1.52q.6-3.73.92-8.51,0-.87.11-2.58t.12-2.53.41-6.12q0-1.43.23-4.28.14-1.75.32-5.24a1.19,1.19,0,0,1,.41-.83,3.91,3.91,0,0,1,2-.78l2-.16,2.32-.16a6.79,6.79,0,0,1,.9,0,10.31,10.31,0,0,0,1,0,4,4,0,0,0,.87-.18h.41a1.9,1.9,0,0,1,.81.21,1.53,1.53,0,0,1,.11.8,1.83,1.83,0,0,1-.14.94q-.14.16-.92.21-2.39.09-3.59.18a.92.92,0,0,0-.58.18,1.46,1.46,0,0,0-.16.69l-.55,6.62s0,.89-.14,2.58l-.14,2.9q0,.64.14.76t.74,0l2.67-.28a1,1,0,0,1,.64.07,1.46,1.46,0,0,1,.28.67,1.52,1.52,0,0,1,.09.37c0,.43-.14.66-.51.69s-1,.12-1.75.18-1.58.12-2,.18-.51.32-.51.78-.06,1-.09,1.7,0,1.3,0,1.7q-.46,5.84-.64,6.81-.09.55-.21,1.7t-.16,1.38A1.25,1.25,0,0,0,180.22,38.64Z"/><path d="M208.15,24.15a6.26,6.26,0,0,1,.14,1,8.12,8.12,0,0,0,.09.87,30.87,30.87,0,0,1-1.29,7.31,9.69,9.69,0,0,1-.46,1.13,8.7,8.7,0,0,1-.48.9l-.67,1q-.46.69-.6.87a12.81,12.81,0,0,1-3.63,3.63l-.09,0a4.31,4.31,0,0,1-1,.48,9.48,9.48,0,0,1-1.77.34,6.79,6.79,0,0,1-2.74-.34,11.75,11.75,0,0,1-3.24-1.63,9.28,9.28,0,0,1-1.47-3.06,12.91,12.91,0,0,1-.55-2.87V32.71l.14-.69a12.49,12.49,0,0,1,.46-1.56q.28-.69,1-.28c.21.09.32.21.32.37l0,.18q0,.14-.14.48a5.54,5.54,0,0,0-.14.67,5.32,5.32,0,0,0-.14,2.48,5.15,5.15,0,0,0,4.65,5.06,3.48,3.48,0,0,0,2.9-.58A4.73,4.73,0,0,0,201,36.27a18.43,18.43,0,0,0,.6-3.24,22.51,22.51,0,0,0,0-3.22,13.46,13.46,0,0,0-.18-2.3l-.14-.69q-.87-3.73-3.73-4.51l-2.07-.55a4.52,4.52,0,0,1-2.85-4.37,10.75,10.75,0,0,1,.74-3.5A12.4,12.4,0,0,1,195,10.76a7.49,7.49,0,0,1,4.32-2.94,23.79,23.79,0,0,1,2.9-.55,5.37,5.37,0,0,1,3.27,1,5.81,5.81,0,0,1,1.61,1.33,2.07,2.07,0,0,1,.23.41c.06.31.06.49,0,.55a.45.45,0,0,1-.41.23,1.55,1.55,0,0,1-.6-.41,8.2,8.2,0,0,0-2.25-1.43,3.91,3.91,0,0,0-3.08,0,10.33,10.33,0,0,0-2.76,1.24,6.87,6.87,0,0,0-2.76,3.4,10.87,10.87,0,0,0-1,2.94,2.49,2.49,0,0,0-.09.51,1.73,1.73,0,0,0,.25,1.22,1,1,0,0,0,.94.25,24.77,24.77,0,0,1,3.31-.14q.46,0,1.59-.09a11.78,11.78,0,0,1,1.73,0,5.51,5.51,0,0,1,4.19,2.25A8.22,8.22,0,0,1,208.15,24.15Z"/><path d="M222.68,39.74a7.8,7.8,0,0,1,.28-1.33q.37-1.15.87-3.33t.74-3.06q.28-1.1.69-3.15t.51-2.55q1.2-5.43,1.52-6.62l.39-1.36.46-1.59.39-1.33,1.24-5.11a3.1,3.1,0,0,0,0-.87A1.17,1.17,0,0,1,230.36,8q.28-.14.85-.37a6.37,6.37,0,0,0,.81-.37,6.82,6.82,0,0,1,2.12-.28,1,1,0,0,1,1.2.78,4,4,0,0,1,.23.87q.69,6.35.92,8.83.23,2.12.6,5.75,0,.23.07.48t0,.55q0,.3,0,.48.37,3.4.55,5.06.18,2.16.55,6.39a10.66,10.66,0,0,1,0,1.17v1.22a.89.89,0,0,1-.41.69,10,10,0,0,1-3.08,1.29.44.44,0,0,0-.32.14.84.84,0,0,1-.92,0,1,1,0,0,1-.55-1,64,64,0,0,0-.64-8.6q-.09-.55-.21-1.61t-.16-1.61a1.65,1.65,0,0,0-.23-.71q-.14-.16-.64-.12t-3.59.23a.88.88,0,0,0-.87.83q-.18,1-1.2,5.43-.18.64-.53,1.93t-.48,1.93a20.54,20.54,0,0,1-.78,2.76q-.46.41-.6.28c0-.06-.06-.09-.09-.09a.13.13,0,0,0,0,.09v0l-.28.14A3.1,3.1,0,0,1,222.68,39.74Zm4.78-13.94,1.29-.14q.41,0,1.22-.07l1.22,0q.46,0,.55-.12c.06-.08.06-.27,0-.58s-.14-1.07-.23-1.91-.15-1.48-.18-1.91q-.09-1-.3-3.06T230.69,15a1.62,1.62,0,0,0-.07-.39,1.61,1.61,0,0,1-.07-.34A55.6,55.6,0,0,0,227.47,25.81Z"/><path d="M248.49,25a4.31,4.31,0,0,0-.64.48,1.26,1.26,0,0,0-.32.6,12.11,12.11,0,0,0-.09,1.24q-.18,3.27-.46,9.8l-.14,2.76a1,1,0,0,1-.6.87,10,10,0,0,1-1.08.41q-.58.18-1.31.34l-1.1.25a.88.88,0,0,1-.57,0,1.39,1.39,0,0,1-.39-.55,2,2,0,0,0-.32-.51,1.85,1.85,0,0,1-.28-1.33l.41-5.24q.37-5.06.51-7.59.14-1.56.32-4.69.37-3.82.51-6,0-.92,0-2.76c0-.18,0-.56,0-1.13s0-1,.07-1.31a1.23,1.23,0,0,0-.37-1.06.66.66,0,0,1-.37-.78.78.78,0,0,1,.64-.64c.31-.06.73-.16,1.27-.3l1.47-.37,1.26-.3a24.91,24.91,0,0,1,4.69-.46,6.83,6.83,0,0,1,3,.78,3.92,3.92,0,0,1,1.56,1.79,7.62,7.62,0,0,1,.51,5.7,10.42,10.42,0,0,1-2.44,4.46q-.37.41-1,1.22c-.43.54-.67.85-.74.94s-.34.38-.64.69a1.3,1.3,0,0,0-.46,1.33l.48,2.23q.39,1.82.62,2.83t2.07,8.65q.09.28.35,1.1t.34,1.29a1.7,1.7,0,0,1-.16,1.31,1.29,1.29,0,0,1-.94.71.28.28,0,0,1-.37-.09,2.47,2.47,0,0,1-.92-1.38q-.28-1.66-.67-3.45t-.92-4q-.53-2.23-.76-3.38-.18-.83-.6-2.32t-.55-2l-.28-.6A4.25,4.25,0,0,1,248.49,25Zm-.6-2.37.6-.41a5.35,5.35,0,0,0,.69-.55,33.05,33.05,0,0,0,4.37-5,9.39,9.39,0,0,0,1.52-5.06q.14-2.53-2.21-2.85-.69,0-4,0a2.19,2.19,0,0,0-.55.23,4,4,0,0,1,.35,1,8.64,8.64,0,0,1-.07,1.2.64.64,0,0,0,0,.28v.28q-.37,4.6-.51,6.85-.14,1.29-.32,3.86A.72.72,0,0,1,247.89,22.59Z"/><path d="M265.6,38.64l2.62-.39,2.62-.39H271q.92-.09,1.15.14t.14,1.15a.62.62,0,0,1-.46.74l-.28,0-.28,0a45.36,45.36,0,0,0-5.66.74,7.17,7.17,0,0,1-1.22.12,8.12,8.12,0,0,0-1,.07q-1.2,0-1.84,0a1.58,1.58,0,0,1-1.79-1.38,3.11,3.11,0,0,1-.09-1.52q.6-3.73.92-8.51,0-.87.11-2.58t.12-2.53.41-6.12q0-1.43.23-4.28.14-1.75.32-5.24a1.19,1.19,0,0,1,.41-.83,3.91,3.91,0,0,1,2-.78l2-.16,2.32-.16a6.79,6.79,0,0,1,.9,0,10.31,10.31,0,0,0,1,0,4,4,0,0,0,.87-.18h.41a1.9,1.9,0,0,1,.81.21,1.53,1.53,0,0,1,.11.8,1.83,1.83,0,0,1-.14.94q-.14.16-.92.21-2.39.09-3.59.18a.92.92,0,0,0-.58.18,1.46,1.46,0,0,0-.16.69l-.55,6.62s0,.89-.14,2.58l-.14,2.9q0,.64.14.76t.74,0l2.67-.28a1,1,0,0,1,.64.07,1.46,1.46,0,0,1,.28.67,1.52,1.52,0,0,1,.09.37c0,.43-.14.66-.51.69s-1,.12-1.75.18-1.58.12-2,.18-.51.32-.51.78-.06,1-.09,1.7,0,1.3,0,1.7q-.46,5.84-.64,6.81-.09.55-.21,1.7T265,38.59A1.25,1.25,0,0,0,265.6,38.64Z"/><path d="M287.08,28.57a65.18,65.18,0,0,1,1.47-11.45,17.25,17.25,0,0,1,1.7-5.06,24.83,24.83,0,0,1,1.93-3.31,5.23,5.23,0,0,1,3.31-2.12,2.09,2.09,0,0,1,1.43.09.19.19,0,0,1,.12.07l.14.16.12.14-.12.14-.14.16a.19.19,0,0,1-.12.07l-.6.11-.6.12a4.45,4.45,0,0,0-2.48,2,10,10,0,0,0-.69,1.22q-.32.67-.69,1.59c-.25.61-.43,1.06-.55,1.33a9.24,9.24,0,0,0-.87,2.85q-.41,2.72-1,7.36,0,.09-.28,2.44a18.22,18.22,0,0,0,.23,4,6.94,6.94,0,0,0,1.84,3.45,2.71,2.71,0,0,0,2.3.74,6.25,6.25,0,0,0,2-.69,7.33,7.33,0,0,0,1.61-1.33,43,43,0,0,0,4.46-7l.28-.55q.32-.73,1-.46a.82.82,0,0,1,.23.09,1.53,1.53,0,0,1,.78.55,2.3,2.3,0,0,1,0,1.1A12.26,12.26,0,0,1,302.4,31q-2,3.4-2.71,4.55a12.46,12.46,0,0,1-5,4.51,3.93,3.93,0,0,1-4.6-.64,6.7,6.7,0,0,1-2-2.81.83.83,0,0,0-.23-.37A2.27,2.27,0,0,1,287.4,35q-.09-.83-.18-1.24v0Q287.08,31.79,287.08,28.57Z"/><path d="M307.27,30.13q-.46-4-.51-4.65a25.35,25.35,0,0,1,1.38-10.63,16.21,16.21,0,0,1,2.25-4.37q.23-.23.67-.71t.67-.76a2.65,2.65,0,0,0,.74-1,.56.56,0,0,1,.37-.41l.83-.16a7.78,7.78,0,0,0,.83-.21,2.44,2.44,0,0,1,1.08-.07l1.06.12q.3,0,1.06.23t1.08.23a4.43,4.43,0,0,1,3.17,2.48,41.91,41.91,0,0,1,3,8.1,26.31,26.31,0,0,1,.41,9.57q-.46,3.31-.6,4a13.38,13.38,0,0,1-.69,2.44q-.74,2.12-1.15,3.13A5.71,5.71,0,0,1,320.61,40l-1.2.64q-.78.41-1.15.64t-.6.18l-1.31,0q-1.17,0-1.31-.14a5.81,5.81,0,0,0-1.93-.32,3.63,3.63,0,0,1-3.27-2.3q-.32-.69-1.52-3.5A36.81,36.81,0,0,1,307.27,30.13ZM318.75,14.4q-.39-.87-.92-1.93t-.8-1.66a1,1,0,0,0-.64-.64,7.06,7.06,0,0,0-1.79-.55,1.39,1.39,0,0,0-1,.23,6.74,6.74,0,0,0-2.48,2.85A21.27,21.27,0,0,0,309,19.55a31.58,31.58,0,0,0-.28,5.57q.32,3.54,1.06,7.41a26.92,26.92,0,0,0,1.7,5.11q.55,1.15,1.43,1.1h1.43a1.74,1.74,0,0,0,.69-.09,6.28,6.28,0,0,0,3.63-3.5,38.76,38.76,0,0,0,1.29-4.23q0-.14.55-3.4a23.38,23.38,0,0,0,0-6.07,20.2,20.2,0,0,0-1.2-5.34A8.94,8.94,0,0,0,318.75,14.4Z"/><path d="M341.82,32.06q0-1,.11-3t.12-3q0-1.06.16-3.11t.16-3q.28-4,.37-6.16.09-1.56.18-4.51a4.59,4.59,0,0,1,0-.78q.09-1.15,1.1-1.1l3.54.46a.64.64,0,0,1,.64.74,3,3,0,0,1,0,.87l-.14,2.94q0,1.1-.14,3.33T347.75,19q0,.78-.09,2.3t-.14,2.3q0,.78,0,2.3v2.3q0,.87-.09,3.54t-.09,4.14q0,.32-.07,2.07a5.77,5.77,0,0,0,.12,2.07.83.83,0,0,1-.78,1.15l-.67.09-.76.09-.64.09a5.64,5.64,0,0,1-2.67-.74,1.09,1.09,0,0,1-.51-.74q-.46-1.38-1.29-4.14-.18-.6-.74-2.48t-.83-2.9L338,28.52l-.55-2.23q-.3-1.22-.48-1.91-1.29-5.06-2-7.59a21.11,21.11,0,0,0-.83-2.62q0,.46,0,1.4T334,17q0,.92-.12,2.53t-.12,2.92q0,1.31,0,2.51,0,2,.09,5.93.09,5.52.14,8.33a4,4,0,0,1-.09.74.65.65,0,0,1-.6.51l-.37,0-.39.07a1.74,1.74,0,0,1-.34,0,2.71,2.71,0,0,0-.6,0h-1.2a1.42,1.42,0,0,1-.51,0,1.68,1.68,0,0,1-1.15-.48,1.92,1.92,0,0,1-.28-1.31q.09-4.23.09-6.35,0-.87,0-3.63t0-4.28q0-1,.23-6.16.09-2.71,0-5.38,0-1.56-.18-4.78a1.71,1.71,0,0,1,.16-1,1.3,1.3,0,0,1,.81-.44,5.44,5.44,0,0,1,3.27.18,4.69,4.69,0,0,1,1.38.69,2.53,2.53,0,0,1,.69,1.15q.32,1.15.94,3.47t.9,3.52l.28.8q.23.67.32,1,.37,1.52,1.15,4.55t1.2,4.51q.32,1.29,1,3.66t.78,2.78a1.08,1.08,0,0,0,.23.37h.14C341.8,33.2,341.82,32.71,341.82,32.06Z"/><path d="M368.82,24.15a6.38,6.38,0,0,1,.14,1,8.16,8.16,0,0,0,.09.87,30.87,30.87,0,0,1-1.29,7.31,9.61,9.61,0,0,1-.46,1.13,8.62,8.62,0,0,1-.48.9l-.67,1q-.46.69-.6.87a12.81,12.81,0,0,1-3.63,3.63l-.09,0a4.32,4.32,0,0,1-1,.48,9.49,9.49,0,0,1-1.77.34,6.78,6.78,0,0,1-2.74-.34A11.74,11.74,0,0,1,353,39.79a9.27,9.27,0,0,1-1.47-3.06,12.92,12.92,0,0,1-.55-2.87V32.71l.14-.69a12.33,12.33,0,0,1,.46-1.56q.28-.69,1-.28c.21.09.32.21.32.37l0,.18q0,.14-.14.48a5.64,5.64,0,0,0-.14.67,5.31,5.31,0,0,0-.14,2.48,5.15,5.15,0,0,0,4.65,5.06,3.49,3.49,0,0,0,2.9-.58,4.73,4.73,0,0,0,1.61-2.58,18.39,18.39,0,0,0,.6-3.24,22.58,22.58,0,0,0,0-3.22,13.41,13.41,0,0,0-.18-2.3l-.14-.69q-.87-3.73-3.73-4.51l-2.07-.55a4.52,4.52,0,0,1-2.85-4.37,10.74,10.74,0,0,1,.74-3.5,12.38,12.38,0,0,1,1.61-3.13A7.49,7.49,0,0,1,360,7.82a23.81,23.81,0,0,1,2.9-.55,5.37,5.37,0,0,1,3.27,1,5.8,5.8,0,0,1,1.61,1.33A2.11,2.11,0,0,1,368,10c.06.31.06.49,0,.55a.45.45,0,0,1-.41.23,1.56,1.56,0,0,1-.6-.41,8.2,8.2,0,0,0-2.25-1.43,3.91,3.91,0,0,0-3.08,0,10.33,10.33,0,0,0-2.76,1.24,6.86,6.86,0,0,0-2.76,3.4,10.83,10.83,0,0,0-1,2.94,2.46,2.46,0,0,0-.09.51,1.73,1.73,0,0,0,.25,1.22,1,1,0,0,0,.94.25,24.78,24.78,0,0,1,3.31-.14q.46,0,1.59-.09a11.77,11.77,0,0,1,1.72,0,5.51,5.51,0,0,1,4.19,2.25A8.23,8.23,0,0,1,368.82,24.15Z"/><path d="M378.21,11.13a43.56,43.56,0,0,0-.46,6.53l-.14,7.87v5.15q0,1-.09,2.87t-.09,2.88q0,.46,0,1.38c0,.61,0,1.07,0,1.38a1.15,1.15,0,0,1-.12.64,1.6,1.6,0,0,1-.53.32,8.18,8.18,0,0,1-2.16.55q-.6,0-1.75,0a.49.49,0,0,1-.46-.23,3.52,3.52,0,0,1-.51-1.89q0-.32.07-1t0-1q0-1.15.18-13.66,0-4.14.28-8.37,0-.83.18-2.55t.18-2.6c0-.4,0-1,0-1.79a1.17,1.17,0,0,1,.87-1.29,2.89,2.89,0,0,1,1.56-.18,5.71,5.71,0,0,1,2.25.69,1.87,1.87,0,0,1,.85.62,3,3,0,0,1,.16,1.22Q378.34,10.35,378.21,11.13Z"/><path d="M382.07,10.12l-.64.09a.93.93,0,0,1-.6-.18.6.6,0,0,1-.41-.51c0-.09.14-.28.41-.55a5.59,5.59,0,0,1,1-.46,8.72,8.72,0,0,0,1.66-.87,2.83,2.83,0,0,1,1.75-.55,51.48,51.48,0,0,1,6.67.14,4.37,4.37,0,0,1,2.25,1c.18.15.49.38.92.67s.74.51.92.67a6,6,0,0,1,1.43,2.35,11,11,0,0,1,.51,5.89,15.94,15.94,0,0,1-1.52,4.74q-.51.92-2.35,5.52a35.91,35.91,0,0,1-2.62,5.34l-2.9,4.74q-.78,1.29-1.89,2.9a.59.59,0,0,1-.6.37,2.91,2.91,0,0,0-.44-.09l-.46-.07a.82.82,0,0,1-.37-.18.93.93,0,0,1-.3-.39l-.41-.18-.67,0a5.23,5.23,0,0,1-.67-.07q-1.2-.09-1.06-1.43,0-.69.16-2t.16-2q0-.6.09-1.63t.09-1.91q0-.87.09-1.66.09-1.1.23-3.31t.23-3.31q.18-3.5.23-5.52,0-2.35,0-7a3.52,3.52,0,0,0,0-.64C382.74,10,382.44,10.06,382.07,10.12Zm5.7,25,.23-.28q.55-1,.83-1.47a46.68,46.68,0,0,0,3.73-7.54q.18-.55,2.21-5a12.4,12.4,0,0,0,1.29-6.49q-.14-3.63-3.91-5.24a9.65,9.65,0,0,0-2.62-.32q-.55,0-.71.14a1.38,1.38,0,0,0-.16.83q-.09,2.07-.18,6.3,0,.83,0,2.44t-.09,2.44q0,1.06-.23,3.22t-.23,3.27q-.28,4.88-.41,7.27a2.56,2.56,0,0,0,0,.78Z"/><path d="M407,38.64l2.62-.39,2.62-.39h.18q.92-.09,1.15.14t.14,1.15a.62.62,0,0,1-.46.74l-.28,0-.28,0a45.37,45.37,0,0,0-5.66.74,7.16,7.16,0,0,1-1.22.12,8.12,8.12,0,0,0-1,.07q-1.2,0-1.84,0a1.58,1.58,0,0,1-1.79-1.38A3.1,3.1,0,0,1,401,38q.6-3.73.92-8.51,0-.87.11-2.58t.12-2.53.41-6.12q0-1.43.23-4.28.14-1.75.32-5.24a1.19,1.19,0,0,1,.41-.83,3.91,3.91,0,0,1,2-.78l2-.16,2.32-.16a6.8,6.8,0,0,1,.9,0,10.32,10.32,0,0,0,1,0,4,4,0,0,0,.87-.18H413a1.9,1.9,0,0,1,.8.21,1.53,1.53,0,0,1,.12.8,1.83,1.83,0,0,1-.14.94q-.14.16-.92.21-2.39.09-3.59.18a.92.92,0,0,0-.58.18,1.47,1.47,0,0,0-.16.69L408,16.38s0,.89-.14,2.58l-.14,2.9q0,.64.14.76t.74,0l2.67-.28a1,1,0,0,1,.64.07,1.46,1.46,0,0,1,.28.67,1.54,1.54,0,0,1,.09.37q0,.64-.51.69t-1.75.18q-1.38.09-2,.18c-.34.06-.51.32-.51.78s-.06,1-.09,1.7,0,1.3,0,1.7q-.46,5.84-.64,6.81-.09.55-.21,1.7t-.16,1.38A1.25,1.25,0,0,0,407,38.64Z"/><path d="M424.39,25a4.34,4.34,0,0,0-.64.48,1.26,1.26,0,0,0-.32.6,12,12,0,0,0-.09,1.24q-.18,3.27-.46,9.8l-.14,2.76a1,1,0,0,1-.6.87,10.08,10.08,0,0,1-1.08.41q-.58.18-1.31.34l-1.1.25a.88.88,0,0,1-.58,0,1.39,1.39,0,0,1-.39-.55,2.06,2.06,0,0,0-.32-.51,1.85,1.85,0,0,1-.28-1.33l.41-5.24q.37-5.06.51-7.59.14-1.56.32-4.69.37-3.82.51-6,0-.92,0-2.76c0-.18,0-.56,0-1.13s0-1,.07-1.31a1.23,1.23,0,0,0-.37-1.06.66.66,0,0,1-.37-.78.78.78,0,0,1,.64-.64c.31-.06.73-.16,1.27-.3l1.47-.37,1.26-.3a24.92,24.92,0,0,1,4.69-.46,6.83,6.83,0,0,1,3,.78,3.92,3.92,0,0,1,1.56,1.79,7.62,7.62,0,0,1,.51,5.7,10.43,10.43,0,0,1-2.44,4.46q-.37.41-1,1.22c-.43.54-.67.85-.74.94s-.34.38-.64.69a1.3,1.3,0,0,0-.46,1.33l.48,2.23q.39,1.82.62,2.83t2.07,8.65q.09.28.34,1.1t.34,1.29a1.7,1.7,0,0,1-.16,1.31,1.28,1.28,0,0,1-.94.71.28.28,0,0,1-.37-.09,2.47,2.47,0,0,1-.92-1.38q-.28-1.66-.67-3.45t-.92-4q-.53-2.23-.76-3.38-.18-.83-.6-2.32t-.55-2l-.28-.6A4.24,4.24,0,0,1,424.39,25Zm-.6-2.37.6-.41a5.34,5.34,0,0,0,.69-.55,33,33,0,0,0,4.37-5A9.39,9.39,0,0,0,431,11.55q.14-2.53-2.21-2.85-.69,0-4,0a2.18,2.18,0,0,0-.55.23,4,4,0,0,1,.35,1,8.67,8.67,0,0,1-.07,1.2.64.64,0,0,0,0,.28v.28q-.37,4.6-.51,6.85-.14,1.29-.32,3.86A.72.72,0,0,1,423.79,22.59Z"/><path d="M441.5,38.64l2.62-.39,2.62-.39h.18q.92-.09,1.15.14t.14,1.15a.62.62,0,0,1-.46.74l-.28,0-.28,0a45.34,45.34,0,0,0-5.66.74,7.17,7.17,0,0,1-1.22.12,8.13,8.13,0,0,0-1,.07q-1.2,0-1.84,0a1.58,1.58,0,0,1-1.79-1.38,3.12,3.12,0,0,1-.09-1.52q.6-3.73.92-8.51,0-.87.12-2.58t.12-2.53.41-6.12q0-1.43.23-4.28.14-1.75.32-5.24a1.19,1.19,0,0,1,.41-.83,3.9,3.9,0,0,1,2-.78L442,7l2.32-.16a6.77,6.77,0,0,1,.9,0,10.31,10.31,0,0,0,1,0,4,4,0,0,0,.87-.18h.41a1.9,1.9,0,0,1,.81.21,1.53,1.53,0,0,1,.11.8,1.84,1.84,0,0,1-.14.94c-.09.11-.4.18-.92.21q-2.39.09-3.59.18a.92.92,0,0,0-.58.18,1.46,1.46,0,0,0-.16.69l-.55,6.62s0,.89-.14,2.58l-.14,2.9q0,.64.14.76t.74,0l2.67-.28a1,1,0,0,1,.64.07,1.46,1.46,0,0,1,.28.67,1.51,1.51,0,0,1,.09.37c0,.43-.14.66-.51.69s-1,.12-1.75.18-1.58.12-2,.18-.51.32-.51.78-.06,1-.09,1.7,0,1.3,0,1.7q-.46,5.84-.64,6.81-.09.55-.21,1.7t-.16,1.38A1.25,1.25,0,0,0,441.5,38.64Z"/><path d="M452.4,10.12l-.64.09a.92.92,0,0,1-.6-.18.6.6,0,0,1-.41-.51q0-.14.41-.55a5.54,5.54,0,0,1,1-.46,8.75,8.75,0,0,0,1.66-.87,2.83,2.83,0,0,1,1.75-.55,51.49,51.49,0,0,1,6.67.14,4.37,4.37,0,0,1,2.25,1q.28.23.92.67c.43.29.74.51.92.67a6,6,0,0,1,1.43,2.35,11,11,0,0,1,.51,5.89,16,16,0,0,1-1.52,4.74q-.51.92-2.35,5.52a36.1,36.1,0,0,1-2.62,5.34l-2.9,4.74q-.78,1.29-1.89,2.9a.59.59,0,0,1-.6.37,3,3,0,0,0-.44-.09l-.46-.07a.83.83,0,0,1-.37-.18.93.93,0,0,1-.3-.39l-.41-.18-.67,0a5.25,5.25,0,0,1-.67-.07q-1.2-.09-1.06-1.43,0-.69.16-2t.16-2q0-.6.09-1.63t.09-1.91q0-.87.09-1.66.09-1.1.23-3.31t.23-3.31q.18-3.5.23-5.52,0-2.35,0-7a3.52,3.52,0,0,0,0-.64C453.08,10,452.77,10.06,452.4,10.12Zm5.7,25,.23-.28q.55-1,.83-1.47a46.58,46.58,0,0,0,3.73-7.54q.18-.55,2.21-5a12.38,12.38,0,0,0,1.29-6.49q-.14-3.63-3.91-5.24a9.65,9.65,0,0,0-2.62-.32c-.37,0-.61,0-.71.14a1.39,1.39,0,0,0-.16.83q-.09,2.07-.18,6.3,0,.83,0,2.44t-.09,2.44q0,1.06-.23,3.22t-.23,3.27q-.28,4.88-.41,7.27a2.52,2.52,0,0,0,0,.78C457.89,35.37,458,35.25,458.11,35.1Z"/><path d="M488.83,13.11c0-.71,0-1.24,0-1.61v-.64a1.47,1.47,0,0,0-.21-.78.81.81,0,0,0-.62-.18h-3a6.85,6.85,0,0,1-.92,0,.73.73,0,0,1-.53-.44,1.27,1.27,0,0,1-.16-.76.73.73,0,0,1,.78-.74q.51,0,1.45,0l1.72.07,1.47,0A13.49,13.49,0,0,0,492,7.82a23.38,23.38,0,0,1,5.38-.46q.83,0,2.35-.09t2-.09a1.19,1.19,0,0,1,1.2,1.06c.09.37,0,.6-.28.69l-.23,0-.23,0-6.26.14h-.37q-.69,0-.85.28a2.1,2.1,0,0,0-.07,1.15,6.11,6.11,0,0,1,0,.87q-.09,1.84-.18,2.76t-.23,2.67q0,.51-.14,1.43T493.87,20q-.07.74-.11,1.43-.37,5.29-.51,7.68-.23,3.13-.46,5.61T492.56,38q0,.23,0,.74c0,.34,0,.6,0,.78a1,1,0,0,1-.55.87,6.5,6.5,0,0,1-1.54.37q-1,.14-1.36.23a2.35,2.35,0,0,1-1.1-.14q-.87-.28-.78-1.52.09-1.06.41-4.16T488,30q.23-2.85.51-8.74l.14-2.78.14-2.78v-1h0Q488.79,14.17,488.83,13.11Z"/><path d="M513.49,30.24l.14-4.76a1.29,1.29,0,0,0-.11-.67c-.08-.11-.25-.16-.53-.16a22.35,22.35,0,0,1-3-.18q-.78-.14-.83.64-.41,5.7-.51,7,0,.74-.18,2.21t-.18,2.21a6.87,6.87,0,0,0,0,1.29l0,1.29a1.49,1.49,0,0,1-.11.55,1.35,1.35,0,0,1-.53.23,30.29,30.29,0,0,1-3.59.55,1.42,1.42,0,0,1-1.13-.41,1.33,1.33,0,0,1-.44-1.1q.28-5.8.28-5.89.46-6.72.64-9.75l.41-5.38q.09-.83.23-2.39t.18-2.39q0-.51.18-1.5t.18-1.45q.09-1.47.09-2.25a1.11,1.11,0,0,1,.87-1.1,6.53,6.53,0,0,1,3.54.18l.32.09a2.1,2.1,0,0,1,1,.6,2.42,2.42,0,0,1,.11,1.15q0,.78-.21,2.23t-.21,1.68q-.09,1.15-.3,3.38l-.3,3.24q0,.55-.18,2.58a1,1,0,0,0,.07.62.94.94,0,0,0,.58.25A21,21,0,0,0,513,23q.64,0,.69-.55a21.74,21.74,0,0,0,.14-2.39q0-1.24.16-3.7t.16-3.7q0-.78,0-2.28t0-2.28a1.83,1.83,0,0,1,0-.51.6.6,0,0,1,.44-.58.73.73,0,0,1,.71.16,2.69,2.69,0,0,1,1.06,2.16q-.09,1.24-.12,3.47t-.07,3.11l-.28,5.52c0,.18,0,.46,0,.83s0,.64,0,.83q0,1-.09,3.06t-.09,3.06.14,8.1c0,.18,0,.51,0,1a6.67,6.67,0,0,0,0,1.13.86.86,0,0,1-.55.74,1.39,1.39,0,0,1-1.47-.09,1.58,1.58,0,0,1-.55-1.43,12.11,12.11,0,0,0,.14-1.79q0-.6-.09-1.79a0,0,0,0,0,0,0Z"/><path d="M525,38.64l2.62-.39,2.62-.39h.18q.92-.09,1.15.14t.14,1.15a.62.62,0,0,1-.46.74l-.28,0-.28,0a45.4,45.4,0,0,0-5.66.74,7.16,7.16,0,0,1-1.22.12,8.12,8.12,0,0,0-1,.07q-1.2,0-1.84,0a1.58,1.58,0,0,1-1.79-1.38,3.1,3.1,0,0,1-.09-1.52q.6-3.73.92-8.51,0-.87.11-2.58t.12-2.53.41-6.12q0-1.43.23-4.28.14-1.75.32-5.24a1.19,1.19,0,0,1,.41-.83,3.91,3.91,0,0,1,2-.78l2-.16,2.32-.16a6.77,6.77,0,0,1,.9,0,10.32,10.32,0,0,0,1,0,4,4,0,0,0,.87-.18h.41a1.89,1.89,0,0,1,.8.21,1.53,1.53,0,0,1,.12.8,1.84,1.84,0,0,1-.14.94c-.09.11-.4.18-.92.21q-2.39.09-3.59.18a.92.92,0,0,0-.58.18,1.46,1.46,0,0,0-.16.69L526,16.38s0,.89-.14,2.58l-.14,2.9q0,.64.14.76c.09.08.34.08.74,0l2.67-.28a1,1,0,0,1,.64.07,1.45,1.45,0,0,1,.28.67,1.49,1.49,0,0,1,.09.37q0,.64-.51.69t-1.75.18q-1.38.09-2,.18c-.34.06-.51.32-.51.78s-.06,1-.09,1.7,0,1.3,0,1.7q-.46,5.84-.64,6.81-.09.55-.21,1.7t-.16,1.38A1.25,1.25,0,0,0,525,38.64Z"/><path d="M105.45,77.6a9.38,9.38,0,0,1,1.52-.18q1,0,.74,1.06-.32,1.29-1.47,1.15-.23,0-1.84.23-.51,0-.51.64,0,3.77-.23,11.55c0,.31,0,.78,0,1.4s0,1.1,0,1.4a1.59,1.59,0,0,1-.09.64.6.6,0,0,1-.21.25,2.49,2.49,0,0,1-.62.16,11.72,11.72,0,0,1-1.89.18q-1.24,0-1.61.09a.6.6,0,0,1-.74-.37,4.22,4.22,0,0,1-.46-1.7q0-.87,0-2.67t0-2.71q.37-10.9.37-12.33,0-.83.18-5.93L99.2,64q.09-.78.51-.92a11.86,11.86,0,0,1,1.2-.37l.9,0c.41,0,.73,0,.94,0a10.93,10.93,0,0,0,1.66-.09,8.07,8.07,0,0,0,1-.09,8.52,8.52,0,0,1,.85-.09q.46-.09,1.47-.18l.6-.09.41,0q.09,0,1.43-.28a4.89,4.89,0,0,1,1.1-.09.53.53,0,0,1,.37.09q.23.09.14.69a2.23,2.23,0,0,0,0,.74q.09.37-.37.46l-1,.16-1.13.16q-2.44.18-3.5.32a1.58,1.58,0,0,0-.83.28,1.49,1.49,0,0,0-.23.87q0,1.15-.21,3.54t-.25,3.63q-.14,2.07-.14,4c0,.09,0,.23,0,.41s0,.34,0,.46Q105.13,77.6,105.45,77.6Z"/><path d="M121.32,75.53q-.14,8.65-.14,8.74,0,1.29-.37,7.36a5.6,5.6,0,0,0,0,.85,5.73,5.73,0,0,1,0,.85c0,.34.08.55.32.64l1,.14,3.73-.14a1.74,1.74,0,0,1,.55,0q.46,0,.55.64a3.11,3.11,0,0,1,0,1.29q-.11.18-1,.18-.28,0-.78,0c-.34,0-.6,0-.78,0h-1.33L120.4,96q-.64,0-1.89.07l-1.89.12h-.23a1.51,1.51,0,0,1-1.38-2q.46-3.22.74-9.71.14-2.21.23-9.89,0-2.07.18-6.21V64.58c0-.21,0-.54,0-1s0-.75,0-1a1.2,1.2,0,0,1,.87-1.33,4.65,4.65,0,0,1,4.19.83,1.13,1.13,0,0,1,.46,1.06v1.61h0Z"/><path d="M130.25,85.33q-.46-4-.51-4.65a25.36,25.36,0,0,1,1.38-10.63,16.19,16.19,0,0,1,2.25-4.37q.23-.23.67-.71l.67-.76a2.66,2.66,0,0,0,.74-1,.57.57,0,0,1,.37-.41l.83-.16a7.77,7.77,0,0,0,.83-.21,2.44,2.44,0,0,1,1.08-.07l1.06.12q.3,0,1.06.23t1.08.23a4.43,4.43,0,0,1,3.17,2.48,41.91,41.91,0,0,1,3,8.1,26.32,26.32,0,0,1,.41,9.57q-.46,3.31-.6,4a13.37,13.37,0,0,1-.69,2.44q-.74,2.12-1.15,3.13a5.71,5.71,0,0,1-2.35,2.58l-1.2.64q-.78.41-1.15.64t-.6.18l-1.31,0q-1.17,0-1.31-.14a5.8,5.8,0,0,0-1.93-.32,3.63,3.63,0,0,1-3.27-2.3q-.32-.69-1.52-3.5A36.82,36.82,0,0,1,130.25,85.33ZM141.72,69.6q-.39-.87-.92-1.93T140,66a1,1,0,0,0-.64-.64,7.05,7.05,0,0,0-1.79-.55,1.38,1.38,0,0,0-1,.23,6.74,6.74,0,0,0-2.48,2.85,21.27,21.27,0,0,0-2.12,6.85,31.62,31.62,0,0,0-.28,5.57q.32,3.54,1.06,7.41a27,27,0,0,0,1.7,5.11q.55,1.15,1.43,1.1h1.43a1.74,1.74,0,0,0,.69-.09,6.28,6.28,0,0,0,3.63-3.5,38.65,38.65,0,0,0,1.29-4.23q0-.14.55-3.4a23.37,23.37,0,0,0,0-6.07,20.22,20.22,0,0,0-1.2-5.34A9,9,0,0,0,141.72,69.6Z"/><path d="M161.8,87.19a5.51,5.51,0,0,1,.23-.58,27.87,27.87,0,0,0,1.61-5.2q.37-1.47.8-3.13t1-3.68q.55-2,.83-3.13c0-.12.07-.31.12-.58s.08-.45.11-.58a2.27,2.27,0,0,1,.51-.83q.6-.64,1.1.09a3,3,0,0,1,.6,2,27.9,27.9,0,0,0,.74,4.6q.83,3.41,1.2,5.11l1,5.38c0,.09.08.28.14.58s.12.54.18.76a5.92,5.92,0,0,0,.55-1.79q.46-3.22.64-4.83.74-5.61,1-8.42.37-3.31.92-9.94c.06-.49.12-1.17.18-2q.09-1,.74-1a2.48,2.48,0,0,1,.55,0,8.59,8.59,0,0,0,2.3.18,5.3,5.3,0,0,1,1.66.51q.55.23.41,1.15-.41,2.3-.92,8.37-.14,1.52-1.33,11.22-.14.92-.34,2.71T178,86.8q-.14,1-.46,2.94t-.46,2.94l-.14,1.52q-.14,1.47-1.29,1.61l-.51,0a2,2,0,0,1-.6,0,6.4,6.4,0,0,1-1.56-.14q-1.79-.51-2.25-3.08-.32-1.56-.87-4.67T169,83.35q-.74-4.23-1.15-6.3a6.69,6.69,0,0,0-.64-1.66l-.28.94-.28.94q-1.52,6-1.66,6.44-.41,1.52-1.43,4.46t-1.29,3.91a.13.13,0,0,1,0,.09v.09a2.12,2.12,0,0,1-.11.67q-.12.34-.18.51a3.23,3.23,0,0,1-.37.55l-.34.44a3.18,3.18,0,0,1-.41.37l-1,.53q-.83.44-1.24.71t-1-.23a5.93,5.93,0,0,1-1.06-2.71q-.23-2.39-1.7-9.61-1.56-7.82-2.3-11.78-.18-1.06-.51-3.22t-.51-3.22a2.63,2.63,0,0,1,1.06-2.76,4.22,4.22,0,0,1,3.59-.64,1.33,1.33,0,0,1,1,1.24q.09,1.2.14,1.75Q158,72.08,158.67,75q1.33,6.07,2.16,10,.23.87.6,2.71a.27.27,0,0,1,.18,0C161.65,87.65,161.71,87.45,161.8,87.19Z"/><path d="M189.49,93.84l2.62-.39,2.62-.39h.18q.92-.09,1.15.14t.14,1.15a.62.62,0,0,1-.46.74l-.28,0-.28,0a45.36,45.36,0,0,0-5.66.74,7.17,7.17,0,0,1-1.22.12,8.12,8.12,0,0,0-1,.07q-1.2,0-1.84,0a1.58,1.58,0,0,1-1.79-1.38,3.11,3.11,0,0,1-.09-1.52q.6-3.73.92-8.51,0-.87.11-2.58t.12-2.53.41-6.12q0-1.43.23-4.28.14-1.75.32-5.24a1.19,1.19,0,0,1,.41-.83,3.91,3.91,0,0,1,2-.78l2-.16,2.32-.16a6.79,6.79,0,0,1,.9,0,10.31,10.31,0,0,0,1,0,4,4,0,0,0,.87-.18h.41a1.9,1.9,0,0,1,.81.21,1.53,1.53,0,0,1,.11.8,1.83,1.83,0,0,1-.14.94q-.14.16-.92.21-2.39.09-3.59.18a.92.92,0,0,0-.58.18,1.46,1.46,0,0,0-.16.69l-.55,6.62s0,.89-.14,2.58l-.14,2.9q0,.64.14.76t.74,0l2.67-.28a1,1,0,0,1,.64.07,1.46,1.46,0,0,1,.28.67,1.52,1.52,0,0,1,.09.37c0,.43-.14.66-.51.69s-1,.12-1.75.18-1.58.12-2,.18-.51.32-.51.78-.06,1-.09,1.7,0,1.3,0,1.7q-.46,5.84-.64,6.81-.09.55-.21,1.7t-.16,1.38A1.25,1.25,0,0,0,189.49,93.84Z"/><path d="M206.93,80.16a4.31,4.31,0,0,0-.64.48,1.26,1.26,0,0,0-.32.6,12.11,12.11,0,0,0-.09,1.24q-.18,3.27-.46,9.8L205.27,95a1,1,0,0,1-.6.87,10,10,0,0,1-1.08.41q-.58.18-1.31.34l-1.1.25a.88.88,0,0,1-.57,0,1.39,1.39,0,0,1-.39-.55,2,2,0,0,0-.32-.51,1.85,1.85,0,0,1-.28-1.33l.41-5.24q.37-5.06.51-7.59.14-1.56.32-4.69.37-3.82.51-6,0-.92,0-2.76c0-.18,0-.56,0-1.13s0-1,.07-1.31a1.23,1.23,0,0,0-.37-1.06.66.66,0,0,1-.37-.78.78.78,0,0,1,.64-.64c.31-.06.73-.16,1.27-.3l1.47-.37,1.26-.3a24.91,24.91,0,0,1,4.69-.46,6.83,6.83,0,0,1,3,.78,3.92,3.92,0,0,1,1.56,1.79,7.62,7.62,0,0,1,.51,5.7,10.42,10.42,0,0,1-2.44,4.46q-.37.41-1,1.22c-.43.54-.67.85-.74.94s-.34.38-.64.69a1.3,1.3,0,0,0-.46,1.33l.48,2.23q.39,1.82.62,2.83T213,92.55q.09.28.35,1.1t.34,1.29a1.7,1.7,0,0,1-.16,1.31,1.29,1.29,0,0,1-.94.71.28.28,0,0,1-.37-.09,2.47,2.47,0,0,1-.92-1.38q-.28-1.66-.67-3.45t-.92-4q-.53-2.23-.76-3.38-.18-.83-.6-2.32t-.55-2l-.28-.6A4.25,4.25,0,0,1,206.93,80.16Zm-.6-2.37.6-.41a5.35,5.35,0,0,0,.69-.55,33.05,33.05,0,0,0,4.37-5,9.39,9.39,0,0,0,1.52-5.06q.14-2.53-2.21-2.85-.69,0-4,0a2.19,2.19,0,0,0-.55.23,4,4,0,0,1,.35,1,8.64,8.64,0,0,1-.07,1.2.64.64,0,0,0,0,.28v.28q-.37,4.6-.51,6.85-.14,1.29-.32,3.86A.72.72,0,0,1,206.33,77.79Z"/><path d="M230.76,85.33q-.46-4-.51-4.65a25.36,25.36,0,0,1,1.38-10.63,16.19,16.19,0,0,1,2.25-4.37q.23-.23.67-.71l.67-.76a2.66,2.66,0,0,0,.74-1,.57.57,0,0,1,.37-.41l.83-.16a7.77,7.77,0,0,0,.83-.21,2.44,2.44,0,0,1,1.08-.07l1.06.12q.3,0,1.06.23t1.08.23a4.43,4.43,0,0,1,3.17,2.48,41.91,41.91,0,0,1,3,8.1,26.32,26.32,0,0,1,.41,9.57q-.46,3.31-.6,4a13.37,13.37,0,0,1-.69,2.44q-.74,2.12-1.15,3.13a5.71,5.71,0,0,1-2.35,2.58l-1.2.64q-.78.41-1.15.64t-.6.18l-1.31,0q-1.17,0-1.31-.14a5.8,5.8,0,0,0-1.93-.32,3.63,3.63,0,0,1-3.27-2.3q-.32-.69-1.52-3.5A36.82,36.82,0,0,1,230.76,85.33ZM242.23,69.6q-.39-.87-.92-1.93t-.8-1.66a1,1,0,0,0-.64-.64,7.05,7.05,0,0,0-1.79-.55,1.38,1.38,0,0,0-1,.23,6.74,6.74,0,0,0-2.48,2.85,21.27,21.27,0,0,0-2.12,6.85,31.62,31.62,0,0,0-.28,5.57q.32,3.54,1.06,7.41a27,27,0,0,0,1.7,5.11q.55,1.15,1.43,1.1h1.43a1.74,1.74,0,0,0,.69-.09,6.28,6.28,0,0,0,3.63-3.5,38.65,38.65,0,0,0,1.29-4.23q0-.14.55-3.4a23.37,23.37,0,0,0,0-6.07,20.22,20.22,0,0,0-1.2-5.34A9,9,0,0,0,242.23,69.6Z"/><path d="M259.46,77.6a9.38,9.38,0,0,1,1.52-.18q1,0,.74,1.06-.32,1.29-1.47,1.15-.23,0-1.84.23-.51,0-.51.64,0,3.77-.23,11.55c0,.31,0,.78,0,1.4s0,1.1,0,1.4a1.59,1.59,0,0,1-.09.64.6.6,0,0,1-.21.25,2.49,2.49,0,0,1-.62.16,11.72,11.72,0,0,1-1.89.18q-1.24,0-1.61.09a.6.6,0,0,1-.74-.37,4.22,4.22,0,0,1-.46-1.7q0-.87,0-2.67t0-2.71q.37-10.9.37-12.33,0-.83.18-5.93L253.2,64q.09-.78.51-.92a11.86,11.86,0,0,1,1.2-.37l.9,0c.41,0,.73,0,.94,0a10.93,10.93,0,0,0,1.66-.09,8.07,8.07,0,0,0,1-.09,8.52,8.52,0,0,1,.85-.09q.46-.09,1.47-.18l.6-.09.41,0q.09,0,1.43-.28a4.89,4.89,0,0,1,1.1-.09.53.53,0,0,1,.37.09q.23.09.14.69a2.23,2.23,0,0,0,0,.74q.09.37-.37.46l-1,.16-1.13.16q-2.44.18-3.5.32a1.58,1.58,0,0,0-.83.28,1.49,1.49,0,0,0-.23.87q0,1.15-.21,3.54t-.25,3.63q-.14,2.07-.14,4c0,.09,0,.23,0,.41s0,.34,0,.46Q259.14,77.6,259.46,77.6Z"/><path d="M287.29,75.53q-.14,8.65-.14,8.74,0,1.29-.37,7.36a5.6,5.6,0,0,0,0,.85,5.73,5.73,0,0,1,0,.85c0,.34.08.55.32.64l1,.14L291.7,94a1.74,1.74,0,0,1,.55,0q.46,0,.55.64a3.11,3.11,0,0,1,0,1.29q-.12.18-1,.18-.28,0-.78,0c-.34,0-.6,0-.78,0H288.9L286.37,96q-.64,0-1.89.07l-1.89.12h-.23a1.51,1.51,0,0,1-1.38-2q.46-3.22.74-9.71.14-2.21.23-9.89,0-2.07.18-6.21V64.58c0-.21,0-.54,0-1s0-.75,0-1a1.2,1.2,0,0,1,.87-1.33,4.65,4.65,0,0,1,4.19.83,1.13,1.13,0,0,1,.46,1.06v1.61h0Z"/><path d="M296.21,85.33q-.46-4-.51-4.65a25.37,25.37,0,0,1,1.38-10.63,16.16,16.16,0,0,1,2.25-4.37L300,65l.67-.76a2.66,2.66,0,0,0,.74-1,.57.57,0,0,1,.37-.41l.83-.16a7.75,7.75,0,0,0,.83-.21,2.44,2.44,0,0,1,1.08-.07l1.06.12q.3,0,1.06.23t1.08.23a4.43,4.43,0,0,1,3.17,2.48,41.91,41.91,0,0,1,3,8.1,26.33,26.33,0,0,1,.41,9.57q-.46,3.31-.6,4a13.36,13.36,0,0,1-.69,2.44q-.74,2.12-1.15,3.13a5.72,5.72,0,0,1-2.35,2.58l-1.2.64q-.78.41-1.15.64t-.6.18l-1.31,0q-1.17,0-1.31-.14a5.8,5.8,0,0,0-1.93-.32,3.63,3.63,0,0,1-3.27-2.3q-.32-.69-1.52-3.5A36.82,36.82,0,0,1,296.21,85.33ZM307.69,69.6q-.39-.87-.92-1.93T306,66a1,1,0,0,0-.64-.64,7,7,0,0,0-1.79-.55,1.38,1.38,0,0,0-1,.23A6.75,6.75,0,0,0,300,67.9a21.27,21.27,0,0,0-2.12,6.85,31.66,31.66,0,0,0-.28,5.57q.32,3.54,1.06,7.41a27,27,0,0,0,1.7,5.11q.55,1.15,1.43,1.1h1.43a1.74,1.74,0,0,0,.69-.09,6.28,6.28,0,0,0,3.63-3.5,38.54,38.54,0,0,0,1.29-4.23q0-.14.55-3.4a23.37,23.37,0,0,0,0-6.07,20.24,20.24,0,0,0-1.2-5.34A9,9,0,0,0,307.69,69.6Z"/><path d="M321.9,85.58l.11-.48q.09-.37.69-3.08t1-4.14q.37-1.47,1.15-4.16l1-3.33q1-3,1.06-3.5.41-1.84,1.52-5.34.18-.78.83-.74a3,3,0,0,1,1.1.23q1,.55,2.94,1.75.41.23.32,1a.54.54,0,0,1,0,.16.49.49,0,0,1-.09.16,12.49,12.49,0,0,0-.69,1.56q-.32.87-.51,1.52l-.48,1.72q-.3,1.08-.44,1.63-.37,1.24-1.08,3.73T329.15,78q-1.34,5.2-1.61,6.39l-1,5.57q-.55,3.86-.87,5.75a1.47,1.47,0,0,1-.46,1,.84.84,0,0,1-.87.12,9.23,9.23,0,0,1-3.45-2.21,2.07,2.07,0,0,1-.64-1.38q-.09-.92-.32-2.71t-.23-1.93q-.28-2.39-.41-3.63-.28-2.21-.37-3.36-.09-1.89-.87-6.9-.55-3.17-1.56-9.52c-.06-.25-.15-.6-.25-1.08s-.18-.83-.21-1.08a1.75,1.75,0,0,1,.16-1.13.67.67,0,0,1,.76-.34.78.78,0,0,1,.64.64,19.12,19.12,0,0,1,.51,1.93q0,.37.55,3.91t.83,5.38q.09.46,1.66,10,.14.69.32,2.07l.18.6h.18A2.22,2.22,0,0,1,321.9,85.58Z"/><path d="M340.74,93.84l2.62-.39,2.62-.39h.18q.92-.09,1.15.14t.14,1.15a.62.62,0,0,1-.46.74l-.28,0-.28,0a45.34,45.34,0,0,0-5.66.74,7.17,7.17,0,0,1-1.22.12,8.13,8.13,0,0,0-1,.07q-1.2,0-1.84,0a1.58,1.58,0,0,1-1.79-1.38,3.12,3.12,0,0,1-.09-1.52q.6-3.73.92-8.51,0-.87.12-2.58t.12-2.53.41-6.12q0-1.43.23-4.28.14-1.75.32-5.24a1.19,1.19,0,0,1,.41-.83,3.9,3.9,0,0,1,2-.78l2-.16,2.32-.16a6.77,6.77,0,0,1,.9,0,10.31,10.31,0,0,0,1,0,4,4,0,0,0,.87-.18h.41a1.9,1.9,0,0,1,.81.21,1.53,1.53,0,0,1,.11.8,1.84,1.84,0,0,1-.14.94c-.09.11-.4.18-.92.21q-2.39.09-3.59.18a.92.92,0,0,0-.58.18,1.46,1.46,0,0,0-.16.69l-.55,6.62s0,.89-.14,2.58l-.14,2.9q0,.64.14.76t.74,0l2.67-.28a1,1,0,0,1,.64.07,1.46,1.46,0,0,1,.28.67,1.51,1.51,0,0,1,.09.37c0,.43-.14.66-.51.69s-1,.12-1.75.18-1.58.12-2,.18-.51.32-.51.78-.06,1-.09,1.7,0,1.3,0,1.7q-.46,5.84-.64,6.81-.09.55-.21,1.7t-.16,1.38A1.25,1.25,0,0,0,340.74,93.84Z"/><path d="M372.57,75.85a3.34,3.34,0,0,1,1.66.18l.25.09a1,1,0,0,0,.25,0,3.16,3.16,0,0,1,2.67,1.75,9.06,9.06,0,0,1,1.24,3.22s0,.11,0,.23a2.4,2.4,0,0,1,0,.28A17.23,17.23,0,0,1,377.45,87a16.14,16.14,0,0,1-1.75,2.76,16.43,16.43,0,0,1-6.58,5.06q-.41.23-1.22.58l-1.08.48a2.28,2.28,0,0,1-2.58-.23l-.14-.14q-1-.28-.87-1.52.14-6.95.09-8.37,0-1.61-.23-9.75v-.37q-.09-3.22-.18-9.57a9.79,9.79,0,0,0,0-1.1,1.63,1.63,0,0,1,.28-1.1,2,2,0,0,1,1.43-.92l2.25-.14a19.32,19.32,0,0,1,2.3-.14,22.33,22.33,0,0,1,2.39.18q.23,0,.67,0a6.68,6.68,0,0,0,.67,0,3.55,3.55,0,0,1,2,.8,3.11,3.11,0,0,1,1.22,1.73,7,7,0,0,1-1.15,6.07,33.86,33.86,0,0,1-3.08,3.82,1.86,1.86,0,0,0-.32.51C372.06,75.82,372.42,75.85,372.57,75.85Zm-3.91-.18c.09-.09.29-.26.6-.51a27.8,27.8,0,0,0,4.19-5.06,6.06,6.06,0,0,0,1.06-3.82,1.61,1.61,0,0,0-1.38-1.61,15.72,15.72,0,0,0-3.86-.41.62.62,0,0,0-.69.64q-.14,2.21-.14,2.3v7.64c0,.09,0,.22,0,.39s0,.3,0,.39A.27.27,0,0,1,368.66,75.67Zm.55,17,.51-.28a15.84,15.84,0,0,0,5.11-4.88,10.22,10.22,0,0,0,1.38-3q.14-.55.46-2.07a5.55,5.55,0,0,0-.74-3.77,2.48,2.48,0,0,0-1.1-1,10.54,10.54,0,0,0-5.29-.14,1.15,1.15,0,0,0-.76.37,1.57,1.57,0,0,0-.21.92q.14,3.59.14,3.63,0,.92,0,2.69t0,2.65q0,1.52,0,4.46s0,.26.09.69A4.56,4.56,0,0,0,369.21,92.69Z"/><path d="M387.24,93.84l2.62-.39,2.62-.39h.18q.92-.09,1.15.14t.14,1.15a.62.62,0,0,1-.46.74l-.28,0-.28,0a45.37,45.37,0,0,0-5.66.74,7.16,7.16,0,0,1-1.22.12,8.12,8.12,0,0,0-1,.07q-1.2,0-1.84,0a1.58,1.58,0,0,1-1.79-1.38,3.1,3.1,0,0,1-.09-1.52q.6-3.73.92-8.51,0-.87.11-2.58t.12-2.53.41-6.12q0-1.43.23-4.28.14-1.75.32-5.24a1.19,1.19,0,0,1,.41-.83,3.91,3.91,0,0,1,2-.78l2-.16L390.1,62a6.8,6.8,0,0,1,.9,0,10.32,10.32,0,0,0,1,0,4,4,0,0,0,.87-.18h.41a1.9,1.9,0,0,1,.8.21,1.53,1.53,0,0,1,.12.8,1.83,1.83,0,0,1-.14.94q-.14.16-.92.21-2.39.09-3.59.18a.92.92,0,0,0-.58.18,1.47,1.47,0,0,0-.16.69l-.55,6.62s0,.89-.14,2.58L388,77q0,.64.14.76t.74,0l2.67-.28a1,1,0,0,1,.64.07,1.46,1.46,0,0,1,.28.67,1.54,1.54,0,0,1,.09.37q0,.64-.51.69t-1.75.18q-1.38.09-2,.18c-.34.06-.51.32-.51.78s-.06,1-.09,1.7,0,1.3,0,1.7q-.46,5.84-.64,6.81-.09.55-.21,1.7t-.16,1.38A1.25,1.25,0,0,0,387.24,93.84Z"/><path d="M396.77,83.77a65.23,65.23,0,0,1,1.47-11.45,17.27,17.27,0,0,1,1.7-5.06,24.83,24.83,0,0,1,1.93-3.31,5.23,5.23,0,0,1,3.31-2.12,2.09,2.09,0,0,1,1.43.09.19.19,0,0,1,.12.07l.14.16.12.14-.12.14-.14.16a.19.19,0,0,1-.12.07l-.6.11-.6.12a4.45,4.45,0,0,0-2.48,2,10,10,0,0,0-.69,1.22q-.32.67-.69,1.59c-.25.61-.43,1.06-.55,1.33a9.24,9.24,0,0,0-.87,2.85q-.41,2.72-1,7.36,0,.09-.28,2.44a18.22,18.22,0,0,0,.23,4,6.94,6.94,0,0,0,1.84,3.45,2.71,2.71,0,0,0,2.3.74,6.25,6.25,0,0,0,2-.69,7.33,7.33,0,0,0,1.61-1.33,43,43,0,0,0,4.46-7l.28-.55q.32-.73,1-.46a.82.82,0,0,1,.23.09,1.53,1.53,0,0,1,.78.55,2.3,2.3,0,0,1,0,1.1,12.26,12.26,0,0,1-1.52,4.69q-2,3.4-2.71,4.55a12.46,12.46,0,0,1-5,4.51,3.93,3.93,0,0,1-4.6-.64,6.7,6.7,0,0,1-2-2.81.82.82,0,0,0-.23-.37,2.26,2.26,0,0,1-.46-1.29c-.06-.55-.12-1-.18-1.24v0Q396.77,87,396.77,83.77Z"/><path d="M412.31,94.94a7.75,7.75,0,0,1,.28-1.33q.37-1.15.87-3.33t.74-3.06q.28-1.1.69-3.15t.51-2.55q1.2-5.43,1.52-6.62l.39-1.36.46-1.59.39-1.33,1.24-5.11a3.12,3.12,0,0,0,0-.87,1.17,1.17,0,0,1,.64-1.47q.28-.14.85-.37a6.35,6.35,0,0,0,.8-.37,6.83,6.83,0,0,1,2.12-.28,1,1,0,0,1,1.2.78,4,4,0,0,1,.23.87q.69,6.35.92,8.83.23,2.12.6,5.75a4.84,4.84,0,0,1,.07.48c0,.17,0,.35,0,.55s0,.36,0,.48q.37,3.4.55,5.06.18,2.16.55,6.39a10.66,10.66,0,0,1,0,1.17v1.22a.89.89,0,0,1-.41.69,10,10,0,0,1-3.08,1.29.44.44,0,0,0-.32.14.84.84,0,0,1-.92,0,1,1,0,0,1-.55-1,64.06,64.06,0,0,0-.64-8.6q-.09-.55-.21-1.61t-.16-1.61a1.64,1.64,0,0,0-.23-.71q-.14-.16-.64-.12t-3.59.23a.88.88,0,0,0-.87.83q-.18,1-1.2,5.43-.18.64-.53,1.93t-.48,1.93a20.37,20.37,0,0,1-.78,2.76q-.46.41-.6.28c0-.06-.06-.09-.09-.09a.13.13,0,0,0,0,.09v0l-.28.14A3.1,3.1,0,0,1,412.31,94.94ZM417.1,81l1.29-.14q.41,0,1.22-.07l1.22,0q.46,0,.55-.12c.06-.08.06-.27,0-.58s-.14-1.07-.23-1.91S421,76.7,421,76.27q-.09-1-.3-3.06t-.34-3.06a1.62,1.62,0,0,0-.07-.39,1.6,1.6,0,0,1-.07-.34A55.6,55.6,0,0,0,417.1,81Z"/><path d="M430.94,73.14q.14-3.45.51-9.84,0-1,.69-1a1,1,0,0,1,.71.41,1.17,1.17,0,0,1,.25.87L433,65.2l-.14,1.63a5.61,5.61,0,0,0-.09.87q-.09,10.35-.09,12.42t.28,6.62q0,.32.37,1.7a9.79,9.79,0,0,0,.32,1.2,7.67,7.67,0,0,0,.32,1.06q.46,1,1.29.78A5.2,5.2,0,0,0,439,87.22l.12-.46q.07-.28.11-.53a2.73,2.73,0,0,0,0-.48q.55-3.77.78-5.7.55-5.75.64-7.13.23-3.17.32-7.22a10.64,10.64,0,0,0-.09-1.7,2.16,2.16,0,0,1,1.2-2.35,1.66,1.66,0,0,1,1.43-.09,4.6,4.6,0,0,0,.92.18,2.73,2.73,0,0,1,1.06.32A2.69,2.69,0,0,1,447,64.81q-.14,2.94-.51,9.34-.46,5.89-.74,9.2a40.67,40.67,0,0,1-.64,4.42q0,.32-1.1,3.54-.14.32-.39.87a6.69,6.69,0,0,0-.35.87,8.54,8.54,0,0,1-2.48,3.08,5.64,5.64,0,0,1-4.65,1.38,3.29,3.29,0,0,1-1.93-1q-1.93-1.89-2.76-6.12,0-.41-.18-2.53Q431.13,86.2,431,83t-.18-4.88h.09Q430.9,74,430.94,73.14Z"/><path d="M465.21,79.35a6.38,6.38,0,0,1,.14,1,8.16,8.16,0,0,0,.09.87,30.87,30.87,0,0,1-1.29,7.31,9.61,9.61,0,0,1-.46,1.13,8.62,8.62,0,0,1-.48.9l-.67,1q-.46.69-.6.87a12.81,12.81,0,0,1-3.63,3.63l-.09,0a4.32,4.32,0,0,1-1,.48,9.49,9.49,0,0,1-1.77.34,6.78,6.78,0,0,1-2.74-.34A11.74,11.74,0,0,1,449.44,95,9.27,9.27,0,0,1,448,91.93a12.92,12.92,0,0,1-.55-2.87V87.91l.14-.69a12.33,12.33,0,0,1,.46-1.56q.28-.69,1-.28c.21.09.32.21.32.37l0,.18q0,.14-.14.48a5.64,5.64,0,0,0-.14.67,5.31,5.31,0,0,0-.14,2.48,5.15,5.15,0,0,0,4.65,5.06,3.49,3.49,0,0,0,2.9-.58A4.73,4.73,0,0,0,458,91.47a18.39,18.39,0,0,0,.6-3.24,22.58,22.58,0,0,0,0-3.22,13.41,13.41,0,0,0-.18-2.3l-.14-.69q-.87-3.73-3.73-4.51L452.56,77a4.52,4.52,0,0,1-2.85-4.37,10.74,10.74,0,0,1,.74-3.5A12.38,12.38,0,0,1,452.06,66,7.49,7.49,0,0,1,456.38,63a23.81,23.81,0,0,1,2.9-.55,5.37,5.37,0,0,1,3.27,1,5.8,5.8,0,0,1,1.61,1.33,2.11,2.11,0,0,1,.23.41c.06.31.06.49,0,.55A.45.45,0,0,1,464,66a1.56,1.56,0,0,1-.6-.41,8.2,8.2,0,0,0-2.25-1.43,3.91,3.91,0,0,0-3.08,0,10.33,10.33,0,0,0-2.76,1.24,6.86,6.86,0,0,0-2.76,3.4,10.83,10.83,0,0,0-1,2.94,2.46,2.46,0,0,0-.09.51,1.73,1.73,0,0,0,.25,1.22,1,1,0,0,0,.94.25,24.78,24.78,0,0,1,3.31-.14q.46,0,1.59-.09a11.77,11.77,0,0,1,1.72,0,5.51,5.51,0,0,1,4.19,2.25A8.23,8.23,0,0,1,465.21,79.35Z"/><path d="M474,93.84l2.62-.39,2.62-.39h.18q.92-.09,1.15.14t.14,1.15a.62.62,0,0,1-.46.74l-.28,0-.28,0a45.34,45.34,0,0,0-5.66.74,7.17,7.17,0,0,1-1.22.12,8.13,8.13,0,0,0-1,.07q-1.2,0-1.84,0a1.58,1.58,0,0,1-1.79-1.38,3.12,3.12,0,0,1-.09-1.52q.6-3.73.92-8.51,0-.87.12-2.58t.12-2.53.41-6.12q0-1.43.23-4.28.14-1.75.32-5.24a1.19,1.19,0,0,1,.41-.83,3.9,3.9,0,0,1,2-.78l2-.16,2.32-.16a6.77,6.77,0,0,1,.9,0,10.31,10.31,0,0,0,1,0,4,4,0,0,0,.87-.18h.41a1.9,1.9,0,0,1,.81.21,1.53,1.53,0,0,1,.11.8,1.84,1.84,0,0,1-.14.94c-.09.11-.4.18-.92.21q-2.39.09-3.59.18a.92.92,0,0,0-.58.18,1.46,1.46,0,0,0-.16.69l-.55,6.62s0,.89-.14,2.58l-.14,2.9q0,.64.14.76t.74,0l2.67-.28a1,1,0,0,1,.64.07,1.46,1.46,0,0,1,.28.67,1.51,1.51,0,0,1,.09.37c0,.43-.14.66-.51.69s-1,.12-1.75.18-1.58.12-2,.18-.51.32-.51.78-.06,1-.09,1.7,0,1.3,0,1.7q-.46,5.84-.64,6.81-.09.55-.21,1.7t-.16,1.38A1.25,1.25,0,0,0,474,93.84Z"/><path d="M15.89,123.51q0-1.06,0-1.61v-.64a1.47,1.47,0,0,0-.21-.78.82.82,0,0,0-.62-.18h-3a7,7,0,0,1-.92,0,.73.73,0,0,1-.53-.44,1.26,1.26,0,0,1-.16-.76.73.73,0,0,1,.78-.74c.34,0,.82,0,1.45,0l1.73.07,1.47,0a13.49,13.49,0,0,0,3.08-.23,23.38,23.38,0,0,1,5.38-.46q.83,0,2.35-.09t2-.09a1.19,1.19,0,0,1,1.2,1.06q.14.55-.28.69l-.23,0-.23,0-6.26.14h-.37q-.69,0-.85.28a2.1,2.1,0,0,0-.07,1.15,6,6,0,0,1,0,.87q-.09,1.84-.18,2.76t-.23,2.67q0,.51-.14,1.43t-.16,1.66q-.07.74-.11,1.43-.37,5.29-.51,7.68-.23,3.13-.46,5.61t-.23,3.36q0,.23,0,.74t0,.78a1,1,0,0,1-.55.87,6.49,6.49,0,0,1-1.54.37q-1,.14-1.36.23a2.33,2.33,0,0,1-1.1-.14q-.87-.28-.78-1.52.09-1.06.41-4.16t.46-5.22q.23-2.85.51-8.74l.14-2.78.14-2.78v-1h0Q15.85,124.57,15.89,123.51Z"/><path d="M40.55,140.64q.09-3.2.14-4.76a1.29,1.29,0,0,0-.11-.67c-.08-.11-.25-.16-.53-.16a22.35,22.35,0,0,1-3-.18q-.78-.14-.83.64-.41,5.71-.51,7,0,.74-.18,2.21T35.3,147a6.81,6.81,0,0,0,0,1.29l0,1.29a1.49,1.49,0,0,1-.11.55,1.33,1.33,0,0,1-.53.23,30.29,30.29,0,0,1-3.59.55,1.43,1.43,0,0,1-1.13-.41,1.33,1.33,0,0,1-.44-1.1q.28-5.8.28-5.89.46-6.71.64-9.75l.41-5.38q.09-.83.23-2.39t.18-2.39q0-.51.18-1.5t.18-1.45q.09-1.47.09-2.25a1.11,1.11,0,0,1,.87-1.1,6.53,6.53,0,0,1,3.54.18l.32.09a2.09,2.09,0,0,1,1,.6,2.41,2.41,0,0,1,.11,1.15q0,.78-.21,2.23t-.21,1.68q-.09,1.15-.3,3.38t-.3,3.24q0,.55-.18,2.58a1,1,0,0,0,.07.62.94.94,0,0,0,.58.25,21.17,21.17,0,0,0,3.08.14q.64,0,.69-.55a21.72,21.72,0,0,0,.14-2.39q0-1.24.16-3.7t.16-3.7q0-.78,0-2.28t0-2.28a1.82,1.82,0,0,1,0-.51.6.6,0,0,1,.44-.58.72.72,0,0,1,.71.16,2.69,2.69,0,0,1,1.06,2.16q-.09,1.24-.12,3.47t-.07,3.11l-.28,5.52c0,.18,0,.46,0,.83s0,.64,0,.83q0,1-.09,3.06t-.09,3.06.14,8.1q0,.28,0,1a6.77,6.77,0,0,0,0,1.13.86.86,0,0,1-.55.74,1.39,1.39,0,0,1-1.47-.09,1.58,1.58,0,0,1-.55-1.43,12,12,0,0,0,.14-1.79q0-.6-.09-1.79a0,0,0,0,0,0,0Z"/><path d="M52,149l2.62-.39,2.62-.39h.18q.92-.09,1.15.14t.14,1.15a.62.62,0,0,1-.46.74l-.28,0-.28,0a45.23,45.23,0,0,0-5.66.74,7,7,0,0,1-1.22.12,8.05,8.05,0,0,0-1,.07q-1.2,0-1.84,0a1.58,1.58,0,0,1-1.79-1.38,3.11,3.11,0,0,1-.09-1.52q.6-3.73.92-8.51,0-.87.11-2.58t.12-2.53.41-6.12q0-1.43.23-4.28.14-1.75.32-5.24a1.2,1.2,0,0,1,.41-.83,3.91,3.91,0,0,1,2-.78l2-.16,2.32-.16a6.79,6.79,0,0,1,.9,0q.57,0,1,0a4,4,0,0,0,.87-.18h.41a1.91,1.91,0,0,1,.81.21,1.54,1.54,0,0,1,.11.81,1.83,1.83,0,0,1-.14.94c-.09.11-.4.18-.92.21q-2.39.09-3.59.18a.91.91,0,0,0-.58.18,1.46,1.46,0,0,0-.16.69l-.55,6.62s0,.89-.14,2.58l-.14,2.9q0,.64.14.76t.74,0l2.67-.28a1,1,0,0,1,.64.07,1.46,1.46,0,0,1,.28.67,1.52,1.52,0,0,1,.09.37c0,.43-.14.66-.51.69s-1,.12-1.75.18-1.58.12-2,.18-.51.32-.51.78-.06,1-.09,1.7,0,1.3,0,1.7q-.46,5.84-.64,6.81-.09.55-.21,1.7T51.5,149A1.25,1.25,0,0,0,52,149Z"/><path d="M73.53,139A65.17,65.17,0,0,1,75,127.51a17.25,17.25,0,0,1,1.7-5.06,25,25,0,0,1,1.93-3.31A5.23,5.23,0,0,1,81.95,117a2.08,2.08,0,0,1,1.43.09.19.19,0,0,1,.12.07l.14.16.12.14-.12.14-.14.16a.19.19,0,0,1-.12.07l-.6.12-.6.12a4.45,4.45,0,0,0-2.48,2,10.12,10.12,0,0,0-.69,1.22q-.32.67-.69,1.59t-.55,1.33a9.23,9.23,0,0,0-.87,2.85q-.41,2.71-1,7.36,0,.09-.28,2.44a18.22,18.22,0,0,0,.23,4,6.94,6.94,0,0,0,1.84,3.45A2.71,2.71,0,0,0,80,145a6.23,6.23,0,0,0,2-.69A7.3,7.3,0,0,0,83.6,143a42.89,42.89,0,0,0,4.46-7l.28-.55q.32-.74,1-.46a.84.84,0,0,1,.23.09,1.54,1.54,0,0,1,.78.55,2.3,2.3,0,0,1,0,1.1,12.25,12.25,0,0,1-1.52,4.69q-2,3.4-2.71,4.55a12.46,12.46,0,0,1-5,4.51,3.94,3.94,0,0,1-4.6-.64,6.71,6.71,0,0,1-2-2.81.82.82,0,0,0-.23-.37,2.27,2.27,0,0,1-.46-1.29c-.06-.55-.12-1-.18-1.24v0Q73.53,142.19,73.53,139Z"/><path d="M93.72,140.53q-.46-4-.51-4.65a25.36,25.36,0,0,1,1.38-10.63,16.21,16.21,0,0,1,2.25-4.37q.23-.23.67-.71l.67-.76a2.66,2.66,0,0,0,.74-1,.56.56,0,0,1,.37-.41l.83-.16a7.77,7.77,0,0,0,.83-.21,2.44,2.44,0,0,1,1.08-.07l1.06.12q.3,0,1.06.23t1.08.23a4.43,4.43,0,0,1,3.17,2.48,41.88,41.88,0,0,1,3,8.1,26.32,26.32,0,0,1,.41,9.57q-.46,3.31-.6,4a13.37,13.37,0,0,1-.69,2.44q-.74,2.12-1.15,3.13a5.71,5.71,0,0,1-2.35,2.58l-1.2.64q-.78.41-1.15.64c-.31.15-.51.21-.6.18l-1.31,0q-1.17,0-1.31-.14a5.81,5.81,0,0,0-1.93-.32,3.63,3.63,0,0,1-3.27-2.3q-.32-.69-1.52-3.5A36.77,36.77,0,0,1,93.72,140.53ZM105.2,124.8q-.39-.87-.92-1.93t-.8-1.66a1,1,0,0,0-.64-.64A7.09,7.09,0,0,0,101,120a1.39,1.39,0,0,0-1,.23,6.73,6.73,0,0,0-2.48,2.85A21.28,21.28,0,0,0,95.42,130a31.61,31.61,0,0,0-.28,5.57q.32,3.54,1.06,7.41a27,27,0,0,0,1.7,5.11q.55,1.15,1.43,1.1h1.43a1.74,1.74,0,0,0,.69-.09,6.28,6.28,0,0,0,3.63-3.5,38.62,38.62,0,0,0,1.29-4.23q0-.14.55-3.4a23.37,23.37,0,0,0,0-6.07,20.21,20.21,0,0,0-1.2-5.34A9,9,0,0,0,105.2,124.8Z"/><path d="M121.23,130.73q-.14,8.65-.14,8.74,0,1.29-.37,7.36a5.59,5.59,0,0,0,0,.85,5.75,5.75,0,0,1,0,.85c0,.34.08.55.32.64l1,.14,3.73-.14a1.69,1.69,0,0,1,.55,0q.46,0,.55.64a3.11,3.11,0,0,1,0,1.29q-.11.18-1,.18c-.18,0-.44,0-.78,0s-.6,0-.78,0h-1.33l-2.53-.14q-.64,0-1.89.07l-1.89.11h-.23a1.51,1.51,0,0,1-1.38-2q.46-3.22.74-9.71.14-2.21.23-9.89,0-2.07.18-6.21v-3.86c0-.21,0-.54,0-1s0-.75,0-1a1.2,1.2,0,0,1,.87-1.33,4.66,4.66,0,0,1,4.19.83,1.13,1.13,0,0,1,.46,1.06V120h0Q121.32,127.19,121.23,130.73Z"/><path d="M130.15,140.53q-.46-4-.51-4.65A25.36,25.36,0,0,1,131,125.26a16.21,16.21,0,0,1,2.25-4.37q.23-.23.67-.71l.67-.76a2.66,2.66,0,0,0,.74-1,.56.56,0,0,1,.37-.41l.83-.16a7.77,7.77,0,0,0,.83-.21,2.44,2.44,0,0,1,1.08-.07l1.06.12q.3,0,1.06.23t1.08.23a4.43,4.43,0,0,1,3.17,2.48,41.88,41.88,0,0,1,3,8.1,26.32,26.32,0,0,1,.41,9.57q-.46,3.31-.6,4a13.37,13.37,0,0,1-.69,2.44q-.74,2.12-1.15,3.13a5.71,5.71,0,0,1-2.35,2.58l-1.2.64q-.78.41-1.15.64c-.31.15-.51.21-.6.18l-1.31,0q-1.17,0-1.31-.14a5.81,5.81,0,0,0-1.93-.32,3.63,3.63,0,0,1-3.27-2.3q-.32-.69-1.52-3.5A36.77,36.77,0,0,1,130.15,140.53Zm11.48-15.73q-.39-.87-.92-1.93t-.8-1.66a1,1,0,0,0-.64-.64,7.09,7.09,0,0,0-1.79-.55,1.39,1.39,0,0,0-1,.23A6.73,6.73,0,0,0,134,123.1a21.28,21.28,0,0,0-2.12,6.85,31.61,31.61,0,0,0-.28,5.57q.32,3.54,1.06,7.41a27,27,0,0,0,1.7,5.11q.55,1.15,1.43,1.1h1.43a1.74,1.74,0,0,0,.69-.09,6.28,6.28,0,0,0,3.63-3.5,38.62,38.62,0,0,0,1.29-4.23q0-.14.55-3.4a23.37,23.37,0,0,0,0-6.07,20.21,20.21,0,0,0-1.2-5.34A9,9,0,0,0,141.63,124.8Z"/><path d="M158.63,135.35a4.36,4.36,0,0,0-.64.48,1.25,1.25,0,0,0-.32.6,12.14,12.14,0,0,0-.09,1.24q-.18,3.27-.46,9.8l-.14,2.76a1,1,0,0,1-.6.87,10.25,10.25,0,0,1-1.08.41q-.58.18-1.31.34l-1.1.25a.89.89,0,0,1-.57,0,1.39,1.39,0,0,1-.39-.55,2.08,2.08,0,0,0-.32-.51,1.85,1.85,0,0,1-.28-1.33l.41-5.24q.37-5.06.51-7.59.14-1.56.32-4.69.37-3.82.51-6,0-.92,0-2.76,0-.28,0-1.13t.07-1.31a1.23,1.23,0,0,0-.37-1.06.66.66,0,0,1-.37-.78.78.78,0,0,1,.64-.64q.46-.09,1.27-.3l1.47-.37,1.26-.3a24.91,24.91,0,0,1,4.69-.46,6.82,6.82,0,0,1,3,.78,3.91,3.91,0,0,1,1.56,1.79,7.62,7.62,0,0,1,.51,5.7,10.43,10.43,0,0,1-2.44,4.46q-.37.41-1,1.22t-.74.94q-.18.23-.64.69a1.3,1.3,0,0,0-.46,1.33l.48,2.23q.39,1.82.62,2.83t2.07,8.65q.09.28.35,1.1t.34,1.29a1.71,1.71,0,0,1-.16,1.31,1.29,1.29,0,0,1-.94.71.28.28,0,0,1-.37-.09,2.47,2.47,0,0,1-.92-1.38q-.28-1.66-.67-3.45t-.92-4q-.53-2.23-.76-3.38-.18-.83-.6-2.32t-.55-2l-.28-.6A4.2,4.2,0,0,1,158.63,135.35ZM158,133l.6-.41a5.34,5.34,0,0,0,.69-.55,33,33,0,0,0,4.37-5,9.39,9.39,0,0,0,1.52-5.06q.14-2.53-2.21-2.85-.69,0-4,0a2.21,2.21,0,0,0-.55.23,4,4,0,0,1,.35,1,8.64,8.64,0,0,1-.07,1.2.63.63,0,0,0,0,.28v.28q-.37,4.6-.51,6.85-.14,1.29-.32,3.86A.75.75,0,0,1,158,133Z"/><path d="M189.22,135.35a4.36,4.36,0,0,0-.64.48,1.25,1.25,0,0,0-.32.6,12.14,12.14,0,0,0-.09,1.24q-.18,3.27-.46,9.8l-.14,2.76a1,1,0,0,1-.6.87,10.25,10.25,0,0,1-1.08.41q-.58.18-1.31.34l-1.1.25a.89.89,0,0,1-.57,0,1.39,1.39,0,0,1-.39-.55,2.08,2.08,0,0,0-.32-.51,1.85,1.85,0,0,1-.28-1.33l.41-5.24q.37-5.06.51-7.59.14-1.56.32-4.69.37-3.82.51-6,0-.92,0-2.76,0-.28,0-1.13t.07-1.31a1.23,1.23,0,0,0-.37-1.06.66.66,0,0,1-.37-.78.78.78,0,0,1,.64-.64q.46-.09,1.27-.3l1.47-.37,1.26-.3a24.91,24.91,0,0,1,4.69-.46,6.82,6.82,0,0,1,3,.78,3.91,3.91,0,0,1,1.56,1.79,7.62,7.62,0,0,1,.51,5.7,10.43,10.43,0,0,1-2.44,4.46q-.37.41-1,1.22t-.74.94q-.18.23-.64.69a1.3,1.3,0,0,0-.46,1.33l.48,2.23q.39,1.82.62,2.83t2.07,8.65q.09.28.35,1.1t.34,1.29a1.71,1.71,0,0,1-.16,1.31,1.29,1.29,0,0,1-.94.71.28.28,0,0,1-.37-.09,2.47,2.47,0,0,1-.92-1.38q-.28-1.66-.67-3.45t-.92-4q-.53-2.23-.76-3.38-.18-.83-.6-2.32t-.55-2l-.28-.6A4.2,4.2,0,0,1,189.22,135.35Zm-.6-2.37.6-.41a5.34,5.34,0,0,0,.69-.55,33,33,0,0,0,4.37-5,9.39,9.39,0,0,0,1.52-5.06q.14-2.53-2.21-2.85-.69,0-4,0a2.21,2.21,0,0,0-.55.23,4,4,0,0,1,.35,1,8.64,8.64,0,0,1-.07,1.2.63.63,0,0,0,0,.28v.28q-.37,4.6-.51,6.85-.14,1.29-.32,3.86A.75.75,0,0,1,188.62,133Z"/><path d="M206.33,149l2.62-.39,2.62-.39h.18q.92-.09,1.15.14t.14,1.15a.62.62,0,0,1-.46.74l-.28,0-.28,0a45.23,45.23,0,0,0-5.66.74,7,7,0,0,1-1.22.12,8.05,8.05,0,0,0-1,.07q-1.2,0-1.84,0a1.58,1.58,0,0,1-1.79-1.38,3.11,3.11,0,0,1-.09-1.52q.6-3.73.92-8.51,0-.87.11-2.58t.12-2.53.41-6.12q0-1.43.23-4.28.14-1.75.32-5.24a1.2,1.2,0,0,1,.41-.83,3.91,3.91,0,0,1,2-.78l2-.16,2.32-.16a6.79,6.79,0,0,1,.9,0q.57,0,1,0a4,4,0,0,0,.87-.18h.41a1.91,1.91,0,0,1,.81.21,1.54,1.54,0,0,1,.11.81,1.83,1.83,0,0,1-.14.94c-.09.11-.4.18-.92.21q-2.39.09-3.59.18a.91.91,0,0,0-.58.18,1.46,1.46,0,0,0-.16.69l-.55,6.62s0,.89-.14,2.58l-.14,2.9q0,.64.14.76t.74,0l2.67-.28a1,1,0,0,1,.64.07,1.46,1.46,0,0,1,.28.67,1.52,1.52,0,0,1,.09.37c0,.43-.14.66-.51.69s-1,.12-1.75.18-1.58.12-2,.18-.51.32-.51.78-.06,1-.09,1.7,0,1.3,0,1.7q-.46,5.84-.64,6.81-.09.55-.21,1.7t-.16,1.38A1.25,1.25,0,0,0,206.33,149Z"/><path d="M217.23,120.52l-.64.09a.93.93,0,0,1-.6-.18.6.6,0,0,1-.41-.51c0-.09.14-.28.41-.55a5.57,5.57,0,0,1,1-.46,8.85,8.85,0,0,0,1.66-.87,2.83,2.83,0,0,1,1.75-.55,51.49,51.49,0,0,1,6.67.14,4.36,4.36,0,0,1,2.25,1q.28.23.92.67t.92.67a6,6,0,0,1,1.43,2.35,11,11,0,0,1,.51,5.89,15.94,15.94,0,0,1-1.52,4.74q-.51.92-2.35,5.52a36.05,36.05,0,0,1-2.62,5.34l-2.9,4.74q-.78,1.29-1.89,2.9a.59.59,0,0,1-.6.37,2.81,2.81,0,0,0-.44-.09l-.46-.07a.83.83,0,0,1-.37-.18.93.93,0,0,1-.3-.39l-.41-.18-.67,0a5.09,5.09,0,0,1-.67-.07q-1.2-.09-1.06-1.43,0-.69.16-2t.16-2q0-.6.09-1.63t.09-1.91q0-.87.09-1.66.09-1.1.23-3.31t.23-3.31q.18-3.5.23-5.52,0-2.35,0-7a3.51,3.51,0,0,0,0-.64Q217.78,120.43,217.23,120.52Zm5.7,25,.23-.28q.55-1,.83-1.47a46.67,46.67,0,0,0,3.73-7.54q.18-.55,2.21-5a12.39,12.39,0,0,0,1.29-6.49q-.14-3.63-3.91-5.24a9.63,9.63,0,0,0-2.62-.32q-.55,0-.71.14a1.39,1.39,0,0,0-.16.83q-.09,2.07-.18,6.3,0,.83,0,2.44t-.09,2.44q0,1.06-.23,3.22t-.23,3.27q-.28,4.88-.41,7.27a2.54,2.54,0,0,0,0,.78Q222.75,145.73,222.93,145.5Z"/><path d="M266.08,134.55a6.27,6.27,0,0,1,.14,1,8.06,8.06,0,0,0,.09.87,30.87,30.87,0,0,1-1.29,7.31,9.69,9.69,0,0,1-.46,1.13,8.7,8.7,0,0,1-.48.9l-.67,1q-.46.69-.6.87a12.81,12.81,0,0,1-3.63,3.63l-.09,0a4.35,4.35,0,0,1-1,.48,9.48,9.48,0,0,1-1.77.34,6.81,6.81,0,0,1-2.74-.34,11.75,11.75,0,0,1-3.24-1.63,9.29,9.29,0,0,1-1.47-3.06,12.91,12.91,0,0,1-.55-2.87v-1.15l.14-.69a12.51,12.51,0,0,1,.46-1.56q.28-.69,1-.28c.21.09.32.21.32.37l0,.18q0,.14-.14.48a5.5,5.5,0,0,0-.14.67,5.32,5.32,0,0,0-.14,2.48,5.15,5.15,0,0,0,4.65,5.06,3.48,3.48,0,0,0,2.9-.58,4.73,4.73,0,0,0,1.61-2.58,18.43,18.43,0,0,0,.6-3.24,22.51,22.51,0,0,0,0-3.22,13.46,13.46,0,0,0-.18-2.3l-.14-.69q-.87-3.73-3.73-4.51l-2.07-.55a4.52,4.52,0,0,1-2.85-4.37,10.75,10.75,0,0,1,.74-3.5,12.4,12.4,0,0,1,1.61-3.13,7.49,7.49,0,0,1,4.32-2.94,23.6,23.6,0,0,1,2.9-.55,5.37,5.37,0,0,1,3.27,1A5.81,5.81,0,0,1,265,120a2.07,2.07,0,0,1,.23.41c.06.31.06.49,0,.55a.45.45,0,0,1-.41.23,1.56,1.56,0,0,1-.6-.41,8.18,8.18,0,0,0-2.25-1.43,3.91,3.91,0,0,0-3.08,0,10.36,10.36,0,0,0-2.76,1.24,6.86,6.86,0,0,0-2.76,3.4,10.86,10.86,0,0,0-1,2.94,2.49,2.49,0,0,0-.09.51,1.73,1.73,0,0,0,.25,1.22,1,1,0,0,0,.94.25,25,25,0,0,1,3.31-.14q.46,0,1.59-.09a11.78,11.78,0,0,1,1.73,0,5.51,5.51,0,0,1,4.19,2.25A8.22,8.22,0,0,1,266.08,134.55Z"/><path d="M274.45,123.51q0-1.06,0-1.61v-.64a1.47,1.47,0,0,0-.21-.78.82.82,0,0,0-.62-.18h-3a7,7,0,0,1-.92,0,.73.73,0,0,1-.53-.44,1.26,1.26,0,0,1-.16-.76.73.73,0,0,1,.78-.74c.34,0,.82,0,1.45,0l1.73.07,1.47,0a13.49,13.49,0,0,0,3.08-.23,23.38,23.38,0,0,1,5.38-.46q.83,0,2.35-.09t2-.09a1.19,1.19,0,0,1,1.2,1.06q.14.55-.28.69l-.23,0-.23,0-6.26.14h-.37q-.69,0-.85.28a2.1,2.1,0,0,0-.07,1.15,6,6,0,0,1,0,.87q-.09,1.84-.18,2.76t-.23,2.67q0,.51-.14,1.43t-.16,1.66q-.07.74-.11,1.43-.37,5.29-.51,7.68-.23,3.13-.46,5.61t-.23,3.36q0,.23,0,.74t0,.78a1,1,0,0,1-.55.87,6.49,6.49,0,0,1-1.54.37q-1,.14-1.36.23a2.33,2.33,0,0,1-1.1-.14q-.87-.28-.78-1.52.09-1.06.41-4.16t.46-5.22q.23-2.85.51-8.74l.14-2.78.14-2.78v-1h0Q274.41,124.57,274.45,123.51Z"/><path d="M286.32,150.14a7.82,7.82,0,0,1,.28-1.33q.37-1.15.87-3.33t.74-3.06q.28-1.1.69-3.15t.51-2.55q1.2-5.43,1.52-6.62l.39-1.36.46-1.59.39-1.33,1.24-5.11a3.08,3.08,0,0,0,0-.87,1.17,1.17,0,0,1,.64-1.47q.28-.14.85-.37a6.38,6.38,0,0,0,.81-.37,6.84,6.84,0,0,1,2.12-.28,1,1,0,0,1,1.2.78,4,4,0,0,1,.23.87q.69,6.35.92,8.83.23,2.12.6,5.75c0,.15.05.31.07.48s0,.35,0,.55,0,.36,0,.48q.37,3.41.55,5.06.18,2.16.55,6.39a10.67,10.67,0,0,1,0,1.17v1.22a.89.89,0,0,1-.41.69,10,10,0,0,1-3.08,1.29.44.44,0,0,0-.32.14.83.83,0,0,1-.92,0,1,1,0,0,1-.55-1,63.92,63.92,0,0,0-.64-8.6q-.09-.55-.21-1.61t-.16-1.61a1.67,1.67,0,0,0-.23-.71q-.14-.16-.64-.11t-3.59.23a.89.89,0,0,0-.87.83q-.18,1-1.2,5.43-.18.65-.53,1.93t-.48,1.93a20.49,20.49,0,0,1-.78,2.76q-.46.41-.6.28c0-.06-.06-.09-.09-.09a.13.13,0,0,0,0,.09v0l-.28.14A3.1,3.1,0,0,1,286.32,150.14Zm4.78-13.94,1.29-.14q.41,0,1.22-.07l1.22,0c.31,0,.49,0,.55-.11s.06-.27,0-.58-.14-1.07-.23-1.91-.15-1.48-.18-1.91q-.09-1-.3-3.06t-.34-3.06a1.62,1.62,0,0,0-.07-.39,1.62,1.62,0,0,1-.07-.34A55.59,55.59,0,0,0,291.11,136.21Z"/><path d="M318.2,142.46q0-1,.12-3t.12-3q0-1.06.16-3.1t.16-3q.28-4,.37-6.16.09-1.56.18-4.51a4.48,4.48,0,0,1,0-.78q.09-1.15,1.1-1.1l3.54.46a.64.64,0,0,1,.64.74,3,3,0,0,1,0,.87q0,1-.14,2.94l-.14,3.33q-.09,2.23-.18,3.34,0,.78-.09,2.3t-.14,2.3q0,.78,0,2.3v2.3q0,.87-.09,3.54t-.09,4.14q0,.32-.07,2.07a5.77,5.77,0,0,0,.12,2.07.83.83,0,0,1-.78,1.15l-.67.09-.76.09-.64.09a5.63,5.63,0,0,1-2.67-.74,1.09,1.09,0,0,1-.51-.74q-.46-1.38-1.29-4.14-.18-.6-.74-2.48t-.83-2.9l-.48-1.93-.55-2.23q-.3-1.22-.48-1.91-1.29-5.06-2-7.59a21.16,21.16,0,0,0-.83-2.62q0,.46,0,1.4t-.09,1.45q0,.92-.11,2.53t-.12,2.92q0,1.31,0,2.51,0,2,.09,5.93.09,5.52.14,8.33a3.94,3.94,0,0,1-.09.74.65.65,0,0,1-.6.51l-.37,0-.39.07a1.68,1.68,0,0,1-.35,0,2.76,2.76,0,0,0-.6,0h-1.2a1.42,1.42,0,0,1-.51,0,1.68,1.68,0,0,1-1.15-.48,1.92,1.92,0,0,1-.28-1.31q.09-4.23.09-6.35,0-.87,0-3.63t0-4.28q0-1,.23-6.16.09-2.71,0-5.38,0-1.56-.18-4.78a1.71,1.71,0,0,1,.16-1,1.3,1.3,0,0,1,.8-.44,5.44,5.44,0,0,1,3.27.18,4.73,4.73,0,0,1,1.38.69,2.53,2.53,0,0,1,.69,1.15q.32,1.15.94,3.47t.9,3.52l.28.81c.15.44.26.79.32,1q.37,1.52,1.15,4.55t1.2,4.51q.32,1.29,1,3.66t.78,2.78a1.08,1.08,0,0,0,.23.37h.14Q318.2,143.43,318.2,142.46Z"/><path d="M328.18,120.52l-.64.09a.92.92,0,0,1-.6-.18.6.6,0,0,1-.41-.51c0-.09.14-.28.41-.55a5.54,5.54,0,0,1,1-.46,8.87,8.87,0,0,0,1.66-.87,2.83,2.83,0,0,1,1.75-.55,51.49,51.49,0,0,1,6.67.14,4.36,4.36,0,0,1,2.25,1q.28.23.92.67c.43.29.74.51.92.67a6,6,0,0,1,1.43,2.35,11,11,0,0,1,.51,5.89,16,16,0,0,1-1.52,4.74q-.51.92-2.35,5.52a36.15,36.15,0,0,1-2.62,5.34l-2.9,4.74q-.78,1.29-1.89,2.9a.59.59,0,0,1-.6.37,2.84,2.84,0,0,0-.44-.09l-.46-.07a.84.84,0,0,1-.37-.18.94.94,0,0,1-.3-.39l-.41-.18-.67,0a5.1,5.1,0,0,1-.67-.07q-1.2-.09-1.06-1.43,0-.69.16-2t.16-2q0-.6.09-1.63t.09-1.91q0-.87.09-1.66.09-1.1.23-3.31t.23-3.31q.18-3.5.23-5.52,0-2.35,0-7a3.51,3.51,0,0,0,0-.64Q328.73,120.43,328.18,120.52Zm5.7,25,.23-.28q.55-1,.83-1.47a46.62,46.62,0,0,0,3.73-7.54q.18-.55,2.21-5a12.38,12.38,0,0,0,1.29-6.49q-.14-3.63-3.91-5.24a9.63,9.63,0,0,0-2.62-.32c-.37,0-.61,0-.71.14a1.39,1.39,0,0,0-.16.83q-.09,2.07-.18,6.3,0,.83,0,2.44t-.09,2.44q0,1.06-.23,3.22t-.23,3.27q-.28,4.88-.41,7.27a2.52,2.52,0,0,0,0,.78C333.67,145.77,333.76,145.65,333.89,145.5Z"/><path d="M365.07,134.55a6.38,6.38,0,0,1,.14,1,8.1,8.1,0,0,0,.09.87,30.87,30.87,0,0,1-1.29,7.31,9.61,9.61,0,0,1-.46,1.13,8.62,8.62,0,0,1-.48.9l-.67,1q-.46.69-.6.87a12.81,12.81,0,0,1-3.63,3.63l-.09,0a4.36,4.36,0,0,1-1,.48,9.49,9.49,0,0,1-1.77.34,6.8,6.8,0,0,1-2.74-.34,11.74,11.74,0,0,1-3.24-1.63,9.28,9.28,0,0,1-1.47-3.06,12.92,12.92,0,0,1-.55-2.87v-1.15l.14-.69a12.35,12.35,0,0,1,.46-1.56q.28-.69,1-.28c.21.09.32.21.32.37l0,.18q0,.14-.14.48a5.6,5.6,0,0,0-.14.67,5.31,5.31,0,0,0-.14,2.48,5.15,5.15,0,0,0,4.65,5.06,3.49,3.49,0,0,0,2.9-.58,4.73,4.73,0,0,0,1.61-2.58,18.39,18.39,0,0,0,.6-3.24,22.58,22.58,0,0,0,0-3.22,13.41,13.41,0,0,0-.18-2.3l-.14-.69q-.87-3.73-3.73-4.51l-2.07-.55a4.52,4.52,0,0,1-2.85-4.37,10.74,10.74,0,0,1,.74-3.5,12.38,12.38,0,0,1,1.61-3.13,7.49,7.49,0,0,1,4.32-2.94,23.61,23.61,0,0,1,2.9-.55,5.37,5.37,0,0,1,3.27,1A5.8,5.8,0,0,1,364,120a2.11,2.11,0,0,1,.23.41c.06.31.06.49,0,.55a.45.45,0,0,1-.41.23,1.57,1.57,0,0,1-.6-.41,8.17,8.17,0,0,0-2.25-1.43,3.91,3.91,0,0,0-3.08,0,10.36,10.36,0,0,0-2.76,1.24,6.86,6.86,0,0,0-2.76,3.4,10.82,10.82,0,0,0-1,2.94,2.46,2.46,0,0,0-.09.51,1.73,1.73,0,0,0,.25,1.22,1,1,0,0,0,.94.25,25,25,0,0,1,3.31-.14q.46,0,1.59-.09a11.77,11.77,0,0,1,1.72,0,5.51,5.51,0,0,1,4.19,2.25A8.22,8.22,0,0,1,365.07,134.55Z"/><path d="M387.57,132.8a9.39,9.39,0,0,1,1.52-.18q1,0,.74,1.06-.32,1.29-1.47,1.15-.23,0-1.84.23c-.34,0-.51.25-.51.64q0,3.77-.23,11.55,0,.46,0,1.4c0,.63,0,1.1,0,1.4a1.58,1.58,0,0,1-.09.64.6.6,0,0,1-.21.25,2.52,2.52,0,0,1-.62.16,11.83,11.83,0,0,1-1.89.18q-1.24,0-1.61.09a.6.6,0,0,1-.74-.37,4.2,4.2,0,0,1-.46-1.7q0-.87,0-2.67t0-2.71q.37-10.9.37-12.33,0-.83.18-5.93l.41-6.49q.09-.78.51-.92a11.73,11.73,0,0,1,1.2-.37l.9,0c.41,0,.73,0,.94,0a10.92,10.92,0,0,0,1.66-.09,7.94,7.94,0,0,0,1-.09c.44-.06.73-.09.85-.09q.46-.09,1.47-.18l.6-.09.41,0q.09,0,1.43-.28a4.9,4.9,0,0,1,1.1-.09.53.53,0,0,1,.37.09c.15.06.2.29.14.69a2.21,2.21,0,0,0,0,.74c.06.25-.06.4-.37.46l-1,.16-1.13.16q-2.44.18-3.5.32a1.59,1.59,0,0,0-.83.28,1.49,1.49,0,0,0-.23.87q0,1.15-.21,3.54t-.25,3.63q-.14,2.07-.14,4c0,.09,0,.23,0,.41s0,.34,0,.46Q387.25,132.8,387.57,132.8Z"/><path d="M395.34,140.53q-.46-4-.51-4.65a25.35,25.35,0,0,1,1.38-10.63,16.24,16.24,0,0,1,2.25-4.37q.23-.23.67-.71l.67-.76a2.66,2.66,0,0,0,.74-1,.56.56,0,0,1,.37-.41l.83-.16a7.78,7.78,0,0,0,.83-.21,2.44,2.44,0,0,1,1.08-.07l1.06.12q.3,0,1.06.23t1.08.23a4.43,4.43,0,0,1,3.17,2.48,41.88,41.88,0,0,1,3,8.1,26.31,26.31,0,0,1,.41,9.57q-.46,3.31-.6,4a13.38,13.38,0,0,1-.69,2.44q-.74,2.12-1.15,3.13a5.71,5.71,0,0,1-2.35,2.58l-1.2.64q-.78.41-1.15.64c-.31.15-.51.21-.6.18l-1.31,0q-1.17,0-1.31-.14a5.81,5.81,0,0,0-1.93-.32,3.63,3.63,0,0,1-3.27-2.3q-.32-.69-1.52-3.5A36.77,36.77,0,0,1,395.34,140.53Zm11.48-15.73q-.39-.87-.92-1.93t-.8-1.66a1,1,0,0,0-.64-.64,7.1,7.1,0,0,0-1.79-.55,1.39,1.39,0,0,0-1,.23,6.73,6.73,0,0,0-2.48,2.85A21.28,21.28,0,0,0,397,130a31.57,31.57,0,0,0-.28,5.57q.32,3.54,1.06,7.41a26.92,26.92,0,0,0,1.7,5.11q.55,1.15,1.43,1.1h1.43a1.74,1.74,0,0,0,.69-.09,6.28,6.28,0,0,0,3.63-3.5,38.73,38.73,0,0,0,1.29-4.23q0-.14.55-3.4a23.38,23.38,0,0,0,0-6.07,20.19,20.19,0,0,0-1.2-5.34A8.94,8.94,0,0,0,406.82,124.8Z"/><path d="M423.81,135.35a4.4,4.4,0,0,0-.64.48,1.25,1.25,0,0,0-.32.6,12,12,0,0,0-.09,1.24q-.18,3.27-.46,9.8l-.14,2.76a1,1,0,0,1-.6.87,10.29,10.29,0,0,1-1.08.41q-.58.18-1.31.34l-1.1.25a.89.89,0,0,1-.58,0,1.39,1.39,0,0,1-.39-.55,2.09,2.09,0,0,0-.32-.51,1.85,1.85,0,0,1-.28-1.33l.41-5.24q.37-5.06.51-7.59.14-1.56.32-4.69.37-3.82.51-6,0-.92,0-2.76,0-.28,0-1.13t.07-1.31A1.23,1.23,0,0,0,418,120a.66.66,0,0,1-.37-.78.78.78,0,0,1,.64-.64q.46-.09,1.27-.3l1.47-.37,1.26-.3a24.92,24.92,0,0,1,4.69-.46,6.82,6.82,0,0,1,3,.78,3.91,3.91,0,0,1,1.56,1.79,7.62,7.62,0,0,1,.51,5.7,10.43,10.43,0,0,1-2.44,4.46q-.37.41-1,1.22t-.74.94q-.18.23-.64.69a1.3,1.3,0,0,0-.46,1.33l.48,2.23q.39,1.82.62,2.83t2.07,8.65q.09.28.34,1.1t.34,1.29a1.7,1.7,0,0,1-.16,1.31,1.28,1.28,0,0,1-.94.71.28.28,0,0,1-.37-.09,2.47,2.47,0,0,1-.92-1.38q-.28-1.66-.67-3.45t-.92-4q-.53-2.23-.76-3.38-.18-.83-.6-2.32t-.55-2l-.28-.6A4.19,4.19,0,0,1,423.81,135.35Zm-.6-2.37.6-.41a5.33,5.33,0,0,0,.69-.55,33,33,0,0,0,4.37-5,9.39,9.39,0,0,0,1.52-5.06q.14-2.53-2.21-2.85-.69,0-4,0a2.21,2.21,0,0,0-.55.23,4,4,0,0,1,.35,1,8.67,8.67,0,0,1-.07,1.2.63.63,0,0,0,0,.28v.28q-.37,4.6-.51,6.85-.14,1.29-.32,3.86A.75.75,0,0,1,423.22,133Z"/><path d="M464.89,134.55a6.38,6.38,0,0,1,.14,1,8.1,8.1,0,0,0,.09.87,30.87,30.87,0,0,1-1.29,7.31,9.61,9.61,0,0,1-.46,1.13,8.62,8.62,0,0,1-.48.9l-.67,1q-.46.69-.6.87a12.81,12.81,0,0,1-3.63,3.63l-.09,0a4.36,4.36,0,0,1-1,.48,9.49,9.49,0,0,1-1.77.34,6.8,6.8,0,0,1-2.74-.34,11.74,11.74,0,0,1-3.24-1.63,9.28,9.28,0,0,1-1.47-3.06,12.92,12.92,0,0,1-.55-2.87v-1.15l.14-.69a12.35,12.35,0,0,1,.46-1.56q.28-.69,1-.28c.21.09.32.21.32.37l0,.18q0,.14-.14.48a5.6,5.6,0,0,0-.14.67,5.31,5.31,0,0,0-.14,2.48,5.15,5.15,0,0,0,4.65,5.06,3.49,3.49,0,0,0,2.9-.58,4.73,4.73,0,0,0,1.61-2.58,18.39,18.39,0,0,0,.6-3.24,22.58,22.58,0,0,0,0-3.22,13.41,13.41,0,0,0-.18-2.3l-.14-.69q-.87-3.73-3.73-4.51l-2.07-.55a4.52,4.52,0,0,1-2.85-4.37,10.74,10.74,0,0,1,.74-3.5,12.38,12.38,0,0,1,1.61-3.13,7.49,7.49,0,0,1,4.32-2.94,23.61,23.61,0,0,1,2.9-.55,5.37,5.37,0,0,1,3.27,1,5.8,5.8,0,0,1,1.61,1.33,2.11,2.11,0,0,1,.23.41c.06.31.06.49,0,.55a.45.45,0,0,1-.41.23,1.57,1.57,0,0,1-.6-.41,8.17,8.17,0,0,0-2.25-1.43,3.91,3.91,0,0,0-3.08,0,10.36,10.36,0,0,0-2.76,1.24,6.86,6.86,0,0,0-2.76,3.4,10.82,10.82,0,0,0-1,2.94,2.46,2.46,0,0,0-.09.51,1.73,1.73,0,0,0,.25,1.22,1,1,0,0,0,.94.25,25,25,0,0,1,3.31-.14q.46,0,1.59-.09a11.77,11.77,0,0,1,1.72,0,5.51,5.51,0,0,1,4.19,2.25A8.22,8.22,0,0,1,464.89,134.55Z"/><path d="M473.27,123.51c0-.71,0-1.24,0-1.61v-.64a1.47,1.47,0,0,0-.21-.78.82.82,0,0,0-.62-.18h-3a7,7,0,0,1-.92,0,.73.73,0,0,1-.53-.44,1.27,1.27,0,0,1-.16-.76.73.73,0,0,1,.78-.74c.34,0,.82,0,1.45,0l1.72.07,1.47,0a13.49,13.49,0,0,0,3.08-.23,23.38,23.38,0,0,1,5.38-.46q.83,0,2.35-.09t2-.09a1.19,1.19,0,0,1,1.2,1.06c.09.37,0,.6-.28.69l-.23,0-.23,0-6.26.14H480q-.69,0-.85.28a2.1,2.1,0,0,0-.07,1.15,6.09,6.09,0,0,1,0,.87q-.09,1.84-.18,2.76t-.23,2.67q0,.51-.14,1.43t-.16,1.66q-.07.74-.11,1.43-.37,5.29-.51,7.68-.23,3.13-.46,5.61t-.23,3.36q0,.23,0,.74c0,.34,0,.6,0,.78a1,1,0,0,1-.55.87,6.5,6.5,0,0,1-1.54.37q-1,.14-1.36.23a2.33,2.33,0,0,1-1.1-.14q-.87-.28-.78-1.52.09-1.06.41-4.16t.46-5.22q.23-2.85.51-8.74l.14-2.78.14-2.78v-1h0Q473.22,124.57,473.27,123.51Z"/><path d="M497.46,135.35a4.4,4.4,0,0,0-.64.48,1.25,1.25,0,0,0-.32.6,12,12,0,0,0-.09,1.24q-.18,3.27-.46,9.8l-.14,2.76a1,1,0,0,1-.6.87,10.29,10.29,0,0,1-1.08.41q-.58.18-1.31.34l-1.1.25a.89.89,0,0,1-.58,0,1.39,1.39,0,0,1-.39-.55,2.09,2.09,0,0,0-.32-.51,1.85,1.85,0,0,1-.28-1.33l.41-5.24q.37-5.06.51-7.59.14-1.56.32-4.69.37-3.82.51-6,0-.92,0-2.76,0-.28,0-1.13T492,121a1.23,1.23,0,0,0-.37-1.06.66.66,0,0,1-.37-.78.78.78,0,0,1,.64-.64q.46-.09,1.27-.3l1.47-.37,1.26-.3a24.92,24.92,0,0,1,4.69-.46,6.82,6.82,0,0,1,3,.78,3.91,3.91,0,0,1,1.56,1.79,7.62,7.62,0,0,1,.51,5.7,10.43,10.43,0,0,1-2.44,4.46q-.37.41-1,1.22t-.74.94q-.18.23-.64.69a1.3,1.3,0,0,0-.46,1.33l.48,2.23q.39,1.82.62,2.83t2.07,8.65q.09.28.34,1.1t.34,1.29a1.7,1.7,0,0,1-.16,1.31,1.28,1.28,0,0,1-.94.71.28.28,0,0,1-.37-.09,2.47,2.47,0,0,1-.92-1.38q-.28-1.66-.67-3.45t-.92-4q-.53-2.23-.76-3.38-.18-.83-.6-2.32t-.55-2l-.28-.6A4.19,4.19,0,0,1,497.46,135.35Zm-.6-2.37.6-.41a5.33,5.33,0,0,0,.69-.55,33,33,0,0,0,4.37-5,9.39,9.39,0,0,0,1.52-5.06q.14-2.53-2.21-2.85-.69,0-4,0a2.21,2.21,0,0,0-.55.23,4,4,0,0,1,.35,1,8.67,8.67,0,0,1-.07,1.2.63.63,0,0,0,0,.28v.28q-.37,4.6-.51,6.85-.14,1.29-.32,3.86A.75.75,0,0,1,496.86,133Z"/><path d="M509.33,140.53q-.46-4-.51-4.65a25.37,25.37,0,0,1,1.38-10.63,16.18,16.18,0,0,1,2.25-4.37q.23-.23.67-.71l.67-.76a2.67,2.67,0,0,0,.74-1,.57.57,0,0,1,.37-.41l.83-.16a7.75,7.75,0,0,0,.83-.21,2.44,2.44,0,0,1,1.08-.07l1.06.12q.3,0,1.06.23t1.08.23a4.43,4.43,0,0,1,3.17,2.48,41.8,41.8,0,0,1,3,8.1,26.29,26.29,0,0,1,.41,9.57q-.46,3.31-.6,4a13.44,13.44,0,0,1-.69,2.44q-.74,2.12-1.15,3.13a5.72,5.72,0,0,1-2.35,2.58l-1.2.64q-.78.41-1.15.64c-.31.15-.51.21-.6.18l-1.31,0q-1.17,0-1.31-.14a5.8,5.8,0,0,0-1.93-.32,3.63,3.63,0,0,1-3.27-2.3q-.32-.69-1.52-3.5A36.78,36.78,0,0,1,509.33,140.53Zm11.48-15.73q-.39-.87-.92-1.93t-.8-1.66a1,1,0,0,0-.64-.64,7.09,7.09,0,0,0-1.79-.55,1.38,1.38,0,0,0-1,.23,6.74,6.74,0,0,0-2.48,2.85A21.28,21.28,0,0,0,511,130a31.65,31.65,0,0,0-.28,5.57q.32,3.54,1.06,7.41a27,27,0,0,0,1.7,5.11q.55,1.15,1.43,1.1h1.43a1.74,1.74,0,0,0,.69-.09,6.28,6.28,0,0,0,3.63-3.5,38.51,38.51,0,0,0,1.29-4.23q0-.14.55-3.4a23.37,23.37,0,0,0,0-6.07,20.23,20.23,0,0,0-1.2-5.34A9,9,0,0,0,520.81,124.8Z"/><path d="M543.87,142.46q0-1,.12-3t.12-3q0-1.06.16-3.1t.16-3q.28-4,.37-6.16.09-1.56.18-4.51a4.48,4.48,0,0,1,0-.78q.09-1.15,1.1-1.1l3.54.46a.64.64,0,0,1,.64.74,3,3,0,0,1,0,.87l-.14,2.94q0,1.1-.14,3.33t-.18,3.34q0,.78-.09,2.3t-.14,2.3q0,.78,0,2.3v2.3q0,.87-.09,3.54t-.09,4.14q0,.32-.07,2.07a5.77,5.77,0,0,0,.12,2.07.83.83,0,0,1-.78,1.15l-.67.09-.76.09-.64.09a5.63,5.63,0,0,1-2.67-.74,1.09,1.09,0,0,1-.51-.74q-.46-1.38-1.29-4.14-.18-.6-.74-2.48t-.83-2.9l-.48-1.93-.55-2.23q-.3-1.22-.48-1.91-1.29-5.06-2-7.59a21,21,0,0,0-.83-2.62q0,.46,0,1.4t-.09,1.45q0,.92-.12,2.53t-.12,2.92q0,1.31,0,2.51,0,2,.09,5.93.09,5.52.14,8.33a4,4,0,0,1-.09.74.65.65,0,0,1-.6.51l-.37,0-.39.07a1.67,1.67,0,0,1-.34,0,2.77,2.77,0,0,0-.6,0h-1.2a1.42,1.42,0,0,1-.51,0,1.68,1.68,0,0,1-1.15-.48,1.92,1.92,0,0,1-.28-1.31q.09-4.23.09-6.35,0-.87,0-3.63t0-4.28q0-1,.23-6.16.09-2.71,0-5.38,0-1.56-.18-4.78a1.72,1.72,0,0,1,.16-1,1.3,1.3,0,0,1,.81-.44,5.44,5.44,0,0,1,3.27.18,4.73,4.73,0,0,1,1.38.69,2.53,2.53,0,0,1,.69,1.15q.32,1.15.94,3.47t.9,3.52l.28.81c.15.44.26.79.32,1q.37,1.52,1.15,4.55t1.2,4.51q.32,1.29,1,3.66t.78,2.78a1.08,1.08,0,0,0,.23.37h.14Q543.87,143.43,543.87,142.46Z"/><path d="M553.16,128a17.8,17.8,0,0,1,2.62-6.07q.18-.28,1.7-1.93a8.69,8.69,0,0,1,2.81-2.07,4.68,4.68,0,0,1,4.78,0,7.68,7.68,0,0,1,1.29,1.29.53.53,0,0,1,0,.78q-.23.37-.69.09l-.18-.12a.28.28,0,0,0-.14-.07,4.1,4.1,0,0,0-5.29,0,12.57,12.57,0,0,0-4.78,7,37.27,37.27,0,0,0-1.43,9.57l-.14,2.94a18.68,18.68,0,0,0,.41,4.92,2.34,2.34,0,0,0,2,2.16,4.85,4.85,0,0,0,4.23-1,8.35,8.35,0,0,0,2.71-4.28,23.81,23.81,0,0,0,.69-4.92v-.6a.45.45,0,0,0-.51-.51h-2.44a1.88,1.88,0,0,1-1.56-.78q-.51-.74.23-1.1a1.65,1.65,0,0,1,.83-.18l1.56-.12,1.56-.11,3.08-.41a1.43,1.43,0,0,1,1.06.16,3.35,3.35,0,0,1,.74,1.13,7,7,0,0,1,.37,1.24,5.85,5.85,0,0,1,0,1.2q0,.37-.16,1.08a7.34,7.34,0,0,0-.12,1.08,31.93,31.93,0,0,1-.78,5.66,9.55,9.55,0,0,0-.32,1.33,10.49,10.49,0,0,1-3.4,5,3.91,3.91,0,0,1-1.29.83,5.85,5.85,0,0,1-4.28.28q-.23-.09-2.35-1.33a10.29,10.29,0,0,1-3-3.08,6,6,0,0,1-1-3.17q-.09-1.38-.32-3.68A65.06,65.06,0,0,1,553.16,128Z"/><path d="M153.75,190.55a4.36,4.36,0,0,0-.64.48,1.25,1.25,0,0,0-.32.6,12.14,12.14,0,0,0-.09,1.24q-.18,3.27-.46,9.8l-.14,2.76a1,1,0,0,1-.6.87,10.25,10.25,0,0,1-1.08.41q-.58.18-1.31.34l-1.1.25a.89.89,0,0,1-.57,0,1.39,1.39,0,0,1-.39-.55,2.08,2.08,0,0,0-.32-.51,1.85,1.85,0,0,1-.28-1.33l.41-5.24q.37-5.06.51-7.59.14-1.56.32-4.69.37-3.82.51-6,0-.92,0-2.76,0-.28,0-1.13t.07-1.31a1.23,1.23,0,0,0-.37-1.06.66.66,0,0,1-.37-.78.78.78,0,0,1,.64-.64q.46-.09,1.27-.3l1.47-.37,1.26-.3a24.91,24.91,0,0,1,4.69-.46,6.82,6.82,0,0,1,3,.78,3.91,3.91,0,0,1,1.56,1.79,7.62,7.62,0,0,1,.51,5.7,10.43,10.43,0,0,1-2.44,4.46q-.37.41-1,1.22t-.74.94q-.18.23-.64.69a1.3,1.3,0,0,0-.46,1.33l.48,2.23q.39,1.82.62,2.83t2.07,8.65q.09.28.35,1.1t.34,1.29a1.71,1.71,0,0,1-.16,1.31,1.29,1.29,0,0,1-.94.71.28.28,0,0,1-.37-.09,2.47,2.47,0,0,1-.92-1.38q-.28-1.66-.67-3.45t-.92-4q-.53-2.23-.76-3.38-.18-.83-.6-2.32t-.55-2l-.28-.6A4.2,4.2,0,0,1,153.75,190.55Zm-.6-2.37.6-.41a5.34,5.34,0,0,0,.69-.55,33,33,0,0,0,4.37-5,9.39,9.39,0,0,0,1.52-5.06q.14-2.53-2.21-2.85-.69,0-4,0a2.21,2.21,0,0,0-.55.23,4,4,0,0,1,.35,1,8.64,8.64,0,0,1-.07,1.2.63.63,0,0,0,0,.28v.28q-.37,4.6-.51,6.85-.14,1.29-.32,3.86A.75.75,0,0,1,153.15,188.19Z"/><path d="M165.62,195.73q-.46-4-.51-4.65a25.36,25.36,0,0,1,1.38-10.63,16.21,16.21,0,0,1,2.25-4.37q.23-.23.67-.71l.67-.76a2.66,2.66,0,0,0,.74-1,.56.56,0,0,1,.37-.41L172,173a7.77,7.77,0,0,0,.83-.21,2.44,2.44,0,0,1,1.08-.07l1.06.12q.3,0,1.06.23t1.08.23a4.43,4.43,0,0,1,3.17,2.48,41.88,41.88,0,0,1,3,8.1,26.32,26.32,0,0,1,.41,9.57q-.46,3.31-.6,4a13.37,13.37,0,0,1-.69,2.44q-.74,2.12-1.15,3.13a5.71,5.71,0,0,1-2.35,2.58l-1.2.64q-.78.41-1.15.64c-.31.15-.51.21-.6.18l-1.31,0q-1.17,0-1.31-.14a5.81,5.81,0,0,0-1.93-.32,3.63,3.63,0,0,1-3.27-2.3q-.32-.69-1.52-3.5A36.77,36.77,0,0,1,165.62,195.73ZM177.1,180q-.39-.87-.92-1.93t-.8-1.66a1,1,0,0,0-.64-.64,7.09,7.09,0,0,0-1.79-.55,1.39,1.39,0,0,0-1,.23,6.73,6.73,0,0,0-2.48,2.85,21.28,21.28,0,0,0-2.12,6.85,31.61,31.61,0,0,0-.28,5.57q.32,3.54,1.06,7.41a27,27,0,0,0,1.7,5.11q.55,1.15,1.43,1.1h1.43a1.74,1.74,0,0,0,.69-.09,6.28,6.28,0,0,0,3.63-3.5,38.62,38.62,0,0,0,1.29-4.23q0-.14.55-3.4a23.37,23.37,0,0,0,0-6.07,20.21,20.21,0,0,0-1.2-5.34A9,9,0,0,0,177.1,180Z"/><path d="M202.24,181.1l-.28,1.13-.28,1.13q-.28.92-.74,2.85t-.74,2.85a38,38,0,0,1-1.29,4.65,7.33,7.33,0,0,1-.92,1.56,1.23,1.23,0,0,1-1.33.37q-.6-.18-.69-1.06-.23-1.75-.9-4.83t-.85-4.19q-.23-1.29-1.43-6.07,0-.18-.28-.83a4,4,0,0,0-.28,1.66q-.18,5.06-.18,7.54v4.74q.09,2,.09,3,0,3.08-.09,9.15a2.59,2.59,0,0,1-.09.6.61.61,0,0,1-.55.6,13.08,13.08,0,0,1-3.63,0,1,1,0,0,1-1-1.1c0-.37,0-.92,0-1.66a3,3,0,0,1,0-.3,3.27,3.27,0,0,0,0-.34q0-4,.14-12,0-3.63,0-5.47a76.25,76.25,0,0,1,1-11.27,1.77,1.77,0,0,1,.25-.76.87.87,0,0,1,.62-.25h.64a3.42,3.42,0,0,0,.64,0l.44,0a5.08,5.08,0,0,0,.58-.09,1,1,0,0,1,1.2.37,9.1,9.1,0,0,1,1.33,2.62,64.28,64.28,0,0,1,1.75,6.3q.69,3.4,1.75,8.46,0,.09.32,1.33l.28-.6.55-2.37.55-2.37.55-2.09q.37-1.4.55-2.14.23-.92.74-3.5.28-1.2.46-1.79.55-2.12.87-3.17a1.55,1.55,0,0,1,.46-.78,4.89,4.89,0,0,1,3.5-1.29,6,6,0,0,1,2.07.55q.83.28.69,1.56-.18,1.66-.23,2.48-.23,2.58-.46,11.78,0,1.79-.37,10.17l-.14,6a3.19,3.19,0,0,1-.11.83q-.07.14-.62.32l-.28.14a3.52,3.52,0,0,1-1,.48,7.69,7.69,0,0,1-1.27.25,7.79,7.79,0,0,0-1.06.18.55.55,0,0,1-.6-.28,1.79,1.79,0,0,1-.6-1.56q0-2.3.23-6.58v-.18q.28-7.77.28-8,0-2.07,0-6.26.09-2.21.14-3.27v-.87h-.09Q202.51,180,202.24,181.1Z"/><path d="M211.11,205.34a7.82,7.82,0,0,1,.28-1.33q.37-1.15.87-3.33t.74-3.06q.28-1.1.69-3.15t.51-2.55q1.2-5.43,1.52-6.62l.39-1.36.46-1.59L217,181l1.24-5.11a3.1,3.1,0,0,0,0-.87,1.17,1.17,0,0,1,.64-1.47q.28-.14.85-.37a6.37,6.37,0,0,0,.81-.37,6.84,6.84,0,0,1,2.12-.28,1,1,0,0,1,1.2.78,4,4,0,0,1,.23.87q.69,6.35.92,8.83.23,2.12.6,5.75,0,.23.07.48t0,.55c0,.2,0,.36,0,.48q.37,3.41.55,5.06.18,2.16.55,6.39a10.67,10.67,0,0,1,0,1.17v1.22a.89.89,0,0,1-.41.69,10,10,0,0,1-3.08,1.29.44.44,0,0,0-.32.14.83.83,0,0,1-.92,0,1,1,0,0,1-.55-1,64,64,0,0,0-.64-8.6q-.09-.55-.21-1.61t-.16-1.61a1.66,1.66,0,0,0-.23-.71q-.14-.16-.64-.11t-3.59.23a.88.88,0,0,0-.87.83q-.18,1-1.2,5.43-.18.65-.53,1.93T213,203a20.49,20.49,0,0,1-.78,2.76q-.46.41-.6.28c0-.06-.06-.09-.09-.09a.13.13,0,0,0,0,.09v0l-.28.14A3.1,3.1,0,0,1,211.11,205.34Zm4.78-13.94,1.29-.14q.41,0,1.22-.07l1.22,0q.46,0,.55-.11c.06-.08.06-.27,0-.58s-.14-1.07-.23-1.91-.15-1.48-.18-1.91q-.09-1-.3-3.06t-.34-3.06a1.62,1.62,0,0,0-.07-.39,1.61,1.61,0,0,1-.07-.34A55.59,55.59,0,0,0,215.9,191.41Z"/><path d="M243,197.66q0-1,.11-3t.12-3q0-1.06.16-3.1t.16-3q.28-4,.37-6.16.09-1.56.18-4.51a4.53,4.53,0,0,1,0-.78q.09-1.15,1.1-1.1l3.54.46a.64.64,0,0,1,.64.74,3,3,0,0,1,0,.87q0,1-.14,2.94l-.14,3.33q-.09,2.23-.18,3.34,0,.78-.09,2.3t-.14,2.3q0,.78,0,2.3v2.3q0,.87-.09,3.54t-.09,4.14q0,.32-.07,2.07a5.77,5.77,0,0,0,.12,2.07.83.83,0,0,1-.78,1.15l-.67.09-.76.09-.64.09a5.63,5.63,0,0,1-2.67-.74,1.09,1.09,0,0,1-.51-.74q-.46-1.38-1.29-4.14-.18-.6-.74-2.48t-.83-2.9l-.48-1.93-.55-2.23q-.3-1.22-.48-1.91-1.29-5.06-2-7.59a21.08,21.08,0,0,0-.83-2.62q0,.46,0,1.4t-.09,1.45q0,.92-.11,2.53t-.12,2.92q0,1.31,0,2.51,0,2,.09,5.93.09,5.52.14,8.33a4,4,0,0,1-.09.74.65.65,0,0,1-.6.51l-.37,0-.39.07a1.67,1.67,0,0,1-.35,0,2.77,2.77,0,0,0-.6,0h-1.2a1.42,1.42,0,0,1-.51,0,1.68,1.68,0,0,1-1.15-.48,1.92,1.92,0,0,1-.28-1.31q.09-4.23.09-6.35,0-.87,0-3.63t0-4.28q0-1,.23-6.16.09-2.71,0-5.38,0-1.56-.18-4.78a1.71,1.71,0,0,1,.16-1,1.3,1.3,0,0,1,.81-.44,5.44,5.44,0,0,1,3.27.18,4.72,4.72,0,0,1,1.38.69,2.53,2.53,0,0,1,.69,1.15q.32,1.15.94,3.47t.9,3.52l.28.81c.15.44.26.79.32,1q.37,1.52,1.15,4.55t1.2,4.51q.32,1.29,1,3.66t.78,2.78a1.07,1.07,0,0,0,.23.37h.14Q243,198.63,243,197.66Z"/><path d="M257.57,178.71q0-1.06,0-1.61v-.64a1.47,1.47,0,0,0-.21-.78.82.82,0,0,0-.62-.18h-3a7,7,0,0,1-.92,0,.73.73,0,0,1-.53-.44,1.26,1.26,0,0,1-.16-.76.73.73,0,0,1,.78-.74c.34,0,.82,0,1.45,0l1.73.07,1.47,0a13.49,13.49,0,0,0,3.08-.23,23.38,23.38,0,0,1,5.38-.46q.83,0,2.35-.09t2-.09a1.19,1.19,0,0,1,1.2,1.06q.14.55-.28.69l-.23,0-.23,0-6.26.14h-.37q-.69,0-.85.28a2.1,2.1,0,0,0-.07,1.15,6,6,0,0,1,0,.87q-.09,1.84-.18,2.76t-.23,2.67q0,.51-.14,1.43t-.16,1.66q-.07.74-.11,1.43-.37,5.29-.51,7.68-.23,3.13-.46,5.61t-.23,3.36q0,.23,0,.74t0,.78a1,1,0,0,1-.55.87,6.49,6.49,0,0,1-1.54.37q-1,.14-1.36.23a2.33,2.33,0,0,1-1.1-.14q-.87-.28-.78-1.52.09-1.06.41-4.16t.46-5.22q.23-2.85.51-8.74l.14-2.78.14-2.78v-1h0Q257.53,179.77,257.57,178.71Z"/><path d="M280.85,176.73a43.69,43.69,0,0,0-.46,6.53l-.14,7.87v5.15q0,1-.09,2.88t-.09,2.88q0,.46,0,1.38t0,1.38a1.15,1.15,0,0,1-.11.64,1.6,1.6,0,0,1-.53.32,8.18,8.18,0,0,1-2.16.55q-.6,0-1.75,0a.49.49,0,0,1-.46-.23,3.53,3.53,0,0,1-.51-1.89q0-.32.07-1c0-.43,0-.75,0-1q0-1.15.18-13.66,0-4.14.28-8.37,0-.83.18-2.55t.18-2.6q0-.6,0-1.79a1.17,1.17,0,0,1,.87-1.29,2.89,2.89,0,0,1,1.56-.18,5.72,5.72,0,0,1,2.25.69,1.86,1.86,0,0,1,.85.62,3,3,0,0,1,.16,1.22Q281,176,280.85,176.73Z"/><path d="M283.33,194.17a65.17,65.17,0,0,1,1.47-11.45,17.25,17.25,0,0,1,1.7-5.06,25,25,0,0,1,1.93-3.31,5.23,5.23,0,0,1,3.31-2.12,2.08,2.08,0,0,1,1.43.09.19.19,0,0,1,.12.07l.14.16.12.14-.12.14-.14.16a.19.19,0,0,1-.12.07l-.6.12-.6.12a4.45,4.45,0,0,0-2.48,2,10.12,10.12,0,0,0-.69,1.22q-.32.67-.69,1.59t-.55,1.33a9.23,9.23,0,0,0-.87,2.85q-.41,2.71-1,7.36,0,.09-.28,2.44a18.22,18.22,0,0,0,.23,4,6.94,6.94,0,0,0,1.84,3.45,2.71,2.71,0,0,0,2.3.74,6.24,6.24,0,0,0,2-.69,7.29,7.29,0,0,0,1.61-1.33,42.86,42.86,0,0,0,4.46-7l.28-.55q.32-.74,1-.46a.84.84,0,0,1,.23.09,1.54,1.54,0,0,1,.78.55,2.3,2.3,0,0,1,0,1.1,12.24,12.24,0,0,1-1.52,4.69q-2,3.4-2.71,4.55a12.46,12.46,0,0,1-5,4.51,3.94,3.94,0,0,1-4.6-.64,6.71,6.71,0,0,1-2-2.81.82.82,0,0,0-.23-.37,2.27,2.27,0,0,1-.46-1.29c-.06-.55-.12-1-.18-1.24v0Q283.33,197.39,283.33,194.17Z"/><path d="M322.48,188a9.39,9.39,0,0,1,1.52-.18q1,0,.74,1.06-.32,1.29-1.47,1.15-.23,0-1.84.23c-.34,0-.51.25-.51.64q0,3.77-.23,11.55,0,.46,0,1.4c0,.63,0,1.1,0,1.4a1.58,1.58,0,0,1-.09.64.6.6,0,0,1-.21.25,2.52,2.52,0,0,1-.62.16,11.83,11.83,0,0,1-1.89.18q-1.24,0-1.61.09a.6.6,0,0,1-.74-.37,4.2,4.2,0,0,1-.46-1.7q0-.87,0-2.67t0-2.71q.37-10.9.37-12.33,0-.83.18-5.93l.41-6.49q.09-.78.51-.92a11.73,11.73,0,0,1,1.2-.37l.9,0c.41,0,.73,0,.94,0a10.92,10.92,0,0,0,1.66-.09,7.94,7.94,0,0,0,1-.09c.44-.06.73-.09.85-.09q.46-.09,1.47-.18l.6-.09.41,0q.09,0,1.43-.28a4.9,4.9,0,0,1,1.1-.09.53.53,0,0,1,.37.09c.15.06.2.29.14.69a2.21,2.21,0,0,0,0,.74c.06.25-.06.4-.37.46l-1,.16-1.13.16q-2.44.18-3.5.32a1.59,1.59,0,0,0-.83.28,1.49,1.49,0,0,0-.23.87q0,1.15-.21,3.54t-.25,3.63q-.14,2.07-.14,4c0,.09,0,.23,0,.41s0,.34,0,.46Q322.16,188,322.48,188Z"/><path d="M335.5,204.24l2.62-.39,2.62-.39h.18q.92-.09,1.15.14t.14,1.15a.62.62,0,0,1-.46.74l-.28,0-.28,0a45.24,45.24,0,0,0-5.66.74,7,7,0,0,1-1.22.12,8,8,0,0,0-1,.07q-1.2,0-1.84,0a1.58,1.58,0,0,1-1.79-1.38,3.1,3.1,0,0,1-.09-1.52q.6-3.73.92-8.51,0-.87.11-2.58t.12-2.53.41-6.12q0-1.43.23-4.28.14-1.75.32-5.24a1.2,1.2,0,0,1,.41-.83,3.92,3.92,0,0,1,2-.78l2-.16,2.32-.16a6.8,6.8,0,0,1,.9,0c.38,0,.73,0,1,0a4,4,0,0,0,.87-.18h.41a1.91,1.91,0,0,1,.8.21,1.54,1.54,0,0,1,.12.81,1.83,1.83,0,0,1-.14.94c-.09.11-.4.18-.92.21q-2.39.09-3.59.18a.91.91,0,0,0-.58.18,1.47,1.47,0,0,0-.16.69l-.55,6.62s0,.89-.14,2.58l-.14,2.9q0,.64.14.76t.74,0l2.67-.28a1,1,0,0,1,.64.07,1.46,1.46,0,0,1,.28.67,1.54,1.54,0,0,1,.09.37q0,.64-.51.69t-1.75.18q-1.38.09-2,.18t-.51.78q0,.6-.09,1.7c0,.74,0,1.3,0,1.7q-.46,5.84-.64,6.81-.09.55-.21,1.7t-.16,1.38A1.25,1.25,0,0,0,335.5,204.24Z"/><path d="M351.41,204.24l2.62-.39,2.62-.39h.18q.92-.09,1.15.14t.14,1.15a.62.62,0,0,1-.46.74l-.28,0-.28,0a45.22,45.22,0,0,0-5.66.74,7,7,0,0,1-1.22.12,8.06,8.06,0,0,0-1,.07q-1.2,0-1.84,0a1.58,1.58,0,0,1-1.79-1.38,3.13,3.13,0,0,1-.09-1.52q.6-3.73.92-8.51,0-.87.12-2.58t.12-2.53.41-6.12q0-1.43.23-4.28.14-1.75.32-5.24a1.19,1.19,0,0,1,.41-.83,3.91,3.91,0,0,1,2-.78l2-.16,2.32-.16a6.77,6.77,0,0,1,.9,0q.58,0,1,0a4,4,0,0,0,.87-.18h.41a1.92,1.92,0,0,1,.81.21,1.54,1.54,0,0,1,.11.81,1.84,1.84,0,0,1-.14.94c-.09.11-.4.18-.92.21q-2.39.09-3.59.18a.91.91,0,0,0-.58.18,1.45,1.45,0,0,0-.16.69l-.55,6.62s0,.89-.14,2.58l-.14,2.9q0,.64.14.76t.74,0l2.67-.28a1,1,0,0,1,.64.07,1.46,1.46,0,0,1,.28.67,1.51,1.51,0,0,1,.09.37c0,.43-.14.66-.51.69s-1,.12-1.75.18-1.58.12-2,.18-.51.32-.51.78-.06,1-.09,1.7,0,1.3,0,1.7q-.46,5.84-.64,6.81-.09.55-.21,1.7t-.16,1.38A1.25,1.25,0,0,0,351.41,204.24Z"/><path d="M367.88,185.93q-.14,8.65-.14,8.74,0,1.29-.37,7.36a5.6,5.6,0,0,0,0,.85,5.75,5.75,0,0,1,0,.85c0,.34.08.55.32.64l1,.14,3.73-.14a1.69,1.69,0,0,1,.55,0q.46,0,.55.64a3.1,3.1,0,0,1,0,1.29q-.11.18-1,.18c-.18,0-.44,0-.78,0s-.6,0-.78,0h-1.33l-2.53-.14q-.64,0-1.89.07l-1.89.11H363a1.51,1.51,0,0,1-1.38-2q.46-3.22.74-9.71.14-2.21.23-9.89,0-2.07.18-6.21V175c0-.21,0-.54,0-1s0-.75,0-1a1.2,1.2,0,0,1,.87-1.33,4.66,4.66,0,0,1,4.19.83,1.14,1.14,0,0,1,.46,1.06v1.61h0Q368,182.39,367.88,185.93Z"/><path d="M382.64,176.73a43.82,43.82,0,0,0-.46,6.53l-.14,7.87v5.15q0,1-.09,2.88t-.09,2.88c0,.31,0,.77,0,1.38s0,1.07,0,1.38a1.16,1.16,0,0,1-.11.64,1.6,1.6,0,0,1-.53.32,8.18,8.18,0,0,1-2.16.55q-.6,0-1.75,0a.49.49,0,0,1-.46-.23,3.53,3.53,0,0,1-.51-1.89c0-.21.05-.54.07-1s0-.75,0-1q0-1.15.18-13.66,0-4.14.28-8.37,0-.83.18-2.55t.18-2.6q0-.6,0-1.79a1.17,1.17,0,0,1,.87-1.29,2.89,2.89,0,0,1,1.56-.18,5.72,5.72,0,0,1,2.25.69,1.85,1.85,0,0,1,.85.62,3,3,0,0,1,.16,1.22Q382.78,176,382.64,176.73Z"/><path d="M399.11,197.66q0-1,.12-3t.12-3q0-1.06.16-3.1t.16-3q.28-4,.37-6.16.09-1.56.18-4.51a4.48,4.48,0,0,1,0-.78q.09-1.15,1.1-1.1l3.54.46a.64.64,0,0,1,.64.74,3,3,0,0,1,0,.87q0,1-.14,2.94l-.14,3.33q-.09,2.23-.18,3.34,0,.78-.09,2.3t-.14,2.3q0,.78,0,2.3v2.3q0,.87-.09,3.54t-.09,4.14q0,.32-.07,2.07a5.77,5.77,0,0,0,.12,2.07.83.83,0,0,1-.78,1.15l-.67.09-.76.09-.64.09a5.63,5.63,0,0,1-2.67-.74,1.09,1.09,0,0,1-.51-.74q-.46-1.38-1.29-4.14-.18-.6-.74-2.48t-.83-2.9l-.48-1.93-.55-2.23q-.3-1.22-.48-1.91-1.29-5.06-2-7.59a21.16,21.16,0,0,0-.83-2.62q0,.46,0,1.4t-.09,1.45q0,.92-.11,2.53t-.12,2.92q0,1.31,0,2.51,0,2,.09,5.93.09,5.52.14,8.33a3.94,3.94,0,0,1-.09.74.65.65,0,0,1-.6.51l-.37,0-.39.07a1.68,1.68,0,0,1-.35,0,2.76,2.76,0,0,0-.6,0h-1.2a1.42,1.42,0,0,1-.51,0,1.68,1.68,0,0,1-1.15-.48,1.92,1.92,0,0,1-.28-1.31q.09-4.23.09-6.35,0-.87,0-3.63t0-4.28q0-1,.23-6.16.09-2.71,0-5.38,0-1.56-.18-4.78a1.71,1.71,0,0,1,.16-1,1.3,1.3,0,0,1,.8-.44,5.44,5.44,0,0,1,3.27.18,4.73,4.73,0,0,1,1.38.69,2.53,2.53,0,0,1,.69,1.15q.32,1.15.94,3.47t.9,3.52l.28.81c.15.44.26.79.32,1q.37,1.52,1.15,4.55t1.2,4.51q.32,1.29,1,3.66t.78,2.78a1.08,1.08,0,0,0,.23.37h.14Q399.11,198.63,399.11,197.66Z"/><path d="M408.4,183.17A17.8,17.8,0,0,1,411,177.1q.18-.28,1.7-1.93a8.68,8.68,0,0,1,2.81-2.07,4.68,4.68,0,0,1,4.78,0,7.76,7.76,0,0,1,1.29,1.29.53.53,0,0,1,0,.78q-.23.37-.69.09l-.18-.12a.28.28,0,0,0-.14-.07,4.1,4.1,0,0,0-5.29,0,12.57,12.57,0,0,0-4.78,7,37.23,37.23,0,0,0-1.43,9.57q0,1-.14,2.94a18.76,18.76,0,0,0,.41,4.92,2.34,2.34,0,0,0,2,2.16,4.85,4.85,0,0,0,4.23-1,8.35,8.35,0,0,0,2.71-4.28,23.88,23.88,0,0,0,.69-4.92V191a.45.45,0,0,0-.51-.51h-2.44a1.88,1.88,0,0,1-1.56-.78q-.51-.74.23-1.1a1.64,1.64,0,0,1,.83-.18l1.56-.12,1.56-.11,3.08-.41a1.43,1.43,0,0,1,1.06.16,3.35,3.35,0,0,1,.74,1.13,7.05,7.05,0,0,1,.37,1.24,5.76,5.76,0,0,1,0,1.2c0,.25-.08.61-.16,1.08a7.45,7.45,0,0,0-.11,1.08,31.93,31.93,0,0,1-.78,5.66,9.41,9.41,0,0,0-.32,1.33,10.5,10.5,0,0,1-3.4,5,3.91,3.91,0,0,1-1.29.83,5.85,5.85,0,0,1-4.28.28q-.23-.09-2.35-1.33a10.29,10.29,0,0,1-3-3.08,6,6,0,0,1-1-3.17q-.09-1.38-.32-3.68A65.06,65.06,0,0,1,408.4,183.17Z"/><path d="M444.56,189.75a6.16,6.16,0,0,1,.14,1,8,8,0,0,0,.09.87A30.87,30.87,0,0,1,443.5,199a9.78,9.78,0,0,1-.46,1.13,8.78,8.78,0,0,1-.48.9l-.67,1q-.46.69-.6.87a12.81,12.81,0,0,1-3.63,3.63l-.09,0a4.34,4.34,0,0,1-1,.48,9.46,9.46,0,0,1-1.77.34A6.81,6.81,0,0,1,432,207a11.76,11.76,0,0,1-3.24-1.63,9.3,9.3,0,0,1-1.47-3.06,12.91,12.91,0,0,1-.55-2.87v-1.15l.14-.69a12.68,12.68,0,0,1,.46-1.56q.28-.69,1-.28.32.14.32.37l0,.18q0,.14-.14.48a5.41,5.41,0,0,0-.14.67,5.33,5.33,0,0,0-.14,2.48,5.15,5.15,0,0,0,4.65,5.06,3.48,3.48,0,0,0,2.9-.58,4.73,4.73,0,0,0,1.61-2.58,18.47,18.47,0,0,0,.6-3.24,22.44,22.44,0,0,0,0-3.22,13.51,13.51,0,0,0-.18-2.3l-.14-.69q-.87-3.73-3.73-4.51l-2.07-.55a4.52,4.52,0,0,1-2.85-4.37,10.76,10.76,0,0,1,.74-3.5,12.41,12.41,0,0,1,1.61-3.13,7.49,7.49,0,0,1,4.32-2.94,23.59,23.59,0,0,1,2.9-.55,5.37,5.37,0,0,1,3.27,1,5.81,5.81,0,0,1,1.61,1.33,2,2,0,0,1,.23.41c.06.31.06.49,0,.55a.45.45,0,0,1-.41.23,1.56,1.56,0,0,1-.6-.41,8.19,8.19,0,0,0-2.25-1.43,3.91,3.91,0,0,0-3.08,0,10.36,10.36,0,0,0-2.76,1.24,6.87,6.87,0,0,0-2.76,3.4,10.89,10.89,0,0,0-1,2.94,2.53,2.53,0,0,0-.09.51,1.73,1.73,0,0,0,.25,1.22,1,1,0,0,0,.94.25,25,25,0,0,1,3.31-.14q.46,0,1.59-.09a11.78,11.78,0,0,1,1.73,0,5.51,5.51,0,0,1,4.19,2.25A8.21,8.21,0,0,1,444.56,189.75Z"/></svg>