<svg id="Layer_1" data-name="Layer 1" xmlns="http://www.w3.org/2000/svg" viewBox="0 0 579.27 157.6"><title>5</title><path d="M121.16,13.48A8.66,8.66,0,0,1,119.6,16a5.66,5.66,0,0,1-.78.69c-.28.22-.51.23-.69,0a.84.84,0,0,1,0-.83,2.51,2.51,0,0,1,.23-.6q.55-1.1,3.08-6.39a3.1,3.1,0,0,0,.32-1.06,2.13,2.13,0,0,1,.83-1.7,3.39,3.39,0,0,1,3.13-1l.74.12.74.12a1.34,1.34,0,0,1,.94.48A2,2,0,0,1,128.2,7q0,.46-.28,2t-.32,2.35q-.18,1.75-.37,5.43-.28,3.86-.37,5.61,0,.92-.18,2.76t-.18,2.76q0,1.2-.18,3.52t-.18,3.47q-.09,1.43-.18,4.46a1.63,1.63,0,0,1,0,.46.92.92,0,0,1-.51.64l-.23.14a9.5,9.5,0,0,1-3.17.83,1.19,1.19,0,0,1-1-.46,1.59,1.59,0,0,1-.39-1.2q.14-2.16.51-6.49a10.36,10.36,0,0,0,0-1.15q.09-1.47.18-4.51t.18-4.51q.09-1,.18-3t.18-3q0-1.24.23-3.82V11.91a.19.19,0,0,1-.14,0Z"/><path d="M144.25,28q.18.37.46,1.1a6.89,6.89,0,0,1,.28,1.47v1.06a9.38,9.38,0,0,1-.25,1.59,15.36,15.36,0,0,1-1.31,3.29,9.75,9.75,0,0,1-2.71,3.4q-.41.18-1.29.62a14.28,14.28,0,0,1-1.38.62q-1,.32-1.79.51l-.62.07a5.9,5.9,0,0,1-1.15-.14,4.38,4.38,0,0,1-1.59-.6,5.73,5.73,0,0,1-1.47-1.54,8.83,8.83,0,0,1-1.24-2.76,1.5,1.5,0,0,0,0-.23.58.58,0,0,0-.09-.23,12,12,0,0,1,.51-7.77q.6-1.1.74-1.29a9.06,9.06,0,0,1,.92-1.2q.64-.74.87-1.06.46-.6,1.38-1.89t1.38-1.89a.8.8,0,0,0,0-1l-.25-.39-.25-.39q-.32-.6-1.06-1.86t-1.06-1.91a10.2,10.2,0,0,1-1.06-3.36,6.07,6.07,0,0,1,1.24-4.69A10.43,10.43,0,0,1,136.2,5.7a9.69,9.69,0,0,1,3-1l3.17-.28a.71.71,0,0,1,.41,0,3.07,3.07,0,0,0,1.75.09,1.48,1.48,0,0,1,1,.12,2.88,2.88,0,0,1,.64,1.08,7.42,7.42,0,0,1,.41,1.47,7.82,7.82,0,0,1-.16,3.68,15.78,15.78,0,0,1-1.54,3.86q-1,1.79-2.07,3.36A29.23,29.23,0,0,1,141,20.61l-.78.92.16.18a1.37,1.37,0,0,1,.16.23,2.88,2.88,0,0,0,.18.32l.74,1A26.47,26.47,0,0,1,144.25,28Zm-9.43-13.39q.18.41,1.79,3.22a5.43,5.43,0,0,0,.41.58c.18.23.31.38.37.44l1.1-1.52q.23-.37.87-1.33t1-1.47a8.78,8.78,0,0,0,1.29-2.48,5.9,5.9,0,0,0-.32-5.24q-.41-.69-1-.64a12,12,0,0,0-4.92,2,2.89,2.89,0,0,0-1.15,2A7,7,0,0,0,134.82,14.63Zm7,16.65a6.48,6.48,0,0,0-.39-3.57,9.75,9.75,0,0,0-1.59-2.87l-.87-1a.36.36,0,0,1,0,.14,0,0,0,0,0,0,0l0-.09a23.1,23.1,0,0,0-2.67,3.31,9.21,9.21,0,0,0-1.2,3.22v0a8.18,8.18,0,0,0-.18.87.52.52,0,0,1,0,.23,5.06,5.06,0,0,0,0,1q.18,2.58,2.16,2.94Q140.9,36.2,141.81,31.28Z"/><path d="M155.71,5.15a11.17,11.17,0,0,1,1.15-.09,1.15,1.15,0,0,0,.51-.09,3.62,3.62,0,0,1,2,0l1.68.34,1.82.39.51.18.51.18a1.42,1.42,0,0,1,.83,1.24v.92q-.32,2.3-.6,3.59-.28,2.12-.37,2.94-.23,2-2.12,9.94-.23,1-.46,2.09l-.51,2.48q-.28,1.36-.41,2.09-.23,1.15-.62,3.15t-.53,2.65c0,.21-.08.48-.14.8s-.12.61-.18.87l-.18.76a.79.79,0,0,1-.37.6,9.91,9.91,0,0,1-3.68,1,1.31,1.31,0,0,1-1.17-.6,1.65,1.65,0,0,1-.3-1.43q.18-1.06.6-3.08l.6-2.94.28-1.7q.18-1.15.32-1.7.74-3.68,1.29-6.16a.58.58,0,0,0,0-.37.87.87,0,0,0,0-.51.26.26,0,0,0-.32-.14,2,2,0,0,1-.58-.09,3.67,3.67,0,0,1-.64-.28l-.53-.28q-.74-.28-1.1-.46l-.28-.14-.32-.18a.83.83,0,0,1-.23-.23,10.49,10.49,0,0,1-2.81-4.28,11.77,11.77,0,0,1-.51-4.46,2.92,2.92,0,0,1,.18-.78,10.19,10.19,0,0,1,2.62-4.46,10.7,10.7,0,0,1,2.9-1.61Zm-2.85,14a1.5,1.5,0,0,0,.6.51l1.66.64a2.47,2.47,0,0,0,.55,0h.55q.78,0,.92-1,.09-.6.3-1.66t.37-1.93q.16-.87.3-1.66.09-.6.25-1.89t.25-1.93a11.28,11.28,0,0,0,.18-1.75q0-1-.46-1.2L157.75,7l-.58-.35a1.7,1.7,0,0,0-.58-.18.75.75,0,0,0-.62.12l-.64.14a2.86,2.86,0,0,0-.6.18,6.24,6.24,0,0,0-3.68,4.19,8.83,8.83,0,0,0-.18,4A15.53,15.53,0,0,0,152.85,19.14Z"/><path d="M194.85,15.5l-.28,1.13-.28,1.13q-.28.92-.74,2.85t-.74,2.85a38,38,0,0,1-1.29,4.65,7.31,7.31,0,0,1-.92,1.56,1.23,1.23,0,0,1-1.33.37q-.6-.18-.69-1.06-.23-1.75-.9-4.83T186.85,20q-.23-1.29-1.43-6.07,0-.18-.28-.83a4,4,0,0,0-.28,1.66q-.18,5.06-.18,7.54V27q.09,2,.09,3,0,3.08-.09,9.15a2.6,2.6,0,0,1-.09.6.61.61,0,0,1-.55.6,13.08,13.08,0,0,1-3.63,0,1,1,0,0,1-1-1.1q0-.55,0-1.66a3,3,0,0,1,0-.3,3.29,3.29,0,0,0,0-.35q0-4,.14-12,0-3.63,0-5.47a76.22,76.22,0,0,1,1-11.27,1.78,1.78,0,0,1,.25-.76.87.87,0,0,1,.62-.25h.64a3.42,3.42,0,0,0,.64,0l.44,0a5.08,5.08,0,0,0,.58-.09,1,1,0,0,1,1.2.37,9.09,9.09,0,0,1,1.33,2.62,64.27,64.27,0,0,1,1.75,6.3q.69,3.4,1.75,8.46,0,.09.32,1.33l.28-.6.55-2.37.55-2.37.55-2.09q.37-1.4.55-2.14.23-.92.74-3.5.28-1.2.46-1.79.55-2.12.87-3.17a1.55,1.55,0,0,1,.46-.78,4.89,4.89,0,0,1,3.5-1.29,6,6,0,0,1,2.07.55q.83.28.69,1.56-.18,1.66-.23,2.48-.23,2.58-.46,11.78,0,1.79-.37,10.17l-.14,6a3.19,3.19,0,0,1-.11.83q-.07.14-.62.32l-.28.14a3.55,3.55,0,0,1-1,.48,7.9,7.9,0,0,1-1.27.25,7.67,7.67,0,0,0-1.06.18.55.55,0,0,1-.6-.28,1.8,1.8,0,0,1-.6-1.56q0-2.3.23-6.58v-.18q.28-7.77.28-8,0-2.07,0-6.26.09-2.21.14-3.27v-.87h-.09Q195.13,14.4,194.85,15.5Z"/><path d="M210.54,11.13a43.69,43.69,0,0,0-.46,6.53l-.14,7.87v5.15q0,1-.09,2.88t-.09,2.88q0,.46,0,1.38t0,1.38a1.15,1.15,0,0,1-.11.64,1.6,1.6,0,0,1-.53.32,8.18,8.18,0,0,1-2.16.55q-.6,0-1.75,0a.49.49,0,0,1-.46-.23,3.53,3.53,0,0,1-.51-1.89q0-.32.07-1t0-1q0-1.15.18-13.66,0-4.14.28-8.37,0-.83.18-2.55t.18-2.6q0-.6,0-1.79A1.17,1.17,0,0,1,206,6.44a2.9,2.9,0,0,1,1.56-.18,5.72,5.72,0,0,1,2.25.69,1.86,1.86,0,0,1,.85.62,3,3,0,0,1,.16,1.22Q210.68,10.35,210.54,11.13Z"/><path d="M220,20.33q-.14,8.65-.14,8.74,0,1.29-.37,7.36a5.6,5.6,0,0,0,0,.85,5.73,5.73,0,0,1,0,.85c0,.34.08.55.32.64l1,.14,3.73-.14a1.74,1.74,0,0,1,.55,0q.46,0,.55.64a3.11,3.11,0,0,1,0,1.29q-.11.18-1,.18-.28,0-.78,0c-.34,0-.6,0-.78,0h-1.33L219,40.85q-.64,0-1.89.07l-1.89.12H215a1.51,1.51,0,0,1-1.38-2q.46-3.22.74-9.71.14-2.21.23-9.89,0-2.07.18-6.21V9.38c0-.21,0-.54,0-1s0-.75,0-1a1.2,1.2,0,0,1,.87-1.33,4.65,4.65,0,0,1,4.19.83A1.13,1.13,0,0,1,220.29,8V9.61h0Z"/><path d="M234.69,20.33q-.14,8.65-.14,8.74,0,1.29-.37,7.36a5.6,5.6,0,0,0,0,.85,5.73,5.73,0,0,1,0,.85c0,.34.08.55.32.64l1,.14,3.73-.14a1.74,1.74,0,0,1,.55,0q.46,0,.55.64a3.11,3.11,0,0,1,0,1.29q-.11.18-1,.18-.28,0-.78,0c-.34,0-.6,0-.78,0H236.3l-2.53-.14q-.64,0-1.89.07L230,41h-.23a1.51,1.51,0,0,1-1.38-2q.46-3.22.74-9.71.14-2.21.23-9.89,0-2.07.18-6.21V9.38c0-.21,0-.54,0-1s0-.75,0-1a1.2,1.2,0,0,1,.87-1.33,4.65,4.65,0,0,1,4.19.83A1.13,1.13,0,0,1,235,8V9.61h0Z"/><path d="M249.45,11.13a43.69,43.69,0,0,0-.46,6.53l-.14,7.87v5.15q0,1-.09,2.88t-.09,2.88q0,.46,0,1.38t0,1.38a1.15,1.15,0,0,1-.11.64,1.6,1.6,0,0,1-.53.32,8.18,8.18,0,0,1-2.16.55q-.6,0-1.75,0a.49.49,0,0,1-.46-.23,3.53,3.53,0,0,1-.51-1.89q0-.32.07-1t0-1q0-1.15.18-13.66,0-4.14.28-8.37,0-.83.18-2.55t.18-2.6q0-.6,0-1.79a1.17,1.17,0,0,1,.87-1.29,2.9,2.9,0,0,1,1.56-.18,5.72,5.72,0,0,1,2.25.69,1.86,1.86,0,0,1,.85.62,3,3,0,0,1,.16,1.22Q249.59,10.35,249.45,11.13Z"/><path d="M253.09,30.13q-.46-4-.51-4.65A25.36,25.36,0,0,1,254,14.86a16.19,16.19,0,0,1,2.25-4.37q.23-.23.67-.71l.67-.76a2.66,2.66,0,0,0,.74-1,.57.57,0,0,1,.37-.41l.83-.16a7.77,7.77,0,0,0,.83-.21,2.44,2.44,0,0,1,1.08-.07l1.06.12q.3,0,1.06.23t1.08.23a4.43,4.43,0,0,1,3.17,2.48,41.91,41.91,0,0,1,3,8.1,26.32,26.32,0,0,1,.41,9.57q-.46,3.31-.6,4a13.37,13.37,0,0,1-.69,2.44q-.74,2.12-1.15,3.13A5.71,5.71,0,0,1,266.43,40l-1.2.64q-.78.41-1.15.64t-.6.18l-1.31,0q-1.17,0-1.31-.14a5.8,5.8,0,0,0-1.93-.32,3.63,3.63,0,0,1-3.27-2.3q-.32-.69-1.52-3.5A36.82,36.82,0,0,1,253.09,30.13ZM264.56,14.4q-.39-.87-.92-1.93t-.8-1.66a1,1,0,0,0-.64-.64,7.05,7.05,0,0,0-1.79-.55,1.38,1.38,0,0,0-1,.23,6.74,6.74,0,0,0-2.48,2.85,21.27,21.27,0,0,0-2.12,6.85,31.62,31.62,0,0,0-.28,5.57q.32,3.54,1.06,7.41a27,27,0,0,0,1.7,5.11q.55,1.15,1.43,1.1h1.43a1.74,1.74,0,0,0,.69-.09,6.28,6.28,0,0,0,3.63-3.5,38.65,38.65,0,0,0,1.29-4.23q0-.14.55-3.4a23.37,23.37,0,0,0,0-6.07,20.22,20.22,0,0,0-1.2-5.34A9,9,0,0,0,264.56,14.4Z"/><path d="M287.63,32.06q0-1,.11-3t.12-3q0-1.06.16-3.11t.16-3q.28-4,.37-6.16.09-1.56.18-4.51a4.54,4.54,0,0,1,0-.78q.09-1.15,1.1-1.1l3.54.46a.64.64,0,0,1,.64.74,3,3,0,0,1,0,.87q0,1-.14,2.94l-.14,3.33q-.09,2.23-.18,3.33,0,.78-.09,2.3t-.14,2.3q0,.78,0,2.3v2.3q0,.87-.09,3.54t-.09,4.14q0,.32-.07,2.07a5.77,5.77,0,0,0,.12,2.07.83.83,0,0,1-.78,1.15l-.67.09-.76.09-.64.09a5.64,5.64,0,0,1-2.67-.74,1.08,1.08,0,0,1-.51-.74q-.46-1.38-1.29-4.14-.18-.6-.74-2.48t-.83-2.9l-.48-1.93-.55-2.23q-.3-1.22-.48-1.91-1.29-5.06-2-7.59a21.19,21.19,0,0,0-.83-2.62q0,.46,0,1.4T279.81,17q0,.92-.11,2.53t-.12,2.92q0,1.31,0,2.51,0,2,.09,5.93.09,5.52.14,8.33a4,4,0,0,1-.09.74.65.65,0,0,1-.6.51l-.37,0-.39.07a1.74,1.74,0,0,1-.35,0,2.71,2.71,0,0,0-.6,0h-1.2a1.42,1.42,0,0,1-.51,0,1.68,1.68,0,0,1-1.15-.48,1.92,1.92,0,0,1-.28-1.31q.09-4.23.09-6.35,0-.87,0-3.63t0-4.28q0-1,.23-6.16.09-2.71,0-5.38,0-1.56-.18-4.78a1.71,1.71,0,0,1,.16-1,1.29,1.29,0,0,1,.81-.44,5.44,5.44,0,0,1,3.27.18,4.7,4.7,0,0,1,1.38.69,2.53,2.53,0,0,1,.69,1.15q.32,1.15.94,3.47t.9,3.52l.28.8q.23.67.32,1,.37,1.52,1.15,4.55t1.2,4.51q.32,1.29,1,3.66t.78,2.78a1.09,1.09,0,0,0,.23.37h.14Q287.63,33,287.63,32.06Z"/><path d="M326.59,24.15a6.16,6.16,0,0,1,.14,1,8.08,8.08,0,0,0,.09.87,30.87,30.87,0,0,1-1.29,7.31,9.78,9.78,0,0,1-.46,1.13,8.78,8.78,0,0,1-.48.9l-.67,1q-.46.69-.6.87a12.81,12.81,0,0,1-3.63,3.63l-.09,0a4.3,4.3,0,0,1-1,.48,9.46,9.46,0,0,1-1.77.34,6.79,6.79,0,0,1-2.74-.34,11.76,11.76,0,0,1-3.24-1.63,9.29,9.29,0,0,1-1.47-3.06,12.91,12.91,0,0,1-.55-2.87V32.71l.14-.69a12.66,12.66,0,0,1,.46-1.56q.28-.69,1-.28.32.14.32.37l0,.18q0,.14-.14.48a5.45,5.45,0,0,0-.14.67,5.33,5.33,0,0,0-.14,2.48,5.15,5.15,0,0,0,4.65,5.06,3.48,3.48,0,0,0,2.9-.58,4.73,4.73,0,0,0,1.61-2.58A18.47,18.47,0,0,0,320,33a22.44,22.44,0,0,0,0-3.22,13.51,13.51,0,0,0-.18-2.3l-.14-.69q-.87-3.73-3.73-4.51l-2.07-.55a4.52,4.52,0,0,1-2.85-4.37,10.76,10.76,0,0,1,.74-3.5,12.41,12.41,0,0,1,1.61-3.13,7.49,7.49,0,0,1,4.32-2.94,23.78,23.78,0,0,1,2.9-.55,5.37,5.37,0,0,1,3.27,1,5.81,5.81,0,0,1,1.61,1.33,2,2,0,0,1,.23.41c.06.31.06.49,0,.55a.45.45,0,0,1-.41.23,1.55,1.55,0,0,1-.6-.41,8.21,8.21,0,0,0-2.25-1.43,3.91,3.91,0,0,0-3.08,0,10.33,10.33,0,0,0-2.76,1.24,6.87,6.87,0,0,0-2.76,3.4,10.9,10.9,0,0,0-1,2.94,2.53,2.53,0,0,0-.09.51,1.73,1.73,0,0,0,.25,1.22,1,1,0,0,0,.94.25,24.76,24.76,0,0,1,3.31-.14q.46,0,1.59-.09a11.78,11.78,0,0,1,1.73,0,5.51,5.51,0,0,1,4.19,2.25A8.22,8.22,0,0,1,326.59,24.15Z"/><path d="M335,13.11q0-1.06,0-1.61v-.64a1.46,1.46,0,0,0-.21-.78.81.81,0,0,0-.62-.18h-3a6.87,6.87,0,0,1-.92,0,.73.73,0,0,1-.53-.44,1.26,1.26,0,0,1-.16-.76.73.73,0,0,1,.78-.74q.51,0,1.45,0l1.73.07,1.47,0a13.48,13.48,0,0,0,3.08-.23,23.39,23.39,0,0,1,5.38-.46q.83,0,2.35-.09t2-.09A1.2,1.2,0,0,1,349,8.23q.14.55-.28.69l-.23,0-.23,0-6.26.14h-.37c-.46,0-.74.12-.85.28a2.1,2.1,0,0,0-.07,1.15,6,6,0,0,1,0,.87q-.09,1.84-.18,2.76t-.23,2.67q0,.51-.14,1.43T340,20q-.07.74-.12,1.43-.37,5.29-.51,7.68-.23,3.13-.46,5.61T338.69,38q0,.23,0,.74t0,.78a1,1,0,0,1-.55.87,6.48,6.48,0,0,1-1.54.37q-1,.14-1.36.23a2.34,2.34,0,0,1-1.1-.14q-.87-.28-.78-1.52.09-1.06.41-4.16t.46-5.22q.23-2.85.51-8.74,0-.92.14-2.78t.14-2.78v-1h0Q334.92,14.17,335,13.11Z"/><path d="M357.64,38.64l2.62-.39,2.62-.39h.18q.92-.09,1.15.14t.14,1.15a.62.62,0,0,1-.46.74l-.28,0-.28,0a45.37,45.37,0,0,0-5.66.74,7.16,7.16,0,0,1-1.22.12,8.12,8.12,0,0,0-1,.07q-1.2,0-1.84,0a1.58,1.58,0,0,1-1.79-1.38,3.1,3.1,0,0,1-.09-1.52q.6-3.73.92-8.51,0-.87.11-2.58t.12-2.53.41-6.12q0-1.43.23-4.28.14-1.75.32-5.24a1.19,1.19,0,0,1,.41-.83,3.91,3.91,0,0,1,2-.78l2-.16,2.32-.16a6.8,6.8,0,0,1,.9,0,10.32,10.32,0,0,0,1,0,4,4,0,0,0,.87-.18h.41a1.9,1.9,0,0,1,.8.21,1.53,1.53,0,0,1,.12.8,1.83,1.83,0,0,1-.14.94q-.14.16-.92.21-2.39.09-3.59.18a.92.92,0,0,0-.58.18,1.47,1.47,0,0,0-.16.69l-.55,6.62s0,.89-.14,2.58l-.14,2.9q0,.64.14.76t.74,0l2.67-.28a1,1,0,0,1,.64.07,1.46,1.46,0,0,1,.28.67,1.54,1.54,0,0,1,.09.37q0,.64-.51.69t-1.75.18q-1.38.09-2,.18c-.34.06-.51.32-.51.78s-.06,1-.09,1.7,0,1.3,0,1.7q-.46,5.84-.64,6.81-.09.55-.21,1.7t-.16,1.38A1.25,1.25,0,0,0,357.64,38.64Z"/><path d="M383.22,15.5l-.28,1.13-.28,1.13q-.28.92-.74,2.85t-.74,2.85a38.05,38.05,0,0,1-1.29,4.65,7.35,7.35,0,0,1-.92,1.56,1.23,1.23,0,0,1-1.33.37q-.6-.18-.69-1.06-.23-1.75-.9-4.83T375.22,20q-.23-1.29-1.43-6.07,0-.18-.28-.83a4,4,0,0,0-.28,1.66q-.18,5.06-.18,7.54V27q.09,2,.09,3,0,3.08-.09,9.15a2.57,2.57,0,0,1-.09.6.61.61,0,0,1-.55.6,13.08,13.08,0,0,1-3.63,0,1,1,0,0,1-1-1.1q0-.55,0-1.66,0-.09,0-.3a3.4,3.4,0,0,0,0-.35q0-4,.14-12,0-3.63,0-5.47a76.23,76.23,0,0,1,1-11.27,1.8,1.8,0,0,1,.25-.76.87.87,0,0,1,.62-.25h.64a3.43,3.43,0,0,0,.64,0l.44,0a5.06,5.06,0,0,0,.58-.09,1,1,0,0,1,1.2.37,9.1,9.1,0,0,1,1.33,2.62,64.27,64.27,0,0,1,1.75,6.3q.69,3.4,1.75,8.46,0,.09.32,1.33l.28-.6.55-2.37.55-2.37.55-2.09q.37-1.4.55-2.14.23-.92.74-3.5.28-1.2.46-1.79.55-2.12.87-3.17a1.55,1.55,0,0,1,.46-.78A4.89,4.89,0,0,1,387,6.07a6,6,0,0,1,2.07.55q.83.28.69,1.56-.18,1.66-.23,2.48-.23,2.58-.46,11.78,0,1.79-.37,10.17-.09,4-.14,6a3.18,3.18,0,0,1-.11.83q-.07.14-.62.32l-.28.14a3.54,3.54,0,0,1-1,.48,7.88,7.88,0,0,1-1.26.25,7.66,7.66,0,0,0-1.06.18.55.55,0,0,1-.6-.28A1.8,1.8,0,0,1,383,39q0-2.3.23-6.58v-.18q.28-7.77.28-8,0-2.07,0-6.26.09-2.21.14-3.27v-.87h-.09Q383.5,14.4,383.22,15.5Z"/><path d="M410.31,24.15a6.16,6.16,0,0,1,.14,1,8.08,8.08,0,0,0,.09.87,30.87,30.87,0,0,1-1.29,7.31,9.78,9.78,0,0,1-.46,1.13,8.78,8.78,0,0,1-.48.9l-.67,1q-.46.69-.6.87a12.81,12.81,0,0,1-3.63,3.63l-.09,0a4.3,4.3,0,0,1-1,.48,9.46,9.46,0,0,1-1.77.34,6.79,6.79,0,0,1-2.74-.34,11.76,11.76,0,0,1-3.24-1.63,9.29,9.29,0,0,1-1.47-3.06,12.91,12.91,0,0,1-.55-2.87V32.71l.14-.69a12.66,12.66,0,0,1,.46-1.56q.28-.69,1-.28.32.14.32.37l0,.18q0,.14-.14.48a5.45,5.45,0,0,0-.14.67,5.33,5.33,0,0,0-.14,2.48,5.15,5.15,0,0,0,4.65,5.06,3.48,3.48,0,0,0,2.9-.58,4.73,4.73,0,0,0,1.61-2.58,18.47,18.47,0,0,0,.6-3.24,22.44,22.44,0,0,0,0-3.22,13.51,13.51,0,0,0-.18-2.3l-.14-.69q-.87-3.73-3.73-4.51l-2.07-.55a4.52,4.52,0,0,1-2.85-4.37,10.76,10.76,0,0,1,.74-3.5,12.41,12.41,0,0,1,1.61-3.13,7.49,7.49,0,0,1,4.32-2.94,23.78,23.78,0,0,1,2.9-.55,5.37,5.37,0,0,1,3.27,1,5.81,5.81,0,0,1,1.61,1.33,2,2,0,0,1,.23.41c.06.31.06.49,0,.55a.45.45,0,0,1-.41.23,1.55,1.55,0,0,1-.6-.41,8.21,8.21,0,0,0-2.25-1.43,3.91,3.91,0,0,0-3.08,0,10.33,10.33,0,0,0-2.76,1.24,6.87,6.87,0,0,0-2.76,3.4,10.9,10.9,0,0,0-1,2.94,2.53,2.53,0,0,0-.09.51,1.73,1.73,0,0,0,.25,1.22,1,1,0,0,0,.94.25,24.76,24.76,0,0,1,3.31-.14q.46,0,1.59-.09a11.78,11.78,0,0,1,1.73,0,5.51,5.51,0,0,1,4.19,2.25A8.22,8.22,0,0,1,410.31,24.15Z"/><path d="M425.81,30.13q-.46-4-.51-4.65a25.35,25.35,0,0,1,1.38-10.63,16.21,16.21,0,0,1,2.25-4.37q.23-.23.67-.71t.67-.76A2.65,2.65,0,0,0,431,8a.56.56,0,0,1,.37-.41l.83-.16a7.78,7.78,0,0,0,.83-.21,2.44,2.44,0,0,1,1.08-.07l1.06.12q.3,0,1.06.23t1.08.23a4.43,4.43,0,0,1,3.17,2.48,41.91,41.91,0,0,1,3,8.1,26.31,26.31,0,0,1,.41,9.57q-.46,3.31-.6,4a13.38,13.38,0,0,1-.69,2.44q-.74,2.12-1.15,3.13A5.71,5.71,0,0,1,439.15,40l-1.2.64q-.78.41-1.15.64t-.6.18l-1.31,0q-1.17,0-1.31-.14a5.81,5.81,0,0,0-1.93-.32,3.63,3.63,0,0,1-3.27-2.3q-.32-.69-1.52-3.5A36.81,36.81,0,0,1,425.81,30.13ZM437.29,14.4q-.39-.87-.92-1.93t-.8-1.66a1,1,0,0,0-.64-.64,7.06,7.06,0,0,0-1.79-.55,1.39,1.39,0,0,0-1,.23,6.74,6.74,0,0,0-2.48,2.85,21.27,21.27,0,0,0-2.12,6.85,31.58,31.58,0,0,0-.28,5.57q.32,3.54,1.06,7.41a26.92,26.92,0,0,0,1.7,5.11q.55,1.15,1.43,1.1h1.43a1.74,1.74,0,0,0,.69-.09,6.28,6.28,0,0,0,3.63-3.5,38.76,38.76,0,0,0,1.29-4.23q0-.14.55-3.4a23.38,23.38,0,0,0,0-6.07,20.2,20.2,0,0,0-1.2-5.34A8.94,8.94,0,0,0,437.29,14.4Z"/><path d="M454.52,22.4a9.39,9.39,0,0,1,1.52-.18q1,0,.74,1.06-.32,1.29-1.47,1.15-.23,0-1.84.23c-.34,0-.51.25-.51.64q0,3.77-.23,11.55c0,.31,0,.78,0,1.4s0,1.1,0,1.4a1.58,1.58,0,0,1-.09.64.6.6,0,0,1-.21.25,2.48,2.48,0,0,1-.62.16,11.72,11.72,0,0,1-1.89.18q-1.24,0-1.61.09a.6.6,0,0,1-.74-.37,4.2,4.2,0,0,1-.46-1.7q0-.87,0-2.67t0-2.71q.37-10.9.37-12.33,0-.83.18-5.93l.41-6.49q.09-.78.51-.92A11.91,11.91,0,0,1,450,7.5l.9,0c.41,0,.73,0,.94,0a10.92,10.92,0,0,0,1.66-.09,8.08,8.08,0,0,0,1-.09,8.52,8.52,0,0,1,.85-.09q.46-.09,1.47-.18l.6-.09.41,0q.09,0,1.43-.28a4.9,4.9,0,0,1,1.1-.09.53.53,0,0,1,.37.09q.23.09.14.69a2.2,2.2,0,0,0,0,.74q.09.37-.37.46l-1,.16-1.13.16q-2.44.18-3.5.32a1.58,1.58,0,0,0-.83.28,1.49,1.49,0,0,0-.23.87q0,1.15-.21,3.54t-.25,3.63q-.14,2.07-.14,4c0,.09,0,.23,0,.41s0,.34,0,.46Q454.2,22.4,454.52,22.4Z"/><path d="M58.65,80.16a4.31,4.31,0,0,0-.64.48,1.26,1.26,0,0,0-.32.6,12.11,12.11,0,0,0-.09,1.24q-.18,3.27-.46,9.8L57,95a1,1,0,0,1-.6.87,10,10,0,0,1-1.08.41q-.58.18-1.31.34l-1.1.25a.88.88,0,0,1-.57,0,1.39,1.39,0,0,1-.39-.55,2,2,0,0,0-.32-.51,1.85,1.85,0,0,1-.28-1.33l.41-5.24q.37-5.06.51-7.59.14-1.56.32-4.69.37-3.82.51-6,0-.92,0-2.76c0-.18,0-.56,0-1.13s0-1,.07-1.31a1.23,1.23,0,0,0-.37-1.06.66.66,0,0,1-.37-.78.78.78,0,0,1,.64-.64c.31-.06.73-.16,1.27-.3l1.47-.37,1.26-.3a24.91,24.91,0,0,1,4.69-.46,6.83,6.83,0,0,1,3,.78,3.92,3.92,0,0,1,1.56,1.79,7.62,7.62,0,0,1,.51,5.7,10.42,10.42,0,0,1-2.44,4.46q-.37.41-1,1.22c-.43.54-.67.85-.74.94s-.34.38-.64.69a1.3,1.3,0,0,0-.46,1.33l.48,2.23q.39,1.82.62,2.83t2.07,8.65q.09.28.35,1.1t.34,1.29a1.7,1.7,0,0,1-.16,1.31,1.29,1.29,0,0,1-.94.71.28.28,0,0,1-.37-.09,2.47,2.47,0,0,1-.92-1.38q-.28-1.66-.67-3.45t-.92-4q-.53-2.23-.76-3.38-.18-.83-.6-2.32t-.55-2l-.28-.6A4.25,4.25,0,0,1,58.65,80.16Zm-.6-2.37.6-.41a5.35,5.35,0,0,0,.69-.55,33.05,33.05,0,0,0,4.37-5,9.39,9.39,0,0,0,1.52-5.06q.14-2.53-2.21-2.85-.69,0-4,0a2.19,2.19,0,0,0-.55.23,4,4,0,0,1,.35,1,8.64,8.64,0,0,1-.07,1.2.64.64,0,0,0,0,.28v.28q-.37,4.6-.51,6.85-.14,1.29-.32,3.86A.72.72,0,0,1,58.05,77.79Z"/><path d="M70.52,85.33q-.46-4-.51-4.65a25.36,25.36,0,0,1,1.38-10.63,16.19,16.19,0,0,1,2.25-4.37q.23-.23.67-.71l.67-.76a2.66,2.66,0,0,0,.74-1,.57.57,0,0,1,.37-.41l.83-.16a7.77,7.77,0,0,0,.83-.21,2.44,2.44,0,0,1,1.08-.07l1.06.12q.3,0,1.06.23t1.08.23a4.43,4.43,0,0,1,3.17,2.48,41.91,41.91,0,0,1,3,8.1,26.32,26.32,0,0,1,.41,9.57q-.46,3.31-.6,4a13.37,13.37,0,0,1-.69,2.44q-.74,2.12-1.15,3.13a5.71,5.71,0,0,1-2.35,2.58l-1.2.64q-.78.41-1.15.64t-.6.18l-1.31,0q-1.17,0-1.31-.14a5.8,5.8,0,0,0-1.93-.32A3.63,3.63,0,0,1,73.09,94q-.32-.69-1.52-3.5A36.82,36.82,0,0,1,70.52,85.33ZM82,69.6q-.39-.87-.92-1.93T80.27,66a1,1,0,0,0-.64-.64,7.05,7.05,0,0,0-1.79-.55,1.38,1.38,0,0,0-1,.23,6.74,6.74,0,0,0-2.48,2.85,21.27,21.27,0,0,0-2.12,6.85,31.62,31.62,0,0,0-.28,5.57q.32,3.54,1.06,7.41a27,27,0,0,0,1.7,5.11q.55,1.15,1.43,1.1h1.43a1.74,1.74,0,0,0,.69-.09,6.28,6.28,0,0,0,3.63-3.5,38.65,38.65,0,0,0,1.29-4.23q0-.14.55-3.4a23.37,23.37,0,0,0,0-6.07,20.22,20.22,0,0,0-1.2-5.34A9,9,0,0,0,82,69.6Z"/><path d="M109.48,79.35a6.26,6.26,0,0,1,.14,1,8.12,8.12,0,0,0,.09.87,30.87,30.87,0,0,1-1.29,7.31,9.69,9.69,0,0,1-.46,1.13,8.7,8.7,0,0,1-.48.9l-.67,1q-.46.69-.6.87a12.81,12.81,0,0,1-3.63,3.63l-.09,0a4.31,4.31,0,0,1-1,.48,9.48,9.48,0,0,1-1.77.34,6.79,6.79,0,0,1-2.74-.34A11.75,11.75,0,0,1,93.7,95a9.28,9.28,0,0,1-1.47-3.06,12.91,12.91,0,0,1-.55-2.87V87.91l.14-.69a12.49,12.49,0,0,1,.46-1.56q.28-.69,1-.28c.21.09.32.21.32.37l0,.18q0,.14-.14.48a5.54,5.54,0,0,0-.14.67,5.32,5.32,0,0,0-.14,2.48,5.15,5.15,0,0,0,4.65,5.06,3.48,3.48,0,0,0,2.9-.58,4.73,4.73,0,0,0,1.61-2.58,18.43,18.43,0,0,0,.6-3.24,22.51,22.51,0,0,0,0-3.22,13.46,13.46,0,0,0-.18-2.3l-.14-.69q-.87-3.73-3.73-4.51L96.83,77A4.52,4.52,0,0,1,94,72.59a10.75,10.75,0,0,1,.74-3.5A12.4,12.4,0,0,1,96.32,66,7.49,7.49,0,0,1,100.65,63a23.79,23.79,0,0,1,2.9-.55,5.37,5.37,0,0,1,3.27,1,5.81,5.81,0,0,1,1.61,1.33,2.07,2.07,0,0,1,.23.41c.06.31.06.49,0,.55a.45.45,0,0,1-.41.23,1.55,1.55,0,0,1-.6-.41,8.2,8.2,0,0,0-2.25-1.43,3.91,3.91,0,0,0-3.08,0,10.33,10.33,0,0,0-2.76,1.24,6.87,6.87,0,0,0-2.76,3.4,10.87,10.87,0,0,0-1,2.94,2.49,2.49,0,0,0-.09.51A1.73,1.73,0,0,0,96,73.39a1,1,0,0,0,.94.25,24.77,24.77,0,0,1,3.31-.14q.46,0,1.59-.09a11.78,11.78,0,0,1,1.73,0,5.51,5.51,0,0,1,4.19,2.25A8.22,8.22,0,0,1,109.48,79.35Z"/><path d="M118.26,93.84l2.62-.39,2.62-.39h.18q.92-.09,1.15.14t.14,1.15a.62.62,0,0,1-.46.74l-.28,0-.28,0a45.36,45.36,0,0,0-5.66.74,7.17,7.17,0,0,1-1.22.12,8.12,8.12,0,0,0-1,.07q-1.2,0-1.84,0a1.58,1.58,0,0,1-1.79-1.38,3.11,3.11,0,0,1-.09-1.52q.6-3.73.92-8.51,0-.87.11-2.58t.12-2.53.41-6.12q0-1.43.23-4.28.14-1.75.32-5.24a1.19,1.19,0,0,1,.41-.83,3.91,3.91,0,0,1,2-.78l2-.16,2.32-.16a6.79,6.79,0,0,1,.9,0,10.31,10.31,0,0,0,1,0,4,4,0,0,0,.87-.18h.41a1.9,1.9,0,0,1,.81.21,1.53,1.53,0,0,1,.11.8,1.83,1.83,0,0,1-.14.94q-.14.16-.92.21-2.39.09-3.59.18a.92.92,0,0,0-.58.18,1.46,1.46,0,0,0-.16.69l-.55,6.62s0,.89-.14,2.58l-.14,2.9q0,.64.14.76t.74,0l2.67-.28a1,1,0,0,1,.64.07,1.46,1.46,0,0,1,.28.67,1.52,1.52,0,0,1,.09.37c0,.43-.14.66-.51.69s-1,.12-1.75.18-1.58.12-2,.18-.51.32-.51.78-.06,1-.09,1.7,0,1.3,0,1.7q-.46,5.84-.64,6.81-.09.55-.21,1.7t-.16,1.38A1.25,1.25,0,0,0,118.26,93.84Z"/><path d="M146.19,79.35a6.26,6.26,0,0,1,.14,1,8.12,8.12,0,0,0,.09.87,30.87,30.87,0,0,1-1.29,7.31,9.69,9.69,0,0,1-.46,1.13,8.7,8.7,0,0,1-.48.9l-.67,1q-.46.69-.6.87a12.81,12.81,0,0,1-3.63,3.63l-.09,0a4.31,4.31,0,0,1-1,.48,9.48,9.48,0,0,1-1.77.34,6.79,6.79,0,0,1-2.74-.34A11.75,11.75,0,0,1,130.41,95a9.28,9.28,0,0,1-1.47-3.06,12.91,12.91,0,0,1-.55-2.87V87.91l.14-.69a12.49,12.49,0,0,1,.46-1.56q.28-.69,1-.28c.21.09.32.21.32.37l0,.18q0,.14-.14.48a5.54,5.54,0,0,0-.14.67,5.32,5.32,0,0,0-.14,2.48,5.15,5.15,0,0,0,4.65,5.06,3.48,3.48,0,0,0,2.9-.58A4.73,4.73,0,0,0,139,91.47a18.43,18.43,0,0,0,.6-3.24,22.51,22.51,0,0,0,0-3.22,13.46,13.46,0,0,0-.18-2.3l-.14-.69q-.87-3.73-3.73-4.51L133.54,77a4.52,4.52,0,0,1-2.85-4.37,10.75,10.75,0,0,1,.74-3.5A12.4,12.4,0,0,1,133,66,7.49,7.49,0,0,1,137.35,63a23.79,23.79,0,0,1,2.9-.55,5.37,5.37,0,0,1,3.27,1,5.81,5.81,0,0,1,1.61,1.33,2.07,2.07,0,0,1,.23.41c.06.31.06.49,0,.55a.45.45,0,0,1-.41.23,1.55,1.55,0,0,1-.6-.41,8.2,8.2,0,0,0-2.25-1.43,3.91,3.91,0,0,0-3.08,0,10.33,10.33,0,0,0-2.76,1.24,6.87,6.87,0,0,0-2.76,3.4,10.87,10.87,0,0,0-1,2.94,2.49,2.49,0,0,0-.09.51,1.73,1.73,0,0,0,.25,1.22,1,1,0,0,0,.94.25,24.77,24.77,0,0,1,3.31-.14q.46,0,1.59-.09a11.78,11.78,0,0,1,1.73,0,5.51,5.51,0,0,1,4.19,2.25A8.22,8.22,0,0,1,146.19,79.35Z"/><path d="M160.72,94.94a7.8,7.8,0,0,1,.28-1.33q.37-1.15.87-3.33t.74-3.06q.28-1.1.69-3.15t.51-2.55q1.2-5.43,1.52-6.62l.39-1.36.46-1.59.39-1.33,1.24-5.11a3.1,3.1,0,0,0,0-.87,1.17,1.17,0,0,1,.64-1.47q.28-.14.85-.37a6.37,6.37,0,0,0,.81-.37,6.82,6.82,0,0,1,2.12-.28,1,1,0,0,1,1.2.78,4,4,0,0,1,.23.87q.69,6.35.92,8.83.23,2.12.6,5.75,0,.23.07.48t0,.55q0,.3,0,.48.37,3.4.55,5.06.18,2.16.55,6.39a10.66,10.66,0,0,1,0,1.17v1.22a.89.89,0,0,1-.41.69,10,10,0,0,1-3.08,1.29.44.44,0,0,0-.32.14.84.84,0,0,1-.92,0,1,1,0,0,1-.55-1,64,64,0,0,0-.64-8.6q-.09-.55-.21-1.61t-.16-1.61a1.65,1.65,0,0,0-.23-.71q-.14-.16-.64-.12t-3.59.23a.88.88,0,0,0-.87.83q-.18,1-1.2,5.43-.18.64-.53,1.93t-.48,1.93a20.54,20.54,0,0,1-.78,2.76q-.46.41-.6.28c0-.06-.06-.09-.09-.09a.13.13,0,0,0,0,.09v0l-.28.14A3.1,3.1,0,0,1,160.72,94.94ZM165.51,81l1.29-.14q.41,0,1.22-.07l1.22,0q.46,0,.55-.12c.06-.08.06-.27,0-.58s-.14-1.07-.23-1.91-.15-1.48-.18-1.91q-.09-1-.3-3.06t-.34-3.06a1.62,1.62,0,0,0-.07-.39,1.61,1.61,0,0,1-.07-.34A55.6,55.6,0,0,0,165.51,81Z"/><path d="M186.53,80.16a4.31,4.31,0,0,0-.64.48,1.26,1.26,0,0,0-.32.6,12.11,12.11,0,0,0-.09,1.24q-.18,3.27-.46,9.8L184.87,95a1,1,0,0,1-.6.87,10,10,0,0,1-1.08.41q-.58.18-1.31.34l-1.1.25a.88.88,0,0,1-.57,0,1.39,1.39,0,0,1-.39-.55,2,2,0,0,0-.32-.51,1.85,1.85,0,0,1-.28-1.33l.41-5.24q.37-5.06.51-7.59.14-1.56.32-4.69.37-3.82.51-6,0-.92,0-2.76c0-.18,0-.56,0-1.13s0-1,.07-1.31a1.23,1.23,0,0,0-.37-1.06.66.66,0,0,1-.37-.78.78.78,0,0,1,.64-.64c.31-.06.73-.16,1.27-.3l1.47-.37,1.26-.3a24.91,24.91,0,0,1,4.69-.46,6.83,6.83,0,0,1,3,.78,3.92,3.92,0,0,1,1.56,1.79,7.62,7.62,0,0,1,.51,5.7,10.42,10.42,0,0,1-2.44,4.46q-.37.41-1,1.22c-.43.54-.67.85-.74.94s-.34.38-.64.69a1.3,1.3,0,0,0-.46,1.33l.48,2.23q.39,1.82.62,2.83t2.07,8.65q.09.28.35,1.1t.34,1.29a1.7,1.7,0,0,1-.16,1.31,1.29,1.29,0,0,1-.94.71.28.28,0,0,1-.37-.09,2.47,2.47,0,0,1-.92-1.38q-.28-1.66-.67-3.45t-.92-4q-.53-2.23-.76-3.38-.18-.83-.6-2.32t-.55-2l-.28-.6A4.25,4.25,0,0,1,186.53,80.16Zm-.6-2.37.6-.41a5.35,5.35,0,0,0,.69-.55,33.05,33.05,0,0,0,4.37-5,9.39,9.39,0,0,0,1.52-5.06q.14-2.53-2.21-2.85-.69,0-4,0a2.19,2.19,0,0,0-.55.23,4,4,0,0,1,.35,1,8.64,8.64,0,0,1-.07,1.2.64.64,0,0,0,0,.28v.28q-.37,4.6-.51,6.85-.14,1.29-.32,3.86A.72.72,0,0,1,185.93,77.79Z"/><path d="M203.64,93.84l2.62-.39,2.62-.39h.18q.92-.09,1.15.14t.14,1.15a.62.62,0,0,1-.46.74l-.28,0-.28,0a45.36,45.36,0,0,0-5.66.74,7.17,7.17,0,0,1-1.22.12,8.12,8.12,0,0,0-1,.07q-1.2,0-1.84,0a1.58,1.58,0,0,1-1.79-1.38,3.11,3.11,0,0,1-.09-1.52q.6-3.73.92-8.51,0-.87.11-2.58t.12-2.53.41-6.12q0-1.43.23-4.28.14-1.75.32-5.24a1.19,1.19,0,0,1,.41-.83,3.91,3.91,0,0,1,2-.78l2-.16,2.32-.16a6.79,6.79,0,0,1,.9,0,10.31,10.31,0,0,0,1,0,4,4,0,0,0,.87-.18h.41a1.9,1.9,0,0,1,.81.21,1.53,1.53,0,0,1,.11.8,1.83,1.83,0,0,1-.14.94q-.14.16-.92.21-2.39.09-3.59.18a.92.92,0,0,0-.58.18,1.46,1.46,0,0,0-.16.69l-.55,6.62s0,.89-.14,2.58l-.14,2.9q0,.64.14.76t.74,0l2.67-.28a1,1,0,0,1,.64.07,1.46,1.46,0,0,1,.28.67,1.52,1.52,0,0,1,.09.37c0,.43-.14.66-.51.69s-1,.12-1.75.18-1.58.12-2,.18-.51.32-.51.78-.06,1-.09,1.7,0,1.3,0,1.7q-.46,5.84-.64,6.81-.09.55-.21,1.7t-.16,1.38A1.25,1.25,0,0,0,203.64,93.84Z"/><path d="M243.52,79.35a6.26,6.26,0,0,1,.14,1,8.12,8.12,0,0,0,.09.87,30.87,30.87,0,0,1-1.29,7.31,9.69,9.69,0,0,1-.46,1.13,8.7,8.7,0,0,1-.48.9l-.67,1q-.46.69-.6.87a12.81,12.81,0,0,1-3.63,3.63l-.09,0a4.31,4.31,0,0,1-1,.48,9.48,9.48,0,0,1-1.77.34,6.79,6.79,0,0,1-2.74-.34A11.75,11.75,0,0,1,227.74,95a9.28,9.28,0,0,1-1.47-3.06,12.91,12.91,0,0,1-.55-2.87V87.91l.14-.69a12.49,12.49,0,0,1,.46-1.56q.28-.69,1-.28c.21.09.32.21.32.37l0,.18q0,.14-.14.48a5.54,5.54,0,0,0-.14.67,5.32,5.32,0,0,0-.14,2.48,5.15,5.15,0,0,0,4.65,5.06,3.48,3.48,0,0,0,2.9-.58,4.73,4.73,0,0,0,1.61-2.58,18.43,18.43,0,0,0,.6-3.24A22.51,22.51,0,0,0,237,85a13.46,13.46,0,0,0-.18-2.3l-.14-.69q-.87-3.73-3.73-4.51L230.87,77A4.52,4.52,0,0,1,228,72.59a10.75,10.75,0,0,1,.74-3.5A12.4,12.4,0,0,1,230.36,66,7.49,7.49,0,0,1,234.69,63a23.79,23.79,0,0,1,2.9-.55,5.37,5.37,0,0,1,3.27,1,5.81,5.81,0,0,1,1.61,1.33,2.07,2.07,0,0,1,.23.41c.06.31.06.49,0,.55a.45.45,0,0,1-.41.23,1.55,1.55,0,0,1-.6-.41,8.2,8.2,0,0,0-2.25-1.43,3.91,3.91,0,0,0-3.08,0,10.33,10.33,0,0,0-2.76,1.24,6.87,6.87,0,0,0-2.76,3.4,10.87,10.87,0,0,0-1,2.94,2.49,2.49,0,0,0-.09.51,1.73,1.73,0,0,0,.25,1.22,1,1,0,0,0,.94.25,24.77,24.77,0,0,1,3.31-.14q.46,0,1.59-.09a11.78,11.78,0,0,1,1.73,0,5.51,5.51,0,0,1,4.19,2.25A8.22,8.22,0,0,1,243.52,79.35Z"/><path d="M247.06,85.33q-.46-4-.51-4.65a25.36,25.36,0,0,1,1.38-10.63,16.19,16.19,0,0,1,2.25-4.37q.23-.23.67-.71l.67-.76a2.66,2.66,0,0,0,.74-1,.57.57,0,0,1,.37-.41l.83-.16a7.77,7.77,0,0,0,.83-.21,2.44,2.44,0,0,1,1.08-.07l1.06.12q.3,0,1.06.23t1.08.23a4.43,4.43,0,0,1,3.17,2.48,41.91,41.91,0,0,1,3,8.1,26.32,26.32,0,0,1,.41,9.57q-.46,3.31-.6,4a13.37,13.37,0,0,1-.69,2.44q-.74,2.12-1.15,3.13a5.71,5.71,0,0,1-2.35,2.58l-1.2.64q-.78.41-1.15.64t-.6.18l-1.31,0q-1.17,0-1.31-.14a5.8,5.8,0,0,0-1.93-.32,3.63,3.63,0,0,1-3.27-2.3q-.32-.69-1.52-3.5A36.82,36.82,0,0,1,247.06,85.33ZM258.54,69.6q-.39-.87-.92-1.93t-.8-1.66a1,1,0,0,0-.64-.64,7.05,7.05,0,0,0-1.79-.55,1.38,1.38,0,0,0-1,.23,6.74,6.74,0,0,0-2.48,2.85,21.27,21.27,0,0,0-2.12,6.85,31.62,31.62,0,0,0-.28,5.57q.32,3.54,1.06,7.41a27,27,0,0,0,1.7,5.11q.55,1.15,1.43,1.1h1.43a1.74,1.74,0,0,0,.69-.09,6.28,6.28,0,0,0,3.63-3.5,38.65,38.65,0,0,0,1.29-4.23q0-.14.55-3.4a23.37,23.37,0,0,0,0-6.07,20.22,20.22,0,0,0-1.2-5.34A9,9,0,0,0,258.54,69.6Z"/><path d="M274.57,75.53q-.14,8.65-.14,8.74,0,1.29-.37,7.36a5.6,5.6,0,0,0,0,.85,5.73,5.73,0,0,1,0,.85c0,.34.08.55.32.64l1,.14L279,94a1.74,1.74,0,0,1,.55,0q.46,0,.55.64a3.11,3.11,0,0,1,0,1.29q-.11.18-1,.18-.28,0-.78,0c-.34,0-.6,0-.78,0h-1.33L273.65,96q-.64,0-1.89.07l-1.89.12h-.23a1.51,1.51,0,0,1-1.38-2q.46-3.22.74-9.71.14-2.21.23-9.89,0-2.07.18-6.21V64.58c0-.21,0-.54,0-1s0-.75,0-1a1.2,1.2,0,0,1,.87-1.33,4.65,4.65,0,0,1,4.19.83,1.13,1.13,0,0,1,.46,1.06v1.61h0Z"/><path d="M283.72,65.32l-.64.09a.93.93,0,0,1-.6-.18.6.6,0,0,1-.41-.51q0-.14.41-.55a5.57,5.57,0,0,1,1-.46,8.74,8.74,0,0,0,1.66-.87,2.83,2.83,0,0,1,1.75-.55,51.49,51.49,0,0,1,6.67.14,4.37,4.37,0,0,1,2.25,1c.18.15.49.38.92.67s.74.51.92.67a6,6,0,0,1,1.43,2.35,11,11,0,0,1,.51,5.89,15.94,15.94,0,0,1-1.52,4.74q-.51.92-2.35,5.52a35.91,35.91,0,0,1-2.62,5.34l-2.9,4.74q-.78,1.29-1.89,2.9a.59.59,0,0,1-.6.37,2.93,2.93,0,0,0-.44-.09l-.46-.07a.82.82,0,0,1-.37-.18.93.93,0,0,1-.3-.39l-.41-.18-.67,0a5.24,5.24,0,0,1-.67-.07q-1.2-.09-1.06-1.43,0-.69.16-2t.16-2q0-.6.09-1.63t.09-1.91q0-.87.09-1.66.09-1.1.23-3.31t.23-3.31q.18-3.5.23-5.52,0-2.35,0-7a3.52,3.52,0,0,0,0-.64C284.4,65.2,284.09,65.26,283.72,65.32Zm5.7,25,.23-.28q.55-1,.83-1.47A46.68,46.68,0,0,0,294.21,81q.18-.55,2.21-5a12.4,12.4,0,0,0,1.29-6.49q-.14-3.63-3.91-5.24a9.65,9.65,0,0,0-2.62-.32q-.55,0-.71.14a1.39,1.39,0,0,0-.16.83q-.09,2.07-.18,6.3,0,.83,0,2.44T290,76.13q0,1.06-.23,3.22t-.23,3.27q-.28,4.88-.41,7.27a2.54,2.54,0,0,0,0,.78C289.21,90.57,289.31,90.45,289.43,90.3Z"/><path d="M321.17,66.33a43.83,43.83,0,0,0-.46,6.53l-.14,7.87v5.15q0,1-.09,2.88t-.09,2.88c0,.31,0,.77,0,1.38s0,1.07,0,1.38a1.15,1.15,0,0,1-.11.64,1.6,1.6,0,0,1-.53.32,8.18,8.18,0,0,1-2.16.55q-.6,0-1.75,0a.49.49,0,0,1-.46-.23,3.53,3.53,0,0,1-.51-1.89c0-.21.05-.54.07-1s0-.75,0-1q0-1.15.18-13.66,0-4.14.28-8.37,0-.83.18-2.55t.18-2.6q0-.6,0-1.79a1.17,1.17,0,0,1,.87-1.29,2.9,2.9,0,0,1,1.56-.18,5.72,5.72,0,0,1,2.25.69,1.86,1.86,0,0,1,.85.62,3,3,0,0,1,.16,1.22Q321.31,65.55,321.17,66.33Z"/><path d="M337.64,87.26q0-1,.12-3t.12-3q0-1.06.16-3.11t.16-3q.28-4,.37-6.16.09-1.56.18-4.51a4.49,4.49,0,0,1,0-.78q.09-1.15,1.1-1.1l3.54.46a.64.64,0,0,1,.64.74,3,3,0,0,1,0,.87q0,1-.14,2.94l-.14,3.33q-.09,2.23-.18,3.33,0,.78-.09,2.3t-.14,2.3q0,.78,0,2.3v2.3q0,.87-.09,3.54t-.09,4.14q0,.32-.07,2.07a5.77,5.77,0,0,0,.12,2.07.83.83,0,0,1-.78,1.15l-.67.09-.76.09-.64.09a5.64,5.64,0,0,1-2.67-.74,1.08,1.08,0,0,1-.51-.74q-.46-1.38-1.29-4.14-.18-.6-.74-2.48t-.83-2.9l-.48-1.93-.55-2.23q-.3-1.22-.48-1.91-1.29-5.06-2-7.59a21.27,21.27,0,0,0-.83-2.62q0,.46,0,1.4t-.09,1.45q0,.92-.11,2.53t-.12,2.92q0,1.31,0,2.51,0,2,.09,5.93.09,5.52.14,8.33a3.94,3.94,0,0,1-.09.74.65.65,0,0,1-.6.51l-.37,0-.39.07a1.75,1.75,0,0,1-.35,0,2.7,2.7,0,0,0-.6,0h-1.2a1.42,1.42,0,0,1-.51,0,1.69,1.69,0,0,1-1.15-.48,1.92,1.92,0,0,1-.28-1.31q.09-4.23.09-6.35,0-.87,0-3.63t0-4.28q0-1,.23-6.16.09-2.71,0-5.38,0-1.56-.18-4.78a1.71,1.71,0,0,1,.16-1,1.29,1.29,0,0,1,.8-.44,5.44,5.44,0,0,1,3.27.18,4.71,4.71,0,0,1,1.38.69,2.53,2.53,0,0,1,.69,1.15q.32,1.15.94,3.47t.9,3.52l.28.8q.23.67.32,1,.37,1.52,1.15,4.55t1.2,4.51q.32,1.29,1,3.66t.78,2.78a1.1,1.1,0,0,0,.23.37h.14Q337.63,88.23,337.64,87.26Z"/><path d="M364.18,68.31q0-1.06,0-1.61v-.64a1.46,1.46,0,0,0-.21-.78.81.81,0,0,0-.62-.18h-3a6.87,6.87,0,0,1-.92,0,.73.73,0,0,1-.53-.44,1.26,1.26,0,0,1-.16-.76.73.73,0,0,1,.78-.74q.51,0,1.45,0l1.73.07,1.47,0a13.48,13.48,0,0,0,3.08-.23,23.39,23.39,0,0,1,5.38-.46q.83,0,2.35-.09t2-.09a1.2,1.2,0,0,1,1.2,1.06q.14.55-.28.69l-.23,0-.23,0-6.26.14h-.37c-.46,0-.74.12-.85.28a2.1,2.1,0,0,0-.07,1.15,6,6,0,0,1,0,.87q-.09,1.84-.18,2.76t-.23,2.67q0,.51-.14,1.43t-.16,1.66q-.07.74-.12,1.43-.37,5.29-.51,7.68-.23,3.13-.46,5.61t-.23,3.36q0,.23,0,.74t0,.78a1,1,0,0,1-.55.87,6.48,6.48,0,0,1-1.54.37q-1,.14-1.36.23a2.34,2.34,0,0,1-1.1-.14q-.87-.28-.78-1.52.09-1.06.41-4.16t.46-5.22q.23-2.85.51-8.74,0-.92.14-2.78t.14-2.78v-1h0Q364.13,69.37,364.18,68.31Z"/><path d="M388.83,85.45q.09-3.2.14-4.76a1.29,1.29,0,0,0-.12-.67q-.12-.16-.53-.16a22.33,22.33,0,0,1-3-.18q-.78-.14-.83.64-.41,5.7-.51,7,0,.74-.18,2.21t-.18,2.21a6.76,6.76,0,0,0,0,1.29l0,1.29a1.5,1.5,0,0,1-.12.55,1.34,1.34,0,0,1-.53.23,30.29,30.29,0,0,1-3.59.55,1.43,1.43,0,0,1-1.13-.41,1.33,1.33,0,0,1-.44-1.1q.28-5.8.28-5.89.46-6.72.64-9.75l.41-5.38q.09-.83.23-2.39t.18-2.39q0-.51.18-1.5t.18-1.45q.09-1.47.09-2.25a1.11,1.11,0,0,1,.87-1.1,6.53,6.53,0,0,1,3.54.18l.32.09a2.09,2.09,0,0,1,1,.6,2.41,2.41,0,0,1,.12,1.15q0,.78-.21,2.23T385.43,68q-.09,1.15-.3,3.38t-.3,3.24q0,.55-.18,2.58a1,1,0,0,0,.07.62.94.94,0,0,0,.58.25,21,21,0,0,0,3.08.14q.64,0,.69-.55a21.74,21.74,0,0,0,.14-2.39q0-1.24.16-3.7t.16-3.7q0-.78,0-2.28t0-2.28a1.82,1.82,0,0,1,0-.51.6.6,0,0,1,.44-.58.73.73,0,0,1,.71.16,2.69,2.69,0,0,1,1.06,2.16q-.09,1.24-.12,3.47t-.07,3.11l-.28,5.52c0,.18,0,.46,0,.83s0,.64,0,.83q0,1-.09,3.06t-.09,3.06.14,8.1c0,.18,0,.51,0,1a6.88,6.88,0,0,0,0,1.13.86.86,0,0,1-.55.74,1.39,1.39,0,0,1-1.47-.09,1.58,1.58,0,0,1-.55-1.43,12,12,0,0,0,.14-1.79q0-.6-.09-1.79a0,0,0,0,0,0,0Q388.74,88.64,388.83,85.45Z"/><path d="M400.33,93.84l2.62-.39,2.62-.39h.18q.92-.09,1.15.14t.14,1.15a.62.62,0,0,1-.46.74l-.28,0-.28,0a45.34,45.34,0,0,0-5.66.74,7.17,7.17,0,0,1-1.22.12,8.13,8.13,0,0,0-1,.07q-1.2,0-1.84,0a1.58,1.58,0,0,1-1.79-1.38,3.12,3.12,0,0,1-.09-1.52q.6-3.73.92-8.51,0-.87.12-2.58t.12-2.53.41-6.12q0-1.43.23-4.28.14-1.75.32-5.24a1.19,1.19,0,0,1,.41-.83,3.9,3.9,0,0,1,2-.78l2-.16,2.32-.16a6.77,6.77,0,0,1,.9,0,10.31,10.31,0,0,0,1,0,4,4,0,0,0,.87-.18h.41a1.9,1.9,0,0,1,.81.21,1.53,1.53,0,0,1,.11.8,1.84,1.84,0,0,1-.14.94c-.09.11-.4.18-.92.21q-2.39.09-3.59.18a.92.92,0,0,0-.58.18,1.46,1.46,0,0,0-.16.69l-.55,6.62s0,.89-.14,2.58l-.14,2.9q0,.64.14.76t.74,0l2.67-.28a1,1,0,0,1,.64.07,1.46,1.46,0,0,1,.28.67,1.51,1.51,0,0,1,.09.37c0,.43-.14.66-.51.69s-1,.12-1.75.18-1.58.12-2,.18-.51.32-.51.78-.06,1-.09,1.7,0,1.3,0,1.7q-.46,5.84-.64,6.81-.09.55-.21,1.7t-.16,1.38A1.25,1.25,0,0,0,400.33,93.84Z"/><path d="M422.55,73.14q.14-3.45.51-9.84,0-1,.69-1a1.05,1.05,0,0,1,.71.41,1.17,1.17,0,0,1,.25.87l-.14,1.63q-.09,1.08-.14,1.63a5.61,5.61,0,0,0-.09.87q-.09,10.35-.09,12.42t.28,6.62q0,.32.37,1.7a10,10,0,0,0,.32,1.2,7.64,7.64,0,0,0,.32,1.06q.46,1,1.29.78a5.2,5.2,0,0,0,3.77-4.28l.12-.46q.07-.28.12-.53a2.73,2.73,0,0,0,0-.48q.55-3.77.78-5.7.55-5.75.64-7.13.23-3.17.32-7.22a10.64,10.64,0,0,0-.09-1.7,2.16,2.16,0,0,1,1.2-2.35,1.67,1.67,0,0,1,1.43-.09,4.58,4.58,0,0,0,.92.18,2.72,2.72,0,0,1,1.06.32,2.69,2.69,0,0,1,1.43,2.76q-.14,2.94-.51,9.34-.46,5.89-.74,9.2a40.44,40.44,0,0,1-.64,4.42q0,.32-1.1,3.54l-.39.87a6.66,6.66,0,0,0-.34.87,8.55,8.55,0,0,1-2.48,3.08,5.63,5.63,0,0,1-4.65,1.38,3.29,3.29,0,0,1-1.93-1q-1.93-1.89-2.76-6.12,0-.41-.18-2.53-.09-1.66-.23-4.88t-.18-4.88h.09Q422.5,74,422.55,73.14Z"/><path d="M442,92.92a.66.66,0,0,1,.78-.18,3.12,3.12,0,0,1,.74.18,1.35,1.35,0,0,1,1.15,1.33,2.74,2.74,0,0,1,0,1.29q-.46.87-1.2.64a8.33,8.33,0,0,1-1.66-.83,1,1,0,0,1-.41-1.06A1.9,1.9,0,0,1,442,92.92Z"/><path d="M465.28,79.35a6.16,6.16,0,0,1,.14,1,8.08,8.08,0,0,0,.09.87,30.87,30.87,0,0,1-1.29,7.31,9.78,9.78,0,0,1-.46,1.13,8.78,8.78,0,0,1-.48.9l-.67,1q-.46.69-.6.87a12.81,12.81,0,0,1-3.63,3.63l-.09,0a4.3,4.3,0,0,1-1,.48,9.46,9.46,0,0,1-1.77.34,6.79,6.79,0,0,1-2.74-.34A11.76,11.76,0,0,1,449.51,95,9.29,9.29,0,0,1,448,91.93a12.91,12.91,0,0,1-.55-2.87V87.91l.14-.69a12.66,12.66,0,0,1,.46-1.56q.28-.69,1-.28.32.14.32.37l0,.18q0,.14-.14.48a5.45,5.45,0,0,0-.14.67,5.33,5.33,0,0,0-.14,2.48,5.15,5.15,0,0,0,4.65,5.06,3.48,3.48,0,0,0,2.9-.58,4.73,4.73,0,0,0,1.61-2.58,18.47,18.47,0,0,0,.6-3.24,22.44,22.44,0,0,0,0-3.22,13.51,13.51,0,0,0-.18-2.3l-.14-.69q-.87-3.73-3.73-4.51L452.63,77a4.52,4.52,0,0,1-2.85-4.37,10.76,10.76,0,0,1,.74-3.5A12.41,12.41,0,0,1,452.13,66,7.49,7.49,0,0,1,456.45,63a23.78,23.78,0,0,1,2.9-.55,5.37,5.37,0,0,1,3.27,1,5.81,5.81,0,0,1,1.61,1.33,2,2,0,0,1,.23.41c.06.31.06.49,0,.55A.45.45,0,0,1,464,66a1.55,1.55,0,0,1-.6-.41,8.21,8.21,0,0,0-2.25-1.43,3.91,3.91,0,0,0-3.08,0,10.33,10.33,0,0,0-2.76,1.24,6.87,6.87,0,0,0-2.76,3.4,10.9,10.9,0,0,0-1,2.94,2.53,2.53,0,0,0-.09.51,1.73,1.73,0,0,0,.25,1.22,1,1,0,0,0,.94.25,24.76,24.76,0,0,1,3.31-.14q.46,0,1.59-.09a11.78,11.78,0,0,1,1.73,0,5.51,5.51,0,0,1,4.19,2.25A8.22,8.22,0,0,1,465.28,79.35Z"/><path d="M468.92,92.92a.66.66,0,0,1,.78-.18,3.12,3.12,0,0,1,.74.18,1.35,1.35,0,0,1,1.15,1.33,2.72,2.72,0,0,1,0,1.29q-.46.87-1.2.64a8.3,8.3,0,0,1-1.66-.83,1,1,0,0,1-.41-1.06A1.9,1.9,0,0,1,468.92,92.92Z"/><path d="M486.95,85.33q-.46-4-.51-4.65a25.37,25.37,0,0,1,1.38-10.63,16.16,16.16,0,0,1,2.25-4.37l.67-.71.67-.76a2.66,2.66,0,0,0,.74-1,.57.57,0,0,1,.37-.41l.83-.16a7.75,7.75,0,0,0,.83-.21,2.44,2.44,0,0,1,1.08-.07l1.06.12q.3,0,1.06.23t1.08.23a4.43,4.43,0,0,1,3.17,2.48,41.91,41.91,0,0,1,3,8.1,26.33,26.33,0,0,1,.41,9.57q-.46,3.31-.6,4a13.36,13.36,0,0,1-.69,2.44q-.74,2.12-1.15,3.13a5.72,5.72,0,0,1-2.35,2.58l-1.2.64q-.78.41-1.15.64t-.6.18l-1.31,0q-1.17,0-1.31-.14a5.8,5.8,0,0,0-1.93-.32,3.63,3.63,0,0,1-3.27-2.3q-.32-.69-1.52-3.5A36.82,36.82,0,0,1,486.95,85.33ZM498.43,69.6q-.39-.87-.92-1.93T496.7,66a1,1,0,0,0-.64-.64,7,7,0,0,0-1.79-.55,1.38,1.38,0,0,0-1,.23,6.75,6.75,0,0,0-2.48,2.85,21.27,21.27,0,0,0-2.12,6.85,31.66,31.66,0,0,0-.28,5.57q.32,3.54,1.06,7.41a27,27,0,0,0,1.7,5.11q.55,1.15,1.43,1.1H494a1.74,1.74,0,0,0,.69-.09,6.28,6.28,0,0,0,3.63-3.5,38.54,38.54,0,0,0,1.29-4.23q0-.14.55-3.4a23.37,23.37,0,0,0,0-6.07A20.24,20.24,0,0,0,499,71.3,9,9,0,0,0,498.43,69.6Z"/><path d="M521.49,87.26q0-1,.12-3t.12-3q0-1.06.16-3.11t.16-3q.28-4,.37-6.16.09-1.56.18-4.51a4.49,4.49,0,0,1,0-.78q.09-1.15,1.1-1.1l3.54.46a.64.64,0,0,1,.64.74,3,3,0,0,1,0,.87l-.14,2.94q0,1.1-.14,3.33t-.18,3.33q0,.78-.09,2.3t-.14,2.3q0,.78,0,2.3v2.3q0,.87-.09,3.54T527,91.08q0,.32-.07,2.07a5.77,5.77,0,0,0,.12,2.07.83.83,0,0,1-.78,1.15l-.67.09-.76.09-.64.09a5.64,5.64,0,0,1-2.67-.74,1.08,1.08,0,0,1-.51-.74q-.46-1.38-1.29-4.14-.18-.6-.74-2.48t-.83-2.9l-.48-1.93-.55-2.23q-.3-1.22-.48-1.91-1.29-5.06-2-7.59a21.27,21.27,0,0,0-.83-2.62q0,.46,0,1.4t-.09,1.45q0,.92-.11,2.53t-.12,2.92q0,1.31,0,2.51,0,2,.09,5.93.09,5.52.14,8.33a3.94,3.94,0,0,1-.09.74.65.65,0,0,1-.6.51l-.37,0-.39.07a1.75,1.75,0,0,1-.35,0,2.7,2.7,0,0,0-.6,0H510a1.42,1.42,0,0,1-.51,0,1.69,1.69,0,0,1-1.15-.48,1.92,1.92,0,0,1-.28-1.31q.09-4.23.09-6.35,0-.87,0-3.63t0-4.28q0-1,.23-6.16.09-2.71,0-5.38,0-1.56-.18-4.78a1.71,1.71,0,0,1,.16-1,1.29,1.29,0,0,1,.8-.44,5.44,5.44,0,0,1,3.27.18,4.71,4.71,0,0,1,1.38.69A2.53,2.53,0,0,1,514.5,64q.32,1.15.94,3.47t.9,3.52l.28.8q.23.67.32,1,.37,1.52,1.15,4.55t1.2,4.51q.32,1.29,1,3.66t.78,2.78a1.1,1.1,0,0,0,.23.37h.14Q521.49,88.23,521.49,87.26Z"/><path d="M169,140.78l.11-.48q.09-.37.69-3.08t1-4.14q.37-1.47,1.15-4.16l1-3.33q1-3,1.06-3.5.41-1.84,1.52-5.34.18-.78.83-.74a3,3,0,0,1,1.1.23q1,.55,2.94,1.75.41.23.32,1a.54.54,0,0,1,0,.16.49.49,0,0,1-.09.16,12.49,12.49,0,0,0-.69,1.56q-.32.87-.51,1.52l-.48,1.72q-.3,1.08-.44,1.63-.37,1.24-1.08,3.73t-1.08,3.73q-1.34,5.2-1.61,6.39l-1,5.57q-.55,3.86-.87,5.75a1.47,1.47,0,0,1-.46,1,.84.84,0,0,1-.87.12,9.23,9.23,0,0,1-3.45-2.21,2.07,2.07,0,0,1-.64-1.38q-.09-.92-.32-2.71t-.23-1.93q-.28-2.39-.41-3.63-.28-2.21-.37-3.36-.09-1.89-.87-6.9-.55-3.17-1.56-9.52-.09-.37-.25-1.08t-.21-1.08a1.75,1.75,0,0,1,.16-1.13.67.67,0,0,1,.76-.34.78.78,0,0,1,.64.64,18.85,18.85,0,0,1,.51,1.93q0,.37.55,3.91t.83,5.38q.09.46,1.66,10,.14.69.32,2.07l.18.6h.18A2.2,2.2,0,0,1,169,140.78Z"/><path d="M183,150.14a7.82,7.82,0,0,1,.28-1.33q.37-1.15.87-3.33t.74-3.06q.28-1.1.69-3.15t.51-2.55q1.2-5.43,1.52-6.62l.39-1.36.46-1.59.39-1.33,1.24-5.11a3.1,3.1,0,0,0,0-.87,1.17,1.17,0,0,1,.64-1.47q.28-.14.85-.37a6.37,6.37,0,0,0,.81-.37,6.84,6.84,0,0,1,2.12-.28,1,1,0,0,1,1.2.78,4,4,0,0,1,.23.87q.69,6.35.92,8.83.23,2.12.6,5.75,0,.23.07.48t0,.55c0,.2,0,.36,0,.48q.37,3.41.55,5.06.18,2.16.55,6.39a10.67,10.67,0,0,1,0,1.17v1.22a.89.89,0,0,1-.41.69,10,10,0,0,1-3.08,1.29.44.44,0,0,0-.32.14.83.83,0,0,1-.92,0,1,1,0,0,1-.55-1,64,64,0,0,0-.64-8.6q-.09-.55-.21-1.61t-.16-1.61a1.66,1.66,0,0,0-.23-.71q-.14-.16-.64-.11t-3.59.23a.88.88,0,0,0-.87.83q-.18,1-1.2,5.43-.18.65-.53,1.93t-.48,1.93a20.49,20.49,0,0,1-.78,2.76q-.46.41-.6.28c0-.06-.06-.09-.09-.09a.13.13,0,0,0,0,.09v0l-.28.14A3.1,3.1,0,0,1,183,150.14Zm4.78-13.94,1.29-.14q.41,0,1.22-.07l1.22,0q.46,0,.55-.11c.06-.08.06-.27,0-.58s-.14-1.07-.23-1.91-.15-1.48-.18-1.91q-.09-1-.3-3.06t-.34-3.06a1.62,1.62,0,0,0-.07-.39,1.61,1.61,0,0,1-.07-.34A55.59,55.59,0,0,0,187.79,136.21Z"/><path d="M207.85,130.73q-.14,8.65-.14,8.74,0,1.29-.37,7.36a5.59,5.59,0,0,0,0,.85,5.75,5.75,0,0,1,0,.85c0,.34.08.55.32.64l1,.14,3.73-.14a1.69,1.69,0,0,1,.55,0q.46,0,.55.64a3.11,3.11,0,0,1,0,1.29q-.11.18-1,.18c-.18,0-.44,0-.78,0s-.6,0-.78,0h-1.33l-2.53-.14q-.64,0-1.89.07l-1.89.11h-.23a1.51,1.51,0,0,1-1.38-2q.46-3.22.74-9.71.14-2.21.23-9.89,0-2.07.18-6.21v-3.86c0-.21,0-.54,0-1s0-.75,0-1a1.2,1.2,0,0,1,.87-1.33,4.66,4.66,0,0,1,4.19.83,1.13,1.13,0,0,1,.46,1.06V120h0Q207.94,127.19,207.85,130.73Z"/><path d="M222,149l2.62-.39,2.62-.39h.18q.92-.09,1.15.14t.14,1.15a.62.62,0,0,1-.46.74l-.28,0-.28,0a45.23,45.23,0,0,0-5.66.74,7,7,0,0,1-1.22.12,8.05,8.05,0,0,0-1,.07q-1.2,0-1.84,0a1.58,1.58,0,0,1-1.79-1.38,3.11,3.11,0,0,1-.09-1.52q.6-3.73.92-8.51,0-.87.11-2.58t.12-2.53.41-6.12q0-1.43.23-4.28.14-1.75.32-5.24a1.2,1.2,0,0,1,.41-.83,3.91,3.91,0,0,1,2-.78l2-.16,2.32-.16a6.79,6.79,0,0,1,.9,0q.57,0,1,0a4,4,0,0,0,.87-.18h.41a1.91,1.91,0,0,1,.81.21,1.54,1.54,0,0,1,.11.81,1.83,1.83,0,0,1-.14.94c-.09.11-.4.18-.92.21q-2.39.09-3.59.18a.91.91,0,0,0-.58.18,1.46,1.46,0,0,0-.16.69l-.55,6.62s0,.89-.14,2.58l-.14,2.9q0,.64.14.76t.74,0l2.67-.28a1,1,0,0,1,.64.07,1.46,1.46,0,0,1,.28.67,1.52,1.52,0,0,1,.09.37c0,.43-.14.66-.51.69s-1,.12-1.75.18-1.58.12-2,.18-.51.32-.51.78-.06,1-.09,1.7,0,1.3,0,1.7q-.46,5.84-.64,6.81-.09.55-.21,1.7t-.16,1.38A1.25,1.25,0,0,0,222,149Z"/><path d="M245.52,142.46q0-1,.11-3t.12-3q0-1.06.16-3.1t.16-3q.28-4,.37-6.16.09-1.56.18-4.51a4.53,4.53,0,0,1,0-.78q.09-1.15,1.1-1.1l3.54.46a.64.64,0,0,1,.64.74,3,3,0,0,1,0,.87q0,1-.14,2.94l-.14,3.33q-.09,2.23-.18,3.34,0,.78-.09,2.3t-.14,2.3q0,.78,0,2.3v2.3q0,.87-.09,3.54t-.09,4.14q0,.32-.07,2.07a5.77,5.77,0,0,0,.12,2.07.83.83,0,0,1-.78,1.15l-.67.09-.76.09-.64.09a5.63,5.63,0,0,1-2.67-.74,1.09,1.09,0,0,1-.51-.74q-.46-1.38-1.29-4.14-.18-.6-.74-2.48t-.83-2.9l-.48-1.93-.55-2.23q-.3-1.22-.48-1.91-1.29-5.06-2-7.59a21.08,21.08,0,0,0-.83-2.62q0,.46,0,1.4t-.09,1.45q0,.92-.11,2.53t-.12,2.92q0,1.31,0,2.51,0,2,.09,5.93.09,5.52.14,8.33a4,4,0,0,1-.09.74.65.65,0,0,1-.6.51l-.37,0-.39.07a1.67,1.67,0,0,1-.35,0,2.77,2.77,0,0,0-.6,0h-1.2a1.42,1.42,0,0,1-.51,0,1.68,1.68,0,0,1-1.15-.48,1.92,1.92,0,0,1-.28-1.31q.09-4.23.09-6.35,0-.87,0-3.63t0-4.28q0-1,.23-6.16.09-2.71,0-5.38,0-1.56-.18-4.78a1.71,1.71,0,0,1,.16-1,1.3,1.3,0,0,1,.81-.44,5.44,5.44,0,0,1,3.27.18,4.72,4.72,0,0,1,1.38.69,2.53,2.53,0,0,1,.69,1.15q.32,1.15.94,3.47t.9,3.52l.28.81c.15.44.26.79.32,1q.37,1.52,1.15,4.55t1.2,4.51q.32,1.29,1,3.66t.78,2.78a1.07,1.07,0,0,0,.23.37h.14Q245.52,143.43,245.52,142.46Z"/><path d="M260.1,123.51q0-1.06,0-1.61v-.64a1.47,1.47,0,0,0-.21-.78.82.82,0,0,0-.62-.18h-3a7,7,0,0,1-.92,0,.73.73,0,0,1-.53-.44,1.26,1.26,0,0,1-.16-.76.73.73,0,0,1,.78-.74c.34,0,.82,0,1.45,0l1.73.07,1.47,0a13.49,13.49,0,0,0,3.08-.23,23.38,23.38,0,0,1,5.38-.46q.83,0,2.35-.09t2-.09a1.19,1.19,0,0,1,1.2,1.06q.14.55-.28.69l-.23,0-.23,0-6.26.14h-.37q-.69,0-.85.28a2.1,2.1,0,0,0-.07,1.15,6,6,0,0,1,0,.87q-.09,1.84-.18,2.76t-.23,2.67q0,.51-.14,1.43t-.16,1.66q-.07.74-.11,1.43-.37,5.29-.51,7.68-.23,3.13-.46,5.61t-.23,3.36q0,.23,0,.74t0,.78a1,1,0,0,1-.55.87,6.49,6.49,0,0,1-1.54.37q-1,.14-1.36.23a2.33,2.33,0,0,1-1.1-.14q-.87-.28-.78-1.52.09-1.06.41-4.16t.46-5.22q.23-2.85.51-8.74l.14-2.78.14-2.78v-1h0Q260.06,124.57,260.1,123.51Z"/><path d="M283.38,121.53a43.69,43.69,0,0,0-.46,6.53l-.14,7.87v5.15q0,1-.09,2.88t-.09,2.88q0,.46,0,1.38t0,1.38a1.15,1.15,0,0,1-.11.64,1.6,1.6,0,0,1-.53.32,8.18,8.18,0,0,1-2.16.55q-.6,0-1.75,0a.49.49,0,0,1-.46-.23A3.53,3.53,0,0,1,277,149q0-.32.07-1c0-.43,0-.75,0-1q0-1.15.18-13.66,0-4.14.28-8.37,0-.83.18-2.55t.18-2.6q0-.6,0-1.79a1.17,1.17,0,0,1,.87-1.29,2.89,2.89,0,0,1,1.56-.18,5.72,5.72,0,0,1,2.25.69,1.86,1.86,0,0,1,.85.62,3,3,0,0,1,.16,1.22Q283.52,120.75,283.38,121.53Z"/><path d="M299.85,142.46q0-1,.12-3t.12-3q0-1.06.16-3.1t.16-3q.28-4,.37-6.16.09-1.56.18-4.51a4.48,4.48,0,0,1,0-.78q.09-1.15,1.1-1.1l3.54.46a.64.64,0,0,1,.64.74,3,3,0,0,1,0,.87q0,1-.14,2.94l-.14,3.33q-.09,2.23-.18,3.34,0,.78-.09,2.3t-.14,2.3q0,.78,0,2.3v2.3q0,.87-.09,3.54t-.09,4.14q0,.32-.07,2.07a5.77,5.77,0,0,0,.12,2.07.83.83,0,0,1-.78,1.15l-.67.09-.76.09-.64.09a5.63,5.63,0,0,1-2.67-.74,1.09,1.09,0,0,1-.51-.74q-.46-1.38-1.29-4.14-.18-.6-.74-2.48t-.83-2.9l-.48-1.93-.55-2.23q-.3-1.22-.48-1.91-1.29-5.06-2-7.59a21.16,21.16,0,0,0-.83-2.62q0,.46,0,1.4t-.09,1.45q0,.92-.11,2.53t-.12,2.92q0,1.31,0,2.51,0,2,.09,5.93.09,5.52.14,8.33a3.94,3.94,0,0,1-.09.74.65.65,0,0,1-.6.51l-.37,0-.39.07a1.67,1.67,0,0,1-.35,0,2.77,2.77,0,0,0-.6,0h-1.2a1.42,1.42,0,0,1-.51,0,1.68,1.68,0,0,1-1.15-.48,1.92,1.92,0,0,1-.28-1.31q.09-4.23.09-6.35,0-.87,0-3.63t0-4.28q0-1,.23-6.16.09-2.71,0-5.38,0-1.56-.18-4.78a1.71,1.71,0,0,1,.16-1,1.3,1.3,0,0,1,.81-.44,5.44,5.44,0,0,1,3.27.18,4.73,4.73,0,0,1,1.38.69,2.53,2.53,0,0,1,.69,1.15q.32,1.15.94,3.47t.9,3.52l.28.81c.15.44.26.79.32,1q.37,1.52,1.15,4.55t1.2,4.51q.32,1.29,1,3.66t.78,2.78a1.08,1.08,0,0,0,.23.37h.14Q299.84,143.43,299.85,142.46Z"/><path d="M314.84,149l2.62-.39,2.62-.39h.18q.92-.09,1.15.14t.14,1.15a.62.62,0,0,1-.46.74l-.28,0-.28,0a45.24,45.24,0,0,0-5.66.74,7,7,0,0,1-1.22.12,8,8,0,0,0-1,.07q-1.2,0-1.84,0a1.58,1.58,0,0,1-1.79-1.38,3.1,3.1,0,0,1-.09-1.52q.6-3.73.92-8.51,0-.87.11-2.58t.12-2.53.41-6.12q0-1.43.23-4.28.14-1.75.32-5.24a1.2,1.2,0,0,1,.41-.83,3.92,3.92,0,0,1,2-.78l2-.16,2.32-.16a6.8,6.8,0,0,1,.9,0c.38,0,.73,0,1,0a4,4,0,0,0,.87-.18h.41a1.91,1.91,0,0,1,.8.21,1.54,1.54,0,0,1,.12.81,1.83,1.83,0,0,1-.14.94c-.09.11-.4.18-.92.21q-2.39.09-3.59.18a.91.91,0,0,0-.58.18,1.47,1.47,0,0,0-.16.69l-.55,6.62s0,.89-.14,2.58l-.14,2.9q0,.64.14.76t.74,0l2.67-.28a1,1,0,0,1,.64.07,1.46,1.46,0,0,1,.28.67,1.54,1.54,0,0,1,.09.37q0,.64-.51.69t-1.75.18q-1.38.09-2,.18t-.51.78q0,.6-.09,1.7c0,.74,0,1.3,0,1.7q-.46,5.84-.64,6.81-.09.55-.21,1.7t-.16,1.38A1.25,1.25,0,0,0,314.84,149Z"/><path d="M325.28,115.18q-.14-3.13,1.15-3.13.46,0,.67.67a20.77,20.77,0,0,1,.18,5,4.78,4.78,0,0,1-.34,1.4,3.21,3.21,0,0,1-.53.8.73.73,0,0,1-.58.3,2.32,2.32,0,0,1-.55-.11.76.76,0,0,1-.32-.58,2.68,2.68,0,0,1,.07-.9,12.58,12.58,0,0,0,.21-1.47A14.13,14.13,0,0,0,325.28,115.18Z"/><path d="M347.91,134.55a6.16,6.16,0,0,1,.14,1,8,8,0,0,0,.09.87,30.87,30.87,0,0,1-1.29,7.31,9.78,9.78,0,0,1-.46,1.13,8.78,8.78,0,0,1-.48.9l-.67,1q-.46.69-.6.87a12.81,12.81,0,0,1-3.63,3.63l-.09,0a4.34,4.34,0,0,1-1,.48,9.46,9.46,0,0,1-1.77.34,6.81,6.81,0,0,1-2.74-.34,11.76,11.76,0,0,1-3.24-1.63,9.3,9.3,0,0,1-1.47-3.06,12.91,12.91,0,0,1-.55-2.87v-1.15l.14-.69a12.68,12.68,0,0,1,.46-1.56q.28-.69,1-.28.32.14.32.37l0,.18q0,.14-.14.48a5.41,5.41,0,0,0-.14.67,5.33,5.33,0,0,0-.14,2.48,5.15,5.15,0,0,0,4.65,5.06,3.48,3.48,0,0,0,2.9-.58,4.73,4.73,0,0,0,1.61-2.58,18.47,18.47,0,0,0,.6-3.24,22.44,22.44,0,0,0,0-3.22,13.51,13.51,0,0,0-.18-2.3l-.14-.69q-.87-3.73-3.73-4.51l-2.07-.55a4.52,4.52,0,0,1-2.85-4.37,10.76,10.76,0,0,1,.74-3.5,12.41,12.41,0,0,1,1.61-3.13,7.49,7.49,0,0,1,4.32-2.94,23.59,23.59,0,0,1,2.9-.55,5.37,5.37,0,0,1,3.27,1,5.81,5.81,0,0,1,1.61,1.33,2,2,0,0,1,.23.41c.06.31.06.49,0,.55a.45.45,0,0,1-.41.23,1.56,1.56,0,0,1-.6-.41,8.19,8.19,0,0,0-2.25-1.43,3.91,3.91,0,0,0-3.08,0,10.36,10.36,0,0,0-2.76,1.24,6.87,6.87,0,0,0-2.76,3.4,10.89,10.89,0,0,0-1,2.94,2.53,2.53,0,0,0-.09.51,1.73,1.73,0,0,0,.25,1.22,1,1,0,0,0,.94.25,25,25,0,0,1,3.31-.14q.46,0,1.59-.09a11.78,11.78,0,0,1,1.73,0,5.51,5.51,0,0,1,4.19,2.25A8.21,8.21,0,0,1,347.91,134.55Z"/><path d="M363.65,120.52l-.64.09a.92.92,0,0,1-.6-.18.6.6,0,0,1-.41-.51c0-.09.14-.28.41-.55a5.54,5.54,0,0,1,1-.46,8.87,8.87,0,0,0,1.66-.87,2.83,2.83,0,0,1,1.75-.55,51.49,51.49,0,0,1,6.67.14,4.36,4.36,0,0,1,2.25,1q.28.23.92.67c.43.29.74.51.92.67a6,6,0,0,1,1.43,2.35,11,11,0,0,1,.51,5.89,16,16,0,0,1-1.52,4.74q-.51.92-2.35,5.52a36.15,36.15,0,0,1-2.62,5.34l-2.9,4.74q-.78,1.29-1.89,2.9a.59.59,0,0,1-.6.37,2.84,2.84,0,0,0-.44-.09l-.46-.07a.84.84,0,0,1-.37-.18.94.94,0,0,1-.3-.39l-.41-.18-.67,0a5.1,5.1,0,0,1-.67-.07q-1.2-.09-1.06-1.43,0-.69.16-2t.16-2q0-.6.09-1.63t.09-1.91q0-.87.09-1.66.09-1.1.23-3.31t.23-3.31q.18-3.5.23-5.52,0-2.35,0-7a3.51,3.51,0,0,0,0-.64Q364.2,120.43,363.65,120.52Zm5.7,25,.23-.28q.55-1,.83-1.47a46.62,46.62,0,0,0,3.73-7.54q.18-.55,2.21-5a12.38,12.38,0,0,0,1.29-6.49q-.14-3.63-3.91-5.24a9.63,9.63,0,0,0-2.62-.32c-.37,0-.61,0-.71.14a1.39,1.39,0,0,0-.16.83q-.09,2.07-.18,6.3,0,.83,0,2.44t-.09,2.44q0,1.06-.23,3.22t-.23,3.27q-.28,4.88-.41,7.27a2.52,2.52,0,0,0,0,.78C369.14,145.77,369.23,145.65,369.35,145.5Z"/><path d="M382.32,150.14a7.86,7.86,0,0,1,.28-1.33q.37-1.15.87-3.33t.74-3.06q.28-1.1.69-3.15t.51-2.55q1.2-5.43,1.52-6.62l.39-1.36.46-1.59.39-1.33,1.24-5.11a3.08,3.08,0,0,0,0-.87,1.17,1.17,0,0,1,.64-1.47q.28-.14.85-.37a6.38,6.38,0,0,0,.81-.37,6.84,6.84,0,0,1,2.12-.28,1,1,0,0,1,1.2.78,4,4,0,0,1,.23.87q.69,6.35.92,8.83.23,2.12.6,5.75c0,.15.05.31.07.48s0,.35,0,.55,0,.36,0,.48q.37,3.41.55,5.06.18,2.16.55,6.39a10.67,10.67,0,0,1,0,1.17v1.22a.89.89,0,0,1-.41.69,10,10,0,0,1-3.08,1.29.44.44,0,0,0-.32.14.83.83,0,0,1-.92,0,1,1,0,0,1-.55-1,63.92,63.92,0,0,0-.64-8.6q-.09-.55-.21-1.61t-.16-1.61a1.67,1.67,0,0,0-.23-.71q-.14-.16-.64-.11t-3.59.23a.88.88,0,0,0-.87.83q-.18,1-1.2,5.43-.18.65-.53,1.93t-.48,1.93a20.67,20.67,0,0,1-.78,2.76q-.46.41-.6.28c0-.06-.06-.09-.09-.09a.13.13,0,0,0,0,.09v0l-.28.14A3.11,3.11,0,0,1,382.32,150.14Zm4.78-13.94,1.29-.14q.41,0,1.22-.07l1.22,0c.31,0,.49,0,.55-.11s.06-.27,0-.58-.14-1.07-.23-1.91-.15-1.48-.18-1.91q-.09-1-.3-3.06t-.34-3.06a1.62,1.62,0,0,0-.07-.39,1.62,1.62,0,0,1-.07-.34A55.59,55.59,0,0,0,387.11,136.21Z"/><path d="M407.46,130.92q.3-1.06.44-1.61.41-1.79,1.13-5.13t1-4.71q.37-1.75.55-2.67a1.32,1.32,0,0,1,1-1.2,3.54,3.54,0,0,1,3,.74,2.59,2.59,0,0,1,.46.32l.37.32a1.81,1.81,0,0,1,.64,2.07q-1.61,6.17-2.21,9-.23,1.15-.55,2.42t-.74,2.81q-.41,1.54-.64,2.37-.51,2.07-2,8.19-.18.83-.53,2.51t-.53,2.51l-.69,2.81c-.12.31-.25.46-.37.46a3.92,3.92,0,0,1-1.33.18,22.8,22.8,0,0,1-2.94-.51q-.37-.09-.62-.8a2.19,2.19,0,0,1-.12-1.27l1.52-6.35q.51-2.07,1.52-6.3a4.44,4.44,0,0,0,0-1.79L404.63,131q-.28-1.06-.83-3.08T403,124.8a.62.62,0,0,0,0-.14.61.61,0,0,1,0-.14q-.28-.73-.85-2.21t-.85-2.21q-.23-.6-.37-1.06a1.21,1.21,0,0,1,.46-1.43q.55-.41,1.06.32a3.14,3.14,0,0,1,.55,1q.41,1.24,1.33,3.73a21.89,21.89,0,0,1,.76,2.42q.44,1.63.48,1.77.46,1.66,1.38,4.88a2.07,2.07,0,0,0,.23.41Q407.16,132,407.46,130.92Z"/></svg>