<svg id="Layer_1" data-name="Layer 1" xmlns="http://www.w3.org/2000/svg" viewBox="0 0 579.27 157.6"><title>6</title><path d="M32.59,32a5.57,5.57,0,0,1,.23-.57,27.9,27.9,0,0,0,1.61-5.2q.37-1.47.8-3.13t1-3.68q.55-2,.83-3.13c0-.12.07-.31.12-.57s.08-.45.11-.58a2.27,2.27,0,0,1,.51-.83q.6-.64,1.1.09a3,3,0,0,1,.6,2,27.89,27.89,0,0,0,.74,4.6q.83,3.41,1.2,5.11l1,5.38c0,.09.08.29.14.58s.12.54.18.76A5.9,5.9,0,0,0,43.26,31q.46-3.22.64-4.83.74-5.61,1-8.42.37-3.31.92-9.94.09-.73.18-2,.09-1,.74-1a2.41,2.41,0,0,1,.55,0,8.59,8.59,0,0,0,2.3.18,5.3,5.3,0,0,1,1.66.51q.55.23.41,1.15Q51.27,9,50.76,15q-.14,1.52-1.33,11.22-.14.92-.34,2.71t-.3,2.62q-.14,1-.46,2.94t-.46,2.95L47.72,39q-.14,1.47-1.29,1.61l-.51,0a2,2,0,0,1-.6,0,6.45,6.45,0,0,1-1.56-.14Q42,40,41.51,37.44q-.32-1.56-.87-4.67t-.83-4.62q-.74-4.23-1.15-6.3A6.69,6.69,0,0,0,38,20.19l-.28.94-.28.94q-1.52,6-1.66,6.44Q35.4,30,34.38,33T33.1,36.89A.13.13,0,0,1,33,37v.09a2.11,2.11,0,0,1-.11.67q-.12.35-.18.51a3.18,3.18,0,0,1-.37.55l-.34.44a3.18,3.18,0,0,1-.41.37l-1,.53q-.83.44-1.24.71t-1-.23A5.93,5.93,0,0,1,27.3,37.9q-.23-2.39-1.7-9.62Q24,20.47,23.3,16.51q-.18-1.06-.51-3.22t-.51-3.22a2.63,2.63,0,0,1,1.06-2.76,4.22,4.22,0,0,1,3.59-.64,1.33,1.33,0,0,1,1,1.24Q28,9.11,28,9.66q.78,7.22,1.43,10.12,1.33,6.07,2.16,10,.23.87.6,2.71a.27.27,0,0,1,.18,0C32.44,32.45,32.5,32.25,32.59,32Z"/><path d="M55,30.13q-.46-4-.51-4.65a25.36,25.36,0,0,1,1.38-10.63,16.19,16.19,0,0,1,2.25-4.37l.67-.71L59.5,9a2.66,2.66,0,0,0,.74-1,.56.56,0,0,1,.37-.41l.83-.16a7.77,7.77,0,0,0,.83-.21,2.43,2.43,0,0,1,1.08-.07l1.06.12q.3,0,1.06.23t1.08.23a4.43,4.43,0,0,1,3.17,2.48,41.94,41.94,0,0,1,3,8.1,26.32,26.32,0,0,1,.41,9.57q-.46,3.31-.6,4a13.35,13.35,0,0,1-.69,2.44q-.74,2.12-1.15,3.13A5.71,5.71,0,0,1,68.38,40l-1.2.64q-.78.41-1.15.64a1.09,1.09,0,0,1-.6.18l-1.31,0c-.78,0-1.22,0-1.31-.14a5.8,5.8,0,0,0-1.93-.32,3.63,3.63,0,0,1-3.27-2.3q-.32-.69-1.52-3.5A36.79,36.79,0,0,1,55,30.13ZM66.52,14.4q-.39-.87-.92-1.93t-.8-1.66a1,1,0,0,0-.64-.64,7.06,7.06,0,0,0-1.79-.55,1.39,1.39,0,0,0-1,.23,6.74,6.74,0,0,0-2.48,2.85,21.29,21.29,0,0,0-2.12,6.85,31.61,31.61,0,0,0-.28,5.57q.32,3.54,1.06,7.41a26.93,26.93,0,0,0,1.7,5.11q.55,1.15,1.43,1.1h1.43a1.74,1.74,0,0,0,.69-.09,6.28,6.28,0,0,0,3.63-3.5,38.65,38.65,0,0,0,1.29-4.23q0-.14.55-3.4a23.37,23.37,0,0,0,0-6.07,20.22,20.22,0,0,0-1.2-5.34A9,9,0,0,0,66.52,14.4Z"/><path d="M91.65,15.5l-.28,1.13-.28,1.13q-.28.92-.74,2.85t-.74,2.85a38,38,0,0,1-1.29,4.65,7.31,7.31,0,0,1-.92,1.56,1.23,1.23,0,0,1-1.33.37c-.4-.12-.63-.47-.69-1.06q-.23-1.75-.9-4.83T83.65,20q-.23-1.29-1.43-6.07,0-.18-.28-.83a4,4,0,0,0-.28,1.66q-.18,5.06-.18,7.54V27q.09,2,.09,3,0,3.08-.09,9.15a2.61,2.61,0,0,1-.09.6.61.61,0,0,1-.55.6,13.08,13.08,0,0,1-3.63,0,1,1,0,0,1-1-1.1q0-.55,0-1.66c0-.06,0-.16,0-.3a3.25,3.25,0,0,0,0-.34q0-4,.14-12,0-3.63,0-5.47a76.24,76.24,0,0,1,1-11.27,1.78,1.78,0,0,1,.25-.76.87.87,0,0,1,.62-.25h.64a3.51,3.51,0,0,0,.64,0l.44,0a5.08,5.08,0,0,0,.58-.09,1,1,0,0,1,1.2.37,9.1,9.1,0,0,1,1.33,2.62,64.33,64.33,0,0,1,1.75,6.3q.69,3.41,1.75,8.46,0,.09.32,1.33l.28-.6.55-2.37.55-2.37.55-2.09q.37-1.4.55-2.14.23-.92.74-3.5.28-1.2.46-1.79.55-2.12.87-3.17a1.55,1.55,0,0,1,.46-.78,4.89,4.89,0,0,1,3.5-1.29,6,6,0,0,1,2.07.55q.83.28.69,1.56Q98,9.84,98,10.67q-.23,2.58-.46,11.78,0,1.79-.37,10.17l-.14,6a3.2,3.2,0,0,1-.11.83c0,.09-.25.2-.62.32l-.28.14a3.52,3.52,0,0,1-1,.48,7.78,7.78,0,0,1-1.27.25,7.52,7.52,0,0,0-1.06.18.55.55,0,0,1-.6-.28,1.8,1.8,0,0,1-.6-1.56q0-2.3.23-6.58v-.18q.28-7.77.28-8,0-2.07,0-6.26.09-2.21.14-3.27v-.87h-.09Q91.93,14.4,91.65,15.5Z"/><path d="M106.74,38.64l2.62-.39,2.62-.39h.18c.61-.06,1,0,1.15.14s.2.54.14,1.15a.62.62,0,0,1-.46.74l-.28,0-.28,0a45.16,45.16,0,0,0-5.66.74,7.17,7.17,0,0,1-1.22.12,7.75,7.75,0,0,0-1,.07q-1.2,0-1.84,0a1.58,1.58,0,0,1-1.79-1.38,3.11,3.11,0,0,1-.09-1.52q.6-3.73.92-8.51,0-.87.11-2.58t.12-2.53.41-6.12q0-1.43.23-4.28.14-1.75.32-5.24a1.19,1.19,0,0,1,.41-.83,3.92,3.92,0,0,1,2-.78l2-.16,2.32-.16a6.79,6.79,0,0,1,.9,0,10.29,10.29,0,0,0,1,0,4,4,0,0,0,.87-.18h.41a1.91,1.91,0,0,1,.81.21,1.54,1.54,0,0,1,.11.8,1.84,1.84,0,0,1-.14.94c-.09.11-.4.18-.92.21q-2.39.09-3.59.18a.92.92,0,0,0-.58.18,1.46,1.46,0,0,0-.16.69l-.55,6.62s0,.89-.14,2.58l-.14,2.9q0,.64.14.76t.74,0l2.67-.28a1,1,0,0,1,.64.07,1.46,1.46,0,0,1,.28.67,1.53,1.53,0,0,1,.09.37c0,.43-.14.66-.51.69s-1,.12-1.75.18-1.58.12-2,.18-.51.32-.51.78-.06,1-.09,1.7,0,1.3,0,1.7q-.46,5.84-.64,6.81c-.06.37-.13.94-.21,1.7s-.13,1.23-.16,1.38A1.27,1.27,0,0,0,106.74,38.64Z"/><path d="M130.25,32.06q0-1,.11-3t.12-3q0-1.06.16-3.11t.16-3q.28-4,.37-6.16.09-1.56.18-4.51a4.53,4.53,0,0,1,0-.78q.09-1.15,1.1-1.1l3.54.46a.64.64,0,0,1,.64.74,3,3,0,0,1,0,.87q0,1-.14,2.94l-.14,3.33q-.09,2.23-.18,3.34,0,.78-.09,2.3T136,23.6q0,.78,0,2.3v2.3q0,.87-.09,3.54t-.09,4.14c0,.21,0,.91-.07,2.07a5.77,5.77,0,0,0,.12,2.07.83.83,0,0,1-.78,1.15l-.67.09-.76.09-.64.09a5.62,5.62,0,0,1-2.67-.74,1.08,1.08,0,0,1-.51-.74q-.46-1.38-1.29-4.14-.18-.6-.74-2.48t-.83-2.9l-.48-1.93-.55-2.23q-.3-1.22-.48-1.91-1.29-5.06-2-7.59a21.16,21.16,0,0,0-.83-2.62q0,.46,0,1.4T122.43,17q0,.92-.11,2.53t-.12,2.92q0,1.31,0,2.51,0,2,.09,5.93.09,5.52.14,8.33a4,4,0,0,1-.09.74.65.65,0,0,1-.6.51l-.37,0-.39.07a1.73,1.73,0,0,1-.35,0,2.69,2.69,0,0,0-.6,0h-1.2a1.46,1.46,0,0,1-.51,0,1.68,1.68,0,0,1-1.15-.48,1.92,1.92,0,0,1-.28-1.31q.09-4.23.09-6.35,0-.87,0-3.63t0-4.28q0-1,.23-6.16.09-2.71,0-5.38,0-1.56-.18-4.78a1.71,1.71,0,0,1,.16-1,1.29,1.29,0,0,1,.81-.44,5.43,5.43,0,0,1,3.27.18,4.67,4.67,0,0,1,1.38.69,2.52,2.52,0,0,1,.69,1.15q.32,1.15.94,3.47t.9,3.52l.28.8q.23.67.32,1,.37,1.52,1.15,4.55t1.2,4.51q.32,1.29,1,3.66t.78,2.78a1.07,1.07,0,0,0,.23.37h.14Q130.25,33,130.25,32.06Z"/><path d="M166.45,17.8A17.92,17.92,0,0,1,163.78,22a14.42,14.42,0,0,1-1.08,1.15q-.62.6-1,.9t-1.24,1l-1.08.83q-.51.46-1.29,1.06a1.2,1.2,0,0,0-.41,1q-.23,3-.23,3.59,0,.87,0,2.62t0,2.62q0,1.15-.09,3.27a.58.58,0,0,1-.32.6,3.33,3.33,0,0,1-.83.32l-1.17.25-1.13.25-.18,0-.18,0h-.58l-.18,0a.29.29,0,0,1-.21-.09.8.8,0,0,0-.16-.16.65.65,0,0,1-.18-.25l-.16-.39a3.66,3.66,0,0,1-.32-2.07q0-.73.07-2.09c0-.9,0-1.5,0-1.77q0-2.21,0-3.36l.41-6.07q.23-3.31.28-6.53V16.79q0-.92.07-2.76t.11-2.76V9.89a.67.67,0,0,0-.51-.74L151.77,9a.68.68,0,0,1-.35-.6.59.59,0,0,1,.3-.6,3.12,3.12,0,0,1,.55-.23,17.75,17.75,0,0,1,4.6-.87q2.25-.09,2.9,0a6.35,6.35,0,0,1,2.9.74,3.23,3.23,0,0,0,.46.23,4.3,4.3,0,0,1,2.94,2.21q.14.28.6,1.47a11.73,11.73,0,0,1,.64,2.94A8.59,8.59,0,0,1,166.45,17.8Zm-7.64,5.8A21,21,0,0,0,162,20.52a15,15,0,0,0,3.13-5.8,4.54,4.54,0,0,0,0-2.71,11.28,11.28,0,0,0-.37-1.1,2.12,2.12,0,0,0-1.06-1.29q-2-.87-2.3-1t-2.16-.32a.55.55,0,0,0-.51.11,1,1,0,0,0-.14.62v.69q-.09,1.2-.25,3.56t-.21,3.52q-.14,2.3-.23,6.81v.12a.24.24,0,0,0,0,.11.8.8,0,0,1,0,.14.77.77,0,0,1,0,.18A8.68,8.68,0,0,0,158.81,23.6Z"/><path d="M170.22,17.94q.14-3.45.51-9.84,0-1,.69-1a1,1,0,0,1,.71.41,1.17,1.17,0,0,1,.25.87L172.24,10q-.09,1.08-.14,1.63a5.6,5.6,0,0,0-.09.87q-.09,10.35-.09,12.42t.28,6.62q0,.32.37,1.7a9.81,9.81,0,0,0,.32,1.2,7.68,7.68,0,0,0,.32,1.06q.46,1,1.29.78A5.2,5.2,0,0,0,178.27,32l.12-.46c0-.18.08-.36.11-.53a2.73,2.73,0,0,0,0-.48q.55-3.77.78-5.7.55-5.75.64-7.13.23-3.17.32-7.22a10.66,10.66,0,0,0-.09-1.7,2.15,2.15,0,0,1,1.2-2.35,1.66,1.66,0,0,1,1.43-.09,4.54,4.54,0,0,0,.92.18,2.74,2.74,0,0,1,1.06.32,2.69,2.69,0,0,1,1.43,2.76q-.14,2.94-.51,9.34-.46,5.89-.74,9.2a40.56,40.56,0,0,1-.64,4.42q0,.32-1.1,3.54l-.39.87a6.67,6.67,0,0,0-.35.87A8.55,8.55,0,0,1,180,40.94a5.64,5.64,0,0,1-4.65,1.38,3.29,3.29,0,0,1-1.93-1q-1.93-1.89-2.76-6.12,0-.41-.18-2.53-.09-1.66-.23-4.88t-.18-4.87h.09Q170.17,18.77,170.22,17.94Z"/><path d="M196.3,25a4.31,4.31,0,0,0-.64.48,1.26,1.26,0,0,0-.32.6,12.14,12.14,0,0,0-.09,1.24q-.18,3.27-.46,9.8l-.14,2.76a1,1,0,0,1-.6.87,9.84,9.84,0,0,1-1.08.41q-.58.18-1.31.35l-1.1.25a.88.88,0,0,1-.57,0,1.39,1.39,0,0,1-.39-.55,2,2,0,0,0-.32-.51,1.85,1.85,0,0,1-.28-1.33l.41-5.24q.37-5.06.51-7.59.14-1.56.32-4.69.37-3.82.51-6,0-.92,0-2.76c0-.18,0-.56,0-1.13s0-1,.07-1.31a1.23,1.23,0,0,0-.37-1.06.66.66,0,0,1-.37-.78.78.78,0,0,1,.64-.64q.46-.09,1.27-.3l1.47-.37,1.26-.3a24.93,24.93,0,0,1,4.69-.46,6.83,6.83,0,0,1,3,.78A3.92,3.92,0,0,1,204,9.29a7.63,7.63,0,0,1,.51,5.71,10.42,10.42,0,0,1-2.44,4.46q-.37.41-1,1.22t-.74.94a9.36,9.36,0,0,1-.64.69,1.3,1.3,0,0,0-.46,1.33l.48,2.23q.39,1.82.62,2.83t2.07,8.65c.06.18.18.55.35,1.1s.28,1,.34,1.29a1.7,1.7,0,0,1-.16,1.31,1.29,1.29,0,0,1-.94.71.29.29,0,0,1-.37-.09,2.47,2.47,0,0,1-.92-1.38q-.28-1.66-.67-3.45t-.92-4q-.53-2.23-.76-3.38-.18-.83-.6-2.32t-.55-2l-.28-.6A4.32,4.32,0,0,1,196.3,25Zm-.6-2.37.6-.41a5.34,5.34,0,0,0,.69-.55,33,33,0,0,0,4.37-5,9.39,9.39,0,0,0,1.52-5.06Q203,9,200.67,8.69q-.69,0-4,0a2.19,2.19,0,0,0-.55.23,4,4,0,0,1,.35,1,8.64,8.64,0,0,1-.07,1.2.63.63,0,0,0,0,.28v.28q-.37,4.6-.51,6.85-.14,1.29-.32,3.86A.75.75,0,0,1,195.7,22.59Z"/><path d="M207,28.57a65.17,65.17,0,0,1,1.47-11.45,17.25,17.25,0,0,1,1.7-5.06,24.78,24.78,0,0,1,1.93-3.31,5.24,5.24,0,0,1,3.31-2.12,2.1,2.1,0,0,1,1.43.09.19.19,0,0,1,.12.07l.14.16.12.14-.12.14-.14.16a.19.19,0,0,1-.12.07l-.6.12-.6.12a4.45,4.45,0,0,0-2.48,2,10,10,0,0,0-.69,1.22q-.32.67-.69,1.59c-.25.62-.43,1.06-.55,1.33a9.23,9.23,0,0,0-.87,2.85q-.41,2.71-1,7.36,0,.09-.28,2.44a18.22,18.22,0,0,0,.23,4,6.94,6.94,0,0,0,1.84,3.45,2.71,2.71,0,0,0,2.3.74,6.25,6.25,0,0,0,2-.69,7.27,7.27,0,0,0,1.61-1.33,43,43,0,0,0,4.46-7l.28-.55q.32-.73,1-.46a.84.84,0,0,1,.23.09,1.54,1.54,0,0,1,.78.55,2.3,2.3,0,0,1,0,1.1,12.26,12.26,0,0,1-1.52,4.69q-2,3.4-2.71,4.55a12.47,12.47,0,0,1-5,4.51,3.94,3.94,0,0,1-4.6-.64,6.71,6.71,0,0,1-2-2.81.82.82,0,0,0-.23-.37,2.27,2.27,0,0,1-.46-1.29q-.09-.83-.18-1.24v0Q207,31.79,207,28.57Z"/><path d="M237.2,30.24q.09-3.2.14-4.76a1.29,1.29,0,0,0-.11-.67c-.08-.11-.25-.16-.53-.16a22.5,22.5,0,0,1-3-.18q-.78-.14-.83.64-.41,5.7-.51,7,0,.74-.18,2.21T232,36.57a6.82,6.82,0,0,0,0,1.29l0,1.29a1.48,1.48,0,0,1-.11.55,1.33,1.33,0,0,1-.53.23,30.5,30.5,0,0,1-3.59.55,1.43,1.43,0,0,1-1.13-.41,1.33,1.33,0,0,1-.44-1.1q.28-5.79.28-5.89.46-6.72.64-9.75l.41-5.38q.09-.83.23-2.39c.09-1,.15-1.84.18-2.39q0-.51.18-1.5t.18-1.45q.09-1.47.09-2.25a1.11,1.11,0,0,1,.87-1.1,6.53,6.53,0,0,1,3.54.18l.32.09a2.08,2.08,0,0,1,1,.6,2.41,2.41,0,0,1,.11,1.15q0,.78-.21,2.23t-.21,1.68q-.09,1.15-.3,3.38t-.3,3.24q0,.55-.18,2.58a1,1,0,0,0,.07.62.94.94,0,0,0,.58.25,21.17,21.17,0,0,0,3.08.14q.64,0,.69-.55a21.72,21.72,0,0,0,.14-2.39q0-1.24.16-3.7t.16-3.7q0-.78,0-2.28t0-2.28a1.82,1.82,0,0,1,0-.51.6.6,0,0,1,.44-.58.73.73,0,0,1,.71.16,2.69,2.69,0,0,1,1.06,2.16q-.09,1.24-.12,3.47T240,15.92l-.28,5.52c0,.18,0,.46,0,.83s0,.64,0,.83q0,1-.09,3.06t-.09,3.06.14,8.1c0,.18,0,.51,0,1a6.77,6.77,0,0,0,0,1.13.86.86,0,0,1-.55.74,1.39,1.39,0,0,1-1.47-.09,1.58,1.58,0,0,1-.55-1.43,12,12,0,0,0,.14-1.79q0-.6-.09-1.79a0,0,0,0,0,0,0Z"/><path d="M242.48,39.74a7.8,7.8,0,0,1,.28-1.33q.37-1.15.87-3.34t.74-3.06q.28-1.1.69-3.15t.51-2.55q1.2-5.43,1.52-6.62l.39-1.36.46-1.59.39-1.33,1.24-5.11a3.1,3.1,0,0,0,0-.87A1.17,1.17,0,0,1,250.17,8q.28-.14.85-.37a6.37,6.37,0,0,0,.81-.37,6.84,6.84,0,0,1,2.12-.28,1,1,0,0,1,1.2.78,4,4,0,0,1,.23.87q.69,6.35.92,8.83.23,2.12.6,5.75c0,.15.05.31.07.48s0,.35,0,.55,0,.36,0,.48q.37,3.4.55,5.06.18,2.16.55,6.39a10.65,10.65,0,0,1,0,1.17v1.22a.89.89,0,0,1-.41.69,10,10,0,0,1-3.08,1.29.44.44,0,0,0-.32.14.84.84,0,0,1-.92,0,1,1,0,0,1-.55-1,64,64,0,0,0-.64-8.6q-.09-.55-.21-1.61t-.16-1.61a1.66,1.66,0,0,0-.23-.71Q251.5,27,251,27t-3.59.23a.88.88,0,0,0-.87.83q-.18,1-1.2,5.43-.18.64-.53,1.93t-.48,1.93a20.54,20.54,0,0,1-.78,2.76q-.46.41-.6.28c0-.06-.06-.09-.09-.09a.13.13,0,0,0,0,.09v0l-.28.14A3.09,3.09,0,0,1,242.48,39.74Zm4.78-13.94,1.29-.14q.41,0,1.22-.07l1.22,0c.31,0,.49,0,.55-.12s.06-.27,0-.58-.14-1.07-.23-1.91-.15-1.48-.18-1.91q-.09-1-.3-3.06t-.34-3.06a1.62,1.62,0,0,0-.07-.39,1.6,1.6,0,0,1-.07-.35A55.61,55.61,0,0,0,247.27,25.81Z"/><path d="M278.78,24.15a6.26,6.26,0,0,1,.14,1A8.06,8.06,0,0,0,279,26a30.88,30.88,0,0,1-1.29,7.31,9.69,9.69,0,0,1-.46,1.13,8.56,8.56,0,0,1-.48.9l-.67,1q-.46.69-.6.87a12.84,12.84,0,0,1-3.63,3.63l-.09,0a4.31,4.31,0,0,1-1,.48,9.38,9.38,0,0,1-1.77.35,6.79,6.79,0,0,1-2.74-.35A11.7,11.7,0,0,1,263,39.79a9.27,9.27,0,0,1-1.47-3.06,12.91,12.91,0,0,1-.55-2.87V32.71l.14-.69a12.51,12.51,0,0,1,.46-1.56q.28-.69,1-.28c.21.09.32.21.32.37l0,.18q0,.14-.14.48a5.56,5.56,0,0,0-.14.67,5.32,5.32,0,0,0-.14,2.48,5.16,5.16,0,0,0,4.65,5.06,3.48,3.48,0,0,0,2.9-.58,4.73,4.73,0,0,0,1.61-2.58,18.43,18.43,0,0,0,.6-3.24,22.51,22.51,0,0,0,0-3.22,13.45,13.45,0,0,0-.18-2.3l-.14-.69q-.87-3.73-3.73-4.51l-2.07-.55a4.52,4.52,0,0,1-2.85-4.37,10.74,10.74,0,0,1,.74-3.5,12.4,12.4,0,0,1,1.61-3.13,7.49,7.49,0,0,1,4.32-2.94,23.79,23.79,0,0,1,2.9-.55,5.37,5.37,0,0,1,3.27,1,5.81,5.81,0,0,1,1.61,1.33A2.07,2.07,0,0,1,278,10q.09.46,0,.55a.45.45,0,0,1-.41.23,1.55,1.55,0,0,1-.6-.41,8.18,8.18,0,0,0-2.25-1.43,3.91,3.91,0,0,0-3.08,0,10.39,10.39,0,0,0-2.76,1.24,6.86,6.86,0,0,0-2.76,3.4,10.86,10.86,0,0,0-1,2.94A2.47,2.47,0,0,0,265,17a1.73,1.73,0,0,0,.25,1.22,1,1,0,0,0,.94.25,25,25,0,0,1,3.31-.14q.46,0,1.59-.09a11.75,11.75,0,0,1,1.73,0A5.51,5.51,0,0,1,277,20.42,8.22,8.22,0,0,1,278.78,24.15Z"/><path d="M287.56,38.64l2.62-.39,2.62-.39H293c.61-.06,1,0,1.15.14s.2.54.14,1.15a.62.62,0,0,1-.46.74l-.28,0-.28,0a45.16,45.16,0,0,0-5.66.74,7.17,7.17,0,0,1-1.22.12,7.75,7.75,0,0,0-1,.07q-1.2,0-1.84,0a1.58,1.58,0,0,1-1.79-1.38,3.11,3.11,0,0,1-.09-1.52q.6-3.73.92-8.51,0-.87.11-2.58t.12-2.53.41-6.12q0-1.43.23-4.28.14-1.75.32-5.24a1.19,1.19,0,0,1,.41-.83,3.92,3.92,0,0,1,2-.78l2-.16,2.32-.16a6.79,6.79,0,0,1,.9,0,10.3,10.3,0,0,0,1,0,4,4,0,0,0,.87-.18h.41a1.91,1.91,0,0,1,.8.21,1.54,1.54,0,0,1,.12.8,1.83,1.83,0,0,1-.14.94c-.09.11-.4.18-.92.21q-2.39.09-3.59.18a.92.92,0,0,0-.58.18,1.46,1.46,0,0,0-.16.69l-.55,6.62s0,.89-.14,2.58l-.14,2.9q0,.64.14.76t.74,0l2.67-.28a1,1,0,0,1,.64.07,1.46,1.46,0,0,1,.28.67,1.54,1.54,0,0,1,.09.37q0,.64-.51.69t-1.75.18q-1.38.09-2,.18c-.34.06-.51.32-.51.78s-.06,1-.09,1.7,0,1.3,0,1.7q-.46,5.84-.64,6.81c-.06.37-.13.94-.21,1.7s-.13,1.23-.16,1.38A1.27,1.27,0,0,0,287.56,38.64Z"/><path d="M309.23,39.74a7.84,7.84,0,0,1,.28-1.33q.37-1.15.87-3.34t.74-3.06q.28-1.1.69-3.15t.51-2.55q1.2-5.43,1.52-6.62l.39-1.36.46-1.59.39-1.33,1.24-5.11a3.08,3.08,0,0,0,0-.87A1.17,1.17,0,0,1,316.91,8q.28-.14.85-.37a6.38,6.38,0,0,0,.81-.37,6.84,6.84,0,0,1,2.12-.28,1,1,0,0,1,1.2.78,4,4,0,0,1,.23.87q.69,6.35.92,8.83.23,2.12.6,5.75c0,.15.05.31.07.48s0,.35,0,.55,0,.36,0,.48q.37,3.4.55,5.06.18,2.16.55,6.39a10.65,10.65,0,0,1,0,1.17v1.22a.89.89,0,0,1-.41.69,10,10,0,0,1-3.08,1.29.44.44,0,0,0-.32.14.84.84,0,0,1-.92,0,1,1,0,0,1-.55-1,63.91,63.91,0,0,0-.64-8.6q-.09-.55-.21-1.61t-.16-1.61a1.67,1.67,0,0,0-.23-.71q-.14-.16-.64-.12t-3.59.23a.88.88,0,0,0-.87.83q-.18,1-1.2,5.43-.18.64-.53,1.93t-.48,1.93a20.71,20.71,0,0,1-.78,2.76q-.46.41-.6.28c0-.06-.06-.09-.09-.09a.13.13,0,0,0,0,.09v0l-.28.14A3.1,3.1,0,0,1,309.23,39.74ZM314,25.81l1.29-.14q.41,0,1.22-.07l1.22,0c.31,0,.49,0,.55-.12s.06-.27,0-.58-.14-1.07-.23-1.91-.15-1.48-.18-1.91q-.09-1-.3-3.06t-.34-3.06a1.62,1.62,0,0,0-.07-.39,1.62,1.62,0,0,1-.07-.35A55.61,55.61,0,0,0,314,25.81Z"/><path d="M342.76,17.8A17.94,17.94,0,0,1,340.1,22,14.42,14.42,0,0,1,339,23.18q-.62.6-1,.9t-1.24,1l-1.08.83q-.51.46-1.29,1.06a1.2,1.2,0,0,0-.41,1q-.23,3-.23,3.59,0,.87,0,2.62t0,2.62q0,1.15-.09,3.27a.58.58,0,0,1-.32.6,3.32,3.32,0,0,1-.83.32l-1.17.25-1.13.25-.18,0-.18,0h-.58l-.18,0a.29.29,0,0,1-.21-.09.79.79,0,0,0-.16-.16.65.65,0,0,1-.18-.25l-.16-.39a3.66,3.66,0,0,1-.32-2.07q0-.73.07-2.09c0-.9,0-1.5,0-1.77q0-2.21,0-3.36l.41-6.07q.23-3.31.28-6.53V16.79q0-.92.07-2.76t.12-2.76V9.89a.67.67,0,0,0-.51-.74L328.09,9a.68.68,0,0,1-.35-.6.59.59,0,0,1,.3-.6,3.12,3.12,0,0,1,.55-.23,17.74,17.74,0,0,1,4.6-.87q2.25-.09,2.9,0a6.34,6.34,0,0,1,2.9.74,3.26,3.26,0,0,0,.46.23,4.3,4.3,0,0,1,2.94,2.21q.14.28.6,1.47a11.76,11.76,0,0,1,.64,2.94A8.59,8.59,0,0,1,342.76,17.8Zm-7.64,5.8a21,21,0,0,0,3.22-3.08,15,15,0,0,0,3.13-5.8,4.54,4.54,0,0,0,0-2.71,11.18,11.18,0,0,0-.37-1.1,2.12,2.12,0,0,0-1.06-1.29q-2-.87-2.3-1t-2.16-.32a.55.55,0,0,0-.51.11,1,1,0,0,0-.14.62v.69q-.09,1.2-.25,3.56t-.21,3.52q-.14,2.3-.23,6.81v.12a.25.25,0,0,0,0,.11.76.76,0,0,1,0,.14.75.75,0,0,1,0,.18A8.84,8.84,0,0,0,335.13,23.6Z"/><path d="M361.44,17.8A17.94,17.94,0,0,1,358.77,22a14.42,14.42,0,0,1-1.08,1.15q-.62.6-1,.9t-1.24,1l-1.08.83q-.51.46-1.29,1.06a1.2,1.2,0,0,0-.41,1q-.23,3-.23,3.59,0,.87,0,2.62t0,2.62q0,1.15-.09,3.27a.58.58,0,0,1-.32.6,3.32,3.32,0,0,1-.83.32l-1.17.25-1.13.25-.18,0-.18,0h-.58l-.18,0a.29.29,0,0,1-.21-.09.79.79,0,0,0-.16-.16.65.65,0,0,1-.18-.25l-.16-.39a3.66,3.66,0,0,1-.32-2.07q0-.73.07-2.09c0-.9,0-1.5,0-1.77q0-2.21,0-3.36l.41-6.07q.23-3.31.28-6.53V16.79q0-.92.07-2.76t.12-2.76V9.89a.67.67,0,0,0-.51-.74L346.77,9a.68.68,0,0,1-.35-.6.59.59,0,0,1,.3-.6,3.12,3.12,0,0,1,.55-.23,17.74,17.74,0,0,1,4.6-.87q2.25-.09,2.9,0a6.34,6.34,0,0,1,2.9.74,3.26,3.26,0,0,0,.46.23,4.3,4.3,0,0,1,2.94,2.21q.14.28.6,1.47a11.76,11.76,0,0,1,.64,2.94A8.59,8.59,0,0,1,361.44,17.8Zm-7.64,5.8A21,21,0,0,0,357,20.52a15,15,0,0,0,3.13-5.8,4.54,4.54,0,0,0,0-2.71,11.18,11.18,0,0,0-.37-1.1,2.12,2.12,0,0,0-1.06-1.29q-2-.87-2.3-1t-2.16-.32a.55.55,0,0,0-.51.11,1,1,0,0,0-.14.62v.69q-.09,1.2-.25,3.56t-.21,3.52q-.14,2.3-.23,6.81v.12a.25.25,0,0,0,0,.11.76.76,0,0,1,0,.14.75.75,0,0,1,0,.18A8.84,8.84,0,0,0,353.8,23.6Z"/><path d="M372.39,25a4.27,4.27,0,0,0-.64.48,1.26,1.26,0,0,0-.32.6,12.29,12.29,0,0,0-.09,1.24q-.18,3.27-.46,9.8l-.14,2.76a1,1,0,0,1-.6.87,9.8,9.8,0,0,1-1.08.41q-.58.18-1.31.35l-1.1.25a.88.88,0,0,1-.57,0,1.39,1.39,0,0,1-.39-.55,2,2,0,0,0-.32-.51,1.85,1.85,0,0,1-.28-1.33l.41-5.24q.37-5.06.51-7.59.14-1.56.32-4.69.37-3.82.51-6,0-.92,0-2.76c0-.18,0-.56,0-1.13s0-1,.07-1.31a1.23,1.23,0,0,0-.37-1.06.66.66,0,0,1-.37-.78.78.78,0,0,1,.64-.64q.46-.09,1.26-.3l1.47-.37,1.26-.3a24.92,24.92,0,0,1,4.69-.46,6.83,6.83,0,0,1,3,.78,3.92,3.92,0,0,1,1.56,1.79,7.63,7.63,0,0,1,.51,5.71,10.41,10.41,0,0,1-2.44,4.46q-.37.41-1,1.22t-.74.94a9.29,9.29,0,0,1-.64.69,1.3,1.3,0,0,0-.46,1.33l.48,2.23q.39,1.82.62,2.83t2.07,8.65c.06.18.18.55.35,1.1s.28,1,.34,1.29a1.71,1.71,0,0,1-.16,1.31,1.29,1.29,0,0,1-.94.71.29.29,0,0,1-.37-.09,2.48,2.48,0,0,1-.92-1.38q-.28-1.66-.67-3.45t-.92-4q-.53-2.23-.76-3.38-.18-.83-.6-2.32t-.55-2l-.28-.6A4.33,4.33,0,0,1,372.39,25Zm-.6-2.37.6-.41a5.35,5.35,0,0,0,.69-.55,33,33,0,0,0,4.37-5A9.39,9.39,0,0,0,379,11.55q.14-2.53-2.21-2.85-.69,0-4,0a2.2,2.2,0,0,0-.55.23,4,4,0,0,1,.34,1,8.61,8.61,0,0,1-.07,1.2.63.63,0,0,0,0,.28v.28q-.37,4.6-.51,6.85-.14,1.29-.32,3.86A.75.75,0,0,1,371.79,22.59Z"/><path d="M384.26,30.13q-.46-4-.51-4.65a25.35,25.35,0,0,1,1.38-10.63,16.21,16.21,0,0,1,2.25-4.37l.67-.71.67-.76a2.66,2.66,0,0,0,.74-1,.56.56,0,0,1,.37-.41l.83-.16a7.78,7.78,0,0,0,.83-.21,2.43,2.43,0,0,1,1.08-.07l1.06.12q.3,0,1.06.23t1.08.23a4.43,4.43,0,0,1,3.17,2.48,41.94,41.94,0,0,1,3,8.1,26.31,26.31,0,0,1,.41,9.57q-.46,3.31-.6,4a13.36,13.36,0,0,1-.69,2.44q-.74,2.12-1.15,3.13A5.71,5.71,0,0,1,397.6,40l-1.2.64q-.78.41-1.15.64a1.09,1.09,0,0,1-.6.18l-1.31,0c-.78,0-1.22,0-1.31-.14a5.81,5.81,0,0,0-1.93-.32,3.63,3.63,0,0,1-3.27-2.3q-.32-.69-1.52-3.5A36.79,36.79,0,0,1,384.26,30.13ZM395.73,14.4q-.39-.87-.92-1.93t-.8-1.66a1,1,0,0,0-.64-.64,7.06,7.06,0,0,0-1.79-.55,1.39,1.39,0,0,0-1,.23,6.74,6.74,0,0,0-2.48,2.85A21.29,21.29,0,0,0,386,19.55a31.57,31.57,0,0,0-.28,5.57q.32,3.54,1.06,7.41a26.89,26.89,0,0,0,1.7,5.11q.55,1.15,1.43,1.1h1.43a1.74,1.74,0,0,0,.69-.09,6.28,6.28,0,0,0,3.63-3.5,38.76,38.76,0,0,0,1.29-4.23q0-.14.55-3.4a23.38,23.38,0,0,0,0-6.07,20.2,20.2,0,0,0-1.2-5.34A8.92,8.92,0,0,0,395.73,14.4Z"/><path d="M412.91,14.72q1.2-2.85,3.68-8.46.55-1.33,1.7-.92A5,5,0,0,1,420.46,7l.44.46c.2.21.34.38.44.51a1.8,1.8,0,0,1,.18,2.12,12.66,12.66,0,0,1-.92,1.61,53.14,53.14,0,0,0-2.39,5.15q-1.15,2.67-3.36,8.19a2,2,0,0,0,0,1.56q.69,1.89,2.9,6.39a28.12,28.12,0,0,1,2.16,5.15,12,12,0,0,1,.28,2.12q0,.87-.64.87a1.51,1.51,0,0,1-1.38-1.24,30.6,30.6,0,0,0-2.21-5.06q-.32-.74-1-2.37T413.83,30a8.66,8.66,0,0,0-.41-.92l-.21.41-.16.32q-.74,2.21-1.75,4.88-.37,1.1-1.2,3.22-.23.51-.6,1.52t-.6,1.52q-.28.55-.44.62a1.08,1.08,0,0,1-.62-.07,5.58,5.58,0,0,1-1.43-.58l-1-.53a2.5,2.5,0,0,1-1.33-1.7,2.71,2.71,0,0,1,.18-1.56q1.89-4.78,2.07-5.29.78-2,2.18-5.84t1.82-4.88a2.67,2.67,0,0,0,0-1.89q-.28-.69-.76-2t-.9-2.42q-.41-1.06-.83-2L407,10.69q-.64-1.54-1-2.37a4.36,4.36,0,0,1-.32-1A1.34,1.34,0,0,1,406,5.93a.68.68,0,0,1,.6-.18.71.71,0,0,1,.55.37c.09.18.24.44.44.76a6.68,6.68,0,0,1,.48.92,4.64,4.64,0,0,1,.28.9,10.14,10.14,0,0,0,.37,1q1.29,2.81,2.81,6.81a7.77,7.77,0,0,1,.32.74Q412.68,15.18,412.91,14.72Z"/><path d="M430.94,11.13a43.85,43.85,0,0,0-.46,6.53l-.14,7.87v5.15q0,1-.09,2.88t-.09,2.88c0,.31,0,.77,0,1.38s0,1.07,0,1.38a1.15,1.15,0,0,1-.11.64,1.6,1.6,0,0,1-.53.32,8.22,8.22,0,0,1-2.16.55q-.6,0-1.75,0a.49.49,0,0,1-.46-.23,3.53,3.53,0,0,1-.51-1.89c0-.21.05-.54.07-1s0-.75,0-1q0-1.15.18-13.66,0-4.14.28-8.37,0-.83.18-2.55t.18-2.6q0-.6,0-1.79a1.17,1.17,0,0,1,.87-1.29A2.9,2.9,0,0,1,428,6.26a5.74,5.74,0,0,1,2.25.69,1.85,1.85,0,0,1,.85.62,3,3,0,0,1,.16,1.22Q431.08,10.35,430.94,11.13Z"/><path d="M449.48,15.5l-.28,1.13-.28,1.13q-.28.92-.74,2.85t-.74,2.85a37.9,37.9,0,0,1-1.29,4.65,7.27,7.27,0,0,1-.92,1.56,1.23,1.23,0,0,1-1.33.37c-.4-.12-.63-.47-.69-1.06q-.23-1.75-.9-4.83T441.48,20q-.23-1.29-1.43-6.07,0-.18-.28-.83a4,4,0,0,0-.28,1.66q-.18,5.06-.18,7.54V27q.09,2,.09,3,0,3.08-.09,9.15a2.64,2.64,0,0,1-.09.6.61.61,0,0,1-.55.6,13.08,13.08,0,0,1-3.63,0,1,1,0,0,1-1-1.1q0-.55,0-1.66a3,3,0,0,1,0-.3,3.14,3.14,0,0,0,0-.34l.14-12q0-3.63,0-5.47a76.23,76.23,0,0,1,1-11.27,1.77,1.77,0,0,1,.25-.76.87.87,0,0,1,.62-.25h.64a3.5,3.5,0,0,0,.64,0l.44,0a5.09,5.09,0,0,0,.58-.09,1,1,0,0,1,1.2.37,9.09,9.09,0,0,1,1.33,2.62,64.33,64.33,0,0,1,1.75,6.3q.69,3.41,1.75,8.46,0,.09.32,1.33l.28-.6.55-2.37.55-2.37.55-2.09q.37-1.4.55-2.14.23-.92.74-3.5.28-1.2.46-1.79.55-2.12.87-3.17a1.55,1.55,0,0,1,.46-.78,4.89,4.89,0,0,1,3.5-1.29,6,6,0,0,1,2.07.55q.83.28.69,1.56-.18,1.66-.23,2.48-.23,2.58-.46,11.78,0,1.79-.37,10.17l-.14,6a3.22,3.22,0,0,1-.12.83c0,.09-.25.2-.62.32l-.28.14a3.53,3.53,0,0,1-1,.48,7.8,7.8,0,0,1-1.27.25,7.54,7.54,0,0,0-1.06.18.55.55,0,0,1-.6-.28,1.8,1.8,0,0,1-.6-1.56q0-2.3.23-6.58v-.18q.28-7.77.28-8,0-2.07,0-6.26.09-2.21.14-3.27v-.87h-.09Q449.76,14.4,449.48,15.5Z"/><path d="M458.36,39.74a7.84,7.84,0,0,1,.28-1.33q.37-1.15.87-3.34t.74-3.06q.28-1.1.69-3.15t.51-2.55q1.2-5.43,1.52-6.62l.39-1.36.46-1.59.39-1.33,1.24-5.11a3.08,3.08,0,0,0,0-.87A1.17,1.17,0,0,1,466,8q.28-.14.85-.37a6.38,6.38,0,0,0,.81-.37,6.84,6.84,0,0,1,2.12-.28,1,1,0,0,1,1.2.78,4,4,0,0,1,.23.87q.69,6.35.92,8.83.23,2.12.6,5.75c0,.15.05.31.07.48s0,.35,0,.55,0,.36,0,.48q.37,3.4.55,5.06.18,2.16.55,6.39a10.65,10.65,0,0,1,0,1.17v1.22a.89.89,0,0,1-.41.69,10,10,0,0,1-3.08,1.29.44.44,0,0,0-.32.14.84.84,0,0,1-.92,0,1,1,0,0,1-.55-1,63.91,63.91,0,0,0-.64-8.6q-.09-.55-.21-1.61t-.16-1.61a1.67,1.67,0,0,0-.23-.71q-.14-.16-.64-.12t-3.59.23a.88.88,0,0,0-.87.83q-.18,1-1.2,5.43-.18.64-.53,1.93t-.48,1.93a20.71,20.71,0,0,1-.78,2.76q-.46.41-.6.28c0-.06-.06-.09-.09-.09a.13.13,0,0,0,0,.09v0l-.28.14A3.1,3.1,0,0,1,458.36,39.74Zm4.78-13.94,1.29-.14q.41,0,1.22-.07l1.22,0c.31,0,.49,0,.55-.12s.06-.27,0-.58-.14-1.07-.23-1.91S467,21.5,467,21.07q-.09-1-.3-3.06t-.34-3.06a1.62,1.62,0,0,0-.07-.39,1.62,1.62,0,0,1-.07-.35A55.61,55.61,0,0,0,463.14,25.81Z"/><path d="M482.23,13.11q0-1.06,0-1.61v-.64a1.46,1.46,0,0,0-.21-.78.81.81,0,0,0-.62-.18h-3a6.87,6.87,0,0,1-.92,0,.73.73,0,0,1-.53-.44,1.26,1.26,0,0,1-.16-.76.73.73,0,0,1,.78-.74q.51,0,1.45,0l1.73.07,1.47,0a13.54,13.54,0,0,0,3.08-.23,23.39,23.39,0,0,1,5.38-.46q.83,0,2.35-.09t2-.09a1.2,1.2,0,0,1,1.2,1.06q.14.55-.28.69l-.23,0-.23,0-6.26.14h-.37c-.46,0-.74.12-.85.28a2.1,2.1,0,0,0-.07,1.15,5.94,5.94,0,0,1,0,.87q-.09,1.84-.18,2.76t-.23,2.67q0,.51-.14,1.43T487.27,20c0,.49-.08,1-.12,1.43q-.37,5.29-.51,7.68-.23,3.13-.46,5.61T486,38q0,.23,0,.74c0,.34,0,.6,0,.78a1,1,0,0,1-.55.87,6.58,6.58,0,0,1-1.54.37q-1,.14-1.36.23a2.32,2.32,0,0,1-1.1-.14q-.87-.28-.78-1.52.09-1.06.41-4.16t.46-5.22q.23-2.85.51-8.74,0-.92.14-2.78t.14-2.78v-1h0Q482.19,14.17,482.23,13.11Z"/><path d="M504.91,38.64l2.62-.39,2.62-.39h.18c.61-.06,1,0,1.15.14s.2.54.14,1.15a.62.62,0,0,1-.46.74l-.28,0-.28,0a45.17,45.17,0,0,0-5.66.74,7.16,7.16,0,0,1-1.22.12,7.75,7.75,0,0,0-1,.07q-1.2,0-1.84,0a1.58,1.58,0,0,1-1.79-1.38A3.1,3.1,0,0,1,499,38q.6-3.73.92-8.51,0-.87.11-2.58t.12-2.53.41-6.12q0-1.43.23-4.28.14-1.75.32-5.24a1.19,1.19,0,0,1,.41-.83,3.92,3.92,0,0,1,2-.78l2-.16,2.32-.16a6.8,6.8,0,0,1,.9,0,10.3,10.3,0,0,0,1,0,4,4,0,0,0,.87-.18H511a1.91,1.91,0,0,1,.8.21,1.54,1.54,0,0,1,.12.8,1.83,1.83,0,0,1-.14.94c-.09.11-.4.18-.92.21q-2.39.09-3.59.18a.92.92,0,0,0-.58.18,1.47,1.47,0,0,0-.16.69L506,16.38s0,.89-.14,2.58l-.14,2.9q0,.64.14.76t.74,0l2.67-.28a1,1,0,0,1,.64.07,1.46,1.46,0,0,1,.28.67,1.54,1.54,0,0,1,.09.37q0,.64-.51.69t-1.75.18q-1.38.09-2,.18c-.34.06-.51.32-.51.78s-.06,1-.09,1.7,0,1.3,0,1.7q-.46,5.84-.64,6.81c-.06.37-.13.94-.21,1.7s-.13,1.23-.16,1.38A1.27,1.27,0,0,0,504.91,38.64Z"/><path d="M521.38,20.33q-.14,8.65-.14,8.74,0,1.29-.37,7.36a5.58,5.58,0,0,0,0,.85,5.74,5.74,0,0,1,0,.85c0,.34.08.55.32.64l1,.14,3.73-.14a1.75,1.75,0,0,1,.55,0c.3,0,.49.25.55.64a3.11,3.11,0,0,1,0,1.29q-.11.18-1,.18c-.18,0-.45,0-.78,0s-.6,0-.78,0H523l-2.53-.14q-.64,0-1.89.07l-1.89.12h-.23a1.51,1.51,0,0,1-1.38-2q.46-3.22.74-9.71.14-2.21.23-9.89,0-2.07.18-6.21V9.38q0-.32,0-1c0-.43,0-.75,0-1a1.2,1.2,0,0,1,.87-1.33,4.66,4.66,0,0,1,4.19.83A1.13,1.13,0,0,1,521.7,8V9.61h0Z"/><path d="M536.4,20.52q.3-1.06.44-1.61.41-1.8,1.13-5.13t1-4.71q.37-1.75.55-2.67a1.31,1.31,0,0,1,1-1.2,3.54,3.54,0,0,1,3,.74,2.65,2.65,0,0,1,.46.32l.37.32A1.81,1.81,0,0,1,545,8.65q-1.61,6.17-2.21,9-.23,1.15-.55,2.42t-.74,2.8q-.41,1.54-.64,2.37-.51,2.07-2,8.19-.18.83-.53,2.51t-.53,2.51l-.69,2.8c-.12.31-.25.46-.37.46a4,4,0,0,1-1.33.18,22.83,22.83,0,0,1-2.94-.51q-.37-.09-.62-.8a2.18,2.18,0,0,1-.11-1.27l1.52-6.35q.51-2.07,1.52-6.3a4.44,4.44,0,0,0,0-1.79l-1.24-4.28q-.28-1.06-.83-3.08t-.83-3.08a.62.62,0,0,0,0-.14.61.61,0,0,1,0-.14q-.28-.74-.85-2.21t-.85-2.21q-.23-.6-.37-1.06a1.21,1.21,0,0,1,.46-1.43q.55-.41,1.06.32a3.18,3.18,0,0,1,.55,1q.41,1.24,1.33,3.73A21.78,21.78,0,0,1,534,14.7q.44,1.63.48,1.77.46,1.66,1.38,4.88a2,2,0,0,0,.23.41Q536.1,21.57,536.4,20.52Z"/><path d="M209.07,83.21c.12.25.28.61.46,1.1a6.89,6.89,0,0,1,.28,1.47v1.06a9.41,9.41,0,0,1-.25,1.59,15.36,15.36,0,0,1-1.31,3.29,9.75,9.75,0,0,1-2.71,3.4q-.41.18-1.29.62a13.81,13.81,0,0,1-1.38.62q-1,.32-1.79.51l-.62.07a5.9,5.9,0,0,1-1.15-.14,4.38,4.38,0,0,1-1.59-.6,5.73,5.73,0,0,1-1.47-1.54A8.83,8.83,0,0,1,195,91.91a1.48,1.48,0,0,0,0-.23.59.59,0,0,0-.09-.23,12,12,0,0,1,.51-7.77q.6-1.1.74-1.29a9.12,9.12,0,0,1,.92-1.2q.64-.74.87-1.06.46-.6,1.38-1.89t1.38-1.89a.8.8,0,0,0,0-1l-.25-.39-.25-.39q-.32-.6-1.06-1.86T198,70.84A10.2,10.2,0,0,1,197,67.48a6.08,6.08,0,0,1,1.24-4.69A10.45,10.45,0,0,1,201,60.9a9.66,9.66,0,0,1,3-1l3.17-.28a.72.72,0,0,1,.41,0,3.07,3.07,0,0,0,1.75.09,1.47,1.47,0,0,1,1,.12,2.87,2.87,0,0,1,.64,1.08,7.43,7.43,0,0,1,.41,1.47,7.82,7.82,0,0,1-.16,3.68A15.78,15.78,0,0,1,209.71,70q-1,1.79-2.07,3.36a29.23,29.23,0,0,1-1.84,2.48l-.78.92.16.18a1.33,1.33,0,0,1,.16.23,3,3,0,0,0,.18.32l.74,1A26.44,26.44,0,0,1,209.07,83.21Zm-9.43-13.39q.18.41,1.79,3.22a5.53,5.53,0,0,0,.41.58c.18.23.31.38.37.44l1.1-1.52q.23-.37.87-1.33t1-1.47a8.78,8.78,0,0,0,1.29-2.48,5.9,5.9,0,0,0-.32-5.24c-.28-.46-.6-.67-1-.64a12,12,0,0,0-4.92,2,2.89,2.89,0,0,0-1.15,2A7,7,0,0,0,199.64,69.83Zm7,16.65a6.49,6.49,0,0,0-.39-3.57A9.78,9.78,0,0,0,204.65,80l-.87-1a.36.36,0,0,1,0,.14,0,0,0,0,0,0,0l0-.09A23.12,23.12,0,0,0,201,82.34a9.2,9.2,0,0,0-1.2,3.22v0a8.16,8.16,0,0,0-.18.88.52.52,0,0,1,0,.23,5.06,5.06,0,0,0,0,1q.18,2.58,2.16,2.94Q205.71,91.4,206.63,86.48Z"/><path d="M213.78,91l.85,0,.69,0,.37.16a2.89,2.89,0,0,0,.37.16,1.32,1.32,0,0,0,.48.23c.08,0,.21-.11.39-.32a16.75,16.75,0,0,0,3-5.24A36.17,36.17,0,0,0,222,77.69a12.52,12.52,0,0,0-.09-4,2,2,0,0,0-1.1-1.47l-1.56-.32q-.14-.18-1.73,0l-1.68.18a.37.37,0,0,0-.23.14,1.4,1.4,0,0,1-1.54-.74,2.66,2.66,0,0,1-.25-2.16q.23-.87.6-2.58t.55-2.48q.09-.51.18-1.79a1.89,1.89,0,0,1,.3-1.08.89.89,0,0,1,.81-.25,9.43,9.43,0,0,0,3.36-.64,1.72,1.72,0,0,1,.37-.07l.37,0q.69-.18,3-.74,1.15-.37,1.43,1.15c0,.61-.18,1-.55,1.1q-1.34.32-3.5.74l-1.5.25q-1,.16-1.4.25-.6.14-.69,1-.46,2.39-.69,3.63a1.23,1.23,0,0,0,0,.76c.08.11.28.16.62.16a48.83,48.83,0,0,1,5.34.09,3,3,0,0,1,.94.23q.62.23.8.28a3.18,3.18,0,0,0,.83.37q1.84.51,2.44,3.73a17.92,17.92,0,0,1-.14,7.08,42.27,42.27,0,0,1-2.94,9.43,12.31,12.31,0,0,1-4.65,5.52,5.67,5.67,0,0,1-4.32.69l-.55-.09a4.34,4.34,0,0,1-.74-.18q-1.7-.6-2.81-3.63-.32-.87.46-1a7.88,7.88,0,0,1,1.33-.18v-.09Q213.39,91,213.78,91Z"/><path d="M257.64,73A17.94,17.94,0,0,1,255,77.23a14.58,14.58,0,0,1-1.08,1.15q-.62.6-1,.9t-1.24,1l-1.08.83q-.51.46-1.29,1.06a1.2,1.2,0,0,0-.41,1q-.23,3-.23,3.59,0,.87,0,2.62t0,2.62q0,1.15-.09,3.27a.58.58,0,0,1-.32.6,3.34,3.34,0,0,1-.83.32l-1.17.25-1.13.25-.18,0-.18,0h-.58l-.18,0a.29.29,0,0,1-.21-.09.78.78,0,0,0-.16-.16.63.63,0,0,1-.18-.25l-.16-.39a3.66,3.66,0,0,1-.32-2.07q0-.74.07-2.09t0-1.77q0-2.21,0-3.36l.41-6.07q.23-3.31.28-6.53V72q0-.92.07-2.76t.11-2.76V65.09a.67.67,0,0,0-.51-.74l-.41-.14a.68.68,0,0,1-.35-.6.59.59,0,0,1,.3-.6,3.14,3.14,0,0,1,.55-.23,17.82,17.82,0,0,1,4.6-.87q2.25-.09,2.9,0a6.37,6.37,0,0,1,2.9.74,3.14,3.14,0,0,0,.46.23A4.29,4.29,0,0,1,257.27,65q.14.28.6,1.47a11.72,11.72,0,0,1,.64,2.94A8.59,8.59,0,0,1,257.64,73ZM250,78.8a21.06,21.06,0,0,0,3.22-3.08,15,15,0,0,0,3.13-5.8,4.55,4.55,0,0,0,0-2.71,11.45,11.45,0,0,0-.37-1.1,2.12,2.12,0,0,0-1.06-1.29q-2-.87-2.3-1t-2.16-.32a.55.55,0,0,0-.51.12,1,1,0,0,0-.14.62V65q-.09,1.2-.25,3.57T249.36,72q-.14,2.3-.23,6.81V79a.25.25,0,0,0,0,.12.73.73,0,0,1,0,.14.76.76,0,0,1,0,.18A8.61,8.61,0,0,0,250,78.8Z"/><path d="M267.07,93.84l2.62-.39,2.62-.39h.18c.61-.06,1,0,1.15.14s.2.54.14,1.15a.62.62,0,0,1-.46.74l-.28,0-.28,0a45.43,45.43,0,0,0-5.66.74,7,7,0,0,1-1.22.12,8.25,8.25,0,0,0-1,.07q-1.2,0-1.84,0a1.58,1.58,0,0,1-1.79-1.38,3.11,3.11,0,0,1-.09-1.52q.6-3.73.92-8.51,0-.87.11-2.58t.12-2.53.41-6.12q0-1.43.23-4.28.14-1.75.32-5.24a1.2,1.2,0,0,1,.41-.83,3.91,3.91,0,0,1,2-.78l2-.16,2.32-.16a6.79,6.79,0,0,1,.9,0,10.31,10.31,0,0,0,1,0,4,4,0,0,0,.87-.18h.41a1.88,1.88,0,0,1,.81.21,1.53,1.53,0,0,1,.11.8,1.83,1.83,0,0,1-.14.94c-.09.11-.4.18-.92.21q-2.39.09-3.59.18a.92.92,0,0,0-.58.18,1.46,1.46,0,0,0-.16.69l-.55,6.63s0,.89-.14,2.58l-.14,2.9q0,.64.14.76t.74,0l2.67-.28a1,1,0,0,1,.64.07,1.46,1.46,0,0,1,.28.67,1.52,1.52,0,0,1,.09.37c0,.43-.14.66-.51.69s-1,.12-1.75.18-1.58.12-2,.18-.51.32-.51.78-.06,1-.09,1.7,0,1.3,0,1.7q-.46,5.84-.64,6.81-.09.55-.21,1.7t-.16,1.38A1.25,1.25,0,0,0,267.07,93.84Z"/><path d="M284.5,80.15a4.36,4.36,0,0,0-.64.48,1.25,1.25,0,0,0-.32.6,12.07,12.07,0,0,0-.09,1.24q-.18,3.27-.46,9.8L282.85,95a1,1,0,0,1-.6.88,10.25,10.25,0,0,1-1.08.41q-.58.18-1.31.34l-1.1.25a.89.89,0,0,1-.57,0,1.4,1.4,0,0,1-.39-.55,2.07,2.07,0,0,0-.32-.51,1.85,1.85,0,0,1-.28-1.33l.41-5.24q.37-5.06.51-7.59.14-1.56.32-4.69.37-3.82.51-6,0-.92,0-2.76c0-.18,0-.56,0-1.13s0-1,.07-1.31a1.23,1.23,0,0,0-.37-1.06.66.66,0,0,1-.37-.78.78.78,0,0,1,.64-.64c.31-.06.73-.16,1.27-.3l1.47-.37,1.26-.3a24.91,24.91,0,0,1,4.69-.46,6.85,6.85,0,0,1,3,.78,3.93,3.93,0,0,1,1.56,1.79,7.62,7.62,0,0,1,.51,5.7,10.43,10.43,0,0,1-2.44,4.46q-.37.41-1,1.22c-.43.54-.67.85-.74.94s-.34.38-.64.69a1.3,1.3,0,0,0-.46,1.33l.48,2.23q.39,1.82.62,2.83t2.07,8.65c.06.18.18.55.35,1.1s.28,1,.34,1.29a1.7,1.7,0,0,1-.16,1.31,1.28,1.28,0,0,1-.94.71.28.28,0,0,1-.37-.09,2.47,2.47,0,0,1-.92-1.38q-.28-1.66-.67-3.45t-.92-4q-.53-2.23-.76-3.38-.18-.83-.6-2.32t-.55-2l-.28-.6A4.26,4.26,0,0,1,284.5,80.15Zm-.6-2.37.6-.41a5.27,5.27,0,0,0,.69-.55,33.05,33.05,0,0,0,4.37-5,9.39,9.39,0,0,0,1.52-5.06q.14-2.53-2.21-2.85-.69,0-4,0a2.21,2.21,0,0,0-.55.23,4,4,0,0,1,.35,1,8.64,8.64,0,0,1-.07,1.2.63.63,0,0,0,0,.28v.28q-.37,4.6-.51,6.85-.14,1.29-.32,3.87A.74.74,0,0,1,283.91,77.79Z"/><path d="M295.22,83.77a65.23,65.23,0,0,1,1.47-11.45,17.27,17.27,0,0,1,1.7-5.06,24.93,24.93,0,0,1,1.93-3.31,5.23,5.23,0,0,1,3.31-2.12,2.08,2.08,0,0,1,1.43.09.19.19,0,0,1,.12.07l.14.16.12.14-.12.14-.14.16a.19.19,0,0,1-.12.07l-.6.11-.6.12a4.45,4.45,0,0,0-2.48,2,10.18,10.18,0,0,0-.69,1.22q-.32.67-.69,1.59T299.46,69a9.24,9.24,0,0,0-.87,2.85q-.41,2.72-1,7.36,0,.09-.28,2.44a18.22,18.22,0,0,0,.23,4,7,7,0,0,0,1.84,3.45,2.71,2.71,0,0,0,2.3.74,6.25,6.25,0,0,0,2-.69,7.35,7.35,0,0,0,1.61-1.33,43,43,0,0,0,4.46-7l.28-.55q.32-.74,1-.46a.82.82,0,0,1,.23.09,1.53,1.53,0,0,1,.78.55,2.31,2.31,0,0,1,0,1.1,12.26,12.26,0,0,1-1.52,4.69q-2,3.4-2.71,4.55a12.47,12.47,0,0,1-5,4.51,3.93,3.93,0,0,1-4.6-.64,6.7,6.7,0,0,1-2-2.81.82.82,0,0,0-.23-.37,2.26,2.26,0,0,1-.46-1.29c-.06-.55-.12-1-.18-1.24v0Q295.22,87,295.22,83.77Z"/><path d="M320.66,93.84l2.62-.39,2.62-.39h.18c.61-.06,1,0,1.15.14s.2.54.14,1.15a.62.62,0,0,1-.46.74l-.28,0-.28,0a45.44,45.44,0,0,0-5.66.74,7,7,0,0,1-1.22.12,8.24,8.24,0,0,0-1,.07q-1.2,0-1.84,0a1.58,1.58,0,0,1-1.79-1.38,3.1,3.1,0,0,1-.09-1.52q.6-3.73.92-8.51,0-.87.11-2.58t.12-2.53.41-6.12q0-1.43.23-4.28.14-1.75.32-5.24a1.2,1.2,0,0,1,.41-.83,3.92,3.92,0,0,1,2-.78l2-.16,2.32-.16a6.8,6.8,0,0,1,.9,0,10.32,10.32,0,0,0,1,0,4,4,0,0,0,.87-.18h.41a1.88,1.88,0,0,1,.8.21,1.53,1.53,0,0,1,.12.8,1.83,1.83,0,0,1-.14.94c-.09.11-.4.18-.92.21q-2.39.09-3.59.18a.92.92,0,0,0-.58.18,1.47,1.47,0,0,0-.16.69l-.55,6.63s0,.89-.14,2.58l-.14,2.9q0,.64.14.76t.74,0l2.67-.28a1,1,0,0,1,.64.07,1.46,1.46,0,0,1,.28.67,1.54,1.54,0,0,1,.09.37q0,.64-.51.69t-1.75.18q-1.38.09-2,.18c-.34.06-.51.32-.51.78s-.06,1-.09,1.7,0,1.3,0,1.7q-.46,5.84-.64,6.81-.09.55-.21,1.7t-.16,1.38A1.25,1.25,0,0,0,320.66,93.84Z"/><path d="M344.17,87.26q0-1,.11-3t.12-3q0-1.06.16-3.1t.16-3q.28-4,.37-6.16.09-1.56.18-4.51a4.61,4.61,0,0,1,0-.78q.09-1.15,1.1-1.1L350,63a.64.64,0,0,1,.64.74,3,3,0,0,1,0,.87l-.14,2.94q0,1.1-.14,3.34t-.18,3.33q0,.78-.09,2.3t-.14,2.3q0,.78,0,2.3v2.3q0,.87-.09,3.54t-.09,4.14q0,.32-.07,2.07a5.77,5.77,0,0,0,.12,2.07.83.83,0,0,1-.78,1.15l-.67.09-.76.09-.64.09a5.64,5.64,0,0,1-2.67-.74,1.09,1.09,0,0,1-.51-.74q-.46-1.38-1.29-4.14-.18-.6-.74-2.48t-.83-2.9l-.48-1.93-.55-2.23c-.2-.81-.36-1.45-.48-1.91q-1.29-5.06-2-7.59a21.13,21.13,0,0,0-.83-2.62q0,.46,0,1.4t-.09,1.45q0,.92-.12,2.53t-.12,2.92q0,1.31,0,2.51,0,2,.09,5.93.09,5.52.14,8.33a4,4,0,0,1-.09.74.65.65,0,0,1-.6.51l-.37,0-.39.07a1.68,1.68,0,0,1-.34,0,2.79,2.79,0,0,0-.6,0h-1.2a1.37,1.37,0,0,1-.51,0,1.68,1.68,0,0,1-1.15-.48,1.92,1.92,0,0,1-.28-1.31q.09-4.23.09-6.35,0-.87,0-3.63t0-4.28q0-1,.23-6.16.09-2.71,0-5.38,0-1.56-.18-4.78a1.71,1.71,0,0,1,.16-1,1.3,1.3,0,0,1,.81-.44,5.44,5.44,0,0,1,3.27.18,4.71,4.71,0,0,1,1.38.69,2.53,2.53,0,0,1,.69,1.15q.32,1.15.94,3.47T339,71l.28.8q.23.67.32,1,.37,1.52,1.15,4.55t1.2,4.51q.32,1.29,1,3.66t.78,2.78a1.07,1.07,0,0,0,.23.37h.14C344.15,88.4,344.17,87.91,344.17,87.26Z"/><path d="M358.75,68.31c0-.71,0-1.24,0-1.61v-.64a1.48,1.48,0,0,0-.21-.78.82.82,0,0,0-.62-.18h-3a7,7,0,0,1-.92,0,.73.73,0,0,1-.53-.44,1.27,1.27,0,0,1-.16-.76.73.73,0,0,1,.78-.74q.51,0,1.45,0l1.72.07,1.47,0a13.49,13.49,0,0,0,3.08-.23,23.32,23.32,0,0,1,5.38-.46q.83,0,2.35-.09t2-.09a1.19,1.19,0,0,1,1.2,1.06c.09.37,0,.6-.28.69l-.23,0-.23,0-6.26.14h-.37q-.69,0-.85.28a2.1,2.1,0,0,0-.07,1.15,6.12,6.12,0,0,1,0,.88q-.09,1.84-.18,2.76t-.23,2.67q0,.51-.14,1.43t-.16,1.66q-.07.74-.11,1.43-.37,5.29-.51,7.68-.23,3.13-.46,5.61t-.23,3.36q0,.23,0,.74c0,.34,0,.6,0,.78a1,1,0,0,1-.55.87,6.5,6.5,0,0,1-1.54.37q-1,.14-1.36.23a2.35,2.35,0,0,1-1.1-.14q-.87-.28-.78-1.52.09-1.06.41-4.16t.46-5.22q.23-2.85.51-8.74l.14-2.78.14-2.78v-1h0Q358.7,69.37,358.75,68.31Z"/><path d="M58.95,140.53q-.46-4-.51-4.65a25.35,25.35,0,0,1,1.38-10.62,16.2,16.2,0,0,1,2.25-4.37q.23-.23.67-.71l.67-.76a2.68,2.68,0,0,0,.74-1,.56.56,0,0,1,.37-.41l.83-.16a7.53,7.53,0,0,0,.83-.21,2.43,2.43,0,0,1,1.08-.07q.76.07,1.06.12t1.06.23c.51.12.87.2,1.08.23a4.43,4.43,0,0,1,3.17,2.48,41.91,41.91,0,0,1,3,8.1,26.32,26.32,0,0,1,.41,9.57q-.46,3.31-.6,4a13.37,13.37,0,0,1-.69,2.44q-.74,2.12-1.15,3.13a5.71,5.71,0,0,1-2.35,2.58l-1.2.64c-.52.28-.91.49-1.15.64s-.51.21-.6.18l-1.31,0c-.78,0-1.22,0-1.31-.14a5.81,5.81,0,0,0-1.93-.32,3.63,3.63,0,0,1-3.27-2.3q-.32-.69-1.52-3.5A36.82,36.82,0,0,1,58.95,140.53ZM70.43,124.8q-.39-.87-.92-1.93t-.8-1.66a1,1,0,0,0-.64-.64,7,7,0,0,0-1.79-.55,1.39,1.39,0,0,0-1,.23,6.73,6.73,0,0,0-2.48,2.85,21.27,21.27,0,0,0-2.12,6.85,31.63,31.63,0,0,0-.28,5.57q.32,3.54,1.06,7.41a27,27,0,0,0,1.7,5.11q.55,1.15,1.43,1.1H66a1.72,1.72,0,0,0,.69-.09,6.28,6.28,0,0,0,3.63-3.5,38.62,38.62,0,0,0,1.29-4.23q0-.14.55-3.4a23.38,23.38,0,0,0,0-6.07A20.19,20.19,0,0,0,71,126.5,9,9,0,0,0,70.43,124.8Z"/><path d="M87.65,132.8a9.49,9.49,0,0,1,1.52-.18q1,0,.74,1.06-.32,1.29-1.47,1.15-.23,0-1.84.23-.51,0-.51.64,0,3.77-.23,11.55,0,.46,0,1.4c0,.63,0,1.1,0,1.4a1.59,1.59,0,0,1-.09.64.61.61,0,0,1-.21.25,2.61,2.61,0,0,1-.62.16,11.83,11.83,0,0,1-1.89.18q-1.24,0-1.61.09a.59.59,0,0,1-.74-.37,4.23,4.23,0,0,1-.46-1.7q0-.88,0-2.67t0-2.71q.37-10.9.37-12.33,0-.83.18-5.93l.41-6.49q.09-.78.51-.92a11.39,11.39,0,0,1,1.2-.37l.9,0q.62,0,.94,0a11.06,11.06,0,0,0,1.66-.09,8,8,0,0,0,1-.09c.44-.06.73-.09.85-.09q.46-.09,1.47-.18l.6-.09.41,0q.09,0,1.43-.28a5,5,0,0,1,1.1-.09.54.54,0,0,1,.37.09c.15.06.2.29.14.69a2.24,2.24,0,0,0,0,.74c.06.25-.06.4-.37.46l-1,.16-1.13.16q-2.44.18-3.5.32a1.58,1.58,0,0,0-.83.28,1.49,1.49,0,0,0-.23.87q0,1.15-.21,3.54T86.41,128q-.14,2.07-.14,4c0,.09,0,.23,0,.41s0,.34,0,.46Q87.33,132.8,87.65,132.8Z"/><path d="M108.72,150.14a7.84,7.84,0,0,1,.28-1.33q.37-1.15.87-3.33t.74-3.06q.28-1.1.69-3.15t.51-2.55q1.2-5.43,1.52-6.62l.39-1.36.46-1.59.39-1.33,1.24-5.11a3.09,3.09,0,0,0,0-.87,1.17,1.17,0,0,1,.64-1.47q.28-.14.85-.37a6.48,6.48,0,0,0,.81-.37,6.89,6.89,0,0,1,2.12-.28,1,1,0,0,1,1.2.78,4,4,0,0,1,.23.88q.69,6.35.92,8.83.23,2.12.6,5.75c0,.15.05.31.07.48s0,.35,0,.55,0,.36,0,.48q.37,3.4.55,5.06.18,2.16.55,6.39a10.68,10.68,0,0,1,0,1.17v1.22a.89.89,0,0,1-.41.69,10,10,0,0,1-3.08,1.29.44.44,0,0,0-.32.14.83.83,0,0,1-.92,0,1,1,0,0,1-.55-1,64,64,0,0,0-.64-8.6c-.06-.37-.13-.9-.21-1.61s-.13-1.24-.16-1.61a1.65,1.65,0,0,0-.23-.71c-.09-.11-.31-.14-.64-.12s-1.6.08-3.59.23a.88.88,0,0,0-.87.83q-.18,1-1.2,5.43-.18.64-.53,1.93t-.48,1.93a20.44,20.44,0,0,1-.78,2.76c-.31.28-.51.37-.6.28s-.06-.09-.09-.09a.13.13,0,0,0,0,.09v0l-.28.14A3.11,3.11,0,0,1,108.72,150.14Zm4.78-13.94,1.29-.14q.41,0,1.22-.07l1.22,0c.31,0,.49,0,.55-.11s.06-.27,0-.58-.14-1.06-.23-1.91-.15-1.48-.18-1.91q-.09-1-.3-3.06c-.14-1.36-.25-2.38-.34-3.06a1.61,1.61,0,0,0-.07-.39,1.6,1.6,0,0,1-.07-.35A55.6,55.6,0,0,0,113.5,136.21Z"/><path d="M133.56,130.73q-.14,8.65-.14,8.74,0,1.29-.37,7.36a5.57,5.57,0,0,0,0,.85,5.73,5.73,0,0,1,0,.85q0,.51.32.64l1,.14,3.73-.14a1.64,1.64,0,0,1,.55,0q.46,0,.55.64a3.11,3.11,0,0,1,0,1.29q-.11.18-1,.18-.28,0-.78,0c-.34,0-.6,0-.78,0h-1.33l-2.53-.14c-.43,0-1.06,0-1.89.07l-1.89.12h-.23a1.51,1.51,0,0,1-1.38-2q.46-3.22.74-9.71.14-2.21.23-9.89,0-2.07.18-6.21v-3.87c0-.21,0-.54,0-1s0-.75,0-1a1.2,1.2,0,0,1,.87-1.33,4.65,4.65,0,0,1,4.19.83,1.13,1.13,0,0,1,.46,1.06V120h0Q133.65,127.19,133.56,130.73Z"/><path d="M148.28,130.73q-.14,8.65-.14,8.74,0,1.29-.37,7.36a5.57,5.57,0,0,0,0,.85,5.73,5.73,0,0,1,0,.85q0,.51.32.64l1,.14,3.73-.14a1.64,1.64,0,0,1,.55,0q.46,0,.55.64a3.11,3.11,0,0,1,0,1.29q-.11.18-1,.18-.28,0-.78,0c-.34,0-.6,0-.78,0h-1.33l-2.53-.14c-.43,0-1.06,0-1.89.07l-1.89.12h-.23a1.51,1.51,0,0,1-1.38-2q.46-3.22.74-9.71.14-2.21.23-9.89,0-2.07.18-6.21v-3.87c0-.21,0-.54,0-1s0-.75,0-1a1.2,1.2,0,0,1,.87-1.33,4.65,4.65,0,0,1,4.19.83,1.13,1.13,0,0,1,.46,1.06V120h0Q148.37,127.19,148.28,130.73Z"/><path d="M174.52,140.78l.11-.48q.09-.37.69-3.08t1-4.14q.37-1.47,1.15-4.16l1-3.33q1-3,1.06-3.5.41-1.84,1.52-5.34.18-.78.83-.74a3,3,0,0,1,1.1.23q1,.55,2.94,1.75.41.23.32,1a.54.54,0,0,1,0,.16.49.49,0,0,1-.09.16,12.57,12.57,0,0,0-.69,1.56q-.32.87-.51,1.52l-.48,1.72q-.3,1.08-.44,1.63-.37,1.24-1.08,3.73t-1.08,3.73q-1.34,5.2-1.61,6.39l-1,5.57q-.55,3.86-.87,5.75a1.48,1.48,0,0,1-.46,1,.85.85,0,0,1-.87.12,9.25,9.25,0,0,1-3.45-2.21,2.07,2.07,0,0,1-.64-1.38c-.06-.61-.17-1.52-.32-2.71s-.23-1.84-.23-1.93q-.28-2.39-.41-3.63-.28-2.21-.37-3.36-.09-1.89-.87-6.9-.55-3.17-1.56-9.52c-.06-.25-.15-.61-.25-1.08s-.18-.83-.21-1.08a1.75,1.75,0,0,1,.16-1.13.67.67,0,0,1,.76-.35.78.78,0,0,1,.64.64,18.92,18.92,0,0,1,.51,1.93q0,.37.55,3.91t.83,5.38q.09.46,1.66,10,.14.69.32,2.07l.18.6h.18A2.19,2.19,0,0,1,174.52,140.78Z"/><path d="M183.93,150.14a7.84,7.84,0,0,1,.28-1.33q.37-1.15.87-3.33t.74-3.06q.28-1.1.69-3.15t.51-2.55q1.2-5.43,1.52-6.62l.39-1.36.46-1.59.39-1.33L191,120.7a3.09,3.09,0,0,0,0-.87,1.17,1.17,0,0,1,.64-1.47q.28-.14.85-.37a6.48,6.48,0,0,0,.81-.37,6.89,6.89,0,0,1,2.12-.28,1,1,0,0,1,1.2.78,4,4,0,0,1,.23.88q.69,6.35.92,8.83.23,2.12.6,5.75c0,.15.05.31.07.48s0,.35,0,.55,0,.36,0,.48q.37,3.4.55,5.06.18,2.16.55,6.39a10.68,10.68,0,0,1,0,1.17v1.22a.89.89,0,0,1-.41.69,10,10,0,0,1-3.08,1.29.44.44,0,0,0-.32.14.83.83,0,0,1-.92,0,1,1,0,0,1-.55-1,64,64,0,0,0-.64-8.6c-.06-.37-.13-.9-.21-1.61s-.13-1.24-.16-1.61a1.65,1.65,0,0,0-.23-.71c-.09-.11-.31-.14-.64-.12s-1.6.08-3.59.23a.88.88,0,0,0-.87.83q-.18,1-1.2,5.43-.18.64-.53,1.93t-.48,1.93a20.44,20.44,0,0,1-.78,2.76c-.31.28-.51.37-.6.28s-.06-.09-.09-.09a.13.13,0,0,0,0,.09v0L184,151A3.11,3.11,0,0,1,183.93,150.14Zm4.78-13.94,1.29-.14q.41,0,1.22-.07l1.22,0c.31,0,.49,0,.55-.11s.06-.27,0-.58-.14-1.06-.23-1.91-.15-1.48-.18-1.91q-.09-1-.3-3.06c-.14-1.36-.25-2.38-.34-3.06a1.61,1.61,0,0,0-.07-.39,1.6,1.6,0,0,1-.07-.35A55.6,55.6,0,0,0,188.71,136.21Z"/><path d="M208.77,130.73q-.14,8.65-.14,8.74,0,1.29-.37,7.36a5.57,5.57,0,0,0,0,.85,5.73,5.73,0,0,1,0,.85q0,.51.32.64l1,.14,3.73-.14a1.64,1.64,0,0,1,.55,0q.46,0,.55.64a3.11,3.11,0,0,1,0,1.29q-.11.18-1,.18-.28,0-.78,0c-.34,0-.6,0-.78,0h-1.33l-2.53-.14c-.43,0-1.06,0-1.89.07l-1.89.12h-.23a1.51,1.51,0,0,1-1.38-2q.46-3.22.74-9.71.14-2.21.23-9.89,0-2.07.18-6.21v-3.87c0-.21,0-.54,0-1s0-.75,0-1a1.2,1.2,0,0,1,.87-1.33,4.65,4.65,0,0,1,4.19.83,1.13,1.13,0,0,1,.46,1.06V120h0Q208.86,127.19,208.77,130.73Z"/><path d="M222.94,149l2.62-.39,2.62-.39h.18q.92-.09,1.15.14t.14,1.15a.62.62,0,0,1-.46.74l-.28,0-.28,0a45.3,45.3,0,0,0-5.66.73,6.87,6.87,0,0,1-1.22.12,8,8,0,0,0-1,.07c-.8,0-1.41,0-1.84,0a1.58,1.58,0,0,1-1.79-1.38,3.12,3.12,0,0,1-.09-1.52q.6-3.72.92-8.51,0-.87.11-2.58t.12-2.53.41-6.12q0-1.43.23-4.28.14-1.75.32-5.24a1.2,1.2,0,0,1,.41-.83,3.92,3.92,0,0,1,2-.78l2-.16,2.32-.16a7,7,0,0,1,.9,0,10.29,10.29,0,0,0,1,0,4,4,0,0,0,.87-.18H229a1.91,1.91,0,0,1,.81.21,1.54,1.54,0,0,1,.11.8,1.84,1.84,0,0,1-.14.94c-.09.11-.4.18-.92.21q-2.39.09-3.59.18a.92.92,0,0,0-.58.18,1.46,1.46,0,0,0-.16.69l-.55,6.62s0,.89-.14,2.58l-.14,2.9c0,.43,0,.68.14.76s.34.09.74,0l2.67-.28a1,1,0,0,1,.64.07,1.47,1.47,0,0,1,.28.67,1.53,1.53,0,0,1,.09.37c0,.43-.14.66-.51.69s-1,.12-1.75.19-1.58.12-2,.18-.51.32-.51.78-.06,1-.09,1.7,0,1.3,0,1.7q-.46,5.84-.64,6.81c-.06.37-.13.94-.21,1.7s-.13,1.23-.16,1.38A1.26,1.26,0,0,0,222.94,149Z"/><path d="M246.44,142.46q0-1,.11-3t.12-3q0-1.06.16-3.1t.16-3q.28-4,.37-6.16.09-1.56.18-4.51a4.53,4.53,0,0,1,0-.78c.06-.77.43-1.13,1.1-1.11l3.54.46a.64.64,0,0,1,.64.74,3,3,0,0,1,0,.87q0,1-.14,2.94l-.14,3.34q-.09,2.23-.18,3.34,0,.78-.09,2.3t-.14,2.3q0,.78,0,2.3v2.3q0,.87-.09,3.54t-.09,4.14q0,.32-.07,2.07a5.77,5.77,0,0,0,.12,2.07.83.83,0,0,1-.78,1.15l-.67.09-.76.09c-.28,0-.49.06-.64.09a5.63,5.63,0,0,1-2.67-.74,1.08,1.08,0,0,1-.51-.74q-.46-1.38-1.29-4.14-.18-.6-.74-2.48t-.83-2.9l-.48-1.93-.55-2.23q-.3-1.22-.48-1.91-1.29-5.06-2-7.59a21.05,21.05,0,0,0-.83-2.62q0,.46,0,1.4t-.09,1.45q0,.92-.11,2.53t-.12,2.92q0,1.31,0,2.51,0,2,.09,5.93l.14,8.33a4,4,0,0,1-.09.74.65.65,0,0,1-.6.51l-.37,0-.39.07a1.62,1.62,0,0,1-.35,0,2.85,2.85,0,0,0-.6,0H235a1.37,1.37,0,0,1-.51,0,1.68,1.68,0,0,1-1.15-.48,1.92,1.92,0,0,1-.28-1.31q.09-4.23.09-6.35,0-.87,0-3.63t0-4.28q0-1,.23-6.16.09-2.71,0-5.38,0-1.56-.18-4.78a1.71,1.71,0,0,1,.16-1,1.29,1.29,0,0,1,.81-.44,5.46,5.46,0,0,1,3.27.18,4.69,4.69,0,0,1,1.38.69,2.52,2.52,0,0,1,.69,1.15q.32,1.15.94,3.47t.9,3.52l.28.81c.15.44.26.79.32,1q.37,1.52,1.15,4.55t1.2,4.51q.32,1.29,1,3.66t.78,2.78a1.08,1.08,0,0,0,.23.37h.14Q246.44,143.43,246.44,142.46Z"/><path d="M261,123.51q0-1.06,0-1.61v-.64a1.47,1.47,0,0,0-.21-.78.82.82,0,0,0-.62-.18h-3a7.24,7.24,0,0,1-.92,0,.73.73,0,0,1-.53-.44,1.27,1.27,0,0,1-.16-.76.73.73,0,0,1,.78-.74c.34,0,.82,0,1.45,0l1.73.07,1.47,0a13.49,13.49,0,0,0,3.08-.23,23.45,23.45,0,0,1,5.38-.46q.83,0,2.35-.09c1-.06,1.69-.09,2-.09a1.19,1.19,0,0,1,1.2,1.06q.14.55-.28.69l-.23,0-.23,0-6.26.14h-.37c-.46,0-.74.12-.85.28a2.09,2.09,0,0,0-.07,1.15,6,6,0,0,1,0,.88q-.09,1.84-.18,2.76t-.23,2.67q0,.51-.14,1.43t-.16,1.66c0,.49-.08,1-.11,1.43q-.37,5.29-.51,7.68-.23,3.13-.46,5.61t-.23,3.36c0,.15,0,.4,0,.74s0,.6,0,.78a1,1,0,0,1-.55.88,6.54,6.54,0,0,1-1.54.37q-1,.14-1.36.23a2.33,2.33,0,0,1-1.1-.14q-.87-.28-.78-1.52.09-1.06.41-4.16t.46-5.22q.23-2.85.51-8.74l.14-2.78.14-2.78v-1h0Q261,124.57,261,123.51Z"/><path d="M284.3,121.53a43.7,43.7,0,0,0-.46,6.53l-.14,7.87v5.15q0,1-.09,2.88t-.09,2.88q0,.46,0,1.38c0,.62,0,1.07,0,1.38a1.16,1.16,0,0,1-.11.64,1.6,1.6,0,0,1-.53.32,8.14,8.14,0,0,1-2.16.55q-.6,0-1.75,0a.5.5,0,0,1-.46-.23A3.53,3.53,0,0,1,278,149c0-.21.05-.54.07-1s0-.75,0-1q0-1.15.18-13.66,0-4.14.28-8.37,0-.83.18-2.55t.18-2.6q0-.6,0-1.79a1.16,1.16,0,0,1,.87-1.29,2.87,2.87,0,0,1,1.56-.18,5.7,5.7,0,0,1,2.25.69,1.86,1.86,0,0,1,.85.62,3,3,0,0,1,.16,1.22Q284.44,120.75,284.3,121.53Z"/><path d="M300.77,142.46q0-1,.12-3t.12-3q0-1.06.16-3.1t.16-3q.28-4,.37-6.16.09-1.56.18-4.51a4.48,4.48,0,0,1,0-.78c.06-.77.43-1.13,1.1-1.11l3.54.46a.64.64,0,0,1,.64.74,3,3,0,0,1,0,.87q0,1-.14,2.94l-.14,3.34q-.09,2.23-.18,3.34,0,.78-.09,2.3t-.14,2.3q0,.78,0,2.3v2.3q0,.87-.09,3.54t-.09,4.14q0,.32-.07,2.07a5.77,5.77,0,0,0,.12,2.07.83.83,0,0,1-.78,1.15l-.67.09-.76.09c-.28,0-.49.06-.64.09a5.63,5.63,0,0,1-2.67-.74,1.08,1.08,0,0,1-.51-.74q-.46-1.38-1.29-4.14-.18-.6-.74-2.48t-.83-2.9l-.48-1.93-.55-2.23q-.3-1.22-.48-1.91-1.29-5.06-2-7.59a21.14,21.14,0,0,0-.83-2.62q0,.46,0,1.4t-.09,1.45q0,.92-.11,2.53t-.12,2.92q0,1.31,0,2.51,0,2,.09,5.93.09,5.52.14,8.33a3.93,3.93,0,0,1-.09.74.65.65,0,0,1-.6.51l-.37,0-.39.07a1.62,1.62,0,0,1-.35,0,2.85,2.85,0,0,0-.6,0h-1.2a1.37,1.37,0,0,1-.51,0,1.68,1.68,0,0,1-1.15-.48,1.92,1.92,0,0,1-.28-1.31q.09-4.23.09-6.35,0-.87,0-3.63t0-4.28q0-1,.23-6.16.09-2.71,0-5.38,0-1.56-.18-4.78a1.71,1.71,0,0,1,.16-1,1.29,1.29,0,0,1,.81-.44,5.46,5.46,0,0,1,3.27.18,4.7,4.7,0,0,1,1.38.69,2.52,2.52,0,0,1,.69,1.15q.32,1.15.94,3.47t.9,3.52l.28.81c.15.44.26.79.32,1q.37,1.52,1.15,4.55t1.2,4.51q.32,1.29,1,3.66t.78,2.78a1.09,1.09,0,0,0,.23.37h.14Q300.77,143.43,300.77,142.46Z"/><path d="M315.76,149l2.62-.39,2.62-.39h.18q.92-.09,1.15.14t.14,1.15a.62.62,0,0,1-.46.74l-.28,0-.28,0a45.32,45.32,0,0,0-5.66.73,6.87,6.87,0,0,1-1.22.12,8,8,0,0,0-1,.07c-.8,0-1.41,0-1.84,0a1.58,1.58,0,0,1-1.79-1.38,3.11,3.11,0,0,1-.09-1.52q.6-3.72.92-8.51,0-.87.11-2.58t.12-2.53.41-6.12q0-1.43.23-4.28.14-1.75.32-5.24a1.2,1.2,0,0,1,.41-.83,3.92,3.92,0,0,1,2-.78l2-.16,2.32-.16a7,7,0,0,1,.9,0,10.3,10.3,0,0,0,1,0,4,4,0,0,0,.87-.18h.41a1.91,1.91,0,0,1,.8.21,1.53,1.53,0,0,1,.12.8,1.83,1.83,0,0,1-.14.94c-.09.11-.4.18-.92.21q-2.39.09-3.59.18a.92.92,0,0,0-.58.18,1.47,1.47,0,0,0-.16.69l-.55,6.62s0,.89-.14,2.58l-.14,2.9c0,.43,0,.68.14.76s.34.09.74,0l2.67-.28a1,1,0,0,1,.64.07,1.47,1.47,0,0,1,.28.67,1.54,1.54,0,0,1,.09.37q0,.64-.51.69c-.37.06-1,.12-1.75.19s-1.58.12-2,.18-.51.32-.51.78-.06,1-.09,1.7,0,1.3,0,1.7q-.46,5.84-.64,6.81c-.06.37-.13.94-.21,1.7s-.13,1.23-.16,1.38A1.26,1.26,0,0,0,315.76,149Z"/><path d="M330,116.06c0,.4-.08.68-.09.83s-.05.38-.12.69a4,4,0,0,1-.23.78,3.5,3.5,0,0,1-.37.64,4.59,4.59,0,0,0-.32.37,4.66,4.66,0,0,1-.32.37,1.51,1.51,0,0,1-2.39,0,.6.6,0,0,1,0-1l.18-.18a3.5,3.5,0,0,0,1.7-3s0-.64-.14-1.84l-.14-.69a.77.77,0,0,1,.69-1,.8.8,0,0,1,1.1.51,7.06,7.06,0,0,1,.37,1.43c0,.15,0,.38,0,.69s0,.54,0,.69S330,115.66,330,116.06Z"/><path d="M350.58,134.55a6.17,6.17,0,0,1,.14,1,8,8,0,0,0,.09.88,30.88,30.88,0,0,1-1.29,7.31,9.85,9.85,0,0,1-.46,1.13,8.86,8.86,0,0,1-.48.9l-.67,1q-.46.69-.6.88a12.82,12.82,0,0,1-3.63,3.63l-.09,0a4.38,4.38,0,0,1-1,.48,9.37,9.37,0,0,1-1.77.35,6.79,6.79,0,0,1-2.74-.35,11.76,11.76,0,0,1-3.24-1.63,9.3,9.3,0,0,1-1.47-3.06,12.91,12.91,0,0,1-.55-2.87v-1.15l.14-.69a12.63,12.63,0,0,1,.46-1.56q.28-.69,1-.28c.21.09.32.21.32.37l0,.18c0,.09-.08.25-.14.48a10.72,10.72,0,0,0-.28,3.15,5.16,5.16,0,0,0,4.65,5.06,3.49,3.49,0,0,0,2.9-.58,4.72,4.72,0,0,0,1.61-2.58,18.46,18.46,0,0,0,.6-3.24,22.46,22.46,0,0,0,0-3.22,13.49,13.49,0,0,0-.18-2.3l-.14-.69q-.87-3.72-3.73-4.51l-2.07-.55a4.52,4.52,0,0,1-2.85-4.37,10.77,10.77,0,0,1,.74-3.5,12.42,12.42,0,0,1,1.61-3.13,7.49,7.49,0,0,1,4.32-2.95,23.54,23.54,0,0,1,2.9-.55,5.38,5.38,0,0,1,3.27,1,5.85,5.85,0,0,1,1.61,1.33,2.07,2.07,0,0,1,.23.41c.06.31.06.49,0,.55a.45.45,0,0,1-.41.23,1.58,1.58,0,0,1-.6-.41,8.17,8.17,0,0,0-2.25-1.43,3.91,3.91,0,0,0-3.08,0,10.33,10.33,0,0,0-2.76,1.24,6.87,6.87,0,0,0-2.76,3.4,10.88,10.88,0,0,0-1,2.94,2.53,2.53,0,0,0-.09.51,1.73,1.73,0,0,0,.25,1.22,1,1,0,0,0,.94.25,24.93,24.93,0,0,1,3.31-.14c.31,0,.83,0,1.59-.09a11.75,11.75,0,0,1,1.73,0,5.51,5.51,0,0,1,4.19,2.25A8.21,8.21,0,0,1,350.58,134.55Z"/><path d="M366.32,120.52c-.37.06-.58.09-.64.09a.92.92,0,0,1-.6-.18.6.6,0,0,1-.41-.51c0-.09.14-.28.41-.55a5.63,5.63,0,0,1,1-.46,8.94,8.94,0,0,0,1.66-.87,2.83,2.83,0,0,1,1.75-.55,51.56,51.56,0,0,1,6.67.14,4.37,4.37,0,0,1,2.25,1c.18.15.49.38.92.67s.74.51.92.67a6,6,0,0,1,1.43,2.35,11,11,0,0,1,.51,5.89,15.94,15.94,0,0,1-1.52,4.74q-.51.92-2.35,5.52a36.15,36.15,0,0,1-2.62,5.34l-2.9,4.74q-.78,1.29-1.89,2.9a.59.59,0,0,1-.6.37,2.72,2.72,0,0,0-.44-.09l-.46-.07a.83.83,0,0,1-.37-.18.93.93,0,0,1-.3-.39l-.41-.18-.67,0a5.28,5.28,0,0,1-.67-.07q-1.2-.09-1.06-1.43c0-.46.08-1.13.16-2s.13-1.55.16-2,.06-.94.09-1.63.06-1.33.09-1.91.06-1.13.09-1.66q.09-1.1.23-3.31t.23-3.31q.18-3.5.23-5.52,0-2.34,0-7a3.5,3.5,0,0,0,0-.64C367,120.4,366.68,120.46,366.32,120.52Zm5.7,25,.23-.28q.55-1,.83-1.47a46.62,46.62,0,0,0,3.73-7.54q.18-.55,2.21-5a12.38,12.38,0,0,0,1.29-6.49q-.14-3.63-3.91-5.24a9.59,9.59,0,0,0-2.62-.32c-.37,0-.61,0-.71.14a1.39,1.39,0,0,0-.16.83q-.09,2.07-.18,6.3,0,.83,0,2.44t-.09,2.44q0,1.06-.23,3.22t-.23,3.27q-.28,4.88-.41,7.27a2.52,2.52,0,0,0,0,.78C371.8,145.77,371.9,145.65,372,145.5Z"/><path d="M380.85,150.14a7.88,7.88,0,0,1,.28-1.33q.37-1.15.87-3.33t.74-3.06q.28-1.1.69-3.15t.51-2.55q1.2-5.43,1.52-6.62l.39-1.36.46-1.59.39-1.33,1.24-5.11a3.07,3.07,0,0,0,0-.87,1.17,1.17,0,0,1,.64-1.47q.28-.14.85-.37a6.49,6.49,0,0,0,.81-.37,6.89,6.89,0,0,1,2.12-.28,1,1,0,0,1,1.2.78,4,4,0,0,1,.23.88q.69,6.35.92,8.83.23,2.12.6,5.75c0,.15.05.31.07.48s0,.35,0,.55,0,.36,0,.48q.37,3.4.55,5.06.18,2.16.55,6.39a10.68,10.68,0,0,1,0,1.17v1.22a.89.89,0,0,1-.41.69,10,10,0,0,1-3.08,1.29.44.44,0,0,0-.32.14.83.83,0,0,1-.92,0,1,1,0,0,1-.55-1,63.91,63.91,0,0,0-.64-8.6c-.06-.37-.13-.9-.21-1.61s-.13-1.24-.16-1.61a1.66,1.66,0,0,0-.23-.71c-.09-.11-.31-.14-.64-.12s-1.6.08-3.59.23a.88.88,0,0,0-.87.83q-.18,1-1.2,5.43-.18.64-.53,1.93t-.48,1.93a20.61,20.61,0,0,1-.78,2.76c-.31.28-.51.37-.6.28s-.06-.09-.09-.09a.13.13,0,0,0,0,.09v0l-.28.14A3.11,3.11,0,0,1,380.85,150.14Zm4.78-13.94,1.29-.14q.41,0,1.22-.07l1.22,0c.31,0,.49,0,.55-.11s.06-.27,0-.58-.14-1.06-.23-1.91-.15-1.48-.18-1.91q-.09-1-.3-3.06c-.14-1.36-.25-2.38-.34-3.06a1.61,1.61,0,0,0-.07-.39,1.62,1.62,0,0,1-.07-.35A55.6,55.6,0,0,0,385.64,136.21Z"/><path d="M406,130.92q.3-1.06.44-1.61.41-1.79,1.13-5.13t1-4.71q.37-1.75.55-2.67a1.31,1.31,0,0,1,1-1.2,3.53,3.53,0,0,1,3,.74,2.49,2.49,0,0,1,.46.32l.37.32a1.81,1.81,0,0,1,.64,2.07q-1.61,6.17-2.21,9-.23,1.15-.55,2.41t-.74,2.81q-.41,1.54-.64,2.37-.51,2.07-2,8.19-.18.83-.53,2.51t-.53,2.51l-.69,2.81c-.12.31-.25.46-.37.46a4,4,0,0,1-1.33.18,23,23,0,0,1-2.94-.51q-.37-.09-.62-.8a2.19,2.19,0,0,1-.12-1.27l1.52-6.35q.51-2.07,1.52-6.3a4.43,4.43,0,0,0,0-1.79L403.16,131q-.28-1.06-.83-3.08t-.83-3.08a.62.62,0,0,0,0-.14.61.61,0,0,1,0-.14q-.28-.74-.85-2.21t-.85-2.21q-.23-.6-.37-1.06a1.21,1.21,0,0,1,.46-1.43q.55-.41,1.06.32a3.16,3.16,0,0,1,.55,1q.41,1.24,1.33,3.73a21.79,21.79,0,0,1,.76,2.41q.44,1.63.48,1.77.46,1.66,1.38,4.88a2.13,2.13,0,0,0,.23.41Q405.69,132,406,130.92Z"/><path d="M429.52,128a17.79,17.79,0,0,1,2.62-6.07q.18-.28,1.7-1.93a8.69,8.69,0,0,1,2.81-2.07,4.68,4.68,0,0,1,4.78,0,7.83,7.83,0,0,1,1.29,1.29.53.53,0,0,1,0,.78c-.15.25-.38.28-.69.09l-.18-.12a.29.29,0,0,0-.14-.07,4.1,4.1,0,0,0-5.29,0,12.56,12.56,0,0,0-4.78,7,37.24,37.24,0,0,0-1.43,9.57q0,1-.14,2.94a18.76,18.76,0,0,0,.41,4.92,2.34,2.34,0,0,0,2,2.16,4.85,4.85,0,0,0,4.23-1,8.36,8.36,0,0,0,2.71-4.28,23.88,23.88,0,0,0,.69-4.92v-.6a.45.45,0,0,0-.51-.51h-2.44a1.88,1.88,0,0,1-1.56-.78q-.51-.74.23-1.1a1.64,1.64,0,0,1,.83-.19l1.56-.12,1.56-.11,3.08-.41a1.43,1.43,0,0,1,1.06.16,3.37,3.37,0,0,1,.74,1.13,7,7,0,0,1,.37,1.24,5.75,5.75,0,0,1,0,1.2c0,.25-.08.61-.16,1.08a7.44,7.44,0,0,0-.11,1.08,31.92,31.92,0,0,1-.78,5.66,9.45,9.45,0,0,0-.32,1.33,10.49,10.49,0,0,1-3.4,5,3.89,3.89,0,0,1-1.29.83,5.85,5.85,0,0,1-4.28.28q-.23-.09-2.35-1.33a10.29,10.29,0,0,1-3-3.08,6,6,0,0,1-1-3.18q-.09-1.38-.32-3.68A65.07,65.07,0,0,1,429.52,128Z"/><path d="M454.27,121.53a43.84,43.84,0,0,0-.46,6.53l-.14,7.87v5.15q0,1-.09,2.88t-.09,2.88c0,.31,0,.77,0,1.38s0,1.07,0,1.38a1.16,1.16,0,0,1-.11.64,1.6,1.6,0,0,1-.53.32,8.14,8.14,0,0,1-2.16.55q-.6,0-1.75,0a.5.5,0,0,1-.46-.23,3.53,3.53,0,0,1-.51-1.89c0-.21.05-.54.07-1s0-.75,0-1q0-1.15.18-13.66,0-4.14.28-8.37,0-.83.18-2.55t.18-2.6q0-.6,0-1.79a1.16,1.16,0,0,1,.87-1.29,2.87,2.87,0,0,1,1.56-.18,5.71,5.71,0,0,1,2.25.69,1.85,1.85,0,0,1,.85.62,3,3,0,0,1,.16,1.22Q454.4,120.75,454.27,121.53Z"/><path d="M464.89,132.8a9.48,9.48,0,0,1,1.52-.18q1,0,.74,1.06-.32,1.29-1.47,1.15-.23,0-1.84.23-.51,0-.51.64,0,3.77-.23,11.55,0,.46,0,1.4c0,.63,0,1.1,0,1.4a1.6,1.6,0,0,1-.09.64.61.61,0,0,1-.21.25,2.62,2.62,0,0,1-.62.16,11.83,11.83,0,0,1-1.89.18q-1.24,0-1.61.09A.59.59,0,0,1,458,151a4.24,4.24,0,0,1-.46-1.7q0-.88,0-2.67t0-2.71q.37-10.9.37-12.33,0-.83.18-5.93l.41-6.49q.09-.78.51-.92a11.35,11.35,0,0,1,1.2-.37l.9,0q.62,0,.94,0a11.06,11.06,0,0,0,1.66-.09,8,8,0,0,0,1-.09c.44-.06.73-.09.85-.09q.46-.09,1.47-.18l.6-.09.41,0c.06,0,.54-.09,1.43-.28a4.94,4.94,0,0,1,1.1-.09.54.54,0,0,1,.37.09c.15.06.2.29.14.69a2.27,2.27,0,0,0,0,.74c.06.25-.06.4-.37.46l-1,.16-1.13.16q-2.44.18-3.5.32a1.58,1.58,0,0,0-.83.28,1.49,1.49,0,0,0-.23.87q0,1.15-.21,3.54t-.25,3.63q-.14,2.07-.14,4c0,.09,0,.23,0,.41s0,.34,0,.46Q464.57,132.8,464.89,132.8Z"/><path d="M479.8,123.51q0-1.06,0-1.61v-.64a1.47,1.47,0,0,0-.21-.78.82.82,0,0,0-.62-.18h-3a7.25,7.25,0,0,1-.92,0,.73.73,0,0,1-.53-.44,1.26,1.26,0,0,1-.16-.76.73.73,0,0,1,.78-.74c.34,0,.82,0,1.45,0l1.73.07,1.47,0a13.48,13.48,0,0,0,3.08-.23,23.45,23.45,0,0,1,5.38-.46q.83,0,2.35-.09c1-.06,1.69-.09,2-.09a1.19,1.19,0,0,1,1.2,1.06q.14.55-.28.69l-.23,0-.23,0-6.26.14h-.37c-.46,0-.74.12-.85.28a2.09,2.09,0,0,0-.07,1.15,6,6,0,0,1,0,.88q-.09,1.84-.18,2.76t-.23,2.67q0,.51-.14,1.43t-.16,1.66c0,.49-.08,1-.12,1.43q-.37,5.29-.51,7.68-.23,3.13-.46,5.61t-.23,3.36c0,.15,0,.4,0,.74s0,.6,0,.78a1,1,0,0,1-.55.88,6.54,6.54,0,0,1-1.54.37q-1,.14-1.36.23a2.33,2.33,0,0,1-1.1-.14q-.87-.28-.78-1.52.09-1.06.41-4.16t.46-5.22q.23-2.85.51-8.74,0-.92.14-2.78t.14-2.78v-1h0Q479.75,124.57,479.8,123.51Z"/><path d="M514.48,134.55a6.17,6.17,0,0,1,.14,1,8,8,0,0,0,.09.88,30.88,30.88,0,0,1-1.29,7.31,9.85,9.85,0,0,1-.46,1.13,8.86,8.86,0,0,1-.48.9l-.67,1q-.46.69-.6.88a12.82,12.82,0,0,1-3.63,3.63l-.09,0a4.38,4.38,0,0,1-1,.48,9.37,9.37,0,0,1-1.77.35,6.79,6.79,0,0,1-2.74-.35,11.76,11.76,0,0,1-3.24-1.63,9.3,9.3,0,0,1-1.47-3.06,12.91,12.91,0,0,1-.55-2.87v-1.15l.14-.69a12.63,12.63,0,0,1,.46-1.56q.28-.69,1-.28c.21.09.32.21.32.37l0,.18c0,.09-.08.25-.14.48a10.72,10.72,0,0,0-.28,3.15,5.16,5.16,0,0,0,4.65,5.06,3.49,3.49,0,0,0,2.9-.58,4.72,4.72,0,0,0,1.61-2.58,18.46,18.46,0,0,0,.6-3.24,22.46,22.46,0,0,0,0-3.22,13.49,13.49,0,0,0-.18-2.3l-.14-.69q-.87-3.72-3.73-4.51l-2.07-.55a4.52,4.52,0,0,1-2.85-4.37,10.77,10.77,0,0,1,.74-3.5,12.42,12.42,0,0,1,1.61-3.13,7.49,7.49,0,0,1,4.32-2.95,23.54,23.54,0,0,1,2.9-.55,5.38,5.38,0,0,1,3.27,1,5.85,5.85,0,0,1,1.61,1.33,2.07,2.07,0,0,1,.23.41c.06.31.06.49,0,.55a.45.45,0,0,1-.41.23,1.58,1.58,0,0,1-.6-.41,8.17,8.17,0,0,0-2.25-1.43,3.91,3.91,0,0,0-3.08,0,10.33,10.33,0,0,0-2.76,1.24,6.87,6.87,0,0,0-2.76,3.4,10.88,10.88,0,0,0-1,2.94,2.53,2.53,0,0,0-.09.51,1.73,1.73,0,0,0,.25,1.22,1,1,0,0,0,.94.25,24.93,24.93,0,0,1,3.31-.14c.31,0,.83,0,1.59-.09a11.75,11.75,0,0,1,1.73,0,5.51,5.51,0,0,1,4.19,2.25A8.21,8.21,0,0,1,514.48,134.55Z"/><path d="M518.11,148.12a.66.66,0,0,1,.78-.18,3.17,3.17,0,0,1,.74.18,1.35,1.35,0,0,1,1.15,1.33,2.72,2.72,0,0,1,0,1.29q-.46.87-1.2.64a8.21,8.21,0,0,1-1.66-.83,1,1,0,0,1-.41-1.06A1.9,1.9,0,0,1,518.11,148.12Z"/></svg>