<svg id="Layer_1" data-name="Layer 1" xmlns="http://www.w3.org/2000/svg" viewBox="0 0 579.27 157.6"><title>7</title><path d="M157,30.38l.11-.48q.09-.37.69-3.08t1-4.14q.37-1.47,1.15-4.16l1-3.33q1-3,1.06-3.5.41-1.84,1.52-5.34.18-.78.83-.74a3,3,0,0,1,1.1.23q1,.55,2.94,1.75.41.23.32,1a.54.54,0,0,1,0,.16.5.5,0,0,1-.09.16,12.51,12.51,0,0,0-.69,1.56q-.32.87-.51,1.52l-.48,1.73q-.3,1.08-.44,1.63-.37,1.24-1.08,3.73t-1.08,3.73q-1.34,5.2-1.61,6.39l-1,5.57q-.55,3.86-.87,5.75a1.47,1.47,0,0,1-.46,1,.85.85,0,0,1-.87.11A9.22,9.22,0,0,1,156,39.38a2.07,2.07,0,0,1-.64-1.38q-.09-.92-.32-2.71t-.23-1.93q-.28-2.39-.41-3.63-.28-2.21-.37-3.36-.09-1.89-.87-6.9-.55-3.17-1.56-9.52-.09-.37-.25-1.08c-.11-.48-.18-.83-.21-1.08a1.75,1.75,0,0,1,.16-1.13.67.67,0,0,1,.76-.34.78.78,0,0,1,.64.64,18.92,18.92,0,0,1,.51,1.93q0,.37.55,3.91t.83,5.38q.09.46,1.66,10,.14.69.32,2.07l.18.6h.18A2.2,2.2,0,0,1,157,30.38Z"/><path d="M171,39.74a7.82,7.82,0,0,1,.28-1.33q.37-1.15.87-3.33t.74-3.06q.28-1.1.69-3.15t.51-2.55q1.2-5.43,1.52-6.62l.39-1.36.46-1.59.39-1.33,1.24-5.11a3.1,3.1,0,0,0,0-.87A1.17,1.17,0,0,1,178.71,8q.28-.14.85-.37a6.26,6.26,0,0,0,.81-.37,6.81,6.81,0,0,1,2.12-.28,1,1,0,0,1,1.2.78,4,4,0,0,1,.23.87q.69,6.35.92,8.83.23,2.12.6,5.75c0,.15.05.31.07.48s0,.35,0,.55,0,.36,0,.48q.37,3.4.55,5.06.18,2.16.55,6.39a10.67,10.67,0,0,1,0,1.17v1.22a.89.89,0,0,1-.41.69,10,10,0,0,1-3.08,1.29.44.44,0,0,0-.32.14.83.83,0,0,1-.92,0,1,1,0,0,1-.55-1,64,64,0,0,0-.64-8.6q-.09-.55-.21-1.61t-.16-1.61a1.66,1.66,0,0,0-.23-.71Q180,27,179.53,27t-3.59.23a.88.88,0,0,0-.87.83q-.18,1-1.2,5.43-.18.64-.53,1.93t-.48,1.93a20.49,20.49,0,0,1-.78,2.76q-.46.41-.6.28c0-.06-.06-.09-.09-.09a.13.13,0,0,0,0,.09v0l-.28.14A3.1,3.1,0,0,1,171,39.74Zm4.78-13.94,1.29-.14q.41,0,1.22-.07l1.22,0q.46,0,.55-.12t0-.57q-.09-.64-.23-1.91t-.18-1.91q-.09-1-.3-3.06T179,14.95a1.62,1.62,0,0,0-.07-.39,1.6,1.6,0,0,1-.07-.35A55.61,55.61,0,0,0,175.81,25.81Z"/><path d="M195.86,20.33q-.14,8.65-.14,8.74,0,1.29-.37,7.36a5.59,5.59,0,0,0,0,.85,5.75,5.75,0,0,1,0,.85q0,.51.32.64l1,.14,3.73-.14a1.69,1.69,0,0,1,.55,0q.46,0,.55.64a3.11,3.11,0,0,1,0,1.29c-.08.12-.42.18-1,.18-.18,0-.44,0-.78,0s-.6,0-.78,0h-1.33l-2.53-.14q-.64,0-1.89.07l-1.89.12h-.23a1.51,1.51,0,0,1-1.38-2q.46-3.22.74-9.71.14-2.21.23-9.89,0-2.07.18-6.21V9.38c0-.21,0-.54,0-1s0-.75,0-1a1.2,1.2,0,0,1,.87-1.33,4.65,4.65,0,0,1,4.19.83A1.13,1.13,0,0,1,196.19,8V9.61h0Q196,16.79,195.86,20.33Z"/><path d="M210,38.64l2.62-.39,2.62-.39h.18q.92-.09,1.15.14t.14,1.15a.62.62,0,0,1-.46.74l-.28,0-.28,0a45.23,45.23,0,0,0-5.66.74,7,7,0,0,1-1.22.12,7.87,7.87,0,0,0-1,.07q-1.2,0-1.84,0a1.58,1.58,0,0,1-1.79-1.38A3.11,3.11,0,0,1,204.1,38q.6-3.73.92-8.51,0-.87.11-2.58t.12-2.53.41-6.12q0-1.43.23-4.28.14-1.75.32-5.24a1.19,1.19,0,0,1,.41-.83,3.92,3.92,0,0,1,2-.78l2-.16,2.32-.16a6.79,6.79,0,0,1,.9,0,10.29,10.29,0,0,0,1,0,4,4,0,0,0,.87-.18h.41a1.9,1.9,0,0,1,.81.21,1.54,1.54,0,0,1,.11.8,1.84,1.84,0,0,1-.14.94q-.14.16-.92.21-2.39.09-3.59.18a.92.92,0,0,0-.58.18,1.46,1.46,0,0,0-.16.69l-.55,6.62s0,.89-.14,2.58l-.14,2.9q0,.64.14.76t.74,0l2.67-.28a1,1,0,0,1,.64.07,1.46,1.46,0,0,1,.28.67,1.53,1.53,0,0,1,.09.37c0,.43-.14.66-.51.69s-1,.12-1.75.18-1.58.12-2,.18-.51.32-.51.78-.06,1-.09,1.7,0,1.3,0,1.7q-.46,5.84-.64,6.81c-.06.37-.13.94-.21,1.7s-.13,1.23-.16,1.38A1.27,1.27,0,0,0,210,38.64Z"/><path d="M233.54,32.06q0-1,.11-3t.12-3q0-1.06.16-3.1t.16-3q.28-4,.37-6.16.09-1.56.18-4.51a4.55,4.55,0,0,1,0-.78q.09-1.15,1.1-1.1l3.54.46a.64.64,0,0,1,.64.74,3,3,0,0,1,0,.87q0,1-.14,2.94l-.14,3.33q-.09,2.23-.18,3.33,0,.78-.09,2.3t-.14,2.3q0,.78,0,2.3v2.3q0,.87-.09,3.54T239,35.88q0,.32-.07,2.07a5.77,5.77,0,0,0,.12,2.07.83.83,0,0,1-.78,1.15l-.67.09-.76.09-.64.09a5.62,5.62,0,0,1-2.67-.74A1.08,1.08,0,0,1,233,40q-.46-1.38-1.29-4.14-.18-.6-.74-2.48t-.83-2.9l-.48-1.93-.55-2.23q-.3-1.22-.48-1.91-1.29-5.06-2-7.59a21.19,21.19,0,0,0-.83-2.62q0,.46,0,1.4T225.72,17q0,.92-.11,2.53t-.12,2.92q0,1.31,0,2.51,0,2,.09,5.93.09,5.52.14,8.33a4,4,0,0,1-.09.74.65.65,0,0,1-.6.51l-.37,0-.39.07a1.67,1.67,0,0,1-.35,0,2.77,2.77,0,0,0-.6,0h-1.2a1.42,1.42,0,0,1-.51,0,1.68,1.68,0,0,1-1.15-.48,1.92,1.92,0,0,1-.28-1.31q.09-4.23.09-6.35,0-.87,0-3.63t0-4.28q0-1,.23-6.16.09-2.71,0-5.38,0-1.56-.18-4.78a1.71,1.71,0,0,1,.16-1,1.29,1.29,0,0,1,.81-.44,5.43,5.43,0,0,1,3.27.18,4.69,4.69,0,0,1,1.38.69,2.52,2.52,0,0,1,.69,1.15q.32,1.15.94,3.47t.9,3.52l.28.8q.23.67.32,1,.37,1.52,1.15,4.55t1.2,4.51q.32,1.29,1,3.66t.78,2.78a1.07,1.07,0,0,0,.23.37h.14Q233.54,33,233.54,32.06Z"/><path d="M248.12,13.11q0-1.06,0-1.61v-.64a1.47,1.47,0,0,0-.21-.78.82.82,0,0,0-.62-.18h-3a7,7,0,0,1-.92,0,.73.73,0,0,1-.53-.44,1.26,1.26,0,0,1-.16-.76.73.73,0,0,1,.78-.74q.51,0,1.45,0l1.73.07,1.47,0a13.55,13.55,0,0,0,3.08-.23,23.33,23.33,0,0,1,5.38-.46q.83,0,2.35-.09t2-.09a1.19,1.19,0,0,1,1.2,1.06q.14.55-.28.69l-.23,0-.23,0-6.26.14h-.37q-.69,0-.85.28a2.09,2.09,0,0,0-.07,1.15,6,6,0,0,1,0,.87q-.09,1.84-.18,2.76t-.23,2.67q0,.51-.14,1.43T253.16,20q-.07.74-.11,1.43-.37,5.29-.51,7.68-.23,3.13-.46,5.61T251.84,38q0,.23,0,.74c0,.34,0,.6,0,.78a1,1,0,0,1-.55.87,6.59,6.59,0,0,1-1.54.37q-1,.14-1.36.23a2.33,2.33,0,0,1-1.1-.14q-.87-.28-.78-1.52.09-1.06.41-4.16t.46-5.22q.23-2.85.51-8.74l.14-2.78.14-2.78v-1h0Q248.07,14.17,248.12,13.11Z"/><path d="M271.39,11.13a43.71,43.71,0,0,0-.46,6.53l-.14,7.87v5.15q0,1-.09,2.88t-.09,2.88q0,.46,0,1.38t0,1.38a1.15,1.15,0,0,1-.11.64,1.58,1.58,0,0,1-.53.32,8.18,8.18,0,0,1-2.16.55q-.6,0-1.75,0a.49.49,0,0,1-.46-.23,3.53,3.53,0,0,1-.51-1.89c0-.21.05-.54.07-1s0-.75,0-1q0-1.15.18-13.66,0-4.14.28-8.37,0-.83.18-2.55t.18-2.6q0-.6,0-1.79a1.17,1.17,0,0,1,.87-1.29,2.9,2.9,0,0,1,1.56-.18,5.74,5.74,0,0,1,2.25.69,1.86,1.86,0,0,1,.85.62,3,3,0,0,1,.16,1.22Q271.53,10.35,271.39,11.13Z"/><path d="M287.86,32.06q0-1,.11-3t.12-3q0-1.06.16-3.1t.16-3q.28-4,.37-6.16.09-1.56.18-4.51a4.55,4.55,0,0,1,0-.78q.09-1.15,1.1-1.1l3.54.46a.64.64,0,0,1,.64.74,3,3,0,0,1,0,.87l-.14,2.94q0,1.1-.14,3.33T293.8,19q0,.78-.09,2.3t-.14,2.3q0,.78,0,2.3v2.3q0,.87-.09,3.54t-.09,4.14q0,.32-.07,2.07a5.77,5.77,0,0,0,.12,2.07.83.83,0,0,1-.78,1.15l-.67.09-.76.09-.64.09a5.62,5.62,0,0,1-2.67-.74,1.08,1.08,0,0,1-.51-.74q-.46-1.38-1.29-4.14-.18-.6-.74-2.48t-.83-2.9L284,28.52l-.55-2.23q-.3-1.22-.48-1.91-1.29-5.06-2-7.59a21.19,21.19,0,0,0-.83-2.62q0,.46,0,1.4T280,17q0,.92-.11,2.53t-.12,2.92q0,1.31,0,2.51,0,2,.09,5.93.09,5.52.14,8.33a4,4,0,0,1-.09.74.65.65,0,0,1-.6.51l-.37,0-.39.07a1.67,1.67,0,0,1-.35,0,2.77,2.77,0,0,0-.6,0h-1.2a1.42,1.42,0,0,1-.51,0,1.68,1.68,0,0,1-1.15-.48,1.92,1.92,0,0,1-.28-1.31q.09-4.23.09-6.35,0-.87,0-3.63t0-4.28q0-1,.23-6.16.09-2.71,0-5.38,0-1.56-.18-4.78a1.71,1.71,0,0,1,.16-1,1.29,1.29,0,0,1,.81-.44A5.43,5.43,0,0,1,278.8,7a4.69,4.69,0,0,1,1.38.69,2.52,2.52,0,0,1,.69,1.15q.32,1.15.94,3.47t.9,3.52l.28.8q.23.67.32,1,.37,1.52,1.15,4.55t1.2,4.51q.32,1.29,1,3.66t.78,2.78a1.07,1.07,0,0,0,.23.37h.14Q287.86,33,287.86,32.06Z"/><path d="M302.86,38.64l2.62-.39,2.62-.39h.18q.92-.09,1.15.14t.14,1.15a.62.62,0,0,1-.46.74l-.28,0-.28,0a45.22,45.22,0,0,0-5.66.74,7,7,0,0,1-1.22.12,7.88,7.88,0,0,0-1,.07q-1.2,0-1.84,0A1.58,1.58,0,0,1,297,39.51a3.13,3.13,0,0,1-.09-1.52q.6-3.73.92-8.51,0-.87.12-2.58t.12-2.53.41-6.12q0-1.43.23-4.28.14-1.75.32-5.24a1.19,1.19,0,0,1,.41-.83,3.92,3.92,0,0,1,2-.78l2-.16,2.32-.16a6.77,6.77,0,0,1,.9,0,10.29,10.29,0,0,0,1,0,4,4,0,0,0,.87-.18h.41a1.9,1.9,0,0,1,.81.21,1.54,1.54,0,0,1,.11.8,1.85,1.85,0,0,1-.14.94c-.09.11-.4.18-.92.21q-2.39.09-3.59.18a.92.92,0,0,0-.58.18,1.45,1.45,0,0,0-.16.69l-.55,6.62s0,.89-.14,2.58l-.14,2.9q0,.64.14.76t.74,0l2.67-.28a1,1,0,0,1,.64.07,1.46,1.46,0,0,1,.28.67,1.51,1.51,0,0,1,.09.37c0,.43-.14.66-.51.69s-1,.12-1.75.18-1.58.12-2,.18-.51.32-.51.78-.06,1-.09,1.7,0,1.3,0,1.7q-.46,5.84-.64,6.81c-.06.37-.13.94-.21,1.7s-.13,1.23-.16,1.38A1.27,1.27,0,0,0,302.86,38.64Z"/><path d="M324.34,28.57a65.12,65.12,0,0,1,1.47-11.45,17.24,17.24,0,0,1,1.7-5.06,24.89,24.89,0,0,1,1.93-3.31,5.24,5.24,0,0,1,3.31-2.12,2.09,2.09,0,0,1,1.43.09.19.19,0,0,1,.12.07l.14.16.12.14-.12.14-.14.16a.19.19,0,0,1-.12.07l-.6.12-.6.12a4.45,4.45,0,0,0-2.48,2,10.18,10.18,0,0,0-.69,1.22q-.32.67-.69,1.59t-.55,1.33a9.23,9.23,0,0,0-.87,2.85q-.41,2.71-1,7.36,0,.09-.28,2.44a18.23,18.23,0,0,0,.23,4,6.93,6.93,0,0,0,1.84,3.45,2.71,2.71,0,0,0,2.3.74,6.26,6.26,0,0,0,2-.69,7.29,7.29,0,0,0,1.61-1.33,42.94,42.94,0,0,0,4.46-7l.28-.55q.32-.74,1-.46a.84.84,0,0,1,.23.09,1.54,1.54,0,0,1,.78.55,2.31,2.31,0,0,1,0,1.1,12.25,12.25,0,0,1-1.52,4.69q-2,3.4-2.71,4.55a12.47,12.47,0,0,1-5,4.51,3.94,3.94,0,0,1-4.6-.64,6.71,6.71,0,0,1-2-2.81.83.83,0,0,0-.23-.37,2.27,2.27,0,0,1-.46-1.29q-.09-.83-.18-1.24v0Q324.34,31.79,324.34,28.57Z"/><path d="M339.89,39.74a7.77,7.77,0,0,1,.28-1.33q.37-1.15.87-3.33t.74-3.06q.28-1.1.69-3.15t.51-2.55q1.2-5.43,1.52-6.62l.39-1.36.46-1.59.39-1.33L347,10.3a3.12,3.12,0,0,0,0-.87A1.17,1.17,0,0,1,347.57,8q.28-.14.85-.37a6.24,6.24,0,0,0,.8-.37,6.81,6.81,0,0,1,2.12-.28,1,1,0,0,1,1.2.78,4,4,0,0,1,.23.87q.69,6.35.92,8.83.23,2.12.6,5.75a4.78,4.78,0,0,1,.07.48c0,.17,0,.35,0,.55s0,.36,0,.48q.37,3.4.55,5.06.18,2.16.55,6.39a10.67,10.67,0,0,1,0,1.17v1.22a.89.89,0,0,1-.41.69,10,10,0,0,1-3.08,1.29.44.44,0,0,0-.32.14.83.83,0,0,1-.92,0,1,1,0,0,1-.55-1,64,64,0,0,0-.64-8.6q-.09-.55-.21-1.61t-.16-1.61a1.65,1.65,0,0,0-.23-.71q-.14-.16-.64-.12t-3.59.23a.88.88,0,0,0-.87.83q-.18,1-1.2,5.43-.18.64-.53,1.93t-.48,1.93a20.32,20.32,0,0,1-.78,2.76q-.46.41-.6.28c0-.06-.06-.09-.09-.09a.13.13,0,0,0,0,.09v0l-.28.14A3.09,3.09,0,0,1,339.89,39.74Zm4.78-13.94,1.29-.14q.41,0,1.22-.07l1.22,0q.46,0,.55-.12t0-.57q-.09-.64-.23-1.91t-.18-1.91q-.09-1-.3-3.06t-.34-3.06a1.62,1.62,0,0,0-.07-.39,1.59,1.59,0,0,1-.07-.35A55.61,55.61,0,0,0,344.67,25.81Z"/><path d="M371.77,32.06q0-1,.11-3t.12-3q0-1.06.16-3.1t.16-3q.28-4,.37-6.16.09-1.56.18-4.51a4.6,4.6,0,0,1,0-.78q.09-1.15,1.1-1.1l3.54.46a.64.64,0,0,1,.64.74,3,3,0,0,1,0,.87L378,12.33q0,1.1-.14,3.33T377.7,19q0,.78-.09,2.3t-.14,2.3q0,.78,0,2.3v2.3q0,.87-.09,3.54t-.09,4.14q0,.32-.07,2.07a5.77,5.77,0,0,0,.12,2.07.83.83,0,0,1-.78,1.15l-.67.09-.76.09-.64.09a5.62,5.62,0,0,1-2.67-.74,1.09,1.09,0,0,1-.51-.74q-.46-1.38-1.29-4.14-.18-.6-.74-2.48t-.83-2.9l-.48-1.93-.55-2.23q-.3-1.22-.48-1.91-1.29-5.06-2-7.59a21.11,21.11,0,0,0-.83-2.62q0,.46,0,1.4T363.95,17q0,.92-.12,2.53t-.12,2.92q0,1.31,0,2.51,0,2,.09,5.93.09,5.52.14,8.33a4,4,0,0,1-.09.74.65.65,0,0,1-.6.51l-.37,0-.39.07a1.67,1.67,0,0,1-.34,0,2.77,2.77,0,0,0-.6,0h-1.2a1.42,1.42,0,0,1-.51,0,1.68,1.68,0,0,1-1.15-.48,1.93,1.93,0,0,1-.28-1.31q.09-4.23.09-6.35,0-.87,0-3.63t0-4.28q0-1,.23-6.16.09-2.71,0-5.38,0-1.56-.18-4.78a1.71,1.71,0,0,1,.16-1,1.3,1.3,0,0,1,.81-.44A5.43,5.43,0,0,1,362.7,7a4.68,4.68,0,0,1,1.38.69,2.52,2.52,0,0,1,.69,1.15q.32,1.15.94,3.47t.9,3.52l.28.8q.23.67.32,1,.37,1.52,1.15,4.55t1.2,4.51q.32,1.29,1,3.66t.78,2.78a1.06,1.06,0,0,0,.23.37h.14C371.75,33.2,371.77,32.71,371.77,32.06Z"/><path d="M381.75,10.12l-.64.09a.93.93,0,0,1-.6-.18.61.61,0,0,1-.41-.51c0-.09.14-.28.41-.55a5.53,5.53,0,0,1,1-.46,8.83,8.83,0,0,0,1.66-.87,2.83,2.83,0,0,1,1.75-.55,51.6,51.6,0,0,1,6.67.14,4.36,4.36,0,0,1,2.25,1c.18.15.49.38.92.67s.74.51.92.67a6,6,0,0,1,1.43,2.35,11,11,0,0,1,.51,5.89,15.92,15.92,0,0,1-1.52,4.74q-.51.92-2.35,5.52a36,36,0,0,1-2.62,5.34l-2.9,4.74q-.78,1.29-1.89,2.9a.59.59,0,0,1-.6.37,2.79,2.79,0,0,0-.44-.09l-.46-.07a.83.83,0,0,1-.37-.18.93.93,0,0,1-.3-.39l-.41-.18-.67,0a5.26,5.26,0,0,1-.67-.07q-1.2-.09-1.06-1.43,0-.69.16-2t.16-2q0-.6.09-1.63t.09-1.91q0-.87.09-1.66.09-1.1.23-3.31t.23-3.31q.18-3.5.23-5.52,0-2.35,0-7a3.51,3.51,0,0,0,0-.64Q382.3,10,381.75,10.12Zm5.7,25,.23-.28q.55-1,.83-1.47a46.72,46.72,0,0,0,3.73-7.54q.18-.55,2.21-5a12.4,12.4,0,0,0,1.29-6.49q-.14-3.63-3.91-5.24a9.6,9.6,0,0,0-2.62-.32q-.55,0-.71.14a1.39,1.39,0,0,0-.16.83q-.09,2.07-.18,6.3,0,.83,0,2.44T388,20.93q0,1.06-.23,3.22t-.23,3.27q-.28,4.88-.41,7.27a2.55,2.55,0,0,0,0,.78Q387.27,35.33,387.45,35.1Z"/><path d="M407.48,20.52q.3-1.06.44-1.61.41-1.79,1.13-5.13t1-4.71q.37-1.75.55-2.67a1.31,1.31,0,0,1,1-1.2,3.54,3.54,0,0,1,3,.74,2.63,2.63,0,0,1,.46.32l.37.32a1.81,1.81,0,0,1,.64,2.07q-1.61,6.16-2.21,9-.23,1.15-.55,2.42t-.74,2.81q-.41,1.54-.64,2.37-.51,2.07-2,8.19-.18.83-.53,2.51t-.53,2.51l-.69,2.81c-.12.31-.25.46-.37.46a4,4,0,0,1-1.33.18,22.8,22.8,0,0,1-2.94-.51q-.37-.09-.62-.81a2.19,2.19,0,0,1-.12-1.26l1.52-6.35q.51-2.07,1.52-6.3a4.44,4.44,0,0,0,0-1.79l-1.24-4.28q-.28-1.06-.83-3.08T403,14.4a.62.62,0,0,0,0-.14.61.61,0,0,1,0-.14q-.28-.74-.85-2.21t-.85-2.21c-.15-.4-.28-.75-.37-1.06a1.21,1.21,0,0,1,.46-1.43q.55-.41,1.06.32a3.15,3.15,0,0,1,.55,1q.41,1.24,1.33,3.73A21.82,21.82,0,0,1,405,14.7q.44,1.63.48,1.77.46,1.66,1.38,4.88a2.07,2.07,0,0,0,.23.41Q407.18,21.57,407.48,20.52Z"/><path d="M97.84,58.56a3.48,3.48,0,0,0,.23-.44l.23-.48a1.52,1.52,0,0,1,1-.83,1.67,1.67,0,0,1,1.31.18.59.59,0,0,1,.18.92.27.27,0,0,1-.14.23,3.51,3.51,0,0,0-.69,3.4q0,.09.69,1.7l.16.32.16.32a.81.81,0,0,1-.37,1.1.86.86,0,0,1-1.2-.14,9.32,9.32,0,0,1-.83-1.29,11.75,11.75,0,0,0-.46-1.29A8.4,8.4,0,0,1,97.84,58.56Zm4.74,0a3.42,3.42,0,0,0,.23-.44l.23-.48a1.52,1.52,0,0,1,1-.83,1.67,1.67,0,0,1,1.31.18.59.59,0,0,1,.18.92.27.27,0,0,1-.14.23,3.51,3.51,0,0,0-.69,3.4q0,.09.69,1.7l.16.32.16.32a.81.81,0,0,1-.37,1.1.86.86,0,0,1-1.2-.14,9.34,9.34,0,0,1-.83-1.29,12,12,0,0,0-.46-1.29A8.41,8.41,0,0,1,102.58,58.56Z"/><path d="M108,83.77a65.17,65.17,0,0,1,1.47-11.45,17.25,17.25,0,0,1,1.7-5.06,24.88,24.88,0,0,1,1.93-3.31,5.24,5.24,0,0,1,3.31-2.12,2.09,2.09,0,0,1,1.43.09.19.19,0,0,1,.12.07l.14.16.12.14-.12.14-.14.16a.19.19,0,0,1-.12.07l-.6.12-.6.12a4.45,4.45,0,0,0-2.48,2,10.18,10.18,0,0,0-.69,1.22q-.32.67-.69,1.59T112.19,69a9.23,9.23,0,0,0-.87,2.85q-.41,2.71-1,7.36,0,.09-.28,2.44a18.22,18.22,0,0,0,.23,4,6.94,6.94,0,0,0,1.84,3.45,2.71,2.71,0,0,0,2.3.74,6.25,6.25,0,0,0,2-.69A7.3,7.3,0,0,0,118,87.81a43,43,0,0,0,4.46-7l.28-.55q.32-.74,1-.46a.84.84,0,0,1,.23.09,1.54,1.54,0,0,1,.78.55,2.31,2.31,0,0,1,0,1.1,12.26,12.26,0,0,1-1.52,4.69q-2,3.4-2.71,4.55a12.47,12.47,0,0,1-5,4.51,3.94,3.94,0,0,1-4.6-.64,6.71,6.71,0,0,1-2-2.81.83.83,0,0,0-.23-.37,2.27,2.27,0,0,1-.46-1.29q-.09-.83-.18-1.24v0Q108,87,108,83.77Z"/><path d="M128.15,85.33q-.46-4-.51-4.65A25.36,25.36,0,0,1,129,70.06a16.21,16.21,0,0,1,2.25-4.37q.23-.23.67-.71l.67-.76a2.66,2.66,0,0,0,.74-1,.57.57,0,0,1,.37-.41l.83-.16a7.77,7.77,0,0,0,.83-.21,2.43,2.43,0,0,1,1.08-.07l1.06.12q.3,0,1.06.23t1.08.23a4.43,4.43,0,0,1,3.17,2.48,41.89,41.89,0,0,1,3,8.1,26.32,26.32,0,0,1,.41,9.57q-.46,3.31-.6,4a13.35,13.35,0,0,1-.69,2.44q-.74,2.12-1.15,3.13a5.72,5.72,0,0,1-2.35,2.58l-1.2.64q-.78.41-1.15.64t-.6.18l-1.31,0q-1.17,0-1.31-.14a5.81,5.81,0,0,0-1.93-.32,3.63,3.63,0,0,1-3.27-2.3q-.32-.69-1.52-3.5A36.79,36.79,0,0,1,128.15,85.33ZM139.63,69.6q-.39-.87-.92-1.93T137.9,66a1,1,0,0,0-.64-.64,7.09,7.09,0,0,0-1.79-.55,1.38,1.38,0,0,0-1,.23A6.73,6.73,0,0,0,132,67.9a21.28,21.28,0,0,0-2.12,6.85,31.61,31.61,0,0,0-.28,5.57q.32,3.54,1.06,7.41a27,27,0,0,0,1.7,5.11q.55,1.15,1.43,1.1h1.43a1.74,1.74,0,0,0,.69-.09,6.28,6.28,0,0,0,3.63-3.5,38.62,38.62,0,0,0,1.29-4.23q0-.14.55-3.4a23.37,23.37,0,0,0,0-6.07,20.21,20.21,0,0,0-1.2-5.34A9,9,0,0,0,139.63,69.6Z"/><path d="M162.7,87.26q0-1,.11-3t.12-3q0-1.06.16-3.1t.16-3q.28-4,.37-6.16.09-1.56.18-4.51a4.55,4.55,0,0,1,0-.78q.09-1.15,1.1-1.1l3.54.46a.64.64,0,0,1,.64.74,3,3,0,0,1,0,.87q0,1-.14,2.94l-.14,3.33q-.09,2.23-.18,3.33,0,.78-.09,2.3t-.14,2.3q0,.78,0,2.3v2.3q0,.87-.09,3.54t-.09,4.14q0,.32-.07,2.07a5.77,5.77,0,0,0,.12,2.07.83.83,0,0,1-.78,1.15l-.67.09-.76.09-.64.09a5.62,5.62,0,0,1-2.67-.74,1.08,1.08,0,0,1-.51-.74q-.46-1.38-1.29-4.14-.18-.6-.74-2.48t-.83-2.9l-.48-1.93-.55-2.23q-.3-1.22-.48-1.91-1.29-5.06-2-7.59a21.19,21.19,0,0,0-.83-2.62q0,.46,0,1.4t-.09,1.45q0,.92-.11,2.53t-.12,2.92q0,1.31,0,2.51,0,2,.09,5.93.09,5.52.14,8.33a4,4,0,0,1-.09.74.65.65,0,0,1-.6.51l-.37,0-.39.07a1.67,1.67,0,0,1-.35,0,2.77,2.77,0,0,0-.6,0h-1.2a1.42,1.42,0,0,1-.51,0,1.68,1.68,0,0,1-1.15-.48,1.92,1.92,0,0,1-.28-1.31q.09-4.23.09-6.35,0-.87,0-3.63t0-4.28q0-1,.23-6.16.09-2.71,0-5.38,0-1.56-.18-4.78a1.71,1.71,0,0,1,.16-1,1.29,1.29,0,0,1,.81-.44,5.43,5.43,0,0,1,3.27.18,4.69,4.69,0,0,1,1.38.69,2.52,2.52,0,0,1,.69,1.15q.32,1.15.94,3.47t.9,3.52l.28.8q.23.67.32,1,.37,1.52,1.15,4.55t1.2,4.51q.32,1.29,1,3.66t.78,2.78a1.07,1.07,0,0,0,.23.37h.14Q162.7,88.23,162.7,87.26Z"/><path d="M177.81,85.58l.11-.48q.09-.37.69-3.08t1-4.14q.37-1.47,1.15-4.16l1-3.33q1-3,1.06-3.5.41-1.84,1.52-5.34.18-.78.83-.74a3,3,0,0,1,1.1.23q1,.55,2.94,1.75.41.23.32,1a.54.54,0,0,1,0,.16.5.5,0,0,1-.09.16,12.51,12.51,0,0,0-.69,1.56q-.32.87-.51,1.52l-.48,1.73q-.3,1.08-.44,1.63-.37,1.24-1.08,3.73T185.05,78q-1.34,5.2-1.61,6.39l-1,5.57q-.55,3.86-.87,5.75a1.47,1.47,0,0,1-.46,1,.85.85,0,0,1-.87.11,9.22,9.22,0,0,1-3.45-2.21,2.07,2.07,0,0,1-.64-1.38q-.09-.92-.32-2.71t-.23-1.93q-.28-2.39-.41-3.63-.28-2.21-.37-3.36-.09-1.89-.87-6.9-.55-3.17-1.56-9.52-.09-.37-.25-1.08c-.11-.48-.18-.83-.21-1.08a1.75,1.75,0,0,1,.16-1.13.67.67,0,0,1,.76-.34.78.78,0,0,1,.64.64,18.92,18.92,0,0,1,.51,1.93q0,.37.55,3.91t.83,5.38q.09.46,1.66,10,.14.69.32,2.07l.18.6h.18A2.2,2.2,0,0,1,177.81,85.58Z"/><path d="M196.65,93.84l2.62-.39,2.62-.39h.18q.92-.09,1.15.14t.14,1.15a.62.62,0,0,1-.46.74l-.28,0-.28,0a45.23,45.23,0,0,0-5.66.74,7,7,0,0,1-1.22.12,7.87,7.87,0,0,0-1,.07q-1.2,0-1.84,0a1.58,1.58,0,0,1-1.79-1.38,3.11,3.11,0,0,1-.09-1.52q.6-3.73.92-8.51,0-.87.11-2.58t.12-2.53.41-6.12q0-1.43.23-4.28.14-1.75.32-5.24a1.19,1.19,0,0,1,.41-.83,3.92,3.92,0,0,1,2-.78l2-.16L199.5,62a6.79,6.79,0,0,1,.9,0,10.29,10.29,0,0,0,1,0,4,4,0,0,0,.87-.18h.41a1.9,1.9,0,0,1,.81.21,1.54,1.54,0,0,1,.11.8,1.84,1.84,0,0,1-.14.94q-.14.16-.92.21-2.39.09-3.59.18a.92.92,0,0,0-.58.18,1.46,1.46,0,0,0-.16.69l-.55,6.62s0,.89-.14,2.58l-.14,2.9q0,.64.14.76t.74,0l2.67-.28a1,1,0,0,1,.64.07,1.46,1.46,0,0,1,.28.67,1.53,1.53,0,0,1,.09.37c0,.43-.14.66-.51.69s-1,.12-1.75.18-1.58.12-2,.18-.51.32-.51.78-.06,1-.09,1.7,0,1.3,0,1.7q-.46,5.84-.64,6.81c-.06.37-.13.94-.21,1.7s-.13,1.23-.16,1.38A1.27,1.27,0,0,0,196.65,93.84Z"/><path d="M214.08,80.15a4.36,4.36,0,0,0-.64.48,1.25,1.25,0,0,0-.32.6,12.1,12.1,0,0,0-.09,1.24q-.18,3.27-.46,9.8L212.42,95a1,1,0,0,1-.6.87,10,10,0,0,1-1.08.41q-.58.18-1.31.35l-1.1.25a.89.89,0,0,1-.57,0,1.4,1.4,0,0,1-.39-.55,2.07,2.07,0,0,0-.32-.51,1.85,1.85,0,0,1-.28-1.33l.41-5.24q.37-5.06.51-7.59.14-1.56.32-4.69.37-3.82.51-6,0-.92,0-2.76c0-.18,0-.56,0-1.13s0-1,.07-1.31a1.23,1.23,0,0,0-.37-1.06.66.66,0,0,1-.37-.78.78.78,0,0,1,.64-.64q.46-.09,1.27-.3l1.47-.37,1.26-.3a24.93,24.93,0,0,1,4.69-.46,6.84,6.84,0,0,1,3,.78,3.92,3.92,0,0,1,1.56,1.79,7.62,7.62,0,0,1,.51,5.7,10.42,10.42,0,0,1-2.44,4.46q-.37.41-1,1.22t-.74.94q-.18.23-.64.69a1.3,1.3,0,0,0-.46,1.33l.48,2.23q.39,1.82.62,2.83t2.07,8.65q.09.28.35,1.1t.34,1.29a1.71,1.71,0,0,1-.16,1.31,1.29,1.29,0,0,1-.94.71.29.29,0,0,1-.37-.09,2.47,2.47,0,0,1-.92-1.38q-.28-1.66-.67-3.45t-.92-4q-.53-2.23-.76-3.38-.18-.83-.6-2.32t-.55-2l-.28-.6A4.33,4.33,0,0,1,214.08,80.15Zm-.6-2.37.6-.41a5.27,5.27,0,0,0,.69-.55,33,33,0,0,0,4.37-5,9.39,9.39,0,0,0,1.52-5.06q.14-2.53-2.21-2.85-.69,0-4,0a2.21,2.21,0,0,0-.55.23,4,4,0,0,1,.35,1,8.64,8.64,0,0,1-.07,1.2.63.63,0,0,0,0,.28v.28q-.37,4.6-.51,6.85-.14,1.29-.32,3.86A.77.77,0,0,1,213.48,77.79Z"/><path d="M243.2,79.35a6.27,6.27,0,0,1,.14,1,8.12,8.12,0,0,0,.09.87,30.88,30.88,0,0,1-1.29,7.31,9.76,9.76,0,0,1-.46,1.13,8.56,8.56,0,0,1-.48.9l-.67,1q-.46.69-.6.87a12.84,12.84,0,0,1-3.63,3.63l-.09,0a4.35,4.35,0,0,1-1,.48,9.38,9.38,0,0,1-1.77.35,6.79,6.79,0,0,1-2.74-.35A11.7,11.7,0,0,1,227.42,95a9.29,9.29,0,0,1-1.47-3.06,12.92,12.92,0,0,1-.55-2.87V87.91l.14-.69a12.51,12.51,0,0,1,.46-1.56q.28-.69,1-.28c.21.09.32.21.32.37l0,.18q0,.14-.14.48a5.58,5.58,0,0,0-.14.67,5.32,5.32,0,0,0-.14,2.48,5.15,5.15,0,0,0,4.65,5.06,3.48,3.48,0,0,0,2.9-.57A4.73,4.73,0,0,0,236,91.47a18.43,18.43,0,0,0,.6-3.24,22.51,22.51,0,0,0,0-3.22,13.45,13.45,0,0,0-.18-2.3l-.14-.69q-.87-3.73-3.73-4.51L230.55,77a4.52,4.52,0,0,1-2.85-4.37,10.74,10.74,0,0,1,.74-3.5A12.38,12.38,0,0,1,230,66,7.49,7.49,0,0,1,234.37,63a23.41,23.41,0,0,1,2.9-.55,5.36,5.36,0,0,1,3.27,1,5.79,5.79,0,0,1,1.61,1.33,2,2,0,0,1,.23.41c.06.31.06.49,0,.55A.45.45,0,0,1,242,66a1.56,1.56,0,0,1-.6-.41,8.2,8.2,0,0,0-2.25-1.43,3.92,3.92,0,0,0-3.08,0,10.39,10.39,0,0,0-2.76,1.24,6.86,6.86,0,0,0-2.76,3.4,10.85,10.85,0,0,0-1,2.94,2.47,2.47,0,0,0-.09.51,1.74,1.74,0,0,0,.25,1.22,1,1,0,0,0,.94.25,25,25,0,0,1,3.31-.14q.46,0,1.59-.09a11.92,11.92,0,0,1,1.73,0,5.51,5.51,0,0,1,4.19,2.25A8.23,8.23,0,0,1,243.2,79.35Z"/><path d="M244.39,94.94a7.82,7.82,0,0,1,.28-1.33q.37-1.15.87-3.33t.74-3.06q.28-1.1.69-3.15t.51-2.55q1.2-5.43,1.52-6.62l.39-1.36.46-1.59.39-1.33,1.24-5.11a3.1,3.1,0,0,0,0-.87,1.17,1.17,0,0,1,.64-1.47q.28-.14.85-.37a6.26,6.26,0,0,0,.81-.37,6.81,6.81,0,0,1,2.12-.28,1,1,0,0,1,1.2.78,4,4,0,0,1,.23.87q.69,6.35.92,8.83.23,2.12.6,5.75c0,.15.05.31.07.48s0,.35,0,.55,0,.36,0,.48q.37,3.4.55,5.06.18,2.16.55,6.39a10.67,10.67,0,0,1,0,1.17v1.22a.89.89,0,0,1-.41.69,10,10,0,0,1-3.08,1.29.44.44,0,0,0-.32.14.83.83,0,0,1-.92,0,1,1,0,0,1-.55-1,64,64,0,0,0-.64-8.6q-.09-.55-.21-1.61t-.16-1.61a1.66,1.66,0,0,0-.23-.71q-.14-.16-.64-.12t-3.59.23a.88.88,0,0,0-.87.83q-.18,1-1.2,5.43-.18.64-.53,1.93t-.48,1.93a20.49,20.49,0,0,1-.78,2.76q-.46.41-.6.28c0-.06-.06-.09-.09-.09a.13.13,0,0,0,0,.09v0l-.28.14A3.1,3.1,0,0,1,244.39,94.94ZM249.18,81l1.29-.14q.41,0,1.22-.07l1.22,0q.46,0,.55-.12t0-.57q-.09-.64-.23-1.91T253,76.27q-.09-1-.3-3.06t-.34-3.06a1.62,1.62,0,0,0-.07-.39,1.6,1.6,0,0,1-.07-.35A55.61,55.61,0,0,0,249.18,81Z"/><path d="M268.27,68.31q0-1.06,0-1.61v-.64a1.47,1.47,0,0,0-.21-.78.82.82,0,0,0-.62-.18h-3a7,7,0,0,1-.92,0,.73.73,0,0,1-.53-.44,1.26,1.26,0,0,1-.16-.76.73.73,0,0,1,.78-.74q.51,0,1.45,0l1.73.07,1.47,0A13.55,13.55,0,0,0,271.4,63a23.33,23.33,0,0,1,5.38-.46q.83,0,2.35-.09t2-.09a1.19,1.19,0,0,1,1.2,1.06q.14.55-.28.69l-.23,0-.23,0-6.26.14H275q-.69,0-.85.28a2.09,2.09,0,0,0-.07,1.15,6,6,0,0,1,0,.87q-.09,1.84-.18,2.76t-.23,2.67q0,.51-.14,1.43t-.16,1.66q-.07.74-.11,1.43-.37,5.29-.51,7.68-.23,3.13-.46,5.61T272,93.24q0,.23,0,.74c0,.34,0,.6,0,.78a1,1,0,0,1-.55.87,6.59,6.59,0,0,1-1.54.37q-1,.14-1.36.23a2.33,2.33,0,0,1-1.1-.14q-.87-.28-.78-1.52.09-1.06.41-4.16t.46-5.22q.23-2.85.51-8.74l.14-2.78.14-2.78v-1h0Q268.22,69.37,268.27,68.31Z"/><path d="M291.54,66.33a43.84,43.84,0,0,0-.46,6.53l-.14,7.87v5.15q0,1-.09,2.88t-.09,2.88c0,.31,0,.77,0,1.38s0,1.07,0,1.38a1.14,1.14,0,0,1-.11.64,1.58,1.58,0,0,1-.53.32,8.18,8.18,0,0,1-2.16.55q-.6,0-1.75,0a.49.49,0,0,1-.46-.23,3.53,3.53,0,0,1-.51-1.89c0-.21.05-.54.07-1s0-.75,0-1q0-1.15.18-13.66,0-4.14.28-8.37,0-.83.18-2.55t.18-2.6q0-.6,0-1.79a1.17,1.17,0,0,1,.87-1.29,2.9,2.9,0,0,1,1.56-.18,5.74,5.74,0,0,1,2.25.69,1.85,1.85,0,0,1,.85.62,3,3,0,0,1,.16,1.22Q291.68,65.55,291.54,66.33Z"/><path d="M295.18,85.33q-.46-4-.51-4.65a25.35,25.35,0,0,1,1.38-10.63,16.24,16.24,0,0,1,2.25-4.37q.23-.23.67-.71l.67-.76a2.66,2.66,0,0,0,.74-1,.56.56,0,0,1,.37-.41l.83-.16a7.78,7.78,0,0,0,.83-.21,2.43,2.43,0,0,1,1.08-.07l1.06.12q.3,0,1.06.23t1.08.23a4.43,4.43,0,0,1,3.17,2.48,41.89,41.89,0,0,1,3,8.1,26.31,26.31,0,0,1,.41,9.57q-.46,3.31-.6,4a13.36,13.36,0,0,1-.69,2.44q-.74,2.12-1.15,3.13a5.72,5.72,0,0,1-2.35,2.58l-1.2.64q-.78.41-1.15.64t-.6.18l-1.31,0q-1.17,0-1.31-.14a5.81,5.81,0,0,0-1.93-.32,3.63,3.63,0,0,1-3.27-2.3q-.32-.69-1.52-3.5A36.79,36.79,0,0,1,295.18,85.33ZM306.65,69.6q-.39-.87-.92-1.93t-.8-1.66a1,1,0,0,0-.64-.64,7.1,7.1,0,0,0-1.79-.55,1.38,1.38,0,0,0-1,.23A6.73,6.73,0,0,0,299,67.9a21.28,21.28,0,0,0-2.12,6.85,31.57,31.57,0,0,0-.28,5.57q.32,3.54,1.06,7.41a26.92,26.92,0,0,0,1.7,5.11q.55,1.15,1.43,1.1h1.43a1.74,1.74,0,0,0,.69-.09,6.28,6.28,0,0,0,3.63-3.5,38.73,38.73,0,0,0,1.29-4.23q0-.14.55-3.4a23.38,23.38,0,0,0,0-6.07,20.19,20.19,0,0,0-1.2-5.34A8.92,8.92,0,0,0,306.65,69.6Z"/><path d="M329.72,87.26q0-1,.11-3t.12-3q0-1.06.16-3.1t.16-3q.28-4,.37-6.16.09-1.56.18-4.51a4.6,4.6,0,0,1,0-.78q.09-1.15,1.1-1.1l3.54.46a.64.64,0,0,1,.64.74,3,3,0,0,1,0,.87L336,67.53q0,1.1-.14,3.33t-.18,3.33q0,.78-.09,2.3t-.14,2.3q0,.78,0,2.3v2.3q0,.87-.09,3.54t-.09,4.14q0,.32-.07,2.07a5.77,5.77,0,0,0,.12,2.07.83.83,0,0,1-.78,1.15l-.67.09-.76.09-.64.09a5.62,5.62,0,0,1-2.67-.74,1.09,1.09,0,0,1-.51-.74q-.46-1.38-1.29-4.14-.18-.6-.74-2.48t-.83-2.9l-.48-1.93-.55-2.23q-.3-1.22-.48-1.91-1.29-5.06-2-7.59a21.11,21.11,0,0,0-.83-2.62q0,.46,0,1.4t-.09,1.45q0,.92-.12,2.53t-.12,2.92q0,1.31,0,2.51,0,2,.09,5.93.09,5.52.14,8.33a4,4,0,0,1-.09.74.65.65,0,0,1-.6.51l-.37,0-.39.07a1.67,1.67,0,0,1-.34,0,2.77,2.77,0,0,0-.6,0h-1.2a1.42,1.42,0,0,1-.51,0,1.68,1.68,0,0,1-1.15-.48,1.93,1.93,0,0,1-.28-1.31q.09-4.23.09-6.35,0-.87,0-3.63t0-4.28q0-1,.23-6.16.09-2.71,0-5.38,0-1.56-.18-4.78a1.71,1.71,0,0,1,.16-1,1.3,1.3,0,0,1,.81-.44,5.43,5.43,0,0,1,3.27.18,4.68,4.68,0,0,1,1.38.69,2.52,2.52,0,0,1,.69,1.15q.32,1.15.94,3.47t.9,3.52l.28.8q.23.67.32,1,.37,1.52,1.15,4.55t1.2,4.51q.32,1.29,1,3.66t.78,2.78a1.06,1.06,0,0,0,.23.37h.14C329.71,88.4,329.72,87.91,329.72,87.26Z"/><path d="M361.42,85.44l.14-4.76a1.29,1.29,0,0,0-.11-.67c-.08-.11-.25-.16-.53-.16a22.52,22.52,0,0,1-3-.18q-.78-.14-.83.64-.41,5.7-.51,7,0,.74-.18,2.21t-.18,2.21a6.86,6.86,0,0,0,0,1.29l0,1.29a1.48,1.48,0,0,1-.11.55,1.35,1.35,0,0,1-.53.23,30.5,30.5,0,0,1-3.59.55,1.43,1.43,0,0,1-1.13-.41,1.33,1.33,0,0,1-.44-1.1q.28-5.79.28-5.89.46-6.71.64-9.75l.41-5.38q.09-.83.23-2.39t.18-2.39q0-.51.18-1.5t.18-1.45q.09-1.47.09-2.25a1.11,1.11,0,0,1,.87-1.1,6.52,6.52,0,0,1,3.54.18l.32.09a2.09,2.09,0,0,1,1,.6,2.42,2.42,0,0,1,.11,1.15q0,.78-.21,2.23T358,68q-.09,1.15-.3,3.38l-.3,3.24q0,.55-.18,2.58a1,1,0,0,0,.07.62,1,1,0,0,0,.58.25,21.22,21.22,0,0,0,3.08.14q.64,0,.69-.55a21.72,21.72,0,0,0,.14-2.39q0-1.24.16-3.7t.16-3.7q0-.78,0-2.28t0-2.28a1.84,1.84,0,0,1,0-.51.6.6,0,0,1,.44-.57.72.72,0,0,1,.71.16,2.69,2.69,0,0,1,1.06,2.16q-.09,1.24-.12,3.47t-.07,3.1L364,76.64q0,.28,0,.83c0,.37,0,.64,0,.83q0,1-.09,3.06t-.09,3.06.14,8.1c0,.18,0,.51,0,1a6.66,6.66,0,0,0,0,1.13.86.86,0,0,1-.55.74,1.39,1.39,0,0,1-1.47-.09,1.58,1.58,0,0,1-.55-1.43,12.11,12.11,0,0,0,.14-1.79q0-.6-.09-1.79a0,0,0,0,0,0,0Z"/><path d="M372.92,93.84l2.62-.39,2.62-.39h.18q.92-.09,1.15.14t.14,1.15a.62.62,0,0,1-.46.74l-.28,0-.28,0a45.24,45.24,0,0,0-5.66.74,7,7,0,0,1-1.22.12,7.86,7.86,0,0,0-1,.07q-1.2,0-1.84,0a1.58,1.58,0,0,1-1.79-1.38A3.1,3.1,0,0,1,367,93.2q.6-3.73.92-8.51,0-.87.11-2.58t.12-2.53.41-6.12q0-1.43.23-4.28.14-1.75.32-5.24a1.2,1.2,0,0,1,.41-.83,3.93,3.93,0,0,1,2-.78l2-.16,2.32-.16a6.8,6.8,0,0,1,.9,0,10.3,10.3,0,0,0,1,0,4,4,0,0,0,.87-.18H379a1.9,1.9,0,0,1,.8.21,1.53,1.53,0,0,1,.12.8,1.83,1.83,0,0,1-.14.94q-.14.16-.92.21-2.39.09-3.59.18a.92.92,0,0,0-.58.18,1.47,1.47,0,0,0-.16.69L374,71.58s0,.89-.14,2.58l-.14,2.9q0,.64.14.76t.74,0l2.67-.28a1,1,0,0,1,.64.07,1.46,1.46,0,0,1,.28.67,1.54,1.54,0,0,1,.09.37q0,.64-.51.69t-1.75.18q-1.38.09-2,.18c-.34.06-.51.32-.51.78s-.06,1-.09,1.7,0,1.3,0,1.7q-.46,5.84-.64,6.81c-.06.37-.13.94-.21,1.7s-.13,1.23-.16,1.38A1.27,1.27,0,0,0,372.92,93.84Z"/><path d="M380.78,94.94a7.86,7.86,0,0,1,.28-1.33q.37-1.15.87-3.33t.74-3.06q.28-1.1.69-3.15t.51-2.55q1.2-5.43,1.52-6.62l.39-1.36.46-1.59.39-1.33,1.24-5.11a3.08,3.08,0,0,0,0-.87,1.17,1.17,0,0,1,.64-1.47q.28-.14.85-.37a6.27,6.27,0,0,0,.81-.37,6.81,6.81,0,0,1,2.12-.28,1,1,0,0,1,1.2.78,4,4,0,0,1,.23.87q.69,6.35.92,8.83.23,2.12.6,5.75c0,.15.05.31.07.48s0,.35,0,.55,0,.36,0,.48q.37,3.4.55,5.06.18,2.16.55,6.39a10.67,10.67,0,0,1,0,1.17v1.22a.89.89,0,0,1-.41.69A10,10,0,0,1,393,95.73a.44.44,0,0,0-.32.14.83.83,0,0,1-.92,0,1,1,0,0,1-.55-1,63.91,63.91,0,0,0-.64-8.6q-.09-.55-.21-1.61t-.16-1.61a1.67,1.67,0,0,0-.23-.71q-.14-.16-.64-.12t-3.59.23a.88.88,0,0,0-.87.83q-.18,1-1.2,5.43-.18.64-.53,1.93t-.48,1.93a20.67,20.67,0,0,1-.78,2.76q-.46.41-.6.28c0-.06-.06-.09-.09-.09a.13.13,0,0,0,0,.09v0l-.28.14A3.11,3.11,0,0,1,380.78,94.94ZM385.56,81l1.29-.14q.41,0,1.22-.07l1.22,0c.31,0,.49,0,.55-.12s.06-.27,0-.57-.14-1.07-.23-1.91-.15-1.48-.18-1.91q-.09-1-.3-3.06t-.34-3.06a1.62,1.62,0,0,0-.07-.39,1.62,1.62,0,0,1-.07-.35A55.61,55.61,0,0,0,385.56,81Z"/><path d="M406.59,80.15a4.33,4.33,0,0,0-.64.48,1.25,1.25,0,0,0-.32.6,12.25,12.25,0,0,0-.09,1.24q-.18,3.27-.46,9.8L404.93,95a1,1,0,0,1-.6.87,10,10,0,0,1-1.08.41q-.58.18-1.31.35l-1.1.25a.89.89,0,0,1-.57,0,1.4,1.4,0,0,1-.39-.55,2.05,2.05,0,0,0-.32-.51,1.85,1.85,0,0,1-.28-1.33l.41-5.24q.37-5.06.51-7.59.14-1.56.32-4.69.37-3.82.51-6,0-.92,0-2.76c0-.18,0-.56,0-1.13s0-1,.07-1.31a1.22,1.22,0,0,0-.37-1.06.66.66,0,0,1-.37-.78.78.78,0,0,1,.64-.64q.46-.09,1.26-.3l1.47-.37,1.26-.3a24.92,24.92,0,0,1,4.69-.46,6.84,6.84,0,0,1,3,.78,3.92,3.92,0,0,1,1.56,1.79,7.63,7.63,0,0,1,.51,5.7,10.42,10.42,0,0,1-2.44,4.46q-.37.41-1,1.22t-.74.94q-.18.23-.64.69a1.3,1.3,0,0,0-.46,1.33l.48,2.23q.39,1.82.62,2.83t2.07,8.65q.09.28.35,1.1t.34,1.29a1.71,1.71,0,0,1-.16,1.31,1.29,1.29,0,0,1-.94.71.29.29,0,0,1-.37-.09A2.48,2.48,0,0,1,411,95.5q-.28-1.66-.67-3.45t-.92-4q-.53-2.23-.76-3.38-.18-.83-.6-2.32t-.55-2l-.28-.6A4.34,4.34,0,0,1,406.59,80.15Zm-.6-2.37.6-.41a5.28,5.28,0,0,0,.69-.55,33,33,0,0,0,4.37-5,9.39,9.39,0,0,0,1.52-5.06q.14-2.53-2.21-2.85-.69,0-4,0a2.22,2.22,0,0,0-.55.23,4,4,0,0,1,.34,1,8.61,8.61,0,0,1-.07,1.2.63.63,0,0,0,0,.28v.28q-.37,4.6-.51,6.85-.14,1.29-.32,3.86A.77.77,0,0,1,406,77.79Z"/><path d="M423.28,68.31q0-1.06,0-1.61v-.64a1.47,1.47,0,0,0-.21-.78.81.81,0,0,0-.62-.18h-3a7,7,0,0,1-.92,0,.73.73,0,0,1-.53-.44,1.26,1.26,0,0,1-.16-.76.73.73,0,0,1,.78-.74q.51,0,1.45,0l1.73.07,1.47,0a13.54,13.54,0,0,0,3.08-.23,23.33,23.33,0,0,1,5.38-.46q.83,0,2.35-.09t2-.09a1.2,1.2,0,0,1,1.2,1.06q.14.55-.28.69l-.23,0-.23,0-6.26.14H430c-.46,0-.74.12-.85.28a2.09,2.09,0,0,0-.07,1.15,6,6,0,0,1,0,.87q-.09,1.84-.18,2.76t-.23,2.67q0,.51-.14,1.43t-.16,1.66q-.07.74-.12,1.43-.37,5.29-.51,7.68-.23,3.13-.46,5.61T427,93.24q0,.23,0,.74c0,.34,0,.6,0,.78a1,1,0,0,1-.55.87,6.58,6.58,0,0,1-1.54.37q-1,.14-1.36.23a2.32,2.32,0,0,1-1.1-.14q-.87-.28-.78-1.52.09-1.06.41-4.16t.46-5.22q.23-2.85.51-8.74,0-.92.14-2.78t.14-2.78v-1h0Q423.24,69.37,423.28,68.31Z"/><path d="M458,79.35a6.16,6.16,0,0,1,.14,1,8.08,8.08,0,0,0,.09.87,30.88,30.88,0,0,1-1.29,7.31,9.85,9.85,0,0,1-.46,1.13,8.65,8.65,0,0,1-.48.9l-.67,1q-.46.69-.6.87a12.84,12.84,0,0,1-3.63,3.63l-.09,0a4.34,4.34,0,0,1-1,.48,9.37,9.37,0,0,1-1.77.35,6.79,6.79,0,0,1-2.74-.35A11.71,11.71,0,0,1,442.19,95a9.3,9.3,0,0,1-1.47-3.06,12.92,12.92,0,0,1-.55-2.87V87.91l.14-.69a12.68,12.68,0,0,1,.46-1.56q.28-.69,1-.28c.21.09.32.21.32.37l0,.18q0,.14-.14.48a5.48,5.48,0,0,0-.14.67,5.33,5.33,0,0,0-.14,2.48,5.15,5.15,0,0,0,4.65,5.06,3.48,3.48,0,0,0,2.9-.57,4.73,4.73,0,0,0,1.61-2.58,18.47,18.47,0,0,0,.6-3.24,22.44,22.44,0,0,0,0-3.22,13.5,13.5,0,0,0-.18-2.3l-.14-.69q-.87-3.73-3.73-4.51L445.32,77a4.52,4.52,0,0,1-2.85-4.37,10.75,10.75,0,0,1,.74-3.5A12.4,12.4,0,0,1,444.81,66,7.49,7.49,0,0,1,449.14,63a23.4,23.4,0,0,1,2.9-.55,5.36,5.36,0,0,1,3.27,1,5.79,5.79,0,0,1,1.61,1.33,2,2,0,0,1,.23.41c.06.31.06.49,0,.55a.45.45,0,0,1-.41.23,1.56,1.56,0,0,1-.6-.41,8.21,8.21,0,0,0-2.25-1.43,3.92,3.92,0,0,0-3.08,0A10.39,10.39,0,0,0,448,65.32a6.87,6.87,0,0,0-2.76,3.4,10.88,10.88,0,0,0-1,2.94,2.5,2.5,0,0,0-.09.51,1.74,1.74,0,0,0,.25,1.22,1,1,0,0,0,.94.25,25,25,0,0,1,3.31-.14q.46,0,1.59-.09a11.92,11.92,0,0,1,1.73,0,5.51,5.51,0,0,1,4.19,2.25A8.22,8.22,0,0,1,458,79.35Z"/><path d="M464.73,60.72v.83c0,.15,0,.38,0,.69a3.48,3.48,0,0,1-.46,1.47l-.55.83a1.56,1.56,0,0,1-1.13.6,1.82,1.82,0,0,1-1.26-.41.6.6,0,0,1,0-1l.18-.18a3.65,3.65,0,0,0,1.38-3.22,13.32,13.32,0,0,0-.37-1.79,1.06,1.06,0,0,0-.09-.37,1,1,0,0,1-.09-.32,1,1,0,0,1,1.75-.64,9.24,9.24,0,0,1,.51,1.38c0,.15.07.38.12.69s.08.54.11.69Zm4.88,0v.83c0,.15,0,.38,0,.69a3.48,3.48,0,0,1-.46,1.47,2.08,2.08,0,0,1-.16.25l-.21.3-.18.28a1.56,1.56,0,0,1-1.13.6,1.82,1.82,0,0,1-1.26-.41.6.6,0,0,1,0-1l.18-.18a3.65,3.65,0,0,0,1.38-3.22q0-.32-.16-1c-.08-.43-.13-.71-.16-.83a4.45,4.45,0,0,0-.23-.69,1,1,0,0,1,1.75-.64,9.24,9.24,0,0,1,.51,1.38c0,.15.07.38.12.69s.08.54.11.69Z"/><path d="M54.21,140.64q.09-3.2.14-4.76a1.29,1.29,0,0,0-.11-.67c-.08-.11-.25-.16-.53-.16a22.35,22.35,0,0,1-3-.18q-.78-.14-.83.64-.41,5.71-.51,7,0,.74-.18,2.21T49,147a6.81,6.81,0,0,0,0,1.29l0,1.29a1.49,1.49,0,0,1-.11.55,1.33,1.33,0,0,1-.53.23,30.29,30.29,0,0,1-3.59.55,1.43,1.43,0,0,1-1.13-.41,1.33,1.33,0,0,1-.44-1.1q.28-5.8.28-5.89.46-6.71.64-9.75l.41-5.38q.09-.83.23-2.39t.18-2.39q0-.51.18-1.5t.18-1.45q.09-1.47.09-2.25a1.11,1.11,0,0,1,.87-1.1,6.53,6.53,0,0,1,3.54.18l.32.09a2.09,2.09,0,0,1,1,.6,2.41,2.41,0,0,1,.11,1.15q0,.78-.21,2.23t-.21,1.68q-.09,1.15-.3,3.38t-.3,3.24q0,.55-.18,2.58a1,1,0,0,0,.07.62.94.94,0,0,0,.58.25,21.17,21.17,0,0,0,3.08.14q.64,0,.69-.55a21.72,21.72,0,0,0,.14-2.39q0-1.24.16-3.7t.16-3.7q0-.78,0-2.28t0-2.28a1.82,1.82,0,0,1,0-.51.6.6,0,0,1,.44-.58.72.72,0,0,1,.71.16,2.69,2.69,0,0,1,1.06,2.16q-.09,1.24-.12,3.47t-.07,3.11l-.28,5.52c0,.18,0,.46,0,.83s0,.64,0,.83q0,1-.09,3.06t-.09,3.06.14,8.1q0,.28,0,1a6.77,6.77,0,0,0,0,1.13.86.86,0,0,1-.55.74,1.39,1.39,0,0,1-1.47-.09,1.58,1.58,0,0,1-.55-1.43,12,12,0,0,0,.14-1.79q0-.6-.09-1.79a0,0,0,0,0,0,0Z"/><path d="M59.5,150.14a7.82,7.82,0,0,1,.28-1.33q.37-1.15.87-3.33t.74-3.06q.28-1.1.69-3.15t.51-2.55q1.2-5.43,1.52-6.62l.39-1.36.46-1.59.39-1.33,1.24-5.11a3.1,3.1,0,0,0,0-.87,1.17,1.17,0,0,1,.64-1.47q.28-.14.85-.37a6.37,6.37,0,0,0,.81-.37,6.84,6.84,0,0,1,2.12-.28,1,1,0,0,1,1.2.78,4,4,0,0,1,.23.87q.69,6.35.92,8.83.23,2.12.6,5.75,0,.23.07.48t0,.55c0,.2,0,.36,0,.48q.37,3.41.55,5.06.18,2.16.55,6.39a10.67,10.67,0,0,1,0,1.17v1.22a.89.89,0,0,1-.41.69,10,10,0,0,1-3.08,1.29.44.44,0,0,0-.32.14.83.83,0,0,1-.92,0,1,1,0,0,1-.55-1,64,64,0,0,0-.64-8.6q-.09-.55-.21-1.61t-.16-1.61a1.66,1.66,0,0,0-.23-.71q-.14-.16-.64-.11t-3.59.23a.88.88,0,0,0-.87.83q-.18,1-1.2,5.43-.18.65-.53,1.93t-.48,1.93a20.49,20.49,0,0,1-.78,2.76q-.46.41-.6.28c0-.06-.06-.09-.09-.09a.13.13,0,0,0,0,.09v0l-.28.14A3.1,3.1,0,0,1,59.5,150.14Zm4.78-13.94,1.29-.14q.41,0,1.22-.07L68,136q.46,0,.55-.11c.06-.08.06-.27,0-.58s-.14-1.07-.23-1.91-.15-1.48-.18-1.91q-.09-1-.3-3.06t-.34-3.06a1.62,1.62,0,0,0-.07-.39,1.61,1.61,0,0,1-.07-.34A55.59,55.59,0,0,0,64.28,136.21Z"/><path d="M83.9,140.78l.11-.48q.09-.37.69-3.08t1-4.14q.37-1.47,1.15-4.16l1-3.33q1-3,1.06-3.5.41-1.84,1.52-5.34.18-.78.83-.74a3,3,0,0,1,1.1.23q1,.55,2.94,1.75.41.23.32,1a.54.54,0,0,1,0,.16.49.49,0,0,1-.09.16,12.49,12.49,0,0,0-.69,1.56q-.32.87-.51,1.52l-.48,1.72q-.3,1.08-.44,1.63-.37,1.24-1.08,3.73t-1.08,3.73q-1.34,5.2-1.61,6.39l-1,5.57Q88,149,87.7,150.88a1.47,1.47,0,0,1-.46,1,.84.84,0,0,1-.87.12,9.23,9.23,0,0,1-3.45-2.21,2.07,2.07,0,0,1-.64-1.38q-.09-.92-.32-2.71t-.23-1.93q-.28-2.39-.41-3.63-.28-2.21-.37-3.36-.09-1.89-.87-6.9-.55-3.17-1.56-9.52-.09-.37-.25-1.08T78,118.17A1.75,1.75,0,0,1,78.2,117a.67.67,0,0,1,.76-.34.78.78,0,0,1,.64.64,18.85,18.85,0,0,1,.51,1.93q0,.37.55,3.91t.83,5.38q.09.46,1.66,10,.14.69.32,2.07l.18.6h.18A2.2,2.2,0,0,1,83.9,140.78Z"/><path d="M102.74,149l2.62-.39,2.62-.39h.18q.92-.09,1.15.14t.14,1.15a.62.62,0,0,1-.46.74l-.28,0-.28,0a45.23,45.23,0,0,0-5.66.74,7,7,0,0,1-1.22.12,8.05,8.05,0,0,0-1,.07q-1.2,0-1.84,0a1.58,1.58,0,0,1-1.79-1.38,3.11,3.11,0,0,1-.09-1.52q.6-3.73.92-8.51,0-.87.11-2.58t.12-2.53.41-6.12q0-1.43.23-4.28.14-1.75.32-5.24a1.2,1.2,0,0,1,.41-.83,3.91,3.91,0,0,1,2-.78l2-.16,2.32-.16a6.79,6.79,0,0,1,.9,0q.57,0,1,0a4,4,0,0,0,.87-.18h.41a1.91,1.91,0,0,1,.81.21,1.54,1.54,0,0,1,.11.81,1.83,1.83,0,0,1-.14.94c-.09.11-.4.18-.92.21q-2.39.09-3.59.18a.91.91,0,0,0-.58.18,1.46,1.46,0,0,0-.16.69l-.55,6.62s0,.89-.14,2.58l-.14,2.9q0,.64.14.76t.74,0l2.67-.28a1,1,0,0,1,.64.07,1.46,1.46,0,0,1,.28.67,1.52,1.52,0,0,1,.09.37c0,.43-.14.66-.51.69s-1,.12-1.75.18-1.58.12-2,.18-.51.32-.51.78-.06,1-.09,1.7,0,1.3,0,1.7q-.46,5.84-.64,6.81-.09.55-.21,1.7t-.16,1.38A1.25,1.25,0,0,0,102.74,149Z"/><path d="M124.4,150.14a7.82,7.82,0,0,1,.28-1.33q.37-1.15.87-3.33t.74-3.06q.28-1.1.69-3.15t.51-2.55q1.2-5.43,1.52-6.62l.39-1.36.46-1.59.39-1.33,1.24-5.11a3.1,3.1,0,0,0,0-.87,1.17,1.17,0,0,1,.64-1.47q.28-.14.85-.37a6.37,6.37,0,0,0,.81-.37,6.84,6.84,0,0,1,2.12-.28,1,1,0,0,1,1.2.78,4,4,0,0,1,.23.87q.69,6.35.92,8.83.23,2.12.6,5.75,0,.23.07.48t0,.55c0,.2,0,.36,0,.48q.37,3.41.55,5.06.18,2.16.55,6.39a10.67,10.67,0,0,1,0,1.17v1.22a.89.89,0,0,1-.41.69,10,10,0,0,1-3.08,1.29.44.44,0,0,0-.32.14.83.83,0,0,1-.92,0,1,1,0,0,1-.55-1,64,64,0,0,0-.64-8.6q-.09-.55-.21-1.61t-.16-1.61a1.66,1.66,0,0,0-.23-.71q-.14-.16-.64-.11t-3.59.23a.88.88,0,0,0-.87.83q-.18,1-1.2,5.43-.18.65-.53,1.93t-.48,1.93a20.49,20.49,0,0,1-.78,2.76q-.46.41-.6.28c0-.06-.06-.09-.09-.09a.13.13,0,0,0,0,.09v0l-.28.14A3.1,3.1,0,0,1,124.4,150.14Zm4.78-13.94,1.29-.14q.41,0,1.22-.07l1.22,0q.46,0,.55-.11c.06-.08.06-.27,0-.58s-.14-1.07-.23-1.91-.15-1.48-.18-1.91q-.09-1-.3-3.06t-.34-3.06a1.62,1.62,0,0,0-.07-.39,1.61,1.61,0,0,1-.07-.34A55.59,55.59,0,0,0,129.19,136.21Z"/><path d="M172.66,134.55a6.27,6.27,0,0,1,.14,1,8.06,8.06,0,0,0,.09.87,30.87,30.87,0,0,1-1.29,7.31,9.69,9.69,0,0,1-.46,1.13,8.7,8.7,0,0,1-.48.9l-.67,1q-.46.69-.6.87a12.81,12.81,0,0,1-3.63,3.63l-.09,0a4.35,4.35,0,0,1-1,.48,9.48,9.48,0,0,1-1.77.34,6.81,6.81,0,0,1-2.74-.34,11.75,11.75,0,0,1-3.24-1.63,9.29,9.29,0,0,1-1.47-3.06,12.91,12.91,0,0,1-.55-2.87v-1.15l.14-.69a12.51,12.51,0,0,1,.46-1.56q.28-.69,1-.28c.21.09.32.21.32.37l0,.18q0,.14-.14.48a5.5,5.5,0,0,0-.14.67,5.32,5.32,0,0,0-.14,2.48,5.15,5.15,0,0,0,4.65,5.06,3.48,3.48,0,0,0,2.9-.58,4.73,4.73,0,0,0,1.61-2.58,18.43,18.43,0,0,0,.6-3.24,22.51,22.51,0,0,0,0-3.22,13.46,13.46,0,0,0-.18-2.3l-.14-.69q-.87-3.73-3.73-4.51l-2.07-.55a4.52,4.52,0,0,1-2.85-4.37,10.75,10.75,0,0,1,.74-3.5,12.4,12.4,0,0,1,1.61-3.13,7.49,7.49,0,0,1,4.32-2.94,23.6,23.6,0,0,1,2.9-.55,5.37,5.37,0,0,1,3.27,1A5.81,5.81,0,0,1,171.6,120a2.07,2.07,0,0,1,.23.41c.06.31.06.49,0,.55a.45.45,0,0,1-.41.23,1.56,1.56,0,0,1-.6-.41,8.18,8.18,0,0,0-2.25-1.43,3.91,3.91,0,0,0-3.08,0,10.36,10.36,0,0,0-2.76,1.24,6.86,6.86,0,0,0-2.76,3.4,10.86,10.86,0,0,0-1,2.94,2.49,2.49,0,0,0-.09.51,1.73,1.73,0,0,0,.25,1.22,1,1,0,0,0,.94.25,25,25,0,0,1,3.31-.14q.46,0,1.59-.09a11.78,11.78,0,0,1,1.73,0,5.51,5.51,0,0,1,4.19,2.25A8.22,8.22,0,0,1,172.66,134.55Z"/><path d="M186.18,140.64q.09-3.2.14-4.76a1.29,1.29,0,0,0-.11-.67c-.08-.11-.25-.16-.53-.16a22.35,22.35,0,0,1-3-.18q-.78-.14-.83.64-.41,5.71-.51,7,0,.74-.18,2.21t-.18,2.21a6.81,6.81,0,0,0,0,1.29l0,1.29a1.49,1.49,0,0,1-.11.55,1.33,1.33,0,0,1-.53.23,30.29,30.29,0,0,1-3.59.55,1.43,1.43,0,0,1-1.13-.41,1.33,1.33,0,0,1-.44-1.1q.28-5.8.28-5.89.46-6.71.64-9.75l.41-5.38q.09-.83.23-2.39t.18-2.39q0-.51.18-1.5t.18-1.45q.09-1.47.09-2.25a1.11,1.11,0,0,1,.87-1.1,6.53,6.53,0,0,1,3.54.18l.32.09a2.09,2.09,0,0,1,1,.6,2.41,2.41,0,0,1,.11,1.15q0,.78-.21,2.23t-.21,1.68q-.09,1.15-.3,3.38t-.3,3.24q0,.55-.18,2.58a1,1,0,0,0,.07.62.94.94,0,0,0,.58.25,21.17,21.17,0,0,0,3.08.14q.64,0,.69-.55a21.72,21.72,0,0,0,.14-2.39q0-1.24.16-3.7t.16-3.7q0-.78,0-2.28t0-2.28a1.82,1.82,0,0,1,0-.51.6.6,0,0,1,.44-.58.72.72,0,0,1,.71.16,2.69,2.69,0,0,1,1.06,2.16q-.09,1.24-.12,3.47t-.07,3.11l-.28,5.52c0,.18,0,.46,0,.83s0,.64,0,.83q0,1-.09,3.06t-.09,3.06.14,8.1q0,.28,0,1a6.77,6.77,0,0,0,0,1.13.86.86,0,0,1-.55.74,1.39,1.39,0,0,1-1.47-.09A1.58,1.58,0,0,1,186,149a12,12,0,0,0,.14-1.79q0-.6-.09-1.79a0,0,0,0,0,0,0Z"/><path d="M197.68,149l2.62-.39,2.62-.39h.18q.92-.09,1.15.14t.14,1.15a.62.62,0,0,1-.46.74l-.28,0-.28,0a45.23,45.23,0,0,0-5.66.74,7,7,0,0,1-1.22.12,8.05,8.05,0,0,0-1,.07q-1.2,0-1.84,0a1.58,1.58,0,0,1-1.79-1.38,3.11,3.11,0,0,1-.09-1.52q.6-3.73.92-8.51,0-.87.11-2.58t.12-2.53.41-6.12q0-1.43.23-4.28.14-1.75.32-5.24a1.2,1.2,0,0,1,.41-.83,3.91,3.91,0,0,1,2-.78l2-.16,2.32-.16a6.79,6.79,0,0,1,.9,0q.57,0,1,0a4,4,0,0,0,.87-.18h.41a1.91,1.91,0,0,1,.81.21,1.54,1.54,0,0,1,.11.81,1.83,1.83,0,0,1-.14.94c-.09.11-.4.18-.92.21q-2.39.09-3.59.18a.91.91,0,0,0-.58.18,1.46,1.46,0,0,0-.16.69l-.55,6.62s0,.89-.14,2.58l-.14,2.9q0,.64.14.76t.74,0l2.67-.28a1,1,0,0,1,.64.07,1.46,1.46,0,0,1,.28.67,1.52,1.52,0,0,1,.09.37c0,.43-.14.66-.51.69s-1,.12-1.75.18-1.58.12-2,.18-.51.32-.51.78-.06,1-.09,1.7,0,1.3,0,1.7q-.46,5.84-.64,6.81-.09.55-.21,1.7t-.16,1.38A1.25,1.25,0,0,0,197.68,149Z"/><path d="M214.15,130.73q-.14,8.65-.14,8.74,0,1.29-.37,7.36a5.59,5.59,0,0,0,0,.85,5.75,5.75,0,0,1,0,.85c0,.34.08.55.32.64l1,.14,3.73-.14a1.69,1.69,0,0,1,.55,0q.46,0,.55.64a3.11,3.11,0,0,1,0,1.29q-.11.18-1,.18c-.18,0-.44,0-.78,0s-.6,0-.78,0h-1.33l-2.53-.14q-.64,0-1.89.07l-1.89.11h-.23a1.51,1.51,0,0,1-1.38-2q.46-3.22.74-9.71.14-2.21.23-9.89,0-2.07.18-6.21v-3.86c0-.21,0-.54,0-1s0-.75,0-1a1.2,1.2,0,0,1,.87-1.33,4.66,4.66,0,0,1,4.19.83,1.13,1.13,0,0,1,.46,1.06V120h0Q214.24,127.19,214.15,130.73Z"/><path d="M230.07,132.8a9.38,9.38,0,0,1,1.52-.18q1,0,.74,1.06-.32,1.29-1.47,1.15-.23,0-1.84.23-.51,0-.51.64,0,3.77-.23,11.55,0,.46,0,1.4t0,1.4a1.59,1.59,0,0,1-.09.64.6.6,0,0,1-.21.25,2.54,2.54,0,0,1-.62.16,11.83,11.83,0,0,1-1.89.18q-1.24,0-1.61.09a.6.6,0,0,1-.74-.37,4.22,4.22,0,0,1-.46-1.7q0-.87,0-2.67t0-2.71q.37-10.9.37-12.33,0-.83.18-5.93l.41-6.49q.09-.78.51-.92a11.68,11.68,0,0,1,1.2-.37l.9,0q.62,0,.94,0a10.93,10.93,0,0,0,1.66-.09,7.93,7.93,0,0,0,1-.09c.44-.06.73-.09.85-.09q.46-.09,1.47-.18l.6-.09.41,0q.09,0,1.43-.28a4.89,4.89,0,0,1,1.1-.09.53.53,0,0,1,.37.09c.15.06.2.29.14.69a2.24,2.24,0,0,0,0,.74c.06.25-.06.4-.37.46l-1,.16-1.13.16q-2.44.18-3.5.32a1.59,1.59,0,0,0-.83.28,1.49,1.49,0,0,0-.23.87q0,1.15-.21,3.54t-.25,3.63q-.14,2.07-.14,4c0,.09,0,.23,0,.41s0,.34,0,.46Q229.74,132.8,230.07,132.8Z"/><path d="M257.9,130.73q-.14,8.65-.14,8.74,0,1.29-.37,7.36a5.59,5.59,0,0,0,0,.85,5.75,5.75,0,0,1,0,.85c0,.34.08.55.32.64l1,.14,3.73-.14a1.69,1.69,0,0,1,.55,0q.46,0,.55.64a3.11,3.11,0,0,1,0,1.29q-.11.18-1,.18c-.18,0-.44,0-.78,0s-.6,0-.78,0H259.5l-2.53-.14q-.64,0-1.89.07l-1.89.11H253a1.51,1.51,0,0,1-1.38-2q.46-3.22.74-9.71.14-2.21.23-9.89,0-2.07.18-6.21v-3.86c0-.21,0-.54,0-1s0-.75,0-1a1.2,1.2,0,0,1,.87-1.33,4.66,4.66,0,0,1,4.19.83,1.13,1.13,0,0,1,.46,1.06V120h0Q258,127.19,257.9,130.73Z"/><path d="M272.66,121.53a43.69,43.69,0,0,0-.46,6.53l-.14,7.87v5.15q0,1-.09,2.88t-.09,2.88q0,.46,0,1.38t0,1.38a1.15,1.15,0,0,1-.11.64,1.6,1.6,0,0,1-.53.32,8.18,8.18,0,0,1-2.16.55q-.6,0-1.75,0a.49.49,0,0,1-.46-.23,3.53,3.53,0,0,1-.51-1.89q0-.32.07-1c0-.43,0-.75,0-1q0-1.15.18-13.66,0-4.14.28-8.37,0-.83.18-2.55t.18-2.6q0-.6,0-1.79a1.17,1.17,0,0,1,.87-1.29,2.89,2.89,0,0,1,1.56-.18,5.72,5.72,0,0,1,2.25.69,1.86,1.86,0,0,1,.85.62,3,3,0,0,1,.16,1.22Q272.8,120.75,272.66,121.53Z"/><path d="M283.29,132.8a9.38,9.38,0,0,1,1.52-.18q1,0,.74,1.06-.32,1.29-1.47,1.15-.23,0-1.84.23-.51,0-.51.64,0,3.77-.23,11.55,0,.46,0,1.4t0,1.4a1.59,1.59,0,0,1-.09.64.6.6,0,0,1-.21.25,2.54,2.54,0,0,1-.62.16,11.83,11.83,0,0,1-1.89.18q-1.24,0-1.61.09a.6.6,0,0,1-.74-.37,4.22,4.22,0,0,1-.46-1.7q0-.87,0-2.67t0-2.71q.37-10.9.37-12.33,0-.83.18-5.93l.41-6.49q.09-.78.51-.92a11.68,11.68,0,0,1,1.2-.37l.9,0q.62,0,.94,0a10.93,10.93,0,0,0,1.66-.09,7.93,7.93,0,0,0,1-.09c.44-.06.73-.09.85-.09q.46-.09,1.47-.18l.6-.09.41,0q.09,0,1.43-.28a4.89,4.89,0,0,1,1.1-.09.53.53,0,0,1,.37.09c.15.06.2.29.14.69a2.24,2.24,0,0,0,0,.74c.06.25-.06.4-.37.46l-1,.16-1.13.16q-2.44.18-3.5.32a1.59,1.59,0,0,0-.83.28,1.49,1.49,0,0,0-.23.87q0,1.15-.21,3.54T282,128q-.14,2.07-.14,4c0,.09,0,.23,0,.41s0,.34,0,.46Q283,132.8,283.29,132.8Z"/><path d="M296.3,149l2.62-.39,2.62-.39h.18q.92-.09,1.15.14t.14,1.15a.62.62,0,0,1-.46.74l-.28,0-.28,0a45.22,45.22,0,0,0-5.66.74,7,7,0,0,1-1.22.12,8.06,8.06,0,0,0-1,.07q-1.2,0-1.84,0a1.58,1.58,0,0,1-1.79-1.38,3.11,3.11,0,0,1-.09-1.52q.6-3.73.92-8.51,0-.87.12-2.58t.12-2.53.41-6.12q0-1.43.23-4.28.14-1.75.32-5.24a1.19,1.19,0,0,1,.41-.83,3.91,3.91,0,0,1,2-.78l2-.16,2.32-.16a6.77,6.77,0,0,1,.9,0q.58,0,1,0a4,4,0,0,0,.87-.18h.41a1.92,1.92,0,0,1,.81.21,1.54,1.54,0,0,1,.11.81,1.84,1.84,0,0,1-.14.94c-.09.11-.4.18-.92.21q-2.39.09-3.59.18a.91.91,0,0,0-.58.18,1.45,1.45,0,0,0-.16.69l-.55,6.62s0,.89-.14,2.58l-.14,2.9q0,.64.14.76t.74,0l2.67-.28a1,1,0,0,1,.64.07,1.46,1.46,0,0,1,.28.67,1.51,1.51,0,0,1,.09.37c0,.43-.14.66-.51.69s-1,.12-1.75.18-1.58.12-2,.18-.51.32-.51.78-.06,1-.09,1.7,0,1.3,0,1.7q-.46,5.84-.64,6.81-.09.55-.21,1.7t-.16,1.38A1.25,1.25,0,0,0,296.3,149Z"/><path d="M318.94,140.53q-.46-4-.51-4.65a25.35,25.35,0,0,1,1.38-10.63,16.24,16.24,0,0,1,2.25-4.37q.23-.23.67-.71l.67-.76a2.66,2.66,0,0,0,.74-1,.56.56,0,0,1,.37-.41l.83-.16a7.78,7.78,0,0,0,.83-.21,2.44,2.44,0,0,1,1.08-.07l1.06.12q.3,0,1.06.23t1.08.23a4.43,4.43,0,0,1,3.17,2.48,41.88,41.88,0,0,1,3,8.1,26.31,26.31,0,0,1,.41,9.57q-.46,3.31-.6,4a13.38,13.38,0,0,1-.69,2.44q-.74,2.12-1.15,3.13a5.71,5.71,0,0,1-2.35,2.58l-1.2.64q-.78.41-1.15.64c-.31.15-.51.21-.6.18l-1.31,0q-1.17,0-1.31-.14a5.81,5.81,0,0,0-1.93-.32,3.63,3.63,0,0,1-3.27-2.3q-.32-.69-1.52-3.5A36.77,36.77,0,0,1,318.94,140.53Zm11.48-15.73q-.39-.87-.92-1.93t-.8-1.66a1,1,0,0,0-.64-.64,7.1,7.1,0,0,0-1.79-.55,1.39,1.39,0,0,0-1,.23,6.73,6.73,0,0,0-2.48,2.85,21.28,21.28,0,0,0-2.12,6.85,31.57,31.57,0,0,0-.28,5.57q.32,3.54,1.06,7.41a26.92,26.92,0,0,0,1.7,5.11q.55,1.15,1.43,1.1H326a1.74,1.74,0,0,0,.69-.09,6.28,6.28,0,0,0,3.63-3.5,38.73,38.73,0,0,0,1.29-4.23q0-.14.55-3.4a23.38,23.38,0,0,0,0-6.07,20.19,20.19,0,0,0-1.2-5.34A8.94,8.94,0,0,0,330.41,124.8Z"/><path d="M347.64,132.8a9.39,9.39,0,0,1,1.52-.18q1,0,.74,1.06-.32,1.29-1.47,1.15-.23,0-1.84.23c-.34,0-.51.25-.51.64q0,3.77-.23,11.55,0,.46,0,1.4c0,.63,0,1.1,0,1.4a1.58,1.58,0,0,1-.09.64.6.6,0,0,1-.21.25,2.52,2.52,0,0,1-.62.16,11.83,11.83,0,0,1-1.89.18q-1.24,0-1.61.09a.6.6,0,0,1-.74-.37,4.2,4.2,0,0,1-.46-1.7q0-.87,0-2.67t0-2.71q.37-10.9.37-12.33,0-.83.18-5.93l.41-6.49q.09-.78.51-.92a11.73,11.73,0,0,1,1.2-.37l.9,0c.41,0,.73,0,.94,0a10.92,10.92,0,0,0,1.66-.09,7.94,7.94,0,0,0,1-.09c.44-.06.73-.09.85-.09q.46-.09,1.47-.18l.6-.09.41,0q.09,0,1.43-.28a4.9,4.9,0,0,1,1.1-.09.53.53,0,0,1,.37.09c.15.06.2.29.14.69a2.21,2.21,0,0,0,0,.74c.06.25-.06.4-.37.46l-1,.16-1.13.16q-2.44.18-3.5.32a1.59,1.59,0,0,0-.83.28,1.49,1.49,0,0,0-.23.87q0,1.15-.21,3.54T346.4,128q-.14,2.07-.14,4c0,.09,0,.23,0,.41s0,.34,0,.46Q347.32,132.8,347.64,132.8Z"/><path d="M376.66,132.8a9.39,9.39,0,0,1,1.52-.18q1,0,.74,1.06-.32,1.29-1.47,1.15-.23,0-1.84.23c-.34,0-.51.25-.51.64q0,3.77-.23,11.55,0,.46,0,1.4c0,.63,0,1.1,0,1.4a1.58,1.58,0,0,1-.09.64.6.6,0,0,1-.21.25,2.52,2.52,0,0,1-.62.16,11.83,11.83,0,0,1-1.89.18q-1.24,0-1.61.09a.6.6,0,0,1-.74-.37,4.2,4.2,0,0,1-.46-1.7q0-.87,0-2.67t0-2.71q.37-10.9.37-12.33,0-.83.18-5.93l.41-6.49q.09-.78.51-.92a11.73,11.73,0,0,1,1.2-.37l.9,0c.41,0,.73,0,.94,0a10.92,10.92,0,0,0,1.66-.09,7.94,7.94,0,0,0,1-.09c.44-.06.73-.09.85-.09q.46-.09,1.47-.18l.6-.09.41,0q.09,0,1.43-.28a4.9,4.9,0,0,1,1.1-.09.53.53,0,0,1,.37.09c.15.06.2.29.14.69a2.21,2.21,0,0,0,0,.74c.06.25-.06.4-.37.46l-1,.16-1.13.16q-2.44.18-3.5.32a1.59,1.59,0,0,0-.83.28,1.49,1.49,0,0,0-.23.87q0,1.15-.21,3.54t-.25,3.63q-.14,2.07-.14,4c0,.09,0,.23,0,.41s0,.34,0,.46Q376.34,132.8,376.66,132.8Z"/><path d="M392.58,121.53a43.55,43.55,0,0,0-.46,6.53l-.14,7.87v5.15q0,1-.09,2.88t-.09,2.88q0,.46,0,1.38c0,.61,0,1.07,0,1.38a1.15,1.15,0,0,1-.12.64,1.6,1.6,0,0,1-.53.32,8.18,8.18,0,0,1-2.16.55q-.6,0-1.75,0a.49.49,0,0,1-.46-.23,3.52,3.52,0,0,1-.51-1.89q0-.32.07-1c0-.43,0-.75,0-1q0-1.15.18-13.66,0-4.14.28-8.37,0-.83.18-2.55t.18-2.6c0-.4,0-1,0-1.79a1.17,1.17,0,0,1,.87-1.29,2.88,2.88,0,0,1,1.56-.18,5.71,5.71,0,0,1,2.25.69,1.86,1.86,0,0,1,.85.62,3,3,0,0,1,.16,1.22Q392.72,120.75,392.58,121.53Z"/><path d="M401.57,140.78l.12-.48q.09-.37.69-3.08t1-4.14q.37-1.47,1.15-4.16l1-3.33q1-3,1.06-3.5.41-1.84,1.52-5.34.18-.78.83-.74a3,3,0,0,1,1.1.23q1,.55,2.94,1.75.41.23.32,1a.53.53,0,0,1,0,.16.5.5,0,0,1-.09.16,12.49,12.49,0,0,0-.69,1.56q-.32.87-.51,1.52l-.48,1.72q-.3,1.08-.44,1.63-.37,1.24-1.08,3.73t-1.08,3.73q-1.33,5.2-1.61,6.39,0,.28-1,5.57-.55,3.86-.87,5.75a1.47,1.47,0,0,1-.46,1,.84.84,0,0,1-.87.12,9.24,9.24,0,0,1-3.45-2.21,2.08,2.08,0,0,1-.64-1.38q-.09-.92-.32-2.71t-.23-1.93q-.28-2.39-.41-3.63-.28-2.21-.37-3.36-.09-1.89-.87-6.9-.55-3.17-1.56-9.52-.09-.37-.25-1.08t-.21-1.08a1.75,1.75,0,0,1,.16-1.13.67.67,0,0,1,.76-.34.78.78,0,0,1,.64.64,18.59,18.59,0,0,1,.51,1.93q0,.37.55,3.91t.83,5.38q.09.46,1.66,10,.14.69.32,2.07l.18.6h.18A2.19,2.19,0,0,1,401.57,140.78Z"/><path d="M420.41,149l2.62-.39,2.62-.39h.18q.92-.09,1.15.14t.14,1.15a.62.62,0,0,1-.46.74l-.28,0-.28,0a45.24,45.24,0,0,0-5.66.74,7,7,0,0,1-1.22.12,8,8,0,0,0-1,.07q-1.2,0-1.84,0a1.58,1.58,0,0,1-1.79-1.38,3.1,3.1,0,0,1-.09-1.52q.6-3.73.92-8.51,0-.87.11-2.58t.12-2.53.41-6.12q0-1.43.23-4.28.14-1.75.32-5.24a1.2,1.2,0,0,1,.41-.83,3.92,3.92,0,0,1,2-.78l2-.16,2.32-.16a6.8,6.8,0,0,1,.9,0c.38,0,.73,0,1,0a4,4,0,0,0,.87-.18h.41a1.91,1.91,0,0,1,.8.21,1.54,1.54,0,0,1,.12.81,1.83,1.83,0,0,1-.14.94c-.09.11-.4.18-.92.21q-2.39.09-3.59.18a.91.91,0,0,0-.58.18,1.47,1.47,0,0,0-.16.69l-.55,6.62s0,.89-.14,2.58l-.14,2.9q0,.64.14.76t.74,0l2.67-.28a1,1,0,0,1,.64.07,1.46,1.46,0,0,1,.28.67,1.54,1.54,0,0,1,.09.37q0,.64-.51.69t-1.75.18q-1.38.09-2,.18t-.51.78q0,.6-.09,1.7c0,.74,0,1.3,0,1.7q-.46,5.84-.64,6.81-.09.55-.21,1.7t-.16,1.38A1.25,1.25,0,0,0,420.41,149Z"/><path d="M449.14,130.92q.3-1.06.44-1.61.41-1.79,1.13-5.13t1-4.71q.37-1.75.55-2.67a1.32,1.32,0,0,1,1-1.2,3.54,3.54,0,0,1,3,.74,2.59,2.59,0,0,1,.46.32l.37.32a1.81,1.81,0,0,1,.64,2.07q-1.61,6.17-2.21,9-.23,1.15-.55,2.42t-.74,2.81q-.41,1.54-.64,2.37-.51,2.07-2,8.19-.18.83-.53,2.51t-.53,2.51l-.69,2.81c-.12.31-.25.46-.37.46a3.92,3.92,0,0,1-1.33.18,22.8,22.8,0,0,1-2.94-.51q-.37-.09-.62-.8a2.19,2.19,0,0,1-.12-1.27l1.52-6.35q.51-2.07,1.52-6.3a4.44,4.44,0,0,0,0-1.79L446.31,131q-.28-1.06-.83-3.08t-.83-3.08a.62.62,0,0,0,0-.14.61.61,0,0,1,0-.14q-.28-.73-.85-2.21t-.85-2.21q-.23-.6-.37-1.06a1.21,1.21,0,0,1,.46-1.43q.55-.41,1.06.32a3.14,3.14,0,0,1,.55,1q.41,1.24,1.33,3.73a21.89,21.89,0,0,1,.76,2.42q.44,1.63.48,1.77.46,1.66,1.38,4.88a2.07,2.07,0,0,0,.23.41Q448.84,132,449.14,130.92Z"/><path d="M466.41,149l2.62-.39,2.62-.39h.18q.92-.09,1.15.14t.14,1.15a.62.62,0,0,1-.46.74l-.28,0-.28,0a45.24,45.24,0,0,0-5.66.74,7,7,0,0,1-1.22.12,8,8,0,0,0-1,.07q-1.2,0-1.84,0a1.58,1.58,0,0,1-1.79-1.38,3.1,3.1,0,0,1-.09-1.52q.6-3.73.92-8.51,0-.87.11-2.58t.12-2.53.41-6.12q0-1.43.23-4.28.14-1.75.32-5.24a1.2,1.2,0,0,1,.41-.83,3.92,3.92,0,0,1,2-.78l2-.16,2.32-.16a6.8,6.8,0,0,1,.9,0c.38,0,.73,0,1,0a4,4,0,0,0,.87-.18h.41a1.91,1.91,0,0,1,.8.21,1.54,1.54,0,0,1,.12.81,1.83,1.83,0,0,1-.14.94c-.09.11-.4.18-.92.21q-2.39.09-3.59.18a.91.91,0,0,0-.58.18,1.47,1.47,0,0,0-.16.69l-.55,6.62s0,.89-.14,2.58l-.14,2.9q0,.64.14.76t.74,0l2.67-.28a1,1,0,0,1,.64.07,1.46,1.46,0,0,1,.28.67,1.54,1.54,0,0,1,.09.37q0,.64-.51.69t-1.75.18q-1.38.09-2,.18t-.51.78q0,.6-.09,1.7c0,.74,0,1.3,0,1.7q-.46,5.84-.64,6.81-.09.55-.21,1.7t-.16,1.38A1.25,1.25,0,0,0,466.41,149Z"/><path d="M474.27,150.14a7.77,7.77,0,0,1,.28-1.33q.37-1.15.87-3.33t.74-3.06q.28-1.1.69-3.15t.51-2.55q1.2-5.43,1.52-6.62l.39-1.36.46-1.59.39-1.33,1.24-5.11a3.12,3.12,0,0,0,0-.87,1.17,1.17,0,0,1,.64-1.47q.28-.14.85-.37a6.35,6.35,0,0,0,.8-.37,6.84,6.84,0,0,1,2.12-.28,1,1,0,0,1,1.2.78,4,4,0,0,1,.23.87q.69,6.35.92,8.83.23,2.12.6,5.75a4.76,4.76,0,0,1,.07.48c0,.17,0,.35,0,.55s0,.36,0,.48q.37,3.41.55,5.06.18,2.16.55,6.39a10.67,10.67,0,0,1,0,1.17v1.22a.89.89,0,0,1-.41.69,10,10,0,0,1-3.08,1.29.44.44,0,0,0-.32.14.83.83,0,0,1-.92,0,1,1,0,0,1-.55-1,64.05,64.05,0,0,0-.64-8.6q-.09-.55-.21-1.61t-.16-1.61a1.65,1.65,0,0,0-.23-.71q-.14-.16-.64-.11t-3.59.23a.88.88,0,0,0-.87.83q-.18,1-1.2,5.43-.18.65-.53,1.93t-.48,1.93a20.32,20.32,0,0,1-.78,2.76q-.46.41-.6.28c0-.06-.06-.09-.09-.09a.13.13,0,0,0,0,.09v0l-.28.14A3.09,3.09,0,0,1,474.27,150.14Zm4.78-13.94,1.29-.14q.41,0,1.22-.07l1.22,0q.46,0,.55-.11c.06-.08.06-.27,0-.58s-.14-1.07-.23-1.91-.15-1.48-.18-1.91q-.09-1-.3-3.06t-.34-3.06a1.62,1.62,0,0,0-.07-.39,1.6,1.6,0,0,1-.07-.34A55.59,55.59,0,0,0,479.06,136.21Z"/><path d="M500.08,135.35a4.4,4.4,0,0,0-.64.48,1.25,1.25,0,0,0-.32.6,12,12,0,0,0-.09,1.24q-.18,3.27-.46,9.8l-.14,2.76a1,1,0,0,1-.6.87,10.29,10.29,0,0,1-1.08.41q-.58.18-1.31.34l-1.1.25a.89.89,0,0,1-.58,0,1.39,1.39,0,0,1-.39-.55,2.09,2.09,0,0,0-.32-.51,1.85,1.85,0,0,1-.28-1.33l.41-5.24q.37-5.06.51-7.59.14-1.56.32-4.69.37-3.82.51-6,0-.92,0-2.76,0-.28,0-1.13t.07-1.31a1.23,1.23,0,0,0-.37-1.06.66.66,0,0,1-.37-.78.78.78,0,0,1,.64-.64q.46-.09,1.27-.3l1.47-.37,1.26-.3a24.92,24.92,0,0,1,4.69-.46,6.82,6.82,0,0,1,3,.78,3.91,3.91,0,0,1,1.56,1.79,7.62,7.62,0,0,1,.51,5.7,10.43,10.43,0,0,1-2.44,4.46q-.37.41-1,1.22t-.74.94q-.18.23-.64.69A1.3,1.3,0,0,0,503,134l.48,2.23q.39,1.82.62,2.83t2.07,8.65q.09.28.34,1.1t.34,1.29a1.7,1.7,0,0,1-.16,1.31,1.28,1.28,0,0,1-.94.71.28.28,0,0,1-.37-.09,2.47,2.47,0,0,1-.92-1.38q-.28-1.66-.67-3.45t-.92-4q-.53-2.23-.76-3.38-.18-.83-.6-2.32t-.55-2l-.28-.6A4.19,4.19,0,0,1,500.08,135.35Zm-.6-2.37.6-.41a5.33,5.33,0,0,0,.69-.55,33,33,0,0,0,4.37-5,9.39,9.39,0,0,0,1.52-5.06q.14-2.53-2.21-2.85-.69,0-4,0a2.21,2.21,0,0,0-.55.23,4,4,0,0,1,.35,1,8.67,8.67,0,0,1-.07,1.2.63.63,0,0,0,0,.28v.28q-.37,4.6-.51,6.85-.14,1.29-.32,3.86A.75.75,0,0,1,499.48,133Z"/><path d="M529.2,134.55a6.14,6.14,0,0,1,.14,1,8.37,8.37,0,0,0,.09.87,30.86,30.86,0,0,1-1.29,7.31,9.79,9.79,0,0,1-.46,1.13,8.43,8.43,0,0,1-.48.9l-.67,1q-.46.69-.6.87a12.81,12.81,0,0,1-3.63,3.63l-.09,0a4.36,4.36,0,0,1-1,.48,9.49,9.49,0,0,1-1.77.34,6.8,6.8,0,0,1-2.74-.34,11.74,11.74,0,0,1-3.24-1.63,9.28,9.28,0,0,1-1.47-3.06,12.92,12.92,0,0,1-.55-2.87v-1.15l.14-.69a12.35,12.35,0,0,1,.46-1.56q.28-.69,1-.28c.21.09.32.21.32.37l0,.18q0,.14-.14.48a5.6,5.6,0,0,0-.14.67,5.31,5.31,0,0,0-.14,2.48,5.15,5.15,0,0,0,4.65,5.06,3.49,3.49,0,0,0,2.9-.58,4.73,4.73,0,0,0,1.61-2.58,18.39,18.39,0,0,0,.6-3.24,22.58,22.58,0,0,0,0-3.22,13.41,13.41,0,0,0-.18-2.3l-.14-.69q-.87-3.73-3.73-4.51l-2.07-.55a4.52,4.52,0,0,1-2.85-4.37,10.74,10.74,0,0,1,.74-3.5,12.38,12.38,0,0,1,1.61-3.13,7.49,7.49,0,0,1,4.32-2.94,23.61,23.61,0,0,1,2.9-.55,5.37,5.37,0,0,1,3.27,1,5.79,5.79,0,0,1,1.61,1.33,2,2,0,0,1,.23.41c.06.31.06.49,0,.55a.45.45,0,0,1-.41.23,1.56,1.56,0,0,1-.6-.41,8.16,8.16,0,0,0-2.25-1.43,3.91,3.91,0,0,0-3.08,0,10.36,10.36,0,0,0-2.76,1.24,6.86,6.86,0,0,0-2.76,3.4,10.82,10.82,0,0,0-1,2.94,2.46,2.46,0,0,0-.09.51,1.73,1.73,0,0,0,.25,1.22,1,1,0,0,0,.94.25,25,25,0,0,1,3.31-.14q.46,0,1.59-.09a11.77,11.77,0,0,1,1.72,0,5.51,5.51,0,0,1,4.19,2.25A8.19,8.19,0,0,1,529.2,134.55Z"/><path d="M532.83,148.12a.66.66,0,0,1,.78-.18,3.11,3.11,0,0,1,.74.18,1.35,1.35,0,0,1,1.15,1.33,2.74,2.74,0,0,1,0,1.29q-.46.87-1.2.64a8.28,8.28,0,0,1-1.66-.83,1,1,0,0,1-.41-1.06A1.89,1.89,0,0,1,532.83,148.12Z"/></svg>