<svg id="Layer_1" data-name="Layer 1" xmlns="http://www.w3.org/2000/svg" viewBox="0 0 579.27 157.6"><title>8</title><path d="M14.47,37.95l3.63-.28,1.31-.11a14.42,14.42,0,0,1,1.79-.09,8.31,8.31,0,0,1,1.31.16,11.41,11.41,0,0,1,2.25.83.66.66,0,0,1,.37.64q0,.41-.46.51a6.71,6.71,0,0,1-2.3.23,3.69,3.69,0,0,0-.78,0q-1.89.18-5.66.46a4.59,4.59,0,0,1-.78,0h-.78l-.92.18-.92.18a2.33,2.33,0,0,1-.78.09l-2.35-.28A1.86,1.86,0,0,1,8.3,40,1.83,1.83,0,0,1,7.8,38q.09-.28.32-.92a9.28,9.28,0,0,1,.37-.92q.69-1.84,3.91-9.2.78-1.61,2.12-4,.32-.6,1.13-2t1.22-2.14q.41-.76,1-2t1-2.25A29.59,29.59,0,0,0,20,11.41a14.16,14.16,0,0,0,.14-2.35,1.14,1.14,0,0,0-.78-1.2,2.58,2.58,0,0,0-1-.14,6.6,6.6,0,0,0-4.23,2.62,14.28,14.28,0,0,0-2,4.09,1.85,1.85,0,0,1-.83,1.06q-.41.37-.74,0a.87.87,0,0,1-.23-.92q.41-1.61.6-2.12a11.05,11.05,0,0,1,2.53-4.46,10.49,10.49,0,0,1,2.85-2.21,5.85,5.85,0,0,1,5.11,0q.28.14.94.41t1,.46a3.55,3.55,0,0,1,1.93,3.27,16.31,16.31,0,0,1-.74,5.29,50.78,50.78,0,0,1-4.14,8.6q-1,1.61-2.81,4.92-.23.46-1.56,3.59-.37.83-1.08,2.48t-1.08,2.48a1.42,1.42,0,0,1,0,.23q0,.18-.09.32A6,6,0,0,0,14.47,37.95Z"/><path d="M33,37.95l3.63-.28,1.31-.11a14.42,14.42,0,0,1,1.79-.09,8.31,8.31,0,0,1,1.31.16,11.41,11.41,0,0,1,2.25.83.66.66,0,0,1,.37.64q0,.41-.46.51a6.71,6.71,0,0,1-2.3.23,3.69,3.69,0,0,0-.78,0q-1.89.18-5.66.46a4.59,4.59,0,0,1-.78,0h-.78l-.92.18-.92.18a2.33,2.33,0,0,1-.78.09l-2.35-.28a1.86,1.86,0,0,1-1.1-.51A1.83,1.83,0,0,1,26.33,38q.09-.28.32-.92A9.28,9.28,0,0,1,27,36.2q.69-1.84,3.91-9.2.78-1.61,2.12-4,.32-.6,1.13-2t1.22-2.14q.41-.76,1-2t1-2.25a29.59,29.59,0,0,0,1.1-3.31,14.16,14.16,0,0,0,.14-2.35,1.14,1.14,0,0,0-.78-1.2,2.58,2.58,0,0,0-1-.14,6.6,6.6,0,0,0-4.23,2.62,14.28,14.28,0,0,0-2,4.09,1.85,1.85,0,0,1-.83,1.06q-.41.37-.74,0a.87.87,0,0,1-.23-.92q.41-1.61.6-2.12A11.05,11.05,0,0,1,32,8.05a10.49,10.49,0,0,1,2.85-2.21,5.85,5.85,0,0,1,5.11,0q.28.14.94.41t1,.46a3.55,3.55,0,0,1,1.93,3.27,16.31,16.31,0,0,1-.74,5.29A50.78,50.78,0,0,1,39,23.83q-1,1.61-2.81,4.92-.23.46-1.56,3.59-.37.83-1.08,2.48t-1.08,2.48a1.42,1.42,0,0,1,0,.23q0,.18-.09.32A6,6,0,0,0,33,37.95Z"/><path d="M47.68,28.84q-.46-4.14-.51-5a30,30,0,0,1,1.29-11.36A14.65,14.65,0,0,1,50.62,8a5,5,0,0,1,.62-.8,5.51,5.51,0,0,0,.58-.71,2.53,2.53,0,0,0,.74-1.06A.41.41,0,0,1,52.92,5a9.57,9.57,0,0,1,1.52-.32,2,2,0,0,1,1,0l1,.16a10.37,10.37,0,0,1,1,.28l1,.32a4.5,4.5,0,0,1,3,2.81A42.58,42.58,0,0,1,64.51,17a31.6,31.6,0,0,1,.41,10.21q-.37,2.85-.51,4.23-.32,1.38-.69,2.62-.55,1.7-1.1,3.31A4.93,4.93,0,0,1,60.37,40l-2.21,1.29a1,1,0,0,1-.6.18H56.51A3.71,3.71,0,0,1,55,41.26a7.21,7.21,0,0,0-1.79-.41q-2.07-.14-3.13-2.62-.32-.69-.85-2.12t-.62-1.7A38.45,38.45,0,0,1,47.68,28.84ZM58.56,12.49q-.34-.94-.87-2.09T56.92,8.6a1.13,1.13,0,0,0-.64-.74,11.32,11.32,0,0,0-1.7-.69,1.24,1.24,0,0,0-1,.23,6.31,6.31,0,0,0-2.35,2.94,22.63,22.63,0,0,0-2,7.27,40,40,0,0,0-.23,6q.55,5.2,1,8a26.12,26.12,0,0,0,1.66,5.52q.46,1.24,1.33,1.24a2.89,2.89,0,0,1,.74,0l.64,0a2,2,0,0,0,.64,0,6.12,6.12,0,0,0,3.45-3.59q.46-1.29,1.24-4.46.09-.6.25-1.84t.25-1.79a26.92,26.92,0,0,0,0-6.49,23.5,23.5,0,0,0-1.2-5.8A12.7,12.7,0,0,0,58.56,12.49Z"/><path d="M72.49,42.37c0,.4-.08.67-.09.83s-.05.38-.11.69a4.07,4.07,0,0,1-.23.78,3.47,3.47,0,0,1-.37.64,1.4,1.4,0,0,0-.32.34A3.41,3.41,0,0,1,71,46a1.51,1.51,0,0,1-2.39,0,.6.6,0,0,1,0-1l.18-.18a3.51,3.51,0,0,0,1.7-3L70.45,40l-.14-.69a.77.77,0,0,1,.69-1,.8.8,0,0,1,1.1.51,7.06,7.06,0,0,1,.37,1.43c0,.15,0,.38,0,.69s0,.54,0,.69S72.54,42,72.49,42.37Z"/><path d="M76.38,28.84q-.46-4.14-.51-5a30,30,0,0,1,1.29-11.36A14.65,14.65,0,0,1,79.32,8a5,5,0,0,1,.62-.8,5.51,5.51,0,0,0,.58-.71,2.53,2.53,0,0,0,.74-1.06A.41.41,0,0,1,81.63,5a9.57,9.57,0,0,1,1.52-.32,2,2,0,0,1,1,0l1,.16a10.37,10.37,0,0,1,1,.28l1,.32a4.5,4.5,0,0,1,3,2.81A42.58,42.58,0,0,1,93.22,17a31.6,31.6,0,0,1,.41,10.21q-.37,2.85-.51,4.23-.32,1.38-.69,2.62-.55,1.7-1.1,3.31A4.93,4.93,0,0,1,89.08,40l-2.21,1.29a1,1,0,0,1-.6.18H85.21a3.71,3.71,0,0,1-1.47-.23,7.21,7.21,0,0,0-1.79-.41q-2.07-.14-3.13-2.62-.32-.69-.85-2.12t-.62-1.7A38.45,38.45,0,0,1,76.38,28.84ZM87.26,12.49q-.34-.94-.87-2.09T85.63,8.6A1.13,1.13,0,0,0,85,7.87a11.32,11.32,0,0,0-1.7-.69,1.24,1.24,0,0,0-1,.23A6.31,6.31,0,0,0,80,10.35a22.63,22.63,0,0,0-2,7.27,40,40,0,0,0-.23,6q.55,5.2,1,8a26.12,26.12,0,0,0,1.66,5.52q.46,1.24,1.33,1.24a2.89,2.89,0,0,1,.74,0l.64,0a2,2,0,0,0,.64,0,6.12,6.12,0,0,0,3.45-3.59q.46-1.29,1.24-4.46.09-.6.25-1.84t.25-1.79a26.92,26.92,0,0,0,0-6.49,23.5,23.5,0,0,0-1.2-5.8A12.7,12.7,0,0,0,87.26,12.49Z"/><path d="M98.19,28.84q-.46-4.14-.51-5A30,30,0,0,1,99,12.51,14.65,14.65,0,0,1,101.13,8a5,5,0,0,1,.62-.8,5.51,5.51,0,0,0,.58-.71,2.53,2.53,0,0,0,.74-1.06.41.41,0,0,1,.37-.41,9.57,9.57,0,0,1,1.52-.32,2,2,0,0,1,1,0l1,.16a10.37,10.37,0,0,1,1,.28l1,.32a4.5,4.5,0,0,1,3,2.81A42.58,42.58,0,0,1,115,17a31.6,31.6,0,0,1,.41,10.21q-.37,2.85-.51,4.23-.32,1.38-.69,2.62-.55,1.7-1.1,3.31A4.93,4.93,0,0,1,110.88,40l-2.21,1.29a1,1,0,0,1-.6.18H107a3.71,3.71,0,0,1-1.47-.23,7.21,7.21,0,0,0-1.79-.41q-2.07-.14-3.13-2.62-.32-.69-.85-2.12t-.62-1.7A38.45,38.45,0,0,1,98.19,28.84Zm10.88-16.35q-.34-.94-.87-2.09t-.76-1.79a1.13,1.13,0,0,0-.64-.74,11.32,11.32,0,0,0-1.7-.69,1.24,1.24,0,0,0-1,.23,6.31,6.31,0,0,0-2.35,2.94,22.63,22.63,0,0,0-2,7.27,40,40,0,0,0-.23,6q.55,5.2,1,8a26.12,26.12,0,0,0,1.66,5.52q.46,1.24,1.33,1.24a2.89,2.89,0,0,1,.74,0l.64,0a2,2,0,0,0,.64,0A6.12,6.12,0,0,0,109,34.73q.46-1.29,1.24-4.46.09-.6.25-1.84t.25-1.79a26.92,26.92,0,0,0,0-6.49,23.5,23.5,0,0,0-1.2-5.8A12.7,12.7,0,0,0,109.06,12.49Z"/><path d="M120,28.84q-.46-4.14-.51-5a30,30,0,0,1,1.29-11.36A14.65,14.65,0,0,1,122.93,8a5,5,0,0,1,.62-.8,5.51,5.51,0,0,0,.58-.71,2.53,2.53,0,0,0,.74-1.06.41.41,0,0,1,.37-.41,9.57,9.57,0,0,1,1.52-.32,2,2,0,0,1,1,0l1,.16a10.37,10.37,0,0,1,1,.28l1,.32a4.5,4.5,0,0,1,3,2.81A42.58,42.58,0,0,1,136.82,17a31.6,31.6,0,0,1,.41,10.21q-.37,2.85-.51,4.23-.32,1.38-.69,2.62-.55,1.7-1.1,3.31A4.93,4.93,0,0,1,132.68,40l-2.21,1.29a1,1,0,0,1-.6.18h-1.06a3.71,3.71,0,0,1-1.47-.23,7.21,7.21,0,0,0-1.79-.41q-2.07-.14-3.13-2.62-.32-.69-.85-2.12t-.62-1.7A38.45,38.45,0,0,1,120,28.84Zm10.88-16.35q-.34-.94-.87-2.09t-.76-1.79a1.13,1.13,0,0,0-.64-.74,11.32,11.32,0,0,0-1.7-.69,1.24,1.24,0,0,0-1,.23,6.31,6.31,0,0,0-2.35,2.94,22.63,22.63,0,0,0-2,7.27,40,40,0,0,0-.23,6q.55,5.2,1,8A26.12,26.12,0,0,0,124,37.08q.46,1.24,1.33,1.24a2.89,2.89,0,0,1,.74,0l.64,0a2,2,0,0,0,.64,0,6.12,6.12,0,0,0,3.45-3.59q.46-1.29,1.24-4.46.09-.6.25-1.84t.25-1.79a26.92,26.92,0,0,0,0-6.49,23.5,23.5,0,0,0-1.2-5.8A12.7,12.7,0,0,0,130.87,12.49Z"/><path d="M159.09,11.13a43.71,43.71,0,0,0-.46,6.53l-.14,7.87v5.15q0,1-.09,2.88t-.09,2.88q0,.46,0,1.38t0,1.38a1.15,1.15,0,0,1-.11.64,1.58,1.58,0,0,1-.53.32,8.18,8.18,0,0,1-2.16.55q-.6,0-1.75,0a.49.49,0,0,1-.46-.23,3.53,3.53,0,0,1-.51-1.89c0-.21.05-.54.07-1s0-.75,0-1q0-1.15.18-13.66,0-4.14.28-8.37,0-.83.18-2.55t.18-2.6q0-.6,0-1.79a1.17,1.17,0,0,1,.87-1.29,2.9,2.9,0,0,1,1.56-.18,5.74,5.74,0,0,1,2.25.69,1.86,1.86,0,0,1,.85.62,3,3,0,0,1,.16,1.22Q159.23,10.35,159.09,11.13Z"/><path d="M180,24.15a6.27,6.27,0,0,1,.14,1,8.12,8.12,0,0,0,.09.87,30.88,30.88,0,0,1-1.29,7.31,9.76,9.76,0,0,1-.46,1.13,8.56,8.56,0,0,1-.48.9l-.67,1q-.46.69-.6.87a12.84,12.84,0,0,1-3.63,3.63l-.09,0a4.35,4.35,0,0,1-1,.48,9.38,9.38,0,0,1-1.77.35,6.79,6.79,0,0,1-2.74-.35,11.7,11.7,0,0,1-3.24-1.63,9.29,9.29,0,0,1-1.47-3.06,12.92,12.92,0,0,1-.55-2.87V32.71l.14-.69a12.51,12.51,0,0,1,.46-1.56q.28-.69,1-.28c.21.09.32.21.32.37l0,.18q0,.14-.14.48a5.58,5.58,0,0,0-.14.67,5.32,5.32,0,0,0-.14,2.48,5.15,5.15,0,0,0,4.65,5.06,3.48,3.48,0,0,0,2.9-.57,4.73,4.73,0,0,0,1.61-2.58,18.43,18.43,0,0,0,.6-3.24,22.51,22.51,0,0,0,0-3.22,13.45,13.45,0,0,0-.18-2.3l-.14-.69q-.87-3.73-3.73-4.51l-2.07-.55a4.52,4.52,0,0,1-2.85-4.37,10.74,10.74,0,0,1,.74-3.5,12.38,12.38,0,0,1,1.61-3.13,7.49,7.49,0,0,1,4.32-2.94,23.41,23.41,0,0,1,2.9-.55,5.36,5.36,0,0,1,3.27,1,5.79,5.79,0,0,1,1.61,1.33,2,2,0,0,1,.23.41c.06.31.06.49,0,.55a.45.45,0,0,1-.41.23,1.56,1.56,0,0,1-.6-.41,8.2,8.2,0,0,0-2.25-1.43,3.92,3.92,0,0,0-3.08,0A10.39,10.39,0,0,0,170,10.12a6.86,6.86,0,0,0-2.76,3.4,10.85,10.85,0,0,0-1,2.94,2.47,2.47,0,0,0-.09.51,1.74,1.74,0,0,0,.25,1.22,1,1,0,0,0,.94.25,25,25,0,0,1,3.31-.14q.46,0,1.59-.09a11.92,11.92,0,0,1,1.73,0,5.51,5.51,0,0,1,4.19,2.25A8.23,8.23,0,0,1,180,24.15Z"/><path d="M200.3,13.11q0-1.06,0-1.61v-.64a1.47,1.47,0,0,0-.21-.78.82.82,0,0,0-.62-.18h-3a7,7,0,0,1-.92,0,.73.73,0,0,1-.53-.44,1.26,1.26,0,0,1-.16-.76.73.73,0,0,1,.78-.74q.51,0,1.45,0l1.73.07,1.47,0a13.55,13.55,0,0,0,3.08-.23,23.33,23.33,0,0,1,5.38-.46q.83,0,2.35-.09t2-.09a1.19,1.19,0,0,1,1.2,1.06q.14.55-.28.69l-.23,0-.23,0-6.26.14H207q-.69,0-.85.28a2.09,2.09,0,0,0-.07,1.15,6,6,0,0,1,0,.87q-.09,1.84-.18,2.76t-.23,2.67q0,.51-.14,1.43T205.34,20q-.07.74-.11,1.43-.37,5.29-.51,7.68-.23,3.13-.46,5.61T204,38q0,.23,0,.74c0,.34,0,.6,0,.78a1,1,0,0,1-.55.87,6.59,6.59,0,0,1-1.54.37q-1,.14-1.36.23a2.33,2.33,0,0,1-1.1-.14q-.87-.28-.78-1.52.09-1.06.41-4.16t.46-5.22q.23-2.85.51-8.74l.14-2.78.14-2.78v-1h0Q200.26,14.17,200.3,13.11Z"/><path d="M225,30.24q.09-3.2.14-4.76a1.29,1.29,0,0,0-.11-.67c-.08-.11-.25-.16-.53-.16a22.51,22.51,0,0,1-3-.18q-.78-.14-.83.64-.41,5.7-.51,7,0,.74-.18,2.21t-.18,2.21a6.81,6.81,0,0,0,0,1.29l0,1.29a1.49,1.49,0,0,1-.11.55,1.34,1.34,0,0,1-.53.23,30.5,30.5,0,0,1-3.59.55,1.43,1.43,0,0,1-1.13-.41,1.33,1.33,0,0,1-.44-1.1q.28-5.79.28-5.89.46-6.71.64-9.75l.41-5.38q.09-.83.23-2.39t.18-2.39q0-.51.18-1.5t.18-1.45q.09-1.47.09-2.25a1.1,1.1,0,0,1,.87-1.1,6.52,6.52,0,0,1,3.54.18l.32.09a2.08,2.08,0,0,1,1,.6A2.41,2.41,0,0,1,222,8.88q0,.78-.21,2.23t-.21,1.68q-.09,1.15-.3,3.38t-.3,3.24q0,.55-.18,2.58a1,1,0,0,0,.07.62,1,1,0,0,0,.58.25,21.22,21.22,0,0,0,3.08.14q.64,0,.69-.55a21.72,21.72,0,0,0,.14-2.39q0-1.24.16-3.7t.16-3.7q0-.78,0-2.28t0-2.28a1.84,1.84,0,0,1,0-.51.6.6,0,0,1,.44-.57.72.72,0,0,1,.71.16A2.69,2.69,0,0,1,228,9.34q-.09,1.24-.12,3.47t-.07,3.1l-.28,5.52c0,.18,0,.46,0,.83s0,.64,0,.83q0,1-.09,3.06t-.09,3.06.14,8.1c0,.18,0,.51,0,1a6.77,6.77,0,0,0,0,1.13.86.86,0,0,1-.55.74,1.39,1.39,0,0,1-1.47-.09,1.58,1.58,0,0,1-.55-1.43,12,12,0,0,0,.14-1.79q0-.6-.09-1.79a0,0,0,0,0,0,0Z"/><path d="M236.46,38.64l2.62-.39,2.62-.39h.18q.92-.09,1.15.14t.14,1.15a.62.62,0,0,1-.46.74l-.28,0-.28,0a45.23,45.23,0,0,0-5.66.74,7,7,0,0,1-1.22.12,7.87,7.87,0,0,0-1,.07q-1.2,0-1.84,0a1.58,1.58,0,0,1-1.79-1.38,3.11,3.11,0,0,1-.09-1.52q.6-3.73.92-8.51,0-.87.11-2.58t.12-2.53.41-6.12q0-1.43.23-4.28.14-1.75.32-5.24a1.19,1.19,0,0,1,.41-.83,3.92,3.92,0,0,1,2-.78L237,7l2.32-.16a6.79,6.79,0,0,1,.9,0,10.29,10.29,0,0,0,1,0,4,4,0,0,0,.87-.18h.41a1.9,1.9,0,0,1,.81.21,1.54,1.54,0,0,1,.11.8,1.84,1.84,0,0,1-.14.94q-.14.16-.92.21-2.39.09-3.59.18a.92.92,0,0,0-.58.18,1.46,1.46,0,0,0-.16.69l-.55,6.62s0,.89-.14,2.58l-.14,2.9q0,.64.14.76t.74,0l2.67-.28a1,1,0,0,1,.64.07,1.46,1.46,0,0,1,.28.67,1.53,1.53,0,0,1,.09.37c0,.43-.14.66-.51.69s-1,.12-1.75.18-1.58.12-2,.18-.51.32-.51.78-.06,1-.09,1.7,0,1.3,0,1.7q-.46,5.84-.64,6.81c-.06.37-.13.94-.21,1.7s-.13,1.23-.16,1.38A1.27,1.27,0,0,0,236.46,38.64Z"/><path d="M258.13,39.74a7.82,7.82,0,0,1,.28-1.33q.37-1.15.87-3.33T260,32q.28-1.1.69-3.15t.51-2.55q1.2-5.43,1.52-6.62l.39-1.36.46-1.59.39-1.33,1.24-5.11a3.1,3.1,0,0,0,0-.87A1.17,1.17,0,0,1,265.81,8q.28-.14.85-.37a6.26,6.26,0,0,0,.81-.37,6.81,6.81,0,0,1,2.12-.28,1,1,0,0,1,1.2.78,4,4,0,0,1,.23.87q.69,6.35.92,8.83.23,2.12.6,5.75c0,.15.05.31.07.48s0,.35,0,.55,0,.36,0,.48q.37,3.4.55,5.06.18,2.16.55,6.39a10.67,10.67,0,0,1,0,1.17v1.22a.89.89,0,0,1-.41.69,10,10,0,0,1-3.08,1.29.44.44,0,0,0-.32.14.83.83,0,0,1-.92,0,1,1,0,0,1-.55-1,64,64,0,0,0-.64-8.6q-.09-.55-.21-1.61t-.16-1.61a1.66,1.66,0,0,0-.23-.71q-.14-.16-.64-.12t-3.59.23a.88.88,0,0,0-.87.83q-.18,1-1.2,5.43-.18.64-.53,1.93T260,37.4a20.49,20.49,0,0,1-.78,2.76q-.46.41-.6.28c0-.06-.06-.09-.09-.09a.13.13,0,0,0,0,.09v0l-.28.14A3.1,3.1,0,0,1,258.13,39.74Zm4.78-13.94,1.29-.14q.41,0,1.22-.07l1.22,0q.46,0,.55-.12t0-.57q-.09-.64-.23-1.91t-.18-1.91q-.09-1-.3-3.06t-.34-3.06a1.62,1.62,0,0,0-.07-.39,1.6,1.6,0,0,1-.07-.35A55.61,55.61,0,0,0,262.91,25.81Z"/><path d="M282.53,30.38l.11-.48q.09-.37.69-3.08t1-4.14q.37-1.47,1.15-4.16l1-3.33q1-3,1.06-3.5.41-1.84,1.52-5.34.18-.78.83-.74a3,3,0,0,1,1.1.23q1,.55,2.94,1.75.41.23.32,1a.54.54,0,0,1,0,.16.51.51,0,0,1-.09.16,12.51,12.51,0,0,0-.69,1.56q-.32.87-.51,1.52l-.48,1.73q-.3,1.08-.44,1.63-.37,1.24-1.08,3.73t-1.08,3.73q-1.34,5.2-1.61,6.39l-1,5.57q-.55,3.86-.87,5.75a1.47,1.47,0,0,1-.46,1,.85.85,0,0,1-.87.11,9.22,9.22,0,0,1-3.45-2.21A2.07,2.07,0,0,1,280.9,38q-.09-.92-.32-2.71t-.23-1.93q-.28-2.39-.41-3.63-.28-2.21-.37-3.36-.09-1.89-.87-6.9-.55-3.17-1.56-9.52-.09-.37-.25-1.08c-.11-.48-.18-.83-.21-1.08a1.75,1.75,0,0,1,.16-1.13.67.67,0,0,1,.76-.34.78.78,0,0,1,.64.64,18.92,18.92,0,0,1,.51,1.93q0,.37.55,3.91t.83,5.38q.09.46,1.66,10,.14.69.32,2.07l.18.6h.18A2.2,2.2,0,0,1,282.53,30.38Z"/><path d="M301.36,38.64l2.62-.39,2.62-.39h.18q.92-.09,1.15.14t.14,1.15a.62.62,0,0,1-.46.74l-.28,0-.28,0a45.24,45.24,0,0,0-5.66.74,7,7,0,0,1-1.22.12,7.86,7.86,0,0,0-1,.07q-1.2,0-1.84,0a1.58,1.58,0,0,1-1.79-1.38,3.1,3.1,0,0,1-.09-1.52q.6-3.73.92-8.51,0-.87.11-2.58t.12-2.53.41-6.12q0-1.43.23-4.28.14-1.75.32-5.24a1.2,1.2,0,0,1,.41-.83,3.93,3.93,0,0,1,2-.78l2-.16,2.32-.16a6.8,6.8,0,0,1,.9,0,10.3,10.3,0,0,0,1,0,4,4,0,0,0,.87-.18h.41a1.9,1.9,0,0,1,.8.21,1.53,1.53,0,0,1,.12.8,1.83,1.83,0,0,1-.14.94q-.14.16-.92.21-2.39.09-3.59.18a.92.92,0,0,0-.58.18,1.47,1.47,0,0,0-.16.69l-.55,6.62s0,.89-.14,2.58l-.14,2.9q0,.64.14.76t.74,0l2.67-.28a1,1,0,0,1,.64.07,1.46,1.46,0,0,1,.28.67,1.54,1.54,0,0,1,.09.37q0,.64-.51.69t-1.75.18q-1.38.09-2,.18c-.34.06-.51.32-.51.78s-.06,1-.09,1.7,0,1.3,0,1.7q-.46,5.84-.64,6.81c-.06.37-.13.94-.21,1.7s-.13,1.23-.16,1.38A1.27,1.27,0,0,0,301.36,38.64Z"/><path d="M318.8,25a4.4,4.4,0,0,0-.64.48,1.25,1.25,0,0,0-.32.6,12,12,0,0,0-.09,1.24q-.18,3.27-.46,9.8l-.14,2.76a1,1,0,0,1-.6.87,10.08,10.08,0,0,1-1.08.41q-.58.18-1.31.35l-1.1.25a.89.89,0,0,1-.58,0,1.4,1.4,0,0,1-.39-.55,2.08,2.08,0,0,0-.32-.51,1.85,1.85,0,0,1-.28-1.33l.41-5.24q.37-5.06.51-7.59.14-1.56.32-4.69.37-3.82.51-6,0-.92,0-2.76c0-.18,0-.56,0-1.13s0-1,.07-1.31A1.23,1.23,0,0,0,313,9.57a.66.66,0,0,1-.37-.78.78.78,0,0,1,.64-.64q.46-.09,1.27-.3L316,7.48l1.26-.3A24.93,24.93,0,0,1,322,6.72a6.85,6.85,0,0,1,3,.78,3.92,3.92,0,0,1,1.56,1.79A7.62,7.62,0,0,1,327,15a10.43,10.43,0,0,1-2.44,4.46q-.37.41-1,1.22t-.74.94q-.18.23-.64.69a1.3,1.3,0,0,0-.46,1.33l.48,2.23q.39,1.82.62,2.83t2.07,8.65q.09.28.34,1.1t.34,1.29a1.7,1.7,0,0,1-.16,1.31,1.29,1.29,0,0,1-.94.71.29.29,0,0,1-.37-.09,2.47,2.47,0,0,1-.92-1.38q-.28-1.66-.67-3.45t-.92-4q-.53-2.23-.76-3.38-.18-.83-.6-2.32t-.55-2l-.28-.6A4.32,4.32,0,0,1,318.8,25Zm-.6-2.37.6-.41a5.26,5.26,0,0,0,.69-.55,33,33,0,0,0,4.37-5,9.4,9.4,0,0,0,1.52-5.06q.14-2.53-2.21-2.85-.69,0-4,0a2.21,2.21,0,0,0-.55.23,4,4,0,0,1,.35,1,8.67,8.67,0,0,1-.07,1.2.63.63,0,0,0,0,.28v.28q-.37,4.6-.51,6.85-.14,1.29-.32,3.86A.77.77,0,0,1,318.2,22.59Z"/><path d="M327.4,39.74a7.77,7.77,0,0,1,.28-1.33q.37-1.15.87-3.33t.74-3.06q.28-1.1.69-3.15t.51-2.55q1.2-5.43,1.52-6.62l.39-1.36.46-1.59.39-1.33,1.24-5.11a3.12,3.12,0,0,0,0-.87A1.17,1.17,0,0,1,335.08,8q.28-.14.85-.37a6.24,6.24,0,0,0,.8-.37,6.81,6.81,0,0,1,2.12-.28,1,1,0,0,1,1.2.78,4,4,0,0,1,.23.87q.69,6.35.92,8.83.23,2.12.6,5.75a4.78,4.78,0,0,1,.07.48c0,.17,0,.35,0,.55s0,.36,0,.48q.37,3.4.55,5.06.18,2.16.55,6.39a10.67,10.67,0,0,1,0,1.17v1.22a.89.89,0,0,1-.41.69,10,10,0,0,1-3.08,1.29.44.44,0,0,0-.32.14.83.83,0,0,1-.92,0,1,1,0,0,1-.55-1,64,64,0,0,0-.64-8.6q-.09-.55-.21-1.61t-.16-1.61a1.65,1.65,0,0,0-.23-.71q-.14-.16-.64-.12t-3.59.23a.88.88,0,0,0-.87.83q-.18,1-1.2,5.43-.18.64-.53,1.93t-.48,1.93a20.32,20.32,0,0,1-.78,2.76q-.46.41-.6.28c0-.06-.06-.09-.09-.09a.13.13,0,0,0,0,.09v0l-.28.14A3.09,3.09,0,0,1,327.4,39.74Zm4.78-13.94,1.29-.14q.41,0,1.22-.07l1.22,0q.46,0,.55-.12t0-.57q-.09-.64-.23-1.91T336,21.07q-.09-1-.3-3.06t-.34-3.06a1.62,1.62,0,0,0-.07-.39,1.59,1.59,0,0,1-.07-.35A55.61,55.61,0,0,0,332.19,25.81Z"/><path d="M346,17.57a17.81,17.81,0,0,1,2.62-6.07q.18-.28,1.7-1.93a8.7,8.7,0,0,1,2.81-2.07,4.68,4.68,0,0,1,4.78,0,7.82,7.82,0,0,1,1.29,1.29.53.53,0,0,1,0,.78q-.23.37-.69.09l-.18-.12a.28.28,0,0,0-.14-.07,4.1,4.1,0,0,0-5.29,0,12.57,12.57,0,0,0-4.78,7,37.27,37.27,0,0,0-1.43,9.57q0,1-.14,2.94A18.72,18.72,0,0,0,347,34a2.34,2.34,0,0,0,2,2.16,4.85,4.85,0,0,0,4.23-1A8.35,8.35,0,0,0,356,30.91a23.89,23.89,0,0,0,.69-4.92v-.6a.45.45,0,0,0-.51-.51h-2.44a1.88,1.88,0,0,1-1.56-.78q-.51-.74.23-1.1a1.66,1.66,0,0,1,.83-.18l1.56-.12,1.56-.12,3.08-.41a1.44,1.44,0,0,1,1.06.16,3.34,3.34,0,0,1,.74,1.13,7.08,7.08,0,0,1,.37,1.24,5.83,5.83,0,0,1,0,1.2c0,.25-.08.61-.16,1.08a7.34,7.34,0,0,0-.12,1.08,31.75,31.75,0,0,1-.78,5.66,9.39,9.39,0,0,0-.32,1.33,10.51,10.51,0,0,1-3.4,5,3.9,3.9,0,0,1-1.29.83,5.85,5.85,0,0,1-4.28.28q-.23-.09-2.35-1.33a10.27,10.27,0,0,1-3-3.08,6,6,0,0,1-1-3.17q-.09-1.38-.32-3.68A65,65,0,0,1,346,17.57Z"/><path d="M370.13,38.64l2.62-.39,2.62-.39h.18q.92-.09,1.15.14t.14,1.15a.62.62,0,0,1-.46.74l-.28,0-.28,0a45.22,45.22,0,0,0-5.66.74,7,7,0,0,1-1.22.12,7.88,7.88,0,0,0-1,.07q-1.2,0-1.84,0a1.58,1.58,0,0,1-1.79-1.38A3.13,3.13,0,0,1,364.2,38q.6-3.73.92-8.51,0-.87.12-2.58t.12-2.53.41-6.12q0-1.43.23-4.28.14-1.75.32-5.24a1.19,1.19,0,0,1,.41-.83,3.92,3.92,0,0,1,2-.78l2-.16L373,6.81a6.77,6.77,0,0,1,.9,0,10.29,10.29,0,0,0,1,0,4,4,0,0,0,.87-.18h.41a1.9,1.9,0,0,1,.81.21,1.54,1.54,0,0,1,.11.8,1.85,1.85,0,0,1-.14.94c-.09.11-.4.18-.92.21q-2.39.09-3.59.18a.92.92,0,0,0-.58.18,1.45,1.45,0,0,0-.16.69l-.55,6.62s0,.89-.14,2.58l-.14,2.9q0,.64.14.76t.74,0l2.67-.28a1,1,0,0,1,.64.07,1.46,1.46,0,0,1,.28.67,1.51,1.51,0,0,1,.09.37c0,.43-.14.66-.51.69s-1,.12-1.75.18-1.58.12-2,.18-.51.32-.51.78-.06,1-.09,1.7,0,1.3,0,1.7q-.46,5.84-.64,6.81c-.06.37-.13.94-.21,1.7s-.13,1.23-.16,1.38A1.27,1.27,0,0,0,370.13,38.64Z"/><path d="M405.6,32.06q0-1,.12-3t.12-3q0-1.06.16-3.1t.16-3q.28-4,.37-6.16.09-1.56.18-4.51a4.5,4.5,0,0,1,0-.78q.09-1.15,1.1-1.1l3.54.46a.64.64,0,0,1,.64.74,3,3,0,0,1,0,.87q0,1-.14,2.94l-.14,3.33q-.09,2.23-.18,3.33,0,.78-.09,2.3t-.14,2.3q0,.78,0,2.3v2.3q0,.87-.09,3.54t-.09,4.14q0,.32-.07,2.07a5.77,5.77,0,0,0,.12,2.07.83.83,0,0,1-.78,1.15l-.67.09-.76.09-.64.09a5.62,5.62,0,0,1-2.67-.74,1.08,1.08,0,0,1-.51-.74q-.46-1.38-1.29-4.14-.18-.6-.74-2.48t-.83-2.9l-.48-1.93-.55-2.23q-.3-1.22-.48-1.91-1.29-5.06-2-7.59a21.27,21.27,0,0,0-.83-2.62q0,.46,0,1.4T397.78,17q0,.92-.11,2.53t-.12,2.92q0,1.31,0,2.51,0,2,.09,5.93.09,5.52.14,8.33a4,4,0,0,1-.09.74.65.65,0,0,1-.6.51l-.37,0-.39.07a1.68,1.68,0,0,1-.35,0,2.76,2.76,0,0,0-.6,0h-1.2a1.42,1.42,0,0,1-.51,0,1.68,1.68,0,0,1-1.15-.48,1.92,1.92,0,0,1-.28-1.31q.09-4.23.09-6.35,0-.87,0-3.63t0-4.28q0-1,.23-6.16.09-2.71,0-5.38,0-1.56-.18-4.78a1.71,1.71,0,0,1,.16-1,1.29,1.29,0,0,1,.8-.44,5.43,5.43,0,0,1,3.27.18,4.71,4.71,0,0,1,1.38.69,2.52,2.52,0,0,1,.69,1.15q.32,1.15.94,3.47t.9,3.52l.28.8q.23.67.32,1,.37,1.52,1.15,4.55t1.2,4.51q.32,1.29,1,3.66t.78,2.78a1.08,1.08,0,0,0,.23.37h.14Q405.6,33,405.6,32.06Z"/><path d="M414.94,17.94q.14-3.45.51-9.84,0-1,.69-1a1.06,1.06,0,0,1,.71.41,1.17,1.17,0,0,1,.25.87L417,10q-.09,1.08-.14,1.63a5.59,5.59,0,0,0-.09.87q-.09,10.35-.09,12.42t.28,6.62q0,.32.37,1.7a10,10,0,0,0,.32,1.2,7.66,7.66,0,0,0,.32,1.06q.46,1,1.29.78A5.2,5.2,0,0,0,423,32l.12-.46c0-.18.08-.36.12-.53a2.73,2.73,0,0,0,0-.48q.55-3.77.78-5.7.55-5.75.64-7.13.23-3.17.32-7.22a10.65,10.65,0,0,0-.09-1.7,2.15,2.15,0,0,1,1.2-2.35,1.66,1.66,0,0,1,1.43-.09,4.53,4.53,0,0,0,.92.18,2.76,2.76,0,0,1,2.48,3.08q-.14,2.94-.51,9.34-.46,5.89-.74,9.2a40.48,40.48,0,0,1-.64,4.42q0,.32-1.1,3.54l-.39.87a6.66,6.66,0,0,0-.34.87,8.56,8.56,0,0,1-2.48,3.08,5.64,5.64,0,0,1-4.65,1.38,3.3,3.3,0,0,1-1.93-1q-1.93-1.89-2.76-6.12,0-.41-.18-2.53-.09-1.66-.23-4.88t-.18-4.88h.09Q414.89,18.77,414.94,17.94Z"/><path d="M449.16,15.5l-.28,1.13-.28,1.13q-.28.92-.74,2.85t-.74,2.85a38.15,38.15,0,0,1-1.29,4.65,7.35,7.35,0,0,1-.92,1.56,1.23,1.23,0,0,1-1.33.37q-.6-.18-.69-1.06-.23-1.75-.9-4.83T441.16,20q-.23-1.29-1.43-6.07,0-.18-.28-.83a4,4,0,0,0-.28,1.66q-.18,5.06-.18,7.54V27q.09,2,.09,3,0,3.08-.09,9.15a2.57,2.57,0,0,1-.09.6.61.61,0,0,1-.55.6,13.12,13.12,0,0,1-3.63,0,1,1,0,0,1-1-1.1q0-.55,0-1.66,0-.09,0-.3a3.39,3.39,0,0,0,0-.34q0-4,.14-12,0-3.63,0-5.47a76.25,76.25,0,0,1,1-11.27,1.79,1.79,0,0,1,.25-.76.87.87,0,0,1,.62-.25h.64a3.51,3.51,0,0,0,.64,0l.44,0a4.8,4.8,0,0,0,.58-.09,1,1,0,0,1,1.2.37,9.1,9.1,0,0,1,1.33,2.62,64.34,64.34,0,0,1,1.75,6.3q.69,3.41,1.75,8.46,0,.09.32,1.33l.28-.6.55-2.37.55-2.37.55-2.09q.37-1.4.55-2.14.23-.92.74-3.5.28-1.2.46-1.79.55-2.12.87-3.17a1.54,1.54,0,0,1,.46-.78,4.89,4.89,0,0,1,3.5-1.29,6,6,0,0,1,2.07.55q.83.28.69,1.56-.18,1.66-.23,2.48-.23,2.58-.46,11.78,0,1.79-.37,10.17-.09,4-.14,6a3.19,3.19,0,0,1-.11.83c0,.09-.25.2-.62.32l-.28.14a3.51,3.51,0,0,1-1,.48,7.67,7.67,0,0,1-1.26.25,7.62,7.62,0,0,0-1.06.18.55.55,0,0,1-.6-.28A1.79,1.79,0,0,1,449,39q0-2.3.23-6.58v-.18q.28-7.77.28-8,0-2.07,0-6.26.09-2.21.14-3.27v-.87h-.09Q449.44,14.4,449.16,15.5Z"/><path d="M468.2,20.65a3.34,3.34,0,0,1,1.66.18l.25.09a1,1,0,0,0,.25,0A3.16,3.16,0,0,1,473,22.72a9.06,9.06,0,0,1,1.24,3.22s0,.11,0,.23a2.42,2.42,0,0,1,0,.28,17.21,17.21,0,0,1-1.24,5.38,16.14,16.14,0,0,1-1.75,2.76,16.44,16.44,0,0,1-6.58,5.06q-.41.23-1.22.58t-1.08.48a2.28,2.28,0,0,1-2.58-.23l-.14-.14q-1-.28-.87-1.52.14-6.94.09-8.37,0-1.61-.23-9.75v-.37q-.09-3.22-.18-9.57a9.82,9.82,0,0,0,0-1.1,1.63,1.63,0,0,1,.28-1.1,2,2,0,0,1,1.43-.92l2.25-.14a19.31,19.31,0,0,1,2.3-.14,22.28,22.28,0,0,1,2.39.18c.15,0,.38,0,.67,0s.51,0,.67,0a3.55,3.55,0,0,1,2,.8,3.11,3.11,0,0,1,1.22,1.72,7,7,0,0,1-1.15,6.07,33.89,33.89,0,0,1-3.08,3.82,1.86,1.86,0,0,0-.32.51C467.7,20.62,468.05,20.65,468.2,20.65Zm-3.91-.18c.09-.09.29-.26.6-.51a27.76,27.76,0,0,0,4.19-5.06,6.06,6.06,0,0,0,1.06-3.82,1.61,1.61,0,0,0-1.38-1.61,15.67,15.67,0,0,0-3.86-.41.62.62,0,0,0-.69.64q-.14,2.21-.14,2.3v7.64c0,.09,0,.22,0,.39s0,.3,0,.39A.27.27,0,0,1,464.29,20.47Zm.55,17,.51-.28a15.84,15.84,0,0,0,5.11-4.88,10.21,10.21,0,0,0,1.38-3q.14-.55.46-2.07a5.55,5.55,0,0,0-.74-3.77,2.49,2.49,0,0,0-1.1-1,10.53,10.53,0,0,0-5.29-.14,1.14,1.14,0,0,0-.76.37,1.57,1.57,0,0,0-.21.92q.14,3.59.14,3.63,0,.92,0,2.69t0,2.64q0,1.52,0,4.46s0,.26.09.69A4.58,4.58,0,0,0,464.85,37.49Z"/><path d="M482.88,38.64l2.62-.39,2.62-.39h.18q.92-.09,1.15.14t.14,1.15a.62.62,0,0,1-.46.74l-.28,0-.28,0a45.24,45.24,0,0,0-5.66.74,7,7,0,0,1-1.22.12,7.86,7.86,0,0,0-1,.07q-1.2,0-1.84,0A1.58,1.58,0,0,1,477,39.51a3.1,3.1,0,0,1-.09-1.52q.6-3.73.92-8.51,0-.87.11-2.58t.12-2.53.41-6.12q0-1.43.23-4.28.14-1.75.32-5.24a1.2,1.2,0,0,1,.41-.83,3.93,3.93,0,0,1,2-.78l2-.16,2.32-.16a6.8,6.8,0,0,1,.9,0,10.3,10.3,0,0,0,1,0,4,4,0,0,0,.87-.18H489a1.9,1.9,0,0,1,.8.21,1.53,1.53,0,0,1,.12.8,1.83,1.83,0,0,1-.14.94q-.14.16-.92.21-2.39.09-3.59.18a.92.92,0,0,0-.58.18,1.47,1.47,0,0,0-.16.69l-.55,6.62s0,.89-.14,2.58l-.14,2.9q0,.64.14.76t.74,0l2.67-.28a1,1,0,0,1,.64.07,1.46,1.46,0,0,1,.28.67,1.54,1.54,0,0,1,.09.37q0,.64-.51.69t-1.75.18q-1.38.09-2,.18c-.34.06-.51.32-.51.78s-.06,1-.09,1.7,0,1.3,0,1.7q-.46,5.84-.64,6.81c-.06.37-.13.94-.21,1.7s-.13,1.23-.16,1.38A1.27,1.27,0,0,0,482.88,38.64Z"/><path d="M500.31,25a4.4,4.4,0,0,0-.64.48,1.25,1.25,0,0,0-.32.6,12,12,0,0,0-.09,1.24q-.18,3.27-.46,9.8l-.14,2.76a1,1,0,0,1-.6.87,10.08,10.08,0,0,1-1.08.41q-.58.18-1.31.35l-1.1.25a.89.89,0,0,1-.58,0,1.4,1.4,0,0,1-.39-.55,2.08,2.08,0,0,0-.32-.51,1.85,1.85,0,0,1-.28-1.33l.41-5.24q.37-5.06.51-7.59.14-1.56.32-4.69.37-3.82.51-6,0-.92,0-2.76c0-.18,0-.56,0-1.13s0-1,.07-1.31a1.23,1.23,0,0,0-.37-1.06.66.66,0,0,1-.37-.78.78.78,0,0,1,.64-.64q.46-.09,1.27-.3l1.47-.37,1.26-.3a24.93,24.93,0,0,1,4.69-.46,6.85,6.85,0,0,1,3,.78A3.92,3.92,0,0,1,508,9.29a7.62,7.62,0,0,1,.51,5.7,10.43,10.43,0,0,1-2.44,4.46q-.37.41-1,1.22t-.74.94q-.18.23-.64.69a1.3,1.3,0,0,0-.46,1.33l.48,2.23q.39,1.82.62,2.83t2.07,8.65q.09.28.34,1.1t.34,1.29a1.7,1.7,0,0,1-.16,1.31,1.29,1.29,0,0,1-.94.71.29.29,0,0,1-.37-.09,2.47,2.47,0,0,1-.92-1.38q-.28-1.66-.67-3.45t-.92-4q-.53-2.23-.76-3.38-.18-.83-.6-2.32t-.55-2l-.28-.6A4.32,4.32,0,0,1,500.31,25Zm-.6-2.37.6-.41a5.26,5.26,0,0,0,.69-.55,33,33,0,0,0,4.37-5,9.4,9.4,0,0,0,1.52-5.06Q507,9,504.68,8.69q-.69,0-4,0a2.21,2.21,0,0,0-.55.23,4,4,0,0,1,.35,1,8.67,8.67,0,0,1-.07,1.2.63.63,0,0,0,0,.28v.28q-.37,4.6-.51,6.85-.14,1.29-.32,3.86A.77.77,0,0,1,499.71,22.59Z"/><path d="M524.14,30.13q-.46-4-.51-4.65A25.36,25.36,0,0,1,525,14.86a16.21,16.21,0,0,1,2.25-4.37q.23-.23.67-.71c.29-.32.51-.58.67-.76a2.67,2.67,0,0,0,.74-1,.57.57,0,0,1,.37-.41l.83-.16a7.69,7.69,0,0,0,.83-.21,2.43,2.43,0,0,1,1.08-.07l1.06.12q.3,0,1.06.23t1.08.23a4.43,4.43,0,0,1,3.18,2.48,41.94,41.94,0,0,1,3,8.1,26.33,26.33,0,0,1,.41,9.57q-.46,3.31-.6,4a13.3,13.3,0,0,1-.69,2.44q-.74,2.12-1.15,3.13A5.73,5.73,0,0,1,537.48,40l-1.2.64q-.78.41-1.15.64t-.6.18l-1.31,0q-1.17,0-1.31-.14a5.81,5.81,0,0,0-1.93-.32,3.63,3.63,0,0,1-3.27-2.3q-.32-.69-1.52-3.5A36.79,36.79,0,0,1,524.14,30.13ZM535.62,14.4q-.39-.87-.92-1.93t-.81-1.66a1,1,0,0,0-.64-.64,7.11,7.11,0,0,0-1.79-.55,1.38,1.38,0,0,0-1,.23A6.74,6.74,0,0,0,528,12.7a21.25,21.25,0,0,0-2.12,6.85,31.46,31.46,0,0,0-.28,5.57q.32,3.54,1.06,7.41a27,27,0,0,0,1.7,5.11q.55,1.15,1.43,1.1h1.43a1.74,1.74,0,0,0,.69-.09,6.29,6.29,0,0,0,3.63-3.5,38.78,38.78,0,0,0,1.29-4.23q0-.14.55-3.4a23.38,23.38,0,0,0,0-6.07,20.23,20.23,0,0,0-1.2-5.34A9,9,0,0,0,535.62,14.4Z"/><path d="M552.84,22.4a9.39,9.39,0,0,1,1.52-.18q1,0,.74,1.06-.32,1.29-1.47,1.15-.23,0-1.84.23c-.34,0-.51.25-.51.64q0,3.77-.23,11.55,0,.46,0,1.4t0,1.4a1.58,1.58,0,0,1-.09.64.6.6,0,0,1-.21.25,2.46,2.46,0,0,1-.62.16,11.7,11.7,0,0,1-1.89.18q-1.24,0-1.61.09a.59.59,0,0,1-.74-.37,4.2,4.2,0,0,1-.46-1.7q0-.87,0-2.67t0-2.71q.37-10.9.37-12.33,0-.83.18-5.93l.41-6.49c.06-.52.23-.83.51-.92a11.91,11.91,0,0,1,1.2-.37l.9,0c.41,0,.73,0,.94,0a10.8,10.8,0,0,0,1.66-.09,8.08,8.08,0,0,0,1-.09,8.37,8.37,0,0,1,.85-.09c.31-.06.8-.12,1.47-.18l.6-.09.41,0q.09,0,1.43-.28a5,5,0,0,1,1.1-.09.54.54,0,0,1,.37.09c.15.06.2.29.14.69a2.25,2.25,0,0,0,0,.74c.06.25-.06.4-.37.46l-1,.16-1.13.16q-2.44.18-3.5.32a1.59,1.59,0,0,0-.83.28,1.49,1.49,0,0,0-.23.87q0,1.15-.21,3.54t-.25,3.63q-.14,2.07-.14,4c0,.09,0,.23,0,.41s0,.34,0,.46Q552.52,22.4,552.84,22.4Z"/><path d="M134,87.19a5.61,5.61,0,0,1,.23-.58,27.86,27.86,0,0,0,1.61-5.2q.37-1.47.8-3.13t1-3.68q.55-2,.83-3.13c0-.12.07-.31.12-.58s.08-.45.11-.57a2.26,2.26,0,0,1,.51-.83q.6-.64,1.1.09a3,3,0,0,1,.6,2,27.89,27.89,0,0,0,.74,4.6q.83,3.4,1.2,5.11l1,5.38c0,.09.08.28.14.58s.12.54.18.76a5.92,5.92,0,0,0,.55-1.79q.46-3.22.64-4.83.74-5.61,1-8.42.37-3.31.92-9.94.09-.74.18-2,.09-1,.74-1a2.48,2.48,0,0,1,.55,0,8.56,8.56,0,0,0,2.3.18,5.3,5.3,0,0,1,1.66.51q.55.23.41,1.15-.41,2.3-.92,8.37-.14,1.52-1.33,11.22-.14.92-.34,2.71t-.3,2.62q-.14,1-.46,2.94t-.46,2.94l-.14,1.52q-.14,1.47-1.29,1.61l-.51,0a2,2,0,0,1-.6,0,6.46,6.46,0,0,1-1.56-.14q-1.79-.51-2.25-3.08-.32-1.56-.87-4.67t-.83-4.62q-.74-4.23-1.15-6.3a6.69,6.69,0,0,0-.64-1.66l-.28.94-.28.94q-1.52,6-1.66,6.44-.41,1.52-1.43,4.46t-1.29,3.91a.13.13,0,0,1,0,.09v.09a2.12,2.12,0,0,1-.11.67q-.12.35-.18.51a3.22,3.22,0,0,1-.37.55l-.34.44a3.29,3.29,0,0,1-.41.37l-1,.53q-.83.44-1.24.71t-1-.23a5.93,5.93,0,0,1-1.06-2.71q-.23-2.39-1.7-9.61-1.56-7.82-2.3-11.78-.18-1.06-.51-3.22t-.51-3.22a2.63,2.63,0,0,1,1.06-2.76,4.22,4.22,0,0,1,3.59-.64,1.33,1.33,0,0,1,1,1.24q.09,1.2.14,1.75.78,7.22,1.43,10.12,1.33,6.07,2.16,10,.23.87.6,2.71a.27.27,0,0,1,.18,0C133.86,87.65,133.93,87.45,134,87.19Z"/><path d="M161.71,93.84l2.62-.39,2.62-.39h.18q.92-.09,1.15.14t.14,1.15a.62.62,0,0,1-.46.74l-.28,0-.28,0a45.23,45.23,0,0,0-5.66.74,7,7,0,0,1-1.22.12,7.87,7.87,0,0,0-1,.07q-1.2,0-1.84,0a1.58,1.58,0,0,1-1.79-1.38,3.11,3.11,0,0,1-.09-1.52q.6-3.73.92-8.51,0-.87.11-2.58t.12-2.53.41-6.12q0-1.43.23-4.28.14-1.75.32-5.24a1.19,1.19,0,0,1,.41-.83,3.92,3.92,0,0,1,2-.78l2-.16,2.32-.16a6.79,6.79,0,0,1,.9,0,10.29,10.29,0,0,0,1,0,4,4,0,0,0,.87-.18h.41a1.9,1.9,0,0,1,.81.21,1.54,1.54,0,0,1,.11.8,1.84,1.84,0,0,1-.14.94q-.14.16-.92.21-2.39.09-3.59.18a.92.92,0,0,0-.58.18,1.46,1.46,0,0,0-.16.69l-.55,6.62s0,.89-.14,2.58l-.14,2.9q0,.64.14.76t.74,0l2.67-.28a1,1,0,0,1,.64.07,1.46,1.46,0,0,1,.28.67,1.53,1.53,0,0,1,.09.37c0,.43-.14.66-.51.69s-1,.12-1.75.18-1.58.12-2,.18-.51.32-.51.78-.06,1-.09,1.7,0,1.3,0,1.7q-.46,5.84-.64,6.81c-.06.37-.13.94-.21,1.7s-.13,1.23-.16,1.38A1.27,1.27,0,0,0,161.71,93.84Z"/><path d="M172.61,65.32l-.64.09a.92.92,0,0,1-.6-.18.6.6,0,0,1-.41-.51c0-.09.14-.28.41-.55a5.5,5.5,0,0,1,1-.46,8.85,8.85,0,0,0,1.66-.87,2.83,2.83,0,0,1,1.75-.55,51.61,51.61,0,0,1,6.67.14,4.36,4.36,0,0,1,2.25,1q.28.23.92.67t.92.67A6,6,0,0,1,188,67.07a11,11,0,0,1,.51,5.89A15.93,15.93,0,0,1,187,77.69q-.51.92-2.35,5.52A36.05,36.05,0,0,1,182,88.55l-2.9,4.74q-.78,1.29-1.89,2.9a.59.59,0,0,1-.6.37,2.81,2.81,0,0,0-.44-.09l-.46-.07a.83.83,0,0,1-.37-.18.93.93,0,0,1-.3-.39l-.41-.18-.67,0a5.27,5.27,0,0,1-.67-.07q-1.2-.09-1.06-1.43,0-.69.16-2t.16-2q0-.6.09-1.63t.09-1.91q0-.87.09-1.66.09-1.1.23-3.31t.23-3.31q.18-3.5.23-5.52,0-2.35,0-7a3.51,3.51,0,0,0,0-.64Q173.16,65.23,172.61,65.32Zm5.7,25,.23-.28q.55-1,.83-1.47A46.67,46.67,0,0,0,183.1,81q.18-.55,2.21-5a12.39,12.39,0,0,0,1.29-6.49q-.14-3.63-3.91-5.24a9.59,9.59,0,0,0-2.62-.32q-.55,0-.71.14a1.39,1.39,0,0,0-.16.83q-.09,2.07-.18,6.3,0,.83,0,2.44t-.09,2.44q0,1.06-.23,3.22t-.23,3.27q-.28,4.88-.41,7.27a2.54,2.54,0,0,0,0,.78Q178.13,90.53,178.32,90.3Z"/><path d="M192.48,65.32l-.64.09a.92.92,0,0,1-.6-.18.6.6,0,0,1-.41-.51c0-.09.14-.28.41-.55a5.5,5.5,0,0,1,1-.46,8.85,8.85,0,0,0,1.66-.87,2.83,2.83,0,0,1,1.75-.55,51.61,51.61,0,0,1,6.67.14,4.36,4.36,0,0,1,2.25,1q.28.23.92.67t.92.67a6,6,0,0,1,1.43,2.35,11,11,0,0,1,.51,5.89,15.93,15.93,0,0,1-1.52,4.74q-.51.92-2.35,5.52a36.05,36.05,0,0,1-2.62,5.34L199,93.29q-.78,1.29-1.89,2.9a.59.59,0,0,1-.6.37,2.81,2.81,0,0,0-.44-.09l-.46-.07a.83.83,0,0,1-.37-.18.93.93,0,0,1-.3-.39l-.41-.18-.67,0a5.27,5.27,0,0,1-.67-.07q-1.2-.09-1.06-1.43,0-.69.16-2t.16-2q0-.6.09-1.63t.09-1.91q0-.87.09-1.66.09-1.1.23-3.31t.23-3.31q.18-3.5.23-5.52,0-2.35,0-7a3.51,3.51,0,0,0,0-.64Q193,65.23,192.48,65.32Zm5.7,25,.23-.28q.55-1,.83-1.47A46.67,46.67,0,0,0,203,81q.18-.55,2.21-5a12.39,12.39,0,0,0,1.29-6.49q-.14-3.63-3.91-5.24a9.59,9.59,0,0,0-2.62-.32q-.55,0-.71.14a1.39,1.39,0,0,0-.16.83q-.09,2.07-.18,6.3,0,.83,0,2.44t-.09,2.44q0,1.06-.23,3.22t-.23,3.27q-.28,4.88-.41,7.27a2.54,2.54,0,0,0,0,.78Q198,90.53,198.19,90.3Z"/><path d="M218,66.33a43.71,43.71,0,0,0-.46,6.53l-.14,7.87v5.15q0,1-.09,2.88t-.09,2.88q0,.46,0,1.38t0,1.38A1.15,1.15,0,0,1,217,95a1.58,1.58,0,0,1-.53.32,8.18,8.18,0,0,1-2.16.55q-.6,0-1.75,0a.49.49,0,0,1-.46-.23,3.53,3.53,0,0,1-.51-1.89c0-.21.05-.54.07-1s0-.75,0-1q0-1.15.18-13.66,0-4.14.28-8.37,0-.83.18-2.55t.18-2.6q0-.6,0-1.79a1.17,1.17,0,0,1,.87-1.29,2.9,2.9,0,0,1,1.56-.18,5.74,5.74,0,0,1,2.25.69,1.86,1.86,0,0,1,.85.62,3,3,0,0,1,.16,1.22Q218.1,65.55,218,66.33Z"/><path d="M234.44,87.26q0-1,.11-3t.12-3q0-1.06.16-3.1t.16-3q.28-4,.37-6.16.09-1.56.18-4.51a4.55,4.55,0,0,1,0-.78q.09-1.15,1.1-1.1l3.54.46a.64.64,0,0,1,.64.74,3,3,0,0,1,0,.87q0,1-.14,2.94l-.14,3.33q-.09,2.23-.18,3.33,0,.78-.09,2.3t-.14,2.3q0,.78,0,2.3v2.3q0,.87-.09,3.54t-.09,4.14q0,.32-.07,2.07a5.77,5.77,0,0,0,.12,2.07.83.83,0,0,1-.78,1.15l-.67.09-.76.09-.64.09a5.62,5.62,0,0,1-2.67-.74,1.08,1.08,0,0,1-.51-.74q-.46-1.38-1.29-4.14-.18-.6-.74-2.48t-.83-2.9l-.48-1.93L230,81.49q-.3-1.22-.48-1.91-1.29-5.06-2-7.59a21.19,21.19,0,0,0-.83-2.62q0,.46,0,1.4t-.09,1.45q0,.92-.11,2.53t-.12,2.92q0,1.31,0,2.51,0,2,.09,5.93.09,5.52.14,8.33a4,4,0,0,1-.09.74.65.65,0,0,1-.6.51l-.37,0-.39.07a1.67,1.67,0,0,1-.35,0,2.77,2.77,0,0,0-.6,0H223a1.42,1.42,0,0,1-.51,0,1.68,1.68,0,0,1-1.15-.48,1.92,1.92,0,0,1-.28-1.31q.09-4.23.09-6.35,0-.87,0-3.63t0-4.28q0-1,.23-6.16.09-2.71,0-5.38,0-1.56-.18-4.78a1.71,1.71,0,0,1,.16-1,1.29,1.29,0,0,1,.81-.44,5.43,5.43,0,0,1,3.27.18,4.69,4.69,0,0,1,1.38.69,2.52,2.52,0,0,1,.69,1.15q.32,1.15.94,3.47t.9,3.52l.28.8q.23.67.32,1,.37,1.52,1.15,4.55t1.2,4.51q.32,1.29,1,3.66t.78,2.78a1.07,1.07,0,0,0,.23.37h.14Q234.43,88.23,234.44,87.26Z"/><path d="M243.73,72.77a17.81,17.81,0,0,1,2.62-6.07q.18-.28,1.7-1.93a8.69,8.69,0,0,1,2.81-2.07,4.68,4.68,0,0,1,4.78,0A7.83,7.83,0,0,1,256.93,64a.53.53,0,0,1,0,.78q-.23.37-.69.09l-.18-.12a.28.28,0,0,0-.14-.07,4.1,4.1,0,0,0-5.29,0,12.57,12.57,0,0,0-4.78,7,37.24,37.24,0,0,0-1.43,9.57q0,1-.14,2.94a18.74,18.74,0,0,0,.41,4.92,2.34,2.34,0,0,0,2,2.16,4.85,4.85,0,0,0,4.23-1,8.35,8.35,0,0,0,2.71-4.28,23.89,23.89,0,0,0,.69-4.92v-.6a.45.45,0,0,0-.51-.51h-2.44a1.88,1.88,0,0,1-1.56-.78q-.51-.74.23-1.1a1.66,1.66,0,0,1,.83-.18l1.56-.12,1.56-.12,3.08-.41a1.44,1.44,0,0,1,1.06.16,3.35,3.35,0,0,1,.74,1.13,7.09,7.09,0,0,1,.37,1.24,5.8,5.8,0,0,1,0,1.2c0,.25-.08.61-.16,1.08a7.4,7.4,0,0,0-.11,1.08,31.84,31.84,0,0,1-.78,5.66,9.39,9.39,0,0,0-.32,1.33,10.51,10.51,0,0,1-3.4,5,3.9,3.9,0,0,1-1.29.83,5.85,5.85,0,0,1-4.28.28q-.23-.09-2.35-1.33a10.27,10.27,0,0,1-3-3.08,6,6,0,0,1-1-3.17q-.09-1.38-.32-3.68A65.05,65.05,0,0,1,243.73,72.77Z"/><path d="M289.08,73a17.94,17.94,0,0,1-2.67,4.23,14.42,14.42,0,0,1-1.08,1.15q-.62.6-1,.9t-1.24,1L282,81.1q-.51.46-1.29,1.06a1.2,1.2,0,0,0-.41,1q-.23,3-.23,3.59,0,.87,0,2.62T280,92q0,1.15-.09,3.27a.58.58,0,0,1-.32.6,3.34,3.34,0,0,1-.83.32l-1.17.25-1.13.25-.18,0-.18,0h-.58l-.18,0a.29.29,0,0,1-.21-.09.78.78,0,0,0-.16-.16.65.65,0,0,1-.18-.25l-.16-.39a3.66,3.66,0,0,1-.32-2.07q0-.73.07-2.09t0-1.77q0-2.21,0-3.36l.41-6.07q.23-3.31.28-6.53V72q0-.92.07-2.76t.11-2.76V65.09a.67.67,0,0,0-.51-.74l-.41-.14a.68.68,0,0,1-.35-.6.59.59,0,0,1,.3-.6,3.14,3.14,0,0,1,.55-.23,17.78,17.78,0,0,1,4.6-.87q2.25-.09,2.9,0a6.36,6.36,0,0,1,2.9.74,3.24,3.24,0,0,0,.46.23A4.29,4.29,0,0,1,288.71,65q.14.28.6,1.47a11.72,11.72,0,0,1,.64,2.94A8.59,8.59,0,0,1,289.08,73Zm-7.64,5.8a21.06,21.06,0,0,0,3.22-3.08,15,15,0,0,0,3.13-5.8,4.55,4.55,0,0,0,0-2.71,11.37,11.37,0,0,0-.37-1.1,2.12,2.12,0,0,0-1.06-1.29q-2-.87-2.3-1t-2.16-.32a.55.55,0,0,0-.51.12,1,1,0,0,0-.14.62V65q-.09,1.2-.25,3.57T280.8,72q-.14,2.3-.23,6.81V79a.24.24,0,0,0,0,.11.77.77,0,0,1,0,.14.76.76,0,0,1,0,.18A8.68,8.68,0,0,0,281.45,78.8Z"/><path d="M300,80.15a4.33,4.33,0,0,0-.64.48,1.25,1.25,0,0,0-.32.6,12.25,12.25,0,0,0-.09,1.24q-.18,3.27-.46,9.8L298.37,95a1,1,0,0,1-.6.87,10,10,0,0,1-1.08.41q-.58.18-1.31.35l-1.1.25a.89.89,0,0,1-.57,0,1.4,1.4,0,0,1-.39-.55,2.05,2.05,0,0,0-.32-.51,1.85,1.85,0,0,1-.28-1.33l.41-5.24q.37-5.06.51-7.59.14-1.56.32-4.69.37-3.82.51-6,0-.92,0-2.76c0-.18,0-.56,0-1.13s0-1,.07-1.31a1.22,1.22,0,0,0-.37-1.06.66.66,0,0,1-.37-.78.78.78,0,0,1,.64-.64q.46-.09,1.26-.3l1.47-.37,1.26-.3a24.92,24.92,0,0,1,4.69-.46,6.84,6.84,0,0,1,3,.78,3.92,3.92,0,0,1,1.56,1.79,7.63,7.63,0,0,1,.51,5.7,10.42,10.42,0,0,1-2.44,4.46q-.37.41-1,1.22t-.74.94q-.18.23-.64.69a1.3,1.3,0,0,0-.46,1.33l.48,2.23q.39,1.82.62,2.83t2.07,8.65q.09.28.35,1.1t.34,1.29a1.71,1.71,0,0,1-.16,1.31,1.29,1.29,0,0,1-.94.71.29.29,0,0,1-.37-.09,2.48,2.48,0,0,1-.92-1.38q-.28-1.66-.67-3.45t-.92-4q-.53-2.23-.76-3.38-.18-.83-.6-2.32t-.55-2l-.28-.6A4.34,4.34,0,0,1,300,80.15Zm-.6-2.37.6-.41a5.28,5.28,0,0,0,.69-.55,33,33,0,0,0,4.37-5,9.39,9.39,0,0,0,1.52-5.06q.14-2.53-2.21-2.85-.69,0-4,0a2.22,2.22,0,0,0-.55.23,4,4,0,0,1,.34,1,8.61,8.61,0,0,1-.07,1.2.63.63,0,0,0,0,.28v.28q-.37,4.6-.51,6.85-.14,1.29-.32,3.86A.77.77,0,0,1,299.43,77.79Z"/><path d="M311.9,85.33q-.46-4-.51-4.65a25.35,25.35,0,0,1,1.38-10.63A16.24,16.24,0,0,1,315,65.69q.23-.23.67-.71l.67-.76a2.66,2.66,0,0,0,.74-1,.56.56,0,0,1,.37-.41l.83-.16a7.78,7.78,0,0,0,.83-.21,2.43,2.43,0,0,1,1.08-.07l1.06.12q.3,0,1.06.23t1.08.23a4.43,4.43,0,0,1,3.17,2.48,41.89,41.89,0,0,1,3,8.1,26.31,26.31,0,0,1,.41,9.57q-.46,3.31-.6,4a13.36,13.36,0,0,1-.69,2.44q-.74,2.12-1.15,3.13a5.72,5.72,0,0,1-2.35,2.58l-1.2.64q-.78.41-1.15.64t-.6.18l-1.31,0q-1.17,0-1.31-.14a5.81,5.81,0,0,0-1.93-.32,3.63,3.63,0,0,1-3.27-2.3q-.32-.69-1.52-3.5A36.79,36.79,0,0,1,311.9,85.33ZM323.38,69.6q-.39-.87-.92-1.93t-.8-1.66a1,1,0,0,0-.64-.64,7.1,7.1,0,0,0-1.79-.55,1.38,1.38,0,0,0-1,.23,6.73,6.73,0,0,0-2.48,2.85,21.28,21.28,0,0,0-2.12,6.85,31.57,31.57,0,0,0-.28,5.57q.32,3.54,1.06,7.41a26.92,26.92,0,0,0,1.7,5.11q.55,1.15,1.43,1.1h1.43a1.74,1.74,0,0,0,.69-.09,6.28,6.28,0,0,0,3.63-3.5,38.73,38.73,0,0,0,1.29-4.23q0-.14.55-3.4a23.38,23.38,0,0,0,0-6.07,20.19,20.19,0,0,0-1.2-5.34A8.92,8.92,0,0,0,323.38,69.6Z"/><path d="M348.1,73a17.92,17.92,0,0,1-2.67,4.23,14.42,14.42,0,0,1-1.08,1.15q-.62.6-1,.9t-1.24,1l-1.08.83q-.51.46-1.29,1.06a1.2,1.2,0,0,0-.41,1q-.23,3-.23,3.59,0,.87,0,2.62T339,92q0,1.15-.09,3.27a.58.58,0,0,1-.32.6,3.35,3.35,0,0,1-.83.32l-1.17.25-1.13.25-.18,0-.18,0h-.58l-.18,0a.29.29,0,0,1-.21-.09.8.8,0,0,0-.16-.16.65.65,0,0,1-.18-.25l-.16-.39a3.65,3.65,0,0,1-.32-2.07q0-.73.07-2.09t0-1.77q0-2.21,0-3.36l.41-6.07q.23-3.31.28-6.53V72q0-.92.07-2.76t.11-2.76V65.09a.67.67,0,0,0-.51-.74l-.41-.14a.68.68,0,0,1-.34-.6.59.59,0,0,1,.3-.6,3.14,3.14,0,0,1,.55-.23,17.79,17.79,0,0,1,4.6-.87q2.25-.09,2.9,0a6.36,6.36,0,0,1,2.9.74,3.21,3.21,0,0,0,.46.23A4.3,4.3,0,0,1,347.73,65q.14.28.6,1.47a11.7,11.7,0,0,1,.64,2.94A8.59,8.59,0,0,1,348.1,73Zm-7.64,5.8a21.06,21.06,0,0,0,3.22-3.08,15,15,0,0,0,3.13-5.8,4.55,4.55,0,0,0,0-2.71,11.47,11.47,0,0,0-.37-1.1,2.12,2.12,0,0,0-1.06-1.29q-2-.87-2.3-1t-2.16-.32a.55.55,0,0,0-.51.12,1,1,0,0,0-.14.62V65q-.09,1.2-.25,3.57T339.82,72q-.14,2.3-.23,6.81V79a.24.24,0,0,0,0,.11.81.81,0,0,1,0,.14.79.79,0,0,1,0,.18A8.53,8.53,0,0,0,340.46,78.8Z"/><path d="M352.29,85.33q-.46-4-.51-4.65a25.36,25.36,0,0,1,1.38-10.63,16.18,16.18,0,0,1,2.25-4.37q.23-.23.67-.71l.67-.76a2.67,2.67,0,0,0,.74-1,.57.57,0,0,1,.37-.41l.83-.16a7.75,7.75,0,0,0,.83-.21,2.43,2.43,0,0,1,1.08-.07l1.06.12q.3,0,1.06.23t1.08.23A4.43,4.43,0,0,1,367,65.41a41.89,41.89,0,0,1,3,8.1,26.33,26.33,0,0,1,.41,9.57q-.46,3.31-.6,4a13.35,13.35,0,0,1-.69,2.44q-.74,2.12-1.15,3.13a5.72,5.72,0,0,1-2.35,2.58l-1.2.64q-.78.41-1.15.64t-.6.18l-1.31,0q-1.17,0-1.31-.14a5.8,5.8,0,0,0-1.93-.32,3.63,3.63,0,0,1-3.27-2.3q-.32-.69-1.52-3.5A36.79,36.79,0,0,1,352.29,85.33ZM363.76,69.6q-.39-.87-.92-1.93T362,66a1,1,0,0,0-.64-.64,7.08,7.08,0,0,0-1.79-.55,1.38,1.38,0,0,0-1,.23,6.74,6.74,0,0,0-2.48,2.85A21.28,21.28,0,0,0,354,74.75a31.65,31.65,0,0,0-.28,5.57q.32,3.54,1.06,7.41a27,27,0,0,0,1.7,5.11q.55,1.15,1.43,1.1h1.43a1.74,1.74,0,0,0,.69-.09,6.28,6.28,0,0,0,3.63-3.5,38.51,38.51,0,0,0,1.29-4.23q0-.14.55-3.4a23.37,23.37,0,0,0,0-6.07,20.23,20.23,0,0,0-1.2-5.34A9,9,0,0,0,363.76,69.6Z"/><path d="M391.25,79.35a6.16,6.16,0,0,1,.14,1,8.08,8.08,0,0,0,.09.87,30.88,30.88,0,0,1-1.29,7.31,9.85,9.85,0,0,1-.46,1.13,8.65,8.65,0,0,1-.48.9l-.67,1q-.46.69-.6.87a12.84,12.84,0,0,1-3.63,3.63l-.09,0a4.34,4.34,0,0,1-1,.48,9.37,9.37,0,0,1-1.77.35,6.79,6.79,0,0,1-2.74-.35A11.71,11.71,0,0,1,375.47,95,9.3,9.3,0,0,1,374,91.93a12.92,12.92,0,0,1-.55-2.87V87.91l.14-.69a12.68,12.68,0,0,1,.46-1.56q.28-.69,1-.28c.21.09.32.21.32.37l0,.18q0,.14-.14.48a5.48,5.48,0,0,0-.14.67,5.33,5.33,0,0,0-.14,2.48,5.15,5.15,0,0,0,4.65,5.06,3.48,3.48,0,0,0,2.9-.57,4.73,4.73,0,0,0,1.61-2.58,18.47,18.47,0,0,0,.6-3.24,22.44,22.44,0,0,0,0-3.22,13.5,13.5,0,0,0-.18-2.3l-.14-.69q-.87-3.73-3.73-4.51L378.6,77a4.52,4.52,0,0,1-2.85-4.37,10.75,10.75,0,0,1,.74-3.5A12.4,12.4,0,0,1,378.09,66,7.49,7.49,0,0,1,382.41,63a23.4,23.4,0,0,1,2.9-.55,5.36,5.36,0,0,1,3.27,1,5.79,5.79,0,0,1,1.61,1.33,2,2,0,0,1,.23.41c.06.31.06.49,0,.55A.45.45,0,0,1,390,66a1.56,1.56,0,0,1-.6-.41,8.21,8.21,0,0,0-2.25-1.43,3.92,3.92,0,0,0-3.08,0,10.39,10.39,0,0,0-2.76,1.24,6.87,6.87,0,0,0-2.76,3.4,10.88,10.88,0,0,0-1,2.94,2.5,2.5,0,0,0-.09.51,1.74,1.74,0,0,0,.25,1.22,1,1,0,0,0,.94.25,25,25,0,0,1,3.31-.14q.46,0,1.59-.09a11.92,11.92,0,0,1,1.73,0,5.51,5.51,0,0,1,4.19,2.25A8.22,8.22,0,0,1,391.25,79.35Z"/><path d="M392.44,94.94a7.77,7.77,0,0,1,.28-1.33q.37-1.15.87-3.33t.74-3.06q.28-1.1.69-3.15t.51-2.55q1.2-5.43,1.52-6.62l.39-1.36.46-1.59.39-1.33,1.24-5.11a3.12,3.12,0,0,0,0-.87,1.17,1.17,0,0,1,.64-1.47q.28-.14.85-.37a6.24,6.24,0,0,0,.8-.37,6.81,6.81,0,0,1,2.12-.28,1,1,0,0,1,1.2.78,4,4,0,0,1,.23.87q.69,6.35.92,8.83.23,2.12.6,5.75a4.78,4.78,0,0,1,.07.48c0,.17,0,.35,0,.55s0,.36,0,.48q.37,3.4.55,5.06.18,2.16.55,6.39a10.67,10.67,0,0,1,0,1.17v1.22a.89.89,0,0,1-.41.69,10,10,0,0,1-3.08,1.29.44.44,0,0,0-.32.14.83.83,0,0,1-.92,0,1,1,0,0,1-.55-1,64,64,0,0,0-.64-8.6q-.09-.55-.21-1.61t-.16-1.61a1.65,1.65,0,0,0-.23-.71q-.14-.16-.64-.12t-3.59.23a.88.88,0,0,0-.87.83q-.18,1-1.2,5.43-.18.64-.53,1.93t-.48,1.93a20.32,20.32,0,0,1-.78,2.76q-.46.41-.6.28c0-.06-.06-.09-.09-.09a.13.13,0,0,0,0,.09v0l-.28.14A3.09,3.09,0,0,1,392.44,94.94ZM397.23,81l1.29-.14q.41,0,1.22-.07l1.22,0q.46,0,.55-.12t0-.57q-.09-.64-.23-1.91t-.18-1.91q-.09-1-.3-3.06t-.34-3.06a1.62,1.62,0,0,0-.07-.39,1.59,1.59,0,0,1-.07-.35A55.61,55.61,0,0,0,397.23,81Z"/><path d="M417.28,75.53q-.14,8.65-.14,8.74,0,1.29-.37,7.36a5.57,5.57,0,0,0,0,.85,5.75,5.75,0,0,1,0,.85c0,.34.08.55.32.64l1,.14L421.7,94a1.69,1.69,0,0,1,.55,0q.46,0,.55.64a3.11,3.11,0,0,1,0,1.29c-.08.12-.42.18-1,.18-.18,0-.45,0-.78,0s-.6,0-.78,0h-1.33L416.36,96q-.64,0-1.89.07l-1.89.12h-.23a1.51,1.51,0,0,1-1.38-2q.46-3.22.74-9.71.14-2.21.23-9.89,0-2.07.18-6.21V64.58q0-.32,0-1c0-.43,0-.75,0-1a1.2,1.2,0,0,1,.87-1.33,4.65,4.65,0,0,1,4.19.83,1.13,1.13,0,0,1,.46,1.06v1.61h0Z"/><path d="M443.46,79.35a6.38,6.38,0,0,1,.14,1,8.16,8.16,0,0,0,.09.87,30.88,30.88,0,0,1-1.29,7.31,9.68,9.68,0,0,1-.46,1.13,8.49,8.49,0,0,1-.48.9l-.67,1q-.46.69-.6.87a12.84,12.84,0,0,1-3.63,3.63l-.09,0a4.36,4.36,0,0,1-1,.48,9.4,9.4,0,0,1-1.77.35,6.79,6.79,0,0,1-2.74-.35A11.68,11.68,0,0,1,427.68,95a9.28,9.28,0,0,1-1.47-3.06,12.93,12.93,0,0,1-.55-2.87V87.91l.14-.69a12.35,12.35,0,0,1,.46-1.56q.28-.69,1-.28c.21.09.32.21.32.37l0,.18q0,.14-.14.48a5.68,5.68,0,0,0-.14.67,5.32,5.32,0,0,0-.14,2.48,5.15,5.15,0,0,0,4.65,5.06,3.48,3.48,0,0,0,2.9-.57,4.74,4.74,0,0,0,1.61-2.58,18.39,18.39,0,0,0,.6-3.24,22.58,22.58,0,0,0,0-3.22,13.4,13.4,0,0,0-.18-2.3L436.6,82q-.87-3.73-3.73-4.51L430.81,77A4.52,4.52,0,0,1,428,72.59a10.73,10.73,0,0,1,.74-3.5A12.37,12.37,0,0,1,430.3,66,7.49,7.49,0,0,1,434.62,63a23.43,23.43,0,0,1,2.9-.55,5.37,5.37,0,0,1,3.27,1,5.78,5.78,0,0,1,1.61,1.33,2.08,2.08,0,0,1,.23.41c.06.31.06.49,0,.55a.45.45,0,0,1-.41.23,1.57,1.57,0,0,1-.6-.41,8.2,8.2,0,0,0-2.25-1.43,3.92,3.92,0,0,0-3.08,0,10.39,10.39,0,0,0-2.76,1.24,6.86,6.86,0,0,0-2.76,3.4,10.81,10.81,0,0,0-1,2.94,2.43,2.43,0,0,0-.09.51,1.74,1.74,0,0,0,.25,1.22,1,1,0,0,0,.94.25,25,25,0,0,1,3.31-.14q.46,0,1.59-.09a11.91,11.91,0,0,1,1.72,0,5.52,5.52,0,0,1,4.19,2.25A8.23,8.23,0,0,1,443.46,79.35Z"/><path d="M52.3,140.53q-.46-4-.51-4.65a25.36,25.36,0,0,1,1.38-10.63,16.21,16.21,0,0,1,2.25-4.37q.23-.23.67-.71l.67-.76a2.66,2.66,0,0,0,.74-1,.56.56,0,0,1,.37-.41l.83-.16a7.77,7.77,0,0,0,.83-.21,2.44,2.44,0,0,1,1.08-.07l1.06.12q.3,0,1.06.23t1.08.23A4.43,4.43,0,0,1,67,120.61a41.88,41.88,0,0,1,3,8.1,26.32,26.32,0,0,1,.41,9.57q-.46,3.31-.6,4a13.37,13.37,0,0,1-.69,2.44q-.74,2.12-1.15,3.13a5.71,5.71,0,0,1-2.35,2.58l-1.2.64q-.78.41-1.15.64c-.31.15-.51.21-.6.18l-1.31,0q-1.17,0-1.31-.14a5.81,5.81,0,0,0-1.93-.32,3.63,3.63,0,0,1-3.27-2.3q-.32-.69-1.52-3.5A36.77,36.77,0,0,1,52.3,140.53ZM63.78,124.8q-.39-.87-.92-1.93t-.8-1.66a1,1,0,0,0-.64-.64,7.09,7.09,0,0,0-1.79-.55,1.39,1.39,0,0,0-1,.23,6.73,6.73,0,0,0-2.48,2.85A21.28,21.28,0,0,0,54,129.95a31.61,31.61,0,0,0-.28,5.57q.32,3.54,1.06,7.41a27,27,0,0,0,1.7,5.11q.55,1.15,1.43,1.1h1.43A1.74,1.74,0,0,0,60,149a6.28,6.28,0,0,0,3.63-3.5A38.62,38.62,0,0,0,65,141.31q0-.14.55-3.4a23.37,23.37,0,0,0,0-6.07,20.21,20.21,0,0,0-1.2-5.34A9,9,0,0,0,63.78,124.8Z"/><path d="M86.85,142.46q0-1,.11-3t.12-3q0-1.06.16-3.1t.16-3q.28-4,.37-6.16.09-1.56.18-4.51a4.53,4.53,0,0,1,0-.78q.09-1.15,1.1-1.1l3.54.46a.64.64,0,0,1,.64.74,3,3,0,0,1,0,.87q0,1-.14,2.94L93,126.06q-.09,2.23-.18,3.34,0,.78-.09,2.3t-.14,2.3q0,.78,0,2.3v2.3q0,.87-.09,3.54t-.09,4.14q0,.32-.07,2.07a5.77,5.77,0,0,0,.12,2.07.83.83,0,0,1-.78,1.15l-.67.09-.76.09-.64.09a5.63,5.63,0,0,1-2.67-.74,1.09,1.09,0,0,1-.51-.74q-.46-1.38-1.29-4.14-.18-.6-.74-2.48t-.83-2.9L83,138.92l-.55-2.23q-.3-1.22-.48-1.91-1.29-5.06-2-7.59a21.08,21.08,0,0,0-.83-2.62q0,.46,0,1.4T79,127.42q0,.92-.11,2.53t-.12,2.92q0,1.31,0,2.51,0,2,.09,5.93.09,5.52.14,8.33a4,4,0,0,1-.09.74.65.65,0,0,1-.6.51l-.37,0-.39.07a1.67,1.67,0,0,1-.35,0,2.77,2.77,0,0,0-.6,0h-1.2a1.42,1.42,0,0,1-.51,0,1.68,1.68,0,0,1-1.15-.48,1.92,1.92,0,0,1-.28-1.31q.09-4.23.09-6.35,0-.87,0-3.63t0-4.28q0-1,.23-6.16.09-2.71,0-5.38,0-1.56-.18-4.78a1.71,1.71,0,0,1,.16-1,1.3,1.3,0,0,1,.81-.44,5.44,5.44,0,0,1,3.27.18,4.72,4.72,0,0,1,1.38.69,2.53,2.53,0,0,1,.69,1.15q.32,1.15.94,3.47t.9,3.52L82,127c.15.44.26.79.32,1q.37,1.52,1.15,4.55t1.2,4.51q.32,1.29,1,3.66t.78,2.78a1.07,1.07,0,0,0,.23.37h.14Q86.84,143.43,86.85,142.46Z"/><path d="M113.92,140.78l.11-.48q.09-.37.69-3.08t1-4.14q.37-1.47,1.15-4.16l1-3.33q1-3,1.06-3.5.41-1.84,1.52-5.34.18-.78.83-.74a3,3,0,0,1,1.1.23q1,.55,2.94,1.75.41.23.32,1a.54.54,0,0,1,0,.16.49.49,0,0,1-.09.16,12.49,12.49,0,0,0-.69,1.56q-.32.87-.51,1.52l-.48,1.72q-.3,1.08-.44,1.63-.37,1.24-1.08,3.73t-1.08,3.73q-1.34,5.2-1.61,6.39l-1,5.57q-.55,3.86-.87,5.75a1.47,1.47,0,0,1-.46,1,.84.84,0,0,1-.87.12,9.23,9.23,0,0,1-3.45-2.21,2.07,2.07,0,0,1-.64-1.38q-.09-.92-.32-2.71t-.23-1.93q-.28-2.39-.41-3.63-.28-2.21-.37-3.36-.09-1.89-.87-6.9-.55-3.17-1.56-9.52-.09-.37-.25-1.08t-.21-1.08a1.75,1.75,0,0,1,.16-1.13.67.67,0,0,1,.76-.34.78.78,0,0,1,.64.64,18.85,18.85,0,0,1,.51,1.93q0,.37.55,3.91t.83,5.38q.09.46,1.66,10,.14.69.32,2.07l.18.6h.18A2.2,2.2,0,0,1,113.92,140.78Z"/><path d="M127.92,150.14a7.82,7.82,0,0,1,.28-1.33q.37-1.15.87-3.33t.74-3.06q.28-1.1.69-3.15t.51-2.55q1.2-5.43,1.52-6.62l.39-1.36.46-1.59.39-1.33L135,120.7a3.1,3.1,0,0,0,0-.87,1.17,1.17,0,0,1,.64-1.47q.28-.14.85-.37a6.37,6.37,0,0,0,.81-.37,6.84,6.84,0,0,1,2.12-.28,1,1,0,0,1,1.2.78,4,4,0,0,1,.23.87q.69,6.35.92,8.83.23,2.12.6,5.75,0,.23.07.48t0,.55c0,.2,0,.36,0,.48q.37,3.41.55,5.06.18,2.16.55,6.39a10.67,10.67,0,0,1,0,1.17v1.22a.89.89,0,0,1-.41.69,10,10,0,0,1-3.08,1.29.44.44,0,0,0-.32.14.83.83,0,0,1-.92,0,1,1,0,0,1-.55-1,64,64,0,0,0-.64-8.6q-.09-.55-.21-1.61t-.16-1.61a1.66,1.66,0,0,0-.23-.71q-.14-.16-.64-.11t-3.59.23a.88.88,0,0,0-.87.83q-.18,1-1.2,5.43-.18.65-.53,1.93t-.48,1.93a20.49,20.49,0,0,1-.78,2.76q-.46.41-.6.28c0-.06-.06-.09-.09-.09a.13.13,0,0,0,0,.09v0L128,151A3.1,3.1,0,0,1,127.92,150.14Zm4.78-13.94,1.29-.14q.41,0,1.22-.07l1.22,0q.46,0,.55-.11c.06-.08.06-.27,0-.58s-.14-1.07-.23-1.91-.15-1.48-.18-1.91q-.09-1-.3-3.06t-.34-3.06a1.62,1.62,0,0,0-.07-.39,1.61,1.61,0,0,1-.07-.34A55.59,55.59,0,0,0,132.71,136.21Z"/><path d="M152.76,130.73q-.14,8.65-.14,8.74,0,1.29-.37,7.36a5.59,5.59,0,0,0,0,.85,5.75,5.75,0,0,1,0,.85c0,.34.08.55.32.64l1,.14,3.73-.14a1.69,1.69,0,0,1,.55,0q.46,0,.55.64a3.11,3.11,0,0,1,0,1.29q-.11.18-1,.18c-.18,0-.44,0-.78,0s-.6,0-.78,0h-1.33l-2.53-.14q-.64,0-1.89.07l-1.89.11h-.23a1.51,1.51,0,0,1-1.38-2q.46-3.22.74-9.71.14-2.21.23-9.89,0-2.07.18-6.21v-3.86c0-.21,0-.54,0-1s0-.75,0-1a1.2,1.2,0,0,1,.87-1.33,4.66,4.66,0,0,1,4.19.83,1.13,1.13,0,0,1,.46,1.06V120h0Q152.85,127.19,152.76,130.73Z"/><path d="M166.93,149l2.62-.39,2.62-.39h.18q.92-.09,1.15.14t.14,1.15a.62.62,0,0,1-.46.74l-.28,0-.28,0a45.23,45.23,0,0,0-5.66.74,7,7,0,0,1-1.22.12,8.05,8.05,0,0,0-1,.07q-1.2,0-1.84,0a1.58,1.58,0,0,1-1.79-1.38,3.11,3.11,0,0,1-.09-1.52q.6-3.73.92-8.51,0-.87.11-2.58t.12-2.53.41-6.12q0-1.43.23-4.28.14-1.75.32-5.24a1.2,1.2,0,0,1,.41-.83,3.91,3.91,0,0,1,2-.78l2-.16,2.32-.16a6.79,6.79,0,0,1,.9,0q.57,0,1,0a4,4,0,0,0,.87-.18H173a1.91,1.91,0,0,1,.81.21,1.54,1.54,0,0,1,.11.81,1.83,1.83,0,0,1-.14.94c-.09.11-.4.18-.92.21q-2.39.09-3.59.18a.91.91,0,0,0-.58.18,1.46,1.46,0,0,0-.16.69l-.55,6.62s0,.89-.14,2.58l-.14,2.9q0,.64.14.76t.74,0l2.67-.28a1,1,0,0,1,.64.07,1.46,1.46,0,0,1,.28.67,1.52,1.52,0,0,1,.09.37c0,.43-.14.66-.51.69s-1,.12-1.75.18-1.58.12-2,.18-.51.32-.51.78-.06,1-.09,1.7,0,1.3,0,1.7q-.46,5.84-.64,6.81-.09.55-.21,1.7t-.16,1.38A1.25,1.25,0,0,0,166.93,149Z"/><path d="M190.44,142.46q0-1,.11-3t.12-3q0-1.06.16-3.1t.16-3q.28-4,.37-6.16.09-1.56.18-4.51a4.53,4.53,0,0,1,0-.78q.09-1.15,1.1-1.1l3.54.46a.64.64,0,0,1,.64.74,3,3,0,0,1,0,.87q0,1-.14,2.94l-.14,3.33q-.09,2.23-.18,3.34,0,.78-.09,2.3t-.14,2.3q0,.78,0,2.3v2.3q0,.87-.09,3.54t-.09,4.14q0,.32-.07,2.07a5.77,5.77,0,0,0,.12,2.07.83.83,0,0,1-.78,1.15l-.67.09-.76.09-.64.09a5.63,5.63,0,0,1-2.67-.74,1.09,1.09,0,0,1-.51-.74q-.46-1.38-1.29-4.14-.18-.6-.74-2.48t-.83-2.9l-.48-1.93-.55-2.23q-.3-1.22-.48-1.91-1.29-5.06-2-7.59a21.08,21.08,0,0,0-.83-2.62q0,.46,0,1.4t-.09,1.45q0,.92-.11,2.53t-.12,2.92q0,1.31,0,2.51,0,2,.09,5.93.09,5.52.14,8.33a4,4,0,0,1-.09.74.65.65,0,0,1-.6.51l-.37,0-.39.07a1.67,1.67,0,0,1-.35,0,2.77,2.77,0,0,0-.6,0H179a1.42,1.42,0,0,1-.51,0,1.68,1.68,0,0,1-1.15-.48,1.92,1.92,0,0,1-.28-1.31q.09-4.23.09-6.35,0-.87,0-3.63t0-4.28q0-1,.23-6.16.09-2.71,0-5.38,0-1.56-.18-4.78a1.71,1.71,0,0,1,.16-1,1.3,1.3,0,0,1,.81-.44,5.44,5.44,0,0,1,3.27.18,4.72,4.72,0,0,1,1.38.69,2.53,2.53,0,0,1,.69,1.15q.32,1.15.94,3.47t.9,3.52l.28.81c.15.44.26.79.32,1q.37,1.52,1.15,4.55t1.2,4.51q.32,1.29,1,3.66t.78,2.78a1.07,1.07,0,0,0,.23.37h.14Q190.44,143.43,190.44,142.46Z"/><path d="M205,123.51q0-1.06,0-1.61v-.64a1.47,1.47,0,0,0-.21-.78.82.82,0,0,0-.62-.18h-3a7,7,0,0,1-.92,0,.73.73,0,0,1-.53-.44,1.26,1.26,0,0,1-.16-.76.73.73,0,0,1,.78-.74c.34,0,.82,0,1.45,0l1.73.07,1.47,0a13.49,13.49,0,0,0,3.08-.23,23.38,23.38,0,0,1,5.38-.46q.83,0,2.35-.09t2-.09a1.19,1.19,0,0,1,1.2,1.06q.14.55-.28.69l-.23,0-.23,0-6.26.14h-.37q-.69,0-.85.28a2.1,2.1,0,0,0-.07,1.15,6,6,0,0,1,0,.87q-.09,1.84-.18,2.76t-.23,2.67q0,.51-.14,1.43t-.16,1.66q-.07.74-.11,1.43-.37,5.29-.51,7.68-.23,3.13-.46,5.61t-.23,3.36q0,.23,0,.74t0,.78a1,1,0,0,1-.55.87,6.49,6.49,0,0,1-1.54.37q-1,.14-1.36.23a2.33,2.33,0,0,1-1.1-.14q-.87-.28-.78-1.52.09-1.06.41-4.16t.46-5.22q.23-2.85.51-8.74l.14-2.78.14-2.78v-1h0Q205,124.57,205,123.51Z"/><path d="M228.29,121.53a43.69,43.69,0,0,0-.46,6.53l-.14,7.87v5.15q0,1-.09,2.88t-.09,2.88q0,.46,0,1.38t0,1.38a1.15,1.15,0,0,1-.11.64,1.6,1.6,0,0,1-.53.32,8.18,8.18,0,0,1-2.16.55q-.6,0-1.75,0a.49.49,0,0,1-.46-.23,3.53,3.53,0,0,1-.51-1.89q0-.32.07-1c0-.43,0-.75,0-1q0-1.15.18-13.66,0-4.14.28-8.37,0-.83.18-2.55t.18-2.6q0-.6,0-1.79a1.17,1.17,0,0,1,.87-1.29,2.89,2.89,0,0,1,1.56-.18,5.72,5.72,0,0,1,2.25.69,1.86,1.86,0,0,1,.85.62,3,3,0,0,1,.16,1.22Q228.43,120.75,228.29,121.53Z"/><path d="M244.76,142.46q0-1,.11-3t.12-3q0-1.06.16-3.1t.16-3q.28-4,.37-6.16.09-1.56.18-4.51a4.53,4.53,0,0,1,0-.78q.09-1.15,1.1-1.1l3.54.46a.64.64,0,0,1,.64.74,3,3,0,0,1,0,.87q0,1-.14,2.94l-.14,3.33q-.09,2.23-.18,3.34,0,.78-.09,2.3t-.14,2.3q0,.78,0,2.3v2.3q0,.87-.09,3.54t-.09,4.14q0,.32-.07,2.07a5.77,5.77,0,0,0,.12,2.07.83.83,0,0,1-.78,1.15l-.67.09-.76.09-.64.09a5.63,5.63,0,0,1-2.67-.74,1.09,1.09,0,0,1-.51-.74q-.46-1.38-1.29-4.14-.18-.6-.74-2.48t-.83-2.9l-.48-1.93-.55-2.23q-.3-1.22-.48-1.91-1.29-5.06-2-7.59a21.08,21.08,0,0,0-.83-2.62q0,.46,0,1.4t-.09,1.45q0,.92-.11,2.53t-.12,2.92q0,1.31,0,2.51,0,2,.09,5.93.09,5.52.14,8.33a4,4,0,0,1-.09.74.65.65,0,0,1-.6.51l-.37,0-.39.07a1.67,1.67,0,0,1-.35,0,2.77,2.77,0,0,0-.6,0h-1.2a1.42,1.42,0,0,1-.51,0,1.68,1.68,0,0,1-1.15-.48,1.92,1.92,0,0,1-.28-1.31q.09-4.23.09-6.35,0-.87,0-3.63t0-4.28q0-1,.23-6.16.09-2.71,0-5.38,0-1.56-.18-4.78a1.71,1.71,0,0,1,.16-1,1.3,1.3,0,0,1,.81-.44,5.44,5.44,0,0,1,3.27.18,4.72,4.72,0,0,1,1.38.69,2.53,2.53,0,0,1,.69,1.15q.32,1.15.94,3.47t.9,3.52l.28.81c.15.44.26.79.32,1q.37,1.52,1.15,4.55t1.2,4.51q.32,1.29,1,3.66t.78,2.78a1.07,1.07,0,0,0,.23.37h.14Q244.76,143.43,244.76,142.46Z"/><path d="M259.76,149l2.62-.39,2.62-.39h.18q.92-.09,1.15.14t.14,1.15a.62.62,0,0,1-.46.74l-.28,0-.28,0a45.23,45.23,0,0,0-5.66.74,7,7,0,0,1-1.22.12,8.05,8.05,0,0,0-1,.07q-1.2,0-1.84,0a1.58,1.58,0,0,1-1.79-1.38,3.11,3.11,0,0,1-.09-1.52q.6-3.73.92-8.51,0-.87.11-2.58t.12-2.53.41-6.12q0-1.43.23-4.28.14-1.75.32-5.24a1.2,1.2,0,0,1,.41-.83,3.91,3.91,0,0,1,2-.78l2-.16,2.32-.16a6.79,6.79,0,0,1,.9,0q.57,0,1,0a4,4,0,0,0,.87-.18h.41a1.91,1.91,0,0,1,.81.21,1.54,1.54,0,0,1,.11.81,1.83,1.83,0,0,1-.14.94c-.09.11-.4.18-.92.21q-2.39.09-3.59.18a.91.91,0,0,0-.58.18,1.46,1.46,0,0,0-.16.69l-.55,6.62s0,.89-.14,2.58l-.14,2.9q0,.64.14.76t.74,0l2.67-.28a1,1,0,0,1,.64.07,1.46,1.46,0,0,1,.28.67,1.52,1.52,0,0,1,.09.37c0,.43-.14.66-.51.69s-1,.12-1.75.18-1.58.12-2,.18-.51.32-.51.78-.06,1-.09,1.7,0,1.3,0,1.7q-.46,5.84-.64,6.81-.09.55-.21,1.7t-.16,1.38A1.25,1.25,0,0,0,259.76,149Z"/><path d="M270.2,115.18q-.14-3.13,1.15-3.13.46,0,.67.67a20.81,20.81,0,0,1,.18,5,4.78,4.78,0,0,1-.35,1.4,3.2,3.2,0,0,1-.53.8.73.73,0,0,1-.58.3,2.31,2.31,0,0,1-.55-.11.76.76,0,0,1-.32-.58,2.66,2.66,0,0,1,.07-.9,12.6,12.6,0,0,0,.21-1.47A14.13,14.13,0,0,0,270.2,115.18Z"/><path d="M292.83,134.55a6.38,6.38,0,0,1,.14,1,8.1,8.1,0,0,0,.09.87,30.87,30.87,0,0,1-1.29,7.31,9.61,9.61,0,0,1-.46,1.13,8.62,8.62,0,0,1-.48.9l-.67,1q-.46.69-.6.87a12.81,12.81,0,0,1-3.63,3.63l-.09,0a4.35,4.35,0,0,1-1,.48,9.48,9.48,0,0,1-1.77.34,6.81,6.81,0,0,1-2.74-.34,11.75,11.75,0,0,1-3.24-1.63,9.29,9.29,0,0,1-1.47-3.06,12.91,12.91,0,0,1-.55-2.87v-1.15l.14-.69a12.51,12.51,0,0,1,.46-1.56q.28-.69,1-.28c.21.09.32.21.32.37l0,.18q0,.14-.14.48a5.5,5.5,0,0,0-.14.67,5.32,5.32,0,0,0-.14,2.48,5.15,5.15,0,0,0,4.65,5.06,3.48,3.48,0,0,0,2.9-.58,4.73,4.73,0,0,0,1.61-2.58,18.43,18.43,0,0,0,.6-3.24,22.51,22.51,0,0,0,0-3.22,13.46,13.46,0,0,0-.18-2.3l-.14-.69q-.87-3.73-3.73-4.51l-2.07-.55a4.52,4.52,0,0,1-2.85-4.37,10.75,10.75,0,0,1,.74-3.5,12.4,12.4,0,0,1,1.61-3.13,7.49,7.49,0,0,1,4.32-2.94,23.6,23.6,0,0,1,2.9-.55,5.37,5.37,0,0,1,3.27,1,5.8,5.8,0,0,1,1.61,1.33,2.11,2.11,0,0,1,.23.41c.06.31.06.49,0,.55a.45.45,0,0,1-.41.23,1.57,1.57,0,0,1-.6-.41,8.18,8.18,0,0,0-2.25-1.43,3.91,3.91,0,0,0-3.08,0,10.36,10.36,0,0,0-2.76,1.24,6.86,6.86,0,0,0-2.76,3.4,10.86,10.86,0,0,0-1,2.94,2.49,2.49,0,0,0-.09.51,1.73,1.73,0,0,0,.25,1.22,1,1,0,0,0,.94.25,25,25,0,0,1,3.31-.14q.46,0,1.59-.09a11.78,11.78,0,0,1,1.73,0,5.51,5.51,0,0,1,4.19,2.25A8.22,8.22,0,0,1,292.83,134.55Z"/><path d="M308.56,120.52l-.64.09a.93.93,0,0,1-.6-.18.6.6,0,0,1-.41-.51c0-.09.14-.28.41-.55a5.59,5.59,0,0,1,1-.46A8.83,8.83,0,0,0,310,118a2.83,2.83,0,0,1,1.75-.55,51.48,51.48,0,0,1,6.67.14,4.36,4.36,0,0,1,2.25,1c.18.15.49.38.92.67s.74.51.92.67a6,6,0,0,1,1.43,2.35,11,11,0,0,1,.51,5.89,15.92,15.92,0,0,1-1.52,4.74q-.51.92-2.35,5.52a36,36,0,0,1-2.62,5.34l-2.9,4.74q-.78,1.29-1.89,2.9a.59.59,0,0,1-.6.37,2.79,2.79,0,0,0-.44-.09l-.46-.07a.83.83,0,0,1-.37-.18.93.93,0,0,1-.3-.39l-.41-.18-.67,0a5.08,5.08,0,0,1-.67-.07q-1.2-.09-1.06-1.43,0-.69.16-2t.16-2q0-.6.09-1.63t.09-1.91q0-.87.09-1.66.09-1.1.23-3.31t.23-3.31q.18-3.5.23-5.52,0-2.35,0-7a3.51,3.51,0,0,0,0-.64Q309.12,120.43,308.56,120.52Zm5.7,25,.23-.28q.55-1,.83-1.47a46.72,46.72,0,0,0,3.73-7.54q.18-.55,2.21-5a12.4,12.4,0,0,0,1.29-6.49q-.14-3.63-3.91-5.24a9.64,9.64,0,0,0-2.62-.32q-.55,0-.71.14a1.38,1.38,0,0,0-.16.83q-.09,2.07-.18,6.3,0,.83,0,2.44t-.09,2.44q0,1.06-.23,3.22t-.23,3.27q-.28,4.88-.41,7.27a2.56,2.56,0,0,0,0,.78Q314.08,145.73,314.27,145.5Z"/><path d="M327.24,150.14a7.77,7.77,0,0,1,.28-1.33q.37-1.15.87-3.33t.74-3.06q.28-1.1.69-3.15t.51-2.55q1.2-5.43,1.52-6.62l.39-1.36.46-1.59.39-1.33,1.24-5.11a3.12,3.12,0,0,0,0-.87,1.17,1.17,0,0,1,.64-1.47q.28-.14.85-.37a6.35,6.35,0,0,0,.8-.37,6.84,6.84,0,0,1,2.12-.28,1,1,0,0,1,1.2.78,4,4,0,0,1,.23.87q.69,6.35.92,8.83.23,2.12.6,5.75a4.76,4.76,0,0,1,.07.48c0,.17,0,.35,0,.55s0,.36,0,.48q.37,3.41.55,5.06.18,2.16.55,6.39a10.67,10.67,0,0,1,0,1.17v1.22a.89.89,0,0,1-.41.69,10,10,0,0,1-3.08,1.29.44.44,0,0,0-.32.14.83.83,0,0,1-.92,0,1,1,0,0,1-.55-1,64.05,64.05,0,0,0-.64-8.6q-.09-.55-.21-1.61t-.16-1.61a1.65,1.65,0,0,0-.23-.71q-.14-.16-.64-.11t-3.59.23a.88.88,0,0,0-.87.83q-.18,1-1.2,5.43-.18.65-.53,1.93t-.48,1.93a20.32,20.32,0,0,1-.78,2.76q-.46.41-.6.28c0-.06-.06-.09-.09-.09a.13.13,0,0,0,0,.09v0l-.28.14A3.09,3.09,0,0,1,327.24,150.14ZM332,136.21l1.29-.14q.41,0,1.22-.07l1.22,0q.46,0,.55-.11c.06-.08.06-.27,0-.58s-.14-1.07-.23-1.91-.15-1.48-.18-1.91q-.09-1-.3-3.06t-.34-3.06a1.62,1.62,0,0,0-.07-.39,1.6,1.6,0,0,1-.07-.34A55.59,55.59,0,0,0,332,136.21Z"/><path d="M352.38,130.92q.3-1.06.44-1.61.41-1.79,1.13-5.13t1-4.71q.37-1.75.55-2.67a1.31,1.31,0,0,1,1-1.2,3.54,3.54,0,0,1,3,.74,2.63,2.63,0,0,1,.46.32l.37.32A1.81,1.81,0,0,1,361,119q-1.61,6.17-2.21,9-.23,1.15-.55,2.42t-.74,2.81l-.64,2.37q-.51,2.07-2,8.19-.18.83-.53,2.51t-.53,2.51l-.69,2.81c-.12.31-.25.46-.37.46a3.92,3.92,0,0,1-1.33.18,22.79,22.79,0,0,1-2.94-.51q-.37-.09-.62-.8a2.19,2.19,0,0,1-.12-1.27l1.52-6.35q.51-2.07,1.52-6.3a4.44,4.44,0,0,0,0-1.79L349.55,131q-.28-1.06-.83-3.08t-.83-3.08a.67.67,0,0,0,0-.14.62.62,0,0,1,0-.14q-.28-.73-.85-2.21t-.85-2.21q-.23-.6-.37-1.06a1.21,1.21,0,0,1,.46-1.43q.55-.41,1.06.32a3.14,3.14,0,0,1,.55,1q.41,1.24,1.33,3.73a21.68,21.68,0,0,1,.76,2.42q.44,1.63.48,1.77.46,1.66,1.38,4.88a2,2,0,0,0,.23.41Q352.08,132,352.38,130.92Z"/><path d="M381.61,149l2.62-.39,2.62-.39H387q.92-.09,1.15.14t.14,1.15a.62.62,0,0,1-.46.74l-.28,0-.28,0a45.22,45.22,0,0,0-5.66.74,7,7,0,0,1-1.22.12,8.06,8.06,0,0,0-1,.07q-1.2,0-1.84,0a1.58,1.58,0,0,1-1.79-1.38,3.13,3.13,0,0,1-.09-1.52q.6-3.73.92-8.51,0-.87.12-2.58t.12-2.53.41-6.12q0-1.43.23-4.28.14-1.75.32-5.24a1.19,1.19,0,0,1,.41-.83,3.91,3.91,0,0,1,2-.78l2-.16,2.32-.16a6.77,6.77,0,0,1,.9,0q.58,0,1,0a4,4,0,0,0,.87-.18h.41a1.92,1.92,0,0,1,.81.21,1.54,1.54,0,0,1,.11.81,1.84,1.84,0,0,1-.14.94c-.09.11-.4.18-.92.21q-2.39.09-3.59.18a.91.91,0,0,0-.58.18,1.45,1.45,0,0,0-.16.69l-.55,6.62s0,.89-.14,2.58l-.14,2.9q0,.64.14.76t.74,0l2.67-.28a1,1,0,0,1,.64.07,1.46,1.46,0,0,1,.28.67,1.51,1.51,0,0,1,.09.37c0,.43-.14.66-.51.69s-1,.12-1.75.18-1.58.12-2,.18-.51.32-.51.78-.06,1-.09,1.7,0,1.3,0,1.7q-.46,5.84-.64,6.81-.09.55-.21,1.7t-.16,1.38A1.25,1.25,0,0,0,381.61,149Z"/><path d="M389.48,150.14a7.77,7.77,0,0,1,.28-1.33q.37-1.15.87-3.33t.74-3.06q.28-1.1.69-3.15t.51-2.55q1.2-5.43,1.52-6.62l.39-1.36.46-1.59.39-1.33,1.24-5.11a3.12,3.12,0,0,0,0-.87,1.17,1.17,0,0,1,.64-1.47q.28-.14.85-.37a6.35,6.35,0,0,0,.8-.37,6.84,6.84,0,0,1,2.12-.28,1,1,0,0,1,1.2.78,4,4,0,0,1,.23.87q.69,6.35.92,8.83.23,2.12.6,5.75a4.76,4.76,0,0,1,.07.48c0,.17,0,.35,0,.55s0,.36,0,.48q.37,3.41.55,5.06.18,2.16.55,6.39a10.67,10.67,0,0,1,0,1.17v1.22a.89.89,0,0,1-.41.69,10,10,0,0,1-3.08,1.29.44.44,0,0,0-.32.14.83.83,0,0,1-.92,0,1,1,0,0,1-.55-1,64.05,64.05,0,0,0-.64-8.6q-.09-.55-.21-1.61t-.16-1.61a1.65,1.65,0,0,0-.23-.71q-.14-.16-.64-.11t-3.59.23a.88.88,0,0,0-.87.83q-.18,1-1.2,5.43-.18.65-.53,1.93t-.48,1.93a20.32,20.32,0,0,1-.78,2.76q-.46.41-.6.28c0-.06-.06-.09-.09-.09a.13.13,0,0,0,0,.09v0l-.28.14A3.09,3.09,0,0,1,389.48,150.14Zm4.78-13.94,1.29-.14q.41,0,1.22-.07l1.22,0q.46,0,.55-.11c.06-.08.06-.27,0-.58s-.14-1.07-.23-1.91-.15-1.48-.18-1.91q-.09-1-.3-3.06t-.34-3.06a1.62,1.62,0,0,0-.07-.39,1.6,1.6,0,0,1-.07-.34A55.59,55.59,0,0,0,394.26,136.21Z"/><path d="M407.37,139a65.22,65.22,0,0,1,1.47-11.45,17.27,17.27,0,0,1,1.7-5.06,24.93,24.93,0,0,1,1.93-3.31,5.23,5.23,0,0,1,3.31-2.12,2.08,2.08,0,0,1,1.43.09.19.19,0,0,1,.12.07l.14.16.12.14-.12.14-.14.16a.19.19,0,0,1-.12.07l-.6.12-.6.12a4.45,4.45,0,0,0-2.48,2,10.12,10.12,0,0,0-.69,1.22q-.32.67-.69,1.59t-.55,1.33a9.23,9.23,0,0,0-.87,2.85q-.41,2.71-1,7.36,0,.09-.28,2.44a18.21,18.21,0,0,0,.23,4,6.94,6.94,0,0,0,1.84,3.45,2.71,2.71,0,0,0,2.3.74,6.23,6.23,0,0,0,2-.69,7.3,7.3,0,0,0,1.61-1.33,42.92,42.92,0,0,0,4.46-7l.28-.55q.32-.74,1-.46a.84.84,0,0,1,.23.09,1.54,1.54,0,0,1,.78.55,2.3,2.3,0,0,1,0,1.1,12.26,12.26,0,0,1-1.52,4.69q-2,3.4-2.71,4.55a12.46,12.46,0,0,1-5,4.51,3.94,3.94,0,0,1-4.6-.64,6.7,6.7,0,0,1-2-2.81.81.81,0,0,0-.23-.37,2.26,2.26,0,0,1-.46-1.29c-.06-.55-.12-1-.18-1.24v0Q407.37,142.19,407.37,139Z"/><path d="M437.55,140.64q.09-3.2.14-4.76a1.29,1.29,0,0,0-.12-.67c-.08-.11-.25-.16-.53-.16a22.34,22.34,0,0,1-3-.18q-.78-.14-.83.64-.41,5.71-.51,7,0,.74-.18,2.21T432.3,147a6.75,6.75,0,0,0,0,1.29l0,1.29a1.49,1.49,0,0,1-.12.55,1.32,1.32,0,0,1-.53.23,30.29,30.29,0,0,1-3.59.55,1.43,1.43,0,0,1-1.13-.41,1.33,1.33,0,0,1-.44-1.1q.28-5.8.28-5.89.46-6.71.64-9.75l.41-5.38q.09-.83.23-2.39t.18-2.39q0-.51.18-1.5t.18-1.45q.09-1.47.09-2.25a1.11,1.11,0,0,1,.87-1.1,6.53,6.53,0,0,1,3.54.18l.32.09a2.09,2.09,0,0,1,1,.6,2.4,2.4,0,0,1,.12,1.15q0,.78-.21,2.23t-.21,1.68q-.09,1.15-.3,3.38t-.3,3.24q0,.55-.18,2.58a1,1,0,0,0,.07.62.94.94,0,0,0,.58.25,21.16,21.16,0,0,0,3.08.14q.64,0,.69-.55a21.73,21.73,0,0,0,.14-2.39q0-1.24.16-3.7t.16-3.7q0-.78,0-2.28t0-2.28a1.82,1.82,0,0,1,0-.51.6.6,0,0,1,.44-.58.72.72,0,0,1,.71.16,2.69,2.69,0,0,1,1.06,2.16q-.09,1.24-.12,3.47t-.07,3.11l-.28,5.52c0,.18,0,.46,0,.83s0,.64,0,.83q0,1-.09,3.06t-.09,3.06.14,8.1q0,.28,0,1a6.88,6.88,0,0,0,0,1.13.86.86,0,0,1-.55.74,1.39,1.39,0,0,1-1.47-.09,1.58,1.58,0,0,1-.55-1.43,12,12,0,0,0,.14-1.79q0-.6-.09-1.79a0,0,0,0,0,0,0Q437.45,143.84,437.55,140.64Z"/><path d="M461.86,130.92q.3-1.06.44-1.61.41-1.79,1.13-5.13t1-4.71q.37-1.75.55-2.67a1.31,1.31,0,0,1,1-1.2,3.54,3.54,0,0,1,3,.74,2.63,2.63,0,0,1,.46.32l.37.32a1.81,1.81,0,0,1,.64,2.07q-1.61,6.17-2.21,9-.23,1.15-.55,2.42t-.74,2.81l-.64,2.37q-.51,2.07-2,8.19-.18.83-.53,2.51t-.53,2.51l-.69,2.81c-.12.31-.25.46-.37.46a3.92,3.92,0,0,1-1.33.18,22.79,22.79,0,0,1-2.94-.51q-.37-.09-.62-.8a2.19,2.19,0,0,1-.12-1.27l1.52-6.35q.51-2.07,1.52-6.3a4.44,4.44,0,0,0,0-1.79L459,131q-.28-1.06-.83-3.08t-.83-3.08a.67.67,0,0,0,0-.14.62.62,0,0,1,0-.14q-.28-.73-.85-2.21t-.85-2.21q-.23-.6-.37-1.06a1.21,1.21,0,0,1,.46-1.43q.55-.41,1.06.32a3.14,3.14,0,0,1,.55,1q.41,1.24,1.33,3.73a21.68,21.68,0,0,1,.76,2.42q.44,1.63.48,1.77.46,1.66,1.38,4.88a2,2,0,0,0,.23.41Q461.56,132,461.86,130.92Z"/><path d="M479.13,149l2.62-.39,2.62-.39h.18q.92-.09,1.15.14t.14,1.15a.62.62,0,0,1-.46.74l-.28,0-.28,0a45.22,45.22,0,0,0-5.66.74,7,7,0,0,1-1.22.12,8.06,8.06,0,0,0-1,.07q-1.2,0-1.84,0a1.58,1.58,0,0,1-1.79-1.38,3.13,3.13,0,0,1-.09-1.52q.6-3.73.92-8.51,0-.87.12-2.58t.12-2.53.41-6.12q0-1.43.23-4.28.14-1.75.32-5.24a1.19,1.19,0,0,1,.41-.83,3.91,3.91,0,0,1,2-.78l2-.16,2.32-.16a6.77,6.77,0,0,1,.9,0q.58,0,1,0a4,4,0,0,0,.87-.18h.41a1.92,1.92,0,0,1,.81.21,1.54,1.54,0,0,1,.11.81,1.84,1.84,0,0,1-.14.94c-.09.11-.4.18-.92.21q-2.39.09-3.59.18a.91.91,0,0,0-.58.18,1.45,1.45,0,0,0-.16.69l-.55,6.62s0,.89-.14,2.58l-.14,2.9q0,.64.14.76t.74,0l2.67-.28a1,1,0,0,1,.64.07,1.47,1.47,0,0,1,.28.67,1.51,1.51,0,0,1,.09.37c0,.43-.14.66-.51.69s-1,.12-1.75.18-1.58.12-2,.18-.51.32-.51.78-.06,1-.09,1.7,0,1.3,0,1.7q-.46,5.84-.64,6.81-.09.55-.21,1.7t-.16,1.38A1.25,1.25,0,0,0,479.13,149Z"/><path d="M487,150.14a7.86,7.86,0,0,1,.28-1.33q.37-1.15.87-3.33t.74-3.06q.28-1.1.69-3.15t.51-2.55q1.2-5.43,1.52-6.62l.39-1.36.46-1.59.39-1.33,1.24-5.11a3.08,3.08,0,0,0,0-.87,1.17,1.17,0,0,1,.64-1.47q.28-.14.85-.37a6.38,6.38,0,0,0,.81-.37,6.84,6.84,0,0,1,2.12-.28,1,1,0,0,1,1.2.78,4,4,0,0,1,.23.87q.69,6.35.92,8.83.23,2.12.6,5.75c0,.15.05.31.07.48s0,.35,0,.55,0,.36,0,.48q.37,3.41.55,5.06.18,2.16.55,6.39a10.67,10.67,0,0,1,0,1.17v1.22a.89.89,0,0,1-.41.69,10,10,0,0,1-3.08,1.29.44.44,0,0,0-.32.14.83.83,0,0,1-.92,0,1,1,0,0,1-.55-1,63.92,63.92,0,0,0-.64-8.6q-.09-.55-.21-1.61t-.16-1.61a1.67,1.67,0,0,0-.23-.71q-.14-.16-.64-.11t-3.59.23a.88.88,0,0,0-.87.83q-.18,1-1.2,5.43-.18.65-.53,1.93t-.48,1.93a20.67,20.67,0,0,1-.78,2.76q-.46.41-.6.28c0-.06-.06-.09-.09-.09a.13.13,0,0,0,0,.09v0L487,151A3.11,3.11,0,0,1,487,150.14Zm4.78-13.94,1.29-.14q.41,0,1.22-.07l1.22,0c.31,0,.49,0,.55-.11s.06-.27,0-.58-.14-1.07-.23-1.91-.15-1.48-.18-1.91q-.09-1-.3-3.06t-.34-3.06a1.62,1.62,0,0,0-.07-.39,1.62,1.62,0,0,1-.07-.34A55.59,55.59,0,0,0,491.78,136.21Z"/><path d="M512.8,135.35a4.33,4.33,0,0,0-.64.48,1.25,1.25,0,0,0-.32.6,12.29,12.29,0,0,0-.09,1.24q-.18,3.27-.46,9.8l-.14,2.76a1,1,0,0,1-.6.87,10.21,10.21,0,0,1-1.08.41q-.58.18-1.31.34l-1.1.25a.89.89,0,0,1-.57,0,1.39,1.39,0,0,1-.39-.55,2.06,2.06,0,0,0-.32-.51,1.85,1.85,0,0,1-.28-1.33l.41-5.24q.37-5.06.51-7.59.14-1.56.32-4.69.37-3.82.51-6,0-.92,0-2.76c0-.18,0-.56,0-1.13s0-1,.07-1.31A1.23,1.23,0,0,0,507,120a.66.66,0,0,1-.37-.78.78.78,0,0,1,.64-.64q.46-.09,1.26-.3l1.47-.37,1.26-.3a24.91,24.91,0,0,1,4.69-.46,6.82,6.82,0,0,1,3,.78,3.91,3.91,0,0,1,1.56,1.79,7.62,7.62,0,0,1,.51,5.7,10.42,10.42,0,0,1-2.44,4.46q-.37.41-1,1.22t-.74.94q-.18.23-.64.69a1.3,1.3,0,0,0-.46,1.33l.48,2.23q.39,1.82.62,2.83t2.07,8.65q.09.28.35,1.1t.34,1.29a1.71,1.71,0,0,1-.16,1.31,1.29,1.29,0,0,1-.94.71.28.28,0,0,1-.37-.09,2.48,2.48,0,0,1-.92-1.38q-.28-1.66-.67-3.45t-.92-4q-.53-2.23-.76-3.38-.18-.83-.6-2.32t-.55-2l-.28-.6A4.21,4.21,0,0,1,512.8,135.35Zm-.6-2.37.6-.41a5.35,5.35,0,0,0,.69-.55,33,33,0,0,0,4.37-5,9.38,9.38,0,0,0,1.52-5.06q.14-2.53-2.21-2.85-.69,0-4,0a2.22,2.22,0,0,0-.55.23,4.06,4.06,0,0,1,.34,1,8.61,8.61,0,0,1-.07,1.2.63.63,0,0,0,0,.28v.28q-.37,4.6-.51,6.85-.14,1.29-.32,3.86A.75.75,0,0,1,512.2,133Z"/><path d="M524.76,148.12a.66.66,0,0,1,.78-.18,3.12,3.12,0,0,1,.74.18,1.35,1.35,0,0,1,1.15,1.33,2.74,2.74,0,0,1,0,1.29q-.46.87-1.2.64a8.31,8.31,0,0,1-1.66-.83,1,1,0,0,1-.41-1.06A1.89,1.89,0,0,1,524.76,148.12Z"/></svg>