<svg id="Layer_1" data-name="Layer 1" xmlns="http://www.w3.org/2000/svg" viewBox="0 0 561.93 157.6"><title>9</title><path d="M1,39.74a7.81,7.81,0,0,1,.28-1.33q.37-1.15.87-3.33T2.85,32q.28-1.1.69-3.15T4,26.31q1.2-5.43,1.52-6.62L6,18.33l.46-1.59.39-1.33L8,10.3a3.1,3.1,0,0,0,0-.87A1.17,1.17,0,0,1,8.65,8q.28-.14.85-.37a6.31,6.31,0,0,0,.81-.37,6.82,6.82,0,0,1,2.12-.28,1,1,0,0,1,1.2.78,4,4,0,0,1,.23.87q.69,6.35.92,8.83.23,2.12.6,5.75,0,.23.07.48t0,.55q0,.3,0,.48.37,3.4.55,5.06.18,2.16.55,6.39a10.67,10.67,0,0,1,0,1.17v1.22a.89.89,0,0,1-.41.69,10,10,0,0,1-3.08,1.29.44.44,0,0,0-.32.14.84.84,0,0,1-.92,0,1,1,0,0,1-.55-1,64,64,0,0,0-.64-8.6q-.09-.55-.21-1.61t-.16-1.61a1.65,1.65,0,0,0-.23-.71Q10,27,9.48,27t-3.59.23a.88.88,0,0,0-.87.83q-.18,1-1.2,5.43-.18.64-.53,1.93T2.81,37.4A20.52,20.52,0,0,1,2,40.16q-.46.41-.6.28c0-.06-.06-.09-.09-.09a.13.13,0,0,0,0,.09v0L1,40.62A3.1,3.1,0,0,1,1,39.74ZM5.75,25.81,7,25.67q.41,0,1.22-.07l1.22,0q.46,0,.55-.12t0-.57Q9.94,24.24,9.8,23t-.18-1.91q-.09-1-.3-3.06T9,15a1.62,1.62,0,0,0-.07-.39,1.61,1.61,0,0,1-.07-.35A55.61,55.61,0,0,0,5.75,25.81Z"/><path d="M29.21,20.65a3.34,3.34,0,0,1,1.66.18l.25.09a1,1,0,0,0,.25,0A3.16,3.16,0,0,1,34,22.72a9,9,0,0,1,1.24,3.22s0,.11,0,.23a2.5,2.5,0,0,1,0,.28,17.19,17.19,0,0,1-1.24,5.38,16.11,16.11,0,0,1-1.75,2.76,16.43,16.43,0,0,1-6.58,5.06q-.41.23-1.22.58l-1.08.48a2.28,2.28,0,0,1-2.58-.23l-.14-.14q-1-.28-.87-1.52.14-6.95.09-8.37,0-1.61-.23-9.75v-.37q-.09-3.22-.18-9.57a9.78,9.78,0,0,0,0-1.1,1.63,1.63,0,0,1,.28-1.1,2,2,0,0,1,1.43-.92l2.25-.14a19.32,19.32,0,0,1,2.3-.14,22.3,22.3,0,0,1,2.39.18c.15,0,.38,0,.67,0s.51,0,.67,0a3.55,3.55,0,0,1,2,.8,3.1,3.1,0,0,1,1.22,1.73,7,7,0,0,1-1.15,6.07,33.93,33.93,0,0,1-3.08,3.82,1.84,1.84,0,0,0-.32.51Q29,20.66,29.21,20.65Zm-3.91-.18c.09-.09.29-.26.6-.51a27.78,27.78,0,0,0,4.19-5.06,6.06,6.06,0,0,0,1.06-3.82,1.61,1.61,0,0,0-1.38-1.61,15.7,15.7,0,0,0-3.86-.41.62.62,0,0,0-.69.64q-.14,2.21-.14,2.3v7.64c0,.09,0,.22,0,.39s0,.3,0,.39A.27.27,0,0,1,25.3,20.47Zm.55,17,.51-.28a15.84,15.84,0,0,0,5.11-4.88,10.21,10.21,0,0,0,1.38-3q.14-.55.46-2.07a5.55,5.55,0,0,0-.74-3.77,2.49,2.49,0,0,0-1.1-1,10.53,10.53,0,0,0-5.29-.14,1.15,1.15,0,0,0-.76.37,1.57,1.57,0,0,0-.21.92q.14,3.59.14,3.63,0,.92,0,2.69t0,2.65q0,1.52,0,4.46s0,.26.09.69A4.61,4.61,0,0,0,25.85,37.49Z"/><path d="M38.64,30.13q-.46-4-.51-4.65a25.36,25.36,0,0,1,1.38-10.63,16.2,16.2,0,0,1,2.25-4.37q.23-.23.67-.71L43.1,9a2.66,2.66,0,0,0,.74-1,.57.57,0,0,1,.37-.41L45,7.43a7.77,7.77,0,0,0,.83-.21,2.43,2.43,0,0,1,1.08-.07L48,7.27q.3,0,1.06.23t1.08.23a4.43,4.43,0,0,1,3.17,2.48,41.9,41.9,0,0,1,3,8.1,26.32,26.32,0,0,1,.41,9.57q-.46,3.31-.6,4a13.36,13.36,0,0,1-.69,2.44q-.74,2.12-1.15,3.13A5.72,5.72,0,0,1,52,40l-1.2.64q-.78.41-1.15.64t-.6.18l-1.31,0q-1.17,0-1.31-.14a5.81,5.81,0,0,0-1.93-.32,3.63,3.63,0,0,1-3.27-2.3q-.32-.69-1.52-3.5A36.8,36.8,0,0,1,38.64,30.13ZM50.12,14.4q-.39-.87-.92-1.93t-.8-1.66a1,1,0,0,0-.64-.64A7.07,7.07,0,0,0,46,9.61a1.38,1.38,0,0,0-1,.23,6.74,6.74,0,0,0-2.48,2.85,21.28,21.28,0,0,0-2.12,6.85,31.62,31.62,0,0,0-.28,5.57q.32,3.54,1.06,7.41a27,27,0,0,0,1.7,5.11q.55,1.15,1.43,1.1h1.43a1.74,1.74,0,0,0,.69-.09A6.28,6.28,0,0,0,50,35.14a38.63,38.63,0,0,0,1.29-4.23q0-.14.55-3.4a23.37,23.37,0,0,0,0-6.07,20.22,20.22,0,0,0-1.2-5.34A9,9,0,0,0,50.12,14.4Z"/><path d="M59.94,17.94q.14-3.45.51-9.84,0-1,.69-1a1.05,1.05,0,0,1,.71.41,1.17,1.17,0,0,1,.25.87L62,10q-.09,1.08-.14,1.63a5.6,5.6,0,0,0-.09.87q-.09,10.35-.09,12.42t.28,6.62q0,.32.37,1.7a9.87,9.87,0,0,0,.32,1.2,7.66,7.66,0,0,0,.32,1.06q.46,1,1.29.78A5.2,5.2,0,0,0,68,32l.12-.46q.07-.28.11-.53a2.73,2.73,0,0,0,0-.48q.55-3.77.78-5.7.55-5.75.64-7.13.23-3.17.32-7.22a10.65,10.65,0,0,0-.09-1.7,2.16,2.16,0,0,1,1.2-2.35,1.66,1.66,0,0,1,1.43-.09,4.56,4.56,0,0,0,.92.18,2.76,2.76,0,0,1,2.48,3.08q-.14,2.94-.51,9.34-.46,5.89-.74,9.2a40.57,40.57,0,0,1-.64,4.42q0,.32-1.1,3.54l-.39.87a6.67,6.67,0,0,0-.35.87,8.55,8.55,0,0,1-2.48,3.08,5.64,5.64,0,0,1-4.65,1.38,3.29,3.29,0,0,1-1.93-1q-1.93-1.89-2.76-6.12,0-.41-.18-2.53Q60.12,31,60,27.78t-.18-4.88h.09Q59.89,18.77,59.94,17.94Z"/><path d="M84.09,13.11q0-1.06,0-1.61v-.64a1.47,1.47,0,0,0-.21-.78.81.81,0,0,0-.62-.18h-3a6.94,6.94,0,0,1-.92,0,.73.73,0,0,1-.53-.44,1.26,1.26,0,0,1-.16-.76.73.73,0,0,1,.78-.74q.51,0,1.45,0L82.66,8l1.47,0a13.52,13.52,0,0,0,3.08-.23,23.35,23.35,0,0,1,5.38-.46q.83,0,2.35-.09t2-.09a1.19,1.19,0,0,1,1.2,1.06q.14.55-.28.69l-.23,0-.23,0-6.26.14H90.8q-.69,0-.85.28a2.1,2.1,0,0,0-.07,1.15,6,6,0,0,1,0,.87q-.09,1.84-.18,2.76t-.23,2.67q0,.51-.14,1.43T89.12,20q-.07.74-.11,1.43-.37,5.29-.51,7.68-.23,3.13-.46,5.61T87.81,38q0,.23,0,.74c0,.34,0,.6,0,.78a1,1,0,0,1-.55.87,6.54,6.54,0,0,1-1.54.37q-1,.14-1.36.23a2.34,2.34,0,0,1-1.1-.14q-.87-.28-.78-1.52.09-1.06.41-4.16T83.26,30q.23-2.85.51-8.74l.14-2.78L84,15.69v-1h0Q84,14.17,84.09,13.11Z"/><path d="M125.58,22.08a4.2,4.2,0,0,1,1.89,2.07,8.17,8.17,0,0,1,.14,6.35,20.29,20.29,0,0,1-5.15,8,11.32,11.32,0,0,1-1.56,1.15,2.88,2.88,0,0,1-2.12.37q-.46-.09-2.44-.32h-.28q-1.24.37-2.21-1.52a10.06,10.06,0,0,1-.64-1.56,3.58,3.58,0,0,1-.28-1.06q0-.74.14-.92a1,1,0,0,1,.78-.14,3.54,3.54,0,0,1,2.48,1.29q.28.37.44.39c.11,0,.27-.07.48-.25a7.9,7.9,0,0,0,1.1-1q.92-1.15,2.76-3.54a12.3,12.3,0,0,0,1.47-3.17,6.36,6.36,0,0,0,.37-2.9q-.14-1.93-1.79-1.52a4.07,4.07,0,0,1-3-.09,4.27,4.27,0,0,0-1.2-.32q-.92-.23-1.15-1.61a1.62,1.62,0,0,1,.69-1.66,19,19,0,0,0,4.6-5.2,12.05,12.05,0,0,0,1.52-4.42A5.65,5.65,0,0,0,122,7.87a.7.7,0,0,0-.46-.37A3.9,3.9,0,0,0,120,7.27a6.16,6.16,0,0,0-2.48,1.06,4.8,4.8,0,0,0-1.22,1.52,8.24,8.24,0,0,0-.67,1.59q-.18.67-.41,2,0,.28-.12.83c0,.37-.08.64-.11.83a1.29,1.29,0,0,1-.3.67.59.59,0,0,1-.53.16q-.64-.14-.69-1a15.23,15.23,0,0,1,1-6.21,2.12,2.12,0,0,1,.3-.62,5.59,5.59,0,0,1,.37-.48l.44-.51c.18-.21.32-.37.41-.46a6.08,6.08,0,0,1,4.14-1.84,2,2,0,0,1,.67,0l.8.18.69.16,1.13.28,1.17.28a4.86,4.86,0,0,1,2.81,2.07,4.79,4.79,0,0,1,.55,1.89,7.78,7.78,0,0,1-.09,3.36,16.23,16.23,0,0,1-2.48,5.75q-.14.23-1.1,1.43-.18.28-.6.78A11.1,11.1,0,0,0,125.58,22.08Z"/><path d="M158,17.8A17.93,17.93,0,0,1,155.29,22a14.5,14.5,0,0,1-1.08,1.15q-.62.6-1,.9t-1.24,1l-1.08.83q-.51.46-1.29,1.06a1.2,1.2,0,0,0-.41,1q-.23,3-.23,3.59,0,.87,0,2.62t0,2.62q0,1.15-.09,3.27a.58.58,0,0,1-.32.6,3.34,3.34,0,0,1-.83.32l-1.17.25-1.13.25-.18,0-.18,0h-.58l-.18,0a.29.29,0,0,1-.21-.09.79.79,0,0,0-.16-.16.64.64,0,0,1-.18-.25l-.16-.39a3.66,3.66,0,0,1-.32-2.07q0-.73.07-2.09t0-1.77q0-2.21,0-3.36l.41-6.07q.23-3.31.28-6.53V16.79q0-.92.07-2.76t.11-2.76V9.89a.67.67,0,0,0-.51-.74L143.29,9a.68.68,0,0,1-.35-.6.59.59,0,0,1,.3-.6,3.13,3.13,0,0,1,.55-.23,17.78,17.78,0,0,1,4.6-.87q2.25-.09,2.9,0a6.36,6.36,0,0,1,2.9.74,3.18,3.18,0,0,0,.46.23,4.3,4.3,0,0,1,2.94,2.21q.14.28.6,1.47a11.73,11.73,0,0,1,.64,2.94A8.59,8.59,0,0,1,158,17.8Zm-7.64,5.8a21,21,0,0,0,3.22-3.08,15,15,0,0,0,3.13-5.8,4.55,4.55,0,0,0,0-2.71,11.36,11.36,0,0,0-.37-1.1,2.12,2.12,0,0,0-1.06-1.29q-2-.87-2.3-1t-2.16-.32a.55.55,0,0,0-.51.11,1,1,0,0,0-.14.62v.69q-.09,1.2-.25,3.56t-.21,3.52q-.14,2.3-.23,6.81v.12a.24.24,0,0,0,0,.11.84.84,0,0,1,.07.32A8.64,8.64,0,0,0,150.33,23.6Z"/><path d="M167.39,38.64l2.62-.39,2.62-.39h.18q.92-.09,1.15.14t.14,1.15a.62.62,0,0,1-.46.74l-.28,0-.28,0a45.29,45.29,0,0,0-5.66.74,7.07,7.07,0,0,1-1.22.12,8,8,0,0,0-1,.07q-1.2,0-1.84,0a1.58,1.58,0,0,1-1.79-1.38,3.11,3.11,0,0,1-.09-1.52q.6-3.73.92-8.51,0-.87.11-2.58t.12-2.53.41-6.12q0-1.43.23-4.28.14-1.75.32-5.24a1.19,1.19,0,0,1,.41-.83,3.92,3.92,0,0,1,2-.78l2-.16,2.32-.16a6.79,6.79,0,0,1,.9,0,10.3,10.3,0,0,0,1,0,4,4,0,0,0,.87-.18h.41a1.9,1.9,0,0,1,.81.21,1.53,1.53,0,0,1,.11.8,1.84,1.84,0,0,1-.14.94q-.14.16-.92.21-2.39.09-3.59.18a.92.92,0,0,0-.58.18,1.46,1.46,0,0,0-.16.69l-.55,6.62s0,.89-.14,2.58l-.14,2.9q0,.64.14.76t.74,0l2.67-.28a1,1,0,0,1,.64.07,1.46,1.46,0,0,1,.28.67,1.52,1.52,0,0,1,.09.37c0,.43-.14.66-.51.69s-1,.12-1.75.18-1.58.12-2,.18-.51.32-.51.78-.06,1-.09,1.7,0,1.3,0,1.7q-.46,5.84-.64,6.81-.09.55-.21,1.7t-.16,1.38A1.26,1.26,0,0,0,167.39,38.64Z"/><path d="M184.83,25a4.33,4.33,0,0,0-.64.48,1.25,1.25,0,0,0-.32.6,12.11,12.11,0,0,0-.09,1.24q-.18,3.27-.46,9.8l-.14,2.76a1,1,0,0,1-.6.87,10,10,0,0,1-1.08.41q-.58.18-1.31.35l-1.1.25a.88.88,0,0,1-.57,0,1.39,1.39,0,0,1-.39-.55,2.06,2.06,0,0,0-.32-.51,1.85,1.85,0,0,1-.28-1.33l.41-5.24q.37-5.06.51-7.59.14-1.56.32-4.69.37-3.82.51-6,0-.92,0-2.76c0-.18,0-.56,0-1.13s0-1,.07-1.31A1.23,1.23,0,0,0,179,9.57a.66.66,0,0,1-.37-.78.78.78,0,0,1,.64-.64q.46-.09,1.27-.3L182,7.48l1.26-.3A24.92,24.92,0,0,1,188,6.72a6.84,6.84,0,0,1,3,.78,3.92,3.92,0,0,1,1.56,1.79,7.62,7.62,0,0,1,.51,5.7,10.42,10.42,0,0,1-2.44,4.46q-.37.41-1,1.22t-.74.94q-.18.23-.64.69a1.3,1.3,0,0,0-.46,1.33l.48,2.23q.39,1.82.62,2.83t2.07,8.65q.09.28.35,1.1t.34,1.29a1.7,1.7,0,0,1-.16,1.31,1.29,1.29,0,0,1-.94.71.29.29,0,0,1-.37-.09,2.47,2.47,0,0,1-.92-1.38q-.28-1.66-.67-3.45t-.92-4q-.53-2.23-.76-3.38-.18-.83-.6-2.32t-.55-2l-.28-.6A4.29,4.29,0,0,1,184.83,25Zm-.6-2.37.6-.41a5.31,5.31,0,0,0,.69-.55,33,33,0,0,0,4.37-5,9.39,9.39,0,0,0,1.52-5.06q.14-2.53-2.21-2.85-.69,0-4,0a2.2,2.2,0,0,0-.55.23,4,4,0,0,1,.35,1,8.64,8.64,0,0,1-.07,1.2.63.63,0,0,0,0,.28v.28q-.37,4.6-.51,6.85-.14,1.29-.32,3.86A.75.75,0,0,1,184.23,22.59Z"/><path d="M207.5,28.57A65.18,65.18,0,0,1,209,17.11a17.25,17.25,0,0,1,1.7-5.06,24.86,24.86,0,0,1,1.93-3.31,5.23,5.23,0,0,1,3.31-2.12,2.09,2.09,0,0,1,1.43.09.19.19,0,0,1,.12.07l.14.16.12.14-.12.14-.14.16a.19.19,0,0,1-.12.07l-.6.11-.6.12a4.45,4.45,0,0,0-2.48,2,10.11,10.11,0,0,0-.69,1.22q-.32.67-.69,1.59t-.55,1.33a9.24,9.24,0,0,0-.87,2.85q-.41,2.72-1,7.36,0,.09-.28,2.44a18.22,18.22,0,0,0,.23,4,6.94,6.94,0,0,0,1.84,3.45,2.71,2.71,0,0,0,2.3.74,6.25,6.25,0,0,0,2-.69,7.31,7.31,0,0,0,1.61-1.33,43,43,0,0,0,4.46-7l.28-.55q.32-.73,1-.46a.83.83,0,0,1,.23.09,1.54,1.54,0,0,1,.78.55,2.3,2.3,0,0,1,0,1.1,12.25,12.25,0,0,1-1.52,4.69q-2,3.4-2.71,4.55a12.47,12.47,0,0,1-5,4.51,3.94,3.94,0,0,1-4.6-.64,6.71,6.71,0,0,1-2-2.81.83.83,0,0,0-.23-.37,2.27,2.27,0,0,1-.46-1.29q-.09-.83-.18-1.24v0Q207.5,31.79,207.5,28.57Z"/><path d="M232.94,38.64l2.62-.39,2.62-.39h.18q.92-.09,1.15.14t.14,1.15a.62.62,0,0,1-.46.74l-.28,0-.28,0a45.29,45.29,0,0,0-5.66.74,7.07,7.07,0,0,1-1.22.12,8,8,0,0,0-1,.07q-1.2,0-1.84,0a1.58,1.58,0,0,1-1.79-1.38A3.11,3.11,0,0,1,227,38q.6-3.73.92-8.51,0-.87.11-2.58t.12-2.53.41-6.12q0-1.43.23-4.28.14-1.75.32-5.24a1.19,1.19,0,0,1,.41-.83,3.92,3.92,0,0,1,2-.78l2-.16,2.32-.16a6.79,6.79,0,0,1,.9,0,10.3,10.3,0,0,0,1,0,4,4,0,0,0,.87-.18H239a1.9,1.9,0,0,1,.81.21,1.53,1.53,0,0,1,.11.8,1.84,1.84,0,0,1-.14.94q-.14.16-.92.21-2.39.09-3.59.18a.92.92,0,0,0-.58.18,1.46,1.46,0,0,0-.16.69L234,16.38s0,.89-.14,2.58l-.14,2.9q0,.64.14.76t.74,0l2.67-.28a1,1,0,0,1,.64.07,1.46,1.46,0,0,1,.28.67,1.52,1.52,0,0,1,.09.37c0,.43-.14.66-.51.69s-1,.12-1.75.18-1.58.12-2,.18-.51.32-.51.78-.06,1-.09,1.7,0,1.3,0,1.7q-.46,5.84-.64,6.81-.09.55-.21,1.7t-.16,1.38A1.26,1.26,0,0,0,232.94,38.64Z"/><path d="M256.45,32.06q0-1,.11-3t.12-3q0-1.06.16-3.1t.16-3q.28-4,.37-6.16.09-1.56.18-4.51a4.54,4.54,0,0,1,0-.78q.09-1.15,1.1-1.1l3.54.46a.64.64,0,0,1,.64.74,3,3,0,0,1,0,.87q0,1-.14,2.94l-.14,3.33q-.09,2.23-.18,3.33,0,.78-.09,2.3t-.14,2.3q0,.78,0,2.3v2.3q0,.87-.09,3.54t-.09,4.14q0,.32-.07,2.07A5.77,5.77,0,0,0,262,40a.83.83,0,0,1-.78,1.15l-.67.09-.76.09-.64.09a5.63,5.63,0,0,1-2.67-.74,1.08,1.08,0,0,1-.51-.74q-.46-1.38-1.29-4.14-.18-.6-.74-2.48t-.83-2.9l-.48-1.93-.55-2.23q-.3-1.22-.48-1.91-1.29-5.06-2-7.59a21.19,21.19,0,0,0-.83-2.62q0,.46,0,1.4T248.63,17q0,.92-.11,2.53t-.12,2.92q0,1.31,0,2.51,0,2,.09,5.93.09,5.52.14,8.33a4,4,0,0,1-.09.74.65.65,0,0,1-.6.51l-.37,0-.39.07a1.71,1.71,0,0,1-.35,0,2.74,2.74,0,0,0-.6,0H245a1.42,1.42,0,0,1-.51,0,1.68,1.68,0,0,1-1.15-.48,1.92,1.92,0,0,1-.28-1.31q.09-4.23.09-6.35,0-.87,0-3.63t0-4.28q0-1,.23-6.16.09-2.71,0-5.38,0-1.56-.18-4.78a1.71,1.71,0,0,1,.16-1,1.29,1.29,0,0,1,.81-.44,5.44,5.44,0,0,1,3.27.18,4.7,4.7,0,0,1,1.38.69,2.52,2.52,0,0,1,.69,1.15q.32,1.15.94,3.47t.9,3.52l.28.8q.23.67.32,1,.37,1.52,1.15,4.55t1.2,4.51q.32,1.29,1,3.66t.78,2.78a1.08,1.08,0,0,0,.23.37h.14Q256.45,33,256.45,32.06Z"/><path d="M271,13.11q0-1.06,0-1.61v-.64a1.47,1.47,0,0,0-.21-.78.81.81,0,0,0-.62-.18h-3a6.94,6.94,0,0,1-.92,0,.73.73,0,0,1-.53-.44,1.26,1.26,0,0,1-.16-.76.73.73,0,0,1,.78-.74q.51,0,1.45,0L269.6,8l1.47,0a13.52,13.52,0,0,0,3.08-.23,23.35,23.35,0,0,1,5.38-.46q.83,0,2.35-.09t2-.09a1.2,1.2,0,0,1,1.2,1.06q.14.55-.28.69l-.23,0-.23,0-6.26.14h-.37q-.69,0-.85.28a2.1,2.1,0,0,0-.07,1.15,6,6,0,0,1,0,.87q-.09,1.84-.18,2.76t-.23,2.67q0,.51-.14,1.43T276.06,20q-.07.74-.11,1.43-.37,5.29-.51,7.68-.23,3.13-.46,5.61T274.75,38q0,.23,0,.74c0,.34,0,.6,0,.78a1,1,0,0,1-.55.87,6.54,6.54,0,0,1-1.54.37q-1,.14-1.36.23a2.34,2.34,0,0,1-1.1-.14q-.87-.28-.78-1.52.09-1.06.41-4.16T270.2,30q.23-2.85.51-8.74l.14-2.78.14-2.78v-1h0Q271,14.17,271,13.11Z"/><path d="M300.42,30.13q-.46-4-.51-4.65a25.35,25.35,0,0,1,1.38-10.63,16.22,16.22,0,0,1,2.25-4.37q.23-.23.67-.71l.67-.76a2.66,2.66,0,0,0,.74-1,.56.56,0,0,1,.37-.41l.83-.16a7.78,7.78,0,0,0,.83-.21,2.44,2.44,0,0,1,1.08-.07l1.06.12q.3,0,1.06.23t1.08.23a4.43,4.43,0,0,1,3.17,2.48,41.9,41.9,0,0,1,3,8.1,26.31,26.31,0,0,1,.41,9.57q-.46,3.31-.6,4a13.37,13.37,0,0,1-.69,2.44q-.74,2.12-1.15,3.13A5.71,5.71,0,0,1,313.76,40l-1.2.64q-.78.41-1.15.64t-.6.18l-1.31,0q-1.17,0-1.31-.14a5.81,5.81,0,0,0-1.93-.32,3.63,3.63,0,0,1-3.27-2.3q-.32-.69-1.52-3.5A36.8,36.8,0,0,1,300.42,30.13ZM311.9,14.4q-.39-.87-.92-1.93t-.8-1.66a1,1,0,0,0-.64-.64,7.08,7.08,0,0,0-1.79-.55,1.38,1.38,0,0,0-1,.23,6.73,6.73,0,0,0-2.48,2.85,21.28,21.28,0,0,0-2.12,6.85,31.58,31.58,0,0,0-.28,5.57q.32,3.54,1.06,7.41a26.92,26.92,0,0,0,1.7,5.11q.55,1.15,1.43,1.1h1.43a1.74,1.74,0,0,0,.69-.09,6.28,6.28,0,0,0,3.63-3.5,38.74,38.74,0,0,0,1.29-4.23q0-.14.55-3.4a23.38,23.38,0,0,0,0-6.07,20.2,20.2,0,0,0-1.2-5.34A8.93,8.93,0,0,0,311.9,14.4Z"/><path d="M329.12,22.4a9.39,9.39,0,0,1,1.52-.18q1,0,.74,1.06-.32,1.29-1.47,1.15-.23,0-1.84.23c-.34,0-.51.25-.51.64q0,3.77-.23,11.55,0,.46,0,1.4c0,.63,0,1.1,0,1.4a1.57,1.57,0,0,1-.09.64.6.6,0,0,1-.21.25,2.46,2.46,0,0,1-.62.16,11.71,11.71,0,0,1-1.89.18q-1.24,0-1.61.09a.6.6,0,0,1-.74-.37,4.2,4.2,0,0,1-.46-1.7q0-.87,0-2.67t0-2.71q.37-10.9.37-12.33,0-.83.18-5.93l.41-6.49q.09-.78.51-.92a11.91,11.91,0,0,1,1.2-.37l.9,0c.41,0,.73,0,.94,0a10.86,10.86,0,0,0,1.66-.09,8.08,8.08,0,0,0,1-.09,8.46,8.46,0,0,1,.85-.09q.46-.09,1.47-.18L332,7l.41,0q.09,0,1.43-.28a4.92,4.92,0,0,1,1.1-.09.53.53,0,0,1,.37.09q.23.09.14.69a2.21,2.21,0,0,0,0,.74q.09.37-.37.46l-1,.16-1.13.16q-2.44.18-3.5.32a1.59,1.59,0,0,0-.83.28,1.49,1.49,0,0,0-.23.87q0,1.15-.21,3.54t-.25,3.63q-.14,2.07-.14,4,0,.14,0,.41c0,.18,0,.34,0,.46Q328.8,22.4,329.12,22.4Z"/><path d="M365.65,17.8A17.92,17.92,0,0,1,363,22a14.5,14.5,0,0,1-1.08,1.15q-.62.6-1,.9t-1.24,1l-1.08.83q-.51.46-1.29,1.06a1.2,1.2,0,0,0-.41,1q-.23,3-.23,3.59,0,.87,0,2.62t0,2.62q0,1.15-.09,3.27a.58.58,0,0,1-.32.6,3.35,3.35,0,0,1-.83.32l-1.17.25-1.13.25-.18,0-.18,0h-.58l-.18,0a.29.29,0,0,1-.21-.09.81.81,0,0,0-.16-.16.64.64,0,0,1-.18-.25l-.16-.39a3.66,3.66,0,0,1-.32-2.07q0-.73.07-2.09t0-1.77q0-2.21,0-3.36l.41-6.07q.23-3.31.28-6.53V16.79q0-.92.07-2.76t.11-2.76V9.89a.67.67,0,0,0-.51-.74L351,9a.68.68,0,0,1-.34-.6.59.59,0,0,1,.3-.6,3.13,3.13,0,0,1,.55-.23,17.79,17.79,0,0,1,4.6-.87q2.25-.09,2.9,0a6.36,6.36,0,0,1,2.9.74,3.16,3.16,0,0,0,.46.23,4.3,4.3,0,0,1,2.94,2.21q.14.28.6,1.47a11.7,11.7,0,0,1,.64,2.94A8.59,8.59,0,0,1,365.65,17.8ZM358,23.6a21,21,0,0,0,3.22-3.08,15,15,0,0,0,3.13-5.8,4.55,4.55,0,0,0,0-2.71,11.47,11.47,0,0,0-.37-1.1,2.12,2.12,0,0,0-1.06-1.29q-2-.87-2.3-1t-2.16-.32a.55.55,0,0,0-.51.11,1,1,0,0,0-.14.62v.69q-.09,1.2-.25,3.56t-.21,3.52q-.14,2.3-.23,6.81v.12a.24.24,0,0,0,0,.11.8.8,0,0,1,0,.14.79.79,0,0,1,0,.18A8.49,8.49,0,0,0,358,23.6Z"/><path d="M375.08,38.64l2.62-.39,2.62-.39h.18q.92-.09,1.15.14t.14,1.15a.62.62,0,0,1-.46.74l-.28,0-.28,0a45.28,45.28,0,0,0-5.66.74,7.07,7.07,0,0,1-1.22.12,8,8,0,0,0-1,.07q-1.2,0-1.84,0a1.58,1.58,0,0,1-1.79-1.38,3.12,3.12,0,0,1-.09-1.52q.6-3.73.92-8.51,0-.87.12-2.58t.12-2.53.41-6.12q0-1.43.23-4.28.14-1.75.32-5.24a1.19,1.19,0,0,1,.41-.83,3.91,3.91,0,0,1,2-.78l2-.16,2.32-.16a6.77,6.77,0,0,1,.9,0,10.3,10.3,0,0,0,1,0,4,4,0,0,0,.87-.18h.41a1.9,1.9,0,0,1,.81.21,1.54,1.54,0,0,1,.11.8,1.84,1.84,0,0,1-.14.94c-.09.11-.4.18-.92.21q-2.39.09-3.59.18a.92.92,0,0,0-.58.18,1.45,1.45,0,0,0-.16.69l-.55,6.62s0,.89-.14,2.58l-.14,2.9q0,.64.14.76t.74,0l2.67-.28a1,1,0,0,1,.64.07,1.46,1.46,0,0,1,.28.67,1.51,1.51,0,0,1,.09.37c0,.43-.14.66-.51.69s-1,.12-1.75.18-1.58.12-2,.18-.51.32-.51.78-.06,1-.09,1.7,0,1.3,0,1.7q-.46,5.84-.64,6.81-.09.55-.21,1.7t-.16,1.38A1.26,1.26,0,0,0,375.08,38.64Z"/><path d="M390.58,13.11q0-1.06,0-1.61v-.64a1.46,1.46,0,0,0-.21-.78.81.81,0,0,0-.62-.18h-3a7,7,0,0,1-.92,0,.73.73,0,0,1-.53-.44,1.26,1.26,0,0,1-.16-.76.73.73,0,0,1,.78-.74q.51,0,1.45,0l1.73.07,1.47,0a13.51,13.51,0,0,0,3.08-.23,23.36,23.36,0,0,1,5.38-.46q.83,0,2.35-.09t2-.09a1.2,1.2,0,0,1,1.2,1.06q.14.55-.28.69l-.23,0-.23,0-6.26.14h-.37c-.46,0-.74.12-.85.28a2.1,2.1,0,0,0-.07,1.15,6,6,0,0,1,0,.87q-.09,1.84-.18,2.76t-.23,2.67q0,.51-.14,1.43T395.62,20q-.07.74-.12,1.43-.37,5.29-.51,7.68-.23,3.13-.46,5.61T394.31,38q0,.23,0,.74c0,.34,0,.6,0,.78a1,1,0,0,1-.55.87,6.53,6.53,0,0,1-1.54.37q-1,.14-1.36.23a2.33,2.33,0,0,1-1.1-.14q-.87-.28-.78-1.52.09-1.06.41-4.16t.46-5.22q.23-2.85.51-8.74,0-.92.14-2.78t.14-2.78v-1h0Q390.53,14.17,390.58,13.11Z"/><path d="M420,30.13q-.46-4-.51-4.65a25.35,25.35,0,0,1,1.38-10.63,16.22,16.22,0,0,1,2.25-4.37q.23-.23.67-.71l.67-.76a2.66,2.66,0,0,0,.74-1,.56.56,0,0,1,.37-.41l.83-.16a7.78,7.78,0,0,0,.83-.21,2.44,2.44,0,0,1,1.08-.07l1.06.12q.3,0,1.06.23t1.08.23a4.43,4.43,0,0,1,3.17,2.48,41.9,41.9,0,0,1,3,8.1,26.31,26.31,0,0,1,.41,9.57q-.46,3.31-.6,4a13.37,13.37,0,0,1-.69,2.44q-.74,2.12-1.15,3.13A5.71,5.71,0,0,1,433.31,40l-1.2.64q-.78.41-1.15.64t-.6.18l-1.31,0q-1.17,0-1.31-.14a5.81,5.81,0,0,0-1.93-.32,3.63,3.63,0,0,1-3.27-2.3q-.32-.69-1.52-3.5A36.8,36.8,0,0,1,420,30.13ZM431.45,14.4q-.39-.87-.92-1.93t-.8-1.66a1,1,0,0,0-.64-.64,7.08,7.08,0,0,0-1.79-.55,1.38,1.38,0,0,0-1,.23,6.73,6.73,0,0,0-2.48,2.85,21.28,21.28,0,0,0-2.12,6.85,31.58,31.58,0,0,0-.28,5.57q.32,3.54,1.06,7.41a26.92,26.92,0,0,0,1.7,5.11q.55,1.15,1.43,1.1H427a1.74,1.74,0,0,0,.69-.09,6.28,6.28,0,0,0,3.63-3.5,38.74,38.74,0,0,0,1.29-4.23q0-.14.55-3.4a23.38,23.38,0,0,0,0-6.07A20.2,20.2,0,0,0,432,16.1,8.93,8.93,0,0,0,431.45,14.4Z"/><path d="M451.53,32a5.47,5.47,0,0,1,.23-.58,27.83,27.83,0,0,0,1.61-5.2q.37-1.47.8-3.13t1-3.68q.55-2,.83-3.13c0-.12.07-.31.12-.58s.08-.45.11-.57a2.27,2.27,0,0,1,.51-.83q.6-.64,1.1.09a3,3,0,0,1,.6,2,27.89,27.89,0,0,0,.74,4.6q.83,3.41,1.2,5.11l1,5.38q0,.14.14.58c.06.29.12.54.18.76A5.92,5.92,0,0,0,462.2,31q.46-3.22.64-4.83.74-5.61,1-8.42.37-3.31.92-9.94.09-.73.18-2,.09-1,.74-1a2.48,2.48,0,0,1,.55,0,8.57,8.57,0,0,0,2.3.18,5.29,5.29,0,0,1,1.66.51q.55.23.41,1.15Q470.2,9,469.7,15q-.14,1.52-1.33,11.22-.14.92-.34,2.71t-.3,2.62q-.14,1-.46,2.94t-.46,2.94L466.66,39q-.14,1.47-1.29,1.61l-.51,0a2,2,0,0,1-.6,0,6.44,6.44,0,0,1-1.56-.14q-1.79-.51-2.25-3.08-.32-1.56-.87-4.67t-.83-4.62q-.74-4.23-1.15-6.3a6.69,6.69,0,0,0-.64-1.66l-.28.94-.28.94q-1.52,6-1.66,6.44Q454.34,30,453.32,33T452,36.89a.13.13,0,0,1,0,.09v.09a2.12,2.12,0,0,1-.12.67c-.08.23-.14.4-.18.51a3.22,3.22,0,0,1-.37.55l-.34.44a3.27,3.27,0,0,1-.41.37l-1,.53q-.83.44-1.24.71t-1-.23a5.92,5.92,0,0,1-1.06-2.71q-.23-2.39-1.7-9.61-1.56-7.82-2.3-11.78-.18-1.06-.51-3.22t-.51-3.22a2.63,2.63,0,0,1,1.06-2.76,4.22,4.22,0,0,1,3.59-.64,1.33,1.33,0,0,1,1,1.24q.09,1.2.14,1.75.78,7.22,1.43,10.12,1.33,6.07,2.16,10,.23.87.6,2.71a.27.27,0,0,1,.18,0C451.37,32.45,451.44,32.25,451.53,32Z"/><path d="M486.81,32.06q0-1,.11-3t.12-3q0-1.06.16-3.1t.16-3q.28-4,.37-6.16.09-1.56.18-4.51a4.6,4.6,0,0,1,0-.78q.09-1.15,1.1-1.1l3.54.46a.64.64,0,0,1,.64.74,3,3,0,0,1,0,.87l-.14,2.94q0,1.1-.14,3.33T492.74,19q0,.78-.09,2.3t-.14,2.3q0,.78,0,2.3v2.3q0,.87-.09,3.54t-.09,4.14q0,.32-.07,2.07a5.77,5.77,0,0,0,.12,2.07.83.83,0,0,1-.78,1.15l-.67.09-.76.09-.64.09a5.63,5.63,0,0,1-2.67-.74,1.09,1.09,0,0,1-.51-.74q-.46-1.38-1.29-4.14-.18-.6-.74-2.48t-.83-2.9L483,28.52l-.55-2.23q-.3-1.22-.48-1.91-1.29-5.06-2-7.59a21.11,21.11,0,0,0-.83-2.62q0,.46,0,1.4T479,17q0,.92-.12,2.53t-.12,2.92q0,1.31,0,2.51,0,2,.09,5.93.09,5.52.14,8.33a4,4,0,0,1-.09.74.65.65,0,0,1-.6.51l-.37,0-.39.07a1.7,1.7,0,0,1-.34,0,2.74,2.74,0,0,0-.6,0h-1.2a1.42,1.42,0,0,1-.51,0,1.68,1.68,0,0,1-1.15-.48,1.92,1.92,0,0,1-.28-1.31q.09-4.23.09-6.35,0-.87,0-3.63t0-4.28q0-1,.23-6.16.09-2.71,0-5.38,0-1.56-.18-4.78a1.71,1.71,0,0,1,.16-1,1.3,1.3,0,0,1,.81-.44,5.43,5.43,0,0,1,3.27.18,4.68,4.68,0,0,1,1.38.69,2.53,2.53,0,0,1,.69,1.15q.32,1.15.94,3.47t.9,3.52l.28.8q.23.67.32,1,.37,1.52,1.15,4.55t1.2,4.51q.32,1.29,1,3.66t.78,2.78a1.07,1.07,0,0,0,.23.37h.14C486.79,33.2,486.81,32.71,486.81,32.06Z"/><path d="M501.81,38.64l2.62-.39,2.62-.39h.18q.92-.09,1.15.14c.15.15.2.54.14,1.15a.61.61,0,0,1-.46.74l-.28,0-.28,0a45.37,45.37,0,0,0-5.66.74,7,7,0,0,1-1.22.12,8,8,0,0,0-1,.07q-1.2,0-1.84,0A1.58,1.58,0,0,1,496,39.51a3.12,3.12,0,0,1-.09-1.52q.6-3.73.92-8.51,0-.87.12-2.58t.12-2.53.41-6.12q0-1.43.23-4.28.14-1.75.32-5.24a1.19,1.19,0,0,1,.41-.83,3.91,3.91,0,0,1,2-.78l2-.16,2.32-.16a6.79,6.79,0,0,1,.9,0,10.31,10.31,0,0,0,1,0,4,4,0,0,0,.88-.18h.41a1.9,1.9,0,0,1,.8.21,1.53,1.53,0,0,1,.12.8,1.84,1.84,0,0,1-.14.94q-.14.16-.92.21-2.39.09-3.59.18a.91.91,0,0,0-.57.18,1.45,1.45,0,0,0-.16.69l-.55,6.62s0,.89-.14,2.58l-.14,2.9c0,.43,0,.68.14.76s.34.08.74,0l2.67-.28a1,1,0,0,1,.64.07,1.44,1.44,0,0,1,.28.67,1.54,1.54,0,0,1,.09.37q0,.64-.51.69t-1.75.18q-1.38.09-2,.18c-.34.06-.51.32-.51.78s-.06,1-.09,1.7,0,1.3,0,1.7q-.46,5.84-.64,6.81-.09.55-.21,1.7c-.08.77-.13,1.23-.16,1.38A1.26,1.26,0,0,0,501.81,38.64Z"/><path d="M519.24,25a4.27,4.27,0,0,0-.64.48,1.26,1.26,0,0,0-.32.6,12.25,12.25,0,0,0-.09,1.24q-.18,3.27-.46,9.8l-.14,2.76a1,1,0,0,1-.6.87,10.08,10.08,0,0,1-1.08.41q-.58.18-1.31.35l-1.1.25a.88.88,0,0,1-.58,0,1.39,1.39,0,0,1-.39-.55,2,2,0,0,0-.32-.51,1.85,1.85,0,0,1-.28-1.33l.41-5.24q.37-5.06.51-7.59.14-1.56.32-4.69.37-3.82.51-6,0-.92,0-2.76c0-.18,0-.56,0-1.13s0-1,.07-1.31a1.23,1.23,0,0,0-.37-1.06.66.66,0,0,1-.37-.78.78.78,0,0,1,.64-.64q.46-.09,1.27-.3l1.47-.37,1.26-.3a24.92,24.92,0,0,1,4.69-.46,6.84,6.84,0,0,1,3,.78A3.93,3.93,0,0,1,527,9.29a7.62,7.62,0,0,1,.51,5.7A10.42,10.42,0,0,1,525,19.46q-.37.41-1,1.22t-.74.94q-.18.23-.64.69a1.3,1.3,0,0,0-.46,1.33l.48,2.23q.39,1.82.62,2.83t2.07,8.65q.09.28.35,1.1t.34,1.29a1.7,1.7,0,0,1-.16,1.31,1.29,1.29,0,0,1-.94.71.28.28,0,0,1-.37-.09,2.47,2.47,0,0,1-.92-1.38q-.28-1.66-.67-3.45t-.92-4q-.53-2.23-.76-3.38-.18-.83-.6-2.32t-.55-2l-.28-.6A4.34,4.34,0,0,1,519.24,25Zm-.6-2.37.6-.41a5.3,5.3,0,0,0,.69-.55,33,33,0,0,0,4.37-5,9.4,9.4,0,0,0,1.52-5.06Q526,9,523.61,8.69q-.69,0-4,0a2.21,2.21,0,0,0-.55.23,4.06,4.06,0,0,1,.35,1,8.84,8.84,0,0,1-.07,1.2.63.63,0,0,0,0,.28v.28q-.37,4.6-.51,6.85-.14,1.29-.32,3.86A.74.74,0,0,1,518.64,22.59Z"/><path d="M548.36,24.15a6.25,6.25,0,0,1,.14,1,8.16,8.16,0,0,0,.09.87,30.88,30.88,0,0,1-1.29,7.31,9.82,9.82,0,0,1-.46,1.13,8.35,8.35,0,0,1-.48.9l-.67,1q-.46.69-.6.87a12.82,12.82,0,0,1-3.63,3.63l-.09,0a4.34,4.34,0,0,1-1,.48,9.45,9.45,0,0,1-1.77.35,6.79,6.79,0,0,1-2.74-.35,11.71,11.71,0,0,1-3.24-1.63,9.3,9.3,0,0,1-1.47-3.06,12.91,12.91,0,0,1-.55-2.87V32.71l.14-.69a12.67,12.67,0,0,1,.46-1.56q.28-.69,1-.28c.21.09.32.21.32.37l0,.18q0,.14-.14.48a5.66,5.66,0,0,0-.14.67,5.33,5.33,0,0,0-.14,2.48,5.15,5.15,0,0,0,4.65,5.06,3.48,3.48,0,0,0,2.9-.57,4.73,4.73,0,0,0,1.61-2.58,18.38,18.38,0,0,0,.6-3.24,22.44,22.44,0,0,0,0-3.22,13.5,13.5,0,0,0-.18-2.3l-.14-.69q-.87-3.73-3.73-4.51l-2.07-.55a4.52,4.52,0,0,1-2.85-4.37,10.76,10.76,0,0,1,.74-3.5,12.37,12.37,0,0,1,1.61-3.13,7.49,7.49,0,0,1,4.32-2.94,23.59,23.59,0,0,1,2.9-.55,5.36,5.36,0,0,1,3.27,1,5.79,5.79,0,0,1,1.61,1.33,2,2,0,0,1,.23.41q.09.46,0,.55a.45.45,0,0,1-.41.23,1.55,1.55,0,0,1-.6-.41,8.21,8.21,0,0,0-2.25-1.43,3.92,3.92,0,0,0-3.08,0,10.36,10.36,0,0,0-2.76,1.24,6.86,6.86,0,0,0-2.76,3.4,10.87,10.87,0,0,0-1,2.94,2.52,2.52,0,0,0-.09.51,1.74,1.74,0,0,0,.25,1.22,1,1,0,0,0,.94.25,24.89,24.89,0,0,1,3.31-.14q.46,0,1.59-.09a11.84,11.84,0,0,1,1.72,0,5.51,5.51,0,0,1,4.19,2.25A8.21,8.21,0,0,1,548.36,24.15Z"/><path d="M29,87.19a5.56,5.56,0,0,1,.23-.58,27.86,27.86,0,0,0,1.61-5.2q.37-1.47.8-3.13t1-3.68q.55-2,.83-3.13c0-.12.07-.31.12-.58s.08-.45.11-.57a2.27,2.27,0,0,1,.51-.83q.6-.64,1.1.09a3,3,0,0,1,.6,2,27.89,27.89,0,0,0,.74,4.6q.83,3.41,1.2,5.11l1,5.38c0,.09.08.28.14.58s.12.54.18.76a5.92,5.92,0,0,0,.55-1.79q.46-3.22.64-4.83.74-5.61,1-8.42.37-3.31.92-9.94.09-.73.18-2,.09-1,.74-1a2.48,2.48,0,0,1,.55,0,8.57,8.57,0,0,0,2.3.18,5.3,5.3,0,0,1,1.66.51q.55.23.41,1.15-.41,2.3-.92,8.37Q47,71.76,45.84,81.47q-.14.92-.34,2.71t-.3,2.62q-.14,1-.46,2.94t-.46,2.94l-.14,1.52q-.14,1.47-1.29,1.61l-.51,0a2,2,0,0,1-.6,0,6.43,6.43,0,0,1-1.56-.14q-1.79-.51-2.25-3.08-.32-1.56-.87-4.67t-.83-4.62q-.74-4.23-1.15-6.3a6.69,6.69,0,0,0-.64-1.66l-.28.94-.28.94q-1.52,6-1.66,6.44-.41,1.52-1.43,4.46t-1.29,3.91a.13.13,0,0,1,0,.09v.09a2.12,2.12,0,0,1-.11.67q-.12.34-.18.51a3.22,3.22,0,0,1-.37.55l-.34.44a3.23,3.23,0,0,1-.41.37l-1,.53q-.83.44-1.24.71t-1-.23a5.93,5.93,0,0,1-1.06-2.71q-.23-2.39-1.7-9.61-1.56-7.82-2.3-11.78-.18-1.06-.51-3.22t-.51-3.22a2.63,2.63,0,0,1,1.06-2.76,4.22,4.22,0,0,1,3.59-.64,1.33,1.33,0,0,1,1,1.24q.09,1.2.14,1.75.78,7.22,1.43,10.12Q27.21,81.05,28,85q.23.87.6,2.71a.27.27,0,0,1,.18,0C28.85,87.65,28.91,87.45,29,87.19Z"/><path d="M57.29,66.33a43.7,43.7,0,0,0-.46,6.53l-.14,7.87v5.15q0,1-.09,2.88t-.09,2.88q0,.46,0,1.38t0,1.38a1.15,1.15,0,0,1-.11.64,1.59,1.59,0,0,1-.53.32,8.18,8.18,0,0,1-2.16.55q-.6,0-1.75,0a.49.49,0,0,1-.46-.23,3.53,3.53,0,0,1-.51-1.89q0-.32.07-1t0-1q0-1.15.18-13.66,0-4.14.28-8.37,0-.83.18-2.55t.18-2.6q0-.6,0-1.79a1.17,1.17,0,0,1,.87-1.29,2.9,2.9,0,0,1,1.56-.18,5.73,5.73,0,0,1,2.25.69,1.86,1.86,0,0,1,.85.62A3,3,0,0,1,57.62,64Q57.43,65.55,57.29,66.33Z"/><path d="M66.72,75.53q-.14,8.65-.14,8.74,0,1.29-.37,7.36a5.59,5.59,0,0,0,0,.85,5.74,5.74,0,0,1,0,.85q0,.51.32.64l1,.14L71.14,94a1.71,1.71,0,0,1,.55,0q.46,0,.55.64a3.11,3.11,0,0,1,0,1.29q-.11.18-1,.18-.28,0-.78,0c-.34,0-.6,0-.78,0H68.33L65.8,96q-.64,0-1.89.07L62,96.23H61.8a1.51,1.51,0,0,1-1.38-2q.46-3.22.74-9.71.14-2.21.23-9.89,0-2.07.18-6.21V64.58c0-.21,0-.54,0-1s0-.75,0-1a1.2,1.2,0,0,1,.87-1.33,4.65,4.65,0,0,1,4.19.83A1.13,1.13,0,0,1,67,63.2v1.61h0Q66.81,72,66.72,75.53Z"/><path d="M81.44,75.53q-.14,8.65-.14,8.74,0,1.29-.37,7.36a5.59,5.59,0,0,0,0,.85,5.74,5.74,0,0,1,0,.85q0,.51.32.64l1,.14L85.86,94a1.71,1.71,0,0,1,.55,0q.46,0,.55.64a3.11,3.11,0,0,1,0,1.29q-.11.18-1,.18-.28,0-.78,0c-.34,0-.6,0-.78,0H83.05L80.52,96q-.64,0-1.89.07l-1.89.12h-.23a1.51,1.51,0,0,1-1.38-2q.46-3.22.74-9.71.14-2.21.23-9.89,0-2.07.18-6.21V64.58c0-.21,0-.54,0-1s0-.75,0-1a1.2,1.2,0,0,1,.87-1.33,4.65,4.65,0,0,1,4.19.83,1.13,1.13,0,0,1,.46,1.06v1.61h0Q81.53,72,81.44,75.53Z"/><path d="M101.87,72.77a17.81,17.81,0,0,1,2.62-6.07q.18-.28,1.7-1.93A8.69,8.69,0,0,1,109,62.7a4.68,4.68,0,0,1,4.78,0A7.81,7.81,0,0,1,115.07,64a.53.53,0,0,1,0,.78q-.23.37-.69.09l-.18-.12a.28.28,0,0,0-.14-.07,4.1,4.1,0,0,0-5.29,0,12.57,12.57,0,0,0-4.78,7,37.25,37.25,0,0,0-1.43,9.57q0,1-.14,2.94a18.74,18.74,0,0,0,.41,4.92,2.34,2.34,0,0,0,2,2.16,4.85,4.85,0,0,0,4.23-1,8.35,8.35,0,0,0,2.71-4.28,23.9,23.9,0,0,0,.69-4.92v-.6a.45.45,0,0,0-.51-.51h-2.44A1.87,1.87,0,0,1,108,79.3q-.51-.74.23-1.1a1.66,1.66,0,0,1,.83-.18l1.56-.11,1.56-.12,3.08-.41a1.44,1.44,0,0,1,1.06.16,3.35,3.35,0,0,1,.74,1.13,7.06,7.06,0,0,1,.37,1.24,5.79,5.79,0,0,1,0,1.2q0,.37-.16,1.08a7.4,7.4,0,0,0-.11,1.08,31.84,31.84,0,0,1-.78,5.66,9.4,9.4,0,0,0-.32,1.33,10.5,10.5,0,0,1-3.4,5,3.9,3.9,0,0,1-1.29.83,5.85,5.85,0,0,1-4.28.28q-.23-.09-2.35-1.33a10.27,10.27,0,0,1-3-3.08,6,6,0,0,1-1-3.17q-.09-1.38-.32-3.68A65,65,0,0,1,101.87,72.77Z"/><path d="M126.61,66.33a43.7,43.7,0,0,0-.46,6.53L126,80.73v5.15q0,1-.09,2.88t-.09,2.88q0,.46,0,1.38t0,1.38a1.15,1.15,0,0,1-.11.64,1.59,1.59,0,0,1-.53.32,8.18,8.18,0,0,1-2.16.55q-.6,0-1.75,0a.49.49,0,0,1-.46-.23,3.53,3.53,0,0,1-.51-1.89q0-.32.07-1t0-1q0-1.15.18-13.66,0-4.14.28-8.37,0-.83.18-2.55t.18-2.6q0-.6,0-1.79a1.17,1.17,0,0,1,.87-1.29,2.9,2.9,0,0,1,1.56-.18,5.73,5.73,0,0,1,2.25.69,1.86,1.86,0,0,1,.85.62,3,3,0,0,1,.16,1.22Q126.75,65.55,126.61,66.33Z"/><path d="M135.61,85.58l.11-.48q.09-.37.69-3.08t1-4.14q.37-1.47,1.15-4.16l1-3.33q1-3,1.06-3.5.41-1.84,1.52-5.34.18-.78.83-.74A3,3,0,0,1,144,61q1,.55,2.94,1.75.41.23.32,1a.54.54,0,0,1,0,.16.5.5,0,0,1-.09.16,12.5,12.5,0,0,0-.69,1.56q-.32.87-.51,1.52l-.48,1.73q-.3,1.08-.44,1.63-.37,1.24-1.08,3.73T142.85,78q-1.34,5.2-1.61,6.39l-1,5.57q-.55,3.86-.87,5.75a1.47,1.47,0,0,1-.46,1,.85.85,0,0,1-.87.11,9.23,9.23,0,0,1-3.45-2.21A2.07,2.07,0,0,1,134,93.2q-.09-.92-.32-2.71t-.23-1.93q-.28-2.39-.41-3.63-.28-2.21-.37-3.36-.09-1.89-.87-6.9-.55-3.17-1.56-9.52-.09-.37-.25-1.08T129.74,63a1.75,1.75,0,0,1,.16-1.13.67.67,0,0,1,.76-.34.78.78,0,0,1,.64.64,18.89,18.89,0,0,1,.51,1.93q0,.37.55,3.91t.83,5.38q.09.46,1.66,10,.14.69.32,2.07l.18.6h.18A2.2,2.2,0,0,1,135.61,85.58Z"/><path d="M154.44,93.84l2.62-.39,2.62-.39h.18q.92-.09,1.15.14t.14,1.15a.62.62,0,0,1-.46.74l-.28,0-.28,0a45.29,45.29,0,0,0-5.66.74,7.07,7.07,0,0,1-1.22.12,8,8,0,0,0-1,.07q-1.2,0-1.84,0a1.58,1.58,0,0,1-1.79-1.38,3.11,3.11,0,0,1-.09-1.52q.6-3.73.92-8.51,0-.87.11-2.58t.12-2.53.41-6.12q0-1.43.23-4.28.14-1.75.32-5.24a1.19,1.19,0,0,1,.41-.83,3.92,3.92,0,0,1,2-.78l2-.16,2.32-.16a6.79,6.79,0,0,1,.9,0,10.3,10.3,0,0,0,1,0,4,4,0,0,0,.87-.18h.41a1.9,1.9,0,0,1,.81.21,1.53,1.53,0,0,1,.11.8,1.84,1.84,0,0,1-.14.94q-.14.16-.92.21-2.39.09-3.59.18a.92.92,0,0,0-.58.18,1.46,1.46,0,0,0-.16.69l-.55,6.62s0,.89-.14,2.58l-.14,2.9q0,.64.14.76t.74,0l2.67-.28a1,1,0,0,1,.64.07,1.46,1.46,0,0,1,.28.67,1.52,1.52,0,0,1,.09.37c0,.43-.14.66-.51.69s-1,.12-1.75.18-1.58.12-2,.18-.51.32-.51.78-.06,1-.09,1.7,0,1.3,0,1.7q-.46,5.84-.64,6.81-.09.55-.21,1.7t-.16,1.38A1.26,1.26,0,0,0,154.44,93.84Z"/><path d="M182.43,85.58l.11-.48q.09-.37.69-3.08t1-4.14q.37-1.47,1.15-4.16l1-3.33q1-3,1.06-3.5.41-1.84,1.52-5.34.18-.78.83-.74a3,3,0,0,1,1.1.23q1,.55,2.94,1.75.41.23.32,1a.54.54,0,0,1,0,.16.5.5,0,0,1-.09.16,12.5,12.5,0,0,0-.69,1.56q-.32.87-.51,1.52l-.48,1.73q-.3,1.08-.44,1.63-.37,1.24-1.08,3.73T189.68,78q-1.34,5.2-1.61,6.39l-1,5.57q-.55,3.86-.87,5.75a1.47,1.47,0,0,1-.46,1,.85.85,0,0,1-.87.11,9.23,9.23,0,0,1-3.45-2.21,2.07,2.07,0,0,1-.64-1.38q-.09-.92-.32-2.71t-.23-1.93q-.28-2.39-.41-3.63-.28-2.21-.37-3.36-.09-1.89-.87-6.9Q178,71.48,177,65.14q-.09-.37-.25-1.08T176.57,63a1.75,1.75,0,0,1,.16-1.13.67.67,0,0,1,.76-.34.78.78,0,0,1,.64.64,18.89,18.89,0,0,1,.51,1.93q0,.37.55,3.91t.83,5.38q.09.46,1.66,10,.14.69.32,2.07l.18.6h.18A2.2,2.2,0,0,1,182.43,85.58Z"/><path d="M196.44,94.94a7.81,7.81,0,0,1,.28-1.33q.37-1.15.87-3.33t.74-3.06q.28-1.1.69-3.15t.51-2.55q1.2-5.43,1.52-6.62l.39-1.36.46-1.59.39-1.33,1.24-5.11a3.1,3.1,0,0,0,0-.87,1.17,1.17,0,0,1,.64-1.47q.28-.14.85-.37a6.31,6.31,0,0,0,.81-.37,6.82,6.82,0,0,1,2.12-.28,1,1,0,0,1,1.2.78,4,4,0,0,1,.23.87q.69,6.35.92,8.83.23,2.12.6,5.75,0,.23.07.48t0,.55q0,.3,0,.48.37,3.4.55,5.06.18,2.16.55,6.39a10.67,10.67,0,0,1,0,1.17v1.22a.89.89,0,0,1-.41.69,10,10,0,0,1-3.08,1.29.44.44,0,0,0-.32.14.84.84,0,0,1-.92,0,1,1,0,0,1-.55-1,64,64,0,0,0-.64-8.6q-.09-.55-.21-1.61t-.16-1.61a1.65,1.65,0,0,0-.23-.71q-.14-.16-.64-.12t-3.59.23a.88.88,0,0,0-.87.83q-.18,1-1.2,5.43-.18.64-.53,1.93t-.48,1.93a20.52,20.52,0,0,1-.78,2.76q-.46.41-.6.28c0-.06-.06-.09-.09-.09a.13.13,0,0,0,0,.09v0l-.28.14A3.1,3.1,0,0,1,196.44,94.94ZM201.22,81l1.29-.14q.41,0,1.22-.07l1.22,0q.46,0,.55-.12t0-.57q-.09-.64-.23-1.91t-.18-1.91q-.09-1-.3-3.06t-.34-3.06a1.62,1.62,0,0,0-.07-.39,1.61,1.61,0,0,1-.07-.35A55.61,55.61,0,0,0,201.22,81Z"/><path d="M221.28,75.53q-.14,8.65-.14,8.74,0,1.29-.37,7.36a5.59,5.59,0,0,0,0,.85,5.74,5.74,0,0,1,0,.85q0,.51.32.64l1,.14L225.7,94a1.71,1.71,0,0,1,.55,0q.46,0,.55.64a3.11,3.11,0,0,1,0,1.29q-.11.18-1,.18-.28,0-.78,0c-.34,0-.6,0-.78,0h-1.33L220.36,96q-.64,0-1.89.07l-1.89.12h-.23a1.51,1.51,0,0,1-1.38-2q.46-3.22.74-9.71.14-2.21.23-9.89,0-2.07.18-6.21V64.58c0-.21,0-.54,0-1s0-.75,0-1a1.2,1.2,0,0,1,.87-1.33,4.65,4.65,0,0,1,4.19.83,1.13,1.13,0,0,1,.46,1.06v1.61h0Q221.37,72,221.28,75.53Z"/><path d="M235.45,93.84l2.62-.39,2.62-.39h.18q.92-.09,1.15.14t.14,1.15a.62.62,0,0,1-.46.74l-.28,0-.28,0a45.29,45.29,0,0,0-5.66.74,7.07,7.07,0,0,1-1.22.12,8,8,0,0,0-1,.07q-1.2,0-1.84,0a1.58,1.58,0,0,1-1.79-1.38,3.11,3.11,0,0,1-.09-1.52q.6-3.73.92-8.51,0-.87.11-2.58t.12-2.53.41-6.12q0-1.43.23-4.28.14-1.75.32-5.24a1.19,1.19,0,0,1,.41-.83,3.92,3.92,0,0,1,2-.78l2-.16L238.3,62a6.79,6.79,0,0,1,.9,0,10.3,10.3,0,0,0,1,0,4,4,0,0,0,.87-.18h.41a1.9,1.9,0,0,1,.81.21,1.53,1.53,0,0,1,.11.8,1.84,1.84,0,0,1-.14.94q-.14.16-.92.21-2.39.09-3.59.18a.92.92,0,0,0-.58.18,1.46,1.46,0,0,0-.16.69l-.55,6.62s0,.89-.14,2.58l-.14,2.9q0,.64.14.76t.74,0l2.67-.28a1,1,0,0,1,.64.07,1.46,1.46,0,0,1,.28.67,1.52,1.52,0,0,1,.09.37c0,.43-.14.66-.51.69s-1,.12-1.75.18-1.58.12-2,.18-.51.32-.51.78-.06,1-.09,1.7,0,1.3,0,1.7q-.46,5.84-.64,6.81-.09.55-.21,1.7t-.16,1.38A1.26,1.26,0,0,0,235.45,93.84Z"/><path d="M259,87.26q0-1,.11-3t.12-3q0-1.06.16-3.1t.16-3q.28-4,.37-6.16.09-1.56.18-4.51a4.54,4.54,0,0,1,0-.78q.09-1.15,1.1-1.1l3.54.46a.64.64,0,0,1,.64.74,3,3,0,0,1,0,.87q0,1-.14,2.94l-.14,3.33q-.09,2.23-.18,3.33,0,.78-.09,2.3t-.14,2.3q0,.78,0,2.3v2.3q0,.87-.09,3.54t-.09,4.14q0,.32-.07,2.07a5.77,5.77,0,0,0,.12,2.07.83.83,0,0,1-.78,1.15l-.67.09-.76.09-.64.09a5.63,5.63,0,0,1-2.67-.74,1.08,1.08,0,0,1-.51-.74Q258,93.79,257.16,91q-.18-.6-.74-2.48t-.83-2.9l-.48-1.93-.55-2.23q-.3-1.22-.48-1.91-1.29-5.06-2-7.59a21.19,21.19,0,0,0-.83-2.62q0,.46,0,1.4t-.09,1.45q0,.92-.11,2.53t-.12,2.92q0,1.31,0,2.51,0,2,.09,5.93.09,5.52.14,8.33a4,4,0,0,1-.09.74.65.65,0,0,1-.6.51l-.37,0-.39.07a1.71,1.71,0,0,1-.35,0,2.74,2.74,0,0,0-.6,0h-1.2a1.42,1.42,0,0,1-.51,0,1.68,1.68,0,0,1-1.15-.48,1.92,1.92,0,0,1-.28-1.31q.09-4.23.09-6.35,0-.87,0-3.63t0-4.28q0-1,.23-6.16.09-2.71,0-5.38,0-1.56-.18-4.78a1.71,1.71,0,0,1,.16-1,1.29,1.29,0,0,1,.81-.44,5.44,5.44,0,0,1,3.27.18,4.7,4.7,0,0,1,1.38.69A2.52,2.52,0,0,1,252,64q.32,1.15.94,3.47t.9,3.52l.28.8q.23.67.32,1,.37,1.52,1.15,4.55t1.2,4.51q.32,1.29,1,3.66t.78,2.78a1.08,1.08,0,0,0,.23.37h.14Q259,88.23,259,87.26Z"/><path d="M273.54,68.31q0-1.06,0-1.61v-.64a1.47,1.47,0,0,0-.21-.78.81.81,0,0,0-.62-.18h-3a6.94,6.94,0,0,1-.92,0,.73.73,0,0,1-.53-.44,1.26,1.26,0,0,1-.16-.76.73.73,0,0,1,.78-.74q.51,0,1.45,0l1.73.07,1.47,0a13.52,13.52,0,0,0,3.08-.23,23.35,23.35,0,0,1,5.38-.46q.83,0,2.35-.09t2-.09a1.2,1.2,0,0,1,1.2,1.06q.14.55-.28.69l-.23,0-.23,0-6.26.14h-.37q-.69,0-.85.28a2.1,2.1,0,0,0-.07,1.15,6,6,0,0,1,0,.87q-.09,1.84-.18,2.76t-.23,2.67q0,.51-.14,1.43t-.16,1.66q-.07.74-.11,1.43-.37,5.29-.51,7.68-.23,3.13-.46,5.61t-.23,3.36q0,.23,0,.74c0,.34,0,.6,0,.78a1,1,0,0,1-.55.87,6.54,6.54,0,0,1-1.54.37q-1,.14-1.36.23a2.34,2.34,0,0,1-1.1-.14q-.87-.28-.78-1.52.09-1.06.41-4.16t.46-5.22q.23-2.85.51-8.74l.14-2.78.14-2.78v-1h0Q273.49,69.37,273.54,68.31Z"/><path d="M296.81,66.33a43.84,43.84,0,0,0-.46,6.53l-.14,7.87v5.15q0,1-.09,2.88T296,91.63c0,.31,0,.77,0,1.38s0,1.07,0,1.38a1.15,1.15,0,0,1-.11.64,1.59,1.59,0,0,1-.53.32,8.18,8.18,0,0,1-2.16.55q-.6,0-1.75,0a.49.49,0,0,1-.46-.23,3.53,3.53,0,0,1-.51-1.89c0-.21.05-.54.07-1s0-.75,0-1q0-1.15.18-13.66,0-4.14.28-8.37,0-.83.18-2.55t.18-2.6q0-.6,0-1.79a1.17,1.17,0,0,1,.87-1.29,2.9,2.9,0,0,1,1.56-.18,5.73,5.73,0,0,1,2.25.69,1.85,1.85,0,0,1,.85.62,3,3,0,0,1,.16,1.22Q296.95,65.55,296.81,66.33Z"/><path d="M313.28,87.26q0-1,.12-3t.12-3q0-1.06.16-3.1t.16-3q.28-4,.37-6.16.09-1.56.18-4.51a4.49,4.49,0,0,1,0-.78q.09-1.15,1.1-1.1l3.54.46a.64.64,0,0,1,.64.74,3,3,0,0,1,0,.87q0,1-.14,2.94l-.14,3.33q-.09,2.23-.18,3.33,0,.78-.09,2.3T319,78.8q0,.78,0,2.3v2.3q0,.87-.09,3.54t-.09,4.14q0,.32-.07,2.07a5.77,5.77,0,0,0,.12,2.07.83.83,0,0,1-.78,1.15l-.67.09-.76.09-.64.09a5.63,5.63,0,0,1-2.67-.74,1.08,1.08,0,0,1-.51-.74q-.46-1.38-1.29-4.14-.18-.6-.74-2.48t-.83-2.9l-.48-1.93-.55-2.23q-.3-1.22-.48-1.91-1.29-5.06-2-7.59a21.27,21.27,0,0,0-.83-2.62q0,.46,0,1.4t-.09,1.45q0,.92-.11,2.53t-.12,2.92q0,1.31,0,2.51,0,2,.09,5.93.09,5.52.14,8.33a4,4,0,0,1-.09.74.65.65,0,0,1-.6.51l-.37,0-.39.07a1.71,1.71,0,0,1-.35,0,2.73,2.73,0,0,0-.6,0h-1.2a1.42,1.42,0,0,1-.51,0,1.68,1.68,0,0,1-1.15-.48,1.92,1.92,0,0,1-.28-1.31q.09-4.23.09-6.35,0-.87,0-3.63t0-4.28q0-1,.23-6.16.09-2.71,0-5.38,0-1.56-.18-4.78a1.71,1.71,0,0,1,.16-1,1.29,1.29,0,0,1,.8-.44,5.44,5.44,0,0,1,3.27.18,4.71,4.71,0,0,1,1.38.69,2.52,2.52,0,0,1,.69,1.15q.32,1.15.94,3.47t.9,3.52l.28.8q.23.67.32,1,.37,1.52,1.15,4.55t1.2,4.51q.32,1.29,1,3.66t.78,2.78a1.09,1.09,0,0,0,.23.37h.14Q313.28,88.23,313.28,87.26Z"/><path d="M328.27,93.84l2.62-.39,2.62-.39h.18q.92-.09,1.15.14t.14,1.15a.62.62,0,0,1-.46.74l-.28,0-.28,0a45.31,45.31,0,0,0-5.66.74,7.06,7.06,0,0,1-1.22.12,8,8,0,0,0-1,.07q-1.2,0-1.84,0a1.58,1.58,0,0,1-1.79-1.38,3.1,3.1,0,0,1-.09-1.52q.6-3.73.92-8.51,0-.87.11-2.58t.12-2.53.41-6.12q0-1.43.23-4.28.14-1.75.32-5.24a1.19,1.19,0,0,1,.41-.83,3.92,3.92,0,0,1,2-.78l2-.16,2.32-.16a6.8,6.8,0,0,1,.9,0,10.31,10.31,0,0,0,1,0,4,4,0,0,0,.87-.18h.41a1.9,1.9,0,0,1,.8.21,1.53,1.53,0,0,1,.12.8,1.83,1.83,0,0,1-.14.94q-.14.16-.92.21-2.39.09-3.59.18a.92.92,0,0,0-.58.18,1.47,1.47,0,0,0-.16.69l-.55,6.62s0,.89-.14,2.58l-.14,2.9q0,.64.14.76t.74,0l2.67-.28a1,1,0,0,1,.64.07,1.46,1.46,0,0,1,.28.67,1.54,1.54,0,0,1,.09.37q0,.64-.51.69t-1.75.18q-1.38.09-2,.18c-.34.06-.51.32-.51.78s-.06,1-.09,1.7,0,1.3,0,1.7q-.46,5.84-.64,6.81-.09.55-.21,1.7t-.16,1.38A1.26,1.26,0,0,0,328.27,93.84Z"/><path d="M342.46,60.86c0,.4-.08.67-.09.83s-.05.38-.12.69a4,4,0,0,1-.23.78,3.48,3.48,0,0,1-.37.64,4.45,4.45,0,0,0-.32.37,4.36,4.36,0,0,1-.32.37,1.51,1.51,0,0,1-2.39,0,.6.6,0,0,1,0-1l.18-.18a3.51,3.51,0,0,0,1.7-3s0-.64-.14-1.84l-.14-.69a.77.77,0,0,1,.69-1,.8.8,0,0,1,1.1.51,7.06,7.06,0,0,1,.37,1.43c0,.15,0,.38,0,.69s0,.54,0,.69S342.51,60.46,342.46,60.86Z"/><path d="M363.1,79.35a6.16,6.16,0,0,1,.14,1,8.08,8.08,0,0,0,.09.87A30.88,30.88,0,0,1,362,88.55a9.82,9.82,0,0,1-.46,1.13,8.71,8.71,0,0,1-.48.9l-.67,1q-.46.69-.6.87a12.82,12.82,0,0,1-3.63,3.63l-.09,0a4.32,4.32,0,0,1-1,.48,9.42,9.42,0,0,1-1.77.35,6.79,6.79,0,0,1-2.74-.35A11.74,11.74,0,0,1,347.32,95a9.3,9.3,0,0,1-1.47-3.06,12.91,12.91,0,0,1-.55-2.87V87.91l.14-.69a12.67,12.67,0,0,1,.46-1.56q.28-.69,1-.28c.21.09.32.21.32.37l0,.18q0,.14-.14.48a5.46,5.46,0,0,0-.14.67,5.33,5.33,0,0,0-.14,2.48,5.15,5.15,0,0,0,4.65,5.06,3.48,3.48,0,0,0,2.9-.57,4.73,4.73,0,0,0,1.61-2.58,18.47,18.47,0,0,0,.6-3.24,22.44,22.44,0,0,0,0-3.22,13.51,13.51,0,0,0-.18-2.3l-.14-.69q-.87-3.73-3.73-4.51L350.45,77a4.52,4.52,0,0,1-2.85-4.37,10.76,10.76,0,0,1,.74-3.5A12.41,12.41,0,0,1,349.94,66,7.49,7.49,0,0,1,354.26,63a23.59,23.59,0,0,1,2.9-.55,5.37,5.37,0,0,1,3.27,1A5.8,5.8,0,0,1,362,64.77a2,2,0,0,1,.23.41q.09.46,0,.55a.45.45,0,0,1-.41.23,1.56,1.56,0,0,1-.6-.41A8.21,8.21,0,0,0,359,64.12a3.92,3.92,0,0,0-3.08,0,10.36,10.36,0,0,0-2.76,1.24,6.87,6.87,0,0,0-2.76,3.4,10.89,10.89,0,0,0-1,2.94,2.52,2.52,0,0,0-.09.51,1.73,1.73,0,0,0,.25,1.22,1,1,0,0,0,.94.25,24.88,24.88,0,0,1,3.31-.14q.46,0,1.59-.09a11.85,11.85,0,0,1,1.73,0,5.51,5.51,0,0,1,4.19,2.25A8.22,8.22,0,0,1,363.1,79.35Z"/><path d="M378.83,65.32l-.64.09a.92.92,0,0,1-.6-.18.6.6,0,0,1-.41-.51q0-.14.41-.55a5.51,5.51,0,0,1,1-.46,8.81,8.81,0,0,0,1.66-.87,2.83,2.83,0,0,1,1.75-.55,51.55,51.55,0,0,1,6.67.14,4.37,4.37,0,0,1,2.25,1q.28.23.92.67c.43.29.74.51.92.67a6,6,0,0,1,1.43,2.35A11,11,0,0,1,394.7,73a16,16,0,0,1-1.52,4.74q-.51.92-2.35,5.52a36.13,36.13,0,0,1-2.62,5.34l-2.9,4.74q-.78,1.29-1.89,2.9a.59.59,0,0,1-.6.37,2.9,2.9,0,0,0-.44-.09l-.46-.07a.83.83,0,0,1-.37-.18.94.94,0,0,1-.3-.39l-.41-.18-.67,0a5.26,5.26,0,0,1-.67-.07q-1.2-.09-1.06-1.43,0-.69.16-2t.16-2q0-.6.09-1.63t.09-1.91q0-.87.09-1.66.09-1.1.23-3.31t.23-3.31q.18-3.5.23-5.52,0-2.35,0-7a3.51,3.51,0,0,0,0-.64Q379.38,65.23,378.83,65.32Zm5.7,25,.23-.28q.55-1,.83-1.47A46.6,46.6,0,0,0,389.31,81q.18-.55,2.21-5a12.38,12.38,0,0,0,1.29-6.49q-.14-3.63-3.91-5.24a9.62,9.62,0,0,0-2.62-.32c-.37,0-.61,0-.71.14a1.39,1.39,0,0,0-.16.83q-.09,2.07-.18,6.3,0,.83,0,2.44t-.09,2.44q0,1.06-.23,3.22t-.23,3.27q-.28,4.88-.41,7.27a2.52,2.52,0,0,0,0,.78C384.32,90.57,384.41,90.45,384.53,90.3Z"/><path d="M397.5,94.94a7.85,7.85,0,0,1,.28-1.33q.37-1.15.87-3.33t.74-3.06q.28-1.1.69-3.15t.51-2.55q1.2-5.43,1.52-6.62l.39-1.36.46-1.59.39-1.33,1.24-5.11a3.08,3.08,0,0,0,0-.87,1.17,1.17,0,0,1,.64-1.47q.28-.14.85-.37a6.33,6.33,0,0,0,.81-.37,6.82,6.82,0,0,1,2.12-.28,1,1,0,0,1,1.2.78,4,4,0,0,1,.23.87q.69,6.35.92,8.83.23,2.12.6,5.75c0,.15.05.31.07.48s0,.35,0,.55,0,.36,0,.48q.37,3.4.55,5.06.18,2.16.55,6.39a10.67,10.67,0,0,1,0,1.17v1.22a.89.89,0,0,1-.41.69,10,10,0,0,1-3.08,1.29.44.44,0,0,0-.32.14.84.84,0,0,1-.92,0,1,1,0,0,1-.55-1,63.92,63.92,0,0,0-.64-8.6q-.09-.55-.21-1.61t-.16-1.61a1.66,1.66,0,0,0-.23-.71q-.14-.16-.64-.12t-3.59.23a.88.88,0,0,0-.87.83q-.18,1-1.2,5.43-.18.64-.53,1.93t-.48,1.93a20.69,20.69,0,0,1-.78,2.76q-.46.41-.6.28c0-.06-.06-.09-.09-.09a.13.13,0,0,0,0,.09v0l-.28.14A3.11,3.11,0,0,1,397.5,94.94ZM402.29,81l1.29-.14q.41,0,1.22-.07l1.22,0c.31,0,.49,0,.55-.12s.06-.27,0-.57-.14-1.07-.23-1.91-.15-1.48-.18-1.91q-.09-1-.3-3.06t-.34-3.06a1.62,1.62,0,0,0-.07-.39,1.62,1.62,0,0,1-.07-.35A55.61,55.61,0,0,0,402.29,81Z"/><path d="M422.64,75.72q.3-1.06.44-1.61.41-1.79,1.13-5.13t1-4.71q.37-1.75.55-2.67a1.31,1.31,0,0,1,1-1.2,3.54,3.54,0,0,1,3,.74,2.64,2.64,0,0,1,.46.32l.37.32a1.81,1.81,0,0,1,.64,2.07q-1.61,6.16-2.21,9-.23,1.15-.55,2.42T427.77,78q-.41,1.54-.64,2.37-.51,2.07-2,8.19-.18.83-.53,2.51t-.53,2.51l-.69,2.81q-.18.46-.37.46a3.93,3.93,0,0,1-1.33.18,22.8,22.8,0,0,1-2.94-.51q-.37-.09-.62-.81a2.19,2.19,0,0,1-.12-1.26l1.52-6.35q.51-2.07,1.52-6.3a4.44,4.44,0,0,0,0-1.79l-1.24-4.28q-.28-1.06-.83-3.08t-.83-3.08a.62.62,0,0,0,0-.14.61.61,0,0,1,0-.14q-.28-.74-.85-2.21t-.85-2.21q-.23-.6-.37-1.06a1.21,1.21,0,0,1,.46-1.43q.55-.41,1.06.32a3.15,3.15,0,0,1,.55,1q.41,1.24,1.33,3.73a21.79,21.79,0,0,1,.76,2.42q.44,1.63.48,1.77.46,1.66,1.38,4.88a2.06,2.06,0,0,0,.23.41Q422.34,76.77,422.64,75.72Z"/><path d="M446.17,72.77a17.81,17.81,0,0,1,2.62-6.07q.18-.28,1.7-1.93a8.69,8.69,0,0,1,2.81-2.07,4.68,4.68,0,0,1,4.78,0A7.83,7.83,0,0,1,459.37,64a.53.53,0,0,1,0,.78q-.23.37-.69.09l-.18-.12a.28.28,0,0,0-.14-.07,4.1,4.1,0,0,0-5.29,0,12.57,12.57,0,0,0-4.78,7,37.23,37.23,0,0,0-1.43,9.57q0,1-.14,2.94a18.76,18.76,0,0,0,.41,4.92,2.34,2.34,0,0,0,2,2.16,4.85,4.85,0,0,0,4.23-1,8.35,8.35,0,0,0,2.71-4.28,23.89,23.89,0,0,0,.69-4.92v-.6a.45.45,0,0,0-.51-.51H453.9a1.88,1.88,0,0,1-1.56-.78q-.51-.74.23-1.1a1.65,1.65,0,0,1,.83-.18L455,77.9l1.56-.12,3.08-.41a1.44,1.44,0,0,1,1.06.16,3.36,3.36,0,0,1,.74,1.13,7.07,7.07,0,0,1,.37,1.24,5.76,5.76,0,0,1,0,1.2c0,.25-.08.61-.16,1.08a7.46,7.46,0,0,0-.11,1.08,31.93,31.93,0,0,1-.78,5.66,9.4,9.4,0,0,0-.32,1.33,10.5,10.5,0,0,1-3.4,5,3.9,3.9,0,0,1-1.29.83,5.85,5.85,0,0,1-4.28.28q-.23-.09-2.35-1.33A10.27,10.27,0,0,1,446,92a6,6,0,0,1-1-3.17q-.09-1.38-.32-3.68A65.05,65.05,0,0,1,446.17,72.77Z"/><path d="M470.92,66.33a43.84,43.84,0,0,0-.46,6.53l-.14,7.87v5.15q0,1-.09,2.88t-.09,2.88c0,.31,0,.77,0,1.38s0,1.07,0,1.38A1.15,1.15,0,0,1,470,95a1.59,1.59,0,0,1-.53.32,8.18,8.18,0,0,1-2.16.55q-.6,0-1.75,0a.49.49,0,0,1-.46-.23,3.53,3.53,0,0,1-.51-1.89c0-.21.05-.54.07-1s0-.75,0-1q0-1.15.18-13.66,0-4.14.28-8.37,0-.83.18-2.55t.18-2.6q0-.6,0-1.79a1.17,1.17,0,0,1,.87-1.29,2.9,2.9,0,0,1,1.56-.18,5.73,5.73,0,0,1,2.25.69,1.85,1.85,0,0,1,.85.62,3,3,0,0,1,.16,1.22Q471.06,65.55,470.92,66.33Z"/><path d="M481.54,77.6a9.37,9.37,0,0,1,1.52-.18q1,0,.74,1.06-.32,1.29-1.47,1.15-.23,0-1.84.23-.51,0-.51.64,0,3.77-.23,11.55,0,.46,0,1.4t0,1.4a1.6,1.6,0,0,1-.09.64.6.6,0,0,1-.21.25,2.48,2.48,0,0,1-.62.16,11.71,11.71,0,0,1-1.89.18q-1.24,0-1.61.09a.6.6,0,0,1-.74-.37,4.24,4.24,0,0,1-.46-1.7q0-.87,0-2.67t0-2.71q.37-10.9.37-12.33,0-.83.18-5.93l.41-6.49q.09-.78.51-.92a11.82,11.82,0,0,1,1.2-.37l.9,0c.41,0,.73,0,.94,0a10.87,10.87,0,0,0,1.66-.09,8.06,8.06,0,0,0,1-.09,8.47,8.47,0,0,1,.85-.09q.46-.09,1.47-.18l.6-.09.41,0c.06,0,.54-.09,1.43-.28a4.91,4.91,0,0,1,1.1-.09.53.53,0,0,1,.37.09q.23.09.14.69a2.26,2.26,0,0,0,0,.74q.09.37-.37.46l-1,.16-1.13.16q-2.44.18-3.5.32a1.58,1.58,0,0,0-.83.28,1.49,1.49,0,0,0-.23.87q0,1.15-.21,3.54t-.25,3.63q-.14,2.07-.14,4c0,.09,0,.23,0,.41s0,.34,0,.46Q481.22,77.6,481.54,77.6Z"/><path d="M496.45,68.31q0-1.06,0-1.61v-.64a1.46,1.46,0,0,0-.21-.78.81.81,0,0,0-.62-.18h-3a7,7,0,0,1-.92,0,.73.73,0,0,1-.53-.44,1.26,1.26,0,0,1-.16-.76.73.73,0,0,1,.78-.74q.51,0,1.45,0l1.73.07,1.47,0a13.51,13.51,0,0,0,3.08-.23,23.36,23.36,0,0,1,5.38-.46q.83,0,2.35-.09t2-.09a1.19,1.19,0,0,1,1.2,1.06q.14.55-.28.69l-.23,0-.23,0-6.26.14h-.37q-.69,0-.85.28a2.1,2.1,0,0,0-.07,1.15,6,6,0,0,1,0,.87q-.09,1.84-.18,2.76t-.23,2.67q0,.51-.14,1.43t-.16,1.66q-.07.74-.12,1.43-.37,5.29-.51,7.68-.23,3.13-.46,5.61t-.23,3.36q0,.23,0,.74c0,.34,0,.6,0,.78a1,1,0,0,1-.55.87A6.55,6.55,0,0,1,498,96q-1,.14-1.36.23a2.33,2.33,0,0,1-1.1-.14q-.87-.28-.78-1.52.09-1.06.41-4.16t.46-5.22q.23-2.85.51-8.74,0-.92.14-2.78t.14-2.78v-1h0Q496.4,69.37,496.45,68.31Z"/><path d="M531.13,79.35a6.25,6.25,0,0,1,.14,1,8.16,8.16,0,0,0,.09.87,30.88,30.88,0,0,1-1.29,7.31,9.82,9.82,0,0,1-.46,1.13,8.35,8.35,0,0,1-.48.9l-.67,1q-.46.69-.6.87a12.82,12.82,0,0,1-3.63,3.63l-.09,0a4.34,4.34,0,0,1-1,.48,9.45,9.45,0,0,1-1.77.35,6.79,6.79,0,0,1-2.74-.35A11.71,11.71,0,0,1,515.35,95a9.3,9.3,0,0,1-1.47-3.06,12.91,12.91,0,0,1-.55-2.87V87.91l.14-.69a12.67,12.67,0,0,1,.46-1.56q.28-.69,1-.28c.21.09.32.21.32.37l0,.18q0,.14-.14.48a5.66,5.66,0,0,0-.14.67,5.33,5.33,0,0,0-.14,2.48,5.15,5.15,0,0,0,4.65,5.06,3.48,3.48,0,0,0,2.9-.57A4.73,4.73,0,0,0,524,91.47a18.38,18.38,0,0,0,.6-3.24,22.44,22.44,0,0,0,0-3.22,13.5,13.5,0,0,0-.18-2.3l-.14-.69q-.87-3.73-3.73-4.51L518.48,77a4.52,4.52,0,0,1-2.85-4.37,10.76,10.76,0,0,1,.74-3.5A12.37,12.37,0,0,1,518,66,7.49,7.49,0,0,1,522.3,63a23.59,23.59,0,0,1,2.9-.55,5.36,5.36,0,0,1,3.27,1,5.79,5.79,0,0,1,1.61,1.33,2,2,0,0,1,.23.41q.09.46,0,.55a.45.45,0,0,1-.41.23,1.55,1.55,0,0,1-.6-.41A8.21,8.21,0,0,0,527,64.12a3.92,3.92,0,0,0-3.08,0,10.36,10.36,0,0,0-2.76,1.24,6.86,6.86,0,0,0-2.76,3.4,10.87,10.87,0,0,0-1,2.94,2.52,2.52,0,0,0-.09.51,1.74,1.74,0,0,0,.25,1.22,1,1,0,0,0,.94.25,24.89,24.89,0,0,1,3.31-.14q.46,0,1.59-.09a11.84,11.84,0,0,1,1.72,0,5.51,5.51,0,0,1,4.19,2.25A8.21,8.21,0,0,1,531.13,79.35Z"/><path d="M174.06,123.51q0-1.06,0-1.61v-.64a1.47,1.47,0,0,0-.21-.78.81.81,0,0,0-.62-.18h-3a6.94,6.94,0,0,1-.92,0,.73.73,0,0,1-.53-.44,1.26,1.26,0,0,1-.16-.76.73.73,0,0,1,.78-.74q.51,0,1.45,0l1.73.07,1.47,0a13.52,13.52,0,0,0,3.08-.23,23.35,23.35,0,0,1,5.38-.46q.83,0,2.35-.09t2-.09a1.19,1.19,0,0,1,1.2,1.06q.14.55-.28.69l-.23,0-.23,0-6.26.14h-.37q-.69,0-.85.28a2.1,2.1,0,0,0-.07,1.15,6,6,0,0,1,0,.87q-.09,1.84-.18,2.76t-.23,2.67q0,.51-.14,1.43t-.16,1.66q-.07.74-.11,1.43-.37,5.29-.51,7.68-.23,3.13-.46,5.61t-.23,3.36q0,.23,0,.74c0,.34,0,.6,0,.78a1,1,0,0,1-.55.87,6.54,6.54,0,0,1-1.54.37q-1,.14-1.36.23a2.34,2.34,0,0,1-1.1-.14q-.87-.28-.78-1.52.09-1.06.41-4.16t.46-5.22q.23-2.85.51-8.74l.14-2.78.14-2.78v-1h0Q174,124.57,174.06,123.51Z"/><path d="M187.36,140.53q-.46-4-.51-4.65a25.36,25.36,0,0,1,1.38-10.63,16.2,16.2,0,0,1,2.25-4.37q.23-.23.67-.71l.67-.76a2.66,2.66,0,0,0,.74-1,.57.57,0,0,1,.37-.41l.83-.16a7.77,7.77,0,0,0,.83-.21,2.43,2.43,0,0,1,1.08-.07l1.06.12q.3,0,1.06.23t1.08.23a4.43,4.43,0,0,1,3.17,2.48,41.9,41.9,0,0,1,3,8.1,26.32,26.32,0,0,1,.41,9.57q-.46,3.31-.6,4a13.36,13.36,0,0,1-.69,2.44q-.74,2.12-1.15,3.13a5.72,5.72,0,0,1-2.35,2.58l-1.2.64q-.78.41-1.15.64t-.6.18l-1.31,0q-1.17,0-1.31-.14a5.81,5.81,0,0,0-1.93-.32,3.63,3.63,0,0,1-3.27-2.3q-.32-.69-1.52-3.5A36.8,36.8,0,0,1,187.36,140.53Zm11.48-15.73q-.39-.87-.92-1.93t-.8-1.66a1,1,0,0,0-.64-.64,7.07,7.07,0,0,0-1.79-.55,1.38,1.38,0,0,0-1,.23,6.74,6.74,0,0,0-2.48,2.85,21.28,21.28,0,0,0-2.12,6.85,31.62,31.62,0,0,0-.28,5.57q.32,3.54,1.06,7.41a27,27,0,0,0,1.7,5.11q.55,1.15,1.43,1.1h1.43a1.74,1.74,0,0,0,.69-.09,6.28,6.28,0,0,0,3.63-3.5,38.63,38.63,0,0,0,1.29-4.23q0-.14.55-3.4a23.37,23.37,0,0,0,0-6.07,20.22,20.22,0,0,0-1.2-5.34A9,9,0,0,0,198.83,124.8Z"/><path d="M225.86,123.51q0-1.06,0-1.61v-.64a1.47,1.47,0,0,0-.21-.78.81.81,0,0,0-.62-.18h-3a6.94,6.94,0,0,1-.92,0,.73.73,0,0,1-.53-.44,1.26,1.26,0,0,1-.16-.76.73.73,0,0,1,.78-.74q.51,0,1.45,0l1.73.07,1.47,0a13.52,13.52,0,0,0,3.08-.23,23.35,23.35,0,0,1,5.38-.46q.83,0,2.35-.09t2-.09a1.19,1.19,0,0,1,1.2,1.06q.14.55-.28.69l-.23,0-.23,0-6.26.14h-.37q-.69,0-.85.28a2.1,2.1,0,0,0-.07,1.15,6,6,0,0,1,0,.87q-.09,1.84-.18,2.76t-.23,2.67q0,.51-.14,1.43t-.16,1.66q-.07.74-.11,1.43-.37,5.29-.51,7.68-.23,3.13-.46,5.61t-.23,3.36q0,.23,0,.74c0,.34,0,.6,0,.78a1,1,0,0,1-.55.87,6.54,6.54,0,0,1-1.54.37q-1,.14-1.36.23a2.34,2.34,0,0,1-1.1-.14q-.87-.28-.78-1.52.09-1.06.41-4.16t.46-5.22q.23-2.85.51-8.74l.14-2.78.14-2.78v-1h0Q225.81,124.57,225.86,123.51Z"/><path d="M250.51,140.65q.09-3.2.14-4.76a1.29,1.29,0,0,0-.11-.67c-.08-.11-.25-.16-.53-.16a22.42,22.42,0,0,1-3-.18q-.78-.14-.83.64-.41,5.7-.51,7,0,.74-.18,2.21t-.18,2.21a6.81,6.81,0,0,0,0,1.29l0,1.29a1.49,1.49,0,0,1-.11.55,1.34,1.34,0,0,1-.53.23,30.4,30.4,0,0,1-3.59.55,1.43,1.43,0,0,1-1.13-.41,1.33,1.33,0,0,1-.44-1.1q.28-5.8.28-5.89.46-6.72.64-9.75l.41-5.38q.09-.83.23-2.39t.18-2.39q0-.51.18-1.5t.18-1.45q.09-1.47.09-2.25a1.11,1.11,0,0,1,.87-1.1,6.52,6.52,0,0,1,3.54.18l.32.09a2.09,2.09,0,0,1,1,.6,2.41,2.41,0,0,1,.11,1.15q0,.78-.21,2.23t-.21,1.68q-.09,1.15-.3,3.38t-.3,3.24q0,.55-.18,2.58a1,1,0,0,0,.07.62,1,1,0,0,0,.58.25,21.12,21.12,0,0,0,3.08.14q.64,0,.69-.55a21.73,21.73,0,0,0,.14-2.39q0-1.24.16-3.7t.16-3.7q0-.78,0-2.28t0-2.28a1.83,1.83,0,0,1,0-.51.6.6,0,0,1,.44-.57.72.72,0,0,1,.71.16,2.69,2.69,0,0,1,1.06,2.16q-.09,1.24-.12,3.47t-.07,3.1l-.28,5.52c0,.18,0,.46,0,.83s0,.64,0,.83q0,1-.09,3.06t-.09,3.06.14,8.1q0,.28,0,1a6.77,6.77,0,0,0,0,1.13.86.86,0,0,1-.55.74,1.39,1.39,0,0,1-1.47-.09,1.58,1.58,0,0,1-.55-1.43,12,12,0,0,0,.14-1.79q0-.6-.09-1.79a0,0,0,0,0,0,0Z"/><path d="M262,149l2.62-.39,2.62-.39h.18q.92-.09,1.15.14t.14,1.15a.62.62,0,0,1-.46.74l-.28,0-.28,0a45.29,45.29,0,0,0-5.66.74,7.07,7.07,0,0,1-1.22.12,8,8,0,0,0-1,.07q-1.2,0-1.84,0a1.58,1.58,0,0,1-1.79-1.38,3.11,3.11,0,0,1-.09-1.52q.6-3.73.92-8.51,0-.87.11-2.58t.12-2.53.41-6.12q0-1.43.23-4.28.14-1.75.32-5.24a1.19,1.19,0,0,1,.41-.83,3.92,3.92,0,0,1,2-.78l2-.16,2.32-.16a6.79,6.79,0,0,1,.9,0,10.3,10.3,0,0,0,1,0,4,4,0,0,0,.87-.18h.41a1.9,1.9,0,0,1,.81.21,1.53,1.53,0,0,1,.11.8,1.84,1.84,0,0,1-.14.94q-.14.16-.92.21-2.39.09-3.59.18a.92.92,0,0,0-.58.18,1.46,1.46,0,0,0-.16.69l-.55,6.62s0,.89-.14,2.58l-.14,2.9q0,.64.14.76t.74,0l2.67-.28a1,1,0,0,1,.64.07,1.46,1.46,0,0,1,.28.67,1.52,1.52,0,0,1,.09.37c0,.43-.14.66-.51.69s-1,.12-1.75.18-1.58.12-2,.18-.51.32-.51.78-.06,1-.09,1.7,0,1.3,0,1.7q-.46,5.84-.64,6.81-.09.55-.21,1.7t-.16,1.38A1.26,1.26,0,0,0,262,149Z"/><path d="M278.53,121.53a43.7,43.7,0,0,0-.46,6.53l-.14,7.87v5.15q0,1-.09,2.88t-.09,2.88q0,.46,0,1.38t0,1.38a1.15,1.15,0,0,1-.11.64,1.59,1.59,0,0,1-.53.32,8.18,8.18,0,0,1-2.16.55q-.6,0-1.75,0a.49.49,0,0,1-.46-.23,3.53,3.53,0,0,1-.51-1.89q0-.32.07-1t0-1q0-1.15.18-13.66,0-4.14.28-8.37,0-.83.18-2.55t.18-2.6q0-.6,0-1.79a1.17,1.17,0,0,1,.87-1.29,2.9,2.9,0,0,1,1.56-.18,5.73,5.73,0,0,1,2.25.69,1.86,1.86,0,0,1,.85.62,3,3,0,0,1,.16,1.22Q278.66,120.75,278.53,121.53Z"/><path d="M288.92,135.35a4.3,4.3,0,0,0-.64.48,1.25,1.25,0,0,0-.32.6,12.25,12.25,0,0,0-.09,1.24q-.18,3.27-.46,9.8l-.14,2.76a1,1,0,0,1-.6.87,10,10,0,0,1-1.08.41q-.58.18-1.31.35l-1.1.25a.88.88,0,0,1-.57,0,1.39,1.39,0,0,1-.39-.55,2.06,2.06,0,0,0-.32-.51,1.85,1.85,0,0,1-.28-1.33l.41-5.24q.37-5.06.51-7.59.14-1.56.32-4.69.37-3.82.51-6,0-.92,0-2.76c0-.18,0-.56,0-1.13s0-1,.07-1.31a1.23,1.23,0,0,0-.37-1.06.66.66,0,0,1-.37-.78.78.78,0,0,1,.64-.64q.46-.09,1.26-.3l1.47-.37,1.26-.3a24.92,24.92,0,0,1,4.69-.46,6.84,6.84,0,0,1,3,.78,3.92,3.92,0,0,1,1.56,1.79,7.63,7.63,0,0,1,.51,5.7,10.42,10.42,0,0,1-2.44,4.46q-.37.41-1,1.22T293,132q-.18.23-.64.69a1.3,1.3,0,0,0-.46,1.33l.48,2.23q.39,1.82.62,2.83t2.07,8.65q.09.28.35,1.1t.34,1.29a1.71,1.71,0,0,1-.16,1.31,1.29,1.29,0,0,1-.94.71.29.29,0,0,1-.37-.09,2.48,2.48,0,0,1-.92-1.38q-.28-1.66-.67-3.45t-.92-4q-.53-2.23-.76-3.38-.18-.83-.6-2.32t-.55-2l-.28-.6A4.3,4.3,0,0,1,288.92,135.35Zm-.6-2.37.6-.41a5.32,5.32,0,0,0,.69-.55,33.05,33.05,0,0,0,4.37-5,9.39,9.39,0,0,0,1.52-5.06q.14-2.53-2.21-2.85-.69,0-4,0a2.21,2.21,0,0,0-.55.23,4,4,0,0,1,.34,1,8.61,8.61,0,0,1-.07,1.2.63.63,0,0,0,0,.28v.28q-.37,4.6-.51,6.85-.14,1.29-.32,3.86A.74.74,0,0,1,288.32,133Z"/><path d="M327.24,128.2a18,18,0,0,1-2.67,4.23,14.5,14.5,0,0,1-1.08,1.15q-.62.6-1,.9t-1.24,1l-1.08.83q-.51.46-1.29,1.06a1.2,1.2,0,0,0-.41,1q-.23,3-.23,3.59,0,.87,0,2.62t0,2.62q0,1.15-.09,3.27a.58.58,0,0,1-.32.6,3.33,3.33,0,0,1-.83.32l-1.17.25-1.13.25-.18,0-.18,0h-.58l-.18,0a.29.29,0,0,1-.21-.09.77.77,0,0,0-.16-.16.64.64,0,0,1-.18-.25l-.16-.39a3.66,3.66,0,0,1-.32-2.07q0-.73.07-2.09t0-1.77q0-2.21,0-3.36l.41-6.07q.23-3.31.28-6.53v-1.93q0-.92.07-2.76t.12-2.76v-1.38a.67.67,0,0,0-.51-.74l-.41-.14a.68.68,0,0,1-.35-.6.59.59,0,0,1,.3-.6,3.13,3.13,0,0,1,.55-.23,17.78,17.78,0,0,1,4.6-.87q2.25-.09,2.9,0a6.36,6.36,0,0,1,2.9.74,3.21,3.21,0,0,0,.46.23,4.29,4.29,0,0,1,2.94,2.21q.14.28.6,1.47a11.75,11.75,0,0,1,.64,2.94A8.59,8.59,0,0,1,327.24,128.2ZM319.6,134a21,21,0,0,0,3.22-3.08,15,15,0,0,0,3.13-5.8,4.55,4.55,0,0,0,0-2.71,11.26,11.26,0,0,0-.37-1.1,2.12,2.12,0,0,0-1.06-1.29q-2-.87-2.3-1t-2.16-.32a.55.55,0,0,0-.51.11,1,1,0,0,0-.14.62v.69q-.09,1.2-.25,3.56t-.21,3.52q-.14,2.3-.23,6.81v.12a.25.25,0,0,0,0,.11.73.73,0,0,1,0,.14.74.74,0,0,1,0,.18A8.8,8.8,0,0,0,319.6,134Z"/><path d="M336.67,149l2.62-.39,2.62-.39h.18q.92-.09,1.15.14t.14,1.15a.62.62,0,0,1-.46.74l-.28,0-.28,0a45.31,45.31,0,0,0-5.66.74,7.06,7.06,0,0,1-1.22.12,8,8,0,0,0-1,.07q-1.2,0-1.84,0a1.58,1.58,0,0,1-1.79-1.38,3.1,3.1,0,0,1-.09-1.52q.6-3.73.92-8.51,0-.87.11-2.58t.12-2.53.41-6.12q0-1.43.23-4.28.14-1.75.32-5.24a1.19,1.19,0,0,1,.41-.83,3.92,3.92,0,0,1,2-.78l2-.16,2.32-.16a6.8,6.8,0,0,1,.9,0,10.31,10.31,0,0,0,1,0,4,4,0,0,0,.87-.18h.41a1.9,1.9,0,0,1,.8.21,1.53,1.53,0,0,1,.12.8,1.83,1.83,0,0,1-.14.94q-.14.16-.92.21-2.39.09-3.59.18a.92.92,0,0,0-.58.18,1.47,1.47,0,0,0-.16.69l-.55,6.62s0,.89-.14,2.58l-.14,2.9q0,.64.14.76t.74,0l2.67-.28a1,1,0,0,1,.64.07,1.46,1.46,0,0,1,.28.67,1.54,1.54,0,0,1,.09.37q0,.64-.51.69t-1.75.18q-1.38.09-2,.18c-.34.06-.51.32-.51.78s-.06,1-.09,1.7,0,1.3,0,1.7q-.46,5.84-.64,6.81-.09.55-.21,1.7t-.16,1.38A1.26,1.26,0,0,0,336.67,149Z"/><path d="M352.17,123.51c0-.71,0-1.24,0-1.61v-.64a1.47,1.47,0,0,0-.21-.78.81.81,0,0,0-.62-.18h-3a6.93,6.93,0,0,1-.92,0,.73.73,0,0,1-.53-.44,1.27,1.27,0,0,1-.16-.76.73.73,0,0,1,.78-.74q.51,0,1.45,0l1.72.07,1.47,0a13.52,13.52,0,0,0,3.08-.23,23.35,23.35,0,0,1,5.38-.46q.83,0,2.35-.09t2-.09a1.19,1.19,0,0,1,1.2,1.06c.09.37,0,.6-.28.69l-.23,0-.23,0-6.26.14h-.37q-.69,0-.85.28A2.1,2.1,0,0,0,358,121a6.1,6.1,0,0,1,0,.87q-.09,1.84-.18,2.76t-.23,2.67q0,.51-.14,1.43t-.16,1.66q-.07.74-.11,1.43-.37,5.29-.51,7.68-.23,3.13-.46,5.61t-.23,3.36q0,.23,0,.74c0,.34,0,.6,0,.78a1,1,0,0,1-.55.87,6.54,6.54,0,0,1-1.54.37q-1,.14-1.36.23a2.34,2.34,0,0,1-1.1-.14q-.87-.28-.78-1.52.09-1.06.41-4.16t.46-5.22q.23-2.85.51-8.74l.14-2.78.14-2.78v-1h0Q352.12,124.57,352.17,123.51Z"/><path d="M386.85,134.55a6.38,6.38,0,0,1,.14,1,8.16,8.16,0,0,0,.09.87,30.88,30.88,0,0,1-1.29,7.31,9.64,9.64,0,0,1-.46,1.13,8.55,8.55,0,0,1-.48.9l-.67,1q-.46.69-.6.87a12.82,12.82,0,0,1-3.63,3.63l-.09,0a4.34,4.34,0,0,1-1,.48,9.45,9.45,0,0,1-1.77.35,6.79,6.79,0,0,1-2.74-.35,11.71,11.71,0,0,1-3.24-1.63,9.28,9.28,0,0,1-1.47-3.06,12.92,12.92,0,0,1-.55-2.87v-1.15l.14-.69a12.34,12.34,0,0,1,.46-1.56q.28-.69,1-.28c.21.09.32.21.32.37l0,.18q0,.14-.14.48a5.66,5.66,0,0,0-.14.67,5.31,5.31,0,0,0-.14,2.48,5.15,5.15,0,0,0,4.65,5.06,3.48,3.48,0,0,0,2.9-.57,4.73,4.73,0,0,0,1.61-2.58,18.39,18.39,0,0,0,.6-3.24,22.58,22.58,0,0,0,0-3.22,13.4,13.4,0,0,0-.18-2.3l-.14-.69q-.87-3.73-3.73-4.51l-2.07-.55a4.52,4.52,0,0,1-2.85-4.37,10.73,10.73,0,0,1,.74-3.5,12.37,12.37,0,0,1,1.61-3.13,7.49,7.49,0,0,1,4.32-2.94,23.61,23.61,0,0,1,2.9-.55,5.37,5.37,0,0,1,3.27,1A5.79,5.79,0,0,1,385.8,120a2.09,2.09,0,0,1,.23.41q.09.46,0,.55a.45.45,0,0,1-.41.23,1.56,1.56,0,0,1-.6-.41,8.2,8.2,0,0,0-2.25-1.43,3.91,3.91,0,0,0-3.08,0,10.36,10.36,0,0,0-2.76,1.24,6.86,6.86,0,0,0-2.76,3.4,10.82,10.82,0,0,0-1,2.94,2.45,2.45,0,0,0-.09.51,1.73,1.73,0,0,0,.25,1.22,1,1,0,0,0,.94.25,24.89,24.89,0,0,1,3.31-.14q.46,0,1.59-.09a11.84,11.84,0,0,1,1.72,0,5.51,5.51,0,0,1,4.19,2.25A8.23,8.23,0,0,1,386.85,134.55Z"/><path d="M390.49,148.12a.66.66,0,0,1,.78-.18,3.09,3.09,0,0,1,.74.18,1.35,1.35,0,0,1,1.15,1.33,2.74,2.74,0,0,1,0,1.29q-.46.87-1.2.64a8.33,8.33,0,0,1-1.66-.83,1,1,0,0,1-.41-1.06A1.89,1.89,0,0,1,390.49,148.12Z"/></svg>