<?xml version="1.0" encoding="utf-8"?>
<!-- Generator: Adobe Illustrator 21.0.2, SVG Export Plug-In . SVG Version: 6.00 Build 0)  -->
<svg version="1.1" id="Layer_1" xmlns="http://www.w3.org/2000/svg" xmlns:xlink="http://www.w3.org/1999/xlink" x="0px" y="0px"
	 viewBox="0 0 220 253" style="enable-background:new 0 0 220 253;" xml:space="preserve">
<style type="text/css">
	.st0{fill:#99795F;stroke:#99795F;stroke-width:1.3342;stroke-miterlimit:10;}
	.st1{fill:#99795F;stroke:#99795F;stroke-miterlimit:10;}
	.st2{fill:#99795F;}
	.st3{fill:#FFB7AC;}
	.st4{fill:#56351E;}
	.st5{fill:#FF0E4C;}
	.st6{fill:none;stroke:#070707;stroke-width:0.5;stroke-miterlimit:10;}
	.st7{fill:#070707;}
	.st8{fill:none;stroke:#070707;stroke-miterlimit:10;}
	.st9{fill:none;stroke:#000000;stroke-width:0.5;stroke-miterlimit:10;}
</style>
<path class="st0" d="M82.1,133l2.1,15.9c0.1,0.7-0.9,1.2-1.3,0.6c-3.1-3.8-10.9-10.9-28.5-14.5c-0.5-0.1-0.7-0.7-0.2-1.1
	c1.8-1.7,1.9-4.8,6.1-11c0.3-0.5,0.7-0.8,1.1-0.6c3.5,2.1,15.1,8.8,20.2,10.1C81.9,132.6,82,132.8,82.1,133z"/>
<path class="st1" d="M148.4,127.9l11.9,6c0.5,0.2,0,0-0.6,0c-4,0.3-12.2,2-22.6,10.6c-0.3,0.3-0.8,0.1-0.9-0.3
	c-0.3-1.7-2.3-3-4.5-7.8c-0.2-0.4-0.2-0.7,0.1-0.9c3-1.2,12.8-5.2,16-7.6C148.1,127.9,148.3,127.8,148.4,127.9z"/>
<path class="st2" d="M38.1,57.7c0,0-16.9-13.1-0.3-30.8c0,0,19.3-17.6,35.9,7.4c0,0,34.7-7.4,67.7,18c0,0,16-14.4,29.3,0
	c0,0,14,16.1-7.3,30.9c0,0,7,43.2-32,52.8c0,0-18-26.4-48.7-2c0,0-24.7-9.7-28-13.3C51.4,117,14.1,91.7,38.1,57.7z"/>
<path class="st3" d="M46.6,50.9c0,0-8.9-13.5,1.9-18.4s16.2,5.5,16.2,5.5S56,49.6,46.6,50.9z"/>
<path class="st3" d="M149.4,57.9c0,0,12.1-9.4,15.9,1.5s-4.9,14.9-4.9,14.9S149.8,67.1,149.4,57.9z"/>
<path class="st2" d="M60.5,124.3c0,0,1.7,14.9,18,17.6c16.3,2.7,42.9,9.9,28.6,39.4c0,0-36.1,6.3-53.2-36.7
	C53.9,144.5,43.2,111.9,60.5,124.3z"/>
<path class="st4" d="M91.7,189.7c0,0-48.6-0.3-41.1-61.8c0,0,9.8,56.1,56.5,53.3C107.1,181.2,97.3,190.3,91.7,189.7z"/>
<path class="st5" d="M136.8,145.3c0,0-6.7-21.5-28.1-21.8s-28.9,12.6-30.2,18.3c0,0,30.2,4,31.5,27.7c0,0,0.5,16.2-18.8,20.4
	c0,0,22.2,35.8,26.6,36.5c0,0,53.8-21.3,69.3-57.6c0,0,9.7-15.8-10.5-29.8S136.8,145.3,136.8,145.3z"/>
<path class="st0" d="M51.1,153.7c0,0-11.5,21-4.8,40.3c0,0,7.5,20.2,6.1,38.9c0,0,21-16.3,57.6-14.9l-18.8-28.1
	C91.2,189.9,61.1,189.9,51.1,153.7z"/>
<path class="st2" d="M46.3,191.8c0,0-6.7-9.1-20.8-10.2s-29.9,42.4,17.6,57.9C43.2,239.5,67.9,237.7,46.3,191.8z"/>
<path class="st4" d="M24.3,196.3c0,0-6.1,27.7,12.3,29.3S34.6,188.7,24.3,196.3z"/>
<path class="st2" d="M132.8,219.3c0,0,18.1,4.7,22.1,8.5s22.8,9.5,30.2,0s20.5-34.8,20.5-34.8s-10.7-18.4-35,4.8l-5.4-0.4
	L132.8,219.3z"/>
<path class="st4" d="M205.6,192.9l-20.5,34.8C185.1,227.8,199.9,221.3,205.6,192.9z"/>
<path class="st6" d="M84.2,180.8c0,0,4.7-1.2,4.1-7.2"/>
<path class="st6" d="M88.3,182.3c0,0,4.3-0.1,3.9-7.4"/>
<path class="st6" d="M170.6,197.8c0,0-10.6,11.2-11.6,20.9"/>
<path class="st6" d="M195.4,188.8c0,0,0.7-2.6,2.2-2.1"/>
<path class="st6" d="M201.7,188.8c0,0-3.7,0.5-3.2,2.2"/>
<path class="st6" d="M17.2,191.7c0,0,3.2-2,5.2-0.7"/>
<path class="st6" d="M18.9,188.8c0,0,1.8-2.9,4.5-1.1"/>
<path class="st7" d="M87.6,63.3c0,0-4.5,0.3-6.7,5.5c-2.2,5.2,1.7,6.7,1.7,6.7s5.5-0.2,6.5-4.8C90.1,66,90.9,66,87.6,63.3z"/>
<path class="st7" d="M127.9,76.2c0,0-5.2,2.2-4.7,6.8s2.3,5.7,2.3,5.7s4.9-0.8,4.9-6.2C130.4,77,127.9,76.2,127.9,76.2z"/>
<path class="st7" d="M129.4,65.2c0,0,6.3,1.5,7.5,9.1c0,0,2.2-4.2,0-6.6C134.7,65.3,132.1,64.3,129.4,65.2z"/>
<path class="st7" d="M80.2,56.7c0,0,5.8-3.8,13.7-2.5c0,0-1.5-3.6-6.8-3.3S80.2,56.7,80.2,56.7z"/>
<path class="st4" d="M108.6,79.7c0,0-43.8-14.2-46.5,20.5c0,0,1.9,21.6,28.2,27.4c0,0,14.8-8.5,30.9-1c0,0,15.8-9.3,10.5-24.3
	C126.4,87.2,108.6,79.7,108.6,79.7z"/>
<path class="st8" d="M105.4,117.8c-7.5,4.3-13.1,1.3-13.1,1.3c7-3,10.4-23.8,10.4-23.8"/>
<path d="M107.1,83.1c0,0-17.8-4-14.8,4s15.3,11.2,23.5,7.2C115.7,94.3,120.6,88.9,107.1,83.1z"/>
<path class="st9" d="M46.3,194c0,0,10.9,13.8,8.9,31.6"/>
</svg>
