<?xml version="1.0" encoding="utf-8"?>
<!-- Generator: Adobe Illustrator 21.0.2, SVG Export Plug-In . SVG Version: 6.00 Build 0)  -->
<svg version="1.1" id="bedroom" xmlns="http://www.w3.org/2000/svg" xmlns:xlink="http://www.w3.org/1999/xlink" x="0px" y="0px"
	 viewBox="0 0 1470 1063.4" style="enable-background:new 0 0 1470 1063.4;" xml:space="preserve">
<style type="text/css">
	.st0{fill:#FFC7C7;}
	.st1{fill:#FACFD0;}
	.st2{fill:#EDF1F9;}
	.st3{fill:#EE85A0;}
	.st4{fill:#FFBAB1;}
	.st5{clip-path:url(#SVGID_2_);}
	.st6{clip-path:url(#SVGID_4_);fill:#99795F;}
	.st7{clip-path:url(#SVGID_4_);fill:none;stroke:#99795F;stroke-width:1.5309;stroke-miterlimit:10;}
	.st8{clip-path:url(#SVGID_4_);fill:none;stroke:#99795F;stroke-width:1.1476;stroke-miterlimit:10;}
	.st9{clip-path:url(#SVGID_4_);fill:#FFB7AC;}
	.st10{clip-path:url(#SVGID_4_);fill:#56351E;}
	.st11{clip-path:url(#SVGID_4_);fill:#FF0E4C;}
	.st12{clip-path:url(#SVGID_4_);fill:none;stroke:#070707;stroke-width:0.5738;stroke-miterlimit:10;}
	.st13{clip-path:url(#SVGID_4_);fill:#070707;}
	.st14{clip-path:url(#SVGID_4_);fill:none;stroke:#070707;stroke-width:1.1476;stroke-miterlimit:10;}
	.st15{clip-path:url(#SVGID_4_);}
	.st16{clip-path:url(#SVGID_4_);fill:none;stroke:#000000;stroke-width:0.5738;stroke-miterlimit:10;}
	.st17{fill:#6C86CC;stroke:#000000;stroke-width:0.7934;stroke-miterlimit:10;}
	.st18{fill:url(#SVGID_5_);stroke:#020202;stroke-width:0.7934;stroke-miterlimit:10;}
	.st19{fill:#A5B3CE;stroke:#020202;stroke-width:0.7934;stroke-miterlimit:10;}
	.st20{fill:#FFAEFF;stroke:#020202;stroke-width:0.7934;stroke-miterlimit:10;}
	.st21{fill:none;stroke:#020202;stroke-width:0.7934;stroke-miterlimit:10;}
	.st22{fill:#FFC9FF;stroke:#020202;stroke-width:0.7934;stroke-miterlimit:10;}
</style>
<rect x="-0.5" y="659" class="st0" width="1471" height="402.1"/>
<g id="wall">
	<rect x="-0.5" class="st1" width="19" height="659"/>
	<rect x="58.5" class="st1" width="50" height="659"/>
	<rect x="158.5" class="st1" width="50" height="659"/>
	<rect x="258.5" class="st1" width="50" height="659"/>
	<rect x="358.5" class="st1" width="50" height="659"/>
	<rect x="458.5" class="st1" width="50" height="659"/>
	<rect x="558.5" class="st1" width="50" height="659"/>
	<rect x="658.5" class="st1" width="50" height="659"/>
	<rect x="758.5" class="st1" width="50" height="659"/>
	<rect x="858.5" class="st1" width="50" height="659"/>
	<rect x="958.5" class="st1" width="50" height="659"/>
	<rect x="1058.5" class="st1" width="50" height="659"/>
	<rect x="1158.5" class="st1" width="50" height="659"/>
	<rect x="1258.5" class="st1" width="50" height="659"/>
	<rect x="1358.5" class="st1" width="50" height="659"/>
	<rect x="1451.5" class="st1" width="19" height="659"/>
</g>
<g id="bed">
	<path class="st2" d="M546,559l-95.2,35c0,0-13,8.8-14.2,15s-7,64.9-3.8,70.2c5.3,8.9,642-4.2,642-4.2s12-23-6-71.3
		c0,0-55-33.3-104-41.7S546,559,546,559z"/>
	<path class="st3" d="M513.3,416.9c0,0-2.7-18.2,11-17.4c13.2,0.8,441.6,2.4,468.4,2.5c0.6,0,1.2,0,1.8-0.1c1.8-0.2,8.1,0.1,7.5,15
		l0.7,155.1l-15.7-5l-0.3-21.5l-459-1.2l1.3,16.1l-15.9,7.4L513.3,416.9z"/>
	<path class="st4" d="M534,416.9l449.5,3.3c0,0,5.2-0.8,4.8,13.2c-0.3,14.1-1.7,112.1-1.7,112.1l-459-1.2V426
		C527.7,426,528.3,416.9,534,416.9z"/>
	<path class="st1" d="M535.7,561.3l211.2,2.8c4.9,0.1,9.5-2.5,11.9-6.8c6.5-11.4,9.2-24.7-33.7-37.1c-0.4-0.1-0.8-0.1-1.2-0.2
		c-6.4-1.3-65.4,0.2-133.9,0.1c-36-0.1-53.2,15.1-61.5,22.9C521.6,549.6,526.2,561.2,535.7,561.3z"/>
	<path class="st1" d="M759.4,530.2c-13.7,13.2-4.4,36.3,14.6,36.6l196.9,2.6c18.8,0.7,26.2-15.6,16-31.4c-1.1-1.8-14-7.8-15.5-9
		c-12-9.5-173.5-14-211.8,1C759.7,530,759.6,530.1,759.4,530.2z"/>
	<path class="st3" d="M411.3,675.3h697.2c0,0,15.5,11,10.2,21c-5.3,10,1.1,136.7,1.1,136.7s-7.8,13.3-21.8,12.7
		c-14-0.7-679.3,0-679.3,0s-17.3,0-18.7-16.7s0-140,0-140S396.7,675.3,411.3,675.3z"/>
	<path class="st4" d="M1098.7,830.7c-1.8-0.1-6.5-0.3-176.2-0.3c-196.6,0-493.4,0.3-503.6,0.3c-3.7-0.2-3.9-1.8-3.9-2.9
		c-1-13-0.3-102.6,0-137.5h687.9c0.5,0.6,1,1.1,1.3,1.6c-2,5.4-3.7,18.7-2,77c0.7,24.5,1.8,48.6,2.3,59.2c-1.4,1.3-3.4,2.6-5.5,2.6
		C1098.9,830.7,1098.8,830.7,1098.7,830.7z"/>
	<polygon class="st3" points="411.3,675.3 433.3,648.3 436.5,669.2 436.5,675.3 	"/>
	<polygon class="st3" points="1092.7,675.3 1078.6,659.7 1074.7,675 	"/>
</g>
<g>
	<g>
		<defs>
			<rect id="SVGID_1_" x="88.2" y="471" width="252.5" height="290.4"/>
		</defs>
		<clipPath id="SVGID_2_">
			<use xlink:href="#SVGID_1_"  style="overflow:visible;"/>
		</clipPath>
		<g class="st5">
			<defs>
				<rect id="SVGID_3_" x="88.2" y="471" width="252.5" height="290.4"/>
			</defs>
			<clipPath id="SVGID_4_">
				<use xlink:href="#SVGID_3_"  style="overflow:visible;"/>
			</clipPath>
			<path class="st6" d="M182.4,623.6l2.4,18.2c0.1,0.8-1,1.4-1.5,0.7c-3.5-4.4-12.5-12.5-32.7-16.6c-0.6-0.1-0.8-0.8-0.3-1.3
				c2-1.9,2.1-5.5,7-12.6c0.4-0.5,0.8-1,1.3-0.7c4,2.4,17.4,10.1,23.2,11.6C182.2,623.1,182.4,623.3,182.4,623.6"/>
			<path class="st7" d="M182.4,623.6l2.4,18.2c0.1,0.8-1,1.4-1.5,0.7c-3.5-4.4-12.5-12.5-32.7-16.6c-0.6-0.1-0.8-0.8-0.3-1.3
				c2-1.9,2.1-5.5,7-12.6c0.4-0.5,0.8-1,1.3-0.7c4,2.4,17.4,10.1,23.2,11.6C182.2,623.1,182.4,623.3,182.4,623.6z"/>
			<path class="st6" d="M258.6,617.8l13.6,6.9c0.6,0.3,0,0-0.6,0c-4.5,0.3-14,2.3-25.9,12.2c-0.4,0.3-0.9,0.1-1-0.3
				c-0.3-1.9-2.7-3.4-5.2-9c-0.2-0.4-0.3-0.8,0.2-1c3.4-1.4,14.7-6,18.3-8.8C258.2,617.7,258.4,617.7,258.6,617.8"/>
			<path class="st8" d="M258.6,617.8l13.6,6.9c0.6,0.3,0,0-0.6,0c-4.5,0.3-14,2.3-25.9,12.2c-0.4,0.3-0.9,0.1-1-0.3
				c-0.3-1.9-2.7-3.4-5.2-9c-0.2-0.4-0.3-0.8,0.2-1c3.4-1.4,14.7-6,18.3-8.8C258.2,617.7,258.4,617.7,258.6,617.8z"/>
			<path class="st6" d="M131.9,537.2c0,0-19.4-15.1-0.3-35.3c0,0,22.1-20.2,41.2,8.5c0,0,39.8-8.5,77.7,20.6c0,0,18.4-16.5,33.7,0
				c0,0,16.1,18.5-8.4,35.5c0,0,8,49.5-36.7,60.6c0,0-20.7-30.2-55.9-2.3c0,0-28.3-11.1-32.1-15.3
				C147.2,605.3,104.4,576.2,131.9,537.2"/>
			<path class="st9" d="M141.7,529.3c0,0-10.2-15.5,2.2-21.1c12.4-5.6,18.5,6.3,18.5,6.3S152.5,527.9,141.7,529.3"/>
			<path class="st9" d="M259.7,537.5c0,0,13.9-10.7,18.3,1.7c4.3,12.4-5.7,17.1-5.7,17.1S260.2,548,259.7,537.5"/>
			<path class="st6" d="M157.6,613.6c0,0,1.9,17.1,20.6,20.2c18.7,3.1,49.3,11.4,32.8,45.2c0,0-41.4,7.2-61-42.1
				C150.1,636.9,137.8,599.4,157.6,613.6"/>
			<path class="st10" d="M193.5,688.6c0,0-55.7-0.3-47.2-70.9c0,0,11.2,64.4,64.8,61.2C211.1,678.9,200,689.4,193.5,688.6"/>
			<path class="st11" d="M245.2,637.7c0,0-7.7-24.7-32.2-25s-33.2,14.4-34.7,21.1c0,0,34.6,4.6,36.2,31.8c0,0,0.6,18.6-21.5,23.4
				c0,0,25.5,41.1,30.5,41.9c0,0,61.7-24.5,79.5-66.1c0,0,11.2-18.2-12-34.2C267.8,614.4,245.2,637.7,245.2,637.7"/>
			<path class="st6" d="M146.8,647.4c0,0-13.2,24.1-5.5,46.2c0,0,8.6,23.1,7,44.7c0,0,24.1-18.8,66.1-17.1l-21.5-32.3
				C192.9,688.9,158.3,689,146.8,647.4"/>
			<path class="st7" d="M146.8,647.4c0,0-13.2,24.1-5.5,46.2c0,0,8.6,23.1,7,44.7c0,0,24.1-18.8,66.1-17.1l-21.5-32.3
				C192.9,688.9,158.3,689,146.8,647.4z"/>
			<path class="st6" d="M141.4,691.1c0,0-7.7-10.4-23.8-11.7s-34.3,48.6,20.2,66.4C137.8,745.8,166.2,743.8,141.4,691.1"/>
			<path class="st10" d="M116.2,696.3c0,0-7,31.7,14.1,33.6C151.4,731.7,127.9,687.6,116.2,696.3"/>
			<path class="st6" d="M240.6,722.6c0,0,20.8,5.4,25.4,9.7c4.6,4.3,26.1,10.9,34.7,0c8.6-10.9,23.5-40,23.5-40s-12.3-21.1-40.2,5.6
				l-6.3-0.5L240.6,722.6z"/>
			<path class="st10" d="M324.2,692.4l-23.5,40C300.7,732.4,317.6,724.9,324.2,692.4"/>
			<path class="st12" d="M184.8,678.5c0,0,5.4-1.3,4.7-8.2"/>
			<path class="st12" d="M189.6,680.2c0,0,4.9-0.1,4.5-8.5"/>
			<path class="st12" d="M284.1,697.9c0,0-12.1,12.9-13.3,24"/>
			<path class="st12" d="M312.5,687.7c0,0,0.8-3,2.5-2.4"/>
			<path class="st12" d="M319.8,687.7c0,0-4.2,0.6-3.6,2.5"/>
			<path class="st12" d="M108,690.9c0,0,3.6-2.3,5.9-0.8"/>
			<path class="st12" d="M109.9,687.7c0,0,2-3.3,5.1-1.3"/>
			<path class="st13" d="M188.7,543.7c0,0-5.2,0.4-7.7,6.3c-2.5,5.9,1.9,7.7,1.9,7.7s6.3-0.2,7.5-5.5
				C191.6,546.7,192.6,546.7,188.7,543.7"/>
			<path class="st13" d="M235,558.4c0,0-5.9,2.5-5.4,7.8c0.6,5.4,2.7,6.5,2.7,6.5s5.6-1,5.6-7.2S235,558.4,235,558.4"/>
			<path class="st13" d="M236.7,545.8c0,0,7.3,1.7,8.6,10.4c0,0,2.5-4.9,0-7.6C242.9,546,239.8,544.8,236.7,545.8"/>
			<path class="st13" d="M180.3,536c0,0,6.7-4.4,15.7-2.9c0,0-1.7-4.2-7.8-3.8C182,529.7,180.3,536,180.3,536"/>
			<path class="st10" d="M212.8,562.4c0,0-50.3-16.3-53.4,23.5c0,0,2.2,24.7,32.4,31.4c0,0,17-9.8,35.4-1.2c0,0,18.1-10.7,12.1-27.9
				C233.3,571,212.8,562.4,212.8,562.4"/>
			<path class="st14" d="M209.2,606.2c-8.6,5-15.1,1.5-15.1,1.5c8.1-3.4,11.9-27.4,11.9-27.4"/>
			<path class="st15" d="M211.1,566.4c0,0-20.4-4.6-17,4.6c3.4,9.2,17.6,12.8,26.9,8.2C221.1,579.2,226.6,573.1,211.1,566.4"/>
			<path class="st16" d="M141.4,693.6c0,0,12.6,15.8,10.2,36.3"/>
		</g>
	</g>
</g>
<g>
	<path class="st17" d="M1179.5,510.6h187.3c6.4,0,11.6,5.2,11.6,11.7v70.2h-210.2v-70.6C1168.2,515.6,1173.3,510.6,1179.5,510.6z"/>
	<rect x="1177.7" y="518.1" class="st17" width="192" height="66"/>
	
		<linearGradient id="SVGID_5_" gradientUnits="userSpaceOnUse" x1="1232.213" y1="1597.0912" x2="1314.5577" y2="1597.0912" gradientTransform="matrix(1 0 0 -1 0 2148.5952)">
		<stop  offset="0" style="stop-color:#FDFCFB"/>
		<stop  offset="0.5407" style="stop-color:#788DB6"/>
		<stop  offset="1" style="stop-color:#FDFCFB"/>
	</linearGradient>
	<rect x="1232.2" y="549.1" class="st18" width="82.3" height="4.8"/>
	<polygon class="st17" points="1168.2,592.5 1167.8,716.1 1378.5,716.1 1378.5,592.5 1369.7,592.5 1369.7,705 1177.7,705 
		1177.7,592.5 	"/>
	<polygon class="st19" points="1186.4,673.2 1186.4,592.5 1343.6,592.5 1343.6,677.5 1186.4,677.5 	"/>
	<polygon class="st17" points="1167.8,716.1 1167.8,782.5 1174.8,782.5 1174.6,721.7 1371.7,721.7 1371.7,782.5 1378.5,782.5 
		1378.5,716.1 	"/>
	<polygon class="st17" points="1267.2,731.2 1174.7,755.1 1174.7,750.1 1257.6,728.4 1212.2,722 1239.1,721.9 1267.2,725.6 
		1294.3,721.8 1316.1,721.7 1271.6,728.1 1371.7,746.3 1371.7,751.2 	"/>
	<path class="st19" d="M1343.6,592.5h26.1v112c0,0.2-0.2,0.3-0.4,0.2l-25.7-27V592.5z"/>
	<path class="st19" d="M1177.7,592.5h8.7v85.1l-8.5,26.7c0,0.2-0.2,0.1-0.2,0V592.5z"/>
	<polygon class="st19" points="1177.7,704.2 1186.4,677.5 1343.6,677.5 1369.3,704.6 	"/>
	<path class="st20" d="M1204.9,642l-8.2,10.3c-0.1,0.1,0,0.2,0.2,0.2l76.2,1.7l-2.4-11L1204.9,642z"/>
	<path class="st20" d="M1197.8,667.8c0,0-4-3.2-1.2-15.3l76.6,1.7l2.6,15.1L1197.8,667.8z"/>
	<path class="st21" d="M1199.5,652.6c0,0-3.2,6.4,0,15.1"/>
	<path class="st21" d="M1204.3,652.6c0,0-4,7.2,0,15.3"/>
	<path class="st21" d="M1230,653.3c0,0-2.5,8.3,0,15.2"/>
	<path class="st21" d="M1234.8,653.4c0,0-4,6.2,0,15.2"/>
	<path class="st21" d="M1266.3,654.1c0,0-1.6,11.8,1,15.1"/>
	<path class="st21" d="M1270.8,654.1c0,0-3.6,3.6,0,15.3"/>
	<path class="st22" d="M1267.2,622l10.8-6.1l0.6,1.9l10-0.7l-6.7,4.1C1281.9,621.2,1271.5,624.5,1267.2,622z"/>
	<path class="st20" d="M1280.9,700.2l-13.6-78.2c0,0,4.1,2.5,14.7-0.8l13.9,77.9C1296,699.1,1287.6,702.7,1280.9,700.2z"/>
	<path class="st22" d="M1296.7,619.9c0,0-9.5,3.3-14.7,1.3l11.1-6.4l-0.1,1.7l9.7-0.7L1296.7,619.9z"/>
	<path class="st20" d="M1310.4,698.2c0,0-8.4,3.6-14.4,0.9l-13.9-77.9c0,0,5.1,2.1,14.7-1.3L1310.4,698.2z"/>
	<path class="st20" d="M1312.2,618.8c0,0-10.3,3.8-15.4,1.1l13.6,78.3c0,0,8.1,3.3,15.4-1.9L1312.2,618.8z"/>
	<path class="st22" d="M1308.2,613.5l-11.6,6.4c0,0,6.3,2.7,15.4-1.1l10-6.1l-5.3,2.1h-8.6V613.5z"/>
	<polygon class="st20" points="1325.8,696.3 1335.1,686.7 1322.1,612.6 1312.2,618.8 	"/>
	<line class="st21" x1="1308.2" y1="614.8" x2="1299" y2="620.5"/>
	<line class="st21" x1="1310.4" y1="614.8" x2="1301.8" y2="620.8"/>
	<line class="st21" x1="1313.6" y1="614.8" x2="1305" y2="620.8"/>
	<line class="st21" x1="1316.3" y1="614.8" x2="1310.4" y2="619.4"/>
	<line class="st21" x1="1292.9" y1="616.6" x2="1284.6" y2="621.8"/>
	<line class="st21" x1="1295.4" y1="616.5" x2="1287.8" y2="621.8"/>
	<line class="st21" x1="1299" y1="616.1" x2="1291.8" y2="621.2"/>
	<line class="st21" x1="1278.6" y1="617.8" x2="1269.8" y2="622.7"/>
	<line class="st21" x1="1272.6" y1="622.9" x2="1281.9" y2="617.7"/>
	<line class="st21" x1="1285.3" y1="617.3" x2="1278.6" y2="622.1"/>
	<path class="st20" d="M1197.5,683.3c0,0-4.5-9.9,0.2-15.4l78,1.6c0,0-1.3,13.5,0.7,15.2L1197.5,683.3z"/>
	<path class="st20" d="M1197.5,698.1c0,0-4.5-9.9,0.2-15.4l78,1.6c0,0-1.3,13.5,0.7,15.2L1197.5,698.1z"/>
	<path class="st21" d="M1204.3,667.9c0,0-4.4,6.8-0.5,14.9"/>
	<path class="st21" d="M1199.5,667.9c0,0-3.2,6.4,0,15.1"/>
	<path class="st21" d="M1203.8,682.8c0,0-4,7.2,0,15.3"/>
	<path class="st21" d="M1199.3,682.5c0,0-2.9,7.1,0.2,15.8"/>
	<path class="st21" d="M1234,683.5c0,0-4,7.2,0,15.3"/>
	<path class="st21" d="M1229.4,683.1c0,0-2.9,7.1,0.2,15.8"/>
	<path class="st21" d="M1270.8,684c0,0-4,7.2,0,15.3"/>
	<path class="st21" d="M1266.3,683.6c0,0-2.9,7.1,0.2,15.8"/>
	<path class="st21" d="M1271.5,669.5c0,0-4.7,6.4-0.7,14.4"/>
	<path class="st21" d="M1267,669.2c0,0-4.1,6-1,14.8"/>
	<path class="st21" d="M1234.6,668.6c0,0-4.8,6.5-0.9,14.6"/>
	<path class="st21" d="M1230.1,668.2c0,0-3.9,6.1-0.7,14.9"/>
	<path class="st22" d="M1276.5,699.4l3.6-3.7l-2-11.1l-2.5-15.2c0,0-1,15.2,0.7,15.2C1276.5,684.5,1274.7,694.5,1276.5,699.4z"/>
	<line class="st21" x1="1276.5" y1="684.5" x2="1277.7" y2="683.6"/>
	<line class="st21" x1="1275.9" y1="688.7" x2="1278.7" y2="687.5"/>
	<line class="st21" x1="1275.4" y1="692.6" x2="1279.2" y2="690.4"/>
	<line class="st21" x1="1275.1" y1="694.6" x2="1279.6" y2="692.6"/>
	<line class="st21" x1="1275.8" y1="696.3" x2="1279.7" y2="694.1"/>
	<line class="st21" x1="1275.4" y1="681.8" x2="1277.7" y2="681.3"/>
	<line class="st21" x1="1275.1" y1="679.2" x2="1277.3" y2="679.2"/>
</g>
</svg>
