<?xml version="1.0" encoding="utf-8"?>
<!-- Generator: Adobe Illustrator 21.0.2, SVG Export Plug-In . SVG Version: 6.00 Build 0)  -->
<svg version="1.1" xmlns="http://www.w3.org/2000/svg" xmlns:xlink="http://www.w3.org/1999/xlink" x="0px" y="0px"
	 viewBox="0 0 1280 1024" style="enable-background:new 0 0 1280 1024;" xml:space="preserve">
<style type="text/css">
	.st0{display:none;}
	.st1{fill:url(#SVGID_1_);}
	.st2{fill:url(#SVGID_2_);}
	.st3{fill:url(#SVGID_3_);stroke:#258F01;stroke-miterlimit:10;}
	.st4{fill:url(#SVGID_4_);stroke:#258F01;stroke-miterlimit:10;}
	.st5{fill:url(#SVGID_5_);stroke:#0DAF00;stroke-width:3;stroke-miterlimit:10;}
	.st6{fill:#258F01;}
	.st7{fill:#FF0000;}
	.st8{fill:#CF800F;stroke:#702201;stroke-miterlimit:10;}
	.st9{fill:#F4B056;stroke:#702201;stroke-miterlimit:10;}
	.st10{fill:none;stroke:#702201;stroke-miterlimit:10;}
	.st11{fill:#0DAF00;stroke:#258F01;stroke-miterlimit:10;}
	.st12{fill:none;stroke:#CF800F;stroke-width:6;stroke-miterlimit:10;}
	.st13{display:inline;}
	.st14{clip-path:url(#SVGID_7_);}
	.st15{clip-path:url(#SVGID_9_);}
	.st16{clip-path:url(#SVGID_11_);fill:#EF6EA8;}
	.st17{clip-path:url(#SVGID_11_);fill:#F498C1;}
	.st18{opacity:0.81;clip-path:url(#SVGID_11_);}
	.st19{clip-path:url(#SVGID_13_);fill:#262626;}
	.st20{clip-path:url(#SVGID_15_);fill:#262626;}
	.st21{clip-path:url(#SVGID_17_);fill:#262626;}
	.st22{clip-path:url(#SVGID_19_);fill:#262626;}
	.st23{clip-path:url(#SVGID_21_);fill:#262626;}
	.st24{clip-path:url(#SVGID_23_);fill:#262626;}
	.st25{clip-path:url(#SVGID_25_);fill:#262626;}
	.st26{clip-path:url(#SVGID_27_);fill:#262626;}
	.st27{clip-path:url(#SVGID_29_);fill:#262626;}
	.st28{clip-path:url(#SVGID_31_);fill:#262626;}
	.st29{clip-path:url(#SVGID_33_);fill:#262626;}
	.st30{clip-path:url(#SVGID_35_);fill:#262626;}
	.st31{clip-path:url(#SVGID_37_);fill:#262626;}
</style>
<g id="Layer_1" class="st0">
</g>
<g id="Pathway">
	<g id="sky">
		<linearGradient id="SVGID_1_" gradientUnits="userSpaceOnUse" x1="-37.676" y1="5.1732" x2="1309.4504" y2="455.7479">
			<stop  offset="0" style="stop-color:#FFFFFF"/>
			<stop  offset="1.136452e-02" style="stop-color:#FAFFFF"/>
			<stop  offset="8.222646e-02" style="stop-color:#DFFDFF"/>
			<stop  offset="0.1637" style="stop-color:#C9FBFF"/>
			<stop  offset="0.2589" style="stop-color:#B8FAFF"/>
			<stop  offset="0.3766" style="stop-color:#ADFAFF"/>
			<stop  offset="0.5417" style="stop-color:#A6F9FF"/>
			<stop  offset="1" style="stop-color:#A4F9FF"/>
		</linearGradient>
		<path class="st1" d="M-5,462c0,0,330.3,104,359.4,65s532.1-118,508-149s215.8,23,281.1,26s136.5,5,136.5,5V0H-5V462"/>
	</g>
	<g id="Hills">
		<linearGradient id="SVGID_2_" gradientUnits="userSpaceOnUse" x1="196.5115" y1="346.2681" x2="1310.3046" y2="812.9348">
			<stop  offset="0" style="stop-color:#A9EC3C"/>
			<stop  offset="3.667642e-02" style="stop-color:#A8EC3C"/>
			<stop  offset="0.1043" style="stop-color:#A3EA3A"/>
			<stop  offset="0.1829" style="stop-color:#95E535"/>
			<stop  offset="0.2669" style="stop-color:#7EDB2C"/>
			<stop  offset="0.3548" style="stop-color:#5DCF1F"/>
			<stop  offset="0.4447" style="stop-color:#34BE0F"/>
			<stop  offset="0.5165" style="stop-color:#0DAF00"/>
			<stop  offset="0.5318" style="stop-color:#11AA00"/>
			<stop  offset="0.596" style="stop-color:#1C9B01"/>
			<stop  offset="0.6705" style="stop-color:#239201"/>
			<stop  offset="0.779" style="stop-color:#258F01"/>
			<stop  offset="0.7888" style="stop-color:#249101"/>
			<stop  offset="0.9173" style="stop-color:#13A700"/>
			<stop  offset="1" style="stop-color:#0DAF00"/>
		</linearGradient>
		<path class="st2" d="M935.5,363.5c0,0,83-11,199,6s146,38,146,38l-1,616H872.6C872.6,1023.5,1185.5,603.5,935.5,363.5z"/>
		<linearGradient id="SVGID_3_" gradientUnits="userSpaceOnUse" x1="120.348" y1="547.6805" x2="1316.3694" y2="1048.7999">
			<stop  offset="0" style="stop-color:#A9EC3C"/>
			<stop  offset="7.577135e-02" style="stop-color:#A4EA3A"/>
			<stop  offset="0.1593" style="stop-color:#97E535"/>
			<stop  offset="0.2467" style="stop-color:#81DC2D"/>
			<stop  offset="0.3366" style="stop-color:#62D021"/>
			<stop  offset="0.4275" style="stop-color:#3BC112"/>
			<stop  offset="0.5165" style="stop-color:#0DAF00"/>
			<stop  offset="0.5582" style="stop-color:#16A300"/>
			<stop  offset="0.6281" style="stop-color:#1F9801"/>
			<stop  offset="0.7266" style="stop-color:#249101"/>
			<stop  offset="1" style="stop-color:#258F01"/>
		</linearGradient>
		<path class="st3" d="M-0.5,456c0,0,124.8,7.2,223.8,38.1s224.9,15.4,234.6,12.4C467.5,503.4,0,680,0,680L-0.5,456z"/>
		<linearGradient id="SVGID_4_" gradientUnits="userSpaceOnUse" x1="136.9534" y1="488.4152" x2="1250.7466" y2="955.0819">
			<stop  offset="0" style="stop-color:#A9EC3C"/>
			<stop  offset="7.577135e-02" style="stop-color:#A4EA3A"/>
			<stop  offset="0.1593" style="stop-color:#97E535"/>
			<stop  offset="0.2467" style="stop-color:#81DC2D"/>
			<stop  offset="0.3366" style="stop-color:#62D021"/>
			<stop  offset="0.4275" style="stop-color:#3BC112"/>
			<stop  offset="0.5165" style="stop-color:#0DAF00"/>
			<stop  offset="0.5582" style="stop-color:#16A300"/>
			<stop  offset="0.6281" style="stop-color:#1F9801"/>
			<stop  offset="0.7266" style="stop-color:#249101"/>
			<stop  offset="1" style="stop-color:#258F01"/>
		</linearGradient>
		<path class="st4" d="M-0.5,654.5c0,0,262.7-61.9,356.5-131.5c81.5-60.5,391.5-177.5,530.5-159.5c0,0,145,145-204,291S0,870,0,870
			L-0.5,654.5z"/>
	</g>
	<linearGradient id="SVGID_5_" gradientUnits="userSpaceOnUse" x1="544.5519" y1="364.1628" x2="559.4958" y2="1037.7924">
		<stop  offset="0" style="stop-color:#FFFFFF"/>
		<stop  offset="0.1419" style="stop-color:#FFE8E9"/>
		<stop  offset="0.3384" style="stop-color:#FFCED1"/>
		<stop  offset="0.5427" style="stop-color:#FFBCC0"/>
		<stop  offset="0.7574" style="stop-color:#FFB2B5"/>
		<stop  offset="1" style="stop-color:#FFAEB2"/>
	</linearGradient>
	<path class="st5" d="M-0.5,858.5c0,0,639-182,741-247s207-110,147-247h48c0,0,144,59,164,148s34,364-197,511h-903V858.5z"/>
	<g id="Heart_Bush">
		<path class="st6" d="M1084,350c0,0-11,2-17,12c0,0,201,35,213,47v-81c0,0-12,3-12-5s-12-17-29-13s-7-9-15-8s-1,7-14,12
			c0,0-9-6-14-2s0,10-5,11s-10-6-12-1s1,11-5,9s-14,7-10,11s12,11,2,9s-17,0-27-9s-10,14-19,12s-5,7-16-1c0,0,0-1-10,3
			S1084,350,1084,350z"/>
		<path class="st7" d="M1192.3,340.2c-0.5-1.4,3.4-2.4,3.4-0.5c0,2.9-3.4,5.3-3.4,5.3s-1.9-0.8-3.4-3.8
			C1188.5,340.2,1190.9,336.3,1192.3,340.2C1192.9,341.8,1192.3,340.2,1192.3,340.2z"/>
		<path class="st7" d="M1225.3,359.2c-0.5-1.4,3.4-2.4,3.4-0.5c0,2.9-3.4,5.3-3.4,5.3s-1.9-0.8-3.4-3.8
			C1221.5,359.2,1223.9,355.3,1225.3,359.2C1225.9,360.8,1225.3,359.2,1225.3,359.2z"/>
		<path class="st7" d="M1243.3,318.2c-0.5-1.4,3.4-2.4,3.4-0.5c0,2.9-3.4,5.3-3.4,5.3s-1.9-0.8-3.4-3.8
			C1239.5,318.2,1241.9,314.3,1243.3,318.2C1243.9,319.8,1243.3,318.2,1243.3,318.2z"/>
		<path class="st7" d="M1268.3,382.2c-0.5-1.4,3.4-2.4,3.4-0.5c0,2.9-3.4,5.3-3.4,5.3s-1.9-0.8-3.4-3.8
			C1264.5,382.2,1266.9,378.3,1268.3,382.2C1268.9,383.8,1268.3,382.2,1268.3,382.2z"/>
		<path class="st7" d="M1265.3,338.2c-0.5-1.4,3.4-2.4,3.4-0.5c0,2.9-3.4,5.3-3.4,5.3s-1.9-0.8-3.4-3.8
			C1261.5,338.2,1263.9,334.3,1265.3,338.2C1265.9,339.8,1265.3,338.2,1265.3,338.2z"/>
		<path class="st7" d="M1135.3,356.2c-0.5-1.4,3.4-2.4,3.4-0.5c0,2.9-3.4,5.3-3.4,5.3s-1.9-0.8-3.4-3.8
			C1131.5,356.2,1133.9,352.3,1135.3,356.2C1135.9,357.8,1135.3,356.2,1135.3,356.2z"/>
		<path class="st7" d="M1118.3,359.2c-0.5-1.4,3.4-2.4,3.4-0.5c0,2.9-3.4,5.3-3.4,5.3s-1.9-0.8-3.4-3.8
			C1114.5,359.2,1116.9,355.3,1118.3,359.2C1118.9,360.8,1118.3,359.2,1118.3,359.2z"/>
		<path class="st7" d="M1093.3,359.2c-0.5-1.4,3.4-2.4,3.4-0.5c0,2.9-3.4,5.3-3.4,5.3s-1.9-0.8-3.4-3.8
			C1089.5,359.2,1091.9,355.3,1093.3,359.2C1093.9,360.8,1093.3,359.2,1093.3,359.2z"/>
		<path class="st7" d="M1183.3,376.2c-0.5-1.4,3.4-2.4,3.4-0.5c0,2.9-3.4,5.3-3.4,5.3s-1.9-0.8-3.4-3.8
			C1179.5,376.2,1181.9,372.3,1183.3,376.2C1183.9,377.8,1183.3,376.2,1183.3,376.2z"/>
		<path class="st7" d="M1164.3,359.2c-0.5-1.4,3.4-2.4,3.4-0.5c0,2.9-3.4,5.3-3.4,5.3s-1.9-0.8-3.4-3.8
			C1160.5,359.2,1162.9,355.3,1164.3,359.2C1164.9,360.8,1164.3,359.2,1164.3,359.2z"/>
		<path class="st7" d="M1147.3,368.2c-0.5-1.4,3.4-2.4,3.4-0.5c0,2.9-3.4,5.3-3.4,5.3s-1.9-0.8-3.4-3.8
			C1143.5,368.2,1145.9,364.3,1147.3,368.2C1147.9,369.8,1147.3,368.2,1147.3,368.2z"/>
		<path class="st7" d="M1225.3,334.2c-0.5-1.4,3.4-2.4,3.4-0.5c0,2.9-3.4,5.3-3.4,5.3s-1.9-0.8-3.4-3.8
			C1221.5,334.2,1223.9,330.3,1225.3,334.2C1225.9,335.8,1225.3,334.2,1225.3,334.2z"/>
		<path class="st7" d="M1240.3,387.2c-0.5-1.4,3.4-2.4,3.4-0.5c0,2.9-3.4,5.3-3.4,5.3s-1.9-0.8-3.4-3.8
			C1236.5,387.2,1238.9,383.3,1240.3,387.2C1240.9,388.8,1240.3,387.2,1240.3,387.2z"/>
		<path class="st7" d="M1271.3,360.2c-0.5-1.4,3.4-2.4,3.4-0.5c0,2.9-3.4,5.3-3.4,5.3s-1.9-0.8-3.4-3.8
			C1267.5,360.2,1269.9,356.3,1271.3,360.2C1271.9,361.8,1271.3,360.2,1271.3,360.2z"/>
		<path class="st7" d="M1201.3,365.2c-0.5-1.4,3.4-2.4,3.4-0.5c0,2.9-3.4,5.3-3.4,5.3s-1.9-0.8-3.4-3.8
			C1197.5,365.2,1199.9,361.3,1201.3,365.2C1201.9,366.8,1201.3,365.2,1201.3,365.2z"/>
		<path class="st7" d="M1170.3,337.2c-0.5-1.4,3.4-2.4,3.4-0.5c0,2.9-3.4,5.3-3.4,5.3s-1.9-0.8-3.4-3.8
			C1166.5,337.2,1168.9,333.3,1170.3,337.2C1170.9,338.8,1170.3,337.2,1170.3,337.2z"/>
		<path class="st7" d="M1215.3,382.2c-0.5-1.4,3.4-2.4,3.4-0.5c0,2.9-3.4,5.3-3.4,5.3s-1.9-0.8-3.4-3.8
			C1211.5,382.2,1213.9,378.3,1215.3,382.2C1215.9,383.8,1215.3,382.2,1215.3,382.2z"/>
		<path class="st7" d="M1243.3,344.2c-0.5-1.4,3.4-2.4,3.4-0.5c0,2.9-3.4,5.3-3.4,5.3s-1.9-0.8-3.4-3.8
			C1239.5,344.2,1241.9,340.3,1243.3,344.2C1243.9,345.8,1243.3,344.2,1243.3,344.2z"/>
		<path class="st7" d="M1201.3,321.2c-0.5-1.4,3.4-2.4,3.4-0.5c0,2.9-3.4,5.3-3.4,5.3s-1.9-0.8-3.4-3.8
			C1197.5,321.2,1199.9,317.3,1201.3,321.2C1201.9,322.8,1201.3,321.2,1201.3,321.2z"/>
	</g>
	<g id="Stumps">
		<path class="st8" d="M716.5,552.5c0,0,15,1,15,38c0,0,3,4,20,0c0,0,13-7,12-63C763.5,527.5,740.5,545.5,716.5,552.5z"/>
		<path class="st9" d="M713.5,547.5c0,0,16-18,27-21s21-1,23,0s-6,15-47,26C716.5,552.5,711.5,552.5,713.5,547.5z"/>
		<path class="st10" d="M730.5,558.5c0,0,10,13,5,24"/>
		<path class="st10" d="M736.5,534.5c0,0,22-9,15-3"/>
		<path class="st10" d="M736.5,552.5"/>
		<path class="st10" d="M740.5,582.5c0,0,5-15-4-24"/>
		<path class="st9" d="M784.5,494.5c0,0,3-10,9-10s30-5,34,8s-28,24-29,22S782.5,501.5,784.5,494.5z"/>
		<path class="st8" d="M786.5,549.5c0,0,2,8,21,5c0,0,23-15,20-62c0,0-7,16-23,17c0,0-12-2-18-8
			C786.5,501.5,792.5,542.5,786.5,549.5z"/>
		<path class="st10" d="M792.5,494.5c0,0,18,19,30-2"/>
		<path class="st10" d="M795.5,516.5c0,0,7,14-1,32"/>
		<path class="st10" d="M793.4,509c0,0,11.1,5.5,10.1,14.5"/>
		<path class="st9" d="M835.5,467.5c0,0,14,2,18,0s-2-9-10-7S833.5,462.5,835.5,467.5z"/>
		<path class="st8" d="M854.5,467.5c0,0,1,28-8,31l-7-1c0,0-3-26-4-29S847.5,469.5,854.5,467.5z"/>
		<path class="st10" d="M843.5,463.5c0,0,6-2,8,1"/>
		<path class="st10" d="M851.5,472.5c0,0,2,15-3,20"/>
		<path class="st9" d="M879.5,422.5c0,0,8,7,17,2S878.5,414.5,879.5,422.5z"/>
		<path class="st8" d="M879.5,422.5v30c0,0,10,8,18,1v-30C897.5,423.5,886.5,428.5,879.5,422.5z"/>
		<path class="st10" d="M893.5,430.5c0,0,1,14,1,20"/>
		<path class="st10" d="M890.5,430.5c0,0,1,4,1,10"/>
		<path class="st10" d="M883.5,420.5c0,0,8-1,11,1"/>
		<path class="st9" d="M625.5,534.5c0,0-26,7-39,4S617.5,517.5,625.5,534.5z"/>
		<path class="st8" d="M639.5,657.5c0,0,2-79-4-84c0,0,7,0,13,0s2-42-17-17l-6-1v-21c0,0-37,10-39,4s21,120,18,132
			C604.5,670.5,633.5,664.5,639.5,657.5z"/>
		<path class="st10" d="M627.5,559.5c0,0,8,3,17-4"/>
		<path class="st10" d="M593.5,544.5c0,0,10,5,25-3"/>
		<path class="st10" d="M627.5,573.5c0,0,10,40,7,79"/>
		<path class="st10" d="M618.5,577.5c0,0,9-10,9,75"/>
		<path class="st9" d="M471.5,598.5c0,0,30,17,48-3S457.5,585.5,471.5,598.5z"/>
		<path class="st8" d="M471.5,598.5c0,0,29.4,102.7,24.2,108.4c-5.2,5.6,44.7-8,42.3-14.2c-2.5-6.1-5.3-83.6-15.6-99.7
			c-0.9-1.4-0.1-0.1-0.2-0.1C520.6,595.2,509.7,607.6,471.5,598.5z"/>
		<path class="st10" d="M480.5,592.5c0,0,22-8,32-4"/>
		<path class="st10" d="M479.5,612.5c0,0,28,59,22,86"/>
		<path class="st10" d="M488.5,612.5c0,0,24,55,19,78"/>
		<path class="st8" d="M405.5,619.5c0,0-35,62.3-12.5,120.7c0,0,30.6-3.4,48.6-15.5c0,0-13-50.1,5-72.1
			C446.5,652.5,421.5,651.5,405.5,619.5z"/>
		<path class="st9" d="M405.5,619.5c0,0,13,29,41,33c0,0,10-1,7-12S411.5,606.5,405.5,619.5z"/>
		<path class="st10" d="M405.5,638.5c0,0-22,39-9,84"/>
		<path class="st10" d="M407.5,642.5c0,0-18,49-9,73"/>
		<path class="st10" d="M415.5,619.5c0,0-8,0,2,10"/>
		<path class="st9" d="M177.5,651.5c0,0,10-19,43-21s17,21,7,28C219.9,663.8,185.5,656.5,177.5,651.5z"/>
		<path class="st8" d="M177.5,651.5c0,0,14.4,140.1,2.7,154c0,0,46.3-2,56.3-11s3-151,3-151S230.5,674.5,177.5,651.5z"/>
		<path class="st10" d="M190.5,669.5c0,0,7,76,0,114"/>
		<path class="st10" d="M196.5,670.5c0,0,16,40,7,84"/>
		<path class="st10" d="M230.5,669.5c0,0,7,14,0,57"/>
		<path class="st10" d="M190.5,643.5c0,0,31,24,40-8"/>
		<path class="st10" d="M201.5,642.5c0,0,21,4,20-4"/>
		<path class="st9" d="M13.5,623.5c0,0,48,20,93,12S-9.5,590.5,13.5,623.5z"/>
		<path class="st8" d="M13.5,623.5c0,0,7.4,203-0.3,229.5c0,0,76.3,2.5,85.3-18.5s15.1-182.4,14-200
			C112.5,634.5,48.5,641.5,13.5,623.5z"/>
		<path class="st10" d="M23.5,641.5c0,0,8,75,0,201"/>
		<path class="st10" d="M31.5,643.5c0,0,6,167,0,191"/>
		<path class="st10" d="M39.5,643.5c0,0,6,58,4,98"/>
		<path class="st10" d="M23.5,615.5c0,0,29-9,61,9"/>
		<path class="st10" d="M25.5,623.5c0,0,17-14,52,5"/>
		<path class="st10" d="M97.5,790.5c0,0,6,34-5.5,42.5"/>
		<path class="st9" d="M992.5,352.5c0,0,19,2,20-3S992.5,346.5,992.5,352.5z"/>
		<path class="st8" d="M992.5,353.5c0,0,6,22,3,35c0,0,6,5,9,2s-1-20-1-20s-4-8,2-9s7-1,7-1v-11
			C1012.5,349.5,1007.5,354.5,992.5,353.5z"/>
		<path class="st9" d="M996.5,356.5c0,0,3,16,2,24"/>
		<path class="st9" d="M1003.5,359.5c0,0,1-1,6-1"/>
		<path class="st9" d="M1003.5,370.5c0,0,14,1,17,0s3-7-7-9S999.5,363.5,1003.5,370.5z"/>
		<path class="st8" d="M1021.5,370.5c0,0,0,17,0,18s-6-1-6,0s2,11,0,12s-10,1-10-7s-1-22-2-23S1015.5,373.5,1021.5,370.5z"/>
		<path class="st8" d="M1016.5,392.5c0,0,8,7,14,2c0,0,2,13,0,15s-13,2-14-1S1016.5,392.5,1016.5,392.5z"/>
		<path class="st8" d="M1015.5,388.5c0,0,11-2,15,2s-5,9-14,2C1016.5,392.5,1014.5,389.5,1015.5,388.5z"/>
		<path class="st10" d="M1018.5,397.5c0,0-1,6,0,9"/>
		<path class="st10" d="M1007.5,373.5c0,0,4,21,2,21"/>
		<path class="st9" d="M1045.5,399.5c0,0,2,3,18,0C1063.5,399.5,1058.5,390.5,1045.5,399.5z"/>
		<path class="st8" d="M1045.5,399.5c0,0,1,28,1,29s11,4,17,1v-29C1063.5,400.5,1048.5,402.5,1045.5,399.5z"/>
		<path class="st9" d="M1064.5,410.5c0,0,10,1,11-1S1067.5,401.5,1064.5,410.5z"/>
		<path class="st8" d="M1074.5,410.5c0,0-3,16-4,20s-7-1-7-1l1-19C1064.5,410.5,1073.5,412.5,1074.5,410.5z"/>
		<path class="st10" d="M1050.5,406.5c0,0-1,15-1,19"/>
		<path class="st10" d="M1059.5,404.5c0,0-1,10,1,11"/>
		<path class="st10" d="M1066.5,414.5c0,0-2,11-1,12"/>
		<path class="st9" d="M1092.5,417.5c0,0,13,25,28,17C1120.5,434.5,1107.5,408.5,1092.5,417.5z"/>
		<path class="st8" d="M1092.5,418.5c0,0-12,32-4,50c0,0,15,10,22,2c0,0,2-32,8-34C1118.5,436.5,1108.5,440.5,1092.5,418.5z"/>
		<path class="st10" d="M1094.5,425.5c0,0-8,28-4,38"/>
		<path class="st10" d="M1097.5,418.5c0,0,12,18,17,15"/>
		<path class="st9" d="M1116.5,465.5c0,0,9,17,24,11S1118.5,462.5,1116.5,465.5z"/>
		<path class="st8" d="M1116.5,466.5c0,0-16,29-6,52c0,0,6,9,14,5c0,0,0-22,6-25s14,0,14-2s6-7,2-13c0,0-9,0-9-1s1-5,3-5
			S1126.5,482.5,1116.5,466.5z"/>
		<path class="st10" d="M1116.5,475.5c0,0-11,27-4,39"/>
		<path class="st10" d="M1116.5,480.5c0,0-6,18-3,25"/>
		<path class="st9" d="M1097.5,546.5c0,0,4-24,42-21C1139.5,525.5,1124.5,545.5,1097.5,546.5z"/>
		<path class="st8" d="M1097.5,546.5c0,0,12,9,13,16c0,0,11,0,20,2c0,0,10-17,9-39C1139.5,525.5,1122.5,545.5,1097.5,546.5z"/>
		<path class="st10" d="M1106.5,547.5c0,0,7,8,6,10"/>
		<path class="st10" d="M1112.5,547.5c0,0,4,7,3,8"/>
		<path class="st9" d="M1099.5,574.5c0,0,9-22,36-12S1104.5,582.5,1099.5,574.5z"/>
		<path class="st8" d="M1102.5,577.5c0,0,6,8,3,17s24,7,26,5s8.8-24.3,4.4-26.1C1131.5,571.5,1121.5,579.5,1102.5,577.5z"/>
		<path class="st9" d="M1115.5,591.5c0,0-18,9-10,18s41,5,36-10S1105.5,594.5,1115.5,591.5z"/>
		<path class="st8" d="M1141.5,602.5c0,0,5,75-4,96s-35,7-35,7s10-64,2-96C1104.5,609.5,1135.5,622.5,1141.5,602.5z"/>
		<path class="st10" d="M1112.5,618.5c0,0,2,69-9,75"/>
		<path class="st10" d="M1112.5,602.5c0,0,8.1-8.6,18.6-4.3"/>
		<path class="st10" d="M1133.5,575.5c0,0,1,16-2,17"/>
		<path class="st10" d="M1116.5,619.5c0,0,3,48-2,53"/>
		<path class="st10" d="M1332.5,799.5"/>
		<path class="st9" d="M1075.5,740.5c0,0,44-10,52,6S1094.5,772.5,1075.5,740.5z"/>
		<path class="st8" d="M1075.5,740.5c0,0-15,144-32,154c0,0,51,28,60,13s25-153,25-153S1097.5,774.5,1075.5,740.5z"/>
		<path class="st10" d="M1085.5,761.5c0,0-10,94-19,105"/>
		<path class="st10" d="M1121.5,767.5c0,0-11,67-9,79"/>
		<path class="st10" d="M1092.5,744.5c0,0,13-10,27,5"/>
		<path class="st9" d="M1039.5,800.5c0,0,44-10,52,6S1058.5,832.5,1039.5,800.5z"/>
		<path class="st8" d="M1039.5,800.5c0,0-15,144-32,154c0,0,51,28,60,13s25-153,25-153S1061.5,834.5,1039.5,800.5z"/>
		<path class="st10" d="M1049.5,821.5c0,0-10,94-19,105"/>
		<path class="st10" d="M1085.5,827.5c0,0-11,67-9,79"/>
		<path class="st10" d="M1056.5,804.5c0,0,13-10,27,5"/>
		<path class="st9" d="M974.5,859.5c0,0,47,11,49,0S963.5,847.5,974.5,859.5z"/>
		<path class="st8" d="M1009.5,1023.5l14-166c0,0-3,17-50,0c0,0,9,124-15,166H1009.5z"/>
		<path class="st10" d="M980.5,872.5c0,0,12,117-7,140"/>
		<path class="st10" d="M991.5,877.5c0,0,6,41,0,81"/>
		<path class="st10" d="M1003.5,877.5c0,0,6,7,0,34"/>
		<path class="st10" d="M992.5,857.5c0,0,11-7,17,0"/>
		<path class="st9" d="M1088.5,672.5c0,0,30,7,33,0S1091.5,654.5,1088.5,672.5z"/>
		<path class="st8" d="M1088.5,672.5l0.9,60.2c0,2.5,2.2,4.5,4.7,4.2c7.1-0.7,20.3-1.4,25.7,3.2c7.6,6.4,1.6-67.6,1.6-67.6
			S1114.5,680.5,1088.5,672.5z"/>
		<path class="st10" d="M1094.5,680.5c0,0-5,39-2,47"/>
		<path class="st10" d="M1112.5,684.5c0,0-5,42,3,43"/>
	</g>
	<g id="Trees">
		<path class="st11" d="M1123.5,132.5c0,0,26-3,20,35c0,0,2,7.3,4.9,10c1.2,1.1,1.7,2.6,1.4,4.2c-1.2,6-3.1,18.5,0.7,20.8
			c0,0,25,24,7,67c0,0,8,57-28,56c0,0-16,5-24,0s-24-13-23-20s2-22,2-31c0-6.1,0.5-12.2-2.1-19.9c-4.4-13.4-5.9-27.6-3.4-41.5
			c0.8-4.6,1.9-9.1,3.4-12.9c0.7-1.9,1-3.9,0.8-5.9c-0.3-5.2-0.4-15,3.3-15.7c5-1,7-4,10-14S1109.5,128.5,1123.5,132.5z"/>
		<path class="st11" d="M1225.5,45.5c0,0-12,3-16,24c0,0-14,2-12,6s8,16,0,21s-30,55-9,94c0,0,5,12-5,30c0,0,1,59,45,49l24-2
			c0,0,6-8,13-4c0,0,15-11,9-38s12-85-13-122c0,0,4-23,0-30s-9-16-18-12s2-10-4-12S1225.5,45.5,1225.5,45.5z"/>
		<path class="st12" d="M1121,260c0,0-4,25,2,32s16-10,16-10"/>
		<path class="st12" d="M1124,296l-2,59C1122,355,1123,292,1124,296z"/>
		<path class="st12" d="M1232,179c0,0,0,1.1,0.1,3c0.7,19.3,4.4,125.5,3.7,128.6c-0.8,3.4,1.2-60.6,1.2-60.6l16-15l-16,11l-5-18
			l-22-18l21,14L1232,179z"/>
	</g>
	<g id="heart" class="st0">
		<g class="st13">
			<defs>
				
					<rect id="SVGID_6_" x="801.4" y="140.9" transform="matrix(9.698137e-02 -0.9953 0.9953 9.698137e-02 539.0672 1173.9813)" width="230.3" height="298"/>
			</defs>
			<clipPath id="SVGID_7_">
				<use xlink:href="#SVGID_6_"  style="overflow:visible;"/>
			</clipPath>
			<g class="st14">
				<defs>
					
						<rect id="SVGID_8_" x="801.4" y="140.9" transform="matrix(9.698137e-02 -0.9953 0.9953 9.698137e-02 539.0672 1173.9813)" width="230.3" height="298"/>
				</defs>
				<clipPath id="SVGID_9_">
					<use xlink:href="#SVGID_8_"  style="overflow:visible;"/>
				</clipPath>
				<g class="st15">
					<defs>
						
							<rect id="SVGID_10_" x="801.4" y="140.9" transform="matrix(9.698137e-02 -0.9953 0.9953 9.698137e-02 539.0672 1173.9813)" width="230.3" height="298"/>
					</defs>
					<clipPath id="SVGID_11_">
						<use xlink:href="#SVGID_10_"  style="overflow:visible;"/>
					</clipPath>
					<path class="st16" d="M900.9,350.2c-4-5-7.8-10.4-11.2-15.9c-10.3-15.7-18.5-32.1-25-50.1c-0.9-2.4-1.5-4.8-2-7.2c0,0,0,0,0,0
						c0,0,0,0,0,0c-6-30,19.8-52.2,42.2-53c0,0,0,0,0,0l0,0c0.2,0,0.3,0,0.5,0c-1.4-0.5-38.9-5.1-54.2,13.6
						c-16.7,20.3-8.7,40.9-8.7,40.9c4.6,37,65.1,101.7,65.1,101.7l21.4,1.5c-9.2-9.2-17.5-18.3-24.9-27.6
						C902.7,352.3,901.6,351,900.9,350.2"/>
					<path class="st16" d="M970.6,240.5C970.6,240.5,970.6,240.5,970.6,240.5c0,0-25.1-4.2-31.5,0c0,0,0.2,0.5,0.5,1.3
						c4.7,6,6.8,11.2,6.8,11.2C955.4,243.1,963.8,240.3,970.6,240.5"/>
					<path class="st17" d="M913.5,280.9c0.3-0.3,0.5-0.7,0.5-1.2c0-0.5-0.1-0.8-0.4-1.1c-0.3-0.3-0.6-0.5-1.1-0.5l-1.4-0.1l0,3.2
						l1.2,0.1C912.8,281.3,913.2,281.1,913.5,280.9"/>
					<path class="st17" d="M912.7,286.5c0.7,0.1,1.2,0,1.5-0.3c0.3-0.3,0.5-0.7,0.5-1.3c0-0.5-0.2-0.9-0.5-1.3
						c-0.3-0.3-0.8-0.5-1.4-0.6l-1.9-0.2l0,3.4L912.7,286.5z"/>
					<polygon class="st17" points="906.2,304.3 904.5,299.4 902.9,304 					"/>
					<path class="st17" d="M990.4,303.8c0,0,19.4-34.2-3.9-56.9c0,0-6.2-6.2-15.9-6.4c-6.8-0.2-15.2,2.6-24.3,12.4
						c0,0-2.1-5.2-6.8-11.2c-5.5-7.1-14.6-15.3-28.2-17.5c-1.9-0.3-3.9-0.4-5.9-0.4c-0.2,0-0.3,0-0.5,0c0,0,0,0,0,0
						c-22.4,0.8-48.2,23-42.2,53c0,0,0,0,0,0.1c0.5,2.3,1.1,4.7,2,7.2c6.5,18,14.7,34.4,25,50.1c4.4,6.7,9.1,13.2,14.3,19.6
						c7.4,9.3,15.7,18.4,24.9,27.6C928.9,381.5,973.8,340.8,990.4,303.8 M973.2,302.5l0,1.8l-4.6-0.4l0,3.2l4.5,0.4l0,1.8l-4.5-0.4
						l0,3.4l4.8,0.4l0,1.8l-6.7-0.6l0.1-12.1L973.2,302.5z M956.3,301.1l6,8.9l0.1-8.4l1.9,0.2l-0.1,12.1l-1.7-0.1l-6.1-9.1
						l-0.1,8.6l-1.9-0.2l0.1-12.1L956.3,301.1z M952.3,300.8l-0.1,12.1l-2-0.2l0.1-12.1L952.3,300.8z M948.7,300.5l0,1.8l-3.6-0.3
						l-0.1,10.2l-2-0.2l0.1-10.2l-3.6-0.3l0-1.8L948.7,300.5z M945.2,279l2.5,4.2l2.5-3.8l2.4,0.2l-3.9,5.8l0,6l-2-0.2l0-6l-3.9-6.4
						L945.2,279z M936.5,286.1l-0.3,0l-2.9-4.5l-0.1,0l-0.1,8.5l-2-0.2l0.1-12.1l1.8,0.1l3.3,5l3.4-4.5l1.8,0.1l-0.1,12.1l-2-0.2
						l0.1-8.5l-0.1,0L936.5,286.1z M920.5,281.9l4.5,0.4l0,1.8l-4.5-0.4l0,3.4l4.8,0.4l0,1.8l-6.7-0.6l0.1-12.1l6.6,0.6l0,1.8
						l-4.6-0.4L920.5,281.9z M912.8,276.3c0.9,0.1,1.7,0.4,2.3,1.1c0.6,0.6,0.9,1.4,0.9,2.2c0,0.6-0.1,1-0.4,1.4
						c-0.2,0.4-0.6,0.7-1.1,0.9l0,0.1c0.7,0.2,1.3,0.7,1.7,1.3c0.4,0.6,0.6,1.3,0.6,2c0,0.7-0.2,1.3-0.4,1.8
						c-0.3,0.5-0.7,0.9-1.2,1.1c-0.5,0.2-1.1,0.3-1.8,0.2L909,288l0.1-12.1L912.8,276.3z M892.5,295.8l2.8,8l2.9-7.5l2.1,0.2
						l-4.6,11.8l-0.7-0.1l-4.6-12.6L892.5,295.8z M907.9,309.1l-1-3l-4.6-0.4l-1,2.9l-2.1-0.2l4.3-11.7l2,0.2l4.5,12.4L907.9,309.1z
						 M911.2,309.4l0.1-12.1l2,0.2l-0.1,10.2l5,0.4l0,1.8L911.2,309.4z M919.5,310.1l0.1-12.1l6.6,0.6l0,1.8l-4.6-0.4l0,3.2l4.5,0.4
						l0,1.8l-4.5-0.4l0,3.4l4.8,0.4l0,1.8L919.5,310.1z M928.1,310.8l0.1-12.1l1.7,0.1l6,8.9l0.1-8.4l1.9,0.2l-0.1,12.1l-1.7-0.1
						l-6.1-9.1L930,311L928.1,310.8z"/>
					<path class="st17" d="M913.3,288.4c0.7,0.1,1.3,0,1.8-0.2c0.5-0.2,0.9-0.6,1.2-1.1c0.3-0.5,0.4-1.1,0.4-1.8
						c0-0.8-0.2-1.4-0.6-2c-0.4-0.6-0.9-1-1.7-1.3l0-0.1c0.5-0.2,0.8-0.5,1.1-0.9c0.2-0.4,0.4-0.9,0.4-1.4c0-0.9-0.3-1.6-0.9-2.2
						c-0.6-0.6-1.4-1-2.3-1.1l-3.8-0.3L909,288L913.3,288.4z M911,281.1l0-3.2l1.4,0.1c0.5,0,0.8,0.2,1.1,0.5
						c0.3,0.3,0.4,0.7,0.4,1.1c0,0.5-0.2,0.9-0.5,1.2c-0.3,0.3-0.7,0.4-1.2,0.3L911,281.1z M912.9,283.1c0.6,0,1,0.2,1.4,0.6
						c0.3,0.3,0.5,0.7,0.5,1.3c0,0.6-0.2,1-0.5,1.3s-0.9,0.4-1.5,0.3l-1.7-0.1l0-3.4L912.9,283.1z"/>
					<g class="st18">
						<g>
							<defs>
								
									<rect id="SVGID_12_" x="906.7" y="278" transform="matrix(9.698137e-02 -0.9953 0.9953 9.698137e-02 543.2576 1163.3781)" width="12.1" height="8.6"/>
							</defs>
							<clipPath id="SVGID_13_">
								<use xlink:href="#SVGID_12_"  style="overflow:visible;"/>
							</clipPath>
							<path class="st19" d="M913.3,288.4c0.7,0.1,1.3,0,1.8-0.2c0.5-0.2,0.9-0.6,1.2-1.1c0.3-0.5,0.4-1.1,0.4-1.8
								c0-0.8-0.2-1.4-0.6-2c-0.4-0.6-0.9-1-1.7-1.3l0-0.1c0.5-0.2,0.8-0.5,1.1-0.9c0.2-0.4,0.4-0.9,0.4-1.4c0-0.9-0.3-1.6-0.9-2.2
								c-0.6-0.6-1.4-1-2.3-1.1l-3.8-0.3L909,288L913.3,288.4z M911,281.1l0-3.2l1.4,0.1c0.5,0,0.8,0.2,1.1,0.5
								c0.3,0.3,0.4,0.7,0.4,1.1c0,0.5-0.2,0.9-0.5,1.2c-0.3,0.3-0.7,0.4-1.2,0.3L911,281.1z M912.9,283.1c0.6,0,1,0.2,1.4,0.6
								c0.3,0.3,0.5,0.7,0.5,1.3c0,0.6-0.2,1-0.5,1.3s-0.9,0.4-1.5,0.3l-1.7-0.1l0-3.4L912.9,283.1z"/>
						</g>
					</g>
					<polygon class="st17" points="925.1,277.3 918.5,276.7 918.4,288.8 925.2,289.4 925.2,287.5 920.4,287.1 920.4,283.7 
						924.9,284.1 924.9,282.3 920.4,281.9 920.5,278.7 925.1,279.1 					"/>
					<g class="st18">
						<g>
							<defs>
								
									<rect id="SVGID_14_" x="915.8" y="279.1" transform="matrix(9.698137e-02 -0.9953 0.9953 9.698137e-02 550.7217 1173.0724)" width="12.1" height="7.8"/>
							</defs>
							<clipPath id="SVGID_15_">
								<use xlink:href="#SVGID_14_"  style="overflow:visible;"/>
							</clipPath>
							<polygon class="st20" points="925.1,277.3 918.5,276.7 918.4,288.8 925.2,289.4 925.2,287.5 920.4,287.1 920.4,283.7 
								924.9,284.1 924.9,282.3 920.4,281.9 920.5,278.7 925.1,279.1 							"/>
						</g>
					</g>
					<polygon class="st17" points="939.5,290.6 941.5,290.7 941.6,278.7 939.8,278.5 936.4,283 933.1,277.9 931.3,277.8 
						931.2,289.9 933.2,290 933.2,281.6 933.3,281.6 936.2,286.1 936.5,286.1 939.5,282.1 939.6,282.1 					"/>
					<g class="st18">
						<g>
							<defs>
								
									<rect id="SVGID_16_" x="930.3" y="278.5" transform="matrix(9.698137e-02 -0.9953 0.9953 9.698137e-02 562.6494 1188.6498)" width="12.2" height="11.4"/>
							</defs>
							<clipPath id="SVGID_17_">
								<use xlink:href="#SVGID_16_"  style="overflow:visible;"/>
							</clipPath>
							<polygon class="st21" points="939.5,290.6 941.5,290.7 941.6,278.7 939.8,278.5 936.4,283 933.1,277.9 931.3,277.8 
								931.2,289.9 933.2,290 933.2,281.6 933.3,281.6 936.2,286.1 936.5,286.1 939.5,282.1 939.6,282.1 							"/>
						</g>
					</g>
					<polygon class="st17" points="946.6,291.1 948.6,291.3 948.6,285.3 952.5,279.6 950.2,279.4 947.6,283.2 945.2,279 
						942.8,278.8 946.6,285.2 					"/>
					<g class="st18">
						<g>
							<defs>
								
									<rect id="SVGID_18_" x="941" y="280.2" transform="matrix(9.698137e-02 -0.9953 0.9953 9.698137e-02 571.44 1200.0558)" width="12.1" height="9.8"/>
							</defs>
							<clipPath id="SVGID_19_">
								<use xlink:href="#SVGID_18_"  style="overflow:visible;"/>
							</clipPath>
							<polygon class="st22" points="946.6,291.1 948.6,291.3 948.6,285.3 952.5,279.6 950.2,279.4 947.6,283.2 945.2,279 
								942.8,278.8 946.6,285.2 							"/>
						</g>
					</g>
					<polygon class="st17" points="895.7,308.3 900.3,296.4 898.2,296.3 895.4,303.8 892.5,295.8 890.4,295.6 895,308.2 					"/>
					<g class="st18">
						<g>
							<defs>
								
									<rect id="SVGID_20_" x="888.7" y="297.1" transform="matrix(9.698137e-02 -0.9953 0.9953 9.698137e-02 507.3838 1163.3298)" width="12.2" height="9.9"/>
							</defs>
							<clipPath id="SVGID_21_">
								<use xlink:href="#SVGID_20_"  style="overflow:visible;"/>
							</clipPath>
							<polygon class="st23" points="895.7,308.3 900.3,296.4 898.2,296.3 895.4,303.8 892.5,295.8 890.4,295.6 895,308.2 							
								"/>
						</g>
					</g>
					<path class="st17" d="M903.5,296.7l-4.3,11.7l2.1,0.2l1-2.9l4.6,0.4l1,3l2.1,0.2l-4.5-12.4L903.5,296.7z M906.2,304.3l-3.3-0.3
						l1.6-4.6L906.2,304.3z"/>
					<g class="st18">
						<g>
							<defs>
								
									<rect id="SVGID_22_" x="899.1" y="297.5" transform="matrix(9.698137e-02 -0.9953 0.9953 9.698137e-02 515.8882 1174.4396)" width="12.1" height="10.8"/>
							</defs>
							<clipPath id="SVGID_23_">
								<use xlink:href="#SVGID_22_"  style="overflow:visible;"/>
							</clipPath>
							<path class="st24" d="M903.5,296.7l-4.3,11.7l2.1,0.2l1-2.9l4.6,0.4l1,3l2.1,0.2l-4.5-12.4L903.5,296.7z M906.2,304.3
								l-3.3-0.3l1.6-4.6L906.2,304.3z"/>
						</g>
					</g>
					<polygon class="st17" points="913.2,307.8 913.2,297.5 911.3,297.4 911.2,309.4 918.1,310 918.2,308.2 					"/>
					<g class="st18">
						<g>
							<defs>
								
									<rect id="SVGID_24_" x="908.7" y="299.7" transform="matrix(9.698137e-02 -0.9953 0.9953 9.698137e-02 523.7132 1184.6508)" width="12" height="8.1"/>
							</defs>
							<clipPath id="SVGID_25_">
								<use xlink:href="#SVGID_24_"  style="overflow:visible;"/>
							</clipPath>
							<polygon class="st25" points="913.2,307.8 913.2,297.5 911.3,297.4 911.2,309.4 918.1,310 918.2,308.2 							"/>
						</g>
					</g>
					<polygon class="st17" points="921.5,308.5 921.5,305 926,305.4 926,303.6 921.5,303.2 921.6,300 926.2,300.4 926.2,298.6 
						919.6,298.1 919.5,310.1 926.2,310.7 926.3,308.9 					"/>
					<g class="st18">
						<g>
							<defs>
								
									<rect id="SVGID_26_" x="916.9" y="300.4" transform="matrix(9.698137e-02 -0.9953 0.9953 9.698137e-02 530.4794 1193.4139)" width="12.1" height="7.8"/>
							</defs>
							<clipPath id="SVGID_27_">
								<use xlink:href="#SVGID_26_"  style="overflow:visible;"/>
							</clipPath>
							<polygon class="st26" points="921.5,308.5 921.5,305 926,305.4 926,303.6 921.5,303.2 921.6,300 926.2,300.4 926.2,298.6 
								919.6,298.1 919.5,310.1 926.2,310.7 926.3,308.9 							"/>
						</g>
					</g>
					<polygon class="st17" points="936.2,311.5 937.9,311.7 938,299.6 936,299.4 936,307.8 929.9,298.9 928.2,298.8 928.1,310.8 
						930,311 930.1,302.4 					"/>
					<g class="st18">
						<g>
							<defs>
								
									<rect id="SVGID_28_" x="926.9" y="299.8" transform="matrix(9.698137e-02 -0.9953 0.9953 9.698137e-02 538.7665 1204.2363)" width="12.2" height="10.9"/>
							</defs>
							<clipPath id="SVGID_29_">
								<use xlink:href="#SVGID_28_"  style="overflow:visible;"/>
							</clipPath>
							<polygon class="st27" points="936.2,311.5 937.9,311.7 938,299.6 936,299.4 936,307.8 929.9,298.9 928.2,298.8 928.1,310.8 
								930,311 930.1,302.4 							"/>
						</g>
					</g>
					<polygon class="st17" points="939.4,301.5 943.1,301.8 943,312.1 945,312.2 945.1,302 948.7,302.3 948.7,300.5 939.5,299.7 
											"/>
					<g class="st18">
						<g>
							<defs>
								
									<rect id="SVGID_30_" x="937.5" y="301.3" transform="matrix(9.698137e-02 -0.9953 0.9953 9.698137e-02 547.459 1215.52)" width="12.1" height="9.5"/>
							</defs>
							<clipPath id="SVGID_31_">
								<use xlink:href="#SVGID_30_"  style="overflow:visible;"/>
							</clipPath>
							<polygon class="st28" points="939.4,301.5 943.1,301.8 943,312.1 945,312.2 945.1,302 948.7,302.3 948.7,300.5 939.5,299.7 
															"/>
						</g>
					</g>
					<polygon class="st17" points="952.2,312.8 952.3,300.8 950.3,300.6 950.2,312.7 					"/>
					<g class="st18">
						<g>
							<defs>
								
									<rect id="SVGID_32_" x="945.2" y="305.2" transform="matrix(9.698137e-02 -0.9953 0.9953 9.698137e-02 553.6868 1223.7235)" width="12" height="3.1"/>
							</defs>
							<clipPath id="SVGID_33_">
								<use xlink:href="#SVGID_32_"  style="overflow:visible;"/>
							</clipPath>
							<polygon class="st29" points="952.2,312.8 952.3,300.8 950.3,300.6 950.2,312.7 							"/>
						</g>
					</g>
					<polygon class="st17" points="956.4,313.2 956.5,304.6 962.6,313.7 964.3,313.9 964.3,301.8 962.4,301.6 962.3,310.1 
						956.3,301.1 954.6,301 954.5,313 					"/>
					<g class="st18">
						<g>
							<defs>
								
									<rect id="SVGID_34_" x="953.3" y="302" transform="matrix(9.698137e-02 -0.9953 0.9953 9.698137e-02 560.3986 1232.4901)" width="12.1" height="10.9"/>
							</defs>
							<clipPath id="SVGID_35_">
								<use xlink:href="#SVGID_34_"  style="overflow:visible;"/>
							</clipPath>
							<polygon class="st30" points="956.4,313.2 956.5,304.6 962.6,313.7 964.3,313.9 964.3,301.8 962.4,301.6 962.3,310.1 
								956.3,301.1 954.6,301 954.5,313 							"/>
						</g>
					</g>
					<polygon class="st17" points="973.2,314.6 973.3,312.8 968.5,312.4 968.5,309 973,309.3 973,307.5 968.5,307.1 968.6,304 
						973.2,304.4 973.2,302.5 966.6,302 966.5,314 					"/>
					<g class="st18">
						<g>
							<defs>
								
									<rect id="SVGID_36_" x="963.9" y="304.4" transform="matrix(9.698137e-02 -0.9953 0.9953 9.698137e-02 569.0151 1243.7463)" width="12.1" height="7.8"/>
							</defs>
							<clipPath id="SVGID_37_">
								<use xlink:href="#SVGID_36_"  style="overflow:visible;"/>
							</clipPath>
							<polygon class="st31" points="973.2,314.6 973.3,312.8 968.5,312.4 968.5,309 973,309.3 973,307.5 968.5,307.1 968.6,304 
								973.2,304.4 973.2,302.5 966.6,302 966.5,314 							"/>
						</g>
					</g>
				</g>
			</g>
		</g>
	</g>
</g>
</svg>
