<?xml version="1.0" encoding="utf-8"?>
<!-- Generator: Adobe Illustrator 21.0.2, SVG Export Plug-In . SVG Version: 6.00 Build 0)  -->
<svg version="1.1" id="Layer_1" xmlns="http://www.w3.org/2000/svg" xmlns:xlink="http://www.w3.org/1999/xlink" x="0px" y="0px"
	 viewBox="0 0 300 173" style="enable-background:new 0 0 300 173;" xml:space="preserve">
<style type="text/css">
	.st0{fill:#FFCC00;}
	.st1{fill:#FCEE21;}
	.st2{fill:#050505;}
	.st3{fill:#EDECE8;}
</style>
<path class="st0" d="M30.7,27.9c0,0,45.3-20.7,94.6,27.9c0,0,52.5-65,94.7-48.6s7.1,55,7.1,55s32.3,23.6,20.4,47.1l52.4-8.6
	l-17.1,15.7l17.1,15.7h-78.6c0,0-42.1,43.6-84.3,40.7S50,154.3,23.6,93.6c0,0-9.3-25-6.4-36.4L0,35L30.7,27.9z"/>
<path class="st1" d="M111.4,73.8c0,0,56.4-83.6,112.1-72.9c0,0,42.1,9.3,7.9,59.3c0,0,52.9,27.9,0,60.7
	C231.4,120.9,168.6,150.2,111.4,73.8z"/>
<circle class="st2" cx="56.2" cy="52.3" r="10.9"/>
<circle class="st3" cx="53" cy="48.8" r="4.5"/>
</svg>
