<?xml version="1.0" encoding="utf-8"?>
<!-- Generator: Adobe Illustrator 21.0.2, SVG Export Plug-In . SVG Version: 6.00 Build 0)  -->
<svg version="1.1" id="Layer_1" xmlns="http://www.w3.org/2000/svg" xmlns:xlink="http://www.w3.org/1999/xlink" x="0px" y="0px"
	 viewBox="0 0 618 489" style="enable-background:new 0 0 618 489;" xml:space="preserve">
<style type="text/css">
	.st0{fill:#ED1B25;stroke:#890714;stroke-width:5;stroke-miterlimit:10;}
	.st1{fill:#890714;stroke:#590009;stroke-width:2;stroke-miterlimit:10;}
	.st2{fill:#890714;}
	.st3{fill:#C9C9C9;}
	.st4{fill:#0C0C0C;}
	.st5{fill:#7E472B;}
	.st6{fill:none;stroke:#FFFFFF;stroke-miterlimit:10;}
	.st7{fill:#E0E0E0;}
</style>
<path class="st0" d="M172.9,110.9c0,0-68-57-135.5,7s-23.5,218,230,249.5l107.5-193c0,0,34-161-110.5-164.5
	C264.4,9.9,170.9,22.4,172.9,110.9z"/>
<path class="st1" d="M182.7,266.9l-56.1,60.4l-37.2-21.1l62.5-65.3c0,0-43.3-60.7-23-70.7s60-5.3,82,7c0,0,8.7-87.7,29-85.3
	s29.3,20.3,29.3,20.3l71.3-74c0,0,20.7,17.3,25.3,34.7l-49.3,53"/>
<path class="st1" d="M151.9,240.9l23,19.3c0,0,35.8,38.2,29.5-26.7"/>
<path class="st0" d="M398.9,178.9c0,0,30.5-78.5,102.5-67.5s121.5,62,97,166.5s-165,197.5-165.5,205c0,0-230.5-111.5-229-239
	c0,0-1-89.5,69.5-110S370.4,144.4,398.9,178.9z"/>
<path class="st2" d="M429.8,464.5c-18.6-9.8-61.2-33.4-103.2-65.5c-49.5-37.8-108.4-95.4-107.7-154.9v-0.3c0-0.2,0-20.8,7.8-43
	c9.7-27.8,26.9-45.4,50.9-52.4c13.6-4,26-6,36.8-6c34.9,0,52.5,21.4,73,46.1l16.3,19.7l9.3-23.8c0-0.1,6.3-15.6,19.1-30.7
	c16.1-18.8,34.8-28.3,55.8-28.3c3.7,0,7.5,0.3,11.3,0.9c42.7,6.5,64,26.2,74.4,41.6c17.4,25.7,20.8,61.5,10.2,106.6
	C565.9,350.6,479.1,423.2,442,454.2C437,458.4,433,461.7,429.8,464.5z"/>
<g id="chocolates">
	<path class="st3" d="M512,251.1c-1.5,0-3.2-0.3-4.9-0.9c-7.2-2.4-18.8-3.1-30.1-3.7c-19.7-1.1-36.8-2.1-37.6-12.6
		c-1.1-12.6,5.4-32.3,5.7-33.2l0.8-2.6l2.7-0.2c4-0.3,8.1-0.4,12.1-0.4c32.7,0,57.4,8.2,58.4,8.6l2.1,0.7l0.5,2.2
		c0.6,2.9,6,28.6-1.6,38.1C518.1,249.7,515.3,251.1,512,251.1z"/>
	<path class="st4" d="M512,250.1c-1.4,0-3-0.3-4.6-0.8c-7.3-2.5-19-3.1-30.3-3.8c-19.3-1.1-35.9-2-36.7-11.7
		c-1-12.4,5.4-32,5.6-32.8l0.6-1.9l2-0.1c3.9-0.3,8-0.4,12.1-0.4c32.5,0,57.1,8.2,58.1,8.5l1.6,0.5l0.4,1.7
		c0.6,2.9,5.9,28.1-1.4,37.3C517.6,248.8,515,250.1,512,250.1C512,250.1,512,250.1,512,250.1z"/>
	<path class="st5" d="M448.9,201.9c0,0-6.5,19.7-5.5,31.6s46,6.4,65,12.9c19,6.5,9.5-36.5,9.5-36.5S486.9,199.4,448.9,201.9z"/>
	<path class="st6" d="M454.9,218.9c0,0,8.5-8.5,11.5,0s12,0,12,0s8.5-6.5,10,0s10.5,8.1,14.5,3.8s8.5,5.2,8.5,5.2"/>
	<path class="st3" d="M512,327.3c-1.5,0-3.2-0.3-4.9-0.9c-7.2-2.4-18.8-3.1-30.1-3.7c-19.7-1.1-36.8-2.1-37.6-12.6
		c-1.1-12.6,5.4-32.3,5.7-33.2l0.8-2.6l2.7-0.2c4-0.3,8.1-0.4,12.1-0.4c32.7,0,57.4,8.2,58.4,8.6l2.1,0.7l0.5,2.2
		c0.6,2.9,6,28.6-1.6,38.1C518.1,325.9,515.3,327.3,512,327.3z"/>
	<path class="st4" d="M512,326.3c-1.4,0-3-0.3-4.6-0.8c-7.3-2.5-19-3.1-30.3-3.8c-19.3-1.1-35.9-2-36.7-11.7
		c-1-12.4,5.4-32,5.6-32.8l0.6-1.9l2-0.1c3.9-0.3,8-0.4,12.1-0.4c32.5,0,57.1,8.2,58.1,8.5l1.6,0.5l0.4,1.7
		c0.6,2.9,5.9,28.1-1.4,37.3C517.6,325.1,515,326.3,512,326.3C512,326.3,512,326.3,512,326.3z"/>
	<path class="st5" d="M448.9,278.1c0,0-6.5,19.7-5.5,31.6s46,6.4,65,12.9c19,6.5,9.5-36.5,9.5-36.5S486.9,275.6,448.9,278.1z"/>
	<path class="st6" d="M454.9,295.1c0,0,8.5-8.5,11.5,0s12,0,12,0s8.5-6.5,10,0s10.5,8.1,14.5,3.8s8.5,5.2,8.5,5.2"/>
	<path class="st3" d="M349.5,224.3c-1.5,0-3.2-0.3-4.9-0.9c-7.2-2.4-18.8-3.1-30.1-3.7c-19.7-1.1-36.8-2.1-37.6-12.6
		c-1.1-12.6,5.4-32.3,5.7-33.2l0.8-2.6l2.7-0.2c4-0.3,8.1-0.4,12.1-0.4c32.7,0,57.4,8.2,58.4,8.6l2.1,0.7l0.5,2.2
		c0.6,2.9,6,28.6-1.6,38.1C355.6,222.9,352.8,224.3,349.5,224.3z"/>
	<path class="st4" d="M349.5,223.3c-1.4,0-3-0.3-4.6-0.8c-7.3-2.5-19-3.1-30.3-3.8c-19.3-1.1-35.9-2-36.7-11.7
		c-1-12.4,5.4-32,5.6-32.8l0.6-1.9l2-0.1c3.9-0.3,8-0.4,12.1-0.4c32.5,0,57.1,8.2,58.1,8.5l1.6,0.5l0.4,1.7
		c0.6,2.9,5.9,28.1-1.4,37.3C355.1,222.1,352.5,223.3,349.5,223.3C349.5,223.3,349.5,223.3,349.5,223.3z"/>
	<path class="st5" d="M286.4,175.1c0,0-6.5,19.7-5.5,31.6s46,6.4,65,12.9s9.5-36.5,9.5-36.5S324.4,172.6,286.4,175.1z"/>
	<path class="st6" d="M292.4,192.1c0,0,8.5-8.5,11.5,0s12,0,12,0s8.5-6.5,10,0s10.5,8.1,14.5,3.8s8.5,5.2,8.5,5.2"/>
	<path class="st3" d="M413,294.9c-1.5,0-3.2-0.3-4.9-0.9c-7.2-2.4-18.8-3.1-30.1-3.7c-19.7-1.1-36.8-2.1-37.6-12.6
		c-1.1-12.6,5.4-32.3,5.7-33.2l0.8-2.6l2.7-0.2c4-0.3,8.1-0.4,12.1-0.4c32.7,0,57.4,8.2,58.4,8.6l2.1,0.7l0.5,2.2
		c0.6,2.9,6,28.6-1.6,38.1C419.1,293.5,416.3,294.9,413,294.9z"/>
	<path class="st4" d="M413,293.9c-1.4,0-3-0.3-4.6-0.8c-7.3-2.5-19-3.1-30.3-3.8c-19.3-1.1-35.9-2-36.7-11.7
		c-1-12.4,5.4-32,5.6-32.8l0.6-1.9l2-0.1c3.9-0.3,8-0.4,12.1-0.4c32.5,0,57.1,8.2,58.1,8.5l1.6,0.5l0.4,1.7
		c0.6,2.9,5.9,28.1-1.4,37.3C418.6,292.7,416,293.9,413,293.9C413,293.9,413,293.9,413,293.9z"/>
	<path class="st5" d="M349.9,245.7c0,0-6.5,19.7-5.5,31.6s46,6.4,65,12.9s9.5-36.5,9.5-36.5S387.9,243.2,349.9,245.7z"/>
	<path class="st6" d="M355.9,262.7c0,0,8.5-8.5,11.5,0c3,8.5,12,0,12,0s8.5-6.5,10,0s10.5,8.1,14.5,3.8c4-4.3,8.5,5.2,8.5,5.2"/>
	<path class="st3" d="M332,338.4c-1.5,0-3.2-0.3-4.9-0.9c-7.2-2.4-18.8-3.1-30.1-3.7c-19.7-1.1-36.8-2.1-37.6-12.6
		c-1.1-12.6,5.4-32.3,5.7-33.2l0.8-2.6l2.7-0.2c4-0.3,8.1-0.4,12.1-0.4c32.7,0,57.4,8.2,58.4,8.6l2.1,0.7l0.5,2.2
		c0.6,2.9,6,28.6-1.6,38.1C338.2,337,335.3,338.4,332,338.4z"/>
	<path class="st4" d="M332,337.4c-1.4,0-3-0.3-4.6-0.8c-7.3-2.5-19-3.1-30.3-3.8c-19.3-1.1-35.9-2-36.7-11.7
		c-1-12.4,5.4-32,5.6-32.8l0.6-1.9l2-0.1c3.9-0.3,8-0.4,12.1-0.4c32.5,0,57.1,8.2,58.1,8.5l1.6,0.5l0.4,1.7
		c0.6,2.9,5.9,28.1-1.4,37.3C337.6,336.2,335,337.4,332,337.4C332,337.4,332,337.4,332,337.4z"/>
	<path class="st5" d="M268.9,289.2c0,0-6.5,19.7-5.5,31.6s46,6.4,65,12.9s9.5-36.5,9.5-36.5S306.9,286.7,268.9,289.2z"/>
	<path class="st6" d="M274.9,306.2c0,0,8.5-8.5,11.5,0s12,0,12,0s8.5-6.5,10,0s10.5,8.1,14.5,3.8c4-4.3,8.5,5.2,8.5,5.2"/>
	<path class="st3" d="M470.5,389.4c-1.5,0-3.2-0.3-4.9-0.9c-7.2-2.4-18.8-3.1-30.1-3.7c-19.7-1.1-36.8-2.1-37.6-12.6
		c-1.1-12.6,5.4-32.3,5.7-33.2l0.8-2.6l2.7-0.2c4-0.3,8.1-0.4,12.1-0.4c32.7,0,57.4,8.2,58.4,8.6l2.1,0.7l0.5,2.2
		c0.6,2.9,6,28.6-1.6,38.1C476.7,388.1,473.8,389.4,470.5,389.4z"/>
	<path class="st4" d="M470.5,388.4c-1.4,0-3-0.3-4.6-0.8c-7.3-2.5-19-3.1-30.3-3.8c-19.3-1.1-35.9-2-36.7-11.7
		c-1-12.4,5.4-32,5.6-32.8l0.6-1.9l2-0.1c3.9-0.3,8-0.4,12.1-0.4c32.5,0,57.1,8.2,58.1,8.5l1.6,0.5l0.4,1.7
		c0.6,2.9,5.9,28.1-1.4,37.3C476.1,387.2,473.5,388.4,470.5,388.4C470.5,388.4,470.5,388.4,470.5,388.4z"/>
	<path class="st5" d="M407.4,340.3c0,0-6.5,19.7-5.5,31.6s46,6.4,65,12.9s9.5-36.5,9.5-36.5S445.4,337.8,407.4,340.3z"/>
	<path class="st6" d="M413.4,357.3c0,0,8.5-8.5,11.5,0s12,0,12,0s8.5-6.5,10,0s10.5,8.1,14.5,3.8s8.5,5.2,8.5,5.2"/>
	<path class="st7" d="M424.3,445.5c-13.1,0-23.8-10.7-23.8-23.8s10.7-23.8,23.8-23.8c13.1,0,23.8,10.7,23.8,23.8
		S437.4,445.5,424.3,445.5z"/>
	<path d="M424.3,444.5c-12.5,0-22.8-10.2-22.8-22.8s10.2-22.8,22.8-22.8c12.5,0,22.8,10.2,22.8,22.8S436.8,444.5,424.3,444.5z"/>
	<circle class="st5" cx="424.3" cy="421.8" r="19.8"/>
	<path class="st6" d="M418.7,410.7c0,0-11.2,14.5,2.5,25.5"/>
	<path class="st6" d="M431.2,410.7c1.5-1,9.3,12.8,0,24.2"/>
	<path class="st7" d="M280.8,241.4c0,13.1-10.7,23.8-23.8,23.8c-13.1,0-23.8-10.7-23.8-23.8"/>
	<path class="st7" d="M233.3,241.4c0-13.1,10.7-23.8,23.8-23.8c13.1,0,23.8,10.7,23.8,23.8"/>
	<path d="M279.8,241.4c0,12.5-10.2,22.8-22.8,22.8c-12.5,0-22.8-10.2-22.8-22.8"/>
	<path d="M234.3,241.4c0-12.5,10.2-22.8,22.8-22.8c12.5,0,22.8,10.2,22.8,22.8"/>
	<path class="st5" d="M237.3,241.4c0-10.9,8.8-19.8,19.8-19.8c10.9,0,19.8,8.8,19.8,19.8"/>
	<path class="st5" d="M276.8,241.4c0,10.9-8.8,19.8-19.8,19.8c-10.9,0-19.8-8.8-19.8-19.8"/>
	<path class="st6" d="M251.5,230.3c0,0-11.2,14.5,2.5,25.5"/>
	<path class="st6" d="M264,230.3c1.5-1,9.3,12.8,0,24.2"/>
	<path class="st7" d="M510.3,159c0,13.1-10.7,23.8-23.8,23.8c-13.1,0-23.8-10.7-23.8-23.8"/>
	<path class="st7" d="M462.8,159c0-13.1,10.7-23.8,23.8-23.8c13.1,0,23.8,10.7,23.8,23.8"/>
	<path d="M509.3,159c0,12.5-10.2,22.8-22.8,22.8c-12.5,0-22.8-10.2-22.8-22.8"/>
	<path d="M463.8,159c0-12.5,10.2-22.8,22.8-22.8c12.5,0,22.8,10.2,22.8,22.8"/>
	<path class="st5" d="M466.8,159c0-10.9,8.8-19.8,19.8-19.8c10.9,0,19.8,8.8,19.8,19.8"/>
	<path class="st5" d="M506.3,159c0,10.9-8.8,19.8-19.8,19.8c-10.9,0-19.8-8.8-19.8-19.8"/>
	<path class="st6" d="M481,148c0,0-11.2,14.5,2.5,25.5"/>
	<path class="st6" d="M493.5,148c1.5-1,9.3,12.8,0,24.2"/>
	<path class="st7" d="M577.5,265.4c0,13.1-10.7,23.8-23.8,23.8c-13.1,0-23.8-10.7-23.8-23.8"/>
	<path class="st7" d="M530,265.4c0-13.1,10.7-23.8,23.8-23.8c13.1,0,23.8,10.7,23.8,23.8"/>
	<path d="M576.5,265.4c0,12.5-10.2,22.8-22.8,22.8c-12.5,0-22.8-10.2-22.8-22.8"/>
	<path d="M531,265.4c0-12.5,10.2-22.8,22.8-22.8c12.5,0,22.8,10.2,22.8,22.8"/>
	<path class="st5" d="M534,265.4c0-10.9,8.8-19.8,19.8-19.8s19.8,8.8,19.8,19.8"/>
	<path class="st5" d="M573.5,265.4c0,10.9-8.8,19.8-19.8,19.8s-19.8-8.8-19.8-19.8"/>
	<path class="st6" d="M548.2,254.3c0,0-11.2,14.5,2.5,25.5"/>
	<path class="st6" d="M560.7,254.3c1.5-1,9.3,12.8,0,24.2"/>
	<path class="st7" d="M379.6,359.9c0,13.1-10.7,23.8-23.8,23.8c-13.1,0-23.8-10.7-23.8-23.8"/>
	<path class="st7" d="M332.1,359.9c0-13.1,10.7-23.8,23.8-23.8c13.1,0,23.8,10.7,23.8,23.8"/>
	<path d="M378.6,359.9c0,12.5-10.2,22.8-22.8,22.8c-12.5,0-22.8-10.2-22.8-22.8"/>
	<path d="M333.1,359.9c0-12.5,10.2-22.8,22.8-22.8c12.5,0,22.8,10.2,22.8,22.8"/>
	<path class="st5" d="M336.1,359.9c0-10.9,8.8-19.8,19.8-19.8c10.9,0,19.8,8.8,19.8,19.8"/>
	<path class="st5" d="M375.6,359.9c0,10.9-8.8,19.8-19.8,19.8c-10.9,0-19.8-8.8-19.8-19.8"/>
	<path class="st6" d="M350.4,348.8c0,0-11.2,14.5,2.5,25.5"/>
	<path class="st6" d="M362.9,348.8c1.5-1,9.3,12.8,0,24.2"/>
	<path class="st7" d="M574.5,197.5c0,13.1-10.7,23.8-23.8,23.8c-13.1,0-23.8-10.7-23.8-23.8"/>
	<path class="st7" d="M527,197.5c0-13.1,10.7-23.8,23.8-23.8c13.1,0,23.8,10.7,23.8,23.8"/>
	<path d="M573.5,197.5c0,12.5-10.2,22.8-22.8,22.8c-12.5,0-22.8-10.2-22.8-22.8"/>
	<path d="M528,197.5c0-12.5,10.2-22.8,22.8-22.8c12.5,0,22.8,10.2,22.8,22.8"/>
	<path class="st5" d="M531,197.5c0-10.9,8.8-19.8,19.8-19.8s19.8,8.8,19.8,19.8"/>
	<path class="st5" d="M570.5,197.5c0,10.9-8.8,19.8-19.8,19.8s-19.8-8.8-19.8-19.8"/>
	<path class="st6" d="M545.2,186.5c0,0-11.2,14.5,2.5,25.5"/>
	<path class="st6" d="M557.7,186.5c1.5-1,9.3,12.8,0,24.2"/>
</g>
</svg>
