<?xml version="1.0" encoding="utf-8"?>
<!-- Generator: Adobe Illustrator 21.0.2, SVG Export Plug-In . SVG Version: 6.00 Build 0)  -->
<svg version="1.1" id="Layer_1" xmlns="http://www.w3.org/2000/svg" xmlns:xlink="http://www.w3.org/1999/xlink" x="0px" y="0px"
	 viewBox="0 0 439 217" style="enable-background:new 0 0 439 217;" xml:space="preserve">
<style type="text/css">
	.st0{fill:#FFD7FB;}
</style>
<g>
	<path class="st0" d="M369.2,157.9c-11.6-1.2-23.2-2.3-34.8-3.5c-6.6-0.7-7.5,0.2-5.7,6.6c5,17.3-2.1,32.2-18.7,39.1
		c-11,4.6-22.5,5.8-34.3,4.1c-18-2.7-35.2-7.6-49.7-19.1c-4.4-3.5-8-7.5-7.4-13.9c0.1-1.1-1.4-2.3-2.1-3.5c-1.1,1-2.9,1.8-3.3,3
		c-5.9,19.9-16.8,28.4-37.7,29.4c-10.1,0.5-20-0.6-29.1-5.6c-6.4-3.5-10.9-8.2-9.9-16.4c0.1-1.2-1.3-2.6-2.1-3.9
		c-1.1,0.8-2.4,1.5-3.3,2.5c-3,3.7-5.1,8.5-8.8,11.1c-26.3,18.4-55.3,25.6-87.1,19.2c-0.7-0.1-1.3-0.3-1.9-0.5
		c-20.2-6.5-25.4-19.3-14.6-37.6c11.1-18.7,27.4-31.5,47.9-38.9c2.8-1,5.9-0.8,8.8-1.6c1.7-0.5,3.1-1.7,4.7-2.6
		c-1.5-0.9-2.9-2.5-4.5-2.7c-12.6-1.1-23-6.5-31.6-15.5c-11-11.5-10.8-24.8,0.3-38.7c18-22.6,47.9-27.9,74.9-13.3
		c0.6,0.3,1.1,0.9,1.7,1c1.9,0.3,3.9,0.5,5.8,0.7c-0.6-1.8-0.8-4.1-2-5.5c-9.7-11.3-9.4-23.7,0.9-34.4c12.2-12.8,28-16.1,43.7-8.2
		c18.2,9.2,32.8,22.1,40.2,41.8c0.5,1.3,2.1,2.1,3.2,3.1c0.8-1.1,2.3-2.2,2.2-3.3c-0.7-17,10-26.6,23.3-33
		c31.1-15.1,62.9-14.4,94.2-0.8c11.6,5,16.4,16.3,19.1,27.9c2.6,10.9,2.7,21.6-7,29.9c-0.8,0.7-0.5,2.6-0.7,3.9c1.5,0,3.3,0.6,4.5,0
		c6.9-2.9,13.4-6.7,20.5-9.1c13.5-4.5,27-3.3,39.9,2.8c2.9,1.4,5.7,3.6,7.9,6c13.9,15,14.4,47.4,1.1,62.8
		c-9.5,10.9-22.3,14.6-36.1,15.8c-4.1,0.4-8.3,0.1-12.5,0.1C369.2,157.3,369.2,157.6,369.2,157.9z"/>
</g>
</svg>
