<?xml version="1.0" encoding="utf-8"?>
<!-- Generator: Adobe Illustrator 21.0.2, SVG Export Plug-In . SVG Version: 6.00 Build 0)  -->
<svg version="1.1" id="Layer_1" xmlns="http://www.w3.org/2000/svg" xmlns:xlink="http://www.w3.org/1999/xlink" x="0px" y="0px"
	 viewBox="0 0 363.8 392.4" style="enable-background:new 0 0 363.8 392.4;" xml:space="preserve">
<style type="text/css">
	.st0{fill:#FFFFFF;}
	.st1{fill:#7F5122;}
	.st2{fill:#FF8AC2;}
</style>
<g>
	
		<image style="overflow:visible;opacity:0.66;" width="332" height="362" xlink:href="FBA11DCAA249F187.png"  transform="matrix(1 0 0 1 51 0.3574)">
	</image>
	<g>
		<g>
			<path class="st0" d="M150.3,24.2c-5.6,5.5-5.2,12.1-4.5,19.4c-5.2-4.2-9.7-8-14.3-11.7c-0.5,0-1,0.1-1.5,0.1
				c0.3,6.5,0.7,13.1,1,19.1c-3.3-0.4-7.1-0.5-10.8-1.3c-2.6-0.5-5.5-1.2-7.3-2.8c-13.4-12-29.1-19.9-46-25.3
				c-9.2-3-9.4-2.6-9.9,7.1c0,0.5-0.1,1-0.1,1.5c-0.9,16.6-1.9,33.3,3,49.6c0.7,2.3-0.1,5.1-0.3,7.6c-0.6,0.2-1.2,0.3-1.9,0.5
				c3.2,3.7,6.5,7.5,9.7,11.2c-7.6,9.6-10.7,18.2-8.4,22.4c3-2.1,6-4.3,9.1-6.5c0.3,0.4,0.6,0.7,0.9,1.1c-3.8,6.9-5.4,14-2.6,22
				c2.2-1.5,4.1-2.9,6-4.2c-0.4,5.4-0.7,10.3-1,15.8c3.3-1,5.3-1.6,8-2.4c-1.9,8.6-2.1,16.4,0.9,23.7c2.7-2.4,5.2-4.6,7.5-6.6
				c0.6,11.1,1.1,21.3,1.6,32.4c5.7-2.6,10-4.5,14.5-6.5c0,2-0.4,4.1,0.1,5.9c1,4.3,1.6,9.1,3.9,12.6c1.7,2.5,2.4,4.4,1.9,7.1
				c-1.6,10.1-3.4,20.2-5.1,30.7c1.2,0.5,3,1.2,5,2.1c-1.8,4.2-3.4,8.2-4.6,11.1c4.6,4.5,9.4,7.6,11.7,12c3.5,6.6,6.6,14,7.7,21.4
				c1.7,11.5,1.7,23.2,2.1,34.8c0.1,2.7,0.7,4.3,3.3,4.5c7.1,0.6,14.3,1.6,21.4,1.1c3.5-0.2,8.4-2.5,9.9-5.2
				c5.7-10.6,9.6-21.9,10.3-34.1c0-0.5,0.4-0.9,0.6-1.4c0.9,0.4,1.8,0.8,2.7,1.1c0.8-2.1,1.5-4.1,2.7-7.3
				c3.9,15.4,5.8,29.7,2.8,44.3c-0.6,2.7-0.7,4.7,2.7,5.1c11.5,1.2,23,2.2,33.9-2.4c1.8-0.8,3.7-3,4.2-4.9
				c1.8-6.6,2.8-13.3,4.4-19.9c1.7-7.2,3.8-14.3,5.8-21.7c6.2,1.6,11.7,3,17.2,4.3c3,0.7,4.7,0,3.4-3.6c-0.5-1.6-0.9-3.2-1.3-4.8
				c0.6-0.1,1.2-0.2,1.8-0.4c0.3,1.8,1.2,3.8,0.8,5.5c-1.6,7.6-3.2,15.2-5.5,22.6c-1.7,5.4-1.8,6.7,3.9,7.3
				c8.6,0.8,17.3,1.1,25.8,0.7c9.3-0.4,15.8-4.7,17.7-14.8c1.1-6.1,3.3-12,5.5-19.5c1.2,3.5,2.6,5.6,2.6,7.7
				c-0.1,11.4-1.2,22.6-7.1,32.8c-2.1,3.6-0.8,4.7,2.7,5.2c12.3,1.9,24.5,0.9,36.7-1.4c3.8-0.7,5.8-2.3,7.1-5.8
				c6-16.5,10.9-33.2,9.7-51.1c-0.3-4.1,0-8.2,0-12.4c2.5,0.6,4.5,1.1,7.6,1.9c-1.9-5.7-3.5-10.4-5.2-15.5c3.2-0.5,5.8-0.8,9.1-1.3
				c-0.3-23.9-8.6-45-21.2-62.7c3.9-8.3,7.9-15.2,10.5-22.6c2.2-6,1.2-6.7-4-7.7c0.9-7.1,1.9-14.1,2.8-21.2c-0.9-0.5-1.8-1-2.7-1.5
				c-2,3.2-4,6.3-6,9.5c-3.8-12.2-7.9-22.2-17.8-31.1c-2,6.8-3.8,12.2-5.2,17.7c-2.1,8-3.5,16.2-6,24.2c-0.7,2.3-3.8,5-6.1,5.4
				c-20.5,3.9-41,4.1-61.6,0.1c-1.4-0.3-2.6-1.7-3.9-2.5c0.2-0.5,0.5-1,0.7-1.5c4.1,0.9,8.2,1.8,12.8,2.8c-1-9.8-6.3-17.5-10.5-26.7
				c3.3,1.4,5.7,2.5,8.4,3.6c1.1-6.8-4.6-10.1-6.4-16.1c4.9,1.5,9.7,3.1,14.6,4.7c1.6-9.3-4-16-11.7-23.1c4.8,0.4,8.1,0.6,11.4,0.9
				c0.4-0.4,0.8-0.7,1.1-1.1c-3.9-5.3-7.9-10.7-12-16.2c2.6-3.4,6-7.6,9.6-12.3c-2.4-0.7-4.2-1.3-6-1.8c3.7-22,0.4-46.5-6-61.7
				c-0.8-2-1.1-4.1-4.4-3.1c-20,5.9-37.2,16-49.7,33.1c-1.8,2.5-3.1,4.2-6.7,4.3c-8.9,0.3-16.6,3.7-23.3,10.8
				C163.7,37.5,158,30.6,150.3,24.2z"/>
			<path d="M150.3,24.2c7.7,6.4,13.3,13.3,14.1,24.3c6.7-7,14.5-10.5,23.3-10.8c3.6-0.1,4.9-1.8,6.7-4.3
				c12.5-17.1,29.7-27.2,49.7-33.1c3.3-1,3.6,1.1,4.4,3.1c6.4,15.2,9.7,39.7,6,61.7c1.7,0.5,3.5,1.1,6,1.8c-3.7,4.7-7,9-9.6,12.3
				c4.1,5.6,8,10.9,12,16.2c-0.4,0.4-0.8,0.7-1.1,1.1c-3.3-0.3-6.6-0.5-11.4-0.9c7.7,7.1,13.3,13.7,11.7,23.1
				c-4.9-1.6-9.7-3.1-14.6-4.7c1.8,6,7.6,9.3,6.4,16.1c-2.7-1.2-5-2.2-8.4-3.6c4.2,9.2,9.5,16.9,10.5,26.7c-4.7-1-8.7-1.9-12.8-2.8
				c-0.2,0.5-0.5,1-0.7,1.5c1.3,0.9,2.5,2.3,3.9,2.5c20.5,4,41.1,3.7,61.6-0.1c2.4-0.5,5.4-3.1,6.1-5.4c2.5-7.9,3.9-16.1,6-24.2
				c1.4-5.5,3.2-11,5.2-17.7c9.9,8.9,14,18.9,17.8,31.1c2-3.2,4-6.3,6-9.5c0.9,0.5,1.8,1,2.7,1.5c-0.9,7-1.9,14.1-2.8,21.2
				c5.3,1,6.2,1.7,4,7.7c-2.7,7.4-6.6,14.3-10.5,22.6c12.6,17.7,21,38.7,21.2,62.7c-3.3,0.5-5.9,0.8-9.1,1.3
				c1.7,5.1,3.3,9.8,5.2,15.5c-3.1-0.8-5.1-1.3-7.6-1.9c0,4.2-0.2,8.3,0,12.4c1.3,17.9-3.7,34.6-9.7,51.1c-1.3,3.5-3.3,5.1-7.1,5.8
				c-12.2,2.3-24.4,3.3-36.7,1.4c-3.5-0.5-4.7-1.6-2.7-5.2c5.8-10.1,6.9-21.4,7.1-32.8c0-2.1-1.4-4.2-2.6-7.7
				c-2.2,7.5-4.4,13.4-5.5,19.5c-1.8,10.1-8.4,14.4-17.7,14.8c-8.6,0.4-17.3,0.1-25.8-0.7c-5.7-0.5-5.6-1.9-3.9-7.3
				c2.3-7.4,3.9-15,5.5-22.6c0.4-1.7-0.5-3.7-0.8-5.5c-0.6,0.1-1.2,0.2-1.8,0.4c0.4,1.6,0.8,3.3,1.3,4.8c1.2,3.5-0.4,4.3-3.4,3.6
				c-5.5-1.3-10.9-2.7-17.2-4.3c-2,7.4-4.1,14.5-5.8,21.7c-1.6,6.6-2.6,13.4-4.4,19.9c-0.5,1.9-2.4,4.1-4.2,4.9
				c-11,4.6-22.5,3.6-33.9,2.4c-3.3-0.4-3.2-2.4-2.7-5.1c3-14.6,1.1-28.8-2.8-44.3c-1.2,3.2-1.9,5.2-2.7,7.3
				c-0.9-0.4-1.7-0.7-2.7-1.1c-0.2,0.5-0.6,1-0.6,1.4c-0.8,12.2-4.7,23.5-10.3,34.1c-1.5,2.8-6.4,5-9.9,5.2
				c-7.1,0.5-14.2-0.5-21.4-1.1c-2.6-0.2-3.2-1.9-3.3-4.5c-0.4-11.6-0.4-23.3-2.1-34.8c-1.1-7.4-4.1-14.8-7.7-21.4
				c-2.4-4.4-7.2-7.5-11.7-12c1.2-2.8,2.9-6.9,4.6-11.1c-2-0.8-3.8-1.6-5-2.1c1.8-10.5,3.5-20.6,5.1-30.7c0.4-2.6-0.3-4.6-1.9-7.1
				c-2.3-3.5-2.9-8.3-3.9-12.6c-0.4-1.9-0.1-3.9-0.1-5.9c-4.5,2-8.8,4-14.5,6.5c-0.6-11.1-1.1-21.4-1.6-32.4c-2.3,2-4.8,4.2-7.5,6.6
				c-2.9-7.3-2.7-15.1-0.9-23.7c-2.7,0.8-4.7,1.4-8,2.4c0.4-5.4,0.7-10.4,1-15.8c-1.9,1.3-3.8,2.6-6,4.2c-2.8-7.9-1.2-15.1,2.6-22
				c-0.3-0.4-0.6-0.7-0.9-1.1c-3,2.2-6.1,4.4-9.1,6.5c-2.3-4.1,0.8-12.8,8.4-22.4c-3.2-3.7-6.5-7.5-9.7-11.2
				c0.6-0.2,1.2-0.3,1.9-0.5c0.1-2.6,0.9-5.3,0.3-7.6c-4.8-16.3-3.8-33-3-49.6c0-0.5,0.1-1,0.1-1.5c0.5-9.7,0.7-10.1,9.9-7.1
				c16.9,5.4,32.6,13.3,46,25.3c1.8,1.6,4.8,2.3,7.3,2.8c3.7,0.7,7.5,0.9,10.8,1.3c-0.3-6-0.6-12.6-1-19.1c0.5,0,1-0.1,1.5-0.1
				c4.6,3.7,9.1,7.5,14.3,11.7C145.1,36.3,144.7,29.7,150.3,24.2z M344.4,156.5c2.1,3.3,0.9,6.1-0.7,9.3c-1.2,2.2-3.8,4.7-0.7,8.2
				c4.3-5.9,7.2-11.8,8-20c-2.9,1.2-4.7,1.9-6.6,2.7c0.3-2,0.3-4.1,0.9-6.1c1-3.8,2.2-7.4,3.3-11.2c-0.4-0.1-0.7-0.3-1.1-0.4
				c-3.9,5.9-7.8,11.8-11.6,17.6C338.6,156.6,341.5,156.6,344.4,156.5z M60,23.3c0,4.5,0.2,7.9,0,11.4c-0.8,15.7-1.1,31.3,3.8,46.5
				c0.8,2.4,0.1,5.3,0.1,8c-0.5,0.1-1,0.1-1.6,0.2c2.8,3.4,5.6,6.9,7.7,9.5c-3.4,6-6.3,11.2-9.3,16.6c5.2-0.9,9.5-1.6,13.8-2.4
				c0.2,0.5,0.4,1,0.6,1.4c-7.6,4.5-7.7,11.8-7.9,19.3c3.6-1.4,7-2.7,10.2-4c-1.6,5.7-3.1,10.9-4.8,16.9c4.3-1.2,7.4-2,11.2-3
				c-3.3,7.5-4.4,14.3-2.7,21.2c3.7-1.1,7.1-2.1,10.6-3.1c-0.7,8.2-1.3,15.5-1.9,22.5c3.8-7.8,7.5-15.6,11.3-23.5
				c-2.5-0.8-5.7-1.9-9.6-3.2c6.3-7.7,15-10.4,22-13.3c-1-4.4-2.5-8-2.6-11.6c-0.1-6.3,5.8-12.2,11.9-12.8
				c5.4-0.6,11.3,3.6,12.9,9.1c1.6,5.4-1.5,12.2-7.3,14.9c-2.6,1.2-5.7,1.5-8.6,1.9c-8.7,1.2-16.1,5-23.5,10.6
				c3.7,1.4,6.6,2.5,9.5,3.6c-3.3,5.3-6.9,10-9.2,15.2c-2.2,5.2-3.1,11-4.6,16.6c0.4,0.3,0.8,0.6,1.1,0.9c4.6-2.5,9.1-4.9,14.9-8.1
				c0,8.2,0,14.8,0,22.3c6.7-5.9,12.2-9.4,20.9-9.6c10.2-0.2,12.7,7,17.6,12c1.6-2.7,3.2-5.2,5-8.3c4.4,5.4,8.1,10.1,12.7,15.7
				c2.4-4.9,4.3-9,6.4-13.1c0.7-1.4,1.7-2.6,2.5-3.9c1.1,1.1,2.4,2,3.4,3.2c1.4,1.6,2.7,3.2,3.4,4.1c4.7-6,9.3-12,14.1-17.9
				c0.8-1,2.6-2.3,3.6-2c7.2,2,14.2,4.3,22.1,6.8c0.3-5.2,0.7-11.4,1.2-17.8c2.7,0.2,5.7,0.4,8.8,0.7c1.8-7.6-2.2-12.7-6.1-17.7
				c-3.9-5-7.7-10.4-14.9-11.2c6-0.3,11.9-0.7,18.6-1.1c-8.3-11.8-19.4-14.7-30.4-9.2c-9.1,4.6-21.2-0.8-22-9.8
				c-0.7-7.7,4.3-14.8,11-15.3c9.4-0.8,15.9,4.8,16.4,14c0.1,1.9,0,3.9,0,6.2c12.8-1.2,21.7,4.7,28.6,14.7
				c-4.1,0.9-7.7,1.8-10.7,2.4c4.2,6.8,8.1,13.2,12.1,19.4c0.4,0.7,1.4,1.3,2.2,1.5c2.7,0.6,5.5,1,9.6,1.7
				c-1.1-6.4-1.8-12.3-3.2-17.9c-1.3-5.1-1.2-5.8,4.2-5.8c2.4,0,4.9,0.4,8.6,0.7c-4.3-8.5-8.3-16.3-12.6-24.7
				c3.2,0.2,6.1,0.4,9.9,0.7c-3.3-3.9-6.2-7.3-9.5-11.2c6.5-2.6,12.4-1.4,18.6,0.6c-1.7-8.7-7.1-13.8-13.6-18.3
				c0.1-0.5,0.1-0.9,0.2-1.4c3.7-0.7,7.4-1.4,12.6-2.3c-4.5-4.5-8.5-8.5-12.4-12.4c2.8-3.5,5.7-7,7.8-9.6c-1.5-2.6-3.6-4.6-3.3-6.2
				c3.5-19.3,1.3-38-4.4-56.6c-1.1-3.6-2.6-4.1-6.1-3c-13.8,4.3-25.6,11.9-36.2,21.5c-8.2,7.4-13.1,16.9-16.2,27.3
				c3.2,0,6,0.2,8.8-0.1c1.1-0.1,2.7-1,2.9-1.9c1.7-6.9,7.2-10.5,12.4-15.4c-0.2,1.7-0.4,2.7-0.6,4.2c1.7-1.1,3-2,4.6-3
				c-0.5,2.1-0.9,3.6-1.6,6.4c4-4.4,7.1-7.7,10.7-11.7c-0.5,2.3-0.9,3.7-1.2,5.1c0.2,0.1,0.5,0.2,0.7,0.3c2.7-3.8,5.4-7.6,8.7-12.3
				c-0.5,5.2-1,9.2-1.4,13.5c0.8-0.3,1.6-0.5,3.6-1.1c-1.4,3.8-2.5,6.8-3.6,9.9c0.9-0.1,1.6-0.1,2.6-0.2c-1.1,4.5-2.1,8.7-3.2,13.2
				c0.7,0,1.4,0,2.2,0c-0.6,1.3-1.1,2.5-1.7,3.8c2.1,0.3,3.9,0.5,6.3,0.8c-3.1,4.3-9.9,5.8-6.2,12.6c-8.4-3.2-16.3-6.2-24.4-9.3
				c3.2-2.4,6.2-4.7,9.8-7.5c-15-6.5-29.1-6.9-43.6-0.3c7.2-5.2,10.8-12.1,12.4-20.4c-11.4,1.1-19.4,6.8-25.1,16.5
				c2.1-12.1-1.9-21.3-11.3-29.1c-4.9,10.4-0.8,19.7,1.9,29.4c-4.4-9-11.2-15.2-19.5-20.4c-1.9,8.9,3.1,15.5,6.7,22.8
				c-7.6-5.4-15.4-8.8-25.8-5.6c5.2,3.4,9.6,6.2,15.1,9.8c-20.9-1-34.2,2.6-36.6,9.8c2.8,0.7,5.5,1.4,7.4,1.9
				c-3.9,3.6-7.4,7.8-11.7,10.8c-3.5,2.4-7.9,3.6-11.9,5.3c-0.3-0.5-0.6-1-1-1.4c1.1-3,2.5-5.9,3.2-9c0.3-1.3-0.4-4-1.3-4.3
				c-4.4-1.6-5.8-5.1-7.1-9c0-0.1,0.3-0.4,0.4-0.6c1,0.9,2,1.8,3.2,2.9c-0.7-4.6-1.3-8.7-2.1-13.4c1.4,0.9,2.2,1.4,3.8,2.5
				c-1.9-5.6-3.5-10.3-4.9-14.7c1.4-0.9,2.4-1.6,3.6-2.5c1.8,2.1,3.7,4.2,5.6,6.4c0.3-0.2,0.6-0.3,0.8-0.5c-0.3-1.7-0.6-3.4-0.9-5.6
				c2.6,2.4,4.7,4.3,7.3,6.8c0.1-2.1,0.2-3,0.3-5.2c3.9,4.2,7,7.7,10.3,11c1.9,1.9,3.9,4.4,6.3,5c3.7,1,7.8,0.6,12.6,0.8
				c-2.3-3.4-3.8-5.6-5.3-7.8c-1.3-2-2-4.4-3.7-5.9c-10.7-9.6-23.8-15.2-36.8-20.6C67.4,24.9,64.1,24.4,60,23.3z M163.9,274.9
				c3.4,4.3,6.5,8.3,9.7,12.5c1.3-2.5,2.4-4.7,3.4-6.9c0.5,0.1,1,0.2,1.5,0.2c6.7,16.5,8.2,33.7,5.8,51.5c9.6,1,18.9,2.2,27.9-1.1
				c2-0.7,4.3-2.7,5-4.7c1.2-3.3,1.1-7,1.5-9.8c-1.7-0.4-3-0.8-4.4-1.1c0.8-1.4,1.5-3.1,2.6-4.3c0.9-1,3.2-1.4,3.4-2.4
				c2.2-8.4,9.1-16.7,0.6-26c-1.3,2.8-2.4,5.6-3.9,8.3c-0.7,1.3-1.7,2.9-3,3.3c-0.8,0.2-2.8-1.4-3.2-2.5c-3.7-10.5-8.4-20.8-1.8-32
				c2.7-4.5,4.2-9.7,6.7-15.7c-3.6,2.6-6.2,4.5-8.7,6.3c-0.2-0.2-0.5-0.5-0.7-0.7c2.2-6.2,4.5-12.3,6.7-18.5
				c-0.4-0.1-0.7-0.3-1.1-0.4c-4.2,3.6-8.5,7.1-13.3,11.2c0.9-10.4,1.7-19.3,2.4-28.2c-12.3,13.6-12.8,31.6-18.8,48.7
				c-7.7-17.1-22.3-24-35.4-33.4c-0.7,1.9-1.1,3.1-1.5,4.4c-1.7,5.4-2,5.5-6,1.5c-1.2-1.2-2.7-2.2-4.6-3.7
				c-0.7,8.5-1.4,16.3-2.1,24.8c-3-2-4.9-3.4-8-5.5c0,4.3,0.1,7.5,0,10.7c-0.3,5.3-2.4,11.1-0.8,15.7c5.7,16.7,7,33.7,6.9,52
				c6.3,0.3,12.8,1.2,19.1,0.8c2.7-0.1,6.7-2.1,7.6-4.3c3.8-9.4,7-19,9.5-28.8c1.4-5.4,3.6-11.9-3.2-16.3c-1.2,1.4-2.4,2.9-3.8,4.6
				c-7.6-5.3-14.8-10.3-22-15.3c0.3-0.5,0.7-1.1,1-1.6c6.8,3.9,13.7,7.7,20.6,11.7C161.1,278.4,162.1,277.2,163.9,274.9z
				 M305.5,240.2c1.8,8.3,1.8,8.4-5.2,10c-3.1,0.7-4.3,2.3-4.3,5.5c-0.1,10.1,2.9,19.4,8,28c3.2,5.4,3.9,10.8,2.8,16.7
				c-1.6,8.4-3.2,16.8-4.8,25.2c4.5,1,4.8,0.8,6.2-3.3c2.4-7.1,4.7-14.2,7.6-21.1c3.6-8.6,7.9-16.8,8-26.5c0-2.8,1.4-5.6,2.1-8.2
				c10.2,0.8,19.2,2.3,22.2,13.9c0.6-6.3,0.7-12.1,0.6-17.9c-0.1-4.1-0.3-8.2,6.2-6.8c-1.1-3.7-2.8-6.8-2.9-10
				c-0.2-5.5,5.9-2,7.9-4.7c0.9-10.3-1-13.5-10.6-17.5c-5.9-2.4-7.6-1.3-8,4.9c-0.3,3.8-0.6,7.6-1.3,11.4c-0.4,2-1.6,3.7-2.5,5.6
				c-1.8-1.1-3.6-2.1-5.3-3.3c-1.5-1-2.9-2.1-5.1-3.8c-0.8,7.6-1.4,13.8-2.1,19.9C318.6,252.5,312.4,246.7,305.5,240.2z
				 M256.6,280.6c-0.3-6.7,4.6-8.2,9.1-9.9c6.7-2.5,13.4-4.8,20.1-7.3c7.7-2.9,8-3.5,6-12.5c-1.5,0.2-3.2,0.1-4.7,0.7
				c-7.9,3.1-15.5,6.7-23.5,9.4c-6.1,2-10.4,5.6-13.9,10.7c-2.4,3.6-4.8,7.1-9.6,8.1c-2.1,0.4-4,1.7-6,2.6c0,0.4,0,0.9,0,1.3
				c4.5,1.3,9.1,2.5,13.9,3.9c-0.4-3.4-0.7-6-1.1-9.1C250.6,279.3,253.3,279.9,256.6,280.6z M179.9,124.5c1.2,1,2.7,3.2,4.6,3.6
				c3.3,0.8,7.5-3.2,7.5-6.5c0-4-3.1-4.3-5.9-4.5C181.8,116.7,180.8,119.8,179.9,124.5z M124.5,125.5c-5.1,0.1-6.9,2.3-6.8,5.7
				c0,1,1.9,2.8,3,2.7c3.1,0,5.5-1.7,5.4-5.1C126,127.5,124.9,126.3,124.5,125.5z M328.4,322.9c0.2,0.6,0.5,1.2,0.7,1.8
				c6.3,1.1,8.9-0.1,9.5-5.5C334.9,320.5,331.6,321.7,328.4,322.9z"/>
			<path class="st1" d="M60,23.3c4.1,1.1,7.4,1.6,10.4,2.9c13.1,5.5,26.1,11,36.8,20.6c1.7,1.5,2.4,4,3.7,5.9
				c1.4,2.2,2.9,4.3,5.3,7.8c-4.8-0.2-8.9,0.2-12.6-0.8c-2.4-0.6-4.4-3.1-6.3-5c-3.3-3.3-6.4-6.8-10.3-11c-0.1,2.3-0.2,3.2-0.3,5.2
				c-2.6-2.4-4.7-4.4-7.3-6.8c0.4,2.2,0.6,3.9,0.9,5.6c-0.3,0.2-0.6,0.3-0.8,0.5c-1.9-2.2-3.8-4.4-5.6-6.4c-1.2,0.8-2.3,1.5-3.6,2.5
				c1.5,4.4,3,9,4.9,14.7c-1.7-1.1-2.4-1.6-3.8-2.5c0.7,4.7,1.4,8.8,2.1,13.4c-1.2-1.1-2.2-2-3.2-2.9c-0.1,0.2-0.5,0.4-0.4,0.6
				c1.2,3.9,2.6,7.5,7.1,9c0.9,0.3,1.6,3,1.3,4.3c-0.7,3.1-2.1,6-3.2,9c0.3,0.5,0.6,1,1,1.4c4-1.7,8.4-2.8,11.9-5.3
				c4.3-3,7.9-7.2,11.7-10.8c-1.8-0.5-4.6-1.2-7.4-1.9c2.4-7.2,15.6-10.8,36.6-9.8c-5.5-3.5-9.8-6.4-15.1-9.8
				c10.4-3.2,18.2,0.2,25.8,5.6c-3.7-7.3-8.6-13.9-6.7-22.8c8.3,5.2,15.1,11.4,19.5,20.4c-2.7-9.6-6.8-18.9-1.9-29.4
				c9.4,7.7,13.4,17,11.3,29.1c5.7-9.7,13.7-15.4,25.1-16.5c-1.7,8.3-5.2,15.2-12.4,20.4c14.4-6.6,28.5-6.2,43.6,0.3
				c-3.6,2.7-6.6,5.1-9.8,7.5c8.1,3.1,16,6.1,24.4,9.3c-3.7-6.9,3.2-8.4,6.2-12.6c-2.4-0.3-4.2-0.5-6.3-0.8c0.6-1.3,1.1-2.5,1.7-3.8
				c-0.8,0-1.5,0-2.2,0c1.1-4.4,2.1-8.7,3.2-13.2c-1,0.1-1.7,0.1-2.6,0.2c1.2-3.1,2.2-6.1,3.6-9.9c-2,0.6-2.8,0.9-3.6,1.1
				c0.5-4.3,0.9-8.3,1.4-13.5c-3.3,4.6-6,8.5-8.7,12.3c-0.2-0.1-0.5-0.2-0.7-0.3c0.3-1.4,0.7-2.8,1.2-5.1
				c-3.6,3.9-6.6,7.2-10.7,11.7c0.7-2.8,1.1-4.3,1.6-6.4c-1.6,1.1-2.9,1.9-4.6,3c0.2-1.5,0.3-2.5,0.6-4.2
				c-5.2,4.9-10.7,8.5-12.4,15.4c-0.2,0.8-1.9,1.8-2.9,1.9c-2.8,0.3-5.6,0.1-8.8,0.1c3.1-10.5,8-19.9,16.2-27.3
				c10.6-9.5,22.4-17.2,36.2-21.5c3.5-1.1,5-0.6,6.1,3c5.7,18.6,8,37.3,4.4,56.6c-0.3,1.6,1.8,3.6,3.3,6.2c-2.1,2.6-5,6.2-7.8,9.6
				C251,84,255,88,259.5,92.5c-5.2,1-8.9,1.7-12.6,2.3c-0.1,0.5-0.1,0.9-0.2,1.4c6.5,4.4,12,9.5,13.6,18.3
				c-6.2-2.1-12.1-3.2-18.6-0.6c3.3,3.9,6.2,7.3,9.5,11.2c-3.8-0.3-6.7-0.5-9.9-0.7c4.3,8.4,8.3,16.3,12.6,24.7
				c-3.7-0.3-6.1-0.6-8.6-0.7c-5.4-0.1-5.6,0.7-4.2,5.8c1.5,5.7,2.1,11.5,3.2,17.9c-4.1-0.7-6.9-1.1-9.6-1.7
				c-0.8-0.2-1.7-0.8-2.2-1.5c-4-6.2-7.8-12.6-12.1-19.4c3-0.7,6.5-1.5,10.7-2.4c-6.8-10.1-15.8-16-28.6-14.7c0-2.3,0.1-4.3,0-6.2
				c-0.5-9.2-7-14.7-16.4-14c-6.7,0.5-11.7,7.6-11,15.3c0.8,9,12.9,14.3,22,9.8c11.1-5.5,22.2-2.6,30.4,9.2
				c-6.7,0.4-12.5,0.7-18.6,1.1c7.2,0.8,11,6.2,14.9,11.2s7.8,10.1,6.1,17.7c-3.1-0.2-6.1-0.5-8.8-0.7c-0.4,6.5-0.8,12.6-1.2,17.8
				c-7.8-2.5-14.9-4.8-22.1-6.8c-1-0.3-2.7,1-3.6,2c-4.8,5.9-9.4,11.9-14.1,17.9c-0.7-0.9-2-2.6-3.4-4.1c-1-1.1-2.3-2.1-3.4-3.2
				c-0.9,1.3-1.8,2.5-2.5,3.9c-2.1,4.1-4,8.2-6.4,13.1c-4.6-5.6-8.3-10.3-12.7-15.7c-1.9,3.1-3.4,5.7-5,8.3
				c-4.9-4.9-7.4-12.2-17.6-12c-8.7,0.2-14.2,3.7-20.9,9.6c0-7.5,0-14.1,0-22.3c-5.8,3.2-10.4,5.6-14.9,8.1
				c-0.4-0.3-0.8-0.6-1.1-0.9c1.5-5.5,2.3-11.4,4.6-16.6c2.3-5.2,5.9-9.9,9.2-15.2c-2.9-1.1-5.7-2.2-9.5-3.6
				c7.4-5.6,14.8-9.4,23.5-10.6c2.9-0.4,6-0.7,8.6-1.9c5.8-2.6,8.9-9.5,7.3-14.9c-1.6-5.5-7.5-9.6-12.9-9.1
				c-6.1,0.6-12,6.5-11.9,12.8c0.1,3.6,1.5,7.2,2.6,11.6c-7,2.9-15.6,5.5-22,13.3c3.9,1.3,7.2,2.4,9.6,3.2
				c-3.8,7.9-7.6,15.7-11.3,23.5c0.6-7,1.2-14.3,1.9-22.5c-3.5,1-6.9,2-10.6,3.1c-1.7-6.9-0.6-13.8,2.7-21.2c-3.8,1-6.9,1.8-11.2,3
				c1.7-5.9,3.2-11.1,4.8-16.9c-3.2,1.3-6.6,2.6-10.2,4c0.2-7.5,0.3-14.8,7.9-19.3c-0.2-0.5-0.4-1-0.6-1.4
				c-4.3,0.7-8.6,1.5-13.8,2.4c3-5.3,5.9-10.6,9.3-16.6c-2.2-2.7-4.9-6.1-7.7-9.5c0.5-0.1,1-0.1,1.6-0.2c0-2.7,0.7-5.5-0.1-8
				c-4.8-15.2-4.6-30.8-3.8-46.5C60.1,31.2,60,27.7,60,23.3z M155,165.2c0.1,0.3,0.2,0.5,0.4,0.8c3.3-1.3,7-2,9.8-4
				c3.4-2.4,4.7-6.4,3.3-10.7c-1.3-4.1-5-4.7-8.5-4.6c-3.3,0.1-6.7,0.3-9.9,1.1c-4.1,1-7.5,3.5-7.3,8.2c0.2,4.7,3.5,7.4,7.8,8.6
				C151.9,165.1,153.5,165.1,155,165.2z M237.8,117.5c-5.5-11-12.6-19.7-24.1-23.7c2.5-4.3,5-8.5,7.6-12.9
				c-11.4-5.9-21.6-2.6-31.5,0.6c-1-3.2-2-6.3-2.9-9.4c-9.6,3.8-19,16.7-18.3,25.1c5.2-7.7,8.4-16.3,16.9-21.1
				c0.4,4,0.7,7.5,1.1,11.3c10.6-6.8,22.2-8.7,31.5-4.9c-3.7,4.4-7.1,8.7-11,13.3c13.2,1,20.4,9.2,26.7,19.7
				c-4.8,2.1-9.2,3.9-13.6,5.8c0.2,0.6,0.4,1.1,0.7,1.7C226.2,121.3,231.6,119.5,237.8,117.5z M191,162.4c-0.2,1.6-0.3,2.5-0.3,3.5
				c-0.1,6.3-2.9,10-8.9,9.3c-7-0.7-14.1-2.3-20.7-4.8c-3.5-1.3-5.3-1.2-8.2,1c-3.5,2.6-7.7,4.7-11.8,6.1c-5.5,1.8-9.4-0.9-10.7-6.4
				c-0.2-0.9-0.5-1.7-1-3.7c-2.6,2.7-4.6,4.7-6.5,6.6c0.3,0.3,0.6,0.7,0.9,1c1.3-0.8,2.6-1.6,4-2.6c2.8,7.9,8.5,9.4,15.9,7.6
				c2.1,8.3,4,16.9,14.7,16.9c12.7,0,14.1-9.8,15.1-19.2c13.7,1.2,19.2,0,20.4-12.5c1.2,0,2.5,0,3.8,0c0-0.3,0.1-0.6,0.1-1
				C195.6,163.7,193.5,163.1,191,162.4z M117.9,82.4c4.4,3.7,7.9,6.1,10.8,9.2c2.9,3.1,5.1,6.8,7.8,10.5
				c1.2-7.4-12.8-22.2-21.9-23.1c0,3.3,0,6.5,0,9.9c-9.9-0.8-18.7,0.5-26.4,6.7c2.8,3.3,5.4,6.3,8.2,9.7
				c-10.6,6.2-15.8,15.1-16.6,27c5.6-0.1,10.5,4.9,17.4,0.7c-4.4-0.9-7.7-1.7-11-2.4c-2.4-0.5-3.7-1.8-2.5-4.2c2.2-4.4,4-9.2,7-12.9
				c2.8-3.4,7.1-5.5,9.6-7.3c-2.7-3.1-5.8-6.6-9-10.2c0.2-0.7,0.3-1.4,0.5-2.1c8.6-0.8,17.1-1.6,26-2.5
				C117.9,89.7,117.9,86.9,117.9,82.4z M123.6,186.1c0.8-1.7,1.5-2.9,2.1-4.1c-0.4-0.2-0.7-0.5-1.1-0.7c-2.2,3-4.5,5.9-6.7,8.9
				c0.3,0.4,0.7,0.7,1,1.1c2.5-1.3,5-2.6,8.7-4.6C125.4,186.4,124.7,186.3,123.6,186.1z M109.4,163.9c0.3,0.5,0.7,1,1,1.4
				c4.7-3,9.5-5.9,14.2-8.9c-0.3-0.5-0.5-0.9-0.8-1.4C119,158.1,114.2,161,109.4,163.9z M124.1,114.8c-1.4-4.9-4.5-7.9-9.6-8.4
				C117.7,109.2,120.9,112,124.1,114.8z M129.2,114.3c0.6-0.6,1.2-1.2,1.7-1.8c-2.6-2.6-5.3-5.3-7.9-7.9c-0.5,0.5-1.1,1.1-1.6,1.6
				C123.9,109,126.6,111.6,129.2,114.3z"/>
			<path class="st1" d="M163.9,274.9c-1.8,2.3-2.9,3.6-4,5c-7-3.9-13.8-7.8-20.6-11.7c-0.3,0.5-0.7,1.1-1,1.6
				c7.2,5,14.4,10.1,22,15.3c1.4-1.7,2.6-3.1,3.8-4.6c6.8,4.4,4.6,10.9,3.2,16.3c-2.5,9.8-5.8,19.4-9.5,28.8
				c-0.9,2.2-4.9,4.2-7.6,4.3c-6.4,0.3-12.8-0.5-19.1-0.8c0.1-18.4-1.2-35.4-6.9-52c-1.6-4.6,0.6-10.4,0.8-15.7
				c0.2-3.2,0-6.5,0-10.7c3,2.1,5,3.4,8,5.5c0.7-8.5,1.4-16.3,2.1-24.8c1.9,1.5,3.4,2.5,4.6,3.7c4,4,4.4,4,6-1.5
				c0.4-1.2,0.8-2.5,1.5-4.4c13.1,9.3,27.7,16.3,35.4,33.4c6-17.1,6.5-35.1,18.8-48.7c-0.8,8.9-1.5,17.8-2.4,28.2
				c4.8-4.1,9.1-7.6,13.3-11.2c0.4,0.1,0.7,0.3,1.1,0.4c-2.2,6.2-4.5,12.3-6.7,18.5c0.2,0.2,0.5,0.5,0.7,0.7
				c2.5-1.8,5.1-3.7,8.7-6.3c-2.5,5.9-4,11.1-6.7,15.7c-6.6,11.2-2,21.6,1.8,32c0.4,1.1,2.4,2.7,3.2,2.5c1.2-0.4,2.3-2,3-3.3
				c1.4-2.7,2.6-5.5,3.9-8.3c8.5,9.3,1.6,17.6-0.6,26c-0.3,1-2.5,1.4-3.4,2.4c-1.1,1.2-1.7,2.8-2.6,4.3c1.3,0.3,2.7,0.7,4.4,1.1
				c-0.4,2.8-0.3,6.5-1.5,9.8c-0.7,1.9-3,3.9-5,4.7c-9,3.3-18.3,2-27.9,1.1c2.5-17.9,0.9-35-5.8-51.5c-0.5-0.1-1-0.2-1.5-0.2
				c-1.1,2.2-2.2,4.4-3.4,6.9C170.4,283.2,167.3,279.2,163.9,274.9z M148.7,320.2c5.6-1.6,6.5-4.6,3.5-9.4
				C151.1,314,150,316.7,148.7,320.2z"/>
			<path class="st1" d="M305.5,240.2c6.9,6.5,13.1,12.3,19.3,18.1c0.6-6.1,1.3-12.3,2.1-19.9c2.3,1.7,3.6,2.8,5.1,3.8
				c1.7,1.2,3.6,2.2,5.3,3.3c0.9-1.9,2.1-3.6,2.5-5.6c0.7-3.7,1-7.6,1.3-11.4c0.4-6.3,2.1-7.4,8-4.9c9.5,4,11.5,7.1,10.6,17.5
				c-2,2.7-8.1-0.9-7.9,4.7c0.1,3.2,1.8,6.3,2.9,10c-6.5-1.4-6.3,2.7-6.2,6.8c0.1,5.8,0,11.6-0.6,17.9c-3-11.6-12-13.1-22.2-13.9
				c-0.7,2.6-2.1,5.4-2.1,8.2c-0.1,9.7-4.4,17.9-8,26.5c-2.8,6.9-5.1,14-7.6,21.1c-1.4,4-1.8,4.3-6.2,3.3c1.6-8.4,3.2-16.8,4.8-25.2
				c1.2-5.9,0.4-11.3-2.8-16.7c-5-8.5-8-17.8-8-28c0-3.3,1.2-4.8,4.3-5.5C307.3,248.6,307.3,248.5,305.5,240.2z"/>
			<path class="st1" d="M256.6,280.6c-3.4-0.7-6-1.3-9.6-2.1c0.4,3.1,0.7,5.7,1.1,9.1c-4.8-1.3-9.4-2.6-13.9-3.9c0-0.4,0-0.9,0-1.3
				c2-0.9,3.9-2.2,6-2.6c4.8-0.9,7.1-4.5,9.6-8.1c3.5-5.1,7.8-8.7,13.9-10.7c8-2.7,15.7-6.3,23.5-9.4c1.4-0.6,3.1-0.5,4.7-0.7
				c2,9.1,1.7,9.7-6,12.5c-6.7,2.5-13.4,4.8-20.1,7.3C261.2,272.4,256.3,273.9,256.6,280.6z"/>
			<path class="st0" d="M179.9,124.5c0.9-4.7,1.9-7.7,6.1-7.4c2.8,0.2,5.9,0.6,5.9,4.5c0,3.3-4.2,7.3-7.5,6.5
				C182.6,127.6,181.1,125.4,179.9,124.5z"/>
			<path class="st1" d="M344.4,156.6c-2.9,0-5.8,0-8.6,0c3.8-5.8,7.7-11.7,11.6-17.6c0.4,0.1,0.7,0.3,1.1,0.4
				c-1.1,3.7-2.3,7.4-3.3,11.2C344.7,152.5,344.6,154.6,344.4,156.6L344.4,156.6z"/>
			<path class="st1" d="M344.4,156.7c1.9-0.7,3.7-1.5,6.6-2.7c-0.8,8.2-3.6,14.1-8,20c-3.1-3.5-0.5-6,0.7-8.2
				C345.4,162.7,346.5,159.8,344.4,156.7C344.4,156.6,344.4,156.7,344.4,156.7z"/>
			<path class="st0" d="M124.5,125.5c0.4,0.8,1.5,2,1.6,3.3c0.1,3.5-2.3,5.1-5.4,5.1c-1,0-2.9-1.8-3-2.7
				C117.7,127.8,119.4,125.6,124.5,125.5z"/>
			<path class="st1" d="M328.4,322.9c3.2-1.2,6.5-2.4,10.2-3.7c-0.7,5.5-3.3,6.7-9.5,5.5C328.9,324,328.6,323.5,328.4,322.9z"/>
			<path d="M155,165.2c-1.5-0.2-3-0.1-4.5-0.5c-4.3-1.3-7.6-4-7.8-8.6c-0.2-4.7,3.2-7.2,7.3-8.2c3.2-0.8,6.6-1,9.9-1.1
				c3.6-0.1,7.2,0.5,8.5,4.6c1.4,4.3,0.1,8.2-3.3,10.7c-2.8,2-6.5,2.7-9.8,4C155.2,165.8,155.1,165.5,155,165.2z"/>
			<path d="M237.8,117.5c-6.2,2-11.6,3.8-16.9,5.5c-0.2-0.6-0.4-1.1-0.7-1.7c4.4-1.9,8.8-3.7,13.6-5.8
				c-6.4-10.4-13.5-18.7-26.7-19.7c3.9-4.7,7.3-8.9,11-13.3c-9.3-3.8-20.9-1.9-31.5,4.9c-0.4-3.9-0.7-7.3-1.1-11.3
				c-8.6,4.8-11.8,13.4-16.9,21.1c-0.8-8.4,8.7-21.4,18.3-25.1c1,3.1,1.9,6.1,2.9,9.4c9.9-3.2,20.1-6.5,31.5-0.6
				c-2.6,4.4-5,8.6-7.6,12.9C225.2,97.9,232.4,106.5,237.8,117.5z"/>
			<path d="M191,162.4c2.5,0.7,4.6,1.3,6.7,1.9c0,0.3-0.1,0.6-0.1,1c-1.3,0-2.6,0-3.8,0c-1.2,12.5-6.7,13.7-20.4,12.5
				c-1,9.4-2.4,19.2-15.1,19.2c-10.7,0-12.6-8.6-14.7-16.9c-7.4,1.9-13.1,0.3-15.9-7.6c-1.5,0.9-2.7,1.8-4,2.6
				c-0.3-0.3-0.6-0.7-0.9-1c1.9-2,3.9-3.9,6.5-6.6c0.6,2,0.8,2.9,1,3.7c1.3,5.6,5.2,8.3,10.7,6.4c4.2-1.4,8.3-3.5,11.8-6.1
				c2.9-2.2,4.7-2.3,8.2-1c6.6,2.4,13.7,4,20.7,4.8c6,0.6,8.8-3,8.9-9.3C190.7,164.9,190.8,164,191,162.4z M155.5,173.9
				c-10,4.9-10,5-7.2,12.5c2.5,6.8,7.4,9.5,13.5,7.5c5.7-1.9,9.7-9.7,7.8-15.5c-0.3-0.8-1.1-1.7-1.9-2c-2.6-1-5.3-1.7-8.2-2.6
				c-0.4,2.6-0.7,4.9-1,7.1c-0.4,0-0.7,0-1.1,0C156.8,178.5,156.2,176.2,155.5,173.9z"/>
			<path d="M117.9,82.4c0,4.6,0,7.3,0,9c-8.9,0.8-17.5,1.7-26,2.5c-0.2,0.7-0.3,1.4-0.5,2.1c3.1,3.5,6.2,7,9,10.2
				c-2.5,1.8-6.8,3.9-9.6,7.3c-3.1,3.7-4.9,8.5-7,12.9c-1.2,2.4,0.2,3.7,2.5,4.2c3.3,0.7,6.7,1.4,11,2.4c-6.8,4.2-11.7-0.8-17.4-0.7
				c0.7-11.9,5.9-20.8,16.6-27c-2.8-3.3-5.4-6.4-8.2-9.7c7.7-6.2,16.5-7.5,26.4-6.7c0-3.4,0-6.6,0-9.9c9.1,0.9,23.1,15.7,21.9,23.1
				c-2.7-3.7-4.9-7.4-7.8-10.5C125.9,88.5,122.3,86,117.9,82.4z"/>
			<path d="M123.6,186.1c1.1,0.1,1.9,0.2,4,0.5c-3.7,1.9-6.2,3.3-8.7,4.6c-0.3-0.4-0.7-0.7-1-1.1c2.2-3,4.5-5.9,6.7-8.9
				c0.4,0.2,0.7,0.5,1.1,0.7C125,183.2,124.4,184.5,123.6,186.1z"/>
			<path d="M109.4,163.9c4.8-2.9,9.6-5.9,14.4-8.8c0.3,0.5,0.5,0.9,0.8,1.4c-4.7,3-9.5,5.9-14.2,8.9
				C110.1,164.9,109.7,164.4,109.4,163.9z"/>
			<path d="M124.1,114.8c-3.2-2.8-6.4-5.6-9.6-8.4C119.6,106.9,122.7,109.8,124.1,114.8z"/>
			<path d="M129.2,114.3c-2.6-2.7-5.2-5.3-7.8-8c0.5-0.5,1.1-1.1,1.6-1.6c2.6,2.6,5.3,5.3,7.9,7.9
				C130.3,113.1,129.7,113.7,129.2,114.3z"/>
			<path d="M148.7,320.2c1.3-3.5,2.3-6.2,3.5-9.4C155.2,315.5,154.3,318.6,148.7,320.2z"/>
			<path class="st2" d="M155.5,173.9c0.7,2.4,1.3,4.6,1.9,6.9c0.4,0,0.7,0,1.1,0c0.3-2.3,0.6-4.6,1-7.1c2.9,0.9,5.6,1.6,8.2,2.6
				c0.8,0.3,1.6,1.2,1.9,2c1.9,5.8-2.1,13.6-7.8,15.5c-6.1,2-11-0.7-13.5-7.5C145.5,178.9,145.5,178.8,155.5,173.9z"/>
		</g>
	</g>
</g>
<g>
	
		<image style="overflow:visible;opacity:0.66;" width="104" height="104" xlink:href="FBA11DCAA249F182.png"  transform="matrix(1 0 0 1 0 288.3574)">
	</image>
	<g>
		<circle class="st2" cx="45.2" cy="327.1" r="39.6"/>
	</g>
</g>
</svg>
