<?xml version="1.0" encoding="utf-8"?>
<!-- Generator: Adobe Illustrator 21.0.2, SVG Export Plug-In . SVG Version: 6.00 Build 0)  -->
<svg version="1.1" id="Layer_1" xmlns="http://www.w3.org/2000/svg" xmlns:xlink="http://www.w3.org/1999/xlink" x="0px" y="0px"
	 viewBox="0 0 83.9 80.8" style="enable-background:new 0 0 83.9 80.8;" xml:space="preserve">
<style type="text/css">
	.st0{fill:#FF7373;stroke:#000000;stroke-width:1.1119;stroke-miterlimit:10;}
	.st1{fill:none;stroke:#000000;stroke-width:1.1119;stroke-miterlimit:10;}
	.st2{fill:#FFFFFF;}
</style>
<rect x="0.6" y="41.3" class="st0" width="82.8" height="38.9"/>
<polygon class="st1" points="0.6,39.1 38.9,0.8 83.4,39.1 83.4,41.1 0.6,41.3 "/>
<g>
	<path class="st2" d="M22.2,71.1c0.4-0.1,1-0.1,1.8-0.3c0.8-0.1,1.4-0.2,1.8-0.3h0.1c0.4,0,0.7,0,0.8,0.1c0.1,0.1,0.1,0.4,0.1,0.8
		c0,0.3-0.1,0.4-0.3,0.5c0,0-0.1,0-0.2,0c-0.1,0-0.1,0-0.2,0c-2,0.2-3.3,0.4-3.8,0.5c-0.2,0-0.5,0.1-0.8,0.1c-0.4,0-0.6,0-0.7,0
		c-0.5,0-1,0-1.2,0c-0.6,0.1-1-0.2-1.2-0.9c-0.1-0.3-0.1-0.7-0.1-1c0.3-1.7,0.5-3.6,0.6-5.7c0-0.4,0-1,0.1-1.7
		c0-0.8,0.1-1.3,0.1-1.7c0-0.1,0.1-1.4,0.3-4.1c0-0.6,0.1-1.6,0.2-2.9c0.1-0.8,0.1-2,0.2-3.5c0-0.2,0.1-0.4,0.3-0.6
		c0.4-0.3,0.8-0.5,1.3-0.5c0.2,0,0.6-0.1,1.3-0.1c0.7-0.1,1.2-0.1,1.6-0.1c0.1,0,0.3,0,0.6,0s0.5,0,0.7,0c0.2,0,0.4-0.1,0.6-0.1h0.3
		c0.3,0,0.5,0.1,0.5,0.1c0.1,0.1,0.1,0.2,0.1,0.5c0,0.4,0,0.6-0.1,0.6c-0.1,0.1-0.3,0.1-0.6,0.1c-1.1,0-1.9,0.1-2.4,0.1
		c-0.2,0-0.3,0.1-0.4,0.1c-0.1,0.1-0.1,0.2-0.1,0.5l-0.4,4.5c0,0,0,0.6-0.1,1.7l-0.1,2c0,0.3,0,0.5,0.1,0.5c0.1,0.1,0.2,0.1,0.5,0
		c0.4,0,1-0.1,1.8-0.2c0.2,0,0.4,0,0.4,0c0.1,0.1,0.1,0.2,0.2,0.4c0,0.1,0.1,0.2,0.1,0.2c0,0.3-0.1,0.4-0.3,0.5
		c-0.2,0-0.6,0.1-1.2,0.1c-0.6,0-1.1,0.1-1.3,0.1c-0.2,0-0.3,0.2-0.3,0.5c0,0.3,0,0.7-0.1,1.1s0,0.9,0,1.1c-0.2,2.6-0.4,4.2-0.4,4.6
		c0,0.2-0.1,0.6-0.1,1.1s-0.1,0.8-0.1,0.9C22,71.1,22.2,71.2,22.2,71.1z"/>
	<path class="st2" d="M35,55c0.5-1.3,1.4-3.2,2.5-5.7c0.2-0.6,0.6-0.8,1.1-0.6c0.6,0.2,1.1,0.6,1.5,1.1c0.1,0.1,0.2,0.2,0.3,0.3
		c0.1,0.1,0.2,0.3,0.3,0.3c0.4,0.4,0.4,0.9,0.1,1.4c-0.2,0.4-0.4,0.7-0.6,1.1c-0.3,0.5-0.8,1.7-1.6,3.5c-0.5,1.2-1.3,3-2.3,5.5
		c-0.1,0.3-0.1,0.7,0,1.1c0.3,0.8,1,2.3,2,4.3c0.8,1.5,1.2,2.7,1.5,3.5c0.1,0.3,0.1,0.8,0.2,1.4c0,0.4-0.1,0.6-0.4,0.6
		c-0.5,0-0.8-0.3-0.9-0.8c-0.2-0.7-0.7-1.9-1.5-3.4c-0.1-0.3-0.4-0.9-0.7-1.6c-0.3-0.7-0.6-1.3-0.7-1.7c0-0.1-0.1-0.3-0.3-0.6
		c0,0.1-0.1,0.2-0.1,0.3s-0.1,0.2-0.1,0.2c-0.3,1-0.7,2.1-1.2,3.3c-0.2,0.5-0.4,1.2-0.8,2.2c-0.1,0.2-0.2,0.6-0.4,1
		c-0.2,0.5-0.3,0.8-0.4,1c-0.1,0.2-0.2,0.4-0.3,0.4c-0.1,0-0.2,0-0.4,0c-0.2,0-0.5-0.2-1-0.4c-0.4-0.2-0.6-0.3-0.7-0.4
		c-0.5-0.2-0.8-0.6-0.9-1.1c-0.1-0.4,0-0.7,0.1-1.1c0.8-2.1,1.3-3.3,1.4-3.6c0.4-0.9,0.8-2.2,1.5-3.9c0.6-1.7,1-2.8,1.2-3.3
		c0.2-0.4,0.2-0.9,0-1.3c-0.1-0.3-0.3-0.8-0.5-1.4c-0.2-0.6-0.4-1.2-0.6-1.6c-0.2-0.5-0.4-0.9-0.6-1.3c-0.1-0.2-0.3-0.7-0.6-1.4
		c-0.3-0.7-0.5-1.2-0.7-1.6c-0.1-0.2-0.2-0.4-0.2-0.7c-0.1-0.4,0-0.7,0.2-0.9c0.1-0.1,0.2-0.1,0.4-0.1c0.2,0,0.3,0.1,0.4,0.2
		c0.1,0.1,0.2,0.3,0.3,0.5s0.2,0.4,0.3,0.6c0.1,0.2,0.1,0.4,0.2,0.6c0.1,0.2,0.1,0.4,0.2,0.7c0.6,1.3,1.2,2.8,1.9,4.6
		c0.1,0.2,0.2,0.3,0.2,0.5C34.7,55.8,34.9,55.2,35,55z"/>
	<path class="st2" d="M47.2,52.6c-0.2,0.8-0.3,2.3-0.3,4.4l-0.1,5.3v3.5c0,0.4,0,1.1-0.1,1.9c0,0.9-0.1,1.5-0.1,1.9
		c0,0.2,0,0.5,0,0.9c0,0.4,0,0.7,0,0.9c0,0.2,0,0.4-0.1,0.4c-0.1,0.1-0.2,0.1-0.4,0.2c-0.4,0.2-0.9,0.3-1.5,0.4c-0.3,0-0.7,0-1.2,0
		c-0.1,0-0.2-0.1-0.3-0.2c-0.3-0.5-0.4-1-0.3-1.3c0-0.1,0-0.4,0-0.7c0-0.3,0-0.5,0-0.7c0-0.5,0.1-3.6,0.1-9.2c0-1.9,0.1-3.7,0.2-5.6
		c0-0.4,0.1-0.9,0.1-1.7c0.1-0.8,0.1-1.4,0.1-1.8c0-0.3,0-0.7,0-1.2c0-0.5,0.2-0.8,0.6-0.9c0.4-0.1,0.7-0.2,1.1-0.1
		c0.6,0.1,1.1,0.2,1.5,0.5c0.3,0.1,0.5,0.3,0.6,0.4s0.1,0.4,0.1,0.8C47.3,51.7,47.2,52.2,47.2,52.6z"/>
	<path class="st2" d="M52.9,53.9c0-0.5,0-0.8,0-1.1v-0.4c0-0.3-0.1-0.4-0.1-0.5c-0.1-0.1-0.2-0.1-0.4-0.1h-2c-0.3,0-0.5,0-0.6,0
		c-0.1,0-0.3-0.1-0.4-0.3s-0.1-0.3-0.1-0.5c0-0.3,0.2-0.5,0.5-0.5c0.2,0,0.6,0,1,0c0.4,0,0.8,0,1.2,0c0.4,0,0.7,0,1,0
		c1,0,1.7-0.1,2.1-0.2c0.8-0.2,2-0.3,3.6-0.3c0.4,0,0.9,0,1.6-0.1c0.7,0,1.1-0.1,1.4-0.1c0.4,0,0.7,0.2,0.8,0.7
		c0.1,0.2,0,0.4-0.2,0.5c0,0-0.1,0-0.2,0c-0.1,0-0.1,0-0.2,0c-1,0-2.4,0.1-4.2,0.1h-0.2c-0.3,0-0.5,0.1-0.6,0.2s-0.1,0.4,0,0.8
		c0,0.3,0,0.5,0,0.6c0,0.8-0.1,1.4-0.1,1.9c0,0.4-0.1,1-0.2,1.8c0,0.2-0.1,0.5-0.1,1c0,0.4-0.1,0.8-0.1,1.1c0,0.3-0.1,0.7-0.1,1
		c-0.2,2.4-0.3,4.1-0.3,5.2c-0.1,1.4-0.2,2.7-0.3,3.8c-0.1,1.1-0.1,1.9-0.2,2.3c0,0.1,0,0.3,0,0.5c0,0.2,0,0.4,0,0.5
		c0,0.3-0.1,0.5-0.4,0.6c-0.2,0.1-0.6,0.2-1,0.2c-0.4,0.1-0.8,0.1-0.9,0.2c-0.1,0-0.4,0-0.7-0.1c-0.4-0.1-0.6-0.5-0.5-1
		c0-0.5,0.1-1.4,0.3-2.8c0.1-1.4,0.2-2.6,0.3-3.5c0.1-1.3,0.2-3.2,0.3-5.9c0-0.4,0.1-1,0.1-1.9c0-0.8,0.1-1.5,0.1-1.9V55h0
		C52.8,54.8,52.9,54.4,52.9,53.9z"/>
</g>
</svg>
