<?xml version="1.0" encoding="utf-8"?>
<!-- Generator: Adobe Illustrator 21.0.2, SVG Export Plug-In . SVG Version: 6.00 Build 0)  -->
<svg version="1.1" id="Layer_1" xmlns="http://www.w3.org/2000/svg" xmlns:xlink="http://www.w3.org/1999/xlink" x="0px" y="0px"
	 viewBox="0 0 105.6 267.9" style="enable-background:new 0 0 105.6 267.9;" xml:space="preserve">
<style type="text/css">
	.st0{fill:#F4B056;stroke:#702201;stroke-miterlimit:10;}
	.st1{fill:#603813;}
	.st2{fill:#CF800F;stroke:#702201;stroke-miterlimit:10;}
	.st3{fill:none;stroke:#702201;stroke-miterlimit:10;}
	.st4{fill:#FFAEB2;stroke:#683B19;stroke-miterlimit:10;}
</style>
<path class="st0" d="M21.8,102.2c0,0,36,40,66,6C87.8,108.2,55.8,78.2,21.8,102.2z"/>
<rect x="50.8" y="27.8" class="st1" width="4" height="70.5"/>
<path class="st2" d="M21.8,102.2c0,0,10.4,158.7,4.7,164.3c-5.7,5.7,58.7-18.2,58.7-18.2s-5.4-101.2,2.6-140.2
	C87.8,108.2,49.8,136.2,21.8,102.2z"/>
<path class="st3" d="M31.8,129.2c0,0-5,95,3,113"/>
<path class="st3" d="M79.8,124.2c0,0-6,63-2,94"/>
<path class="st3" d="M36.8,130.2c0,0-8,59-2,67"/>
<path class="st3" d="M36.8,99.2c0,0,26-5,43,7"/>
<rect x="0.5" y="0.5" class="st4" width="104.6" height="58.7"/>
<g>
	<path d="M24.9,20.5c0.5-0.1,0.9-0.1,1.1-0.1c0.5,0,0.7,0.3,0.5,0.8c-0.2,0.6-0.5,0.9-1.1,0.9c-0.1,0-0.6,0.1-1.4,0.2
		c-0.2,0-0.4,0.2-0.4,0.5c0,1.9-0.1,4.7-0.2,8.5c0,0.2,0,0.6,0,1c0,0.5,0,0.8,0,1c0,0.2,0,0.4-0.1,0.5c0,0.1-0.1,0.2-0.2,0.2
		C23.4,34,23.2,34,23,34c-0.3,0.1-0.8,0.1-1.4,0.1c-0.6,0-1,0-1.2,0.1c-0.3,0-0.5,0-0.5-0.3c-0.2-0.6-0.4-1-0.3-1.3c0-0.4,0-1.1,0-2
		c0-0.9,0-1.6,0-2c0.2-5.4,0.3-8.4,0.3-9.1c0-0.4,0-1.9,0.1-4.4l0.3-4.8c0-0.4,0.2-0.6,0.4-0.7c0.5-0.2,0.8-0.3,0.9-0.3
		c0.1,0,0.4,0,0.7,0c0.3,0,0.5,0,0.7,0c0.5,0,1,0,1.2-0.1c0.2,0,0.4,0,0.8-0.1c0.3,0,0.5-0.1,0.6-0.1c0.2,0,0.6-0.1,1.1-0.1
		c0.1,0,0.3,0,0.4-0.1c0.2,0,0.3,0,0.3,0c0,0,0.4-0.1,1.1-0.2c0.2,0,0.5-0.1,0.8-0.1c0.1,0,0.2,0,0.3,0.1c0.1,0,0.1,0.2,0.1,0.5
		c0,0.3-0.1,0.5,0,0.5c0,0.2,0,0.3-0.3,0.3c-0.2,0-0.4,0.1-0.8,0.1c-0.4,0.1-0.6,0.1-0.8,0.1c-1.2,0.1-2.1,0.2-2.6,0.2
		c-0.3,0-0.5,0.1-0.6,0.2c-0.1,0.1-0.1,0.3-0.2,0.6c0,0.6-0.1,1.4-0.2,2.6c-0.1,1.2-0.1,2.1-0.2,2.7c-0.1,1-0.1,2-0.1,3
		c0,0.1,0,0.2,0,0.3c0,0.1,0,0.2,0,0.3C24.4,20.5,24.8,20.5,24.9,20.5z"/>
	<path d="M31.6,33.3c0-0.4,0.1-0.7,0.2-1c0.2-0.6,0.4-1.4,0.6-2.5c0.2-1.1,0.4-1.8,0.5-2.3c0.1-0.5,0.3-1.3,0.5-2.3
		c0.2-1,0.3-1.6,0.4-1.9c0.6-2.7,1-4.3,1.1-4.9c0.1-0.3,0.2-0.7,0.3-1c0.1-0.4,0.2-0.7,0.3-1.2c0.1-0.4,0.2-0.8,0.3-1l0.9-3.8
		c0-0.1,0-0.4,0-0.6c-0.1-0.5,0-0.9,0.5-1.1c0.1-0.1,0.3-0.2,0.6-0.3c0.3-0.1,0.5-0.2,0.6-0.3c0.1-0.1,0.7-0.2,1.6-0.2
		C40.5,9,40.8,9.2,41,9.7c0.1,0.2,0.1,0.4,0.2,0.6c0.3,3.1,0.6,5.3,0.7,6.5c0.1,1,0.3,2.5,0.4,4.2c0,0.1,0,0.2,0.1,0.4
		c0,0.1,0,0.3,0,0.4c0,0.1,0,0.3,0,0.4c0.2,1.7,0.3,2.9,0.4,3.7c0.1,1.1,0.2,2.6,0.4,4.7c0,0.2,0,0.5,0,0.9c0,0.4,0,0.7,0,0.9
		c0,0.2-0.1,0.4-0.3,0.5c-1,0.5-1.7,0.9-2.3,1c-0.1,0-0.2,0-0.2,0.1c-0.2,0.1-0.5,0.1-0.7,0c-0.3-0.2-0.4-0.4-0.4-0.7
		c0-1.6-0.1-3.7-0.5-6.4c0-0.3-0.1-0.7-0.2-1.2s-0.1-0.9-0.1-1.2c0-0.3-0.1-0.4-0.2-0.5c-0.1-0.1-0.2-0.1-0.5-0.1
		c-0.3,0-1.2,0.1-2.7,0.2c-0.4,0-0.6,0.2-0.6,0.6c-0.1,0.5-0.4,1.8-0.9,4c-0.1,0.3-0.2,0.8-0.4,1.4c-0.2,0.6-0.3,1.1-0.4,1.4
		c-0.3,1.3-0.5,1.9-0.6,2c-0.2,0.2-0.4,0.3-0.4,0.2c0,0,0-0.1-0.1-0.1c0,0,0,0,0,0.1v0L31.7,34C31.6,33.7,31.6,33.4,31.6,33.3z
		 M35.2,23c0.2,0,0.5-0.1,1-0.1c0.2,0,0.5,0,0.9-0.1c0.4,0,0.7,0,0.9,0c0.2,0,0.4,0,0.4-0.1c0-0.1,0-0.2,0-0.4
		c0-0.3-0.1-0.8-0.2-1.4c-0.1-0.6-0.1-1.1-0.1-1.4c0-0.5-0.1-1.3-0.2-2.3c-0.1-1-0.2-1.8-0.3-2.3c0-0.1,0-0.2-0.1-0.3
		c0-0.1-0.1-0.2-0.1-0.3C36.3,17.7,35.5,20.5,35.2,23z"/>
	<path d="M44.9,25.1c0-1.9,0.4-4.7,1.1-8.5c0.2-1.4,0.7-2.6,1.3-3.7c0.6-1.2,1.1-2,1.4-2.4c0.6-0.8,1.4-1.4,2.4-1.6
		c0.5-0.1,0.8-0.1,1.1,0.1c0,0,0.1,0,0.1,0.1c0,0,0.1,0.1,0.1,0.1s0.1,0.1,0.1,0.1c0,0-0.1,0.1-0.1,0.1s-0.1,0.1-0.1,0.1
		c0,0-0.1,0.1-0.1,0.1c-0.1,0-0.2,0.1-0.4,0.1s-0.4,0.1-0.4,0.1c-0.7,0.2-1.3,0.6-1.8,1.5c-0.2,0.3-0.4,0.6-0.5,0.9
		c-0.2,0.3-0.3,0.7-0.5,1.2c-0.2,0.5-0.3,0.8-0.4,1c-0.3,0.7-0.6,1.4-0.6,2.1c-0.2,1.3-0.5,3.2-0.7,5.4c0,0-0.1,0.6-0.2,1.8
		c-0.1,0.7,0,1.6,0.2,3c0.1,0.8,0.6,1.6,1.4,2.5c0.4,0.4,1,0.6,1.7,0.5c0.6-0.1,1.1-0.3,1.5-0.5c0.5-0.3,0.9-0.6,1.2-1
		c1.4-1.8,2.5-3.6,3.3-5.2l0.2-0.4c0.2-0.4,0.4-0.5,0.7-0.3c0,0,0.1,0,0.2,0.1c0.3,0.1,0.5,0.3,0.6,0.4c0.1,0.1,0.1,0.4,0,0.8
		c-0.2,1.4-0.6,2.6-1.1,3.5c-1,1.7-1.6,2.8-2,3.4c-1,1.5-2.2,2.6-3.7,3.3c-1.2,0.6-2.3,0.4-3.4-0.5c-0.6-0.5-1.1-1.2-1.5-2.1
		c0-0.1-0.1-0.2-0.2-0.3c-0.2-0.2-0.3-0.5-0.3-1c0-0.4-0.1-0.7-0.1-0.9v0C44.9,27.9,44.9,26.7,44.9,25.1z"/>
	<path d="M61.3,13.6c0-0.5,0-0.9,0-1.2V12c0-0.3-0.1-0.5-0.2-0.6c-0.1-0.1-0.2-0.1-0.5-0.1h-2.2c-0.3,0-0.5,0-0.7,0
		c-0.2,0-0.3-0.1-0.4-0.3c-0.1-0.2-0.1-0.4-0.1-0.6c0-0.4,0.2-0.5,0.6-0.5c0.2,0,0.6,0,1.1,0c0.5,0,0.9,0,1.3,0.1c0.4,0,0.7,0,1.1,0
		c1.1,0,1.9-0.1,2.3-0.2c0.9-0.2,2.2-0.3,4-0.3c0.4,0,1,0,1.7-0.1c0.7,0,1.2-0.1,1.5-0.1c0.5,0,0.7,0.3,0.9,0.8
		c0.1,0.3,0,0.4-0.2,0.5c0,0-0.1,0-0.2,0c-0.1,0-0.1,0-0.2,0c-1,0-2.6,0.1-4.6,0.1h-0.3c-0.3,0-0.5,0.1-0.6,0.2
		c-0.1,0.1-0.1,0.4-0.1,0.9c0,0.3,0,0.5,0,0.6c0,0.9-0.1,1.6-0.1,2c0,0.5-0.1,1.1-0.2,2c0,0.2-0.1,0.6-0.1,1.1
		c0,0.5-0.1,0.9-0.1,1.2c0,0.4-0.1,0.7-0.1,1.1c-0.2,2.6-0.3,4.5-0.4,5.7c-0.1,1.5-0.2,2.9-0.3,4.1c-0.1,1.2-0.1,2-0.2,2.5
		c0,0.1,0,0.3,0,0.5c0,0.2,0,0.4,0,0.6c0,0.3-0.2,0.5-0.4,0.6C63.3,34,63,34,62.5,34.1s-0.8,0.1-1,0.2c-0.1,0-0.4,0-0.8-0.1
		c-0.4-0.1-0.6-0.5-0.6-1.1c0-0.5,0.1-1.5,0.3-3.1c0.2-1.5,0.3-2.8,0.3-3.9c0.1-1.4,0.2-3.6,0.4-6.5c0-0.5,0.1-1.1,0.1-2.1
		c0-0.9,0.1-1.6,0.1-2.1v-0.7h0C61.3,14.6,61.3,14.2,61.3,13.6z"/>
	<path d="M87,21.8c0,0.2,0.1,0.4,0.1,0.7c0,0.3,0,0.5,0.1,0.6c0,1.4-0.3,3.2-1,5.4c-0.1,0.3-0.2,0.5-0.3,0.8
		c-0.1,0.3-0.3,0.5-0.4,0.7c-0.1,0.2-0.3,0.4-0.5,0.7c-0.2,0.3-0.4,0.6-0.4,0.6c-0.7,1-1.6,1.9-2.7,2.7l-0.1,0
		c-0.2,0.1-0.5,0.3-0.8,0.4s-0.7,0.2-1.3,0.3c-0.6,0.1-1.2,0-2-0.3c-0.8-0.2-1.6-0.6-2.4-1.2c-0.5-0.6-0.8-1.4-1.1-2.3
		s-0.4-1.6-0.4-2.1v-0.9l0.1-0.5c0.1-0.5,0.2-0.9,0.3-1.2c0.1-0.3,0.4-0.4,0.7-0.2c0.2,0.1,0.2,0.2,0.2,0.3l0,0.1
		c0,0.1-0.1,0.2-0.1,0.4c0,0.2-0.1,0.3-0.1,0.5c-0.2,0.7-0.2,1.3-0.1,1.8c0.2,2.1,1.3,3.4,3.4,3.7c0.9,0.2,1.6,0,2.1-0.4
		c0.6-0.4,1-1.1,1.2-1.9c0.2-0.8,0.4-1.6,0.4-2.4c0.1-0.8,0.1-1.6,0-2.4c0-0.6,0-1.2-0.1-1.7l-0.1-0.5c-0.4-1.8-1.3-2.9-2.8-3.3
		L77.6,20c-1.4-0.6-2.1-1.7-2.1-3.2c0-0.9,0.2-1.8,0.5-2.6c0.3-0.9,0.7-1.7,1.2-2.3c0.8-1.1,1.9-1.9,3.2-2.2c1-0.2,1.7-0.4,2.1-0.4
		c0.7-0.1,1.5,0.2,2.4,0.7c0.7,0.4,1.1,0.8,1.2,1c0.1,0.1,0.1,0.2,0.2,0.3c0,0.2,0,0.4,0,0.4c-0.1,0.1-0.2,0.2-0.3,0.2
		c-0.2-0.1-0.4-0.2-0.4-0.3c-0.3-0.3-0.9-0.7-1.7-1.1c-0.6-0.3-1.3-0.3-2.3,0c-0.8,0.2-1.5,0.5-2,0.9c-1,0.6-1.6,1.5-2,2.5
		c-0.4,1-0.7,1.7-0.7,2.2c0,0.2-0.1,0.3-0.1,0.4c0,0.4,0,0.7,0.2,0.9c0.1,0.2,0.4,0.2,0.7,0.2c0.4-0.1,1.2-0.1,2.4-0.1
		c0.2,0,0.6,0,1.2-0.1s1-0.1,1.3,0c1.2,0.1,2.3,0.6,3.1,1.7C86.3,19.8,86.8,20.8,87,21.8z"/>
</g>
<path d="M75.7,48.4c-0.8,0.9-2,1.3-3.2,1.3c0,0,0,0,0,0L40.2,48c-1.1-0.1-2,0.8-2,1.8v0c0,1.4-1.6,2.3-2.8,1.6l-8.4-4.4
	c-1.5-0.8-1.3-2.9,0.2-3.5l8.9-3.4c1.3-0.5,2.6,0.4,2.6,1.8v1.1c0,1,0.8,1.9,1.9,1.9L71,46c1.4,0,2.8-0.4,3.9-1.2L75.7,48.4z"/>
</svg>
