<?xml version="1.0" encoding="utf-8"?>
<!-- Generator: Adobe Illustrator 21.0.2, SVG Export Plug-In . SVG Version: 6.00 Build 0)  -->
<svg version="1.1" id="Heart" xmlns="http://www.w3.org/2000/svg" xmlns:xlink="http://www.w3.org/1999/xlink" x="0px" y="0px"
	 viewBox="0 0 251.3 243" style="enable-background:new 0 0 251.3 243;" xml:space="preserve">
<style type="text/css">
	.st0{fill:#EF6EA8;}
	.st1{fill:#F498C1;}
	.st2{fill:#FFFFFF;}
</style>
<g id="Base">
	<path class="st0" d="M114,199.7c-7.7-7.9-14.9-16-21.7-24.3c-0.8-0.9-1.6-1.9-2.4-2.9c-17.6-21.8-32.2-45-44.5-70.8
		c-1.7-3.5-3-6.9-4-10.4c0,0,0,0,0,0c0,0,0,0,0,0c-13.3-43.8,21.9-80.5,55-85c0,0,0,0,0,0c0,0,0,0,0,0c0.2,0,0.5-0.1,0.7-0.1
		c-2.2-0.5-58.5-1.9-78.6,28.1c-21.9,32.6-7,62-7,62C23.7,150.7,123,238.1,123,238.1l32.1-0.9C140,224.8,126.4,212.5,114,199.7z"/>
	<path class="st0" d="M196.5,21.5C196.5,21.5,196.5,21.5,196.5,21.5c0,0-38-2.6-46.9,4.6c0,0,0.3,0.7,0.9,1.8
		c7.8,8.2,11.7,15.7,11.7,15.7C174.3,27.6,186.4,22.2,196.5,21.5z"/>
	<path class="st1" d="M221,28.8c0,0-10.2-8.3-24.5-7.3c-10.1,0.7-22.2,6-34.4,22c0,0-3.8-7.4-11.7-15.7c-9.2-9.7-24-20.6-44.5-21.9
		c-2.9-0.2-5.9-0.1-8.9,0.3c-0.2,0-0.5,0.1-0.7,0.1c0,0,0,0,0,0c-33.2,4.5-68.4,41.2-55,85c0,0,0,0,0,0.1c1,3.4,2.4,6.9,4,10.4
		c12.3,25.8,26.9,49,44.5,70.8c0.8,1,1.6,1.9,2.4,2.9c6.8,8.3,14,16.3,21.7,24.3c12.4,12.7,26,25.1,41.1,37.5
		c0,0,60.7-66.9,80-124.4C235.1,112.8,258.9,59.1,221,28.8z"/>
</g>
<g>
	<path class="st2" d="M80.8,103.4c2-0.2,3.7,0.2,5,1.2c1.4,1.1,2.2,2.6,2.4,4.5c0.2,1.9-0.2,3.6-1.3,4.9c-1.1,1.3-2.7,2.1-4.7,2.4
		l-3.9,0.5l1.1,9.4l-4.1,0.5l-2.6-22.4L80.8,103.4z M80.9,113.1c1.1-0.1,1.9-0.5,2.5-1.1c0.5-0.6,0.8-1.4,0.6-2.5
		c-0.2-2.1-1.6-2.9-4.1-2.6l-2.8,0.3l0.7,6.2L80.9,113.1z"/>
	<path class="st2" d="M94.7,109.3l1.1,9.2c0.1,1,0.4,1.7,0.9,2.1c0.5,0.5,1.2,0.6,1.9,0.5c0.6-0.1,1.2-0.3,1.7-0.8
		c0.5-0.5,0.9-1.1,1.2-1.9l-1.2-9.9l3.7-0.4l1.8,14.9l-3.7,0.4l-0.2-2c-1.2,1.7-2.5,2.7-4.1,2.8c-1.5,0.2-2.8-0.2-3.8-1.1
		c-1.1-0.9-1.7-2.2-1.9-3.9l-1.1-9.6L94.7,109.3z"/>
	<path class="st2" d="M115.1,106.6c2-0.2,3.7,0.3,5.1,1.6c1.4,1.3,2.2,3.1,2.5,5.4c0.2,1.5,0,2.9-0.4,4.1c-0.4,1.3-1.2,2.3-2.2,3.1
		c-1,0.8-2.2,1.3-3.5,1.4c-1.1,0.1-2.2,0-3.4-0.5l1,8.1l-3.7,0.4l-2.6-22.5l3.7-0.4l0.1,1C112.7,107.3,113.8,106.8,115.1,106.6z
		 M112.9,118.8c1,0.5,1.9,0.6,2.7,0.5c1.2-0.1,2.1-0.7,2.7-1.7c0.6-1,0.8-2.2,0.7-3.5c-0.2-1.5-0.6-2.7-1.4-3.5
		c-0.7-0.8-1.7-1.1-2.8-1c-0.4,0.1-0.8,0.2-1.2,0.4c-0.4,0.2-0.9,0.6-1.5,1.2L112.9,118.8z"/>
	<path class="st2" d="M132.1,104.6c2-0.2,3.7,0.3,5.1,1.6c1.4,1.3,2.2,3.1,2.5,5.4c0.2,1.5,0,2.9-0.4,4.1c-0.4,1.3-1.2,2.3-2.2,3.1
		c-1,0.8-2.2,1.3-3.5,1.4c-1.1,0.1-2.2,0-3.4-0.5l1,8.1l-3.7,0.4l-2.6-22.5l3.7-0.4l0.1,1C129.7,105.3,130.8,104.8,132.1,104.6z
		 M129.9,116.8c1,0.5,1.9,0.6,2.7,0.5c1.2-0.1,2.1-0.7,2.7-1.7c0.6-1,0.8-2.2,0.7-3.5c-0.2-1.5-0.6-2.7-1.4-3.5
		c-0.7-0.8-1.7-1.1-2.8-1c-0.4,0.1-0.8,0.2-1.2,0.4s-0.9,0.6-1.5,1.2L129.9,116.8z"/>
	<path class="st2" d="M145.4,103.3l1.1,9.2c0.1,1,0.4,1.7,0.9,2.1c0.5,0.5,1.2,0.6,1.9,0.5c0.6-0.1,1.2-0.3,1.7-0.8
		c0.5-0.5,0.9-1.1,1.2-1.9l-1.2-9.9l3.7-0.4l1.8,14.9l-3.7,0.4l-0.2-2c-1.2,1.7-2.5,2.6-4.1,2.8c-1.5,0.2-2.8-0.2-3.8-1.1
		s-1.7-2.2-1.9-3.9l-1.1-9.6L145.4,103.3z"/>
	<path class="st2" d="M160.8,101.5l4.3,7.6l2.4-8.4l4-0.5l-7.1,23.6l-4,0.5l3.3-10.8l-6.9-11.5L160.8,101.5z"/>
	<path class="st2" d="M185.7,91.1l2.2,19l10.3-1.2l0.4,3.4l-14.4,1.7l-2.6-22.4L185.7,91.1z"/>
	<path class="st2" d="M202.8,96.6l1.1,9.2c0.1,1,0.4,1.7,0.9,2.1c0.5,0.5,1.2,0.6,1.9,0.5c0.6-0.1,1.2-0.3,1.7-0.8
		c0.5-0.5,0.9-1.1,1.2-1.9l-1.2-9.9l3.7-0.4l1.8,14.9l-3.7,0.4l-0.2-2c-1.2,1.7-2.5,2.7-4.1,2.8c-1.5,0.2-2.8-0.2-3.8-1.1
		c-1.1-0.9-1.7-2.2-1.9-3.9l-1.1-9.6L202.8,96.6z"/>
	<path class="st2" d="M218.1,94.8l4.4,8.3l2.3-9l4-0.5l-4.6,16l-1.8,0.2l-8.3-14.5L218.1,94.8z"/>
</g>
</svg>
