<?xml version="1.0" encoding="utf-8"?>
<!-- Generator: Adobe Illustrator 21.0.2, SVG Export Plug-In . SVG Version: 6.00 Build 0)  -->
<svg version="1.1" id="Heart" xmlns="http://www.w3.org/2000/svg" xmlns:xlink="http://www.w3.org/1999/xlink" x="0px" y="0px"
	 viewBox="0 0 251.3 243" style="enable-background:new 0 0 251.3 243;" xml:space="preserve">
<style type="text/css">
	.st0{fill:#EF6EA8;}
	.st1{fill:#F498C1;}
	.st2{fill:#FFFFFF;}
</style>
<g id="Base">
	<path class="st0" d="M114,199.7c-7.7-7.9-14.9-16-21.7-24.3c-0.8-0.9-1.6-1.9-2.4-2.9c-17.6-21.8-32.2-45-44.5-70.8
		c-1.7-3.5-3-6.9-4-10.4c0,0,0,0,0,0c0,0,0,0,0,0c-13.3-43.8,21.9-80.5,55-85c0,0,0,0,0,0c0,0,0,0,0,0c0.2,0,0.5-0.1,0.7-0.1
		c-2.2-0.5-58.5-1.9-78.6,28.1c-21.9,32.6-7,62-7,62C23.7,150.7,123,238.1,123,238.1l32.1-0.9C140,224.8,126.4,212.5,114,199.7z"/>
	<path class="st0" d="M196.5,21.5C196.5,21.5,196.5,21.5,196.5,21.5c0,0-38-2.6-46.9,4.6c0,0,0.3,0.7,0.9,1.8
		c7.8,8.2,11.7,15.7,11.7,15.7C174.3,27.6,186.4,22.2,196.5,21.5z"/>
	<path class="st1" d="M221,28.8c0,0-10.2-8.3-24.5-7.3c-10.1,0.7-22.2,6-34.4,22c0,0-3.8-7.4-11.7-15.7c-9.2-9.7-24-20.6-44.5-21.9
		c-2.9-0.2-5.9-0.1-8.9,0.3c-0.2,0-0.5,0.1-0.7,0.1c0,0,0,0,0,0c-33.2,4.5-68.4,41.2-55,85c0,0,0,0,0,0.1c1,3.4,2.4,6.9,4,10.4
		c12.3,25.8,26.9,49,44.5,70.8c0.8,1,1.6,1.9,2.4,2.9c6.8,8.3,14,16.3,21.7,24.3c12.4,12.7,26,25.1,41.1,37.5
		c0,0,60.7-66.9,80-124.4C235.1,112.8,258.9,59.1,221,28.8z"/>
</g>
<g>
	<path class="st2" d="M93.2,97.4c2.2,0,4.1,0.6,5.7,1.7c1.6,1.2,2.6,2.6,2.9,4.3c0.2,1.1,0.1,2.1-0.4,2.9c-0.4,0.8-1.2,1.5-2.2,2
		l0,0.2c1.8,0.4,3.2,1.1,4.3,2.3c1.1,1.1,1.8,2.4,2.1,4c0.2,1.3,0.1,2.5-0.4,3.6c-0.5,1.1-1.3,1.8-2.4,2.4c-1.1,0.5-2.5,0.8-4.2,0.8
		H88.6l-4.3-24.2H93.2z M93.8,107.4c1.2,0,2.2-0.3,2.8-0.9s0.8-1.4,0.6-2.5c-0.2-0.9-0.6-1.7-1.4-2.2S94.1,101,93,101h-3.4l1.1,6.4
		H93.8z M96.7,117.9c1.6,0,2.7-0.3,3.4-0.9c0.7-0.6,1-1.5,0.7-2.6c-0.2-1-0.7-1.8-1.6-2.4c-0.9-0.6-2-0.9-3.4-0.9h-4.4l1.2,6.8H96.7
		z"/>
	<path class="st2" d="M114.7,105.1c2.4,0,4.4,0.8,6,2.3s2.7,3.6,3.2,6.3l0.1,0.6h-11.4c0.4,1.4,1.2,2.6,2.2,3.3
		c1,0.8,2.4,1.2,3.9,1.2c1,0,2-0.2,2.8-0.5c0.9-0.4,1.8-0.9,2.6-1.6l0.6,3.2c-1.7,1.3-3.8,2-6.5,2c-2.6,0-4.8-0.8-6.7-2.3
		c-1.9-1.5-3.1-3.6-3.5-6.1c-0.4-2.5,0-4.5,1.2-6S112.3,105.1,114.7,105.1z M119.6,111.7c-0.3-1.2-0.8-2.1-1.6-2.8
		c-0.7-0.7-1.6-1-2.7-1c-1.1,0-1.9,0.3-2.4,1c-0.5,0.6-0.8,1.6-0.7,2.8H119.6z"/>
	<path class="st2" d="M139,97.4l9.6,9.5l6.3-9.5h4.2l4.3,24.2h-4.7l-3-17h-0.1l-5.5,8.5h-0.7l-8.5-8.5h-0.1l3,17H139l-4.3-24.2H139z
		"/>
	<path class="st2" d="M166.2,97.9c0.7,0,1.3,0.2,1.8,0.7s0.9,1,1,1.7c0.1,0.6,0,1.2-0.4,1.7c-0.4,0.5-0.9,0.7-1.6,0.7
		c-0.6,0-1.3-0.2-1.8-0.7c-0.6-0.5-0.9-1.1-1-1.7c-0.1-0.7,0-1.2,0.4-1.7C165.1,98.1,165.6,97.9,166.2,97.9z M169.7,105.4l2.9,16.2
		h-4.3l-2.9-16.2H169.7z"/>
	<path class="st2" d="M183.4,105.1c1.7,0,3.2,0.6,4.4,1.7s2,2.6,2.3,4.5l1.8,10.3h-4.2l-1.7-9.9c-0.2-1-0.6-1.9-1.2-2.5
		c-0.6-0.6-1.3-0.9-2.2-0.9c-0.7,0-1.2,0.2-1.8,0.6c-0.5,0.4-1,1-1.6,1.9l1.9,10.8h-4.3l-2.9-16.2h4.3l0.4,2.3
		c0.6-0.9,1.3-1.6,2.1-2C181.5,105.3,182.4,105.1,183.4,105.1z"/>
	<path class="st2" d="M200.4,105.1c2.4,0,4.4,0.8,6,2.3s2.7,3.6,3.2,6.3l0.1,0.6h-11.4c0.4,1.4,1.2,2.6,2.2,3.3
		c1,0.8,2.4,1.2,3.9,1.2c1,0,2-0.2,2.8-0.5c0.9-0.4,1.8-0.9,2.6-1.6l0.6,3.2c-1.7,1.3-3.8,2-6.5,2c-2.6,0-4.8-0.8-6.7-2.3
		c-1.9-1.5-3.1-3.6-3.5-6.1c-0.4-2.5,0-4.5,1.2-6S198,105.1,200.4,105.1z M205.3,111.7c-0.3-1.2-0.8-2.1-1.6-2.8
		c-0.7-0.7-1.6-1-2.7-1c-1.1,0-1.9,0.3-2.4,1c-0.5,0.6-0.8,1.6-0.7,2.8H205.3z"/>
</g>
</svg>
