<?xml version="1.0" encoding="utf-8"?>
<!-- Generator: Adobe Illustrator 21.0.2, SVG Export Plug-In . SVG Version: 6.00 Build 0)  -->
<svg version="1.1" id="Heart" xmlns="http://www.w3.org/2000/svg" xmlns:xlink="http://www.w3.org/1999/xlink" x="0px" y="0px"
	 viewBox="0 0 251.3 243" style="enable-background:new 0 0 251.3 243;" xml:space="preserve">
<style type="text/css">
	.st0{fill:#EF6EA8;}
	.st1{fill:#F498C1;}
	.st2{enable-background:new    ;}
	.st3{fill:#FFFFFF;}
</style>
<g id="Base">
	<path class="st0" d="M114,199.7c-7.7-7.9-14.9-16-21.7-24.3c-0.8-0.9-1.6-1.9-2.4-2.9c-17.6-21.8-32.2-45-44.5-70.8
		c-1.7-3.5-3-6.9-4-10.4l0,0l0,0c-13.3-43.8,21.9-80.5,55-85l0,0l0,0c0.2,0,0.5-0.1,0.7-0.1c-2.2-0.5-58.5-1.9-78.6,28.1
		c-21.9,32.6-7,62-7,62C23.7,150.7,123,238.1,123,238.1l32.1-0.9C140,224.8,126.4,212.5,114,199.7z"/>
	<path class="st0" d="M196.5,21.5L196.5,21.5c0,0-38-2.6-46.9,4.6c0,0,0.3,0.7,0.9,1.8c7.8,8.2,11.7,15.7,11.7,15.7
		C174.3,27.6,186.4,22.2,196.5,21.5z"/>
	<path class="st1" d="M221,28.8c0,0-10.2-8.3-24.5-7.3c-10.1,0.7-22.2,6-34.4,22c0,0-3.8-7.4-11.7-15.7c-9.2-9.7-24-20.6-44.5-21.9
		C103,5.7,100,5.8,97,6.2c-0.2,0-0.5,0.1-0.7,0.1l0,0c-33.2,4.5-68.4,41.2-55,85c0,0,0,0,0,0.1c1,3.4,2.4,6.9,4,10.4
		c12.3,25.8,26.9,49,44.5,70.8c0.8,1,1.6,1.9,2.4,2.9c6.8,8.3,14,16.3,21.7,24.3c12.4,12.7,26,25.1,41.1,37.5
		c0,0,60.7-66.9,80-124.4C235.1,112.8,258.9,59.1,221,28.8z"/>
</g>
<g class="st2">
	<path class="st3" d="M99.5,105.1l7.5,7.3l5.5-8.8l5.7-0.7l-7.9,12.5l11.6,11.1l-5.8,0.7l-8.2-8l-6.2,9.7l-5.8,0.7l8.6-13.4
		l-10.7-10.3L99.5,105.1z"/>
	<path class="st3" d="M132.6,100.9c2.5-0.3,4.7,0,6.8,0.7c2.1,0.8,3.8,2.1,5.2,3.8c1.4,1.8,2.2,3.8,2.5,6.1c0.3,2.2-0.1,4.3-1,6.4
		c-0.9,2-2.3,3.7-4.2,5c-1.9,1.3-4,2.1-6.5,2.4c-2.5,0.3-4.7,0-6.9-0.8c-2.1-0.8-3.9-2.1-5.2-3.8c-1.3-1.7-2.1-3.7-2.4-6
		c-0.3-2.2,0.1-4.3,1-6.3c0.9-2,2.3-3.7,4.1-5C127.9,102,130.1,101.2,132.6,100.9z M125.7,114c0.2,1.6,0.7,2.9,1.6,4.1
		c0.9,1.2,2,2,3.3,2.6c1.4,0.5,2.8,0.7,4.4,0.5c2.4-0.3,4.3-1.3,5.7-3c1.4-1.7,1.9-3.8,1.7-6.2c-0.2-1.6-0.7-2.9-1.6-4.1
		c-0.9-1.2-2-2-3.3-2.6c-1.4-0.5-2.9-0.7-4.5-0.5c-1.6,0.2-3,0.7-4.2,1.6c-1.2,0.8-2.1,1.9-2.6,3.3C125.7,111,125.5,112.4,125.7,114
		z"/>
	<path class="st3" d="M154.1,98.7l7.5,7.3l5.5-8.8l5.7-0.7l-7.9,12.5l11.6,11.1l-5.8,0.7l-8.2-8l-6.2,9.7l-5.8,0.7l8.6-13.4
		l-10.7-10.3L154.1,98.7z"/>
	<path class="st3" d="M187.3,94.5c2.5-0.3,4.7,0,6.8,0.7c2.1,0.8,3.8,2.1,5.2,3.8c1.4,1.8,2.2,3.8,2.5,6.1c0.3,2.2-0.1,4.3-1,6.4
		c-0.9,2-2.3,3.7-4.2,5c-1.9,1.3-4,2.1-6.5,2.4c-2.5,0.3-4.7,0-6.9-0.8c-2.1-0.8-3.9-2.1-5.2-3.8c-1.3-1.7-2.1-3.7-2.4-6
		c-0.3-2.2,0.1-4.3,1-6.3c0.9-2,2.3-3.7,4.1-5C182.5,95.6,184.7,94.8,187.3,94.5z M180.3,107.6c0.2,1.6,0.7,2.9,1.6,4.1
		c0.9,1.2,2,2,3.3,2.6c1.4,0.5,2.8,0.7,4.4,0.5c2.4-0.3,4.3-1.3,5.7-3c1.4-1.7,1.9-3.8,1.7-6.2c-0.2-1.6-0.7-2.9-1.6-4.1
		c-0.9-1.2-2-2-3.3-2.6c-1.4-0.5-2.9-0.7-4.5-0.5c-1.6,0.2-3,0.7-4.2,1.6c-1.2,0.8-2.1,1.9-2.6,3.3
		C180.3,104.6,180.2,106,180.3,107.6z"/>
</g>
</svg>
