<?xml version="1.0" encoding="utf-8"?>
<!-- Generator: Adobe Illustrator 21.0.2, SVG Export Plug-In . SVG Version: 6.00 Build 0)  -->
<svg version="1.1" id="Heart" xmlns="http://www.w3.org/2000/svg" xmlns:xlink="http://www.w3.org/1999/xlink" x="0px" y="0px"
	 viewBox="0 0 251.3 243" style="enable-background:new 0 0 251.3 243;" xml:space="preserve">
<style type="text/css">
	.st0{fill:#EF6EA8;}
	.st1{fill:#F498C1;}
	.st2{enable-background:new    ;}
	.st3{fill:#FFFFFF;}
</style>
<g id="Base">
	<path class="st0" d="M114,199.7c-7.7-7.9-14.9-16-21.7-24.3c-0.8-0.9-1.6-1.9-2.4-2.9c-17.6-21.8-32.2-45-44.5-70.8
		c-1.7-3.5-3-6.9-4-10.4l0,0l0,0c-13.3-43.8,21.9-80.5,55-85l0,0l0,0c0.2,0,0.5-0.1,0.7-0.1c-2.2-0.5-58.5-1.9-78.6,28.1
		c-21.9,32.6-7,62-7,62C23.7,150.7,123,238.1,123,238.1l32.1-0.9C140,224.8,126.4,212.5,114,199.7z"/>
	<path class="st0" d="M196.5,21.5L196.5,21.5c0,0-38-2.6-46.9,4.6c0,0,0.3,0.7,0.9,1.8c7.8,8.2,11.7,15.7,11.7,15.7
		C174.3,27.6,186.4,22.2,196.5,21.5z"/>
	<path class="st1" d="M221,28.8c0,0-10.2-8.3-24.5-7.3c-10.1,0.7-22.2,6-34.4,22c0,0-3.8-7.4-11.7-15.7c-9.2-9.7-24-20.6-44.5-21.9
		C103,5.7,100,5.8,97,6.2c-0.2,0-0.5,0.1-0.7,0.1l0,0c-33.2,4.5-68.4,41.2-55,85c0,0,0,0,0,0.1c1,3.4,2.4,6.9,4,10.4
		c12.3,25.8,26.9,49,44.5,70.8c0.8,1,1.6,1.9,2.4,2.9c6.8,8.3,14,16.3,21.7,24.3c12.4,12.7,26,25.1,41.1,37.5
		c0,0,60.7-66.9,80-124.4C235.1,112.8,258.9,59.1,221,28.8z"/>
</g>
<g class="st2">
	<path class="st3" d="M91.3,97c2.4,0,4.7,0.6,7.1,1.8l0.7,4.2c-2.8-1.5-5.1-2.3-7.1-2.3c-1.2,0-2.1,0.2-2.6,0.7
		c-0.6,0.5-0.8,1.1-0.7,1.8c0.2,0.9,0.9,1.8,2.3,2.5c0.4,0.2,1.8,0.9,4.3,1.9c2.1,0.9,3.8,2,4.8,3.1c1.1,1.1,1.8,2.5,2,4.1
		c0.4,2.1-0.1,3.8-1.4,5c-1.3,1.3-3.1,1.9-5.5,1.9c-1.5,0-2.9-0.2-4.1-0.5c-1.2-0.3-2.5-0.9-4.1-1.8l-0.8-4.6c3,2.1,5.6,3.2,7.9,3.2
		c1.1,0,2-0.2,2.6-0.7c0.6-0.5,0.9-1.2,0.7-2c-0.2-1.1-1-2-2.3-2.7c-1.1-0.6-2.5-1.2-4.3-2c-2.1-0.9-3.7-1.9-4.8-3
		c-1.1-1.2-1.9-2.5-2.1-4c-0.4-2,0.1-3.6,1.4-4.9C86.9,97.6,88.8,97,91.3,97z"/>
	<path class="st3" d="M106.1,105.4l5.4,9.3l2.2-9.3h2.8l5.4,9.3l2.1-9.3h4.4l-4.3,16.5h-1.8l-6.1-9.9l-2.6,9.9h-1.8l-10.2-16.5
		H106.1z"/>
	<path class="st3" d="M137.8,105.1c2.4,0,4.4,0.8,6,2.3c1.7,1.5,2.7,3.6,3.2,6.3l0.1,0.6h-11.4c0.4,1.4,1.2,2.6,2.2,3.3
		c1,0.8,2.4,1.2,3.9,1.2c1,0,2-0.2,2.8-0.5c0.9-0.4,1.8-0.9,2.6-1.6l0.6,3.2c-1.7,1.3-3.8,2-6.5,2c-2.5,0-4.8-0.8-6.7-2.3
		c-1.9-1.5-3.1-3.6-3.5-6.1c-0.4-2.5,0-4.5,1.2-6S135.4,105.1,137.8,105.1z M142.7,111.7c-0.3-1.2-0.8-2.1-1.6-2.8
		c-0.7-0.7-1.6-1-2.7-1c-1.1,0-1.9,0.3-2.4,1c-0.5,0.6-0.8,1.6-0.7,2.8H142.7z"/>
	<path class="st3" d="M156.1,105.1c2.4,0,4.4,0.8,6,2.3c1.7,1.5,2.7,3.6,3.2,6.3l0.1,0.6H154c0.4,1.4,1.2,2.6,2.2,3.3
		s2.4,1.2,3.9,1.2c1,0,2-0.2,2.8-0.5s1.8-0.9,2.6-1.6l0.6,3.2c-1.7,1.3-3.8,2-6.5,2c-2.6,0-4.8-0.8-6.7-2.3
		c-1.9-1.5-3.1-3.6-3.5-6.1c-0.4-2.5,0-4.5,1.2-6S153.7,105.1,156.1,105.1z M161,111.7c-0.3-1.2-0.8-2.1-1.6-2.8
		c-0.7-0.7-1.6-1-2.7-1c-1.1,0-1.9,0.3-2.4,1c-0.5,0.6-0.8,1.6-0.7,2.8H161z"/>
	<path class="st3" d="M170.9,101.1h0.3l0.8,4.3h5.5l0.6,3.2h-5.5l1.3,7.5c0.1,0.7,0.5,1.3,1,1.8c0.5,0.5,1.2,0.7,1.9,0.7
		c1,0,2.1-0.4,3.2-1.1l0.6,3.4c-1.4,0.7-2.8,1-4.1,1c-1.8,0-3.3-0.5-4.5-1.5s-1.9-2.3-2.2-4l-1.4-7.7h-2.5l-0.1-0.7L170.9,101.1z"/>
	<path class="st3" d="M181.2,97.9c0.7,0,1.3,0.2,1.8,0.7s0.9,1,1,1.7c0.1,0.6,0,1.2-0.4,1.7c-0.4,0.5-0.9,0.7-1.6,0.7
		c-0.6,0-1.3-0.2-1.8-0.7c-0.6-0.5-0.9-1.1-1-1.7c-0.1-0.7,0-1.2,0.4-1.7S180.6,97.9,181.2,97.9z M184.7,105.4l2.9,16.2h-4.3
		l-2.8-16.2H184.7z"/>
	<path class="st3" d="M196.2,105.1c2.4,0,4.4,0.8,6,2.3c1.7,1.5,2.7,3.6,3.2,6.3l0.1,0.6h-11.4c0.4,1.4,1.2,2.6,2.2,3.3
		c1,0.8,2.4,1.2,3.9,1.2c1,0,2-0.2,2.8-0.5c0.9-0.4,1.8-0.9,2.6-1.6l0.6,3.2c-1.7,1.3-3.8,2-6.5,2c-2.5,0-4.8-0.8-6.7-2.3
		c-1.9-1.5-3.1-3.6-3.5-6.1c-0.4-2.5,0-4.5,1.2-6S193.8,105.1,196.2,105.1z M201.1,111.7c-0.3-1.2-0.8-2.1-1.6-2.8
		c-0.7-0.7-1.6-1-2.7-1c-1.1,0-1.9,0.3-2.4,1c-0.5,0.6-0.8,1.6-0.7,2.8H201.1z"/>
</g>
</svg>
