<?xml version="1.0" encoding="utf-8"?>
<!-- Generator: Adobe Illustrator 21.0.2, SVG Export Plug-In . SVG Version: 6.00 Build 0)  -->
<svg version="1.1" id="Layer_1" xmlns="http://www.w3.org/2000/svg" xmlns:xlink="http://www.w3.org/1999/xlink" x="0px" y="0px"
	 viewBox="0 0 1280 1024" style="enable-background:new 0 0 1280 1024;" xml:space="preserve">
<style type="text/css">
	.st0{fill:#39FFFF;}
	.st1{fill:#FF5C7B;stroke:#000000;stroke-width:3.0258;stroke-miterlimit:10;}
	.st2{fill:none;stroke:#000000;stroke-width:3.0258;stroke-miterlimit:10;}
	.st3{fill:#FFCAD7;stroke:#000000;stroke-width:2.0172;stroke-miterlimit:10;}
	.st4{fill:#FFFBCC;stroke:#000000;stroke-width:2.0172;stroke-miterlimit:10;}
	.st5{fill:none;stroke:#000000;stroke-width:4.0344;stroke-miterlimit:10;}
	.st6{fill:#FFCAD7;stroke:#000000;stroke-width:1.8863;stroke-miterlimit:10;}
	.st7{fill:#FFCAD7;stroke:#000000;stroke-width:1.8707;stroke-miterlimit:10;}
	.st8{fill:#FF5C7B;}
	.st9{fill:#FFCAD7;stroke:#000000;stroke-width:3.0258;stroke-miterlimit:10;}
	.st10{fill:#FF5C7B;stroke:#000000;stroke-width:2.0172;stroke-miterlimit:10;}
</style>
<path class="st0" d="M261.7,508.4l32.7,355.8c3.8,41.6,38.8,72.9,79.9,71.5c119.9-4.1,358.4-12.1,490.9-14.8
	c44.6-0.9,79.2-39.9,75.6-85.1l-28.8-358.9c-2-24.4-15-46.6-35.2-59.9L859,405.4c-13.9-9.1-30.3-13.5-46.8-12.5L334,422.5
	c-35.1,2.2-64.3,28.1-71.2,63.2l0,0C261.4,493.2,261,500.8,261.7,508.4z"/>
<path class="st1" d="M203.8,462.5c0,0,44.9,76.2,123.8-19.9c0,0,49.6,82.1,125.9-4.7c0,0,80.8,73.3,121.1-12.2
	c0,0,60,78.7,128.9-4.8c0,0,63.1,81.6,121.4-4.6c0,0,32.6,69,134.1,14.8L595,125.6L203.8,462.5z"/>
<path class="st2" d="M315.6,366.2c0,0,31.6,39,84.6-28.6c0,0,78.5,91.7,128.6-14c0,0,56,83.4,104.3-3.9c0,0,70.6,105.7,115.3-23.4
	c0,0,50.5,100.9,88.4,32.3"/>
<path class="st2" d="M463.3,239c0,0,49.8,66.8,97.6-20.5c0,0,54.8,81.1,118.5-22.1"/>
<path class="st3" d="M299.4,530.2l55.1-10.8l17.7,110.8c0,0-49.6,37-61,14.5C299.9,622.2,299.4,530.2,299.4,530.2z"/>
<path class="st3" d="M480.5,514.7c0,0,34-15,44.6-10.8c10.7,4.2,12.5,94.2,4.8,128.1l-45,1.7L480.5,514.7z"/>
<polygon class="st4" points="372.2,630.2 484.9,633.6 480.5,514.7 354.6,519.4 "/>
<line class="st5" x1="417.5" y1="517" x2="421.8" y2="631.7"/>
<line class="st5" x1="364" y1="578.6" x2="482.7" y2="574.2"/>
<path class="st6" d="M654.4,498.4l47.8,0.7l16.7,110.8c0,0-58.3,12.8-62.8-13.9C652,572.4,654.4,498.4,654.4,498.4z"/>
<path class="st7" d="M827.1,494.4c0,0,39.5-6.1,48.7-1.8s12.9,85,6.5,118.9l-50.7,1.9L827.1,494.4z"/>
<polygon class="st4" points="718.9,609.9 831.6,613.3 827.1,494.4 701.2,499.1 "/>
<line class="st5" x1="764.2" y1="496.8" x2="768.5" y2="611.4"/>
<line class="st5" x1="710.7" y1="558.3" x2="829.3" y2="553.9"/>
<path class="st3" d="M507,779l8.2,151.9l174.9-6.4l-6.3-167.2c-1.7-46.2-39.9-82.3-85.3-80.5h0C545.3,678.8,504,724.9,507,779z"/>
<path class="st8" d="M543.6,819.3L543.6,819.3c-5.7,0.2-10.5-4.3-10.7-10l0-0.4c-0.2-5.7,4.3-10.5,10-10.7l0,0
	c5.7-0.2,10.5,4.3,10.7,10l0,0.4C553.7,814.3,549.2,819.1,543.6,819.3z"/>
<polygon class="st9" points="171.4,441.8 204.3,474.1 592.9,125.3 971.2,450.4 994.1,418 590.7,89.1 "/>
<polygon class="st9" points="311,153.1 432.1,126.3 441.6,214.5 328.7,309.4 "/>
<line class="st2" x1="314.3" y1="184.7" x2="434.8" y2="155.2"/>
<line class="st2" x1="318.9" y1="230.9" x2="439.6" y2="204.9"/>
<line class="st2" x1="323.7" y1="265.2" x2="397.4" y2="251.7"/>
<path class="st10" d="M781.2,657.3c0,0-13.5-43.8-46.5-25.4c-10.5,5.9-8.9,26.1-1.7,35.9c12.2,16.5,50.2,57.8,54.2,57.6l41.2-60
	c4.3-6.1,4.7-13.4,4.3-21.6C831.9,622.8,791.2,601,781.2,657.3z"/>
<path class="st3" d="M787,812.9c0,0-13.5-43.8-46.5-25.4c-10.5,5.9-8.9,26.1-1.7,35.9c12.2,16.5,50.2,57.8,54.2,57.6l41.2-60
	c4.3-6.1,4.7-13.4,4.3-21.6C837.7,778.4,797,756.5,787,812.9z"/>
<path class="st3" d="M424.4,678.8c0,0-13.5-43.8-46.5-25.4c-10.5,5.9-8.9,26.1-1.7,35.9c12.2,16.5,50.2,57.8,54.2,57.6l41.2-60
	c4.3-6.1,4.7-13.4,4.3-21.6C475.1,644.3,434.4,622.5,424.4,678.8z"/>
<path class="st10" d="M429.9,826.3c0,0-13.5-43.8-46.5-25.4c-10.5,5.9-8.9,26.1-1.7,35.9c12.2,16.5,50.2,57.8,54.2,57.6l41.2-60
	c4.3-6.1,4.7-13.4,4.3-21.6C480.6,791.8,440,769.9,429.9,826.3z"/>
</svg>
