<?xml version="1.0" encoding="utf-8"?>
<!-- Generator: Adobe Illustrator 21.0.2, SVG Export Plug-In . SVG Version: 6.00 Build 0)  -->
<svg version="1.1" id="Layer_1" xmlns="http://www.w3.org/2000/svg" xmlns:xlink="http://www.w3.org/1999/xlink" x="0px" y="0px"
	 viewBox="0 0 264 365.8" style="enable-background:new 0 0 264 365.8;" xml:space="preserve">
<style type="text/css">
	.st0{fill:#FFFFFF;}
	.st1{fill:#FFF09C;stroke:#070707;stroke-miterlimit:10;}
	.st2{fill:#FF93D1;}
	.st3{fill:none;}
	.st4{fill:#FFFFFF;stroke:#070707;stroke-miterlimit:10;}
	.st5{fill:#FFFFFF;stroke:#070707;stroke-width:1.0094;stroke-miterlimit:10;}
</style>
<g>
	<path class="st0" d="M204.9,248.2c0.5,1.5,0.8,3,1.5,4.3c1.9,3.2,6,3.1,7.7-0.3c0.6-1.1,0.9-2.5,0.9-3.8c0.1-4-1.2-7.8-2.8-11.4
		c-0.5-1.1-0.6-2.1,0.5-3c1.1-1,1.1-2.7,0.1-3.8c-1-1-2.6-1.1-3.7-0.3c-1.1,0.9-1.4,2.6-0.5,3.6c1.1,1.3,1,2.5,0.3,3.9
		c-0.8,1.7-1.7,3.4-2.4,5.1C205.9,244.4,205.5,246.2,204.9,248.2z M221.5,223c0.4,1.3,0.7,2.6,1.3,3.8c0.7,1.4,1.9,2.3,3.6,2.1
		c1.8-0.2,3.1-1.2,3.6-2.9c0.3-1.2,0.5-2.5,0.3-3.8c-0.3-3.1-1.4-6-2.7-8.8c-0.5-1-0.6-1.8,0.3-2.7c0.9-0.9,0.8-2.3,0-3.2
		c-0.9-0.9-2.3-1-3.3-0.2c-1,0.9-1.1,2.3-0.3,3.3c0.8,0.9,0.9,1.8,0.4,2.9c-0.6,1.5-1.3,3-1.9,4.5C222.4,219.6,222,221.2,221.5,223z
		 M160.1,215.2c0.4,1.2,0.7,2.6,1.4,3.8c0.7,1.3,1.9,2.2,3.5,2c1.7-0.2,3-1.1,3.4-2.7c0.4-1.4,0.7-3,0.4-4.3
		c-0.6-2.8-1.7-5.6-2.6-8.3c-0.4-1-0.6-1.9,0.3-2.8c0.9-0.9,0.8-2.4-0.1-3.2c-0.9-0.9-2.3-0.9-3.3-0.1c-0.9,0.8-1.1,2.3-0.3,3.2
		c0.9,1,0.9,2,0.4,3.1c-0.6,1.5-1.4,3-1.9,4.5C160.9,211.9,160.6,213.5,160.1,215.2z M158.6,161.5c1.3,0,2.4-0.9,2.5-2.2
		s-1-2.5-2.4-2.5c-1.3,0-2.4,1-2.4,2.3C156.3,160.5,157.3,161.5,158.6,161.5z M183.1,172.6c-1.3,0-2.3,1.1-2.3,2.4
		c0,1.3,1,2.4,2.3,2.4s2.5-1.1,2.4-2.4C185.4,173.6,184.4,172.6,183.1,172.6z M202.1,231.4c-1.3,0-2.4,1-2.4,2.3s1,2.4,2.3,2.4
		s2.5-1.1,2.5-2.4C204.4,232.4,203.4,231.4,202.1,231.4z M195.7,246c0-1.3-1-2.4-2.3-2.4s-2.4,1-2.4,2.3s1.1,2.5,2.4,2.4
		C194.6,248.3,195.7,247.3,195.7,246z M154.3,125.3c0-1.3-1.1-2.3-2.4-2.3c-1.3,0-2.4,1.2-2.4,2.5c0.1,1.3,1.1,2.3,2.5,2.2
		C153.3,127.7,154.4,126.6,154.3,125.3z M166.5,116.7c1.3,0,2.4-1.1,2.4-2.3c0-1.4-1.1-2.4-2.4-2.4c-1.3,0-2.3,1.1-2.3,2.4
		C164.2,115.6,165.2,116.7,166.5,116.7z M151.4,112.1c0-1.3-1-2.4-2.3-2.4s-2.4,1-2.5,2.3s1,2.5,2.3,2.5
		C150.3,114.4,151.4,113.4,151.4,112.1z M151.9,227.3c1.3,0,2.4-1,2.4-2.3s-1.1-2.5-2.4-2.5c-1.3,0-2.3,1.1-2.3,2.4
		C149.5,226.3,150.6,227.3,151.9,227.3z M160.9,236.8c0,1.3,1,2.4,2.3,2.4s2.5-1.1,2.4-2.4c0-1.3-1.1-2.3-2.4-2.3
		C162,234.5,160.9,235.5,160.9,236.8z M170.9,241.2c0-1.3-1.1-2.3-2.4-2.3c-1.3,0-2.4,1.1-2.3,2.5c0.1,1.3,1.1,2.3,2.4,2.3
		C169.9,243.5,170.9,242.5,170.9,241.2z M157.5,149.5c-1.3,0-2.4,1.1-2.4,2.4c0,1.3,1.1,2.4,2.4,2.4c1.3,0,2.4-1.1,2.4-2.5
		C159.8,150.5,158.8,149.5,157.5,149.5z M153.4,145.5c0,1.3,1,2.3,2.4,2.3c1.3,0,2.4-1,2.4-2.3s-1.1-2.5-2.4-2.4
		C154.4,143.1,153.4,144.2,153.4,145.5z M160.1,164.4c-1.3,0-2.4,1.1-2.4,2.4c0,1.3,1.1,2.4,2.3,2.4c1.3,0,2.4-1.1,2.4-2.4
		C162.5,165.4,161.4,164.4,160.1,164.4z M172.2,139.7c1.3,0,2.3-1.1,2.3-2.4c0-1.3-1.1-2.4-2.4-2.4c-1.3,0-2.4,1.1-2.4,2.5
		C169.8,138.6,170.9,139.7,172.2,139.7z M186,184.5c1.3,0,2.4-1,2.4-2.3s-1-2.4-2.3-2.4s-2.5,1.1-2.5,2.4
		C183.6,183.5,184.7,184.5,186,184.5z M148.2,108.1c1.3,0,2.3-1.1,2.3-2.4s-1-2.4-2.3-2.4s-2.4,1.1-2.4,2.4
		C145.8,107.1,146.9,108.1,148.2,108.1z M149.3,217.7c0-1.3-1.1-2.3-2.4-2.4c-1.4,0-2.4,1.1-2.4,2.4c0,1.3,1.1,2.3,2.4,2.3
		S149.3,218.9,149.3,217.7z M157,138.7c0-1.3-1.1-2.3-2.4-2.3c-1.3,0-2.4,1.2-2.4,2.5c0.1,1.3,1.1,2.3,2.5,2.3
		C156,141.1,157,140,157,138.7z M196.5,240.8c0,1.3,1.1,2.3,2.4,2.3c1.3,0,2.4-1.1,2.3-2.5c0-1.3-1.2-2.3-2.4-2.3
		C197.5,238.4,196.4,239.5,196.5,240.8z M168.1,124.6c1.3,0,2.3-1,2.4-2.3c0-1.3-1-2.4-2.3-2.4s-2.5,1.1-2.4,2.4
		C165.8,123.6,166.8,124.6,168.1,124.6z M152.9,118.4c0-1.3-1.1-2.3-2.4-2.3c-1.4,0-2.4,1.1-2.4,2.4s1.1,2.3,2.4,2.3
		C151.9,120.8,152.9,119.7,152.9,118.4z M153.1,134.7c1.3,0,2.4-1,2.4-2.3s-1.1-2.4-2.4-2.4c-1.3,0-2.3,1-2.3,2.4
		C150.8,133.7,151.8,134.7,153.1,134.7z M180.7,165.2c-1.3,0-2.4,1.1-2.4,2.4c0,1.3,1,2.4,2.3,2.4s2.5-1.1,2.4-2.4
		C183.1,166.3,182,165.2,180.7,165.2z M161.9,176.4c1.3,0,2.4-1,2.4-2.3s-1-2.4-2.3-2.4c-1.4,0-2.5,1-2.4,2.4
		C159.5,175.4,160.6,176.4,161.9,176.4z M193.6,196c0-1.3-1.1-2.3-2.4-2.4c-1.3,0-2.4,1-2.4,2.3s1.1,2.5,2.4,2.4
		C192.6,198.4,193.6,197.3,193.6,196z M182.9,247c0,1.3,1,2.3,2.3,2.4c1.3,0,2.4-1,2.4-2.3s-1.1-2.4-2.4-2.4
		C183.9,244.7,182.9,245.7,182.9,247z M164.8,104.1c-1.3,0-2.3,1-2.4,2.3c0,1.4,1.1,2.4,2.4,2.4c1.3,0,2.3-1.1,2.3-2.4
		C167.2,105.2,166.1,104.1,164.8,104.1z M172.4,129.8c0-1.3-1-2.4-2.3-2.4s-2.4,1-2.4,2.3s1.1,2.5,2.4,2.5
		C171.4,132.2,172.4,131.1,172.4,129.8z M157.3,228.6c-1.3,0-2.4,1-2.4,2.3s1,2.4,2.3,2.4c1.4,0,2.4-1,2.4-2.4
		C159.6,229.6,158.6,228.6,157.3,228.6z M178.4,152.4c0-1.3-1-2.4-2.3-2.4s-2.4,1.1-2.4,2.4c0,1.3,1,2.3,2.4,2.3
		C177.4,154.8,178.4,153.8,178.4,152.4z M180.4,159.8c0-1.3-1-2.3-2.3-2.3s-2.3,1-2.4,2.3c0,1.4,1.1,2.4,2.4,2.4
		C179.4,162.1,180.4,161.1,180.4,159.8z M165.7,181.1c0-1.3-1-2.3-2.3-2.3s-2.4,1-2.4,2.3c0,1.4,1,2.4,2.4,2.4
		C164.7,183.4,165.7,182.4,165.7,181.1z M173.8,245.4c0,1.3,1,2.4,2.3,2.4s2.4-1.1,2.4-2.4c0-1.3-1.1-2.3-2.4-2.3
		C174.7,243.1,173.8,244,173.8,245.4z M188.3,186.2c-1.3,0-2.3,1-2.4,2.3c0,1.3,1,2.4,2.3,2.4s2.4-1.1,2.4-2.4
		C190.7,187.2,189.6,186.2,188.3,186.2z M176.3,144.6c0-1.3-1-2.3-2.3-2.4c-1.3,0-2.4,1-2.4,2.3s1.1,2.5,2.4,2.4
		C175.2,147,176.3,145.9,176.3,144.6z"/>
	<path class="st1" d="M135.6,0c2.6,2,2.3,4.9,2.1,7.7c-0.1,1.2-0.7,2.4-0.9,3.6c-0.3,1.6-0.7,3.1,0.5,4.6c1.8,2.2,1.6,6.7-0.5,9.3
		c-0.5,0.6-0.7,1.2-0.6,2c0.2,3.1,0.3,6.2,0.4,9.4c0,0.2,0,0.3-0.1,0.5c-1,2-0.8,4.1-0.8,6.2c0,0.3,0,0.7,0.2,0.8
		c2.6,2.6,2.2,5.6,1.2,8.6c-0.3,1-0.7,1.8-0.5,2.9c0.1,0.4,0.1,0.8,0,1.2c-0.2,1.3,0,2.3,1.1,3.4c1.5,1.6,1.3,3.9,1.1,5.9
		c-0.1,1.4-0.1,1.4,1,2.3c5-2.1,9.1-0.6,10.9,2.3c0.9-0.4,1.8-0.9,2.8-1.3c2.3-0.9,4.5-1,6.7,0.1c2.1,1,2.2,2.5,0.2,3.7
		c-1.3,0.8-2.7,1.4-4.1,2c-1.2,0.6-2.5,1.1-3.7,1.7c-0.7,0.4-1.2,0.9-1.7,1.6c1.2-0.1,2.3-0.2,3.5-0.2c6.4-0.1,11.3,3.1,13.3,8.6
		c1.5,4.1,0.9,7.9-2.1,11c-1.3,1.3-2.8,2.6-4.4,3.5c-4.6,2.5-9.4,0.9-11.6-3.9c-1.7-3.5-1.3-7,0.6-10.3c1-1.8,2.8-2.5,4.8-2.4
		c1.9,0.1,3,1.3,3.7,2.9c-0.1,0.1-0.2,0.1-0.2,0.1c-2.5-0.5-3.7,0.4-4,3c-0.4,4.2,3.5,7.8,7.2,6.6c2.3-0.7,3.4-2.4,3.6-4.7
		c0.5-4.9-3.1-9.4-8.3-10.4c-6.4-1.3-12.9,1.9-15.8,7.8c-0.3,0.6-0.6,1.3-0.9,2c-0.5,1-0.7,1.9,0.1,3c0.5,0.6,0.5,1.8,0.3,2.6
		c-0.3,2-0.8,4.1-1.4,6.1c-1,3.6-0.7,7.1,0.5,10.6c1,3,2.2,6,2.9,9.1c1.1,4.5,0.4,8.8-2.7,12.5c-0.7,0.8-0.7,1.4,0.2,2.1
		c1.2,1,1.2,1.5-0.1,2.4c-0.6,0.5-0.9,0.8-0.6,1.6c0.4,1.2,0.1,2.4-0.9,3.3c-0.5,0.4-1,0.8-1.5,1.4c1.1,1.3,1.9,2.7,1.8,4.5
		c-0.1,1.8-1,3.2-2.2,4.3c3.9,7.2,3.8,14.3,0.3,21.5c3.8,0.9,4.1,1.5,2.2,4.5c1.7,1.4,1.5,3.2,1,5c-0.2,0.8-0.5,1.5-0.9,2.2
		c-1.5,2.8-1.9,5.8-1.1,8.7c1.4,4.9,3,9.8,4.6,14.9c0.9-2.2,1.7-4.2,2.6-6.2c1.7-3.5,3.4-7,5.4-10.3c2.3-3.7,5.4-6.5,9.5-8.2
		c5.9-2.4,12.1-0.8,16.6,4.2c3,3.3,4.6,7.2,5.9,11.4c1.1,3.8,2,7.6,3.5,11.2c1.2,2.9,2.8,5.7,4.5,8.4c1.2,1.9,3.1,3.2,5.4,3.8
		c3.2,0.8,5.9-0.3,7.9-2.8c2.6-3.3,3.1-7.2,3-11.2c0-0.2-0.3-0.6-0.5-0.7c-1.1-0.7-1.7-1.5-1.1-2.6c-1.9-0.7-3.8-1.2-5.6-2
		c-2.6-1.2-4.8-3-6.4-5.5c-0.8-1.3-0.8-1.3,0.5-2.1c2-1.3,4.1-1.6,6.3-1.1c1.9,0.4,3.8,1,5.7,1.5c1.2,0.4,1.5,0.2,1.5-1.1
		c0-4.4,0-8.7,0-13.1c0-0.9,0-1.7,1.2-1.8c-2.7-6.4-0.8-12.2,2.2-17.9c0.2-0.3,0.4-0.6,0.6-0.9c0.8-0.9,1.3-0.8,2.1,0
		c4.7,4.8,4.8,10.3,3,16.3c-0.3,0.8-0.6,1.7-0.9,2.6c1.4,0,1.4,0.9,1.4,1.9c-0.1,3.4-0.1,6.9-0.2,10.3c0,0.4,0,0.9,0,1.2
		c1.8,0.7,3.5,1.3,5.2,1.9c1.5,0.5,3,0.3,4.4-0.3c0.8-0.3,1.6-0.6,2.4-0.7c1.6-0.1,2.2,0.9,1.3,2.2c-0.7,1-1.6,2-2.6,2.8
		c-1.3,1.1-2.7,2.1-4.2,3c-1.5,0.8-3.1,1.4-4.7,2c1.3,1.6,1.1,2.6-0.9,3.5c-0.2,0.1-0.4,0.3-0.7,0.3c-1.8,0.1-2.5,1.4-3.2,2.8
		c-1.6,3.4-3.6,6.6-6.2,9.4c-1.3,1.3-2.7,2.6-4.3,3.6c-3.7,2.4-7.6,2.4-11.4,0c-2.8-1.8-5.1-4.2-6.7-7.1c-2-3.5-3.6-7.2-5.5-10.8
		c-1.5-2.8-2.8-5.7-4.6-8.3c-2.5-3.6-6-5.8-10.5-5.6c-3.2,0.1-6,1.4-8.5,3.3c-5.2,3.8-8.5,9.1-11.3,14.8c-0.9,1.9-1.2,3.8-1.1,5.9
		c0.3,3.9-0.1,7.8-1.5,11.4c-1,2.5-2.4,4.5-5,5.7c0.5,0.4,1.2,0.6,1.4,1.1c0.2,0.4-0.1,1-0.3,1.7c0.3,0.9,0.7,2.1,1.1,3.2
		c9.1-6.1,21.7-2.6,29.5,5c4.4,4.3,7.5,9.3,9.7,15c2.8,7.1,6.9,13.4,12.1,19c0.4,0.5,0.9,0.9,1.4,1.3c2.5,2.6,5.5,3.2,8.9,2.5
		c4.1-0.8,7.4-2.7,9.6-6.3c2.2-3.6,1.5-7.5-1.7-10.2c-0.7-0.6-1.5-1.1-2.3-1.5c-2.1-1.2-4.3-1.3-6.3,0.3c-2.1,1.7-3.1,3.9-2.7,6.6
		c0.5,3.1,5.2,5.5,8.1,2.8c0.7-0.6,1.2-1.3,1.8-2c0.8,4.7-3.2,8.6-7.7,7.4c-4.8-1.2-8.4-6.5-8-11.7c0.4-4.6,4.8-9,9.5-9.1
		c1.7-0.1,3.6,0.3,5.1,1c4.6,2.1,7.6,5.6,9,10.5c0.1,0.2,0.1,0.5,0.2,0.9c2.2-2.9,4.7-5.1,8.4-4.6s6.1,2.6,6.9,6.4
		c0.8-1,1.8-4.1,1.6-5.3c-0.1-0.3-0.4-0.6-0.7-0.8c-1.3-0.9-1.5-1.3-1.2-2.6c-2-0.7-4-1.4-5.9-2.2c-2.5-1.2-4.6-3.1-6.1-5.4
		c-0.6-0.9-0.5-1.3,0.4-1.9c2.5-1.6,5.1-1.6,7.9-1c1.5,0.4,2.9,0.9,4.4,1.3c1.1,0.4,1.5,0.1,1.5-1.1c0-4.4,0-8.8,0-13.2
		c0-0.9,0.1-1.6,1.2-1.7c-1.1-2.9-1.6-5.9-1.1-8.9c0.6-3.3,1.8-6.4,3.5-9.2c0.8-1.4,1.6-1.5,2.8-0.2c4.6,5,4.3,10.7,2.4,16.6
		c-0.2,0.6-0.4,1.2-0.7,1.9c1.3,0,1.4,0.8,1.4,1.8c-0.1,3.6-0.1,7.3-0.1,10.9c0,0.3,0,0.6,0,0.7c1.7,0.6,3.2,1.2,4.8,1.8
		c1.7,0.6,3.4,0.5,5-0.3c1.3-0.6,2.6-0.9,3.9,0c0,0.4,0,0.8,0,1.2c-3,4.2-7.1,6.7-11.9,8.2c1.3,1.9,1.1,3-1.1,3.7
		c-1.7,0.5-2.5,1.6-3.4,3c-3.4,5.8-8,10.6-13.6,14.3c-12.4,8.3-26,7.7-37.8-1.4c-5.9-4.5-9.8-10.4-12.9-17
		c-2.9-6.2-6.2-12.2-10.7-17.4c-2.7-3.1-5.6-5.8-9.3-7.6c-3.8-1.8-7.6-2-11.3,0.4c-0.6,0.4-1.2,0.9-2,1.6c1.6,0,2.9,0,4.2,0
		c0.7,0,1.4-0.1,2.1,0c1.3,0.2,1.7,0.9,1.2,2c-0.2,0.7-0.6,1.3-1,1.9c-2.4,3.3-5.6,5.6-9.5,6.8c-0.7,0.2-1,0.5-0.9,1.2
		c0.5,4.5,1.7,8.8,4.4,12.5c1,1.4,2.4,2.8,3.8,3.7c2.6,1.7,5.9,1.2,8-1c2.1-2.1,2.7-5.7,1.4-8.2c-1.5-2.8-6.2-3.6-8.5-1.5
		c-1.1,1-1.5,2.6-0.9,4c0.5,1.2,1.8,2.1,3.2,2s2.4-0.9,2.5-2.4c0-0.2,0-0.5,0.1-0.7c0.2-0.3,0.3-0.8,0.6-0.9
		c0.2-0.1,0.7,0.2,0.9,0.4c0.7,0.8,1,1.8,0.7,2.9c-0.4,1.2-1.2,2.1-2.4,2.5c-4,1.6-8.8-1.7-8.8-6c0-2.1,1-3.6,2.6-4.7
		c3.3-2.2,8.1-2,11.1,0.6c2.9,2.5,3.6,6.6,1.8,10.4c-2.2,4.7-6.8,6.6-11.7,5c-2.6-0.9-4.8-2.5-6.6-4.6c-0.3-0.3-0.5-0.6-0.8-0.9
		c-0.5,0.5-1.1,1-1.7,1.6c4,1,6.7,3.6,9.3,6.5c1.7,1.9,3.7,3.1,6,4.1c1.1,0.5,2.2,1.1,3.1,1.7c1.8,1.3,1.6,2.7-0.3,3.7
		c-1.8,0.9-3.5,0.9-5.3,0.2c-0.9-0.4-1.7-0.9-2.6-1.3c-1,1.5-2.3,2.5-4.1,2.9s-3.5,0-4.8-0.6c-1.9,0.9-3.5,1.7-5.2,2.5
		c0.5,1,0.7,2.1-0.7,3c-0.1,0.1,0,0.9,0.2,1.1c1.1,1.1,1.2,2.2-0.1,3.2c-0.6,0.5-0.5,0.9,0.1,1.4c1.2,1,1.1,2.1,0,3.2
		c-0.3,0.3-0.4,0.7-0.6,1.1c1.6,0.5,3.4,0.4,3.6,2.2c0.1,0.6-0.9,1.5-1.5,2.2c1.7,1.1,3,2.7,2.8,5.2c-0.1,2.4-1.5,3.9-3.7,5
		c1.1,1.7,1,3.2-0.6,4.7c-0.4,0.4-0.3,1.7,0,2.4c1.5,3.3,2.9,6.6,3.4,10.2c0.2,1.7,0.2,3.6-0.1,5.3c-0.4,2.3-2.3,3.8-4.3,4.1
		c-2,0.2-3.7-0.8-4.9-2.9c-1.3-2.4-1.4-5-0.6-7.6c0.9-2.9,2.1-5.7,3.3-8.5c0.5-1.4,0.6-2.6-0.6-3.7c-1-1-0.9-2.3,0.1-4
		c-2.1-1.1-3.5-2.6-3.6-5.1s1.2-4.1,3.1-5.1c-0.4-0.8-1.3-1.7-1.1-2.3c0.4-1.7,2.1-1.7,3.8-2.1c-0.2-0.4-0.4-0.9-0.7-1.2
		c-1-1-1.1-2.1,0-3.1c0.6-0.6,0.7-1,0-1.6c-1.1-0.9-1-2.1,0.1-3.1c0.6-0.5,0.6-0.8,0.1-1.3c-1.2-1.2-1.2-1.8-0.3-3.2
		c-1.2-0.7-2.4-1.5-3.4-2c-1.8,0.1-3.6,0.5-5.3,0.4c-1.8-0.1-3.3-1.2-4.2-2.9c-0.9,0.4-1.6,0.9-2.5,1.2c-2,0.9-4,0.9-6-0.4
		c-1.3-0.8-1.3-1.4-0.4-2.6s1.8-2,3.3-2.4c2.3-0.6,4.3-1.9,6-3.8c2.5-2.8,5.2-5.4,9-6.6c-0.6-0.6-1.2-1.1-1.6-1.5
		c-0.7,0.6-1.4,1.2-2.1,1.9c-2.8,2.4-5.8,4.1-9.6,3.8c-3.8-0.3-7.1-3.4-8.1-7.6c-0.9-3.7,0.5-7.3,3.8-9.2c3.4-1.9,6.8-1.8,10,0.4
		c3.3,2.2,3.4,6.9,0.3,9.3c-1.7,1.3-3.6,1.7-5.7,1.5c-2.7-0.4-4.3-3.3-2.9-5.3c0.3-0.4,0.8-0.5,1.2-0.8c0.2,0.4,0.6,0.8,0.6,1.2
		c-0.1,1.9,1.4,3,3.1,2.8c1.9-0.2,3.2-1.8,3-3.7c-0.3-2.2-2.5-3.8-5.1-3.4c-2,0.2-3.9,0.9-4.7,3c-1,2.5-0.7,4.9,0.8,7.1
		c2,2.8,5.9,3.6,8.9,1.7c2.8-1.7,4.6-4.3,5.6-7.4c0.7-2.2,1.4-4.4,2.1-6.6c0.3-1,0.3-2,0.4-3.1c-3.5-1.1-6.5-3-8.9-5.7
		c-0.8-0.9-1.6-2-2.2-3.1c-0.7-1.3-0.1-2.2,1.4-2.2c1.7,0,3.4,0.1,5,0.1c0.2,0,0.4,0,0.6-0.1c-1.8-2.4-5.9-3.7-9.2-3
		c-2.5,0.5-4.8,1.6-6.8,3.1c-5.4,4-9.3,9.2-12.6,14.9c0,0.1,0,0.2,0,0.3c0.3,0,0.6,0,0.9,0c1,0,1.8,0.5,2.2,1.4
		c0.4,0.9,0.3,1.9-0.5,2.5c-0.9,0.8-0.8,1.7-0.4,2.6c1.3,2.9,2.5,5.9,2.6,9.2c0.1,1.2-0.1,2.5-0.5,3.6c-0.5,1.6-1.8,2.5-3.5,2.7
		c-1.7,0.1-2.8-0.8-3.6-2.2c-1.2-2.1-1.2-4.3-0.5-6.5c0.5-1.6,1.2-3.2,1.9-4.8c1-2,1.8-3.9-0.4-5.8c-0.8,1.6-1.6,3.2-2.4,4.9
		c-2.2,4.6-4.6,9.2-8.2,12.9c-5.5,5.7-11.9,9.9-19.9,11.2c-7.3,1.2-14.1-0.4-20.4-4.1c-7.8-4.5-13.6-10.9-17.6-19
		c-0.2-0.4-0.8-0.8-1.3-1c-0.7-0.3-1.4-0.5-2.1-0.9c-1.2-0.7-1.4-1.3-1-2.8c-0.6-0.2-1.2-0.3-1.8-0.5c-4.2-1.1-7.8-3.3-10.2-7
		c-0.6-0.9-0.4-1.4,0.5-2c2.3-1.5,4.8-1.6,7.4-1c1.6,0.4,3.2,0.9,4.7,1.4c1.2,0.4,1.5,0.2,1.5-1c0-4.4,0-8.8,0-13.2
		c0-0.9,0.1-1.6,1.3-1.7c-1.2-3-1.6-6-1.1-9.1c0.6-3.1,1.8-6,3.3-8.8c0.2-0.3,0.4-0.6,0.6-0.9c0.7-0.7,1.2-0.7,2,0
		c4.4,4.5,4.9,9.7,3.3,15.5c-0.3,1.1-0.7,2.3-1.1,3.5c1.3-0.1,1.3,0.7,1.3,1.6c0,3.6,0,7.3-0.1,10.9c0,0.8,0.2,1.1,1,1.3
		c1,0.2,2,0.5,2.9,1c1.9,0.9,3.7,0.9,5.7,0.1c0.8-0.3,1.8-0.6,2.6-0.6c1.3,0,1.8,0.9,1.1,2c-0.6,1-1.4,1.9-2.3,2.7
		c-2.7,2.3-5.7,4.3-9.6,5.1c1.5,1,1.3,1.9,0.6,3.2c-0.5,0.8-0.3,1.9-0.3,2.9c2.2-2.2,4.8-3.3,7.8-2.7c3,0.6,4.9,2.7,6.4,5.4
		c0.2-0.4,0.3-0.6,0.4-0.9c2.1-4.9,5.7-8.3,10.9-9.7c4-1.1,7.3,0.1,10,3.2c2.7,3,3.5,6.5,2,10.4c-1.5,3.8-4.3,6.4-8.4,7.2
		c-4.7,0.9-8.5-3.5-7.1-8.2c0.5,0.7,0.8,1.4,1.3,2c1.4,1.7,3.2,2.2,5.3,1.6c2.1-0.7,3.4-2.2,3.6-4.3c0.3-3.7-2.3-7.1-5.6-7.3
		c-5.7-0.4-10.4,5.8-8.4,11.1c1.9,5.1,7.7,8.7,13.5,8.6c3.9-0.1,6.8-2,9.3-4.6c5.3-5.4,9.5-11.7,12.3-18.7c2.6-6.6,6-12.5,11.5-17.1
		c5.1-4.3,10.9-6.8,17.8-6.8c3.6,0,7,0.9,10,2.9c0.2,0.1,0.3,0.2,0.5,0.3c0.4-1.2,0.8-2.3,1.2-3.5c-1.1-1.3-1.1-1.3,0.3-2.4
		c-4.6-2.8-6.1-7.3-6.6-12.3c-0.3-2.4,0.1-4.9,0.1-7.4c0-0.4,0.1-0.8-0.1-1.2c-2.4-6.1-5.6-11.7-10.5-16.1c-2.7-2.4-5.8-4.3-9.5-4.7
		c-4.1-0.5-7.4,1-10.1,3.9c-2.3,2.5-3.8,5.4-5.2,8.4c-1.5,3.2-3,6.5-4.6,9.6c-1.6,3.2-3.7,6.1-6.5,8.4c-4.8,4-9.8,4.1-14.7,0.2
		c-3.9-3.1-6.5-7.3-8.8-11.7c-1-1.9-1.7-3.9-2.6-5.8c-0.1-0.2-0.4-0.5-0.6-0.6c-1.1-0.7-1.9-1.4-1.2-2.7c-1.8-0.6-3.6-1.1-5.2-1.8
		c-2.7-1.2-4.9-3-6.6-5.4c-1-1.5-0.9-1.5,0.5-2.4c2.3-1.4,4.7-1.4,7.2-0.8c1.6,0.4,3.1,0.9,4.6,1.3c1.2,0.4,1.5,0.2,1.5-1.1
		c0-4.4,0.1-8.9,0-13.3c0-0.9,0.2-1.4,1.1-1.5c-0.3-1.5-0.8-3-1-4.5c-0.7-5.2,1.2-9.7,3.8-14c0.8-1.4,1.4-1.2,2.5-0.1
		c4.8,5,4.5,10.8,2.6,16.8c-0.2,0.6-0.4,1.2-0.7,1.9c1.4,0,1.4,0.8,1.4,1.8c-0.1,3.5-0.1,7-0.2,10.6c0,0.9,0.1,1.4,1.2,1.5
		c0.9,0.1,1.9,0.5,2.7,0.9c2,0.9,3.9,1,5.9,0.1c0.8-0.3,1.8-0.6,2.6-0.6c1.2,0,1.7,0.9,1,1.9s-1.5,2-2.4,2.8c-2.7,2.3-5.7,4.3-9.3,5
		c1.3,2,1.1,2.8-1,3.8c-0.4,0.2-0.9,0.7-0.9,1.1c-0.3,3.3-0.3,6.6,0.9,9.8c0.4,1,0.8,1.9,1.4,2.8c2.8,4.3,7.9,5.3,11.8,1.9
		c1.8-1.5,3.2-3.6,4.4-5.6c2.3-3.8,3.3-8.1,4.6-12.3c0.9-3.1,1.8-6.3,3.2-9.3c1-2.2,2.4-4.3,4.1-6.2c5.2-5.8,13-6.6,19.4-2.3
		c4.3,2.9,7.2,7,9.3,11.7c1.6,3.5,3.1,7,4.7,10.5c0.2,0.3,0.3,0.7,0.6,1.3c0.8-2.3,1.7-4.3,2.3-6.3c0.9-3.3,1.8-6.5,2.6-9.8
		c0.5-2.2,0-4.3-1-6.3c-0.3-0.7-0.7-1.4-1-2.2c-1.3-2.9-1.2-3.8,0.7-6.3c-1.8-3.2-1.7-3.3,2.1-4.5c-3.6-7.1-3.6-14.1,0.2-21.4
		c-1.2-1-2.2-2.4-2.3-4.2c-0.1-1.8,0.5-3.3,1.7-4.6c-0.5-0.7-1.1-1.3-1.6-2c-0.8-1-1-2.2-0.6-3.4c0.1-0.3,0-0.8-0.2-1
		c-1.3-1.4-1.3-1.4,0-2.8c0-0.1,0-0.2,0-0.2c-3.9-4.7-4.5-9.9-2.7-15.6c0.9-2.7,1.8-5.5,3.1-8c1.6-3.1,1.8-6.2,1.2-9.4
		c-0.4-2.3-0.9-4.6-1.4-6.8c-0.5-1.7-0.2-3.1,1.3-4.3c0.3-0.2,0.4-0.8,0.3-1.2c-2.3-6.7-8.6-10.7-15.6-9.9
		c-5.7,0.6-9.8,5.2-9.4,10.4c0.2,2.6,1.7,4.5,4.2,5c2,0.4,4.2-0.5,5.6-2.5c1.3-2,1.5-4.7,0.4-6.4c-0.9-1.3-2.1-1.2-3.4-0.8
		c0.2-2.2,3-4.1,6.1-2.7c0.8,0.4,1.6,1,2.1,1.7c2.9,3.9,2.2,10.3-1.5,13.5c-2.3,2.1-5,2.7-7.9,1.6c-7.2-2.8-12-10.3-6.3-18.4
		c2.3-3.4,5.8-4.9,9.8-5.3c1.2-0.1,2.4,0,3.7,0c0.1-0.1,0.1-0.3,0.2-0.4c-1.4-0.7-2.7-1.6-4.1-2.2c-2-0.9-4.1-1.6-5.8-3
		c-1.3-1.1-1.4-2.1,0.1-3c2.1-1.3,4.5-1.5,6.8-0.6c1.1,0.4,2.1,0.9,3.2,1.4c3.1-3.5,6.4-4.2,10.9-2.3c1-0.4,1.2-1.2,1-2.3
		c-0.4-2.6-0.1-5,1.9-7c0.2-0.2,0.2-0.6,0.3-0.9c0.1-1.8,0.2-3.6-0.4-5.5c-0.9-2.7,0-5.4,1.7-7.8c0.2-0.3,0.4-0.7,0.4-1.1
		c0-1.5,0.1-2.8-0.8-4.3c-1.2-2.1-0.8-4.7-0.3-7c0.4-1.7,0.8-3.4,1.2-5.1c0.1-0.3,0-0.7-0.2-0.9c-1.5-1.6-1.8-3.5-1.5-5.5
		c0.3-1.9,0.7-3.8,2.1-5.2c0.6-0.6,0.4-2.9,0-3.6c-1-1.7-1.1-3.6-0.9-5.5c0.1-1.3,0.5-2.7,0.9-4c0.3-1.2,0.9-2.1,1.9-2.7
		C134.5,0,135.1,0,135.6,0z M207.7,289.6c0.3,0.1,0.4,0.2,0.4,0.2c7.3-0.1,13.7-2.5,19.2-7.3c0.2-0.2,0.5-0.6,0.5-0.9
		c0.5-2.3-0.6-4.9-2.5-5.9c-2.3-1.3-4.8-1.1-6.8,0.7c-1.5,1.3-2.4,2.9-3,4.8c-1,3.7-3.4,6.4-6.9,8
		C208.5,289.2,208.1,289.4,207.7,289.6z M54.2,289.5c-0.2-0.3-0.2-0.3-0.2-0.4c-3.7-2.1-5.8-5.3-6.4-9.5c-0.3-2-1.3-3.7-2.8-5.1
		c-2.9-2.6-7.3-1.6-8.8,1.9c-0.4,1-0.4,1.8,0.3,2.7C40.8,285.1,47,288.1,54.2,289.5z M132.6,18.8c-0.9,1.3-1.4,2.9-1,4.4
		c0.2,0.6,0.7,1.5,1.1,1.6c0.9,0.1,2-0.1,2.6-0.6c1.2-1,1.3-4.2,0.5-5.6C133.7,20,133.7,20,132.6,18.8z M132.1,48.1
		c-0.1-0.1-0.1-0.2-0.2-0.3c-0.9,1.3-1.2,2.7-1,4.1c0.7-0.5,1.4-1.2,2.1-1.3c0.7-0.2,1.5,0.2,2.4,0.4c0.4-1.4,0.3-2.7-0.5-3.6
		C133.8,47.6,133,47.9,132.1,48.1z M135.4,8.9c0.9-2.7,0.7-5.3-0.4-6c-1.6,1.7-2.2,4.4-1.5,6C134.2,8.9,134.8,8.9,135.4,8.9z
		 M134.5,37.1c0.2-1.4,0.3-2.9,0.5-4.3c-0.8,0-1.5-0.1-2.4-0.1c-0.1,1.6-0.2,3.2-0.3,4.9C133.1,37.3,133.7,37.2,134.5,37.1z
		 M134.6,63.2c-1.2,0.5-3,0.1-2.4,2c0.5,1.4,1.8,0.2,2.9,0.8C134.8,64.9,134.7,64.1,134.6,63.2z M134.7,56c-0.9,0.2-1.6,0.3-2.5,0.5
		c-0.1,0.5-0.1,1.1-0.2,1.6c0.9,0,1.6,0,2.4,0C134.5,57.4,134.6,56.8,134.7,56z M133.1,43.3c0.2,0.1,0.2,0.2,0.2,0.2
		c1.6-0.3,0.3-1.4,0.6-2c0-0.1-0.2-0.3-0.3-0.4c-0.2,0.1-0.4,0.3-0.5,0.4C133.1,42.1,133.1,42.7,133.1,43.3z M135.2,14.4
		c0-0.5-0.1-1-0.1-1.5c-0.5,0-0.9,0.1-1.4,0.1c0,0.6,0,1,0,1.6C134.2,14.6,134.7,14.5,135.2,14.4z"/>
	<path class="st1" d="M194.9,360c-3.6-1.8-5.4-5.2-4.6-9.3c0.4-2.5,1.4-4.9,2.2-7.3c0.4-1.3,1-2.6,1.7-3.8c0.6-1.1,0.2-2.1,0.3-3.2
		c0-0.2-0.2-0.4-0.4-0.5c-1-0.9-1.4-2-1.1-3.3c0.4-1.3,1.3-2.1,2.6-2.3c0.2,0,0.3-0.1,0.2-0.1c0-1-0.1-2,0.1-2.9
		c0.1-0.5,0.8-0.9,1.3-1.2c1.1-0.5,2.5,0.1,3,1.3c0.6,1.4-0.1,2.6-2,3.4c0.2,0.3,0.4,0.5,0.6,0.8c0.8,1.2,0.6,2.8-0.3,3.9
		c-0.3,0.3-0.9,0.7-0.9,1c0,0.8,0,1.7,0.4,2.5c1.9,4.1,3.5,8.2,3.8,12.7c0.1,1,0,1.9-0.1,2.9c-0.4,2.7-1.9,4.6-4.5,5.5
		C196.4,360,195.6,360,194.9,360z"/>
	<path class="st1" d="M7.2,286.3c1.4-3.9,2.9-7.8,4.2-11.7c0.4-1.1,0.4-2.3-0.6-3.3c-1.3-1.2-1.2-3.3,0.1-4.5s3.3-1.2,4.5,0.1
		c1.2,1.3,1.2,3.3-0.1,4.5c-1,0.9-1,1.9-0.5,3c1.8,3.7,3.3,7.4,3.8,11.4c0.2,1.7,0.1,3.6-0.1,5.3c-0.2,1.5-1,2.7-2.2,3.6
		c-2.3,1.7-5,1.5-6.7-0.7c-1-1.3-1.5-2.9-2.2-4.4C7.2,288.6,7.2,287.4,7.2,286.3z"/>
	<path class="st1" d="M69.6,359.6c-2.2-0.1-3.4-0.9-4.4-2.1c-2.1-2.8-2.4-5.9-1.4-9.1c0.8-2.8,2-5.5,3.1-8.2
		c0.6-1.4,1.1-2.7,0.8-4.2c-0.1-0.3-0.3-0.5-0.5-0.7c-1.4-1.4-1.5-3.4-0.2-4.7c1.3-1.3,3.4-1.2,4.6,0.1c1.3,1.4,1,3.4-0.4,4.7
		c-0.8,0.8-0.7,1.8-0.3,2.7c1.8,3.8,3.4,7.7,3.9,11.9c0.2,1.8,0,3.7-0.4,5.4C73.8,358,71.4,359.6,69.6,359.6z"/>
	<path class="st1" d="M241.9,292.6c0.6-2.2,1.1-4.5,1.9-6.6c0.8-2.2,1.9-4.3,2.7-6.5c0.4-1.1,0.4-2.4-0.6-3.4
		c-1.3-1.2-1.2-3.3,0.1-4.5c1.2-1.2,3.2-1.1,4.4,0.1s1.2,3.3,0,4.5c-0.9,0.9-1.1,2-0.5,3.1c1.9,4,3.6,8.1,3.9,12.5
		c0.1,1.7-0.1,3.4-0.6,5.1c-0.6,2.2-2.3,3.4-4.6,3.7c-2.2,0.3-3.7-0.9-4.9-2.6c-1.1-1.6-1.5-3.3-1.5-5.2
		C242.1,292.6,242,292.6,241.9,292.6z"/>
	<path class="st1" d="M45.1,241.4c0.6-1.8,1-3.7,1.7-5.6c0.6-1.7,1.5-3.3,2.3-4.9c0.7-1.4,0.9-2.7-0.3-4.1c-0.9-1.1-0.6-2.7,0.6-3.6
		c1.2-0.9,2.8-0.7,3.8,0.4c0.9,1.1,0.9,2.7-0.2,3.7c-1.1,0.9-0.9,1.8-0.5,2.9c1,3.1,2,6.2,2.7,9.4c0.3,1.6,0,3.3-0.4,5
		c-0.5,2-2.3,3.4-4.3,3.5c-2.1,0.1-3.4-1.1-4.2-2.8C45.7,244.1,45.5,242.8,45.1,241.4z"/>
	<path class="st1" d="M164.2,279.3c0.6-2.1,1-3.9,1.6-5.7c0.4-1.3,0.9-2.5,1.4-3.7c0.3-0.9,0.2-1.8-0.5-2.6c-1-1-1-2.4-0.1-3.3
		s2.4-1,3.3-0.1c1,0.9,1.1,2.3,0.1,3.3c-0.8,0.8-0.6,1.6-0.2,2.5c1.4,2.7,2.7,5.5,3.1,8.5c0.2,1.3,0.1,2.7-0.1,4
		c-0.4,1.7-1.6,2.8-3.4,3.1c-1.7,0.3-2.9-0.6-3.7-2C165,282,164.7,280.6,164.2,279.3z"/>
	<path class="st1" d="M213.4,309.8c0.5-1.7,1-3.5,1.7-5.3c0.5-1.4,1.3-2.7,1.9-4.1c0.5-1.1,0.6-2.1-0.3-3c-0.8-0.9-0.6-2.4,0.4-3.2
		c1-0.8,2.4-0.7,3.3,0.2c0.9,0.9,0.9,2.4,0,3.2c-1,0.8-0.8,1.7-0.5,2.7c0.9,2.8,1.8,5.6,2.3,8.5c0.3,1.3,0,2.7-0.4,4
		c-0.5,1.7-1.8,2.7-3.6,2.9c-1.8,0.1-3-0.9-3.7-2.4C213.9,312.2,213.7,311.1,213.4,309.8z"/>
	<path class="st1" d="M91.9,215.9c0.7-2.1,1.3-4.2,2-6.1c0.4-1.2,1-2.3,1.5-3.4c0.4-1,0.3-1.9-0.4-2.7c-0.9-1-0.8-2.5,0.2-3.3
		c0.9-0.8,2.4-0.8,3.3,0.1c0.9,0.9,1,2.4,0,3.3c-0.8,0.8-0.8,1.6-0.3,2.5c1.5,3.2,2.8,6.6,2.7,10.2c0,1-0.3,2.2-0.7,3.1
		c-1.4,2.8-4.9,3-6.6,0.4C92.8,218.8,92.5,217.3,91.9,215.9z"/>
	<path class="st1" d="M229.3,329.5c0.6-1.7,1.1-3.5,1.7-5.3c0.5-1.4,1.3-2.7,1.9-4.1c0.4-1,0.5-2-0.3-2.9c-0.8-1-0.7-2.4,0.3-3.2
		c0.9-0.8,2.4-0.8,3.3,0.1c0.9,0.9,1,2.4,0,3.3c-0.9,0.8-0.8,1.6-0.5,2.5c0.8,2.5,1.8,5.1,2.3,7.7c0.3,1.5,0.1,3.2-0.2,4.7
		c-0.4,1.8-1.8,2.9-3.7,3.1c-1.8,0.2-3-1-3.7-2.5C229.9,331.9,229.7,330.8,229.3,329.5z"/>
	<path class="st1" d="M42.8,221.6c-0.1,0.5-0.2,1.6-0.6,2.6c-0.6,1.4-1.7,2.3-3.3,2.4c-1.6,0.2-2.7-0.6-3.5-1.9
		c-1.3-1.9-1.5-4.1-0.9-6.2c0.7-2.3,1.7-4.6,2.6-6.8c0.5-1.2,0.7-2.3-0.4-3.4c-0.8-0.9-0.6-2.4,0.4-3.2c0.9-0.8,2.3-0.7,3.2,0.1
		c0.9,0.9,1,2.4,0.1,3.2c-0.9,0.9-0.8,1.7-0.3,2.8C41.5,214.3,42.7,217.5,42.8,221.6z"/>
	<path class="st1" d="M19.5,323.2c0.7-2.1,1.3-4,2-5.9c0.5-1.3,1.2-2.4,1.7-3.7c0.4-1,0.5-2-0.3-2.9c-0.8-1-0.7-2.4,0.3-3.2
		c0.9-0.8,2.4-0.8,3.3,0.1s1,2.4,0,3.2c-1,0.9-0.9,1.8-0.4,2.9c1.4,3.2,2.6,6.5,2.3,10.1c-0.1,1.2-0.5,2.6-1.1,3.6
		c-1.5,2.3-4.6,2.3-6.1,0C20.4,326.2,20,324.7,19.5,323.2z"/>
	<path class="st1" d="M39.6,310.3c0.7-2.1,1.3-4,2-5.9c0.5-1.3,1.2-2.4,1.7-3.7c0.4-1,0.5-2-0.3-2.9c-0.8-1-0.7-2.4,0.3-3.2
		c0.9-0.8,2.4-0.8,3.3,0.1c0.9,0.9,1,2.4,0,3.2c-1,0.9-0.9,1.8-0.4,2.9c1.4,3.2,2.6,6.5,2.3,10.1c-0.1,1.2-0.5,2.6-1.1,3.6
		c-1.5,2.3-4.6,2.3-6.1,0C40.5,313.2,40.2,311.8,39.6,310.3z"/>
	<path class="st2" d="M69.2,327.1c0,1.3-1,2.4-2.3,2.4s-2.5-1.1-2.4-2.4c0-1.3,1.1-2.3,2.4-2.3C68.1,324.7,69.2,325.8,69.2,327.1z"
		/>
	<path class="st2" d="M77.9,196c0,1.3-1,2.4-2.3,2.4s-2.4-1-2.4-2.4c0-1.3,1-2.3,2.4-2.3C76.9,193.7,77.9,194.7,77.9,196z"/>
	<path class="st2" d="M86.4,159.8c0-1.3,1.1-2.3,2.4-2.3s2.4,1.1,2.4,2.4c0,1.3-1.1,2.4-2.5,2.4C87.4,162.2,86.4,161.1,86.4,159.8z"
		/>
	<path class="st2" d="M159.5,284.8c-1.3,0-2.4-1.1-2.4-2.4s1-2.4,2.3-2.4c1.4,0,2.4,1,2.4,2.4S160.7,284.8,159.5,284.8z"/>
	<path class="st2" d="M80.4,303.2c0,1.3-1.1,2.3-2.4,2.4c-1.4,0-2.4-1.1-2.4-2.4s1.1-2.4,2.4-2.3C79.3,300.8,80.4,301.9,80.4,303.2z
		"/>
	<path class="st2" d="M89.3,295.5c1.3,0,2.4,1,2.4,2.3s-1,2.4-2.3,2.4c-1.3,0.1-2.5-1-2.5-2.4C87,296.5,88,295.5,89.3,295.5z"/>
	<path class="st2" d="M76.2,250.6c-1.3,0-2.4-1-2.4-2.3c-0.1-1.3,1.1-2.5,2.4-2.5s2.3,1.1,2.4,2.4C78.5,249.5,77.5,250.5,76.2,250.6
		z"/>
	<path class="st2" d="M95.3,242.4c0,1.3-1.1,2.4-2.3,2.4c-1.3,0-2.4-1.1-2.4-2.4c0-1.3,1.1-2.3,2.4-2.3
		C94.2,240,95.3,241.1,95.3,242.4z"/>
	<path class="st2" d="M101.9,108.9c-1.3,0-2.3-1.1-2.3-2.4s1-2.4,2.3-2.4s2.5,1.1,2.4,2.4C104.3,107.9,103.2,109,101.9,108.9z"/>
	<path class="st2" d="M158.4,317.2c-1.3,0-2.3-1.1-2.3-2.4c0-1.4,1.1-2.4,2.5-2.4c1.3,0,2.3,1.2,2.3,2.4
		C160.8,316.1,159.6,317.2,158.4,317.2z"/>
	<path class="st2" d="M120.1,113.6c0,1.3-1.1,2.3-2.4,2.3s-2.3-1.1-2.3-2.4c0-1.4,1.1-2.4,2.5-2.4
		C119.1,111.2,120.1,112.2,120.1,113.6z"/>
	<path class="st2" d="M95.3,144.6c0,1.3-1,2.4-2.3,2.4c-1.3,0.1-2.4-1-2.5-2.3c-0.1-1.4,1-2.5,2.3-2.5
		C94.2,142.3,95.2,143.3,95.3,144.6z"/>
	<path class="st2" d="M222.8,317.2c0-1.3,1.1-2.3,2.4-2.4c1.4,0,2.4,1.1,2.4,2.4s-1.1,2.3-2.4,2.3
		C223.8,319.6,222.8,318.5,222.8,317.2z"/>
	<path class="st2" d="M34.3,304.6c0,1.3-1.1,2.3-2.4,2.3c-1.3,0-2.4-1.1-2.4-2.4s1.2-2.4,2.5-2.4C33.3,302.3,34.4,303.4,34.3,304.6z
		"/>
	<path class="st2" d="M232.8,303.3c1.3,0,2.4,1,2.4,2.3s-1.1,2.5-2.4,2.4c-1.3,0-2.3-1.1-2.3-2.4
		C230.4,304.4,231.5,303.4,232.8,303.3z"/>
	<path class="st2" d="M106.3,311.3c1.3,0,2.4,1,2.4,2.3s-1.1,2.5-2.4,2.4c-1.3,0-2.3-1.1-2.3-2.4C104,312.4,105,311.3,106.3,311.3z"
		/>
	<path class="st2" d="M185.6,326.4c0,1.3-1.1,2.3-2.4,2.4c-1.3,0-2.4-1.1-2.4-2.5c0-1.3,1.2-2.3,2.4-2.3
		C184.6,324.1,185.6,325.1,185.6,326.4z"/>
	<path class="st2" d="M111.9,226.2c0,1.3-1.1,2.3-2.4,2.3s-2.3-1.1-2.3-2.4c0-1.3,1.2-2.4,2.5-2.4
		C110.9,223.8,111.9,224.9,111.9,226.2z"/>
	<path class="st2" d="M106.6,232.2c0,1.3-1.1,2.3-2.4,2.3c-1.4,0-2.4-1.1-2.3-2.5c0.1-1.3,1.2-2.3,2.5-2.3
		C105.5,229.8,106.6,231,106.6,232.2z"/>
	<path class="st2" d="M61.7,234.9c0,1.3-1.1,2.4-2.4,2.4c-1.3,0-2.4-1.1-2.4-2.3c0-1.3,1.1-2.4,2.4-2.4
		C60.7,232.6,61.7,233.6,61.7,234.9z"/>
	<path class="st2" d="M85.7,323c0-1.3,1-2.4,2.3-2.4s2.4,1,2.4,2.3s-1.1,2.4-2.4,2.4C86.7,325.4,85.7,324.4,85.7,323z"/>
	<path class="st2" d="M176.7,326.6c-1.3,0-2.3-1.1-2.4-2.4c0-1.3,1.1-2.4,2.5-2.4c1.3,0,2.3,1.1,2.3,2.4
		C179,325.5,177.9,326.6,176.7,326.6z"/>
	<path class="st2" d="M58.5,328.3c-1.3,0-2.3-1.1-2.3-2.4s1.1-2.4,2.4-2.4c1.3,0,2.4,1.2,2.4,2.5C60.9,327.3,59.8,328.3,58.5,328.3z
		"/>
	<path class="st2" d="M93.1,152.5c0,1.3-1.1,2.3-2.4,2.3c-1.4,0-2.4-1.1-2.4-2.5c0.1-1.3,1.2-2.3,2.4-2.3
		C92.1,150.1,93.2,151.3,93.1,152.5z"/>
	<path class="st2" d="M56,298.5c0,1.3-1,2.4-2.3,2.4s-2.5-1.1-2.5-2.4s1.1-2.4,2.4-2.4C54.8,296.2,55.9,297.2,56,298.5z"/>
	<path class="st2" d="M106.9,153.3c0.1-1.3,1.2-2.3,2.4-2.3c1.3,0,2.4,1.2,2.3,2.5s-1.2,2.3-2.5,2.2
		C107.9,155.7,106.8,154.5,106.9,153.3z"/>
	<path class="st2" d="M145,300.4c-1.3,0-2.4-1.1-2.4-2.4s1.1-2.4,2.4-2.4c1.3,0,2.3,1.1,2.3,2.4S146.2,300.4,145,300.4z"/>
	<path class="st2" d="M119.8,299.3c-1.3,0-2.4-1-2.4-2.3s1-2.5,2.4-2.5c1.3,0,2.4,1.1,2.4,2.4C122.2,298.2,121.1,299.3,119.8,299.3z
		"/>
	<path class="st2" d="M32.4,296.8c0,1.3-1,2.4-2.3,2.4s-2.5-1.1-2.5-2.4s1.1-2.4,2.4-2.4C31.4,294.5,32.4,295.5,32.4,296.8z"/>
	<path class="st2" d="M209.3,303.2c0,1.3-1.1,2.3-2.4,2.3c-1.3,0-2.4-1.2-2.4-2.5c0.1-1.3,1.2-2.3,2.5-2.3
		C208.3,300.8,209.3,301.9,209.3,303.2z"/>
	<path class="st2" d="M33.2,287.6c0,1.3-1.1,2.4-2.4,2.3c-1.3,0-2.4-1.1-2.4-2.4s1.1-2.4,2.5-2.4C32.2,285.2,33.2,286.3,33.2,287.6z
		"/>
	<path class="st2" d="M149.5,306.3c-1.3-0.1-2.3-1.2-2.3-2.4c0.1-1.3,1.2-2.3,2.4-2.3c1.3,0,2.4,1.2,2.3,2.5
		C151.9,305.3,150.8,306.3,149.5,306.3z"/>
	<path class="st2" d="M78.6,186.2c1.3,0.1,2.3,1.2,2.3,2.5c-0.1,1.3-1.2,2.3-2.4,2.3c-1.3,0-2.4-1.2-2.3-2.5
		C76.2,187.2,77.3,186.2,78.6,186.2z"/>
	<path class="st2" d="M96.6,294.1c0,1.3-1.1,2.3-2.4,2.3s-2.3-1.1-2.3-2.4s1.2-2.4,2.5-2.4C95.6,291.7,96.6,292.8,96.6,294.1z"/>
	<path class="st2" d="M101.2,289.6c0,1.3-1,2.4-2.3,2.4s-2.4-1-2.4-2.3c-0.1-1.4,1-2.5,2.3-2.5C100.1,287.3,101.2,288.3,101.2,289.6
		z"/>
	<path class="st2" d="M62,301.8c0,1.3-1.1,2.3-2.4,2.3c-1.3,0-2.4-1.1-2.4-2.3c0-1.3,1.2-2.5,2.5-2.4C61,299.4,62,300.5,62,301.8z"
		/>
	<path class="st2" d="M164.5,320.9c-1.3,0-2.4-1-2.4-2.3s1.1-2.4,2.4-2.4c1.3,0,2.3,1.1,2.3,2.4S165.8,320.9,164.5,320.9z"/>
	<path class="st2" d="M65.4,301.2c1.3,0,2.3,1,2.3,2.4c0,1.3-1,2.4-2.3,2.4s-2.5-1.1-2.4-2.5C63,302.2,64.1,301.2,65.4,301.2z"/>
	<path class="st2" d="M232.4,312.7c0,1.3-1,2.4-2.3,2.4c-1.4,0-2.4-1.1-2.4-2.4s1.1-2.4,2.4-2.3
		C231.3,310.4,232.4,311.4,232.4,312.7z"/>
	<path class="st2" d="M96.5,320c0,1.3-1,2.4-2.3,2.4c-1.3,0.1-2.5-1.1-2.5-2.4s1.1-2.3,2.4-2.4C95.4,317.7,96.5,318.7,96.5,320z"/>
	<path class="st2" d="M212.9,302.2c-1.3,0-2.4-1-2.4-2.3s1.1-2.4,2.5-2.4c1.3,0,2.3,1.1,2.3,2.4
		C215.2,301.2,214.2,302.2,212.9,302.2z"/>
	<path class="st2" d="M109,280.1c0,1.3-1,2.4-2.3,2.4s-2.4-1.1-2.4-2.5c0-1.3,1.1-2.3,2.4-2.3S109,278.7,109,280.1z"/>
	<path class="st2" d="M203.6,305.1c0,1.3-1.1,2.3-2.4,2.3c-1.3,0-2.4-1.1-2.4-2.3c0-1.3,1.1-2.4,2.4-2.4
		C202.6,302.7,203.6,303.8,203.6,305.1z"/>
	<path class="st2" d="M68.1,244.8c1.3,0,2.4,1,2.4,2.3s-1.1,2.4-2.4,2.4s-2.3-1.1-2.3-2.4C65.8,245.8,66.8,244.8,68.1,244.8z"/>
	<path class="st2" d="M190.2,330.3c-1.3,0-2.4-1-2.4-2.3s1.1-2.5,2.4-2.4c1.3,0,2.3,1.1,2.3,2.4
		C192.5,329.2,191.5,330.3,190.2,330.3z"/>
	<path class="st2" d="M98.1,240.4c-1.3,0-2.3-1.1-2.3-2.4c0-1.3,1.1-2.4,2.5-2.4c1.3,0,2.3,1.1,2.3,2.4
		C100.5,239.4,99.4,240.4,98.1,240.4z"/>
	<path class="st2" d="M114.6,216.5c1.3,0,2.3,1.1,2.4,2.4c0,1.3-1.1,2.4-2.3,2.4c-1.3,0-2.5-1.1-2.4-2.4
		C112.2,217.5,113.3,216.5,114.6,216.5z"/>
	<path class="st2" d="M100.3,315.1c1.3,0,2.4,1,2.4,2.3s-1.1,2.5-2.4,2.4c-1.3,0-2.3-1.1-2.3-2.4C97.9,316.1,98.9,315.1,100.3,315.1
		z"/>
	<path class="st2" d="M109,168.3c0,1.3-1.1,2.3-2.4,2.3s-2.4-1.1-2.4-2.4c0-1.3,1.1-2.4,2.5-2.4C108,165.9,109,167,109,168.3z"/>
	<path class="st2" d="M172.2,293.8c1.3,0,2.3,1.1,2.3,2.4c0,1.4-1.1,2.4-2.5,2.3c-1.3-0.1-2.3-1.2-2.3-2.5
		C169.8,294.8,170.9,293.8,172.2,293.8z"/>
	<path class="st2" d="M104.9,177.9c-1.3,0-2.3-1-2.3-2.4c0-1.3,1-2.3,2.4-2.3s2.5,1.1,2.4,2.4C107.2,176.9,106.2,177.9,104.9,177.9z
		"/>
	<path class="st2" d="M103.1,287.7c-1.3-0.1-2.3-1.2-2.3-2.5s1.2-2.4,2.5-2.3s2.3,1.2,2.2,2.5C105.5,286.7,104.4,287.8,103.1,287.7z
		"/>
	<path class="st2" d="M114.8,129.2c-1.3,0-2.4-1-2.4-2.3s1.1-2.5,2.4-2.4c1.3,0,2.3,1.1,2.3,2.4
		C117.2,128.1,116.2,129.1,114.8,129.2z"/>
	<path class="st2" d="M101.1,182.6c0-1.3,1-2.4,2.3-2.4c1.4,0,2.5,1,2.5,2.4c0,1.3-1.1,2.4-2.4,2.4
		C102.1,184.9,101.1,183.9,101.1,182.6z"/>
	<path class="st2" d="M96.7,127.4c1.3,0,2.4,1,2.4,2.3c0.1,1.3-1,2.4-2.3,2.5s-2.5-1-2.5-2.3C94.3,128.6,95.4,127.5,96.7,127.4z"/>
	<path class="st2" d="M206.1,324.7c1.3,0,2.4,1,2.4,2.3s-1.1,2.5-2.4,2.4c-1.3,0-2.3-1.1-2.3-2.4S204.8,324.7,206.1,324.7z"/>
	<path class="st2" d="M213.6,328.6c-1.3,0-2.3-1-2.3-2.4c0-1.3,1-2.4,2.3-2.4c1.4,0,2.4,1.1,2.4,2.4
		C215.9,327.6,214.9,328.6,213.6,328.6z"/>
	<path class="st2" d="M156.8,310.3c0,1.3-1,2.4-2.3,2.4s-2.4-1-2.5-2.3s1-2.5,2.4-2.5C155.6,307.9,156.7,309,156.8,310.3z"/>
	<path class="st2" d="M98.7,119.9c1.3,0,2.4,1.1,2.4,2.3c0,1.3-1,2.3-2.3,2.4c-1.4,0-2.4-1.1-2.4-2.4
		C96.3,120.9,97.4,119.9,98.7,119.9z"/>
	<path class="st2" d="M113.4,146.9c0,1.3-1,2.4-2.3,2.4c-1.4,0-2.4-1-2.4-2.4c0-1.3,1.1-2.4,2.3-2.4
		C112.3,144.5,113.3,145.6,113.4,146.9z"/>
	<path class="st2" d="M232.3,298c0-1.3,1.1-2.3,2.4-2.3c1.3,0,2.4,1,2.4,2.3s-1.1,2.4-2.4,2.4C233.3,300.3,232.3,299.3,232.3,298z"
		/>
	<path class="st2" d="M97,137.3c0,1.3-1,2.4-2.3,2.4c-1.4,0-2.5-1-2.4-2.4c0-1.3,1.1-2.4,2.4-2.4C96,134.9,97,136,97,137.3z"/>
	<path class="st2" d="M86,165.2c1.3,0,2.4,1,2.4,2.3c0,1.4-1,2.4-2.4,2.4c-1.3,0-2.4-1.1-2.3-2.4C83.7,166.3,84.7,165.2,86,165.2z"
		/>
	<path class="st2" d="M83.7,172.6c1.3,0,2.3,1.1,2.3,2.4c0,1.4-1.1,2.4-2.5,2.4c-1.3,0-2.3-1.1-2.3-2.4
		C81.4,173.6,82.4,172.6,83.7,172.6z"/>
	<path class="st2" d="M45.2,318.4c1.3,0.1,2.3,1.2,2.3,2.5c-0.1,1.3-1.2,2.4-2.6,2.3c-1.3-0.1-2.3-1.2-2.2-2.5
		C42.8,319.3,43.9,318.3,45.2,318.4z"/>
	<path class="st2" d="M219.5,324.2c-1.3,0-2.3-1.1-2.3-2.4s1.1-2.4,2.4-2.3c1.3,0,2.4,1.2,2.4,2.5
		C221.9,323.3,220.8,324.3,219.5,324.2z"/>
	<path class="st2" d="M51.1,327.4c-1.3,0-2.4-1.1-2.3-2.4c0-1.3,1.1-2.3,2.4-2.3c1.4,0,2.4,1.1,2.4,2.4
		C53.5,326.5,52.5,327.5,51.1,327.4z"/>
	<path class="st2" d="M64.9,241.9c0,1.3-1.1,2.4-2.4,2.4c-1.3,0-2.4-1.1-2.3-2.5c0-1.3,1.1-2.3,2.4-2.3
		C64,239.6,64.9,240.6,64.9,241.9z"/>
	<path class="st2" d="M116.2,117.6c1.3,0,2.4,1,2.4,2.3c0,1.4-1,2.5-2.4,2.4c-1.3,0-2.4-1.1-2.4-2.4
		C113.9,118.6,114.9,117.6,116.2,117.6z"/>
	<path class="st2" d="M118.6,109.5c-1.3,0-2.4-1-2.4-2.3s1.1-2.4,2.4-2.4s2.3,1.1,2.3,2.4C121,108.5,119.9,109.5,118.6,109.5z"/>
	<path class="st2" d="M168.2,321.2c0-1.3,1.1-2.4,2.4-2.4c1.3,0,2.4,1.1,2.4,2.4s-1.1,2.4-2.5,2.4
		C169.2,323.5,168.2,322.5,168.2,321.2z"/>
	<path class="st2" d="M85.3,248.9c-1.3,0-2.4-1-2.4-2.3s1.1-2.4,2.4-2.4s2.3,1.1,2.3,2.4C87.7,247.9,86.7,248.9,85.3,248.9z"/>
	<path class="st2" d="M169.8,292c0,1.3-1.1,2.3-2.4,2.3c-1.3,0-2.3-1.1-2.3-2.4s1.1-2.4,2.5-2.4C168.8,289.6,169.9,290.7,169.8,292z
		"/>
	<path class="st2" d="M177,302.2c-1.3,0-2.3-1-2.3-2.4c0-1.3,1.1-2.4,2.3-2.4c1.3,0,2.4,1.1,2.4,2.5
		C179.4,301.2,178.4,302.2,177,302.2z"/>
	<path class="st2" d="M71.9,301.6c1.3,0,2.3,1.1,2.3,2.4c0,1.4-1.1,2.4-2.5,2.3c-1.3,0-2.3-1.2-2.3-2.4
		C69.5,302.6,70.5,301.6,71.9,301.6z"/>
	<path class="st2" d="M116,133.8c0,1.3-1,2.4-2.3,2.4s-2.4-1-2.4-2.4c0-1.3,1-2.3,2.4-2.3C115,131.4,116,132.4,116,133.8z"/>
	<path class="st2" d="M180.3,303.1c0-1.3,1.1-2.4,2.4-2.4c1.3,0,2.4,1.2,2.4,2.5c-0.1,1.3-1.1,2.3-2.4,2.3
		C181.2,305.5,180.2,304.5,180.3,303.1z"/>
	<path class="st2" d="M112.2,142.6c-1.3,0-2.4-1-2.4-2.3s1-2.5,2.4-2.5c1.3,0,2.3,1.1,2.4,2.4C114.6,141.5,113.6,142.6,112.2,142.6z
		"/>
	<path class="st2" d="M83.9,303.6c-1.3,0-2.3-1-2.3-2.4c0-1.3,1-2.4,2.3-2.4s2.4,1.1,2.4,2.5S85.2,303.6,83.9,303.6z"/>
	<path class="st2" d="M108,309.2c0-1.3,1-2.3,2.4-2.3c1.3,0,2.4,1,2.4,2.3s-1.1,2.4-2.4,2.4C109,311.5,108,310.5,108,309.2z"/>
	<path class="st2" d="M100.2,116.7c-1.3,0-2.3-1-2.3-2.4c0-1.3,1-2.4,2.3-2.4s2.4,1.1,2.4,2.5C102.6,115.7,101.6,116.7,100.2,116.7z
		"/>
	<path class="st2" d="M110.5,160.6c0,1.3-1,2.4-2.3,2.4s-2.5-1.1-2.4-2.4c0-1.3,1.1-2.3,2.4-2.3
		C109.4,158.3,110.4,159.3,110.5,160.6z"/>
	<path class="st2" d="M186.2,305c0-1.3,1-2.4,2.3-2.4c1.4,0,2.4,1,2.4,2.4c0,1.3-1.1,2.4-2.4,2.4C187.3,307.4,186.2,306.3,186.2,305
		z"/>
	<path class="st2" d="M160.6,287.6c0-1.3,1.1-2.3,2.4-2.3c1.3,0,2.4,1.1,2.4,2.4s-1.2,2.4-2.5,2.4
		C161.5,289.9,160.6,288.9,160.6,287.6z"/>
	<path class="st2" d="M74.6,324.4c1.3,0,2.4,1,2.4,2.3c0,1.4-1.1,2.4-2.4,2.4s-2.3-1.1-2.3-2.4C72.3,325.4,73.2,324.4,74.6,324.4z"
		/>
	<path class="st2" d="M197.1,305.6c0,1.3-1,2.3-2.4,2.3c-1.3,0-2.3-1-2.3-2.4s1.1-2.4,2.4-2.4C196.2,303.3,197.1,304.3,197.1,305.6z
		"/>
	<path class="st2" d="M83.1,182.2c0,1.3-1,2.4-2.3,2.4c-1.4,0-2.4-1-2.4-2.4c0-1.3,1.1-2.3,2.4-2.3
		C82.1,179.8,83.1,180.9,83.1,182.2z"/>
	<path class="st2" d="M37.1,311.6c0,1.3-1,2.4-2.3,2.4s-2.4-1-2.4-2.3c0-1.4,1-2.5,2.4-2.5C36,309.2,37.1,310.3,37.1,311.6z"/>
	<path class="st2" d="M42,316.2c0,1.3-1,2.4-2.3,2.4s-2.4-1-2.4-2.3c0-1.4,1-2.5,2.4-2.5C40.9,313.8,42,314.9,42,316.2z"/>
	<path class="st2" d="M117.5,302.9c-0.1,1.3-1.1,2.3-2.4,2.2c-1.4,0-2.4-1.1-2.3-2.5c0.1-1.3,1.2-2.3,2.5-2.2
		C116.6,300.5,117.6,301.6,117.5,302.9z"/>
	<path class="st2" d="M81.5,322.9c1.3,0,2.3,1,2.4,2.3c0,1.3-1,2.4-2.3,2.4c-1.4,0-2.4-1-2.4-2.4C79.2,324,80.2,322.9,81.5,322.9z"
		/>
	<path class="st2" d="M231.6,288.6c0-1.3,1-2.3,2.4-2.3c1.3,0,2.4,1.1,2.4,2.4s-1.1,2.4-2.5,2.4
		C232.6,290.9,231.6,289.9,231.6,288.6z"/>
	<path class="st1" d="M204.9,248.2c0.6-2,1-3.8,1.7-5.6c0.7-1.7,1.6-3.4,2.4-5.1c0.6-1.4,0.7-2.6-0.3-3.9c-0.9-1.1-0.6-2.8,0.5-3.6
		c1.1-0.9,2.7-0.8,3.7,0.3s1.1,2.8-0.1,3.8c-1.1,0.9-1,1.9-0.5,3c1.6,3.7,2.9,7.4,2.8,11.4c0,1.3-0.3,2.7-0.9,3.8
		c-1.7,3.3-5.8,3.5-7.7,0.3C205.7,251.3,205.4,249.7,204.9,248.2z"/>
	<path class="st1" d="M221.5,223c0.5-1.7,0.8-3.3,1.4-4.9c0.5-1.5,1.2-3,1.9-4.5c0.5-1.1,0.3-2-0.4-2.9c-0.9-1-0.7-2.5,0.3-3.3
		c0.9-0.8,2.4-0.7,3.3,0.2c0.9,0.9,1,2.3,0,3.2c-0.9,0.9-0.8,1.7-0.3,2.7c1.3,2.8,2.5,5.7,2.7,8.8c0.1,1.2,0,2.6-0.3,3.8
		c-0.5,1.7-1.8,2.8-3.6,2.9c-1.7,0.2-2.9-0.8-3.6-2.1C222.2,225.6,221.9,224.2,221.5,223z"/>
	<path class="st1" d="M160.1,215.2c0.5-1.8,0.8-3.3,1.3-4.8s1.2-3,1.9-4.5c0.5-1.1,0.5-2.1-0.4-3.1c-0.8-0.9-0.7-2.4,0.3-3.2
		c0.9-0.8,2.4-0.8,3.3,0.1c0.9,0.9,1,2.4,0.1,3.2c-1,0.9-0.7,1.7-0.3,2.8c0.9,2.7,2,5.5,2.6,8.3c0.3,1.4,0,2.9-0.4,4.3
		c-0.4,1.6-1.8,2.6-3.4,2.7c-1.6,0.2-2.8-0.7-3.5-2C160.9,217.8,160.5,216.4,160.1,215.2z"/>
	<path class="st2" d="M158.6,161.5c-1.3,0-2.3-1.1-2.3-2.4c0-1.3,1.1-2.3,2.4-2.3c1.3,0,2.4,1.2,2.4,2.5
		C161,160.6,159.9,161.6,158.6,161.5z"/>
	<path class="st2" d="M183.1,172.6c1.3,0,2.4,1,2.4,2.3s-1.1,2.4-2.4,2.4c-1.3,0-2.3-1.1-2.3-2.4
		C180.7,173.6,181.8,172.6,183.1,172.6z"/>
	<path class="st2" d="M202.1,231.4c1.3,0,2.4,1,2.4,2.3s-1.1,2.4-2.5,2.4c-1.3,0-2.3-1.1-2.3-2.4
		C199.7,232.4,200.7,231.4,202.1,231.4z"/>
	<path class="st2" d="M195.7,246c0,1.3-1,2.4-2.3,2.4s-2.5-1.1-2.4-2.4c0-1.3,1.1-2.3,2.4-2.3C194.6,243.6,195.7,244.7,195.7,246z"
		/>
	<path class="st2" d="M154.3,125.3c0,1.3-1,2.4-2.3,2.4s-2.4-0.9-2.5-2.2c-0.1-1.3,1-2.5,2.4-2.5C153.2,123,154.3,124,154.3,125.3z"
		/>
	<path class="st2" d="M166.5,116.7c-1.3,0-2.4-1.1-2.4-2.4s1-2.4,2.3-2.4s2.4,1.1,2.4,2.4C168.9,115.6,167.8,116.7,166.5,116.7z"/>
	<path class="st2" d="M151.4,112.1c0,1.3-1.1,2.4-2.4,2.3c-1.3,0-2.4-1.2-2.3-2.5c0.1-1.3,1.1-2.3,2.5-2.3
		C150.4,109.7,151.5,110.8,151.4,112.1z"/>
	<path class="st2" d="M151.9,227.3c-1.3,0-2.3-1.1-2.3-2.4c0-1.3,1.1-2.4,2.3-2.4c1.3,0,2.5,1.1,2.4,2.5
		C154.3,226.3,153.2,227.3,151.9,227.3z"/>
	<path class="st2" d="M160.9,236.8c0-1.3,1.1-2.4,2.4-2.4c1.3,0,2.4,1,2.4,2.3s-1.1,2.5-2.4,2.4
		C161.9,239.2,160.9,238.1,160.9,236.8z"/>
	<path class="st2" d="M170.9,241.2c0,1.3-1,2.4-2.3,2.4s-2.4-1-2.4-2.3c-0.1-1.4,1-2.5,2.3-2.5C169.8,238.8,170.9,239.9,170.9,241.2
		z"/>
	<path class="st2" d="M157.5,149.5c1.3,0,2.4,1,2.4,2.3s-1.1,2.5-2.4,2.5c-1.3,0-2.4-1.1-2.4-2.4
		C155.1,150.6,156.2,149.6,157.5,149.5z"/>
	<path class="st2" d="M153.4,145.5c0-1.3,1-2.4,2.3-2.4s2.5,1.1,2.4,2.4c0,1.3-1.1,2.3-2.4,2.3C154.4,147.8,153.4,146.8,153.4,145.5
		z"/>
	<path class="st2" d="M160.1,164.4c1.3,0,2.4,1,2.4,2.3s-1.1,2.5-2.4,2.4c-1.3,0-2.4-1.1-2.3-2.4
		C157.7,165.5,158.8,164.4,160.1,164.4z"/>
	<path class="st2" d="M172.2,139.7c-1.3,0-2.4-1-2.4-2.3s1-2.5,2.4-2.5c1.3,0,2.4,1.1,2.4,2.4C174.5,138.5,173.4,139.6,172.2,139.7z
		"/>
	<path class="st2" d="M186,184.5c-1.3,0-2.4-1.1-2.4-2.4c0-1.3,1.1-2.4,2.5-2.4c1.3,0,2.3,1.1,2.3,2.4
		C188.4,183.5,187.3,184.6,186,184.5z"/>
	<path class="st2" d="M148.2,108.1c-1.3,0-2.4-1-2.4-2.3s1.1-2.5,2.4-2.4c1.3,0,2.3,1.1,2.3,2.4C150.5,107,149.5,108,148.2,108.1z"
		/>
	<path class="st2" d="M149.3,217.7c0,1.3-1.1,2.4-2.4,2.4c-1.3,0-2.4-1-2.4-2.3c0-1.4,1-2.4,2.4-2.4
		C148.2,215.3,149.3,216.4,149.3,217.7z"/>
	<path class="st2" d="M157,138.7c0,1.3-1,2.4-2.3,2.4s-2.4-1-2.5-2.3s1-2.5,2.4-2.5C155.8,136.4,156.9,137.4,157,138.7z"/>
	<path class="st2" d="M196.5,240.8c0-1.3,1-2.4,2.3-2.4s2.4,1,2.4,2.3c0.1,1.4-1,2.5-2.3,2.5C197.6,243.1,196.5,242.1,196.5,240.8z"
		/>
	<path class="st2" d="M168.1,124.6c-1.3,0-2.4-1-2.4-2.3s1.1-2.4,2.4-2.4c1.3,0,2.3,1.1,2.3,2.4
		C170.5,123.6,169.5,124.6,168.1,124.6z"/>
	<path class="st2" d="M152.9,118.4c0,1.3-1,2.4-2.3,2.4s-2.4-1-2.4-2.3c-0.1-1.4,1-2.4,2.4-2.4C151.8,116.1,152.9,117.1,152.9,118.4
		z"/>
	<path class="st2" d="M153.1,134.7c-1.3,0-2.3-1-2.3-2.3s1-2.3,2.3-2.4c1.3,0,2.5,1.1,2.4,2.4C155.5,133.7,154.4,134.7,153.1,134.7z
		"/>
	<path class="st2" d="M180.7,165.2c1.3,0,2.4,1.1,2.4,2.4c0,1.3-1.1,2.4-2.4,2.4c-1.3,0-2.3-1.1-2.3-2.4S179.5,165.2,180.7,165.2z"
		/>
	<path class="st2" d="M161.9,176.4c-1.3,0-2.4-1-2.4-2.3s1.1-2.4,2.4-2.4c1.3,0,2.3,1.1,2.3,2.4
		C164.2,175.4,163.2,176.4,161.9,176.4z"/>
	<path class="st2" d="M193.6,196c0,1.3-1.1,2.4-2.3,2.4c-1.3,0-2.4-1.1-2.4-2.4c0-1.3,1.1-2.3,2.4-2.3
		C192.5,193.7,193.6,194.7,193.6,196z"/>
	<path class="st2" d="M182.9,247c0-1.3,1-2.4,2.3-2.4s2.4,1.1,2.4,2.4c0,1.3-1.1,2.3-2.4,2.3C183.9,249.4,182.9,248.4,182.9,247z"/>
	<path class="st2" d="M164.8,104.1c1.3,0,2.4,1,2.4,2.3s-1,2.4-2.3,2.4s-2.4-1.1-2.4-2.4C162.5,105.2,163.5,104.1,164.8,104.1z"/>
	<path class="st2" d="M172.4,129.8c0,1.3-1.1,2.4-2.3,2.4c-1.3,0-2.4-1.1-2.4-2.5c0-1.3,1.1-2.3,2.4-2.3
		C171.4,127.4,172.4,128.5,172.4,129.8z"/>
	<path class="st2" d="M157.3,228.6c1.3,0,2.4,1,2.4,2.3c0,1.4-1.1,2.4-2.4,2.4c-1.3,0-2.3-1.1-2.3-2.4
		C154.9,229.7,156,228.6,157.3,228.6z"/>
	<path class="st2" d="M178.4,152.4c0,1.3-1,2.3-2.3,2.3s-2.3-1-2.4-2.3c0-1.4,1.1-2.4,2.4-2.4C177.4,150.1,178.4,151.1,178.4,152.4z
		"/>
	<path class="st2" d="M180.4,159.8c0,1.3-1,2.4-2.3,2.4c-1.4,0-2.4-1-2.4-2.4c0-1.3,1-2.3,2.4-2.3
		C179.3,157.4,180.3,158.4,180.4,159.8z"/>
	<path class="st2" d="M165.7,181.1c0,1.3-1,2.3-2.3,2.4c-1.4,0-2.4-1-2.4-2.4c0-1.3,1.1-2.3,2.4-2.3
		C164.7,178.7,165.7,179.7,165.7,181.1z"/>
	<path class="st2" d="M173.8,245.4c0-1.4,1-2.3,2.3-2.4c1.3,0,2.4,1,2.4,2.3s-1.1,2.5-2.4,2.4C174.8,247.8,173.8,246.7,173.8,245.4z
		"/>
	<path class="st2" d="M188.3,186.2c1.3,0,2.4,1,2.4,2.3s-1.1,2.4-2.4,2.4c-1.3,0-2.3-1.1-2.3-2.4C186,187.2,187,186.2,188.3,186.2z"
		/>
	<path class="st2" d="M176.3,144.6c0,1.3-1,2.4-2.3,2.4s-2.4-1.1-2.4-2.4c0-1.3,1.1-2.3,2.4-2.3
		C175.3,142.3,176.3,143.3,176.3,144.6z"/>
	<path class="st3" d="M207.7,289.6c0.4-0.2,0.8-0.3,1.1-0.5c3.5-1.6,5.9-4.2,6.9-8c0.5-1.9,1.5-3.5,3-4.8c2-1.8,4.5-2,6.8-0.7
		c1.9,1.1,2.9,3.6,2.5,5.9c-0.1,0.3-0.3,0.7-0.5,0.9c-5.5,4.8-11.9,7.2-19.2,7.3C208.1,289.7,208,289.7,207.7,289.6z"/>
	<path class="st3" d="M54.2,289.5c-7.3-1.4-13.4-4.4-17.9-10.3c-0.7-0.9-0.7-1.7-0.3-2.7c1.4-3.5,5.9-4.5,8.8-1.9
		c1.5,1.4,2.5,3.1,2.8,5.1c0.6,4.2,2.7,7.4,6.4,9.5C54,289.1,54.1,289.2,54.2,289.5z"/>
	<path class="st3" d="M132.6,18.8c1.1,1.2,1.1,1.2,3.1-0.3c0.9,1.4,0.8,4.5-0.5,5.6c-0.6,0.5-1.7,0.7-2.6,0.6c-0.4,0-0.9-1-1.1-1.6
		C131.2,21.8,131.7,20.1,132.6,18.8z"/>
	<path class="st3" d="M132.1,48.1c0.8-0.2,1.7-0.5,2.8-0.8c0.9,0.9,0.9,2.3,0.5,3.6c-0.8-0.2-1.7-0.5-2.4-0.4
		c-0.7,0.2-1.4,0.8-2.1,1.3c-0.2-1.4,0.1-2.8,1-4.1C132,47.9,132.1,48,132.1,48.1z"/>
	<path class="st3" d="M135.4,8.9c-0.7,0-1.2,0-1.9,0c-0.8-1.6-0.1-4.3,1.5-6C136.1,3.6,136.3,6.2,135.4,8.9z"/>
	<path class="st3" d="M134.5,37.1c-0.8,0.2-1.4,0.3-2.3,0.4c0.1-1.6,0.2-3.2,0.3-4.9c1,0,1.6,0.1,2.4,0.1
		C134.8,34.2,134.7,35.7,134.5,37.1z"/>
	<path class="st3" d="M134.6,63.2c0.1,0.9,0.3,1.7,0.5,2.8c-1.1-0.6-2.4,0.6-2.9-0.8C131.5,63.3,133.3,63.7,134.6,63.2z"/>
	<path class="st3" d="M134.7,56c-0.1,0.8-0.2,1.5-0.3,2.2c-0.8,0-1.5,0-2.4,0c0.1-0.6,0.1-1.1,0.2-1.6
		C133.1,56.3,133.8,56.1,134.7,56z"/>
	<path class="st3" d="M133.1,43.3c0-0.6,0-1.3,0-1.9c0-0.1,0.3-0.3,0.5-0.4c0.1,0.1,0.3,0.3,0.3,0.4c-0.3,0.7,1.1,1.8-0.6,2
		C133.3,43.5,133.3,43.4,133.1,43.3z"/>
	<path class="st3" d="M135.2,14.4c-0.6,0.1-1,0.1-1.5,0.2c0-0.5,0-1,0-1.6c0.4,0,0.8-0.1,1.4-0.1C135.1,13.5,135.2,14,135.2,14.4z"
		/>
</g>
<path class="st4" d="M51.2,181.1h5.9c0.5,0,1-0.3,1.1-0.8c1-2.9,3.7-12.9-2.6-18.1c-0.5-0.4-1.2-0.4-1.7,0.1
	c-1.7,2.1-5.7,8.1-3.9,17.9C50.1,180.7,50.6,181.1,51.2,181.1z"/>
<path class="st5" d="M24.3,241.3h5.9c0.5,0,1-0.3,1.1-0.8c1-3,3.7-13.2-2.6-18.5c-0.5-0.4-1.2-0.4-1.7,0.1
	c-1.7,2.1-5.7,8.3-3.9,18.2C23.3,240.9,23.7,241.3,24.3,241.3z"/>
<path class="st4" d="M234.7,243.3h5.9c0.5,0,1-0.3,1.1-0.8c1-2.9,3.7-12.9-2.6-18.1c-0.5-0.4-1.2-0.4-1.7,0.1
	c-1.7,2.1-5.7,8.1-3.9,17.9C233.7,243,234.2,243.3,234.7,243.3z"/>
<path class="st4" d="M209.5,184.6h5.9c0.5,0,1-0.3,1.1-0.8c1-2.9,3.7-12.9-2.6-18.1c-0.5-0.4-1.2-0.4-1.7,0.1
	c-1.7,2.1-5.7,8.1-3.9,17.9C208.5,184.2,209,184.6,209.5,184.6z"/>
</svg>
