<?xml version="1.0" encoding="utf-8"?>
<!-- Generator: Adobe Illustrator 21.0.2, SVG Export Plug-In . SVG Version: 6.00 Build 0)  -->
<svg version="1.1" id="Living_Room" xmlns="http://www.w3.org/2000/svg" xmlns:xlink="http://www.w3.org/1999/xlink" x="0px"
	 y="0px" viewBox="0 0 1471 1066" style="enable-background:new 0 0 1471 1066;" xml:space="preserve">
<style type="text/css">
	.st0{fill:#FFC7C7;}
	.st1{fill:#FACFD0;}
	.st2{fill:#FFB3D2;}
	.st3{fill:#FF7373;}
	.st4{fill:#FFFFFF;}
	.st5{fill:#050505;}
</style>
<rect y="659" class="st0" width="1471" height="407"/>
<g id="wall">
	<g>
		<rect class="st1" width="19" height="659"/>
	</g>
	<g>
		<rect x="59" class="st1" width="50" height="659"/>
	</g>
	<g>
		<rect x="159" class="st1" width="50" height="659"/>
	</g>
	<g>
		<rect x="259" class="st1" width="50" height="659"/>
	</g>
	<g>
		<rect x="359" class="st1" width="50" height="659"/>
	</g>
	<g>
		<rect x="459" class="st1" width="50" height="659"/>
	</g>
	<g>
		<rect x="559" class="st1" width="50" height="659"/>
	</g>
	<g>
		<rect x="659" class="st1" width="50" height="659"/>
	</g>
	<g>
		<rect x="759" class="st1" width="50" height="659"/>
	</g>
	<g>
		<rect x="859" class="st1" width="50" height="659"/>
	</g>
	<g>
		<rect x="959" class="st1" width="50" height="659"/>
	</g>
	<g>
		<rect x="1059" class="st1" width="50" height="659"/>
	</g>
	<g>
		<rect x="1159" class="st1" width="50" height="659"/>
	</g>
	<g>
		<rect x="1259" class="st1" width="50" height="659"/>
	</g>
	<g>
		<rect x="1359" class="st1" width="50" height="659"/>
	</g>
	<g>
		<rect x="1452" class="st1" width="19" height="659"/>
	</g>
</g>
<g id="Couch">
	<g>
		<g>
			<path d="M356.1,685.3c-4.4-13.9-8-26.4-2.4-40.7c2.9-7.5,1.5-16.8,1.6-25.3c0.3-18.9,0.9-19.9,18.9-26.3c5.9-2.1,12-3.9,19.2-6.3
				c-3.4-8.6-6.6-16.7-9.9-24.8c-3.4-8-1.5-13.8,7.4-14.4c7.9-0.5,8.5-4.8,9.1-10.9c2.1-22.8,10.5-29,32.6-22.9
				c30.6,8.4,61.3,5.6,92.2,3c16.3-1.4,32.6-3.7,49-4c6.5-0.2,13.1,3.7,21,6.1c7.5-11.6,19.7-11.1,33.3-7.6
				c27.3,7,54.7,2.4,82.1-0.9c12.2-1.4,24.5-2.8,36.7-2.5c6.5,0.1,12.9,3.7,19.3,5.7c6.6-0.8,13.7-2.1,20.9-2.6
				c20.7-1.4,41.5-2.7,62.2-3.5c13.3-0.5,26.7,0.1,40-0.2c14.8-0.3,29.7,0.1,44.3-2c20-2.8,24.4,0.7,21.4,21
				c-0.6,3.9-1.3,7.8-2.1,12.6c6.7-0.3,12.6-1,18.4-0.9c9.4,0.2,12.1,4.6,7.9,13c-3.2,6.3-7.1,12.3-11.2,18
				c-3.9,5.4-3.5,9.4,1.9,13.1c1.8,1.3,3,3.7,5,4.4c15.9,6.1,17.7,18.3,16.1,33.2c-1,8.9,0.6,17,5.5,26c4.6,8.6,1.1,21.5,1.1,32.6
				c0,1.9-1.4,5.1-0.6,5.7c10.5,7.7,8.4,19.5,9,29.8c0.9,16.1-4.1,20.7-20.3,20.8c-8.2,0.1-16.4-1-24.6-0.9
				c-45.1,0.2-90.2,0.7-135.3,1c-90.5,0.6-181.1,1-271.6,1.6c-63.4,0.4-126.7,0.7-190.1,1.4c-8.9,0.1-13.6-3.2-13.9-11.9
				C349.8,711.7,345.9,697.3,356.1,685.3z M674.7,731.8c0-1.1,0-2.3,0-3.4c40.6,0,81.2-0.1,121.8,0.1c16.4,0.1,32.8,1.2,49.2,1.2
				c44-0.1,87.9-0.8,131.9-0.8c22.5,0,26.1-3.5,23.6-26.1c-0.1-0.7-0.2-1.5-0.3-2.2c-0.4-8.5-4-12.1-13.3-12
				c-30.5,0.4-61.1-0.5-91.7-0.3c-49.6,0.3-99.1,0.8-148.7,1.6c-33.1,0.6-66.3,2.9-99.4,2.7c-88-0.5-175.9-2.1-263.9-2.9
				c-30.3-0.3-33.3,3.9-29.4,34.3c0,0.4,0.1,0.7,0.1,1.1c0.4,5.7,2.8,8.3,9.3,8.2c31.7-0.7,63.3-1.2,95-1.3
				C530.9,731.7,602.8,731.8,674.7,731.8z M764.9,622.3c-1.7-11.6-4.3-22.1-4.5-32.7c-0.3-19.3,1-38.6,1.4-57.9
				c0.3-17.9-4-21.7-21.9-19.9c-9.3,0.9-18.5,2.3-27.7,3.4c-30.3,3.6-60.6,8.1-90.9-1.3c-8.6-2.7-16.7,0.1-21.2,8.3
				c-2.8,4.9-5.3,10.8-5.5,16.2c-0.5,27.9-0.3,55.7-0.3,83.7C649.6,610.3,706.4,617.5,764.9,622.3z M468.3,684.7c0,0.3,0,0.5,0,0.8
				c29.8,0,59.6-0.1,89.3,0c22.7,0.1,28.5-6.9,24.6-29.4c-1.2-7.1-4.3-10.2-11.8-10.2c-21.2,0-42.4-1.1-63.6-1.1
				c-45.3,0.1-90.7,0.1-136,1.3c-16.1,0.4-16.6,2.8-14.5,24.8c0.9,9.8,6.9,13.9,18.3,13.8C405.8,684.6,437.1,684.7,468.3,684.7z
				 M775.8,663.8c0,20,0,20,19.7,19.9c17.9-0.1,35.8-0.3,53.6-0.5c39.9-0.4,79.7-1.6,119.5-1c22.9,0.3,26.2-1.4,26.4-23.9
				c0-0.7-0.1-1.5,0-2.2c1.2-8.9-3.1-11.7-11.5-11.6c-21.2,0.2-42.4-0.1-63.7-0.4c-41.7-0.5-83.4-1.9-125-1.4
				C775.8,642.8,775.8,644.4,775.8,663.8z M569,533c-6.1,1-10.9,2-15.8,2.4c-16.9,1.3-33.8,2.8-50.7,3.5c-8.5,0.3-17.1-1-25.6-1.5
				c0.3,9.4,0.6,18.8,1,28.1c0,0.4,0.1,0.7,0.3,1.1c7.2,18.4,11.5,36.9,2,56c-0.4,0.7,0.4,2,0.8,3.5c1.8,0.3,3.7,1.1,5.3,0.8
				c26.2-5.6,52.3-5.6,78.7-1.1c2.8,0.5,7.9-3.5,9.5-6.6c6.5-13,4.3-26.3-1.8-38.7c-5.9-12-6.6-24.2-4.3-36.9
				C568.9,540.8,568.7,538,569,533z M646.2,685.8c0,1,0,2,0.1,3c37.2-1.8,74.4-3.5,111.6-5.3c7.9-0.4,12.3-5,13.3-12.5
				c0.6-4.8,0-9.7,0.2-14.5c0.3-8.7-4-11.4-12.4-11.4c-48-0.4-96.1-1.4-144.1-1.7c-24.4-0.1-25.9,2.4-27.6,26.6
				c-0.8,11.7,4.2,15.7,14.4,15.9C616.4,686,631.3,685.8,646.2,685.8z M900.4,532.8c-26-2.1-51.3-4.4-76.7-6c-3.3-0.2-8.6,2-9.8,4.5
				c-11.8,24.3-16.3,50-12.9,76.9c1,7.5,4.6,10,12.9,9.1c15.8-1.9,31.8-3.1,47.6-2.2c23.8,1.3,24.2,2.2,25.6-21.9
				c1.3-21.1,0.8-42.4,13-61.2C900.5,531.5,900.1,530.6,900.4,532.8z M405.3,633.9c2-0.4,3.4-0.6,4.8-0.9
				c16.2-3.7,32.3-9.1,48.7-10.8c16.6-1.7,19.8-2.4,21.4-19.2c0.6-6.8-0.3-14.1-1.8-20.8c-3.3-14-7.5-27.8-10.8-40
				c-21.8,2.9-44.1,6.5-66.6,8.7c-15.1,1.5-17,3-10.5,16.6c9.6,20.1,17.2,40.3,14,63.2C404.3,631.3,404.7,632,405.3,633.9z
				 M798.2,617.4c-6.9-31-2-60.5,10.8-89.2c3.2-7.2,7.4-8.3,15-6.9c14.2,2.5,28.7,2.8,42.9,4.9c14.4,2.2,29.3-7.6,43.9,6.5
				c7.6,7.4,23.4,6.3,36,9.1c1.9-9.2,3.6-15.6,4.5-22.2c1.1-8-1.4-11.3-10.7-9.8c-14.2,2.2-28.8,3.1-43.2,3.3
				c-10.4,0.2-20.8-2.5-31.2-2.2c-27.8,0.9-55.6,2.8-83.4,4.4c-10.8,0.6-15.9,6.1-16.3,16.9c-0.2,5.2-0.9,10.4-1.4,15.5
				c-2.9,25.3-0.3,50.2,5.2,74.5C780.2,620.5,789.2,618.9,798.2,617.4z M976.8,544.5c-3.4-0.5-5.2-1.1-7-0.9
				c-19.7,2.2-39.1,3.3-58.4-3.8c-2.8-1-9.5,3-11.6,6.4c-13.4,21.6-4.2,46.2-9.8,67.3c20,2,38.3,4.1,56.6,5.5
				c2.4,0.2,6.5-2.3,7.4-4.5c1.8-4.7,2.7-10.1,2.8-15.2c0.2-16.4,3.4-31.7,14.1-44.8C973.1,551.9,974.5,548.5,976.8,544.5z
				 M578.8,624.8c1.1,0.5,2.2,1,3.2,1.6c1.6-2.1,4.5-4.1,4.6-6.3c1.2-29.4,2.1-58.8,2.8-88.2c0.2-10-4.9-15.3-15.3-14.4
				c-14.1,1.2-28.2,2.4-42.3,3.8c-32.3,3.1-64.6,6.3-96.6-2.6c-23.5-6.5-32.5,1.8-28.3,28.6c10.8-1.8,21.7-3.3,32.5-5.6
				c23.1-4.9,45.6-16.5,70.1-6c2.2,0.9,5.2,0.4,7.8,0.1c11.8-1.7,23.6-3.1,35.3-5.4c18.2-3.5,22.4,0.5,20.5,18.5
				c-0.9,8.3-1,17.4,1.7,25.1C580.6,590.6,587.1,606.8,578.8,624.8z M773.9,640.7c60.5-9.9,120.2,1.5,180.3-1
				c-1.2-5-2.1-9.2-3.6-15.6c-13.5-1.2-27.4-2.8-41.4-3.6c-7.8-0.5-15.7,1.1-23.3,0.3c-33.9-3.6-67.5-0.3-101.1,4
				C772.8,626.4,770.6,630,773.9,640.7z M767.7,639.5c0.2-9-4.3-12.1-12.4-12.7c-18.5-1.4-37-4.8-55.5-4.7
				c-31.9,0.1-63.8,1.7-95.7,3.8c-12.8,0.9-14.2,3.9-15,13.6C648.3,639.5,707.7,639.5,767.7,639.5z M411.4,634.8
				c0.2,1.1,0.3,2.2,0.5,3.2c56.4,1.3,112.7,2.5,170,3.8c0.5-3.1,1.1-6.6,1.8-10.6c-9.7-0.6-18.6-1.6-27.4-1.6
				c-20.7,0.1-41.4,0.9-62.2,1.1c-5.4,0.1-10.8-0.8-16.2-1.7c-4.2-0.7-8.5-3.6-12.4-3.1C447.4,628.5,429.4,631.8,411.4,634.8z
				 M361.4,642.3c9.9-0.9,18.5-1.3,26.9-2.7c3.6-0.6,8.1-2.8,9.9-5.7c4.4-6.9,1.7-25.4-5.1-27.6c-9.1-2.9-19.4-2.2-29.2-2.7
				c-0.8,0-2.4,2.9-2.4,4.5C361.3,619.4,361.4,630.8,361.4,642.3z M985.6,618.8c0.1,0,0.2,0,0.4,0c0-4.4,0.9-9.1-0.3-13.2
				c-0.8-2.7-4.4-6.6-6.8-6.7c-10.7-0.1-22.8,16.4-22.2,29.1c0.4,8.9,6.2,11.4,21.6,10.7c6.4-0.3,8.6-2.8,8-8.8
				C985.8,626.2,985.8,622.5,985.6,618.8z M962.4,580.8c-0.4,8.4-0.7,13.6-1,20.1c5.6-3,9.7-5.2,14.4-7.7
				C971.6,589.3,968.1,586,962.4,580.8z M395.9,590.8c-6.7,2.2-12,4-19,6.4c8.6,1.8,15.2,3.2,22.6,4.8
				C398.2,598.1,397.3,595.1,395.9,590.8z"/>
		</g>
		<g>
			<path class="st2" d="M674.7,731.8c-71.9,0-143.9-0.1-215.8,0.1c-31.7,0.1-63.4,0.5-95,1.3c-6.4,0.1-8.8-2.4-9.3-8.2
				c0-0.4-0.1-0.7-0.1-1.1c-3.9-30.4-0.9-34.5,29.4-34.3c88,0.7,175.9,2.4,263.9,2.9c33.1,0.2,66.3-2.1,99.4-2.7
				c49.5-0.8,99.1-1.3,148.7-1.6c30.6-0.2,61.1,0.7,91.7,0.3c9.3-0.1,12.9,3.5,13.3,12c0,0.7,0.2,1.5,0.3,2.2
				c2.5,22.6-1.1,26.1-23.6,26.1c-44,0-87.9,0.7-131.9,0.8"/>
		</g>
		<g>
			<path class="st2" d="M764.9,622.3c-58.5-4.8-115.3-12-170.5-0.2c0-27.9-0.3-55.8,0.3-83.7c0.1-5.5,2.7-11.3,5.5-16.2
				c4.6-8.2,12.6-10.9,21.2-8.3c30.2,9.4,60.5,4.9,90.9,1.3c9.2-1.1,18.5-2.4,27.7-3.4c17.9-1.8,22.2,2,21.9,19.9
				c-0.4,19.3-1.7,38.6-1.4,57.9C760.6,600.2,763.2,610.7,764.9,622.3z"/>
		</g>
		<g>
			<path class="st2" d="M468.3,684.7c-31.2,0-62.5-0.2-93.7,0.1c-11.4,0.1-17.4-3.9-18.3-13.8c-2-22-1.5-24.4,14.5-24.8
				c45.3-1.2,90.7-1.2,136-1.3c21.2,0,42.4,1,63.6,1.1c7.5,0,10.6,3.1,11.8,10.2c3.9,22.5-1.9,29.5-24.6,29.4
				c-29.8-0.2-59.6,0-89.3,0C468.3,685.3,468.3,685,468.3,684.7z"/>
		</g>
		<g>
			<path class="st2" d="M775.8,663.8c0-19.4,0-21,19.1-21.2c41.7-0.4,83.4,0.9,125,1.4c21.2,0.3,42.4,0.6,63.7,0.4
				c8.4-0.1,12.7,2.7,11.5,11.6c-0.1,0.7,0,1.5,0,2.2c-0.1,22.5-3.4,24.2-26.4,23.9c-39.8-0.5-79.7,0.6-119.5,1
				c-17.9,0.2-35.8,0.4-53.6,0.5C775.9,683.8,775.9,683.8,775.8,663.8z"/>
		</g>
		<g>
			<path class="st3" d="M569,533c-0.3,4.9-0.2,7.8-0.7,10.6c-2.3,12.8-1.6,24.9,4.3,36.9c6.1,12.4,8.3,25.7,1.8,38.7
				c-1.6,3.1-6.7,7.1-9.5,6.6c-26.4-4.5-52.5-4.6-78.7,1.1c-1.6,0.4-3.5-0.5-5.3-0.8c-0.4-1.5-1.2-2.8-0.8-3.5
				c9.4-19.1,5.1-37.6-2-56c-0.1-0.3-0.3-0.7-0.3-1.1c-0.3-9.4-0.6-18.8-1-28.1c8.5,0.6,17.1,1.8,25.6,1.5
				c16.9-0.7,33.8-2.1,50.7-3.5C558.1,535.1,562.9,534,569,533z"/>
		</g>
		<g>
			<path class="st2" d="M601.5,685.7c-10.1-0.2-15.2-4.2-14.4-15.9c1.7-24.1,3.2-26.7,27.6-26.6c48,0.3,96.1,1.3,144.1,1.7
				c8.4,0.1,12.7,2.7,12.4,11.4c-0.2,4.8,0.4,9.7-0.2,14.5c-1,7.5-5.4,12.1-13.3,12.5c-37.2,1.8-74.4,3.6-111.6,5.3"/>
		</g>
		<g>
			<path class="st3" d="M900.4,532.8c-0.3-2.2,0.1-1.3-0.2-0.8c-12.3,18.7-11.8,40-13,61.2c-1.4,24.1-1.8,23.2-25.6,21.9
				c-15.8-0.9-31.9,0.4-47.6,2.2c-8.4,1-12-1.5-12.9-9.1c-3.4-26.9,1.1-52.6,12.9-76.9c1.3-2.6,6.6-4.7,9.8-4.5
				C849.1,528.4,874.4,530.7,900.4,532.8z"/>
		</g>
		<g>
			<path class="st3" d="M405.3,633.9c-0.5-1.8-1-2.6-0.9-3.3c3.2-22.8-4.4-43.1-14-63.2c-6.5-13.6-4.5-15.1,10.5-16.6
				c22.4-2.2,44.8-5.8,66.6-8.7c3.4,12.3,7.6,26.1,10.8,40c1.6,6.7,2.5,14,1.8,20.8c-1.5,16.7-4.8,17.4-21.4,19.2
				c-16.4,1.7-32.5,7.1-48.7,10.8C408.7,633.3,407.2,633.5,405.3,633.9z"/>
		</g>
		<g>
			<path class="st2" d="M798.2,617.4c-9,1.6-18,3.2-28,4.9c-5.5-24.3-8.1-49.2-5.2-74.5c0.6-5.2,1.3-10.3,1.4-15.5
				c0.4-10.8,5.5-16.3,16.3-16.9c27.8-1.5,55.6-3.4,83.4-4.4c10.3-0.4,20.8,2.3,31.2,2.2c14.4-0.3,29-1.1,43.2-3.3
				c9.4-1.5,11.8,1.8,10.7,9.8c-0.9,6.6-2.6,13-4.5,22.2c-12.5-2.8-28.3-1.7-36-9.1c-14.6-14.1-29.5-4.3-43.9-6.5
				c-14.2-2.2-28.8-2.4-42.9-4.9c-7.6-1.3-11.8-0.3-15,6.9C796.2,556.8,791.3,586.3,798.2,617.4z"/>
		</g>
		<g>
			<path class="st3" d="M976.8,544.5c-2.3,4-3.6,7.4-5.9,10.1c-10.8,13.1-13.9,28.3-14.1,44.8c-0.1,5.1-1,10.5-2.8,15.2
				c-0.9,2.2-5,4.7-7.4,4.5c-18.3-1.4-36.6-3.5-56.6-5.5c5.6-21.1-3.6-45.7,9.8-67.3c2.1-3.4,8.8-7.4,11.6-6.4
				c19.2,7.1,38.7,6.1,58.4,3.8C971.6,543.5,973.4,544.1,976.8,544.5z"/>
		</g>
		<g>
			<path class="st2" d="M578.8,624.8c8.3-18,1.8-34.2-4-50.9c-2.7-7.7-2.6-16.8-1.7-25.1c1.9-18.1-2.3-22-20.5-18.5
				c-11.7,2.2-23.5,3.7-35.3,5.4c-2.6,0.4-5.6,0.9-7.8-0.1c-24.5-10.4-47,1.1-70.1,6c-10.7,2.3-21.7,3.8-32.5,5.6
				c-4.2-26.8,4.9-35.1,28.3-28.6c31.9,8.8,64.3,5.6,96.6,2.6c14.1-1.3,28.2-2.5,42.3-3.8c10.4-0.9,15.5,4.4,15.3,14.4
				c-0.7,29.4-1.6,58.8-2.8,88.2c-0.1,2.1-3,4.2-4.6,6.3C581,625.8,579.9,625.3,578.8,624.8z"/>
		</g>
		<g>
			<path class="st2" d="M773.9,640.7c-3.3-10.8-1.1-14.3,10.9-15.8c33.6-4.2,67.2-7.6,101.1-4c7.7,0.8,15.6-0.8,23.3-0.3
				c13.9,0.8,27.8,2.4,41.4,3.6c1.5,6.3,2.4,10.5,3.6,15.6C894.2,642.3,834.4,630.9,773.9,640.7z"/>
		</g>
		<g>
			<path class="st2" d="M767.7,639.5c-60.1,0-119.4,0-178.5,0c0.8-9.7,2.2-12.7,15-13.6c31.8-2.1,63.8-3.7,95.7-3.8
				c18.5-0.1,37,3.4,55.5,4.7C763.4,627.4,767.9,630.5,767.7,639.5z"/>
		</g>
		<g>
			<path class="st2" d="M411.4,634.8c18-3,36-6.3,54.1-8.8c3.9-0.5,8.2,2.3,12.4,3.1c5.3,0.9,10.8,1.8,16.2,1.7
				c20.7-0.2,41.4-1,62.2-1.1c8.8-0.1,17.7,1,27.4,1.6c-0.7,4-1.3,7.4-1.8,10.6c-57.2-1.3-113.6-2.6-170-3.8
				C411.7,637,411.6,635.9,411.4,634.8z"/>
		</g>
		<g>
			<path class="st2" d="M361.4,642.3c0-11.5-0.1-22.8,0.1-34.2c0-1.6,1.6-4.6,2.4-4.5c9.8,0.5,20.1-0.2,29.2,2.7
				c6.8,2.2,9.5,20.6,5.1,27.6c-1.8,2.9-6.3,5.1-9.9,5.7C379.9,641,371.3,641.3,361.4,642.3z"/>
		</g>
		<g>
			<path class="st2" d="M985.6,618.8c0.2,3.7,0.2,7.4,0.6,11.1c0.7,6.1-1.6,8.6-8,8.8c-15.4,0.7-21.1-1.9-21.6-10.7
				c-0.6-12.6,11.5-29.2,22.2-29.1c2.4,0,6,3.9,6.8,6.7c1.2,4.1,0.3,8.8,0.3,13.2C985.8,618.8,985.7,618.8,985.6,618.8z"/>
		</g>
		<g>
			<path class="st2" d="M962.4,580.8c5.7,5.3,9.2,8.5,13.3,12.4c-4.6,2.5-8.7,4.7-14.4,7.7C961.7,594.4,962,589.2,962.4,580.8z"/>
		</g>
		<g>
			<path class="st2" d="M395.9,590.8c1.4,4.3,2.3,7.3,3.6,11.2c-7.5-1.6-14-3-22.6-4.8C383.9,594.9,389.2,593.1,395.9,590.8z"/>
		</g>
	</g>
</g>
<g id="table">
	<g>
		<g>
			<path d="M1138,613.3c-2.4-4.5-3.9-8.9-2.7-13.9c0.3-1,0.7-2.5,1.4-2.8c3.2-1.6,2.4-2.2,2.4-5.1c-2.4,0-1.8-0.6-4.2-0.7
				c-29.6,2.8-50.6-1.1-68.6-3.4c-19.8-3.9-31.2-7.7-36.5-9.7c-6.3-2.5-7-4.3-7-11.2c0-2.3,0-4.1,0-6.3c0-3.1,1-6.4,3.7-8.2
				c4.8-3.1,11.9-5.4,17.3-6.8c11.9-3,24.3-3.5,36.5-4.6c24.3-2.3,49-2.8,73.4-2.6c21.7,0.2,43.3,1.1,64.9,3.3
				c13.8,1.4,27.5,3.5,40.8,7.5c3,0.9,0,0,6.9,2.9c3.6,1.7,9.5,2.5,7.8,8c-0.3,3.6,0.2,7.4,0.3,11c0,1.4-1.8,4.8-3.2,5.3
				c-6.1,2.3-8.8,2.6-15.9,5.9c-13.3,5.1-29.9,7-44.2,7.9c-20.8,1-33.9,2.6-53.1,1c-0.2,0-1.1,0.6-1.3,0.6c-1,3.1-0.1,2.5,2.1,4.6
				c2,1.9,2.5,4.5,2.1,6.9c-0.5,3.5-1.6,6.9-2.5,10.8c6.3,6.2,5.1,14.2,3,22.3c-0.6,2.4-1.5,4.8-2.8,6.9c-1.6,2.6-0.8,5.5-0.6,8.5
				c0.1,1.5-0.3,2.9,0,4.4c0.3,1.6-0.6,3.2,0.2,4.6c3.7,6.2,4.4,12.8,2,19.1c-2.1,5.5-4.1,10.7-4,16.5c0,0.4,1.8,0.6,1.8,0.9
				c2.5,0.5,3.3,1.1,5.7,1.7c8.3,2.2,13,8.2,16.3,15.8c0.1,0.2,0.2,0.4,0.3,0.7c3.1,12.7,13.3,17.7,23.9,22.2
				c4.9,2.1,6.8,3.9,6.9,8.1c0,1.4-0.2,2.2-1.8,2.3c-4.7,0.5-9.5,1.3-14.2,1.8c-3.5,0.4-6.4-1.6-9.2-3.2
				c-8.7-4.9-15.7-11.3-19.4-20.9c-1.2-3-2.9-6-4.8-8.6c-1.5-2-3.6-3.5-5.5-5.2c-0.3,0.2-0.6,0.4-1,0.6c0.8,2.8,1.4,5.7,2.6,8.3
				c1.8,4,4,7.8,5.9,11.8c1,2,1.7,4.2,2.5,6.3c0.5,1.3,0.2,2.1-1.4,2.4c-6.3,1.4-9.7,0.7-14.2-3.3c-1.9,3.2-3.6,6.4-5.6,9.5
				c-2.6,4-5.5,7.9-10.7,8.5c-2.7,0.3-5.4-0.2-8.1-0.5c-1.7-0.2-1.3-1.6-1.1-2.6c0.7-4.7,2.2-9.2,5.4-12.9
				c6.8-7.9,7.4-17.4,7.3-27.2c-0.2-0.2-0.4-0.3-0.6-0.5c-1.6,1.8-3.4,3.6-4.7,5.6c-1.4,2.1-2.6,4.5-3.5,6.9
				c-2.8,7.3-7.5,13-14,17.3c-1.4,1-2.8,2-4.3,3c-4.6,3-9.2,5.4-15.1,3.7c-3.2-0.9-6.7-0.9-10-1.5c-0.6-0.1-1.5-1.1-1.5-1.7
				c-0.4-4.7,1.5-7,6-8.4c7.2-2.1,13.3-6.2,18.8-11.3c1.8-1.6,2.8-4.1,4-6.3c1.1-2.2,1.9-4.6,2.9-7c4-9.6,11.5-14.3,21.6-15.5
				c0.5-0.1,0-1.1,0.9-1.2c-0.4-5,1.2-7.4-0.4-12.2c-2.7-3.9-3-7.4-3.1-11.5c-0.5-3.4,0.4-9.5,2.3-12.4c0.6-0.9,0.9-1.8,1.1-2.9
				c0.1-0.5,0.2-1.2,0.2-1.8c0.3-5.1,0.7-9.9-1.8-14.7c-3-5.7-3.9-12-2.9-18.5C1133.9,618.1,1134.9,616.1,1138,613.3z M1027.8,555.6
				c1.4,4.4,4.9,5.7,8.1,6.9c10.7,4.2,22.1,5.9,33.4,7.4c21,2.9,42.2,4.2,63.3,4.5c14.8,0.2,29.7,0.3,44.5-0.3
				c16.6-0.7,33.2-2,49.7-3.8c10.3-1.2,20.5-3.6,30.6-6c3.7-0.9,7.2-2.9,10.7-4.7c2.2-1.2,2.2-2.5,0.1-4c-1.9-1.4-4.2-2.5-6.4-3.3
				c-15.3-5.5-31.4-7.2-47.5-8.9c-9.6-1-19.2-1.7-28.9-2c-19.3-0.5-38.6-1.2-57.9-0.7c-19.5,0.6-39,2.4-58.4,4
				c-12.2,1-24.2,3.6-35.7,7.9C1031.6,553.4,1029.8,554.6,1027.8,555.6z M1269.9,560.3c-2,1.1-3.5,2.3-5.2,2.8
				c-7,2.1-13.9,4.5-21,5.9c-23.9,4.6-48.2,6.1-72.5,6.6c-15.1,0.3-30.3,0.5-45.4-0.1c-17.1-0.7-34.3-2-51.4-3.8
				c-10.6-1.1-21.2-3.4-31.7-5.7c-5.7-1.3-11.6-3-15.9-7.9c-0.2,2.3-0.3,4.5-0.2,6.7c0.1,7.1,0.1,7.1,6.7,9.5
				c0.6,0.2,1.2,0.4,1.8,0.6c16.6,5.4,33.6,8.5,50.9,9.8c17.5,1.3,35.1,2,52.6,2.4c22.4,0.5,44.9-0.2,67.2-2.1
				c14.9-1.3,29.8-3,44.3-6.8c6.2-1.6,12.1-4.1,18.2-6.3c0.7-0.3,1.5-1.4,1.6-2.2C1270.1,566.8,1269.9,563.7,1269.9,560.3z
				 M1134.9,626.4c0.4,6.1,2,11.6,5,16.7c0.5,0.8,1.4,1.6,2.2,1.9c3.8,1.2,6.5,0.1,11.6,0.2c1-0.3,2.2-1.2,2.6-2.1
				c1.6-4.1,3.3-8.1,4.2-12.4c0.9-4.1,0.6-8.5-1.4-12.4c-1.2-2.4-2.9-3.4-4.8-2.7c-3.7,1.4-7.4,1.1-11.1,0.1c-3.3-0.9-5.2-0.2-6.4,3
				C1135.8,621,1135.5,623.7,1134.9,626.4z M1207.7,745.9c0-0.2,0.1-0.4,0.1-0.6c-4.1-1.6-8.1-3.2-12.2-4.7
				c-9.4-3.4-16.2-9.6-20.4-18.7c-1.8-3.8-3.4-7.8-5.6-11.4c-3.2-5.5-8.5-8.3-14.4-10.1c0,2.7-0.1,5.1,0,7.5c0,0.5,0.6,1.4,1.1,1.6
				c5.8,2.2,8.8,7,11.4,12.3c1.7,3.7,3.3,7.5,5.6,10.9c4.5,6.7,11.4,10.7,18.5,14.1c0.9,0.4,2,0.7,3,0.6
				C1199,746.9,1203.3,746.4,1207.7,745.9z M1139.5,700.1c-0.2,0.1-0.5,0.1-0.8,0.2c-8.5,2.7-13.8,8.5-16.9,16.7
				c-4.3,11.6-12,19.8-23.9,23.8c-3.7,1.2-7.3,2.7-10.9,4.1c3.7,0.9,7.4,1.4,11.1,1.7c1.8,0.1,4,0.4,5.4-0.4
				c9.2-4.9,18-10.3,22-20.8c0.6-1.5,1.4-3,2.2-4.4c2.3-4.4,4.9-8.4,9.3-11c0.5-0.3,0.9-1.2,1-1.9
				C1138.6,705.5,1139,702.9,1139.5,700.1z M1159.1,669.3c-0.9-2.5-1.7-5-2.6-7.4c-0.5-1.3-1.6-1.5-3.1-1.3
				c-2.9,0.3-5.9,0.5-8.9,0.3c-3.9-0.3-5,0.1-6.3,3.8c-0.3,0.7-0.4,1.5-0.6,2.3c-1.2,6.4,2.7,12,3.7,17.6c0.2,0.4,0.8,0.8,1.3,0.9
				c3.1,0.2,6.2,0.5,9.2,0.4c1.1,0,2.6-0.9,3-1.9C1156.8,679.3,1158.6,674.6,1159.1,669.3z M1128.8,753.5c4.6,0.6,8.3-0.1,11.1-3.5
				c1-1.3,2.1-2.6,3-3.9c4-5.9,7.7-12,8.1-19.5c0.3-6.7,0.8-13.5,0.8-20.2c0-1.8-1-3.8-2.2-5.3c-1.6-2-3.5-1.5-3.9,1
				c-0.8,5.2-1.2,10.4-1.9,15.6c-0.6,4.4-0.8,8.9-1.9,13.2c-1.8,6.7-5.8,12.3-9.7,17.9C1131.1,750.2,1130,751.8,1128.8,753.5z
				 M1159.2,603.3c-0.4-1.8-0.4-3.1-0.9-4.2c-0.5-1.2-1.5-2.1-3-1.5c-4.7,2-9.4,1.1-14.1,0.3c-2.6-0.5-3.7,0.3-4,2.9
				c-0.3,3.7,0.3,7.3,2.2,10.4c0.8,1.3,2.4,2.3,3.9,3c1.3,0.6,2.9,0.7,4.3,0.9c4.1,0.6,7.6-0.9,9.1-4.3
				C1157.9,608.3,1158.5,605.5,1159.2,603.3z M1086.3,743.8c5.5-2.2,10.7-4.1,15.8-6.3c7-3,12.1-8,15.5-14.7
				c1.3-2.5,2.5-5.1,3.5-7.7c2.7-6.5,6.8-11.8,13.5-14.6c0.3-0.1,0.6-0.4,1.1-0.8c-8.1,1.2-14,5.1-17.4,12.3c-1.2,2.6-2.4,5.3-3.3,8
				c-1.3,4-3.7,7.2-7.1,9.7c-5.5,4.1-11.2,7.7-17.9,9.6C1088.2,740,1086.4,740.9,1086.3,743.8z M1208.4,744.5
				c0.3-0.4,0.6-0.8,0.8-1.2c-1.1-1-2-2.5-3.2-2.8c-6.2-1.7-11.4-5.5-16.9-8.6c-4.4-2.5-7.4-6.2-9.1-11c-1.3-3.7-2.8-7.4-4.7-10.7
				c-3.4-6-9.1-8.8-15.7-9.8c5.5,2.6,10.1,6.4,12.7,12c1.2,2.6,2.4,5.3,3.6,7.9c2.9,6.2,6.5,12.1,12.7,15.3
				C1195,738.9,1201.8,741.5,1208.4,744.5z M1141.5,659.5c3.7,0,7.2,0.1,10.7-0.1c0.7,0,1.9-0.7,1.9-1.1c0.1-3.9,0.1-7.9,0.1-11.5
				c-4.9,1.3-8.4,0-12.7,0C1141.5,650.6,1141.5,654.7,1141.5,659.5z M1154.4,687.1c-4.3,0-8.6,0-13,0c0,2.6,0,5.6,0,8.6
				c0,1.8,0.9,2.2,2.5,2.2c2,0.1,4,0.3,5.9,0.7c1.8,0.4,3.7-0.2,3.8-1.4C1154,693.7,1154.2,690.2,1154.4,687.1z M1126.9,752
				c0.3,0.2,0.6,0.4,0.9,0.5c1.8-2.5,3.6-4.9,5.3-7.5c4.4-6.5,8.4-13.3,9.2-21.4c0.8-7.8-0.3-15.8,2.6-23.5
				c-2.6,0.1-3.5,1.6-3.7,3.5c-0.5,4.5-1.1,9-1.2,13.6c0,8.7-2,16.6-7.4,23.8C1130,744.2,1128.7,748.3,1126.9,752z M1153.7,715.9
				c0,0-0.1,0.2-0.2,0.3c0,0.5-0.1,1.1-0.1,1.6c0.4,5.6,0.3,11.1-1.5,16.5c-0.2,0.6,0.4,1.8,0.9,2.4c3.1,3.1,6.9,3.3,11.3,2.2
				C1160.7,731.1,1157.2,723.5,1153.7,715.9z M1154.6,589.8c-4.5,0-8.8,0-13.1,0c0,2.3,0,4.5,0,6.8c3.9,0.8,7.7,1.4,11.6,0.3
				c0.6-0.2,1.3-0.9,1.4-1.4C1154.7,593.6,1154.6,591.7,1154.6,589.8z"/>
		</g>
		<g>
			<path class="st4" d="M1027.8,555.6c1.9-1,3.8-2.2,5.8-2.9c11.5-4.3,23.5-6.9,35.7-7.9c19.5-1.6,38.9-3.5,58.4-4
				c19.3-0.6,38.6,0.2,57.9,0.7c9.6,0.2,19.3,0.9,28.9,2c16,1.7,32.1,3.4,47.5,8.9c2.3,0.8,4.5,2,6.4,3.3c2.1,1.5,2,2.8-0.1,4
				c-3.4,1.9-6.9,3.9-10.7,4.7c-10.1,2.4-20.3,4.8-30.6,6c-16.5,1.9-33.1,3.1-49.7,3.8c-14.8,0.7-29.7,0.6-44.5,0.3
				c-21.2-0.3-42.3-1.6-63.3-4.5c-11.3-1.5-22.7-3.3-33.4-7.4C1032.7,561.2,1029.3,560,1027.8,555.6z"/>
		</g>
		<g>
			<path class="st3" d="M1269.9,560.3c0,3.4,0.1,6.5-0.1,9.5c0,0.8-0.9,1.9-1.6,2.2c-6,2.2-12,4.7-18.2,6.3
				c-14.5,3.8-29.4,5.5-44.3,6.8c-22.4,2-44.8,2.7-67.2,2.1c-17.6-0.4-35.1-1.1-52.6-2.4c-17.3-1.3-34.3-4.4-50.9-9.8
				c-0.6-0.2-1.2-0.4-1.8-0.6c-6.6-2.5-6.6-2.5-6.7-9.5c0-2.2,0-4.5,0.2-6.7c4.4,4.9,10.2,6.6,15.9,7.9c10.5,2.3,21,4.6,31.7,5.7
				c17.1,1.8,34.2,3.1,51.4,3.8c15.1,0.6,30.3,0.4,45.4,0.1c24.3-0.6,48.6-2,72.5-6.6c7.1-1.4,14-3.8,21-5.9
				C1266.4,562.6,1268,561.4,1269.9,560.3z"/>
		</g>
		<g>
			<path class="st3" d="M1134.9,626.7c0.6-2.7,1-5.6,2-8.1c1.2-3.2,3.1-3.9,6.4-3.1c3.7,1,7.4,1.3,11.1-0.1c1.9-0.7,3.6,0.3,4.8,2.8
				c2,4.1,2.2,8.5,1.4,12.7c-0.9,4.3-2.6,8.5-4.2,12.7c-0.4,0.9-1.6,1.7-2.6,2.2c-6.3-0.3-7.9,0.1-11.7,0c-0.9-0.3-1.8-1.1-2.2-2
				C1136.8,638.7,1135.2,632.9,1134.9,626.7z"/>
		</g>
		<g>
			<path class="st3" d="M1207.7,745.9c-4.4,0.5-8.7,1-13.1,1.4c-1,0.1-2.1-0.2-3-0.6c-7.1-3.4-14-7.4-18.5-14.1
				c-2.3-3.3-3.8-7.2-5.6-10.9c-2.5-5.3-5.5-10-11.4-12.3c-0.5-0.2-1-1-1.1-1.6c-0.1-2.4,0-4.8,0-7.5c5.9,1.8,11.2,4.6,14.4,10.1
				c2.1,3.6,3.8,7.6,5.6,11.4c4.2,9.1,11,15.3,20.4,18.7c4.1,1.5,8.2,3.1,12.2,4.7C1207.7,745.5,1207.7,745.7,1207.7,745.9z"/>
		</g>
		<g>
			<path class="st3" d="M1139.5,700.1c-0.5,2.8-0.9,5.4-1.5,8.1c-0.1,0.7-0.5,1.6-1,1.9c-4.4,2.6-7,6.6-9.3,11
				c-0.8,1.5-1.6,2.9-2.2,4.4c-4,10.5-12.8,15.9-22,20.8c-1.5,0.8-3.6,0.5-5.4,0.4c-3.7-0.3-7.4-0.8-11.1-1.7
				c3.6-1.4,7.2-2.9,10.9-4.1c12-4,19.6-12.2,23.9-23.8c3-8.2,8.4-14,16.9-16.7C1139,700.2,1139.3,700.1,1139.5,700.1z"/>
		</g>
		<g>
			<path class="st3" d="M1159.1,669.3c-0.5,5.3-2.3,10-4.2,14.6c-0.4,0.9-2,1.8-3,1.9c-3.1,0.1-6.2-0.2-9.2-0.4
				c-0.5,0-1.1-0.5-1.3-0.9c-2.3-5.6-4.9-11.2-3.7-17.6c0.1-0.8,0.3-1.5,0.6-2.3c1.3-3.6,2.5-4.1,6.3-3.8c2.9,0.3,5.9,0,8.9-0.3
				c1.5-0.2,2.5,0,3.1,1.3C1157.4,664.3,1158.2,666.8,1159.1,669.3z"/>
		</g>
		<g>
			<path class="st3" d="M1128.8,753.5c1.2-1.8,2.3-3.3,3.3-4.8c3.9-5.6,8-11.2,9.7-17.9c1.1-4.3,1.4-8.8,1.9-13.2
				c0.7-5.2,1-10.4,1.9-15.6c0.4-2.5,2.3-3,3.9-1c1.2,1.4,2.2,3.5,2.2,5.3c0,6.7-0.4,13.5-0.8,20.2c-0.4,7.5-4,13.6-8.1,19.5
				c-0.9,1.4-2,2.6-3,3.9C1137.1,753.5,1133.4,754.2,1128.8,753.5z"/>
		</g>
		<g>
			<path class="st3" d="M1159.2,603.3c-0.7,2.2-1.3,5-2.4,7.5c-1.5,3.4-5,4.9-9.1,4.3c-1.5-0.2-3-0.3-4.3-0.9
				c-1.5-0.7-3.1-1.7-3.9-3c-2-3.1-2.6-6.7-2.2-10.4c0.2-2.6,1.4-3.4,4-2.9c4.7,0.9,9.4,1.7,14.1-0.3c1.5-0.6,2.5,0.2,3,1.5
				C1158.7,600.2,1158.8,601.5,1159.2,603.3z"/>
		</g>
		<g>
			<path class="st3" d="M1086.3,743.8c0.1-2.9,1.9-3.8,3.9-4.4c6.7-1.9,12.4-5.6,17.9-9.6c3.4-2.5,5.7-5.7,7.1-9.7
				c0.9-2.7,2-5.4,3.3-8c3.4-7.2,9.3-11.1,17.4-12.3c-0.5,0.4-0.8,0.6-1.1,0.8c-6.7,2.9-10.8,8.1-13.5,14.6
				c-1.1,2.6-2.3,5.2-3.5,7.7c-3.4,6.7-8.5,11.8-15.5,14.7C1097,739.7,1091.8,741.6,1086.3,743.8z"/>
		</g>
		<g>
			<path class="st3" d="M1208.4,744.5c-6.6-2.9-13.4-5.6-19.8-8.9c-6.3-3.2-9.8-9.1-12.7-15.3c-1.2-2.6-2.4-5.3-3.6-7.9
				c-2.6-5.7-7.2-9.4-12.7-12c6.7,1,12.3,3.8,15.7,9.8c1.9,3.4,3.4,7.1,4.7,10.7c1.7,4.8,4.7,8.5,9.1,11c5.5,3.1,10.7,6.8,16.9,8.6
				c1.2,0.3,2.2,1.9,3.2,2.8C1208.9,743.7,1208.7,744.1,1208.4,744.5z"/>
		</g>
		<g>
			<path class="st3" d="M1141.5,659.5c0-4.8,0-8.9,0-12.7c4.3,0,8.5,0,12.7,0c0,3.6,0.1,7.5-0.1,11.5c0,0.4-1.2,1.1-1.9,1.1
				C1148.7,659.6,1145.2,659.5,1141.5,659.5z"/>
		</g>
		<g>
			<path class="st3" d="M1154.4,687.1c-0.2,3.1-0.4,6.6-0.8,10.1c-0.1,1.3-2,1.8-3.8,1.4c-1.9-0.4-3.9-0.6-5.9-0.7
				c-1.6-0.1-2.5-0.4-2.5-2.2c0.1-3,0-5.9,0-8.6C1145.9,687.1,1150.1,687.1,1154.4,687.1z"/>
		</g>
		<g>
			<path class="st3" d="M1126.9,752c1.8-3.7,3.1-7.8,5.6-11c5.4-7.1,7.4-15,7.4-23.8c0-4.5,0.7-9.1,1.2-13.6
				c0.2-1.9,1.2-3.4,3.7-3.5c-2.9,7.7-1.8,15.7-2.6,23.5c-0.8,8.1-4.8,14.8-9.2,21.4c-1.7,2.5-3.5,5-5.3,7.5
				C1127.5,752.4,1127.2,752.2,1126.9,752z"/>
		</g>
		<g>
			<path class="st3" d="M1153.7,715.9c3.5,7.6,6.9,15.2,10.5,23c-4.5,1.2-8.2,1-11.3-2.2c-0.6-0.6-1.1-1.8-0.9-2.4
				c1.8-5.4,2-10.9,1.5-16.5c0-0.5,0-1.1,0.1-1.6C1153.6,716,1153.7,715.9,1153.7,715.9z"/>
		</g>
		<g>
			<path class="st3" d="M1154.6,589.8c0,2,0.1,3.8-0.1,5.7c0,0.5-0.8,1.2-1.4,1.4c-3.9,1.1-7.7,0.4-11.6-0.3c0-2.3,0-4.4,0-6.8
				C1145.8,589.8,1150.1,589.8,1154.6,589.8z"/>
		</g>
	</g>
</g>
<g id="door">
	<g>
		<path class="st2" d="M232.5,331.3c-1.5-47.4-46.8-85.5-102.5-85.5S29.1,283.9,27.5,331.3l0,0v330.5l205-2
			C232.5,659.8,232.5,350.3,232.5,331.3L232.5,331.3z"/>
		<path class="st5" d="M24,665.3V327.8h0.2c1.7-22.7,13-43.8,32-59.7c19.9-16.6,46.1-25.8,73.8-25.8s53.9,9.2,73.8,25.8
			c19,15.9,30.3,37,32,59.7h0.2v335.5L24,665.3z M31,332.7v325.6l198-1.9V332.3v-0.9c-0.7-22-11.3-42.6-29.7-58
			c-18.6-15.5-43.2-24.1-69.3-24.1s-50.7,8.6-69.3,24.1c-18.4,15.4-29,36-29.7,58L31,332.7z"/>
	</g>
	<g>
		<circle class="st3" cx="56" cy="458.3" r="12.5"/>
		<path class="st5" d="M56,471.3c-7.2,0-13-5.8-13-13s5.8-13,13-13s13,5.8,13,13S63.2,471.3,56,471.3z M56,446.3
			c-6.6,0-12,5.4-12,12s5.4,12,12,12s12-5.4,12-12S62.6,446.3,56,446.3z"/>
	</g>
</g>
</svg>
