<?xml version="1.0" encoding="utf-8"?>
<!-- Generator: Adobe Illustrator 21.0.2, SVG Export Plug-In . SVG Version: 6.00 Build 0)  -->
<svg version="1.1" id="Heart" xmlns="http://www.w3.org/2000/svg" xmlns:xlink="http://www.w3.org/1999/xlink" x="0px" y="0px"
	 viewBox="0 0 251.3 243" style="enable-background:new 0 0 251.3 243;" xml:space="preserve">
<style type="text/css">
	.st0{fill:#EF6EA8;}
	.st1{fill:#F498C1;}
	.st2{fill:#FFFFFF;}
</style>
<g id="Base">
	<path class="st0" d="M114,199.7c-7.7-7.9-15-16-21.8-24.2c-0.8-0.9-1.6-1.9-2.4-2.9c-17.6-21.8-32.2-45-44.5-70.8
		c-1.7-3.5-3-6.9-4-10.4c0,0,0,0,0,0c0,0,0,0,0,0c-13.4-43.8,21.8-80.5,55-85c0,0,0,0,0,0c0,0,0,0,0,0c0.2,0,0.5-0.1,0.7-0.1
		c-2.2-0.5-58.5-1.9-78.6,28.1c-21.9,32.6-7,62-7,62C23.7,150.7,123,238.1,123,238.1l32.1-0.9C140,224.8,126.4,212.5,114,199.7z"/>
	<path class="st0" d="M196.5,21.5C196.5,21.5,196.5,21.5,196.5,21.5c0,0-38-2.6-46.9,4.6c0,0,0.3,0.7,0.9,1.8
		c7.8,8.2,11.7,15.6,11.7,15.6C174.3,27.5,186.4,22.2,196.5,21.5z"/>
	<path class="st1" d="M221,28.8c0,0-10.2-8.3-24.5-7.3c-10.1,0.7-22.2,6-34.4,22c0,0-3.8-7.4-11.7-15.6c-9.2-9.7-24-20.6-44.5-21.9
		c-2.9-0.2-5.9-0.1-8.9,0.3c-0.2,0-0.5,0.1-0.7,0.1c0,0,0,0,0,0c-33.2,4.5-68.4,41.2-55,85c0,0,0,0,0,0.1c1,3.4,2.4,6.9,4,10.4
		c12.3,25.8,26.9,49,44.5,70.8c0.8,1,1.6,1.9,2.4,2.9c6.8,8.3,14,16.3,21.8,24.2c12.4,12.7,26,25.1,41.1,37.4
		c0,0,60.7-66.9,80-124.4C235.1,112.7,258.9,59.1,221,28.8z"/>
</g>
<g>
	<path class="st2" d="M87.5,111l14.4,14.1l-1.8-15.6l4-0.5l2.6,22.4l-3.5,0.4l-14.5-14.4l1.9,15.9l-4,0.5l-2.6-22.4L87.5,111z"/>
	<path class="st2" d="M115.4,114.9c2.1-0.2,3.8,0.3,5.2,1.5s2.2,3.1,2.5,5.6l0.1,0.6l-10,1.2c0.3,1.3,0.9,2.3,1.8,2.9s2,0.9,3.4,0.7
		c0.9-0.1,1.7-0.4,2.5-0.8c0.8-0.4,1.6-1,2.4-1.8l0.3,2.9c-1.5,1.4-3.4,2.3-5.8,2.6c-2.2,0.3-4.1-0.2-5.7-1.5
		c-1.6-1.3-2.5-3.1-2.8-5.4c-0.3-2.3,0.2-4.2,1.3-5.8C111.7,116.1,113.3,115.1,115.4,114.9z M119.4,120.7c-0.2-1.1-0.6-1.9-1.2-2.4
		c-0.6-0.6-1.4-0.8-2.3-0.7c-0.9,0.1-1.7,0.5-2.2,1.1c-0.5,0.7-0.8,1.6-0.8,2.7L119.4,120.7z"/>
	<path class="st2" d="M127.8,113.7l4.1,4.3l2.8-5.1l4.5-0.5l-4.8,8l7,6.9l-4.5,0.5l-4.4-4.5l-3.1,5.4l-4.3,0.5l5-8.3l-6.7-6.7
		L127.8,113.7z"/>
	<path class="st2" d="M145,107.7l0.3,0l0.5,4l4.8-0.6l0.3,3l-4.8,0.6l0.8,6.9c0.1,0.7,0.3,1.2,0.8,1.6c0.4,0.4,1,0.5,1.6,0.4
		c0.9-0.1,1.8-0.6,2.9-1.3l0.4,3.2c-1.3,0.8-2.5,1.2-3.7,1.4c-1.6,0.2-2.9-0.1-3.9-0.9c-1-0.8-1.6-2-1.8-3.6l-0.8-7.2l-2.2,0.3
		l-0.1-0.6L145,107.7z"/>
	<path class="st2" d="M174.1,100.8l0.4,3.4l-8.8,1l0.7,5.8l8.8-1l0.4,3.4l-8.8,1l1.1,9.8l-4.1,0.5l-2.6-22.4L174.1,100.8z"/>
	<path class="st2" d="M183.3,106.9c1.8-0.2,3.3,0,4.3,0.7c1.1,0.7,1.7,1.8,1.8,3.2l0.9,7.3c0.1,0.6,0.3,0.8,0.8,0.8
		c0.2,0,0.4-0.1,0.7-0.3c0.3-0.2,0.6-0.4,0.8-0.7l0.3,2.3c-1.2,1-2.3,1.6-3.4,1.7c-0.7,0.1-1.2,0-1.6-0.2c-0.4-0.2-0.7-0.6-0.9-1.2
		c-1.3,1.2-2.7,1.9-4.1,2.1c-1,0.1-1.9-0.1-2.8-0.8c-0.8-0.6-1.3-1.5-1.4-2.5c-0.2-1.3,0.1-2.4,0.7-3.2c0.6-0.8,1.8-1.6,3.6-2.4
		l2.9-1.3l-0.1-0.7c-0.2-1.5-1.1-2.1-2.8-1.9c-0.9,0.1-1.7,0.4-2.5,0.9c-0.8,0.5-1.5,1.2-2.1,2.1l-0.4-3.5
		C179.4,108,181.2,107.2,183.3,106.9z M182.3,118.4c0.1,0.5,0.3,1,0.6,1.3c0.4,0.3,0.8,0.4,1.3,0.4c0.8-0.1,1.6-0.6,2.3-1.5
		l-0.5-3.9c-1,0.5-1.8,0.9-2.3,1.3c-0.6,0.4-0.9,0.8-1.2,1.2C182.4,117.5,182.3,117.9,182.3,118.4z"/>
	<path class="st2" d="M200,105c1.6-0.2,3.2,0,4.6,0.5l0.4,3.3c-1.4-0.7-2.7-0.9-3.9-0.8c-1.3,0.1-2.3,0.7-3,1.6
		c-0.7,0.9-1,2.1-0.8,3.5c0.2,1.4,0.7,2.5,1.6,3.2c0.9,0.8,2,1.1,3.4,0.9c1-0.1,2.3-0.6,3.8-1.5l0.4,3.2c-1.4,0.8-2.9,1.3-4.4,1.5
		c-2.3,0.3-4.2-0.2-5.8-1.4s-2.5-3-2.8-5.3c-0.3-2.4,0.2-4.4,1.4-6C196,106.2,197.7,105.2,200,105z"/>
	<path class="st2" d="M210.9,100l0.3,0l0.5,4l4.8-0.6l0.3,3l-4.8,0.6l0.8,6.9c0.1,0.7,0.3,1.2,0.8,1.6c0.4,0.4,1,0.5,1.6,0.4
		c0.9-0.1,1.8-0.5,2.9-1.3l0.4,3.2c-1.3,0.8-2.5,1.2-3.7,1.4c-1.6,0.2-2.9-0.1-3.9-0.9c-1-0.8-1.6-2-1.8-3.6l-0.8-7.2l-2.2,0.3
		l-0.1-0.6L210.9,100z"/>
</g>
</svg>
