<?xml version="1.0" encoding="utf-8"?>
<!-- Generator: Adobe Illustrator 21.0.2, SVG Export Plug-In . SVG Version: 6.00 Build 0)  -->
<svg version="1.1" id="Layer_1" xmlns="http://www.w3.org/2000/svg" xmlns:xlink="http://www.w3.org/1999/xlink" x="0px" y="0px"
	 viewBox="0 0 470.5 78.9" style="enable-background:new 0 0 470.5 78.9;" xml:space="preserve">
<style type="text/css">
	.st0{fill:#F96495;}
	.st1{fill:#F96495;stroke:#F96495;stroke-miterlimit:10;}
</style>
<g>
	<path class="st0" d="M10.4,11.6c-0.4,1-1,2-1.9,2.9C8.3,14.8,8,15,7.7,15.3S7.2,15.8,7,15.9c-0.2,0.1-0.4,0.4-0.9,0.7
		c-0.4,0.3-0.7,0.5-0.8,0.6c-0.2,0.2-0.5,0.5-0.9,0.7c-0.2,0.1-0.3,0.4-0.3,0.7C4,20,3.9,20.8,3.9,21.1c0,0.4,0,1,0,1.8s0,1.4,0,1.8
		c0,0.5,0,1.3-0.1,2.3c0,0.2-0.1,0.4-0.2,0.4c-0.3,0.1-0.4,0.2-0.6,0.2c-0.2,0-0.5,0.1-0.8,0.2c-0.4,0.1-0.6,0.1-0.8,0.2H1.3H1.2
		c0,0-0.1,0-0.2,0s-0.2,0-0.2,0H0.7c-0.1,0-0.1,0-0.1-0.1l-0.1-0.1c-0.1,0-0.1-0.1-0.1-0.2s-0.1-0.2-0.1-0.3
		c-0.2-0.4-0.3-0.9-0.2-1.4c0-0.3,0-0.8,0-1.5c0-0.6,0-1,0-1.2c0-1,0-1.8,0-2.3l0.3-4.2c0.1-1.5,0.2-3.1,0.2-4.5v-1.3
		c0-0.4,0-1.1,0-1.9c0-0.9,0.1-1.5,0.1-1.9v-1c0-0.3-0.1-0.4-0.4-0.5L0.2,5.4C0.1,5.4,0,5.2,0,5s0.1-0.3,0.2-0.4
		c0.2-0.1,0.3-0.1,0.4-0.1c1.3-0.4,2.3-0.6,3.2-0.6c1,0,1.7-0.1,2,0c1,0.1,1.7,0.3,2,0.5c0.1,0,0.2,0,0.3,0.1C9,4.7,9.7,5.2,10.1,6
		c0.1,0.1,0.2,0.5,0.4,1c0.3,0.9,0.4,1.5,0.4,2C11.1,9.8,10.9,10.6,10.4,11.6z M5.1,15.6c1-0.8,1.7-1.5,2.2-2.1
		c1.1-1.3,1.8-2.7,2.2-4c0.2-0.6,0.2-1.3,0-1.9c0-0.2-0.1-0.4-0.3-0.8c0-0.4-0.3-0.7-0.6-0.9C7.6,5.5,7.1,5.2,7,5.2
		C6.8,5.2,6.3,5.1,5.5,5C5.3,5,5.2,5,5.1,5.1S5,5.3,5,5.5V6c0,0.5-0.1,1.3-0.2,2.4c0,1.1-0.1,2-0.1,2.5c-0.1,1.1-0.1,2.6-0.2,4.7
		c0,0,0,0,0,0.1v0.1v0.1V16C4.9,15.8,5.1,15.7,5.1,15.6z"/>
	<path class="st0" d="M17.4,6.9c-0.2,0.9-0.3,2.4-0.3,4.5L17,16.9v3.6c0,0.4,0,1.1-0.1,2c0,0.9-0.1,1.6-0.1,2c0,0.2,0,0.5,0,1
		c0,0.4,0,0.7,0,1c0,0.2,0,0.4-0.1,0.4s-0.2,0.1-0.4,0.2c-0.4,0.2-0.9,0.3-1.5,0.4c-0.3,0-0.7,0-1.2,0c-0.1,0-0.3-0.1-0.3-0.2
		c-0.3-0.6-0.4-1-0.4-1.3c0-0.1,0-0.4,0-0.7c0-0.3,0-0.5,0-0.7c0-0.5,0.1-3.7,0.1-9.5c0-1.9,0.1-3.9,0.2-5.8c0-0.4,0.1-1,0.1-1.8
		c0.1-0.8,0.1-1.4,0.1-1.8c0-0.3,0-0.7,0-1.2s0.2-0.8,0.6-0.9c0.7-0.1,1.1-0.1,1.4-0.1C16,3.6,16.5,3.7,17,4
		c0.3,0.1,0.5,0.3,0.6,0.4s0.1,0.4,0.1,0.8C17.6,6,17.5,6.6,17.4,6.9z"/>
	<path class="st0" d="M19.2,19c0-1.8,0.3-4.5,1-8c0.2-1.3,0.6-2.5,1.2-3.5c0.6-1.2,1-1.9,1.3-2.3C23.3,4.5,24,4,25,3.8
		c0.4-0.1,0.8-0.1,1,0.1c0,0,0,0,0.1,0L26.2,4l0.1,0.1c0,0,0,0.1-0.1,0.1l-0.1,0.1H26c-0.1,0-0.2,0-0.4,0.1
		c-0.2,0.1-0.3,0.1-0.4,0.1c-0.6,0.1-1.2,0.6-1.7,1.4c-0.2,0.3-0.3,0.5-0.5,0.8c-0.1,0.3-0.3,0.7-0.5,1.1c-0.2,0.4-0.3,0.7-0.4,0.9
		c-0.3,0.7-0.5,1.3-0.6,2c-0.2,1.3-0.4,3-0.7,5.1c0,0-0.1,0.6-0.2,1.7c-0.1,0.6,0,1.5,0.2,2.8c0.1,0.7,0.5,1.5,1.3,2.4
		c0.4,0.4,0.9,0.6,1.6,0.5c0.6-0.1,1-0.3,1.4-0.5c0.5-0.3,0.8-0.6,1.1-0.9c1.3-1.7,2.4-3.3,3.1-4.9l0.2-0.4c0.1-0.3,0.4-0.4,0.7-0.3
		c0,0,0.1,0,0.2,0.1c0.3,0.1,0.5,0.3,0.5,0.4c0,0.1,0.1,0.4,0,0.8c-0.2,1.3-0.5,2.4-1.1,3.3c-0.9,1.6-1.5,2.6-1.9,3.2
		c-0.9,1.4-2.1,2.5-3.5,3.1c-1.1,0.6-2.2,0.4-3.2-0.4c-0.6-0.5-1.1-1.1-1.4-2c0-0.1-0.1-0.2-0.2-0.3c-0.2-0.2-0.3-0.5-0.3-0.9
		s-0.1-0.7-0.1-0.9l0,0C19.2,21.7,19.2,20.5,19.2,19z"/>
	<path class="st0" d="M36.8,13.7c0,0.1,0,0.2,0,0.2c0,0.1,0,0.1,0,0.2c-0.1,2-0.1,3.4-0.2,4.4c0,0.4,0,0.9,0,1.5s0,1,0,1.2
		c0,0.3,0,0.6,0,1.1s0,0.9,0,1.1s0,0.4,0,0.8c0,0.3,0,0.6,0,0.8c0,0.3,0,0.5,0,0.6c0,0.3-0.2,0.5-0.4,0.6c-0.4,0.2-0.8,0.3-1.2,0.5
		c-0.1,0-0.3,0.1-0.5,0.2S34.1,27,34,27.1c-0.2,0.1-0.4,0.1-0.5,0s-0.2-0.2-0.4-0.4c-0.3-0.5-0.4-1.1-0.4-1.8c0-0.7,0-1.4,0-2.2
		c0-0.8,0-1.6,0-2.6s0-1.7,0-2.2c0-0.4,0.1-1,0.1-1.8c0-0.8,0.1-1.4,0.1-1.8c0-0.5,0-1.2,0.1-2.1c0-0.9,0.1-1.6,0.1-2.1
		c0-0.1,0-0.4,0-0.8c0-0.4,0-0.8,0-1c0-0.3,0-0.9,0-1.6s0-1.3,0-1.6c0-0.9,0.3-1.4,1.2-1.5c0.9,0,1.6,0.1,2.2,0.5
		c0.4,0.2,0.6,0.6,0.5,1c-0.1,1.2-0.1,2-0.2,2.6v1.9c0.1-0.1,0.2-0.1,0.3-0.2c0.3-0.3,0.7-0.9,1.3-1.6s1-1.3,1.3-1.6
		c0.1-0.1,0.2-0.3,0.4-0.6c0.2-0.2,0.3-0.4,0.4-0.5c0.2-0.2,0.3-0.4,0.4-0.4c0.5-0.2,0.8-0.2,1,0.2c0,0,0,0.1,0.1,0.1
		c0,0,0,0.1,0.1,0.1c0.2,0.3,0.3,0.5,0.2,0.6c0,0.1-0.1,0.3-0.3,0.5c-1.5,1.7-2.5,2.9-3.2,3.8c-0.1,0.1-0.4,0.5-0.8,1.1
		c-0.1,0.2-0.2,0.4-0.1,0.7c0.6,1.3,1.1,2.5,1.5,3.7c0.4,1.1,1.1,2.8,2,5.1c0.1,0.3,0.3,0.8,0.5,1.5c0.2,0.6,0.3,1,0.4,1.2
		s0.2,0.6,0.4,1.3c0.2,0.7,0.4,1.2,0.6,1.5c0.1,0.3,0.1,0.6,0,0.9c-0.1,0.4-0.3,0.6-0.5,0.7c-0.4,0.2-0.7,0-0.9-0.4
		c-0.1-0.2-0.2-0.4-0.2-0.6c-0.1-0.2-0.1-0.5-0.2-0.9c-0.1-0.4-0.2-0.7-0.2-0.9c-0.8-2.4-1.2-3.7-1.4-4.1c-0.6-1.7-1.5-3.8-2.5-6.4
		c0-0.1-0.1-0.2-0.1-0.3c-0.2-0.5-0.3-0.6-0.3-0.6h-0.1h-0.1C36.8,13.6,36.8,13.6,36.8,13.7z"/>
	<path class="st0" d="M57.4,8.3c0-0.5,0-0.9,0-1.1V6.7c0-0.3-0.1-0.5-0.1-0.5c-0.1-0.1-0.2-0.1-0.4-0.1h-2.1c-0.3,0-0.5,0-0.6,0
		S53.9,6,53.8,5.8c-0.1-0.2-0.1-0.4-0.1-0.5c0-0.3,0.2-0.5,0.5-0.5c0.2,0,0.6,0,1,0s0.8,0,1.2,0s0.7,0,1,0c1,0,1.8-0.1,2.1-0.2
		c0.8-0.2,2.1-0.3,3.7-0.3c0.4,0,0.9,0,1.6-0.1c0.7,0,1.2-0.1,1.4-0.1c0.4,0,0.7,0.2,0.8,0.7c0.1,0.3,0,0.4-0.2,0.5c0,0-0.1,0-0.2,0
		s-0.1,0-0.2,0c-1,0-2.4,0.1-4.4,0.1h-0.3c-0.3,0-0.5,0.1-0.6,0.2S61,6,61.1,6.4c0,0.3,0,0.5,0,0.6c0,0.9-0.1,1.5-0.1,1.9
		c0,0.4-0.1,1.1-0.2,1.9c0,0.2-0.1,0.6-0.1,1s-0.1,0.8-0.1,1.2s-0.1,0.7-0.1,1c-0.2,2.5-0.3,4.2-0.4,5.3c-0.1,1.5-0.2,2.8-0.3,3.9
		s-0.1,1.9-0.2,2.3c0,0.1,0,0.3,0,0.5s0,0.4,0,0.5c0,0.3-0.1,0.5-0.4,0.6c-0.3,0.1-0.6,0.2-1.1,0.3c-0.5,0.1-0.8,0.1-0.9,0.2
		c-0.1,0-0.4,0-0.8-0.1c-0.4-0.1-0.6-0.5-0.5-1.1c0-0.5,0.1-1.5,0.3-2.9c0.1-1.4,0.3-2.7,0.3-3.6c0.1-1.3,0.2-3.3,0.4-6.1
		c0-0.4,0.1-1.1,0.1-1.9c0-0.9,0.1-1.5,0.1-1.9V9.4l0,0C57.3,9.2,57.4,8.8,57.4,8.3z"/>
	<path class="st0" d="M74.5,20.2c0-1.5,0.1-2.6,0.1-3.3c0-0.2,0-0.4-0.1-0.5c-0.1-0.1-0.2-0.1-0.4-0.1c-0.8,0-1.5,0-2.1-0.1
		c-0.4-0.1-0.6,0.1-0.6,0.4c-0.2,2.6-0.3,4.3-0.4,4.9c0,0.3-0.1,0.9-0.1,1.5c-0.1,0.7-0.1,1.2-0.1,1.5c0,0,0,0.3,0,0.9v0.9
		c0,0.2,0,0.3-0.1,0.4c0,0-0.2,0.1-0.4,0.2c-0.4,0.1-1.2,0.2-2.5,0.4c-0.3,0-0.6-0.1-0.8-0.3c-0.2-0.2-0.3-0.5-0.3-0.8
		c0.1-2.7,0.2-4.1,0.2-4.1c0.2-3.1,0.4-5.4,0.4-6.8l0.3-3.7c0-0.4,0.1-0.9,0.2-1.7c0.1-0.7,0.1-1.3,0.1-1.7c0-0.2,0.1-0.6,0.1-1
		c0.1-0.5,0.1-0.8,0.1-1c0-0.7,0.1-1.2,0.1-1.6s0.2-0.7,0.6-0.8c0.6-0.2,1.5-0.1,2.5,0.1c0,0,0.1,0,0.2,0.1c0.4,0.1,0.6,0.3,0.7,0.4
		s0.1,0.4,0.1,0.8c0,0.4-0.1,0.9-0.1,1.6c-0.1,0.7-0.1,1.1-0.1,1.2c0,0.5-0.1,1.3-0.2,2.4c-0.1,1-0.2,1.8-0.2,2.3
		c0,0.3-0.1,0.9-0.1,1.8c0,0.2,0,0.4,0,0.4c0.1,0.1,0.2,0.1,0.4,0.2c0.3,0.1,1.1,0.1,2.1,0.1c0.3,0,0.5-0.1,0.5-0.4
		c0.1-0.6,0.1-1.1,0.1-1.7c0-0.6,0.1-1.4,0.1-2.6C75,9.4,75,8.5,75,8c0-0.4,0-0.9,0-1.6s0-1.2,0-1.6c0-0.2,0-0.3,0-0.4
		c0-0.2,0.1-0.3,0.3-0.4c0.2-0.1,0.3,0,0.5,0.1c0.5,0.4,0.8,0.9,0.7,1.5c0,0.6-0.1,1.4-0.1,2.4s0,1.8,0,2.2L76.2,14
		c0,0.1,0,0.3,0,0.6s0,0.4,0,0.6c0,0.5,0,1.2-0.1,2.1c0,0.9-0.1,1.7-0.1,2.1c0,0,0,1.9,0.1,5.6c0,0.1,0,0.4,0,0.7c0,0.3,0,0.6,0,0.8
		c0,0.2-0.1,0.4-0.4,0.5c-0.4,0.2-0.7,0.1-1-0.1s-0.4-0.5-0.4-1c0.1-0.4,0.1-0.8,0.1-1.2c0-0.3,0-0.7-0.1-1.2l0,0
		C74.5,22.8,74.5,21.7,74.5,20.2z"/>
	<path class="st0" d="M82.5,26.1c0.4-0.1,1-0.2,1.8-0.3c0.8-0.1,1.4-0.2,1.8-0.3h0.1c0.4,0,0.7,0,0.8,0.1c0.1,0.1,0.1,0.4,0.1,0.8
		c0,0.3-0.1,0.4-0.3,0.5c0,0-0.1,0-0.2,0s-0.1,0-0.2,0c-2.1,0.2-3.4,0.4-3.9,0.5c-0.2,0-0.5,0.1-0.8,0.1c-0.4,0-0.6,0-0.7,0
		c-0.6,0-1,0-1.3,0c-0.6,0.1-1.1-0.3-1.2-1c-0.1-0.3-0.1-0.7-0.1-1.1c0.3-1.7,0.5-3.7,0.6-5.9c0-0.4,0-1,0.1-1.8
		c0.1-0.8,0.1-1.4,0.1-1.8c0-0.1,0.1-1.5,0.3-4.3c0-0.7,0.1-1.7,0.2-3c0.1-0.8,0.1-2,0.2-3.6c0-0.2,0.1-0.4,0.3-0.6
		c0.4-0.3,0.8-0.5,1.4-0.5c0.2,0,0.7-0.1,1.4-0.1s1.2-0.1,1.6-0.1c0.1,0,0.4,0,0.6,0c0.3,0,0.5,0,0.7,0s0.4-0.1,0.6-0.1h0.3
		c0.3,0,0.5,0.1,0.6,0.1c0.1,0.1,0.1,0.2,0.1,0.6c0,0.4,0,0.6-0.1,0.7s-0.3,0.1-0.6,0.1c-1.1,0-1.9,0.1-2.5,0.1
		c-0.2,0-0.3,0.1-0.4,0.1c-0.1,0.1-0.1,0.2-0.1,0.5l-0.4,4.6c0,0,0,0.6-0.1,1.8l-0.1,2c0,0.3,0,0.5,0.1,0.5c0.1,0.1,0.2,0.1,0.5,0
		c0.4,0,1-0.1,1.9-0.2c0.2,0,0.4,0,0.4,0c0.1,0.1,0.1,0.2,0.2,0.5c0,0.1,0.1,0.2,0.1,0.3c0,0.3-0.1,0.5-0.4,0.5s-0.7,0.1-1.2,0.1
		c-0.6,0-1.1,0.1-1.4,0.1c-0.2,0-0.4,0.2-0.4,0.5s0,0.7-0.1,1.2c0,0.5,0,0.9,0,1.2c-0.2,2.7-0.4,4.3-0.4,4.7c0,0.3-0.1,0.7-0.1,1.2
		c-0.1,0.5-0.1,0.9-0.1,1C82.4,26.1,82.5,26.1,82.5,26.1z"/>
	<path class="st0" d="M97.5,19c0-1.8,0.3-4.5,1-8c0.2-1.3,0.6-2.5,1.2-3.5c0.6-1.2,1-1.9,1.3-2.3c0.6-0.8,1.3-1.3,2.3-1.5
		c0.4-0.1,0.8-0.1,1,0.1c0,0,0,0,0.1,0l0.1,0.1l0.1,0.1c0,0,0,0.1-0.1,0.1l-0.1,0.1h-0.1c-0.1,0-0.2,0-0.4,0.1
		c-0.2,0-0.3,0.1-0.4,0.1c-0.6,0.1-1.2,0.6-1.7,1.4c-0.2,0.3-0.3,0.5-0.5,0.8c-0.1,0.3-0.3,0.7-0.5,1.1s-0.3,0.7-0.4,0.9
		c-0.3,0.7-0.5,1.3-0.6,2c-0.2,1.3-0.4,3-0.7,5.1c0,0-0.1,0.6-0.2,1.7c-0.1,0.6,0,1.5,0.2,2.8c0.1,0.7,0.5,1.5,1.3,2.4
		c0.4,0.4,0.9,0.6,1.6,0.5c0.6-0.1,1-0.3,1.4-0.5c0.5-0.3,0.8-0.6,1.1-0.9c1.3-1.7,2.4-3.3,3.1-4.9l0.2-0.4c0.1-0.3,0.4-0.4,0.7-0.3
		c0,0,0.1,0,0.2,0.1c0.3,0.1,0.5,0.3,0.5,0.4c0.1,0.1,0.1,0.4,0,0.8c-0.2,1.3-0.5,2.4-1.1,3.3c-0.9,1.6-1.5,2.6-1.9,3.2
		c-0.9,1.4-2.1,2.5-3.5,3.1c-1.1,0.6-2.2,0.4-3.2-0.4c-0.6-0.5-1.1-1.1-1.4-2c0-0.1-0.1-0.2-0.2-0.3c-0.2-0.2-0.3-0.5-0.3-0.9
		s-0.1-0.7-0.1-0.9l0,0C97.5,21.7,97.5,20.5,97.5,19z"/>
	<path class="st0" d="M111.5,20.1c-0.2-1.8-0.3-2.9-0.4-3.2c-0.2-2.8,0.1-5.3,1-7.4c0.5-1.4,1-2.4,1.6-3c0.1-0.1,0.3-0.3,0.5-0.5
		s0.4-0.4,0.5-0.5c0.3-0.3,0.5-0.5,0.5-0.7c0-0.1,0.1-0.2,0.3-0.3c0.1,0,0.3-0.1,0.6-0.1c0.3-0.1,0.4-0.1,0.6-0.1
		c0.1-0.1,0.4-0.1,0.8,0c0.4,0,0.6,0.1,0.7,0.1s0.4,0.1,0.7,0.2c0.4,0.1,0.6,0.1,0.8,0.2c1,0.2,1.7,0.8,2.2,1.7
		c1.1,2.3,1.8,4.1,2.1,5.6c0.5,2.4,0.6,4.7,0.3,6.7c-0.2,1.5-0.4,2.5-0.4,2.8c-0.1,0.4-0.2,1-0.5,1.7c-0.3,1-0.6,1.7-0.8,2.2
		c-0.3,0.7-0.9,1.3-1.6,1.8c-0.2,0.1-0.5,0.3-0.8,0.4c-0.4,0.2-0.6,0.3-0.8,0.4c-0.2,0.1-0.4,0.1-0.4,0.1c-0.1,0-0.4,0-0.9,0
		s-0.8,0-0.9-0.1c-0.4-0.1-0.9-0.2-1.3-0.2c-1,0-1.8-0.6-2.3-1.6c-0.1-0.3-0.5-1.1-1.1-2.4C112,22.7,111.7,21.5,111.5,20.1z
		 M119.5,9.2c-0.2-0.4-0.4-0.9-0.6-1.3c-0.2-0.5-0.4-0.9-0.6-1.2c-0.1-0.2-0.2-0.4-0.4-0.4c-0.4-0.2-0.8-0.3-1.2-0.4
		c-0.2,0-0.5,0-0.7,0.2c-0.7,0.4-1.3,1.1-1.7,2c-0.8,1.6-1.3,3.2-1.5,4.8s-0.3,2.9-0.2,3.9c0.1,1.6,0.4,3.4,0.7,5.2
		c0.1,0.8,0.5,2,1.2,3.6c0.3,0.5,0.6,0.8,1,0.8h1c0.2,0,0.4,0,0.5-0.1c1.2-0.5,2.1-1.3,2.5-2.4c0.2-0.6,0.5-1.6,0.9-2.9
		c0-0.1,0.1-0.9,0.4-2.4c0.2-1.2,0.2-2.6,0-4.2c-0.1-1.5-0.4-2.7-0.8-3.7C119.8,10,119.7,9.6,119.5,9.2z"/>
	<path class="st0" d="M131.3,16.5c-0.2,0.1-0.4,0.3-0.4,0.3c-0.1,0.1-0.2,0.2-0.2,0.4c0,0.4-0.1,0.7-0.1,0.9
		c-0.1,1.5-0.2,3.8-0.3,6.8l-0.1,1.9c0,0.3-0.1,0.5-0.4,0.6c-0.2,0.1-0.5,0.2-0.8,0.3c-0.3,0.1-0.6,0.2-0.9,0.2
		c-0.3,0.1-0.6,0.1-0.8,0.2c-0.2,0-0.3,0-0.4,0s-0.2-0.2-0.3-0.4c-0.1-0.2-0.2-0.3-0.2-0.4c-0.2-0.2-0.2-0.5-0.2-0.9l0.3-3.6
		c0.2-2.3,0.3-4.1,0.4-5.3c0.1-0.7,0.1-1.8,0.2-3.3c0.2-1.8,0.3-3.2,0.4-4.2c0-0.4,0-1.1,0-1.9c0-0.1,0-0.4,0-0.8s0-0.7,0-0.9
		c0-0.3-0.1-0.6-0.3-0.7c-0.2-0.1-0.3-0.3-0.3-0.5c0.1-0.3,0.2-0.4,0.4-0.4c0.2,0,0.5-0.1,0.9-0.2s0.7-0.2,1-0.3
		c0.3-0.1,0.6-0.1,0.9-0.2c1.3-0.2,2.4-0.3,3.3-0.3c0.8,0,1.5,0.2,2.1,0.5c0.5,0.3,0.8,0.7,1.1,1.2c0.6,1.1,0.7,2.5,0.4,4
		c-0.3,1.2-0.9,2.2-1.7,3.1c-0.2,0.2-0.4,0.5-0.7,0.8c-0.3,0.4-0.5,0.6-0.5,0.7c-0.1,0.1-0.2,0.3-0.4,0.5c-0.3,0.2-0.4,0.5-0.3,0.9
		c0,0.2,0.2,0.7,0.3,1.6c0.2,0.8,0.3,1.5,0.4,2c0.1,0.5,0.6,2.5,1.4,6c0,0.1,0.1,0.4,0.2,0.8c0.1,0.4,0.2,0.7,0.2,0.9
		c0.1,0.3,0,0.6-0.1,0.9s-0.4,0.5-0.7,0.5c-0.1,0-0.2,0-0.3-0.1c-0.4-0.3-0.6-0.7-0.6-1c-0.1-0.8-0.3-1.6-0.5-2.4s-0.4-1.8-0.6-2.8
		c-0.2-1-0.4-1.8-0.5-2.4c-0.1-0.4-0.2-0.9-0.4-1.6c-0.2-0.7-0.3-1.2-0.4-1.4c0,0-0.1-0.2-0.2-0.4C131.7,16.3,131.6,16.4,131.3,16.5
		z M130.9,14.9c0.1,0,0.2-0.1,0.4-0.3c0.2-0.1,0.4-0.3,0.5-0.4c1.2-1.1,2.2-2.3,3-3.5c0.7-1,1-2.2,1.1-3.5c0.1-1.2-0.4-1.8-1.5-2
		c-0.3,0-1.2,0-2.8,0c0,0-0.2,0.1-0.4,0.2c0.1,0.3,0.2,0.6,0.2,0.7s0,0.4,0,0.8c0,0,0,0.1,0,0.2s0,0.1,0,0.2
		c-0.2,2.1-0.3,3.7-0.4,4.8C130.9,12.7,130.9,13.6,130.9,14.9C130.8,14.8,130.9,14.8,130.9,14.9z"/>
	<path class="st0" d="M144.3,16.5c-0.2,0.1-0.4,0.3-0.4,0.3c-0.1,0.1-0.2,0.2-0.2,0.4c0,0.4-0.1,0.7-0.1,0.9
		c-0.1,1.5-0.2,3.8-0.3,6.8l-0.1,1.9c0,0.3-0.1,0.5-0.4,0.6c-0.2,0.1-0.5,0.2-0.8,0.3c-0.3,0.1-0.6,0.2-0.9,0.2
		c-0.3,0.1-0.6,0.1-0.8,0.2c-0.2,0-0.3,0-0.4,0c-0.1,0-0.2-0.2-0.3-0.4c-0.1-0.2-0.2-0.3-0.2-0.4c-0.2-0.2-0.2-0.5-0.2-0.9l0.3-3.6
		c0.2-2.3,0.3-4.1,0.4-5.3c0.1-0.7,0.1-1.8,0.2-3.3c0.2-1.8,0.3-3.2,0.4-4.2c0-0.4,0-1.1,0-1.9c0-0.1,0-0.4,0-0.8s0-0.7,0-0.9
		c0-0.3-0.1-0.6-0.3-0.7c-0.2,0-0.2-0.2-0.2-0.4c0.1-0.3,0.2-0.4,0.4-0.4s0.5-0.1,0.9-0.2s0.7-0.2,1-0.3c0.3-0.1,0.6-0.1,0.9-0.2
		c1.3-0.2,2.4-0.3,3.3-0.3c0.8,0,1.5,0.2,2.1,0.5c0.5,0.3,0.8,0.7,1.1,1.2c0.6,1.1,0.7,2.5,0.4,4c-0.3,1.2-0.9,2.2-1.7,3.1
		c-0.2,0.2-0.4,0.5-0.7,0.8c-0.3,0.4-0.5,0.6-0.5,0.7c-0.1,0.1-0.2,0.3-0.4,0.5c-0.3,0.2-0.4,0.5-0.3,0.9c0,0.2,0.2,0.7,0.3,1.6
		c0.2,0.8,0.3,1.5,0.4,2c0.1,0.5,0.6,2.5,1.4,6c0,0.1,0.1,0.4,0.2,0.8c0.1,0.4,0.2,0.7,0.2,0.9c0.1,0.3,0,0.6-0.1,0.9
		s-0.4,0.5-0.7,0.5c-0.1,0-0.2,0-0.3-0.1c-0.4-0.3-0.6-0.7-0.6-1c-0.1-0.8-0.3-1.6-0.5-2.4s-0.4-1.8-0.6-2.8c-0.2-1-0.4-1.8-0.5-2.4
		c-0.1-0.4-0.2-0.9-0.4-1.6s-0.3-1.2-0.4-1.4c0,0-0.1-0.2-0.2-0.4C144.7,16.3,144.5,16.4,144.3,16.5z M143.9,14.9
		c0.1,0,0.2-0.1,0.4-0.3c0.2-0.1,0.4-0.3,0.5-0.4c1.2-1.1,2.2-2.3,3-3.5c0.7-1,1-2.2,1.1-3.5c0.1-1.2-0.4-1.8-1.5-2
		c-0.3,0-1.2,0-2.8,0c0,0-0.2,0.1-0.4,0.2c0.1,0.3,0.2,0.6,0.2,0.7s0,0.4,0,0.8c0,0,0,0.1,0,0.2s0,0.1,0,0.2
		c-0.2,2.2-0.4,3.8-0.4,4.8C143.9,12.7,143.9,13.6,143.9,14.9C143.8,14.8,143.8,14.8,143.9,14.9z"/>
	<path class="st0" d="M156.2,26.1c0.4-0.1,1-0.2,1.8-0.3c0.8-0.1,1.4-0.2,1.8-0.3h0.1c0.4,0,0.7,0,0.8,0.1s0.1,0.4,0.1,0.8
		c0,0.3-0.1,0.4-0.3,0.5c0,0-0.1,0-0.2,0c-0.1,0-0.1,0-0.2,0c-2.1,0.2-3.4,0.4-3.9,0.5c-0.2,0-0.5,0.1-0.8,0.1c-0.4,0-0.6,0-0.7,0
		c-0.6,0-1,0-1.3,0c-0.6,0.1-1.1-0.3-1.2-1c-0.1-0.3-0.1-0.7-0.1-1.1c0.3-1.7,0.5-3.7,0.6-5.9c0-0.4,0-1,0.1-1.8
		c0.1-0.8,0.1-1.4,0.1-1.8c0-0.1,0.1-1.5,0.3-4.3c0-0.7,0.1-1.7,0.2-3c0.1-0.8,0.1-2,0.2-3.6c0-0.2,0.1-0.4,0.3-0.6
		c0.4-0.3,0.8-0.5,1.4-0.5c0.2,0,0.7-0.1,1.4-0.1c0.7-0.1,1.2-0.1,1.6-0.1c0.1,0,0.4,0,0.6,0s0.5,0,0.7,0s0.4-0.1,0.6-0.1h0.3
		c0.3,0,0.5,0.1,0.6,0.1c0.1,0.1,0.1,0.2,0.1,0.6c0,0.4,0,0.6-0.1,0.7s-0.3,0.1-0.6,0.1c-1.1,0-1.9,0.1-2.5,0.1
		c-0.2,0-0.3,0.1-0.4,0.1c-0.1,0.1-0.1,0.2-0.1,0.5l-0.4,4.6c0,0,0,0.6-0.1,1.8l-0.1,2c0,0.3,0,0.5,0.1,0.5c0.1,0.1,0.2,0.1,0.5,0
		c0.4,0,1-0.1,1.9-0.2c0.2,0,0.4,0,0.4,0c0.1,0.1,0.1,0.2,0.2,0.5c0,0.1,0.1,0.2,0.1,0.3c0,0.3-0.1,0.5-0.4,0.5
		c-0.3,0-0.7,0.1-1.2,0.1c-0.6,0-1.1,0.1-1.4,0.1c-0.2,0-0.4,0.2-0.4,0.5s0,0.7-0.1,1.2c0,0.5,0,0.9,0,1.2c-0.2,2.7-0.4,4.3-0.4,4.7
		c0,0.3-0.1,0.7-0.1,1.2s-0.1,0.9-0.1,1C156,26.1,156.1,26.1,156.2,26.1z"/>
	<path class="st0" d="M162.8,19c0-1.8,0.3-4.5,1-8c0.2-1.3,0.6-2.5,1.2-3.5c0.6-1.2,1-1.9,1.3-2.3c0.6-0.8,1.3-1.3,2.3-1.5
		c0.4-0.1,0.8-0.1,1,0.1c0,0,0,0,0.1,0l0.1,0.1l0.1,0.1c0,0,0,0.1-0.1,0.1l-0.1,0.1h-0.1c-0.1,0-0.2,0-0.4,0.1
		c-0.2,0-0.3,0.1-0.4,0.1c-0.6,0.1-1.2,0.6-1.7,1.4c-0.2,0.3-0.3,0.5-0.5,0.8c-0.1,0.3-0.3,0.7-0.5,1.1s-0.3,0.7-0.4,0.9
		c-0.3,0.7-0.5,1.3-0.6,2c-0.2,1.3-0.4,3-0.7,5.1c0,0-0.1,0.6-0.2,1.7c-0.1,0.6,0,1.5,0.2,2.8c0.1,0.7,0.5,1.5,1.3,2.4
		c0.4,0.4,0.9,0.6,1.6,0.5c0.6-0.1,1-0.3,1.4-0.5c0.5-0.3,0.8-0.6,1.1-0.9c1.3-1.7,2.4-3.3,3.1-4.9l0.2-0.4c0.1-0.3,0.4-0.4,0.7-0.3
		c0,0,0.1,0,0.2,0.1c0.3,0.1,0.5,0.3,0.5,0.4c0.1,0.1,0.1,0.4,0,0.8c-0.2,1.3-0.5,2.4-1.1,3.3c-0.9,1.6-1.5,2.6-1.9,3.2
		c-0.9,1.4-2.1,2.5-3.5,3.1c-1.1,0.6-2.2,0.4-3.2-0.4c-0.6-0.5-1.1-1.1-1.4-2c0-0.1-0.1-0.2-0.2-0.3c-0.2-0.2-0.3-0.5-0.3-0.9
		s-0.1-0.7-0.1-0.9l0,0C162.9,21.7,162.8,20.5,162.8,19z"/>
	<path class="st0" d="M178.3,8.3c0-0.5,0-0.9,0-1.1V6.7c0-0.3-0.1-0.5-0.1-0.5c-0.1-0.1-0.2-0.1-0.4-0.1h-2.1c-0.3,0-0.5,0-0.6,0
		c-0.2,0-0.3-0.1-0.4-0.3c-0.1-0.2-0.1-0.4-0.1-0.5c0-0.3,0.2-0.5,0.5-0.5c0.2,0,0.6,0,1,0s0.8,0,1.2,0s0.7,0,1,0
		c1,0,1.8-0.1,2.1-0.2c0.8-0.2,2.1-0.3,3.7-0.3c0.4,0,0.9,0,1.6-0.1c0.7,0,1.2-0.1,1.4-0.1c0.4,0,0.7,0.2,0.8,0.7
		c0.1,0.3,0,0.4-0.2,0.5c0,0-0.1,0-0.2,0c-0.1,0-0.1,0-0.2,0c-1,0-2.4,0.1-4.4,0.1h0.1c-0.3,0-0.5,0.1-0.6,0.2s-0.1,0.4,0,0.8
		c0,0.3,0,0.5,0,0.6c0,0.9-0.1,1.5-0.1,1.9c0,0.4-0.1,1.1-0.2,1.9c0,0.2-0.1,0.6-0.1,1s-0.1,0.8-0.1,1.2s-0.1,0.7-0.1,1
		c-0.2,2.5-0.3,4.2-0.4,5.3c-0.1,1.5-0.2,2.8-0.3,3.9s-0.1,1.9-0.2,2.3c0,0.1,0,0.3,0,0.5s0,0.4,0,0.5c0,0.3-0.2,0.5-0.4,0.6
		c-0.3,0.1-0.6,0.2-1.1,0.3c-0.5,0.1-0.8,0.1-0.9,0.2c-0.1,0-0.4,0-0.8-0.1c-0.4-0.1-0.6-0.5-0.5-1.1c0-0.5,0.1-1.5,0.3-2.9
		s0.3-2.7,0.3-3.6c0.1-1.3,0.2-3.3,0.4-6.1c0-0.4,0.1-1.1,0.1-1.9c0-0.9,0.1-1.5,0.1-1.9V9.4l0,0C178.3,9.2,178.3,8.8,178.3,8.3z"/>
	<path class="st0" d="M202.4,26.1c0.4-0.1,1-0.2,1.8-0.3c0.8-0.1,1.4-0.2,1.8-0.3h0.1c0.4,0,0.7,0,0.8,0.1s0.1,0.4,0.1,0.8
		c0,0.3-0.1,0.4-0.3,0.5c0,0-0.1,0-0.2,0c-0.1,0-0.1,0-0.2,0c-2.1,0.2-3.4,0.4-3.9,0.5c-0.2,0-0.5,0.1-0.8,0.1c-0.4,0-0.6,0-0.7,0
		c-0.6,0-1,0-1.3,0c-0.6,0.1-1.1-0.3-1.2-1c-0.1-0.3-0.1-0.7-0.1-1.1c0.3-1.7,0.5-3.7,0.6-5.9c0-0.4,0-1,0.1-1.8
		c0.1-0.8,0.1-1.4,0.1-1.8c0-0.1,0.1-1.5,0.3-4.3c0-0.7,0.1-1.7,0.2-3c0.1-0.8,0.1-2,0.2-3.6c0-0.2,0.1-0.4,0.3-0.6
		c0.4-0.3,0.8-0.5,1.4-0.5c0.2,0,0.7-0.1,1.4-0.1c0.7-0.1,1.2-0.1,1.6-0.1c0.1,0,0.4,0,0.6,0s0.5,0,0.7,0s0.4-0.1,0.6-0.1h0.3
		c0.3,0,0.5,0.1,0.6,0.1c0.1,0.1,0.1,0.2,0.1,0.6c0,0.4,0,0.6-0.1,0.7s-0.3,0.1-0.6,0.1c-1.1,0-1.9,0.1-2.5,0.1
		c-0.2,0-0.3,0.1-0.4,0.1c-0.1,0.1-0.1,0.2-0.1,0.5l-0.4,4.6c0,0,0,0.6-0.1,1.8l-0.1,2c0,0.3,0,0.5,0.1,0.5c0.1,0.1,0.2,0.1,0.5,0
		c0.4,0,1-0.1,1.9-0.2c0.2,0,0.4,0,0.4,0c0.1,0.1,0.1,0.2,0.2,0.5c0,0.1,0.1,0.2,0.1,0.3c0,0.3-0.1,0.5-0.4,0.5
		c-0.3,0-0.7,0.1-1.2,0.1c-0.6,0-1.1,0.1-1.4,0.1c-0.2,0-0.4,0.2-0.4,0.5s0,0.7-0.1,1.2c0,0.5,0,0.9,0,1.2c-0.2,2.7-0.4,4.3-0.4,4.7
		c0,0.3-0.1,0.7-0.1,1.2s-0.1,0.9-0.1,1C202.2,26.1,202.3,26.1,202.4,26.1z"/>
	<path class="st0" d="M218.8,21.5c0-0.5,0-1.2,0.1-2.1c0-0.9,0.1-1.6,0.1-2.1s0.1-1.2,0.1-2.2c0.1-0.9,0.1-1.6,0.1-2.1
		c0.1-1.8,0.2-3.3,0.3-4.3c0-0.7,0.1-1.8,0.1-3.1c0-0.3,0-0.4,0-0.5c0-0.5,0.3-0.8,0.8-0.8c1,0.1,1.8,0.2,2.5,0.3
		c0.3,0,0.4,0.2,0.4,0.5c0,0.1,0,0.4,0,0.6c0,0.5-0.1,1.2-0.1,2c0,0.5-0.1,1.3-0.1,2.3s-0.1,1.8-0.1,2.3c0,0.4,0,0.9-0.1,1.6
		s-0.1,1.2-0.1,1.6c0,0.4,0,0.9,0,1.6s0,1.2,0,1.6s0,1.2-0.1,2.5c0,1.2-0.1,2.2-0.1,2.9c0,0.1,0,0.6,0,1.4s0,1.3,0.1,1.4
		c0.1,0.5-0.1,0.7-0.5,0.8c-0.1,0-0.3,0-0.5,0.1c-0.2,0-0.3,0-0.5,0.1c-0.2,0-0.3,0-0.4,0.1c-0.4,0-1-0.1-1.9-0.5
		c-0.2-0.1-0.3-0.2-0.4-0.5c-0.2-0.6-0.5-1.6-0.9-2.9c-0.1-0.3-0.3-0.9-0.5-1.7c-0.3-0.9-0.4-1.5-0.6-2c-0.1-0.4-0.2-0.9-0.3-1.3
		c-0.1-0.5-0.2-1-0.4-1.6c-0.1-0.6-0.3-1-0.3-1.3c-0.6-2.3-1.1-4.1-1.4-5.3c-0.2-0.8-0.4-1.4-0.6-1.8c0,0.2,0,0.5,0,1
		c0,0.4,0,0.8-0.1,1c0,0.4,0,1-0.1,1.8c0,0.7-0.1,1.4-0.1,2s0,1.2,0,1.7c0,0.9,0,2.3,0.1,4.1c0,2.6,0.1,4.5,0.1,5.8
		c0,0.1,0,0.3-0.1,0.5s-0.2,0.3-0.4,0.4c-0.1,0-0.2,0-0.3,0s-0.2,0-0.3,0s-0.2,0-0.2,0c-0.2,0-0.3,0-0.4,0h-0.8c-0.1,0-0.2,0-0.4,0
		c-0.4,0-0.7-0.2-0.8-0.3c-0.1-0.2-0.2-0.5-0.2-0.9c0-2,0.1-3.4,0.1-4.4c0-0.4,0-1.2,0-2.5c0-1.3,0-2.3,0-3c0-0.5,0.1-1.9,0.2-4.3
		c0-1.3,0-2.5,0-3.7c0-0.7,0-1.8-0.1-3.3c0-0.3,0-0.6,0.1-0.7s0.3-0.2,0.6-0.3c0.7-0.2,1.5-0.1,2.3,0.1c0.5,0.2,0.8,0.3,1,0.5
		s0.4,0.5,0.5,0.8c0.1,0.5,0.4,1.3,0.7,2.4s0.5,1.9,0.6,2.4c0,0.1,0.1,0.3,0.2,0.6c0.1,0.3,0.2,0.5,0.2,0.7c0.2,0.7,0.4,1.8,0.8,3.2
		c0.4,1.4,0.6,2.5,0.8,3.1c0.1,0.6,0.4,1.4,0.7,2.5s0.5,1.7,0.5,1.9c0,0.1,0.1,0.2,0.2,0.3h0.1C218.8,22.3,218.8,21.9,218.8,21.5z"
		/>
	<path class="st0" d="M225.2,11.4c0.3-1.5,0.9-2.9,1.8-4.2c0.1-0.1,0.5-0.6,1.2-1.3c0.5-0.6,1.2-1.1,2-1.4c1.2-0.6,2.3-0.6,3.3,0
		c0.1,0.1,0.4,0.4,0.9,0.9c0.2,0.2,0.2,0.4,0,0.5c-0.1,0.2-0.3,0.2-0.5,0.1c0,0-0.1,0-0.1-0.1h-0.1c-1.2-0.9-2.4-0.9-3.7,0
		c-1.6,1.1-2.7,2.8-3.3,4.9c-0.6,2-0.9,4.2-1,6.7c0,0.5-0.1,1.2-0.1,2c-0.1,1,0,2.2,0.3,3.4c0.1,0.9,0.6,1.4,1.4,1.5
		c1.2,0.2,2.2,0,2.9-0.7c1-0.8,1.6-1.8,1.9-3c0.3-1.1,0.4-2.3,0.5-3.4v-0.4c0-0.2-0.1-0.4-0.4-0.4h-1.7c-0.4,0-0.8-0.2-1.1-0.5
		c-0.2-0.3-0.2-0.6,0.2-0.8c0.1-0.1,0.3-0.1,0.6-0.1c0.2,0,0.6,0,1.1-0.1c0.5,0,0.9-0.1,1.1-0.1c0.9-0.1,1.7-0.2,2.1-0.3
		c0.3,0,0.6,0,0.7,0.1s0.3,0.4,0.5,0.8c0.1,0.2,0.2,0.5,0.3,0.9c0,0.2,0,0.4,0,0.8c0,0.2-0.1,0.4-0.1,0.8c-0.1,0.3-0.1,0.6-0.1,0.8
		c-0.1,1.8-0.3,3.1-0.5,3.9c-0.1,0.3-0.2,0.6-0.2,0.9c-0.3,1.2-1.1,2.4-2.4,3.5c-0.2,0.2-0.5,0.4-0.9,0.6c-1.1,0.4-2.1,0.5-3,0.2
		c-0.1,0-0.7-0.4-1.6-0.9c-0.7-0.4-1.4-1.2-2.1-2.1c-0.4-0.7-0.7-1.4-0.7-2.2c0-0.6-0.1-1.5-0.2-2.6
		C224.4,16.4,224.7,13.6,225.2,11.4z"/>
	<path class="st0" d="M236.4,26.8c0-0.3,0.1-0.7,0.2-0.9c0.2-0.5,0.4-1.3,0.6-2.3c0.2-1,0.4-1.7,0.5-2.1c0.1-0.5,0.3-1.2,0.5-2.2
		c0.2-0.9,0.3-1.5,0.4-1.8c0.6-2.5,0.9-4.1,1.1-4.6c0.1-0.3,0.2-0.6,0.3-0.9c0.1-0.3,0.2-0.7,0.3-1.1c0.1-0.4,0.2-0.7,0.3-0.9
		l0.9-3.6c0-0.1,0-0.3,0-0.6c-0.1-0.5,0-0.8,0.4-1c0.1-0.1,0.3-0.1,0.6-0.3c0.3-0.1,0.5-0.2,0.6-0.3s0.6-0.1,1.5-0.2
		c0.4-0.1,0.7,0.1,0.8,0.5c0.1,0.1,0.1,0.4,0.2,0.6c0.3,2.9,0.5,5,0.6,6.1c0.1,1,0.2,2.3,0.4,4c0,0.1,0,0.2,0,0.3s0,0.2,0,0.4
		c0,0.2,0,0.3,0,0.3c0.2,1.6,0.3,2.8,0.4,3.5c0.1,1,0.2,2.5,0.4,4.4c0,0.2,0,0.4,0,0.8s0,0.7,0,0.8c0,0.2-0.1,0.3-0.3,0.5
		c-0.9,0.5-1.6,0.8-2.1,0.9c-0.1,0-0.2,0-0.2,0.1c-0.2,0.1-0.4,0.1-0.6,0c-0.3-0.1-0.4-0.4-0.4-0.7c0-1.5-0.1-3.5-0.4-6
		c0-0.3-0.1-0.6-0.1-1.1c-0.1-0.5-0.1-0.9-0.1-1.1c0-0.3-0.1-0.4-0.2-0.5c-0.1-0.1-0.2-0.1-0.4-0.1c-0.3,0-1.1,0.1-2.5,0.2
		c-0.3,0-0.5,0.2-0.6,0.6c-0.1,0.5-0.4,1.7-0.8,3.8c-0.1,0.3-0.2,0.7-0.4,1.3c-0.2,0.6-0.3,1-0.3,1.3c-0.3,1.2-0.5,1.8-0.5,1.9
		c-0.2,0.2-0.4,0.3-0.4,0.2c0,0,0-0.1-0.1-0.1c0,0,0,0,0,0.1l0,0l-0.2,0.1C236.4,27.1,236.4,26.9,236.4,26.8z M239.8,17.1
		c0.2,0,0.5-0.1,0.9-0.1c0.2,0,0.5,0,0.8,0c0.4,0,0.7,0,0.8,0c0.2,0,0.3,0,0.4-0.1c0-0.1,0-0.2,0-0.4c0-0.3-0.1-0.7-0.2-1.3
		c-0.1-0.6-0.1-1-0.1-1.3c0-0.5-0.1-1.2-0.2-2.1c-0.1-0.9-0.2-1.7-0.2-2.1c0-0.1,0-0.2,0-0.3s0-0.2,0-0.2
		C240.8,12.1,240.1,14.8,239.8,17.1z"/>
	<path class="st0" d="M249.4,11.4c0.3-1.5,0.9-2.9,1.8-4.2c0.1-0.1,0.5-0.6,1.2-1.3c0.5-0.6,1.2-1.1,2-1.4c1.2-0.6,2.3-0.6,3.3,0
		c0.1,0.1,0.4,0.4,0.9,0.9c0.2,0.2,0.2,0.4,0,0.5c-0.1,0.2-0.3,0.2-0.5,0.1c0,0-0.1,0-0.1-0.1h-0.1c-1.2-0.9-2.4-0.9-3.7,0
		c-1.6,1.1-2.7,2.8-3.3,4.9c-0.6,2-0.9,4.2-1,6.7c0,0.5-0.1,1.2-0.1,2c-0.1,1,0,2.2,0.3,3.4c0.1,0.9,0.6,1.4,1.4,1.5
		c1.2,0.2,2.2,0,2.9-0.7c1-0.8,1.6-1.8,1.9-3c0.3-1.1,0.4-2.3,0.5-3.4v-0.4c0-0.2-0.1-0.4-0.4-0.4h-1.7c-0.4,0-0.8-0.2-1.1-0.5
		c-0.2-0.3-0.2-0.6,0.2-0.8c0.1-0.1,0.3-0.1,0.6-0.1c0.2,0,0.6,0,1.1-0.1c0.5,0,0.9-0.1,1.1-0.1c0.9-0.1,1.7-0.2,2.1-0.3
		c0.3,0,0.6,0,0.7,0.1s0.3,0.4,0.5,0.8c0.1,0.2,0.2,0.5,0.3,0.9c0,0.2,0,0.4,0,0.8c0,0.2-0.1,0.4-0.1,0.8c-0.1,0.3-0.1,0.6-0.1,0.8
		c-0.1,1.8-0.3,3.1-0.5,3.9c-0.1,0.3-0.2,0.6-0.2,0.9c-0.3,1.2-1.1,2.4-2.4,3.5c-0.2,0.2-0.5,0.4-0.9,0.6c-1.1,0.4-2.1,0.5-3,0.2
		c-0.1,0-0.7-0.4-1.6-0.9c-0.7-0.4-1.4-1.2-2.1-2.1c-0.4-0.7-0.7-1.4-0.7-2.2c0-0.6-0.1-1.5-0.2-2.6
		C248.5,16.4,248.8,13.6,249.4,11.4z"/>
	<path class="st0" d="M284.7,10c0,0.2-0.1,0.4-0.2,0.8c-0.1,0.4-0.1,0.6-0.2,0.8c-0.1,0.4-0.3,1.1-0.5,2s-0.4,1.6-0.5,2
		c-0.4,1.7-0.7,2.8-0.9,3.2c-0.1,0.3-0.3,0.7-0.6,1.1c-0.2,0.3-0.5,0.3-0.9,0.3c-0.3-0.1-0.4-0.3-0.5-0.7c-0.1-0.8-0.3-1.9-0.6-3.4
		c-0.3-1.4-0.5-2.4-0.6-2.9c-0.1-0.6-0.4-2-1-4.2c0-0.1-0.1-0.3-0.2-0.6c-0.1,0.3-0.2,0.7-0.2,1.2c-0.1,2.3-0.1,4.1-0.1,5.2
		c0,0.3,0,0.7,0,1c0,0.4,0,0.8,0,1.2c0,0.4,0,0.8,0,1c0,0.9,0.1,1.6,0.1,2.1c0,1.4,0,3.6-0.1,6.4c0,0.1,0,0.2-0.1,0.4
		c0,0.2-0.1,0.4-0.4,0.4c-0.8,0.1-1.7,0.1-2.5,0c-0.4-0.1-0.7-0.3-0.7-0.8c0-0.3,0-0.6,0-1.2c0,0,0-0.1,0-0.2s0-0.2,0-0.2
		c0-1.8,0.1-4.6,0.1-8.3c0-1.7,0-3,0-3.8c0.1-3.2,0.3-5.9,0.7-7.8c0-0.3,0.1-0.4,0.2-0.5s0.2-0.2,0.4-0.2c0.1,0,0.3,0,0.4,0
		c0.2,0,0.3,0,0.4,0c0,0,0.1,0,0.3,0c0.2,0,0.3,0,0.4-0.1c0.3-0.1,0.6,0,0.8,0.3c0.4,0.5,0.7,1.1,0.9,1.8c0.5,1.6,0.9,3,1.2,4.4
		c0.3,1.6,0.7,3.5,1.2,5.9c0,0,0.1,0.4,0.2,0.9c0.1-0.2,0.2-0.4,0.2-0.4c0.1-0.4,0.2-0.9,0.4-1.6c0.2-0.7,0.3-1.3,0.4-1.6
		s0.2-0.8,0.4-1.5c0.2-0.7,0.3-1.1,0.4-1.5s0.3-1.2,0.5-2.4c0.1-0.6,0.2-1,0.3-1.2c0.3-1,0.5-1.7,0.6-2.2c0.1-0.3,0.2-0.5,0.3-0.5
		c0.9-0.7,1.7-1,2.4-0.9c0.4,0,0.9,0.1,1.4,0.4c0.4,0.1,0.5,0.5,0.5,1.1c-0.1,0.8-0.1,1.3-0.2,1.7c-0.1,1.2-0.2,3.9-0.3,8.2
		c0,0.8-0.1,3.2-0.3,7.1c0,1.9-0.1,3.3-0.1,4.2c0,0.3,0,0.5-0.1,0.6s-0.2,0.1-0.4,0.2l-0.2,0.1c-0.2,0.1-0.4,0.3-0.7,0.3
		c-0.2,0.1-0.5,0.1-0.9,0.2c-0.3,0-0.6,0.1-0.7,0.1s-0.3,0-0.4-0.2c-0.3-0.3-0.5-0.7-0.4-1.1c0-1.1,0.1-2.6,0.2-4.6v-0.1
		c0.1-3.6,0.2-5.5,0.2-5.5c0-1,0-2.4,0-4.4c0-1,0.1-1.8,0.1-2.3V8.8h-0.1C284.9,9.1,284.8,9.4,284.7,10z"/>
	<path class="st0" d="M295.2,26.1c0.4-0.1,1-0.2,1.8-0.3c0.8-0.1,1.4-0.2,1.8-0.3h0.1c0.4,0,0.7,0,0.8,0.1c0.1,0.1,0.1,0.4,0.1,0.8
		c0,0.3-0.1,0.4-0.3,0.5c0,0-0.1,0-0.2,0s-0.1,0-0.2,0c-2.1,0.2-3.4,0.4-3.9,0.5c-0.2,0-0.5,0.1-0.8,0.1c-0.4,0-0.6,0-0.7,0
		c-0.6,0-1,0-1.3,0c-0.6,0.1-1.1-0.3-1.2-1c-0.1-0.3-0.1-0.7-0.1-1.1c0.3-1.7,0.5-3.7,0.6-5.9c0-0.4,0-1,0.1-1.8
		c0.1-0.8,0.1-1.4,0.1-1.8c0-0.1,0.1-1.5,0.3-4.3c0-0.7,0.1-1.7,0.2-3c0.1-0.8,0.1-2,0.2-3.6c0-0.2,0.1-0.4,0.3-0.6
		c0.4-0.3,0.8-0.5,1.4-0.5c0.2,0,0.7-0.1,1.4-0.1c0.7-0.1,1.2-0.1,1.6-0.1c0.1,0,0.4,0,0.6,0s0.5,0,0.7,0s0.4-0.1,0.6-0.1h0.3
		c0.3,0,0.5,0.1,0.6,0.1c0.1,0.1,0.1,0.2,0.1,0.6c0,0.4,0,0.6-0.1,0.7s-0.3,0.1-0.6,0.1c-1.1,0-1.9,0.1-2.5,0.1
		c-0.2,0-0.3,0.1-0.4,0.1c-0.1,0.1-0.1,0.2-0.1,0.5l-0.4,4.6c0,0,0,0.6-0.1,1.8l-0.1,2c0,0.3,0,0.5,0.1,0.5c0.1,0.1,0.2,0.1,0.5,0
		c0.4,0,1-0.1,1.9-0.2c0.2,0,0.4,0,0.4,0c0.1,0.1,0.1,0.2,0.2,0.5c0,0.1,0.1,0.2,0.1,0.3c0,0.3-0.1,0.5-0.4,0.5s-0.7,0.1-1.2,0.1
		c-0.6,0-1.1,0.1-1.4,0.1c-0.2,0-0.4,0.2-0.4,0.5s0,0.7-0.1,1.2c0,0.5,0,0.9,0,1.2c-0.2,2.7-0.4,4.3-0.4,4.7c0,0.3-0.1,0.7-0.1,1.2
		s-0.1,0.9-0.1,1C295,26.1,295.1,26.1,295.2,26.1z"/>
	<path class="st0" d="M311.5,21.5c0-0.5,0-1.2,0.1-2.1c0-0.9,0.1-1.6,0.1-2.1s0.1-1.2,0.1-2.2c0.1-0.9,0.1-1.6,0.1-2.1
		c0.1-1.8,0.2-3.3,0.3-4.3c0-0.7,0.1-1.8,0.1-3.1c0-0.3,0-0.4,0-0.5c0-0.5,0.3-0.8,0.8-0.8c1,0.1,1.8,0.2,2.5,0.3
		c0.3,0,0.4,0.2,0.4,0.5c0,0.1,0,0.4,0,0.6c0,0.5-0.1,1.2-0.1,2c0,0.5-0.1,1.3-0.1,2.3s-0.1,1.8-0.1,2.3c0,0.4,0,0.9-0.1,1.6
		s-0.1,1.2-0.1,1.6c0,0.4,0,0.9,0,1.6s0,1.2,0,1.6s0,1.2-0.1,2.5c0,1.2-0.1,2.2-0.1,2.9c0,0.1,0,0.6,0,1.4s0,1.3,0.1,1.4
		c0.1,0.5-0.1,0.7-0.5,0.8c-0.1,0-0.3,0-0.5,0.1c-0.2,0-0.3,0-0.5,0.1c-0.2,0-0.3,0-0.4,0.1c-0.4,0-1-0.1-1.9-0.5
		c-0.2-0.1-0.3-0.2-0.4-0.5c-0.2-0.6-0.5-1.6-0.9-2.9c-0.1-0.3-0.3-0.9-0.5-1.7c-0.3-0.9-0.4-1.5-0.6-2c-0.1-0.4-0.2-0.9-0.3-1.3
		c-0.1-0.5-0.2-1-0.4-1.6c-0.1-0.6-0.3-1-0.3-1.3c-0.6-2.3-1.1-4.1-1.4-5.3c-0.2-0.8-0.4-1.4-0.6-1.8c0,0.2,0,0.5,0,1
		c0,0.4,0,0.8-0.1,1c0,0.4,0,1-0.1,1.8c0,0.7-0.1,1.4-0.1,2s0,1.2,0,1.7c0,0.9,0,2.3,0.1,4.1c0,2.6,0.1,4.5,0.1,5.8
		c0,0.1,0,0.3-0.1,0.5s-0.2,0.3-0.4,0.4c-0.1,0-0.2,0-0.3,0c-0.1,0-0.2,0-0.3,0c-0.1,0-0.2,0-0.2,0c-0.2,0-0.3,0-0.4,0h-0.8
		c-0.1,0-0.2,0-0.4,0c-0.4,0-0.7-0.2-0.8-0.3c-0.1-0.2-0.2-0.5-0.2-0.9c0-2,0.1-3.4,0.1-4.4c0-0.4,0-1.2,0-2.5s0-2.3,0-3
		c0-0.5,0.1-1.9,0.2-4.3c0-1.3,0-2.5,0-3.7c0-0.7,0-1.8-0.1-3.3c0-0.3,0-0.6,0.1-0.7s0.3-0.2,0.6-0.3c0.7-0.2,1.5-0.1,2.3,0.1
		c0.5,0.2,0.8,0.3,1,0.5s0.4,0.5,0.5,0.8c0.1,0.5,0.4,1.3,0.7,2.4c0.3,1.1,0.5,1.9,0.6,2.4c0,0.1,0.1,0.3,0.2,0.6s0.2,0.5,0.2,0.7
		c0.2,0.7,0.4,1.8,0.8,3.2s0.6,2.5,0.8,3.1c0.1,0.6,0.4,1.4,0.7,2.5c0.3,1.1,0.5,1.7,0.5,1.9c0,0.1,0.1,0.2,0.2,0.3h0.1
		C311.5,22.3,311.5,21.9,311.5,21.5z"/>
	<path class="st0" d="M321.7,8.3c0-0.5,0-0.9,0-1.1V6.7c0-0.3-0.1-0.5-0.1-0.5c-0.1-0.1-0.2-0.1-0.4-0.1h-2.1c-0.3,0-0.5,0-0.6,0
		c-0.2,0-0.3-0.1-0.4-0.3C318,5.6,318,5.4,318,5.3c0-0.3,0.2-0.5,0.5-0.5c0.2,0,0.6,0,1,0s0.8,0,1.2,0c0.4,0,0.7,0,1,0
		c1,0,1.8-0.1,2.1-0.2c0.8-0.2,2.1-0.3,3.7-0.3c0.4,0,0.9,0,1.6-0.1c0.7,0,1.2-0.1,1.4-0.1c0.4,0,0.7,0.2,0.8,0.7
		c0.1,0.3,0,0.4-0.2,0.5c0,0-0.1,0-0.2,0s-0.1,0-0.2,0c-1,0-2.4,0.1-4.4,0.1H326c-0.3,0-0.5,0.1-0.6,0.2s-0.1,0.4,0,0.8
		c0,0.3,0,0.5,0,0.6c0,0.9-0.1,1.5-0.1,1.9c0,0.4-0.1,1.1-0.2,1.9c0,0.2-0.1,0.6-0.1,1s-0.1,0.8-0.1,1.2s-0.1,0.7-0.1,1
		c-0.2,2.5-0.3,4.2-0.4,5.3c-0.1,1.5-0.2,2.8-0.3,3.9c-0.1,1.1-0.1,1.9-0.2,2.3c0,0.1,0,0.3,0,0.5s0,0.4,0,0.5
		c0,0.3-0.2,0.5-0.4,0.6c-0.3,0.1-0.6,0.2-1.1,0.3c-0.5,0.1-0.8,0.1-0.9,0.2c-0.1,0-0.4,0-0.8-0.1s-0.6-0.5-0.5-1.1
		c0-0.5,0.1-1.5,0.3-2.9s0.3-2.7,0.3-3.6c0.1-1.3,0.2-3.3,0.4-6.1c0-0.4,0.1-1.1,0.1-1.9c0-0.9,0.1-1.5,0.1-1.9V9.4l0,0
		C321.6,9.2,321.6,8.8,321.7,8.3z"/>
	<path class="st0" d="M346.8,16.5c-0.2,0.1-0.4,0.3-0.4,0.3c-0.1,0.1-0.2,0.2-0.2,0.4c0,0.4-0.1,0.7-0.1,0.9
		c-0.1,1.5-0.2,3.8-0.3,6.8l-0.1,1.9c0,0.3-0.1,0.5-0.4,0.6c-0.2,0.1-0.5,0.2-0.8,0.3c-0.3,0.1-0.6,0.2-0.9,0.2
		c-0.3,0.1-0.6,0.1-0.8,0.2c-0.2,0-0.3,0-0.4,0s-0.2-0.2-0.3-0.4c-0.1-0.2-0.2-0.3-0.2-0.4c-0.2-0.2-0.2-0.5-0.2-0.9l0.3-3.6
		c0.2-2.3,0.3-4.1,0.4-5.3c0.1-0.7,0.1-1.8,0.2-3.3c0.2-1.8,0.3-3.2,0.4-4.2c0-0.4,0-1.1,0-1.9c0-0.1,0-0.4,0-0.8s0-0.7,0-0.9
		c0-0.3-0.1-0.6-0.3-0.7c-0.2-0.1-0.3-0.3-0.3-0.5c0.1-0.3,0.2-0.4,0.4-0.4c0.2,0,0.5-0.1,0.9-0.2s0.7-0.2,1-0.3
		c0.3-0.1,0.6-0.1,0.9-0.2c1.3-0.2,2.4-0.3,3.3-0.3c0.8,0,1.5,0.2,2.1,0.5c0.5,0.3,0.8,0.7,1.1,1.2c0.6,1.1,0.7,2.5,0.4,4
		c-0.3,1.2-0.9,2.2-1.7,3.1c-0.2,0.2-0.4,0.5-0.7,0.8c-0.3,0.4-0.5,0.6-0.5,0.7c-0.1,0.1-0.2,0.3-0.4,0.5c-0.3,0.2-0.4,0.5-0.3,0.9
		c0,0.2,0.2,0.7,0.3,1.6c0.2,0.8,0.3,1.5,0.4,2s0.6,2.5,1.4,6c0,0.1,0.1,0.4,0.2,0.8s0.2,0.7,0.2,0.9c0.1,0.3,0,0.6-0.1,0.9
		s-0.4,0.5-0.7,0.5c-0.1,0-0.2,0-0.3-0.1c-0.4-0.3-0.6-0.7-0.6-1c-0.1-0.8-0.3-1.6-0.5-2.4s-0.4-1.8-0.6-2.8s-0.4-1.8-0.5-2.4
		c-0.1-0.4-0.2-0.9-0.4-1.6c-0.2-0.7-0.3-1.2-0.4-1.4c0,0-0.1-0.2-0.2-0.4C347.2,16.3,347,16.4,346.8,16.5z M346.4,14.9
		c0.1,0,0.2-0.1,0.4-0.3c0.2-0.1,0.4-0.3,0.5-0.4c1.2-1.1,2.2-2.3,3-3.5c0.7-1,1-2.2,1.1-3.5c0.1-1.2-0.4-1.8-1.5-2
		c-0.3,0-1.2,0-2.8,0c0,0-0.2,0.1-0.4,0.2c0.1,0.3,0.2,0.6,0.2,0.7s0,0.4,0,0.8c0,0,0,0.1,0,0.2s0,0.1,0,0.2
		c-0.2,2.1-0.3,3.7-0.4,4.8C346.4,12.7,346.4,13.6,346.4,14.9C346.3,14.8,346.4,14.8,346.4,14.9z"/>
	<path class="st0" d="M359.1,6.9c-0.2,0.9-0.3,2.4-0.3,4.5l-0.1,5.5v3.6c0,0.4,0,1.1-0.1,2s-0.1,1.6-0.1,2c0,0.2,0,0.5,0,1
		s0,0.7,0,1c0,0.2,0,0.4-0.1,0.4c-0.1,0.1-0.2,0.1-0.4,0.2c-0.4,0.2-0.9,0.3-1.5,0.4c-0.3,0-0.7,0-1.2,0c-0.1,0-0.3-0.1-0.3-0.2
		c-0.3-0.6-0.4-1-0.4-1.3c0-0.1,0-0.4,0-0.7c0-0.3,0-0.5,0-0.7c0-0.5,0.1-3.7,0.1-9.5c0-1.9,0.1-3.9,0.2-5.8c0-0.4,0.1-1,0.1-1.8
		c0.1-0.8,0.1-1.4,0.1-1.8c0-0.3,0-0.7,0-1.2s0.2-0.8,0.6-0.9c0.7-0.1,1.1-0.1,1.4-0.1c0.6,0.1,1.1,0.2,1.6,0.5
		c0.3,0.1,0.5,0.3,0.6,0.4s0.1,0.4,0.1,0.8C359.3,6,359.2,6.6,359.1,6.9z"/>
	<path class="st0" d="M370.6,21.5c0-0.5,0-1.2,0.1-2.1c0-0.9,0.1-1.6,0.1-2.1s0.1-1.2,0.1-2.2c0.1-0.9,0.1-1.6,0.1-2.1
		c0.1-1.8,0.2-3.3,0.3-4.3c0-0.7,0.1-1.8,0.1-3.1c0-0.3,0-0.4,0-0.5c0-0.5,0.3-0.8,0.8-0.8c1,0.1,1.8,0.2,2.5,0.3
		c0.3,0,0.4,0.2,0.4,0.5c0,0.1,0,0.4,0,0.6c0,0.5-0.1,1.2-0.1,2c0,0.5-0.1,1.3-0.1,2.3s-0.1,1.8-0.1,2.3c0,0.4,0,0.9-0.1,1.6
		s-0.1,1.2-0.1,1.6c0,0.4,0,0.9,0,1.6s0,1.2,0,1.6s0,1.2-0.1,2.5c0,1.2-0.1,2.2-0.1,2.9c0,0.1,0,0.6,0,1.4s0,1.3,0.1,1.4
		c0.1,0.5-0.1,0.7-0.5,0.8c-0.1,0-0.3,0-0.5,0.1c-0.2,0-0.3,0-0.5,0.1c-0.2,0-0.3,0-0.4,0.1c-0.4,0-1-0.1-1.9-0.5
		c-0.2-0.1-0.3-0.2-0.4-0.5c-0.2-0.6-0.5-1.6-0.9-2.9c-0.1-0.3-0.3-0.9-0.5-1.7c-0.3-0.9-0.4-1.5-0.6-2c-0.1-0.4-0.2-0.9-0.3-1.3
		c-0.1-0.5-0.2-1-0.4-1.6c-0.1-0.6-0.3-1-0.3-1.3c-0.6-2.3-1.1-4.1-1.4-5.3c-0.2-0.8-0.4-1.4-0.6-1.8c0,0.2,0,0.5,0,1
		c0,0.4,0,0.8-0.1,1c0,0.4,0,1-0.1,1.8c0,0.7-0.1,1.4-0.1,2s0,1.2,0,1.7c0,0.9,0,2.3,0.1,4.1c0,2.6,0.1,4.5,0.1,5.8
		c0,0.1,0,0.3-0.1,0.5s-0.2,0.3-0.4,0.4c-0.1,0-0.2,0-0.3,0c-0.1,0-0.2,0-0.3,0c-0.1,0-0.2,0-0.2,0c-0.2,0-0.3,0-0.4,0h-0.8
		c-0.1,0-0.2,0-0.4,0c-0.4,0-0.7-0.2-0.8-0.3c-0.1-0.2-0.2-0.5-0.2-0.9c0-2,0.1-3.4,0.1-4.4c0-0.4,0-1.2,0-2.5s0-2.3,0-3
		c0-0.5,0.1-1.9,0.2-4.3c0-1.3,0-2.5,0-3.7c0-0.7,0-1.8-0.1-3.3c0-0.3,0-0.6,0.1-0.7s0.3-0.2,0.6-0.3c0.7-0.2,1.5-0.1,2.3,0.1
		c0.5,0.2,0.8,0.3,1,0.5s0.4,0.5,0.5,0.8c0.1,0.5,0.4,1.3,0.7,2.4c0.3,1.1,0.5,1.9,0.6,2.4c0,0.1,0.1,0.3,0.2,0.6s0.2,0.5,0.2,0.7
		c0.2,0.7,0.4,1.8,0.8,3.2s0.6,2.5,0.8,3.1c0.1,0.6,0.4,1.4,0.7,2.5c0.3,1.1,0.5,1.7,0.5,1.9c0,0.1,0.1,0.2,0.2,0.3h0.1
		C370.6,22.3,370.6,21.9,370.6,21.5z"/>
	<path class="st0" d="M377.1,11.4c0.3-1.5,0.9-2.9,1.8-4.2c0.1-0.1,0.5-0.6,1.2-1.3c0.5-0.6,1.2-1.1,2-1.4c1.2-0.6,2.3-0.6,3.3,0
		c0.1,0.1,0.4,0.4,0.9,0.9c0.2,0.2,0.2,0.4,0,0.5c-0.1,0.2-0.3,0.2-0.5,0.1c0,0-0.1,0-0.1-0.1h-0.1c-1.2-0.9-2.4-0.9-3.7,0
		c-1.6,1.1-2.7,2.8-3.3,4.9c-0.6,2-0.9,4.2-1,6.7c0,0.5-0.1,1.2-0.1,2c-0.1,1,0,2.2,0.3,3.4c0.1,0.9,0.6,1.4,1.4,1.5
		c1.2,0.2,2.2,0,2.9-0.7c1-0.8,1.6-1.8,1.9-3c0.3-1.1,0.4-2.3,0.5-3.4v-0.4c0-0.2-0.1-0.4-0.4-0.4h-1.7c-0.4,0-0.8-0.2-1.1-0.5
		c-0.2-0.3-0.2-0.6,0.2-0.8c0.1-0.1,0.3-0.1,0.6-0.1c0.2,0,0.6,0,1.1-0.1c0.5,0,0.9-0.1,1.1-0.1c0.9-0.1,1.7-0.2,2.1-0.3
		c0.3,0,0.6,0,0.7,0.1s0.3,0.4,0.5,0.8c0.1,0.2,0.2,0.5,0.3,0.9c0,0.2,0,0.4,0,0.8c0,0.2-0.1,0.4-0.1,0.8c-0.1,0.3-0.1,0.6-0.1,0.8
		c-0.1,1.8-0.3,3.1-0.5,3.9c-0.1,0.3-0.2,0.6-0.2,0.9c-0.3,1.2-1.1,2.4-2.4,3.5c-0.2,0.2-0.5,0.4-0.9,0.6c-1.1,0.4-2.1,0.5-3,0.2
		c-0.1,0-0.7-0.4-1.6-0.9c-0.7-0.4-1.4-1.2-2.1-2.1c-0.4-0.7-0.7-1.4-0.7-2.2c0-0.6-0.1-1.5-0.2-2.6
		C376.2,16.4,376.5,13.6,377.1,11.4z"/>
	<path class="st0" d="M404.9,13.5c0.5,0,0.9,0,1.2,0.1c0,0,0.1,0,0.2,0.1c0.1,0,0.1,0,0.2,0c0.7,0,1.3,0.4,1.9,1.2
		c0.5,0.8,0.8,1.5,0.9,2.2c0,0,0,0.1,0,0.2c0,0.1,0,0.1,0,0.2c-0.2,1.6-0.5,2.9-0.9,3.7c-0.2,0.5-0.6,1.2-1.2,1.9
		c-1,1.4-2.5,2.6-4.6,3.5c-0.2,0.1-0.5,0.2-0.8,0.4c-0.4,0.2-0.6,0.3-0.8,0.3c-0.6,0.3-1.2,0.3-1.8-0.2l-0.1-0.1
		c-0.4-0.1-0.7-0.5-0.6-1.1c0.1-3.2,0.1-5.2,0.1-5.8c0-0.7-0.1-3-0.2-6.8V13c0-1.5-0.1-3.7-0.1-6.7c0-0.3,0-0.6,0-0.8
		c0-0.2,0-0.5,0.2-0.8c0.2-0.4,0.6-0.6,1-0.6s0.9-0.1,1.6-0.1c0.5-0.1,1.1-0.1,1.6-0.1c0.4,0,0.9,0,1.7,0.1c0.1,0,0.3,0,0.5,0
		s0.4,0,0.5,0c0.5,0,0.9,0.2,1.4,0.6s0.7,0.8,0.8,1.2c0.4,1.5,0.1,2.9-0.8,4.2c-0.9,1.2-1.6,2.1-2.1,2.7c0,0-0.1,0.1-0.2,0.4
		C404.6,13.5,404.8,13.5,404.9,13.5z M402.2,13.4c0.1-0.1,0.2-0.2,0.4-0.4c0.9-0.9,1.9-2,2.9-3.5c0.5-0.8,0.8-1.7,0.7-2.7
		c0-0.6-0.4-1-1-1.1c-0.7-0.2-1.6-0.3-2.7-0.3c-0.3,0-0.5,0.1-0.5,0.4c-0.1,1-0.1,1.6-0.1,1.6v2.3v3c0,0.1,0,0.2,0,0.3s0,0.2,0,0.3
		C402.1,13.4,402.2,13.4,402.2,13.4z M402.6,25.3c0.1-0.1,0.3-0.1,0.4-0.2c1.5-0.9,2.6-2,3.6-3.4c0.5-0.7,0.8-1.4,1-2.1
		c0.1-0.3,0.2-0.7,0.3-1.4c0.1-0.9,0-1.8-0.5-2.6c-0.2-0.3-0.5-0.6-0.8-0.7c-1.1-0.3-2.3-0.4-3.7-0.1c-0.3,0-0.4,0.1-0.5,0.3
		c-0.1,0.1-0.1,0.3-0.1,0.6c0.1,1.7,0.1,2.5,0.1,2.5c0,0.4,0,1.1,0,1.9s0,1.4,0,1.8c0,0.7,0,1.7,0,3.1c0,0,0,0.2,0.1,0.5
		C402.3,25.4,402.4,25.3,402.6,25.3z"/>
	<path class="st0" d="M415.1,26.1c0.4-0.1,1-0.2,1.8-0.3c0.8-0.1,1.4-0.2,1.8-0.3h0.1c0.4,0,0.7,0,0.8,0.1c0.1,0.1,0.1,0.4,0.1,0.8
		c0,0.3-0.1,0.4-0.3,0.5c0,0-0.1,0-0.2,0s-0.1,0-0.2,0c-2.1,0.2-3.4,0.4-3.9,0.5c-0.2,0-0.5,0.1-0.8,0.1c-0.4,0-0.6,0-0.7,0
		c-0.6,0-1,0-1.3,0c-0.6,0.1-1.1-0.3-1.2-1c-0.1-0.3-0.1-0.7-0.1-1.1c0.3-1.7,0.5-3.7,0.6-5.9c0-0.4,0-1,0.1-1.8
		c0.1-0.8,0.1-1.4,0.1-1.8c0-0.1,0.1-1.5,0.3-4.3c0-0.7,0.1-1.7,0.2-3c0.1-0.8,0.1-2,0.2-3.6c0-0.2,0.1-0.4,0.3-0.6
		c0.4-0.3,0.8-0.5,1.4-0.5c0.2,0,0.7-0.1,1.4-0.1c0.7-0.1,1.2-0.1,1.6-0.1c0.1,0,0.4,0,0.6,0s0.5,0,0.7,0s0.4-0.1,0.6-0.1h0.3
		c0.3,0,0.5,0.1,0.6,0.1c0.1,0.1,0.1,0.2,0.1,0.6c0,0.4,0,0.6-0.1,0.7s-0.3,0.1-0.6,0.1c-1.1,0-1.9,0.1-2.5,0.1
		c-0.2,0-0.3,0.1-0.4,0.1c-0.1,0.1-0.1,0.2-0.1,0.5l-0.4,4.6c0,0,0,0.6-0.1,1.8l-0.1,2c0,0.3,0,0.5,0.1,0.5c0.1,0.1,0.2,0.1,0.5,0
		c0.4,0,1-0.1,1.9-0.2c0.2,0,0.4,0,0.4,0c0.1,0.1,0.1,0.2,0.2,0.5c0,0.1,0.1,0.2,0.1,0.3c0,0.3-0.1,0.5-0.4,0.5s-0.7,0.1-1.2,0.1
		c-0.6,0-1.1,0.1-1.4,0.1c-0.2,0-0.4,0.2-0.4,0.5s0,0.7-0.1,1.2c0,0.5,0,0.9,0,1.2c-0.2,2.7-0.4,4.3-0.4,4.7c0,0.3-0.1,0.7-0.1,1.2
		s-0.1,0.9-0.1,1C414.9,26.1,415.1,26.1,415.1,26.1z"/>
	<path class="st0" d="M426.6,13.3c-0.1,4-0.1,6-0.1,6.1c0,0.6-0.1,2.3-0.3,5.1c0,0.1,0,0.3,0,0.6c0,0.3,0,0.5,0,0.6
		c0,0.2,0.1,0.4,0.2,0.4l0.7,0.1l2.6-0.1c0.1,0,0.3,0,0.4,0c0.2,0,0.3,0.2,0.4,0.4c0.1,0.5,0.1,0.8,0,0.9s-0.3,0.1-0.7,0.1
		c-0.1,0-0.3,0-0.5,0s-0.4,0-0.5,0h-0.9c-1.2-0.1-1.7-0.1-1.8-0.1c-0.3,0-0.7,0-1.3,0c-0.6,0-1,0.1-1.3,0.1h-0.2
		c-0.8-0.1-1.1-0.6-1-1.4c0.2-1.5,0.4-3.7,0.5-6.8c0.1-1,0.1-3.3,0.2-6.9c0-1,0-2.4,0.1-4.3V5.7c0-0.1,0-0.4,0-0.7s0-0.5,0-0.7
		c0-0.5,0.2-0.8,0.6-0.9c1-0.3,1.9-0.1,2.9,0.6c0.2,0.1,0.3,0.4,0.3,0.7v1.1l0,0C426.7,9.2,426.6,11.7,426.6,13.3z"/>
	<path class="st0" d="M432.8,20.1c-0.2-1.8-0.3-2.9-0.4-3.2c-0.2-2.8,0.1-5.3,1-7.4c0.5-1.4,1-2.4,1.6-3c0.1-0.1,0.3-0.3,0.5-0.5
		s0.4-0.4,0.5-0.5c0.3-0.3,0.5-0.5,0.5-0.7c0-0.1,0.1-0.2,0.3-0.3c0.1,0,0.3-0.1,0.6-0.1c0.3-0.1,0.4-0.1,0.6-0.1
		c0.1-0.1,0.4-0.1,0.8,0c0.4,0,0.6,0.1,0.7,0.1s0.4,0.1,0.7,0.2c0.2-0.1,0.5-0.1,0.6-0.1c1,0.2,1.7,0.8,2.2,1.7
		c1.1,2.3,1.8,4.1,2.1,5.6c0.5,2.4,0.6,4.7,0.3,6.7c-0.2,1.5-0.4,2.5-0.4,2.8c-0.1,0.4-0.2,1-0.5,1.7c-0.3,1-0.6,1.7-0.8,2.2
		c-0.3,0.7-0.9,1.3-1.6,1.8c-0.2,0.1-0.5,0.3-0.8,0.4c-0.4,0.2-0.6,0.3-0.8,0.4c-0.2,0.1-0.4,0.1-0.4,0.1c-0.1,0-0.4,0-0.9,0
		s-0.8,0-0.9-0.1c-0.4-0.1-0.9-0.2-1.3-0.2c-1,0-1.8-0.6-2.3-1.6c-0.1-0.3-0.5-1.1-1.1-2.4C433.2,22.7,433,21.5,432.8,20.1z
		 M440.8,9.2c-0.2-0.4-0.4-0.9-0.6-1.3c-0.2-0.5-0.4-0.9-0.6-1.2c-0.1-0.2-0.2-0.4-0.4-0.4c-0.4-0.2-0.8-0.3-1.2-0.4
		c-0.2,0-0.5,0-0.7,0.2c-0.7,0.4-1.3,1.1-1.7,2c-0.8,1.6-1.3,3.2-1.5,4.8s-0.3,2.9-0.2,3.9c0.1,1.6,0.4,3.4,0.7,5.2
		c0.1,0.8,0.5,2,1.2,3.6c0.3,0.5,0.6,0.8,1,0.8h1c0.2,0,0.4,0,0.5-0.1c1.2-0.5,2.1-1.3,2.5-2.4c0.2-0.6,0.5-1.6,0.9-2.9
		c0-0.1,0.1-0.9,0.4-2.4c0.2-1.2,0.2-2.6,0-4.2c-0.1-1.5-0.4-2.7-0.8-3.7C441.1,10,441,9.6,440.8,9.2z"/>
	<path class="st0" d="M454.8,21.4c0.1-0.2,0.1-0.3,0.2-0.4c0.4-0.9,0.8-2.1,1.1-3.6c0.2-0.7,0.4-1.4,0.6-2.2s0.4-1.6,0.7-2.6
		c0.3-0.9,0.4-1.7,0.6-2.2c0-0.1,0-0.2,0.1-0.4c0.1-0.2,0.1-0.3,0.1-0.4c0.1-0.3,0.2-0.5,0.4-0.6c0.3-0.3,0.5-0.3,0.8,0.1
		s0.4,0.9,0.4,1.4s0.2,1.6,0.5,3.2c0.4,1.6,0.7,2.8,0.8,3.6l0.7,3.7c0,0.1,0.1,0.2,0.1,0.4c0,0.2,0.1,0.4,0.1,0.5
		c0.2-0.3,0.3-0.7,0.4-1.2c0.2-1.5,0.4-2.6,0.4-3.4c0.3-2.6,0.6-4.6,0.7-5.9c0.2-1.5,0.4-3.8,0.6-6.9c0-0.3,0.1-0.8,0.1-1.4
		c0-0.4,0.2-0.7,0.5-0.7c0.2,0,0.3,0,0.4,0c0.7,0.1,1.3,0.2,1.6,0.1c0.2,0,0.6,0.1,1.2,0.4c0.3,0.1,0.4,0.4,0.3,0.8
		c-0.2,1.1-0.4,3-0.6,5.8c-0.1,0.7-0.4,3.3-0.9,7.8c-0.1,0.4-0.1,1.1-0.2,1.9c-0.1,0.8-0.2,1.4-0.2,1.8c-0.1,0.4-0.2,1.1-0.3,2
		c-0.1,0.9-0.3,1.6-0.3,2l-0.1,1.1c-0.1,0.7-0.4,1.1-0.9,1.1c-0.1,0-0.2,0-0.4,0c-0.2,0-0.3,0-0.4,0c-0.5,0-0.9,0-1.1-0.1
		c-0.8-0.2-1.4-0.9-1.6-2.1c-0.1-0.7-0.4-1.8-0.6-3.2c-0.3-1.4-0.4-2.5-0.6-3.2c-0.3-2-0.6-3.4-0.8-4.4c-0.1-0.4-0.3-0.8-0.4-1.2
		c0,0.1-0.1,0.4-0.2,0.7s-0.1,0.5-0.2,0.7c-0.7,2.8-1.1,4.3-1.2,4.5c-0.2,0.7-0.5,1.7-1,3.1c-0.4,1.4-0.7,2.3-0.9,2.7c0,0,0,0,0,0.1
		v0.1c0,0.1,0,0.3-0.1,0.5s-0.1,0.3-0.1,0.4s-0.1,0.2-0.3,0.4s-0.2,0.3-0.2,0.3c-0.1,0.1-0.2,0.2-0.3,0.3c-0.1,0-0.3,0.2-0.7,0.4
		c-0.4,0.2-0.7,0.4-0.9,0.5c-0.2,0.1-0.5,0.1-0.7-0.2c-0.4-0.6-0.7-1.2-0.7-1.9c-0.1-1.1-0.5-3.3-1.2-6.7c-0.7-3.6-1.3-6.4-1.6-8.2
		c-0.1-0.5-0.2-1.2-0.4-2.2c-0.1-1-0.3-1.7-0.4-2.2c-0.2-0.8,0.1-1.4,0.7-1.9c0.7-0.5,1.5-0.7,2.5-0.4c0.4,0.1,0.6,0.4,0.7,0.9
		c0,0.6,0.1,1,0.1,1.2c0.4,3.3,0.7,5.7,1,7c0.6,2.8,1.1,5.1,1.5,7c0.1,0.4,0.2,1,0.4,1.9c0.1,0,0.1,0,0.1,0
		C454.6,21.7,454.7,21.6,454.8,21.4z"/>
</g>
<g>
	<polygon class="st1" points="243.7,78.2 207,44.6 208.4,43.1 243.6,75.4 275.4,43.6 276.8,45 	"/>
</g>
<path class="st0" d="M266,26.6c0.4-0.1,1-0.2,1.8-0.3c0.8-0.1,1.4-0.2,1.8-0.3h0.1c0.4,0,0.7,0,0.8,0.1s0.1,0.4,0.1,0.8
	c0,0.3-0.1,0.4-0.3,0.5c0,0-0.1,0-0.2,0s-0.1,0-0.2,0c-2.1,0.2-3.4,0.4-3.9,0.5c-0.2,0-0.5,0.1-0.8,0.1c-0.4,0-0.6,0-0.7,0
	c-0.6,0-1,0-1.3,0c-0.6,0.1-1.1-0.3-1.2-1c-0.1-0.3-0.1-0.7-0.1-1.1c0.3-1.7,0.5-3.7,0.6-5.9c0-0.4,0-1,0.1-1.8
	c0.1-0.8,0.1-1.4,0.1-1.8c0-0.1,0.1-1.5,0.3-4.3c0-0.7,0.1-1.7,0.2-3c0.1-0.8,0.1-2,0.2-3.6c0-0.2,0.1-0.4,0.3-0.6
	c0.4-0.3,0.8-0.5,1.4-0.5c0.2,0,0.7-0.1,1.4-0.1c0.7-0.1,1.2-0.1,1.6-0.1c0.1,0,0.4,0,0.6,0s0.5,0,0.7,0c0.2,0,0.4-0.1,0.6-0.1h0.3
	c0.3,0,0.5,0.1,0.6,0.1c0.1,0.1,0.1,0.2,0.1,0.6s0,0.6-0.1,0.7s-0.3,0.1-0.6,0.1c-1.1,0-1.9,0.1-2.5,0.1c-0.2,0-0.3,0.1-0.4,0.1
	c-0.1,0.1-0.1,0.2-0.1,0.5l-0.4,4.6c0,0,0,0.6-0.1,1.8l-0.1,2c0,0.3,0,0.5,0.1,0.5c0.1,0.1,0.2,0.1,0.5,0c0.4,0,1-0.1,1.9-0.2
	c0.2,0,0.4,0,0.4,0c0.1,0.1,0.1,0.2,0.2,0.5c0,0.1,0.1,0.2,0.1,0.3c0,0.3-0.1,0.5-0.4,0.5s-0.7,0.1-1.2,0.1c-0.6,0-1.1,0.1-1.4,0.1
	c-0.2,0-0.4,0.2-0.4,0.5c0,0.3,0,0.7-0.1,1.2c0,0.5,0,0.9,0,1.2c-0.2,2.7-0.4,4.3-0.4,4.7c0,0.3-0.1,0.7-0.1,1.2s-0.1,0.9-0.1,1
	C265.8,26.6,265.9,26.6,266,26.6z"/>
</svg>
