<?xml version="1.0" encoding="utf-8"?>
<!-- Generator: Adobe Illustrator 21.0.2, SVG Export Plug-In . SVG Version: 6.00 Build 0)  -->
<svg version="1.1" id="Layer_1" xmlns="http://www.w3.org/2000/svg" xmlns:xlink="http://www.w3.org/1999/xlink" x="0px" y="0px"
	 viewBox="0 0 111 258.7" style="enable-background:new 0 0 111 258.7;" xml:space="preserve">
<style type="text/css">
	.st0{fill:#398C28;}
	.st1{fill:#FC0606;}
	.st2{fill:#FC0606;stroke:#000000;stroke-width:0.5272;stroke-miterlimit:10;}
	.st3{fill:#63CC4A;}
	.st4{fill:none;stroke:#050505;stroke-width:0.5272;stroke-miterlimit:10;}
	.st5{fill:none;stroke:#000000;stroke-width:0.5272;stroke-miterlimit:10;}
	.st6{fill:#FFCFCF;stroke:#000000;stroke-width:0.6483;stroke-miterlimit:10;}
</style>
<g id="Layer_2">
	<path class="st0" d="M49.8,31.4c0,0-5.4,1.2-0.7,3.5c0.4,0.2,0.9,0.4,1.3,0.5c3.9,1.1,5.9-2.3,5.9-2.3S53,30.7,49.8,31.4z"/>
	<polygon class="st1" points="76.8,64.9 53,84.8 48.4,82.1 47.3,78.1 56.2,61.3 56.3,58.5 55,54.9 75.5,57.8 	"/>
	<path class="st2" d="M63.8,55.6c7.5,1.4,8.5,3.8,8.5,3.8c-3.6,1-7.2-0.4-9.8-2c-2.4-1.5-3.9-3.1-3.9-3.1
		c16.2,0.8,16.9,6.8,16.9,6.8c-12.4,3.1-21.3-7.5-21.3-7.5s14.6-4.5,23.9,7l-1.4,3.5"/>
	<path class="st2" d="M53.5,31.6c0,0-3.4-16.4,7.5-23.7S73.2,2,73.2,2c-7.7,4.8-3.4,25.3-3.4,25.3c-4.2,5.9-8.8,5.5-8.8,5.5
		c-2.6,1.8-11.1-1.4-11.1-1.4c-4.2,0.5-5.9-4.2-7.1-5.9c-1.2-1.7,2.8-6.9,1.6-12.1c-1.2-5.2-6.8-7.7-6.8-7.7c11.1-0.4,11,4.9,11,4.9
		C44.1,26.5,53.5,31.6,53.5,31.6z"/>
	<polygon class="st0" points="50.3,142.3 52.7,34.4 49.5,34.1 48,142.4 	"/>
	<path class="st3" d="M49,66.6c0,0-4.8-7.2-13.9-2.5C35.1,64.1,42.8,71.9,49,66.6z"/>
	<path class="st3" d="M51.6,61.1c0,0,2.7-3.6,7.4-4.6C59,56.5,58.8,58.7,51.6,61.1z"/>
	<path class="st3" d="M51.5,87.9c0,0,8.3-3.9,16.6-0.3C68.2,87.6,57.4,93.3,51.5,87.9z"/>
	<line class="st4" x1="38.8" y1="64.6" x2="46.3" y2="66.1"/>
	<line class="st4" x1="53.6" y1="88.3" x2="64" y2="88.2"/>
	<line class="st4" x1="54.4" y1="59.4" x2="56.6" y2="58"/>
	<path class="st0" d="M55.8,46.4c0,0-5.4,1.2-0.7,3.5c0.4,0.2,0.9,0.4,1.3,0.5c3.9,1.1,5.9-2.3,5.9-2.3S59,45.7,55.8,46.4z"/>
	<polygon class="st1" points="74.3,19.4 59.5,46.6 54.3,45.8 51.8,42.5 53.9,23.6 52.9,21 50.4,18.1 70.5,13.2 	"/>
	<path class="st2" d="M58.8,15.5c7.5-1.4,9.3,0.4,9.3,0.4c-3,2.3-6.8,2.2-9.8,1.7c-2.7-0.5-4.8-1.4-4.8-1.4
		c15.4-5.3,18.2,0.1,18.2,0.1c-10.4,7.5-22.6,0.9-22.6,0.9S61.1,7.6,74,14.9l0,3.8"/>
	<path class="st2" d="M59.5,46.6c0,0-3.4-16.4,7.5-23.7S79.2,17,79.2,17c-7.7,4.8-3.4,25.3-3.4,25.3c-4.2,5.9-8.8,5.5-8.8,5.5
		c-2.6,1.8-11.1-1.4-11.1-1.4c-4.2,0.5-5.9-4.2-7.1-5.9c-1.2-1.7,2.8-6.9,1.6-12.1c-1.2-5.2-6.8-7.7-6.8-7.7c11.1-0.4,11,4.9,11,4.9
		C50.1,41.5,59.5,46.6,59.5,46.6z"/>
	<line class="st2" x1="71.7" y1="19.9" x2="71.8" y2="16.2"/>
	<path class="st5" d="M49.2,17.2c0,0,4.8,3.4,4.8,6.9"/>
	<polygon class="st0" points="56.3,157.3 58.7,49.4 55.5,49.1 54,157.4 	"/>
	<path class="st3" d="M55,81.6c0,0-4.8-7.2-13.9-2.5C41.1,79.1,48.8,86.9,55,81.6z"/>
	<path class="st3" d="M57.6,76.1c0,0,2.7-3.6,7.4-4.6C65,71.5,64.8,73.7,57.6,76.1z"/>
	<path class="st3" d="M57.5,102.9c0,0,8.3-3.9,16.6-0.3C74.2,102.6,63.4,108.3,57.5,102.9z"/>
	<line class="st4" x1="44.8" y1="79.6" x2="52.3" y2="81.1"/>
	<line class="st4" x1="59.6" y1="103.3" x2="70" y2="103.2"/>
	<line class="st4" x1="60.4" y1="74.4" x2="62.6" y2="73"/>
	<path class="st0" d="M74.9,69.9c0,0-5.4,1.2-0.7,3.5c0.4,0.2,0.9,0.4,1.3,0.5c3.9,1.1,5.9-2.3,5.9-2.3S78.1,69.2,74.9,69.9z"/>
	<polygon class="st1" points="93.4,42.9 78.6,70.1 73.3,69.3 70.8,66 72.9,47.1 72,44.5 69.5,41.6 89.5,36.7 	"/>
	<path class="st2" d="M77.9,39c7.5-1.4,9.3,0.4,9.3,0.4c-3,2.3-6.8,2.2-9.8,1.7c-2.7-0.5-4.8-1.4-4.8-1.4
		c15.4-5.3,18.2,0.1,18.2,0.1c-10.4,7.5-22.6,0.9-22.6,0.9s11.9-9.5,24.8-2.3l0,3.8"/>
	<path class="st2" d="M78.6,70.1c0,0-3.4-16.4,7.5-23.7s12.2-5.9,12.2-5.9c-7.7,4.8-3.4,25.3-3.4,25.3c-4.2,5.9-8.8,5.5-8.8,5.5
		c-2.6,1.8-11.1-1.4-11.1-1.4c-4.2,0.5-5.9-4.2-7.1-5.9c-1.2-1.7,2.8-6.9,1.6-12.1s-6.8-7.7-6.8-7.7c11.1-0.4,11,4.9,11,4.9
		C69.1,65,78.6,70.1,78.6,70.1z"/>
	<line class="st2" x1="90.8" y1="43.4" x2="90.8" y2="39.7"/>
	<path class="st5" d="M68.2,40.7c0,0,4.8,3.4,4.8,6.9"/>
	<polygon class="st0" points="75.4,180.8 77.7,72.9 74.6,72.6 73.1,180.9 	"/>
	<path class="st3" d="M74,105.1c0,0-4.8-7.2-13.9-2.5C60.2,102.6,67.9,110.4,74,105.1z"/>
	<path class="st3" d="M76.7,99.6c0,0,2.7-3.6,7.4-4.6C84.1,95,83.9,97.2,76.7,99.6z"/>
	<path class="st3" d="M76.6,126.4"/>
	<line class="st4" x1="63.9" y1="103.1" x2="71.4" y2="104.7"/>
	<path class="st4" d="M78.7,126.8"/>
	<line class="st4" x1="79.4" y1="97.9" x2="81.7" y2="96.5"/>
	<path class="st0" d="M33.1,77.1c0,0-5.4,1.2-0.7,3.5c0.4,0.2,0.9,0.4,1.3,0.5c3.9,1.1,5.9-2.3,5.9-2.3S36.3,76.4,33.1,77.1z"/>
	<polygon class="st1" points="51.6,50.1 36.8,77.3 31.6,76.6 29,73.2 31.2,54.3 30.2,51.7 27.7,48.8 47.8,43.9 	"/>
	<path class="st2" d="M36.1,46.2c7.5-1.4,9.3,0.4,9.3,0.4c-3,2.3-6.8,2.2-9.8,1.7c-2.7-0.5-4.8-1.4-4.8-1.4
		C46.2,41.6,49,46.9,49,46.9c-10.4,7.5-22.6,0.9-22.6,0.9s11.9-9.5,24.8-2.3l0,3.8"/>
	<path class="st2" d="M36.8,77.3c0,0-3.4-16.4,7.5-23.7s12.2-5.9,12.2-5.9C48.8,52.5,53.1,73,53.1,73c-4.2,5.9-8.8,5.5-8.8,5.5
		c-2.6,1.8-11.1-1.4-11.1-1.4c-4.2,0.5-5.9-4.2-7.1-5.9s2.8-6.9,1.6-12.1c-1.2-5.2-6.8-7.7-6.8-7.7c11.1-0.4,11,4.9,11,4.9
		C27.4,72.2,36.8,77.3,36.8,77.3z"/>
	<line class="st2" x1="49" y1="50.6" x2="49" y2="46.9"/>
	<path class="st5" d="M26.5,47.9c0,0,4.8,3.4,4.8,6.9"/>
	<polygon class="st0" points="33.6,188 36,80.1 32.8,79.8 31.3,188.1 	"/>
	<path class="st3" d="M32.3,112.3"/>
	<path class="st3" d="M34.9,106.9c0,0,2.7-3.6,7.4-4.6C42.3,102.2,42.1,104.4,34.9,106.9z"/>
	<path class="st3" d="M34.8,133.6c0,0,8.3-3.9,16.6-0.3C51.4,133.3,40.7,139.1,34.8,133.6z"/>
	<path class="st4" d="M29.6,111.9"/>
	<line class="st4" x1="36.9" y1="134" x2="47.3" y2="133.9"/>
	<line class="st4" x1="37.7" y1="105.1" x2="39.9" y2="103.7"/>
	<path class="st0" d="M32.6,40.8c0,0-5.4,1.2-0.7,3.5c0.4,0.2,0.9,0.4,1.3,0.5c3.9,1.1,5.9-2.3,5.9-2.3S35.8,40.1,32.6,40.8z"/>
	<polygon class="st1" points="51.1,13.8 36.3,41 31,40.2 28.5,36.9 30.6,18 29.7,15.4 27.2,12.5 47.2,7.6 	"/>
	<path class="st2" d="M35.6,9.9c7.5-1.4,9.3,0.4,9.3,0.4c-3,2.3-6.8,2.2-9.8,1.7c-2.7-0.5-4.8-1.4-4.8-1.4
		c15.4-5.3,18.2,0.1,18.2,0.1c-10.4,7.5-22.6,0.9-22.6,0.9S37.8,2,50.8,9.3l0,3.8"/>
	<path class="st2" d="M36.3,41c0,0-3.4-16.4,7.5-23.7S56,11.4,56,11.4c-7.7,4.8-3.4,25.3-3.4,25.3c-4.2,5.9-8.8,5.5-8.8,5.5
		c-2.6,1.8-11.1-1.4-11.1-1.4c-4.2,0.5-5.9-4.2-7.1-5.9c-1.2-1.7,2.8-6.9,1.6-12.1s-6.8-7.7-6.8-7.7c11.1-0.4,11,4.9,11,4.9
		C26.8,35.9,36.3,41,36.3,41z"/>
	<line class="st2" x1="48.5" y1="14.3" x2="48.5" y2="10.6"/>
	<path class="st5" d="M25.9,11.6c0,0,4.8,3.4,4.8,6.9"/>
	<polygon class="st0" points="33.1,151.7 35.4,43.7 32.3,43.5 30.8,151.8 	"/>
	<path class="st3" d="M31.7,76c0,0-4.8-7.2-13.9-2.5C17.9,73.5,25.6,81.3,31.7,76z"/>
	<path class="st3" d="M34.4,70.5c0,0,2.7-3.6,7.4-4.6C41.8,65.9,41.6,68.1,34.4,70.5z"/>
	<path class="st3" d="M34.3,97.3c0,0,8.3-3.9,16.6-0.3C50.9,97,40.1,102.7,34.3,97.3z"/>
	<line class="st4" x1="21.6" y1="74" x2="29.1" y2="75.5"/>
	<line class="st4" x1="36.4" y1="97.7" x2="46.7" y2="97.6"/>
	<line class="st4" x1="37.1" y1="68.8" x2="39.4" y2="67.4"/>
	<path class="st0" d="M75.9,41.5c0,0-5.4,1.2-0.7,3.5c0.4,0.2,0.9,0.4,1.3,0.5c3.9,1.1,5.9-2.3,5.9-2.3S79.1,40.8,75.9,41.5z"/>
	<polygon class="st1" points="94.4,14.5 79.6,41.7 74.3,40.9 71.8,37.6 73.9,18.7 73,16.1 70.5,13.2 90.5,8.3 	"/>
	<path class="st2" d="M78.9,10.6c7.5-1.4,9.3,0.4,9.3,0.4c-3,2.3-6.8,2.2-9.8,1.7c-2.7-0.5-4.8-1.4-4.8-1.4
		c15.4-5.3,18.2,0.1,18.2,0.1c-10.4,7.5-22.6,0.9-22.6,0.9S81.1,2.7,94.1,10l0,3.8"/>
	<path class="st2" d="M79.6,41.7c0,0-3.4-16.4,7.5-23.7s12.2-5.9,12.2-5.9c-7.7,4.8-3.4,25.3-3.4,25.3c-4.2,5.9-8.8,5.5-8.8,5.5
		c-2.6,1.8-11.1-1.4-11.1-1.4c-4.2,0.5-5.9-4.2-7.1-5.9c-1.2-1.7,2.8-6.9,1.6-12.1c-1.2-5.2-6.8-7.7-6.8-7.7c11.1-0.4,11,4.9,11,4.9
		C70.1,36.6,79.6,41.7,79.6,41.7z"/>
	<line class="st2" x1="91.8" y1="15" x2="91.8" y2="11.3"/>
	<path class="st5" d="M69.2,12.3c0,0,4.8,3.4,4.8,6.9"/>
	<path class="st3" d="M75.1,76.7c0,0-4.8-7.2-13.9-2.5C61.2,74.2,68.9,82,75.1,76.7z"/>
	<path class="st3" d="M77.7,71.3c0,0,2.7-3.6,7.4-4.6C85.1,66.6,84.9,68.8,77.7,71.3z"/>
	<line class="st4" x1="64.9" y1="74.7" x2="72.4" y2="76.3"/>
	<path class="st4" d="M79.7,98.4"/>
	<line class="st4" x1="80.4" y1="69.5" x2="82.7" y2="68.1"/>
	<path class="st0" d="M54.7,75.8c0,0-5.4,1.2-0.7,3.5c0.4,0.2,0.9,0.4,1.3,0.5c3.9,1.1,5.9-2.3,5.9-2.3S57.9,75.1,54.7,75.8z"/>
	<polygon class="st1" points="73.2,48.7 58.4,75.9 53.1,75.2 50.6,71.8 52.7,52.9 51.8,50.3 49.3,47.4 69.3,42.5 	"/>
	<path class="st2" d="M57.7,44.8c7.5-1.4,9.3,0.4,9.3,0.4c-3,2.3-6.8,2.2-9.8,1.7c-2.7-0.5-4.8-1.4-4.8-1.4
		c15.4-5.3,18.2,0.1,18.2,0.1C60.2,53,48,46.5,48,46.5s11.9-9.5,24.8-2.3l0,3.8"/>
	<path class="st2" d="M58.4,75.9c0,0-3.4-16.4,7.5-23.7s12.2-5.9,12.2-5.9c-7.7,4.8-3.4,25.3-3.4,25.3c-4.2,5.9-8.8,5.5-8.8,5.5
		c-2.6,1.8-11.1-1.4-11.1-1.4c-4.2,0.5-5.9-4.2-7.1-5.9c-1.2-1.7,2.8-6.9,1.6-12.1c-1.2-5.2-6.8-7.7-6.8-7.7c11.1-0.4,11,4.9,11,4.9
		C48.9,70.8,58.4,75.9,58.4,75.9z"/>
	<line class="st2" x1="70.6" y1="49.3" x2="70.6" y2="45.6"/>
	<path class="st5" d="M48,46.5c0,0,4.8,3.4,4.8,6.9"/>
	<polygon class="st0" points="55.2,186.7 57.5,78.7 54.4,78.4 52.9,186.8 	"/>
	<path class="st3" d="M53.8,110.9c0,0-4.8-7.2-13.9-2.5C40,108.4,47.7,116.2,53.8,110.9z"/>
	<path class="st3" d="M56.5,105.5c0,0,2.7-3.6,7.4-4.6C63.9,100.8,63.7,103,56.5,105.5z"/>
	<path class="st3" d="M56.4,132.3c0,0,8.3-3.9,16.6-0.3C73,131.9,62.2,137.7,56.4,132.3z"/>
	<line class="st4" x1="43.7" y1="109" x2="51.2" y2="110.5"/>
	<line class="st4" x1="58.5" y1="132.7" x2="68.8" y2="132.5"/>
	<line class="st4" x1="59.2" y1="103.8" x2="61.5" y2="102.4"/>
	<polygon class="st1" points="32,23.5 30.5,54.4 25.5,56 21.8,54.1 15.4,36.2 13.4,34.2 9.9,32.7 25.9,19.6 	"/>
	<path class="st2" d="M16.4,26.7c6.1-4.6,8.5-3.7,8.5-3.7c-1.7,3.3-5.2,5-8.1,5.8c-2.7,0.7-4.9,0.8-4.9,0.8
		c11.5-11.4,16.5-7.9,16.5-7.9C22.2,33,8.4,32.4,8.4,32.4S15,18.7,29.8,19.6l1.7,3.4"/>
	<path class="st2" d="M30.5,54.4c0,0-10.2-13.3-3.5-24.6s8.4-10.6,8.4-10.6c-4.8,7.7,7.9,24.3,7.9,24.3c-1.2,7.2-5.5,8.8-5.5,8.8
		c-1.6,2.7-10.7,3.6-10.7,3.6c-3.6,2.3-7.2-1.2-9-2.2c-1.9-1-0.5-7.4-3.8-11.6s-9.5-3.9-9.5-3.9c9.8-5.2,12.1-0.4,12.1-0.4
		C19.8,53.9,30.5,54.4,30.5,54.4z"/>
	<path class="st5" d="M8.4,32.4c0,0,5.8,0.9,7.4,4.1"/>
	<path class="st3" d="M34,50.6c0,0-4.8-7.2-13.9-2.5C20.2,48.2,27.9,55.9,34,50.6z"/>
	<path class="st3" d="M36.6,45.2c0,0,2.7-3.6,7.4-4.6C44,40.6,43.8,42.7,36.6,45.2z"/>
	<path class="st3" d="M36.5,72c0,0,8.3-3.9,16.6-0.3C53.2,71.6,42.4,77.4,36.5,72z"/>
	<line class="st4" x1="23.8" y1="48.7" x2="31.3" y2="50.2"/>
	<line class="st4" x1="38.7" y1="72.4" x2="49" y2="72.3"/>
	<line class="st4" x1="39.4" y1="43.5" x2="41.6" y2="42.1"/>
	<polygon class="st1" points="102.9,56.7 79.1,76.5 74.5,73.9 73.4,69.8 82.3,53 82.4,50.3 81.2,46.7 101.6,49.5 	"/>
	<path class="st2" d="M89.9,47.3c7.5,1.4,8.5,3.8,8.5,3.8c-3.6,1-7.2-0.4-9.8-2c-2.4-1.5-3.9-3.1-3.9-3.1
		c16.2,0.8,16.9,6.8,16.9,6.8c-12.4,3.1-21.3-7.5-21.3-7.5s14.6-4.5,23.9,7l-1.4,3.5"/>
	<path class="st2" d="M79.1,76.5c0,0,2.9-16.5,15.8-19.2c12.9-2.8,13.5-1,13.5-1c-8.9,1.6-12.5,22.3-12.5,22.3
		c-6.1,3.9-10.2,1.9-10.2,1.9c-3.1,0.7-9.8-5.4-9.8-5.4c-4.1-1.1-3.9-6.1-4.4-8.2c-0.5-2.1,5.2-5.4,6-10.6s-3.5-9.7-3.5-9.7
		c10.5,3.7,8.4,8.6,8.4,8.6C72.2,68.3,79.1,76.5,79.1,76.5z"/>
	<line class="st2" x1="100.3" y1="56.2" x2="101.7" y2="52.8"/>
	<path class="st5" d="M80.3,45.3c0,0,3.2,4.9,1.9,8.2"/>
	<path class="st3" d="M70.2,49.3c0,0-4.8-7.2-13.9-2.5C56.4,46.8,64.1,54.5,70.2,49.3z"/>
	<path class="st3" d="M72.8,43.8c0,0,2.7-3.6,7.4-4.6C80.2,39.2,80,41.4,72.8,43.8z"/>
	<path class="st3" d="M72.7,70.6c0,0,8.3-3.9,16.6-0.3C89.4,70.3,78.6,76,72.7,70.6z"/>
	<line class="st4" x1="60" y1="47.3" x2="67.5" y2="48.8"/>
	<line class="st4" x1="74.9" y1="71" x2="85.2" y2="70.9"/>
	<line class="st4" x1="75.6" y1="42.1" x2="77.8" y2="40.7"/>
</g>
<path class="st6" d="M14.8,102.9h81.9c3.6,0,5.7,4.4,3.8,7.7c-10.8,19.1-27.4,62.5-16.6,89.1c0,0,43.4,55.9-1,55.9H18.3
	c-0.1,0-0.2,0-0.3,0c-2.4-0.2-30.8-3.5,4.1-49.1c3-3.9,5.6-8.6,5.5-13.8c-1-49.5-2.2-56.9-16.6-82.2
	C9.1,107.3,11.2,102.9,14.8,102.9z"/>
</svg>
