<?xml version="1.0" encoding="utf-8"?>
<!-- Generator: Adobe Illustrator 21.0.2, SVG Export Plug-In . SVG Version: 6.00 Build 0)  -->
<svg version="1.1" id="Layer_1" xmlns="http://www.w3.org/2000/svg" xmlns:xlink="http://www.w3.org/1999/xlink" x="0px" y="0px"
	 viewBox="0 0 868.9 412.7" style="enable-background:new 0 0 868.9 412.7;" xml:space="preserve">
<style type="text/css">
	.st0{fill:#FF7373;stroke:#020202;stroke-width:6.2611;stroke-miterlimit:10;}
	.st1{fill:#FFB3D2;stroke:#020202;stroke-width:6.2611;stroke-miterlimit:10;}
	.st2{fill:#FF7373;stroke:#020202;stroke-width:2.9902;stroke-miterlimit:10;}
	.st3{fill:#FF7373;stroke:#020202;stroke-width:2.6977;stroke-miterlimit:10;}
	.st4{fill:#FF7373;stroke:#020202;stroke-width:2.9698;stroke-miterlimit:10;}
	.st5{fill:#FF7373;stroke:#020202;stroke-width:2.9352;stroke-miterlimit:10;}
	.st6{fill:#FF7373;stroke:#020202;stroke-width:2.7334;stroke-miterlimit:10;}
	.st7{fill:#FF7373;stroke:#020202;stroke-width:2.7667;stroke-miterlimit:10;}
	.st8{fill:#FF7373;stroke:#020202;stroke-width:2.9414;stroke-miterlimit:10;}
	.st9{fill:#FF7373;stroke:#020202;stroke-width:3.1306;stroke-miterlimit:10;}
	.st10{fill:#FF7373;stroke:#020202;stroke-width:3.073;stroke-miterlimit:10;}
	.st11{fill:#FF7373;stroke:#020202;stroke-width:2.8023;stroke-miterlimit:10;}
	.st12{fill:#FF7373;stroke:#020202;stroke-width:3.0498;stroke-miterlimit:10;}
</style>
<path class="st0" d="M96.1,3.3c0,0,594.2,43.5,699.5,0c0,0,27.2-4.1,22.1,31.2s-59.8,221.4,0.6,353.1c0,0,1.1,24.4-58.4,21.7
	c-59.4-2.7-427.8-46.2-663.8-14.9c0,0-39,19-42.4-43.5s47.5-230.9,0-320.5C53.7,30.4,60.1,0.8,96.1,3.3z"/>
<path class="st1" d="M773.7,348.2L773.7,348.2z M709,343.9c-87.4-7.6-250.1-21.8-407.9-21.8c-63.1,0-120.2,2.3-170.4,6.9
	c1.3-15,4-34.4,6.9-54.4c9.1-64.2,19.8-140.2,7.2-206.6c89.3,5.7,269.7,15.8,422.7,15.8c72.9,0,125.4-2.4,163.9-6
	c-13,65-29.1,170-6.3,267.6C720,344.8,714.6,344.4,709,343.9z"/>
<path class="st2" d="M798.3,314.5c-2.7,0.7-2.2,4.1,0.6,4.3c18.1,1.1,61.8,3.3,61.8-0.5C860.7,313.3,816.3,310.1,798.3,314.5z"/>
<path class="st3" d="M812.5,368.2c-2.2,0.7-1.8,4.1,0.4,4.3c14.7,1.1,50.3,3.3,50.3-0.5C863.3,367,827.1,363.8,812.5,368.2z"/>
<path class="st4" d="M791.9,247c-2.6,0.7-2.2,4.1,0.5,4.3c17.8,1.1,60.9,3.3,61-0.5C853.5,245.9,809.7,242.6,791.9,247z"/>
<path class="st5" d="M793.3,190.5c-2.6,0.7-2.1,4.1,0.5,4.3c17.4,1.1,59.5,3.3,59.5-0.5C853.5,189.4,810.7,186.1,793.3,190.5z"/>
<path class="st6" d="M801.3,124c-2.2,0.7-1.9,4.1,0.5,4.3c15.1,1.1,51.6,3.3,51.6-0.5C853.5,122.9,816.4,119.6,801.3,124z"/>
<path class="st7" d="M814.2,57.4c-2.3,0.7-1.9,4.1,0.5,4.3c15.5,1.1,52.9,3.3,52.9-0.5C867.6,56.3,829.6,53,814.2,57.4z"/>
<path class="st8" d="M4.3,53.4c-2.6,0.7-2.1,4.1,0.5,4.3c17.5,1.1,59.8,3.3,59.8-0.5C64.7,52.3,21.7,49,4.3,53.4z"/>
<path class="st9" d="M4.5,100.5c-2.9,0.7-2.4,4.1,0.6,4.3c19.8,1.1,67.7,3.3,67.7-0.5C72.9,99.3,24.3,96,4.5,100.5z"/>
<path class="st9" d="M4.5,156.8c-2.9,0.7-2.4,4.1,0.6,4.3c19.8,1.1,67.7,3.3,67.7-0.5C72.9,155.7,24.3,152.4,4.5,156.8z"/>
<path class="st10" d="M3.4,210.1c-2.8,0.7-2.3,4.1,0.6,4.3c19.1,1.1,65.2,3.3,65.3-0.5C69.3,209,22.4,205.7,3.4,210.1z"/>
<path class="st11" d="M4.1,273c-2.4,0.7-2,4.1,0.5,4.3c15.9,1.1,54.2,3.3,54.3-0.5C59,271.9,20,268.6,4.1,273z"/>
<path class="st12" d="M4,350.3c-2.1,0.7-1.8,4.1,0.4,4.3c14.4,1.1,49.2,3.3,49.2-0.5C53.7,349.2,18.3,345.9,4,350.3z"/>
</svg>
