<?xml version="1.0" encoding="utf-8"?>
<!-- Generator: Adobe Illustrator 21.0.2, SVG Export Plug-In . SVG Version: 6.00 Build 0)  -->
<svg version="1.1" id="Layer_1" xmlns="http://www.w3.org/2000/svg" xmlns:xlink="http://www.w3.org/1999/xlink" x="0px" y="0px"
	 viewBox="0 0 303 297" style="enable-background:new 0 0 303 297;" xml:space="preserve">
<style type="text/css">
	.st0{fill:#FCFC00;}
	.st1{fill:none;stroke:#FCFC00;stroke-width:2.5781;stroke-miterlimit:10;}
	.st2{fill:none;stroke:#FCFC00;stroke-width:3.3828;stroke-miterlimit:10;}
	.st3{fill:none;stroke:#FCFC00;stroke-width:2.3087;stroke-miterlimit:10;}
	.st4{fill:none;stroke:#FCFC00;stroke-width:3.2534;stroke-miterlimit:10;}
	.st5{fill:none;stroke:#FCFC00;stroke-width:2.4535;stroke-miterlimit:10;}
	.st6{fill:none;stroke:#FCFC00;stroke-width:2.8799;stroke-miterlimit:10;}
	.st7{fill:none;stroke:#FCFC00;stroke-width:3.6177;stroke-miterlimit:10;}
	.st8{fill:none;stroke:#FCFC00;stroke-width:1.9883;stroke-miterlimit:10;}
</style>
<path class="st0" d="M145.1,140.8l93.3,3.7c0,0,3.1,84.8-93.7,89.7L145.1,140.8z"/>
<line class="st1" x1="148.3" y1="240.5" x2="148.3" y2="267.8"/>
<line class="st2" x1="168.3" y1="237.8" x2="175.7" y2="272.8"/>
<line class="st3" x1="188.4" y1="233.3" x2="198.3" y2="255.6"/>
<line class="st4" x1="206" y1="222.3" x2="226.3" y2="250.1"/>
<line class="st5" x1="221.7" y1="208.4" x2="241" y2="225.8"/>
<line class="st6" x1="230.2" y1="189.1" x2="256.5" y2="204.3"/>
<line class="st7" x1="237.7" y1="170.3" x2="274" y2="182.1"/>
<path class="st8" d="M262,152.5"/>
<path class="st8" d="M241.1,150.3"/>
<path class="st0" d="M144.9,144V53.8c0,0,88.5-6.3,93.4,90.7L144.9,144z"/>
<line class="st1" x1="240.5" y1="144" x2="267.8" y2="144"/>
<line class="st2" x1="238.7" y1="120.6" x2="273.7" y2="113.2"/>
<line class="st3" x1="234.2" y1="100.5" x2="256.5" y2="90.6"/>
<line class="st4" x1="223.2" y1="82.9" x2="251" y2="62.7"/>
<line class="st5" x1="209.4" y1="67.2" x2="226.7" y2="48"/>
<line class="st6" x1="190" y1="58.8" x2="205.2" y2="32.4"/>
<line class="st7" x1="171.2" y1="51.3" x2="183" y2="14.9"/>
<line class="st8" x1="151.3" y1="47.9" x2="153.5" y2="26.9"/>
<path class="st0" d="M144.9,144H54.7c0,0-2.5-86.4,90.2-90.2V144z"/>
<line class="st1" x1="141.6" y1="47.5" x2="141.6" y2="20.2"/>
<line class="st2" x1="121.6" y1="50.2" x2="114.1" y2="15.2"/>
<line class="st3" x1="101.5" y1="54.7" x2="91.5" y2="32.4"/>
<line class="st4" x1="83.8" y1="65.7" x2="63.6" y2="37.9"/>
<line class="st5" x1="68.2" y1="79.6" x2="48.9" y2="62.2"/>
<line class="st6" x1="59.7" y1="98.9" x2="33.4" y2="83.7"/>
<line class="st7" x1="52.2" y1="117.7" x2="15.8" y2="105.9"/>
<path class="st8" d="M27.9,135.5"/>
<path class="st8" d="M48.8,137.7"/>
<path class="st0" d="M148.2,144.1v90.2c0,0-89.6,6.2-93.4-90.7L148.2,144.1z"/>
<line class="st1" x1="48.8" y1="144" x2="21.5" y2="144"/>
<line class="st2" x1="51.1" y1="167.4" x2="16.2" y2="174.8"/>
<line class="st3" x1="55.6" y1="187.5" x2="33.3" y2="197.4"/>
<line class="st4" x1="66.7" y1="205.1" x2="38.9" y2="225.3"/>
<line class="st5" x1="80.5" y1="220.8" x2="63.2" y2="240"/>
<line class="st6" x1="99.9" y1="229.2" x2="84.6" y2="255.6"/>
<line class="st7" x1="118.7" y1="236.7" x2="106.8" y2="273.1"/>
<line class="st8" x1="138.6" y1="240.1" x2="136.4" y2="261.1"/>
</svg>
