<?xml version="1.0" encoding="utf-8"?>
<!-- Generator: Adobe Illustrator 21.0.2, SVG Export Plug-In . SVG Version: 6.00 Build 0)  -->
<svg version="1.1" id="Layer_1" xmlns="http://www.w3.org/2000/svg" xmlns:xlink="http://www.w3.org/1999/xlink" x="0px" y="0px"
	 viewBox="0 0 163.3 20.9" style="enable-background:new 0 0 163.3 20.9;" xml:space="preserve">
<style type="text/css">
	.st0{fill:#F96495;}
</style>
<g>
	<path class="st0" d="M5.5,14.5c0-0.1,0.1-0.2,0.1-0.3c0.3-0.7,0.6-1.6,0.9-2.8c0.1-0.5,0.3-1.1,0.4-1.7c0.2-0.6,0.3-1.2,0.5-2
		c0.2-0.7,0.3-1.3,0.4-1.7C7.9,6.1,8,6,8,5.8C8,5.7,8,5.6,8,5.5c0.1-0.2,0.2-0.4,0.3-0.4c0.2-0.2,0.4-0.2,0.6,0
		c0.2,0.3,0.3,0.7,0.3,1.1c0,0.4,0.1,1.2,0.4,2.5c0.3,1.2,0.5,2.1,0.6,2.7l0.5,2.9c0,0,0,0.2,0.1,0.3c0,0.2,0.1,0.3,0.1,0.4
		c0.1-0.2,0.2-0.6,0.3-1c0.2-1.1,0.3-2,0.3-2.6c0.3-2,0.4-3.5,0.5-4.5c0.1-1.2,0.3-2.9,0.5-5.3c0-0.3,0.1-0.6,0.1-1.1
		c0-0.3,0.2-0.5,0.4-0.5c0.1,0,0.2,0,0.3,0c0.6,0.1,1,0.1,1.2,0.1c0.2,0,0.5,0.1,0.9,0.3c0.2,0.1,0.3,0.3,0.2,0.6
		c-0.1,0.8-0.3,2.3-0.5,4.5c0,0.5-0.3,2.5-0.7,6c0,0.3-0.1,0.8-0.2,1.4c-0.1,0.6-0.1,1.1-0.2,1.4c0,0.3-0.1,0.9-0.2,1.6
		c-0.1,0.7-0.2,1.2-0.2,1.6l-0.1,0.8c0,0.5-0.3,0.8-0.7,0.9c0,0-0.1,0-0.3,0c-0.1,0-0.2,0-0.3,0c-0.4,0-0.7,0-0.8-0.1
		c-0.6-0.2-1-0.7-1.2-1.6c-0.1-0.6-0.3-1.4-0.5-2.5c-0.2-1.1-0.3-1.9-0.4-2.5C9.1,11,8.9,9.9,8.8,9.1C8.7,8.8,8.6,8.5,8.4,8.2
		c0,0.1-0.1,0.3-0.1,0.5C8.2,9,8.2,9.1,8.1,9.2c-0.5,2.1-0.8,3.3-0.9,3.4c-0.1,0.5-0.4,1.3-0.8,2.4c-0.3,1.1-0.6,1.8-0.7,2.1
		c0,0,0,0,0,0v0c0,0.1,0,0.2-0.1,0.4c0,0.1-0.1,0.2-0.1,0.3c0,0.1-0.1,0.2-0.2,0.3c-0.1,0.1-0.2,0.2-0.2,0.2
		c-0.1,0.1-0.2,0.2-0.2,0.2c-0.1,0-0.2,0.1-0.5,0.3C4.2,19,4,19.2,3.8,19.3c-0.2,0.1-0.4,0.1-0.5-0.1c-0.3-0.4-0.5-0.9-0.6-1.4
		c-0.1-0.9-0.4-2.6-0.9-5.1c-0.6-2.8-1-4.9-1.2-6.3C0.5,5.9,0.4,5.3,0.3,4.5C0.2,3.8,0.1,3.2,0,2.8c-0.1-0.6,0.1-1.1,0.6-1.5
		C1.1,1,1.8,0.8,2.5,1C2.8,1.1,3,1.3,3,1.7c0,0.4,0.1,0.7,0.1,0.9C3.4,5.2,3.6,7,3.9,8C4.3,10.2,4.7,12,5,13.4
		c0.1,0.3,0.2,0.8,0.3,1.4c0,0,0.1,0,0.1,0C5.5,14.8,5.5,14.7,5.5,14.5z"/>
	<path class="st0" d="M21.1,10.8C21,10.9,20.9,11,20.8,11c-0.1,0.1-0.1,0.2-0.2,0.3c0,0.3,0,0.5,0,0.7c-0.1,1.2-0.1,2.9-0.2,5.2
		l-0.1,1.5c0,0.2-0.1,0.4-0.3,0.5c-0.2,0.1-0.4,0.2-0.6,0.2c-0.2,0.1-0.4,0.1-0.7,0.2c-0.3,0.1-0.5,0.1-0.6,0.1c-0.1,0-0.2,0-0.3,0
		c-0.1,0-0.1-0.1-0.2-0.3c-0.1-0.1-0.1-0.2-0.2-0.3c-0.1-0.2-0.2-0.4-0.1-0.7l0.2-2.8c0.1-1.8,0.2-3.2,0.3-4.1
		c0-0.6,0.1-1.4,0.2-2.5c0.1-1.4,0.2-2.4,0.3-3.2c0-0.3,0-0.8,0-1.5c0-0.1,0-0.3,0-0.6c0-0.3,0-0.5,0-0.7c0-0.2,0-0.4-0.2-0.6
		c-0.2-0.1-0.2-0.3-0.2-0.4c0-0.2,0.2-0.3,0.3-0.3c0.2,0,0.4-0.1,0.7-0.2c0.3-0.1,0.5-0.1,0.8-0.2c0.2-0.1,0.5-0.1,0.7-0.2
		c1-0.2,1.9-0.3,2.5-0.2c0.6,0,1.2,0.2,1.6,0.4c0.4,0.2,0.6,0.5,0.8,1c0.5,0.9,0.6,1.9,0.3,3c-0.2,0.9-0.7,1.7-1.3,2.4
		c-0.1,0.1-0.3,0.4-0.5,0.7c-0.2,0.3-0.4,0.5-0.4,0.5c-0.1,0.1-0.2,0.2-0.3,0.4c-0.2,0.2-0.3,0.4-0.2,0.7c0,0.1,0.1,0.5,0.3,1.2
		c0.1,0.6,0.2,1.2,0.3,1.5c0.1,0.4,0.4,1.9,1.1,4.6c0,0.1,0.1,0.3,0.2,0.6c0.1,0.3,0.2,0.5,0.2,0.7c0.1,0.2,0,0.5-0.1,0.7
		c-0.1,0.2-0.3,0.3-0.5,0.4c-0.1,0-0.1,0-0.2,0c-0.3-0.3-0.5-0.5-0.5-0.7c-0.1-0.6-0.2-1.2-0.4-1.8c-0.1-0.6-0.3-1.4-0.5-2.1
		c-0.2-0.8-0.3-1.4-0.4-1.8c-0.1-0.3-0.2-0.7-0.3-1.2c-0.1-0.5-0.2-0.9-0.3-1.1c0,0-0.1-0.1-0.1-0.3C21.4,10.6,21.3,10.7,21.1,10.8z
		 M20.8,9.5c0,0,0.2-0.1,0.3-0.2c0.2-0.1,0.3-0.2,0.4-0.3c0.9-0.9,1.7-1.7,2.3-2.7c0.5-0.8,0.8-1.7,0.8-2.7c0-0.9-0.3-1.4-1.2-1.5
		c-0.2,0-1,0-2.1,0c0,0-0.1,0-0.3,0.1c0.1,0.3,0.2,0.4,0.2,0.5c0,0.1,0,0.3,0,0.6c0,0,0,0.1,0,0.1c0,0.1,0,0.1,0,0.1
		c-0.1,1.6-0.2,2.9-0.3,3.7C20.8,7.8,20.8,8.5,20.8,9.5C20.7,9.4,20.8,9.5,20.8,9.5z"/>
	<path class="st0" d="M26.7,13.5c-0.2-1.4-0.3-2.2-0.3-2.5c-0.1-2.1,0.1-4,0.7-5.7c0.4-1,0.8-1.8,1.2-2.3c0.1-0.1,0.2-0.2,0.4-0.4
		c0.2-0.2,0.3-0.3,0.4-0.4c0.2-0.2,0.4-0.4,0.4-0.5c0-0.1,0.1-0.2,0.2-0.2c0.1,0,0.2,0,0.4-0.1c0.2,0,0.3-0.1,0.4-0.1
		c0.1,0,0.3-0.1,0.6,0c0.3,0,0.5,0,0.6,0.1c0.1,0,0.3,0.1,0.6,0.1c0.3,0.1,0.5,0.1,0.6,0.1c0.8,0.2,1.3,0.6,1.7,1.3
		c0.8,1.7,1.4,3.2,1.6,4.3c0.4,1.9,0.5,3.6,0.2,5.1c-0.2,1.2-0.3,1.9-0.3,2.1c0,0.3-0.2,0.8-0.4,1.3c-0.3,0.8-0.5,1.3-0.6,1.7
		c-0.2,0.6-0.7,1-1.3,1.4c-0.1,0.1-0.4,0.2-0.6,0.3c-0.3,0.1-0.5,0.3-0.6,0.3c-0.2,0.1-0.3,0.1-0.3,0.1c0,0-0.3,0-0.7,0
		c-0.4,0-0.7,0-0.7-0.1c-0.3-0.1-0.7-0.2-1-0.2c-0.8,0-1.4-0.4-1.7-1.2c-0.1-0.2-0.4-0.9-0.8-1.9C27.1,15.5,26.9,14.6,26.7,13.5z
		 M32.9,5.1c-0.1-0.3-0.3-0.7-0.5-1c-0.2-0.4-0.3-0.7-0.4-0.9c0-0.2-0.2-0.3-0.3-0.3c-0.3-0.1-0.6-0.2-1-0.3c-0.2,0-0.4,0-0.5,0.1
		c-0.5,0.3-1,0.8-1.3,1.5c-0.6,1.2-1,2.4-1.1,3.7c-0.1,1.2-0.2,2.2-0.1,3c0.1,1.3,0.3,2.6,0.6,4c0.1,0.6,0.4,1.5,0.9,2.7
		c0.2,0.4,0.4,0.6,0.8,0.6h0.8c0.2,0,0.3,0,0.4,0c0.9-0.4,1.6-1,1.9-1.9c0.2-0.4,0.4-1.2,0.7-2.3c0,0,0.1-0.7,0.3-1.8
		c0.1-0.9,0.2-2,0-3.2c-0.1-1.1-0.3-2.1-0.6-2.8C33.1,5.7,33,5.4,32.9,5.1z"/>
	<path class="st0" d="M45.2,14.6c0-0.4,0-0.9,0.1-1.6c0-0.7,0-1.3,0.1-1.6c0-0.4,0-0.9,0.1-1.7c0-0.7,0.1-1.3,0.1-1.6
		c0.1-1.4,0.2-2.5,0.2-3.3c0-0.6,0.1-1.4,0.1-2.4c0-0.2,0-0.3,0-0.4c0-0.4,0.2-0.6,0.6-0.6c0.8,0.1,1.4,0.2,1.9,0.2
		c0.2,0,0.3,0.1,0.3,0.4c0,0.1,0,0.3,0,0.5c0,0.4,0,0.9-0.1,1.6c0,0.4,0,1-0.1,1.8c0,0.8-0.1,1.4-0.1,1.8c0,0.3,0,0.7,0,1.2
		c0,0.5-0.1,1-0.1,1.2c0,0.3,0,0.7,0,1.2c0,0.5,0,0.9,0,1.2c0,0.3,0,0.9,0,1.9c0,0.9,0,1.7,0,2.2c0,0.1,0,0.5,0,1.1
		c0,0.6,0,1,0.1,1.1c0.1,0.4-0.1,0.6-0.4,0.6c-0.1,0-0.2,0-0.4,0s-0.3,0-0.4,0c-0.1,0-0.3,0-0.3,0c-0.3,0-0.8-0.1-1.4-0.4
		c-0.1,0-0.2-0.2-0.3-0.4c-0.2-0.5-0.4-1.2-0.7-2.2c-0.1-0.2-0.2-0.7-0.4-1.3c-0.2-0.7-0.3-1.2-0.4-1.5c-0.1-0.3-0.2-0.7-0.3-1
		s-0.2-0.8-0.3-1.2c-0.1-0.4-0.2-0.8-0.3-1c-0.5-1.8-0.8-3.2-1.1-4.1c-0.2-0.6-0.3-1.1-0.4-1.4c0,0.2,0,0.4,0,0.7c0,0.3,0,0.6,0,0.8
		c0,0.3,0,0.8-0.1,1.4c0,0.6,0,1.1-0.1,1.6s0,0.9,0,1.3c0,0.7,0,1.8,0,3.2c0,2,0.1,3.4,0.1,4.4c0,0.1,0,0.2,0,0.4
		c0,0.2-0.2,0.3-0.3,0.3c-0.1,0-0.1,0-0.2,0c-0.1,0-0.1,0-0.2,0c-0.1,0-0.1,0-0.2,0c-0.1,0-0.3,0-0.3,0h-0.6c-0.1,0-0.2,0-0.3,0
		c-0.3,0-0.5-0.1-0.6-0.3c-0.1-0.1-0.2-0.4-0.1-0.7c0-1.5,0-2.6,0-3.4c0-0.3,0-1,0-1.9c0-1,0-1.7,0-2.3c0-0.4,0-1.5,0.1-3.3
		c0-1,0-1.9,0-2.9c0-0.6,0-1.4-0.1-2.6c0-0.3,0-0.4,0.1-0.6c0.1-0.1,0.2-0.2,0.4-0.2c0.6-0.1,1.2-0.1,1.7,0.1
		c0.4,0.1,0.6,0.3,0.7,0.4c0.2,0.1,0.3,0.4,0.4,0.6c0.1,0.4,0.3,1,0.5,1.9s0.4,1.5,0.5,1.9c0,0,0.1,0.2,0.1,0.4
		c0.1,0.2,0.1,0.4,0.2,0.6c0.1,0.5,0.3,1.4,0.6,2.4s0.5,1.9,0.6,2.4c0.1,0.5,0.3,1.1,0.5,2c0.2,0.8,0.4,1.3,0.4,1.5
		c0,0.1,0.1,0.1,0.1,0.2h0.1C45.2,15.2,45.2,14.9,45.2,14.6z"/>
	<path class="st0" d="M50.1,6.8c0.3-1.2,0.7-2.2,1.4-3.2c0.1-0.1,0.4-0.4,0.9-1c0.4-0.5,0.9-0.8,1.5-1.1c0.9-0.5,1.8-0.5,2.6,0
		c0.1,0.1,0.3,0.3,0.7,0.7c0.1,0.1,0.1,0.3,0,0.4c-0.1,0.1-0.2,0.1-0.4,0c0,0-0.1,0-0.1-0.1c0,0-0.1,0-0.1,0c-0.9-0.7-1.8-0.7-2.8,0
		c-1.2,0.9-2.1,2.1-2.6,3.8c-0.5,1.6-0.7,3.3-0.8,5.1c0,0.4,0,0.9-0.1,1.6c0,0.8,0,1.7,0.2,2.6c0.1,0.7,0.5,1.1,1.1,1.2
		c0.9,0.2,1.7,0,2.3-0.5c0.7-0.6,1.2-1.4,1.4-2.3c0.2-0.9,0.3-1.7,0.4-2.6V11c0-0.2-0.1-0.3-0.3-0.3h-1.3c-0.3,0-0.6-0.1-0.8-0.4
		c-0.2-0.3-0.1-0.5,0.1-0.6c0.1-0.1,0.3-0.1,0.4-0.1c0.2,0,0.5,0,0.8-0.1c0.4,0,0.7,0,0.8-0.1c0.7-0.1,1.3-0.2,1.6-0.2
		c0.3,0,0.4,0,0.6,0.1c0.1,0.1,0.2,0.3,0.4,0.6c0.1,0.1,0.1,0.4,0.2,0.7c0,0.1,0,0.3,0,0.6c0,0.1,0,0.3-0.1,0.6
		c0,0.3-0.1,0.4-0.1,0.6c-0.1,1.4-0.2,2.4-0.4,3c-0.1,0.2-0.1,0.4-0.2,0.7c-0.3,0.9-0.9,1.8-1.8,2.7c-0.2,0.2-0.4,0.3-0.7,0.4
		c-0.9,0.3-1.6,0.4-2.3,0.1c-0.1,0-0.5-0.3-1.3-0.7c-0.6-0.3-1.1-0.9-1.6-1.6c-0.3-0.5-0.5-1.1-0.5-1.7c0-0.5-0.1-1.1-0.2-2
		C49.5,10.7,49.7,8.5,50.1,6.8z"/>
	<path class="st0" d="M60.3,17.6c0.1-0.1,0.3-0.2,0.4-0.1c0.2,0,0.3,0.1,0.4,0.1c0.4,0.1,0.6,0.3,0.6,0.7c0,0.4,0,0.6,0,0.7
		c-0.2,0.3-0.4,0.4-0.6,0.3c-0.2-0.1-0.5-0.2-0.9-0.4c-0.2-0.1-0.3-0.3-0.2-0.6C60,18,60.1,17.8,60.3,17.6z"/>
	<path class="st0" d="M63.6,17.6c0.1-0.1,0.3-0.2,0.4-0.1c0.2,0,0.3,0.1,0.4,0.1c0.4,0.1,0.6,0.3,0.6,0.7c0,0.4,0,0.6,0,0.7
		c-0.2,0.3-0.4,0.4-0.6,0.3c-0.2-0.1-0.5-0.2-0.9-0.4c-0.2-0.1-0.3-0.3-0.2-0.6C63.3,18,63.4,17.8,63.6,17.6z"/>
	<path class="st0" d="M66.9,17.6c0.1-0.1,0.3-0.2,0.4-0.1c0.2,0,0.3,0.1,0.4,0.1c0.4,0.1,0.6,0.3,0.6,0.7c0,0.4,0,0.6,0,0.7
		c-0.2,0.3-0.4,0.4-0.6,0.3c-0.2-0.1-0.5-0.2-0.9-0.4c-0.2-0.1-0.3-0.3-0.2-0.6C66.6,18,66.7,17.8,66.9,17.6z"/>
	<path class="st0" d="M70.2,17.6c0.1-0.1,0.3-0.2,0.4-0.1c0.2,0,0.3,0.1,0.4,0.1c0.4,0.1,0.6,0.3,0.6,0.7c0,0.4,0,0.6,0,0.7
		c-0.2,0.3-0.4,0.4-0.6,0.3c-0.2-0.1-0.5-0.2-0.9-0.4c-0.2-0.1-0.3-0.3-0.2-0.6C69.8,18,70,17.8,70.2,17.6z"/>
	<path class="st0" d="M73.5,17.6c0.1-0.1,0.3-0.2,0.4-0.1c0.2,0,0.3,0.1,0.4,0.1c0.4,0.1,0.6,0.3,0.6,0.7c0,0.4,0,0.6,0,0.7
		c-0.2,0.3-0.4,0.4-0.6,0.3c-0.2-0.1-0.5-0.2-0.9-0.4c-0.2-0.1-0.3-0.3-0.2-0.6C73.1,18,73.2,17.8,73.5,17.6z"/>
	<path class="st0" d="M79.3,4.4c0-0.4,0-0.7,0-0.9V3.2c0-0.2-0.1-0.4-0.1-0.4c-0.1-0.1-0.2-0.1-0.3-0.1h-1.6c-0.2,0-0.4,0-0.5,0
		c-0.1,0-0.2-0.1-0.3-0.2c-0.1-0.1-0.1-0.3-0.1-0.4c0-0.3,0.2-0.4,0.4-0.4c0.2,0,0.4,0,0.8,0c0.3,0,0.6,0,0.9,0c0.3,0,0.5,0,0.8,0
		c0.8,0,1.4,0,1.6-0.1c0.6-0.2,1.6-0.2,2.9-0.2c0.3,0,0.7,0,1.3,0c0.5,0,0.9,0,1.1,0c0.3,0,0.5,0.2,0.6,0.6c0,0.2,0,0.3-0.1,0.4
		c0,0-0.1,0-0.1,0c-0.1,0-0.1,0-0.1,0c-0.8,0-1.9,0-3.3,0.1h-0.2c-0.2,0-0.4,0.1-0.5,0.1c-0.1,0.1-0.1,0.3,0,0.6c0,0.2,0,0.4,0,0.5
		c0,0.7-0.1,1.1-0.1,1.5c0,0.3-0.1,0.8-0.1,1.4c0,0.2,0,0.4-0.1,0.8C82,7.5,82,7.8,82,8.1c0,0.3,0,0.5-0.1,0.8
		c-0.1,1.9-0.2,3.3-0.3,4.1c-0.1,1.1-0.2,2.1-0.2,3c-0.1,0.9-0.1,1.5-0.1,1.8c0,0.1,0,0.2,0,0.4c0,0.2,0,0.3,0,0.4
		c0,0.2-0.1,0.4-0.3,0.5c-0.2,0.1-0.5,0.1-0.8,0.2c-0.4,0-0.6,0.1-0.7,0.1c-0.1,0-0.3,0-0.6-0.1c-0.3-0.1-0.5-0.4-0.4-0.8
		c0-0.4,0.1-1.1,0.2-2.2c0.1-1.1,0.2-2,0.2-2.8c0.1-1,0.2-2.6,0.3-4.7c0-0.3,0-0.8,0.1-1.5c0-0.7,0.1-1.2,0.1-1.5V5.3h0
		C79.2,5.1,79.3,4.8,79.3,4.4z"/>
	<path class="st0" d="M92.2,10.8C92,10.9,91.9,11,91.9,11c-0.1,0.1-0.1,0.2-0.2,0.3c0,0.3,0,0.5,0,0.7c-0.1,1.2-0.1,2.9-0.2,5.2
		l-0.1,1.5c0,0.2-0.1,0.4-0.3,0.5c-0.2,0.1-0.4,0.2-0.6,0.2c-0.2,0.1-0.4,0.1-0.7,0.2c-0.3,0.1-0.5,0.1-0.6,0.1c-0.1,0-0.2,0-0.3,0
		c-0.1,0-0.1-0.1-0.2-0.3c-0.1-0.1-0.1-0.2-0.2-0.3c-0.1-0.2-0.2-0.4-0.1-0.7l0.2-2.8c0.1-1.8,0.2-3.2,0.3-4.1
		c0-0.6,0.1-1.4,0.2-2.5c0.1-1.4,0.2-2.4,0.3-3.2c0-0.3,0-0.8,0-1.5c0-0.1,0-0.3,0-0.6s0-0.5,0-0.7c0-0.2,0-0.4-0.2-0.6
		c-0.2-0.1-0.2-0.3-0.2-0.4c0-0.2,0.2-0.3,0.3-0.3c0.2,0,0.4-0.1,0.7-0.2c0.3-0.1,0.5-0.1,0.8-0.2c0.2-0.1,0.5-0.1,0.7-0.2
		c1-0.2,1.9-0.3,2.5-0.2c0.6,0,1.2,0.2,1.6,0.4c0.4,0.2,0.6,0.5,0.8,1c0.5,0.9,0.6,1.9,0.3,3c-0.2,0.9-0.7,1.7-1.3,2.4
		C95.2,8,95,8.2,94.8,8.5c-0.2,0.3-0.4,0.5-0.4,0.5c-0.1,0.1-0.2,0.2-0.3,0.4c-0.2,0.2-0.3,0.4-0.2,0.7c0,0.1,0.1,0.5,0.3,1.2
		c0.1,0.6,0.2,1.2,0.3,1.5c0.1,0.4,0.4,1.9,1.1,4.6c0,0.1,0.1,0.3,0.2,0.6c0.1,0.3,0.2,0.5,0.2,0.7c0.1,0.2,0,0.5-0.1,0.7
		s-0.3,0.3-0.5,0.4c-0.1,0-0.1,0-0.2,0c-0.3-0.3-0.5-0.5-0.5-0.7c-0.1-0.6-0.2-1.2-0.4-1.8c-0.1-0.6-0.3-1.4-0.5-2.1
		c-0.2-0.8-0.3-1.4-0.4-1.8c-0.1-0.3-0.2-0.7-0.3-1.2c-0.1-0.5-0.2-0.9-0.3-1.1c0,0-0.1-0.1-0.1-0.3C92.5,10.6,92.4,10.7,92.2,10.8z
		 M91.9,9.5c0,0,0.2-0.1,0.3-0.2c0.2-0.1,0.3-0.2,0.4-0.3c0.9-0.9,1.7-1.7,2.3-2.7c0.5-0.8,0.8-1.7,0.8-2.7c0-0.9-0.3-1.4-1.2-1.5
		c-0.2,0-1,0-2.1,0c0,0-0.1,0-0.3,0.1c0.1,0.3,0.2,0.4,0.2,0.5c0,0.1,0,0.3,0,0.6c0,0,0,0.1,0,0.1c0,0.1,0,0.1,0,0.1
		C92.1,5.3,92,6.6,92,7.4C91.9,7.8,91.8,8.5,91.9,9.5C91.8,9.4,91.8,9.5,91.9,9.5z"/>
	<path class="st0" d="M101.8,8.4c0.1-0.4,0.2-0.7,0.2-0.9c0.1-0.6,0.3-1.6,0.6-2.7s0.4-2,0.6-2.5c0.1-0.6,0.2-1.1,0.3-1.4
		c0.1-0.4,0.2-0.6,0.5-0.6c0.6-0.1,1.1,0,1.6,0.4c0.1,0,0.1,0.1,0.2,0.2c0.1,0.1,0.2,0.1,0.2,0.2c0.3,0.2,0.5,0.6,0.3,1.1
		c-0.6,2.2-1,3.8-1.2,4.8c-0.1,0.4-0.2,0.8-0.3,1.3c-0.1,0.5-0.2,1-0.4,1.5c-0.1,0.5-0.3,1-0.3,1.3c-0.2,0.7-0.5,2.2-1.1,4.4
		c-0.1,0.3-0.2,0.7-0.3,1.3c-0.1,0.6-0.2,1-0.3,1.3c0,0.1-0.1,0.6-0.4,1.5c-0.1,0.2-0.1,0.2-0.2,0.2c-0.3,0.1-0.5,0.1-0.7,0.1
		c-0.5,0-1-0.1-1.6-0.3c-0.1,0-0.2-0.2-0.3-0.4c-0.1-0.3-0.1-0.5-0.1-0.7l0.8-3.4c0.2-0.7,0.4-1.9,0.8-3.4c0.1-0.3,0.1-0.6,0-1
		l-0.7-2.3c-0.1-0.4-0.2-0.9-0.4-1.6c-0.2-0.7-0.3-1.3-0.4-1.6c0,0,0,0,0-0.1c0,0,0-0.1,0-0.1c-0.1-0.3-0.2-0.7-0.5-1.2
		c-0.2-0.5-0.4-0.9-0.5-1.2c-0.1-0.2-0.1-0.4-0.2-0.6c-0.1-0.3,0-0.6,0.2-0.8c0.2-0.1,0.4-0.1,0.6,0.2c0.1,0.1,0.2,0.3,0.3,0.5
		c0.1,0.4,0.4,1.1,0.7,2c0.1,0.3,0.2,0.7,0.4,1.3c0.2,0.6,0.2,0.9,0.3,0.9c0.2,0.6,0.4,1.5,0.7,2.6c0,0,0,0.1,0.1,0.2
		C101.6,9,101.7,8.8,101.8,8.4z"/>
	<path class="st0" d="M114.1,18.7c0-0.3,0.1-0.5,0.1-0.7c0.1-0.4,0.3-1,0.5-1.8c0.2-0.8,0.3-1.3,0.4-1.6c0.1-0.4,0.2-1,0.4-1.7
		c0.1-0.7,0.2-1.2,0.3-1.4c0.4-1.9,0.7-3.1,0.8-3.5c0.1-0.2,0.1-0.5,0.2-0.7c0.1-0.3,0.2-0.5,0.2-0.8c0.1-0.3,0.2-0.5,0.2-0.7
		l0.7-2.7c0-0.1,0-0.3,0-0.5c-0.1-0.4,0-0.6,0.3-0.8c0.1,0,0.2-0.1,0.5-0.2c0.2-0.1,0.3-0.1,0.4-0.2c0.1-0.1,0.5-0.1,1.1-0.1
		c0.3,0,0.5,0.1,0.6,0.4c0,0.1,0.1,0.3,0.1,0.5c0.2,2.3,0.4,3.8,0.5,4.7c0.1,0.8,0.2,1.8,0.3,3.1c0,0.1,0,0.2,0,0.3
		c0,0.1,0,0.2,0,0.3c0,0.1,0,0.2,0,0.3c0.1,1.2,0.2,2.1,0.3,2.7c0.1,0.8,0.2,1.9,0.3,3.4c0,0.1,0,0.3,0,0.6c0,0.3,0,0.5,0,0.7
		c0,0.1-0.1,0.3-0.2,0.4c-0.7,0.4-1.2,0.6-1.6,0.7c-0.1,0-0.1,0-0.2,0.1c-0.2,0.1-0.3,0.1-0.5,0c-0.2-0.1-0.3-0.3-0.3-0.5
		c0-1.1-0.1-2.7-0.3-4.6c0-0.2-0.1-0.5-0.1-0.9c0-0.4-0.1-0.7-0.1-0.9c0-0.2-0.1-0.3-0.1-0.4c0-0.1-0.2-0.1-0.3-0.1
		c-0.2,0-0.9,0-1.9,0.1c-0.3,0-0.4,0.2-0.5,0.4c-0.1,0.4-0.3,1.3-0.6,2.9c-0.1,0.2-0.2,0.6-0.3,1c-0.1,0.5-0.2,0.8-0.3,1
		c-0.2,0.9-0.4,1.4-0.4,1.5c-0.2,0.1-0.3,0.2-0.3,0.1c0,0,0,0,0,0c0,0,0,0,0,0v0l-0.1,0.1C114.1,18.9,114.1,18.8,114.1,18.7z
		 M116.6,11.2c0.2,0,0.4,0,0.7-0.1c0.1,0,0.4,0,0.7,0c0.3,0,0.5,0,0.7,0c0.2,0,0.3,0,0.3-0.1c0,0,0-0.1,0-0.3c0-0.2-0.1-0.6-0.1-1
		c0-0.4-0.1-0.8-0.1-1c0-0.4-0.1-0.9-0.2-1.6c-0.1-0.7-0.1-1.3-0.2-1.6c0,0,0-0.1,0-0.2c0-0.1,0-0.2,0-0.2
		C117.4,7.3,116.9,9.4,116.6,11.2z"/>
	<path class="st0" d="M124,6.8c0.3-1.2,0.7-2.2,1.4-3.2c0.1-0.1,0.4-0.4,0.9-1c0.4-0.5,0.9-0.8,1.5-1.1c0.9-0.5,1.8-0.5,2.6,0
		c0.1,0.1,0.3,0.3,0.7,0.7c0.1,0.1,0.1,0.3,0,0.4c-0.1,0.1-0.2,0.1-0.4,0c0,0-0.1,0-0.1-0.1c0,0-0.1,0-0.1,0c-0.9-0.7-1.8-0.7-2.8,0
		c-1.2,0.9-2.1,2.1-2.6,3.8c-0.5,1.6-0.7,3.3-0.8,5.1c0,0.4,0,0.9-0.1,1.6c0,0.8,0,1.7,0.2,2.6c0.1,0.7,0.5,1.1,1.1,1.2
		c0.9,0.2,1.7,0,2.3-0.5c0.7-0.6,1.2-1.4,1.4-2.3c0.2-0.9,0.3-1.7,0.4-2.6V11c0-0.2-0.1-0.3-0.3-0.3h-1.3c-0.3,0-0.6-0.1-0.8-0.4
		c-0.2-0.3-0.1-0.5,0.1-0.6c0.1-0.1,0.3-0.1,0.4-0.1c0.2,0,0.5,0,0.8-0.1c0.4,0,0.7,0,0.8-0.1c0.7-0.1,1.3-0.2,1.6-0.2
		c0.3,0,0.5,0,0.6,0.1c0.1,0.1,0.2,0.3,0.4,0.6c0.1,0.1,0.1,0.4,0.2,0.7c0,0.1,0,0.3,0,0.6c0,0.1,0,0.3-0.1,0.6
		c0,0.3-0.1,0.4-0.1,0.6c-0.1,1.4-0.2,2.4-0.4,3c-0.1,0.2-0.1,0.4-0.2,0.7c-0.3,0.9-0.9,1.8-1.8,2.7c-0.2,0.2-0.4,0.3-0.7,0.4
		c-0.9,0.3-1.6,0.4-2.3,0.1c-0.1,0-0.5-0.3-1.3-0.7c-0.6-0.3-1.1-0.9-1.6-1.6c-0.3-0.5-0.5-1.1-0.5-1.7c0-0.5-0.1-1.1-0.2-2
		C123.3,10.7,123.6,8.5,124,6.8z"/>
	<path class="st0" d="M132.6,18.7c0-0.3,0.1-0.5,0.1-0.7c0.1-0.4,0.3-1,0.5-1.8c0.2-0.8,0.3-1.3,0.4-1.6c0.1-0.4,0.2-1,0.4-1.7
		c0.1-0.7,0.2-1.2,0.3-1.4c0.4-1.9,0.7-3.1,0.8-3.5c0.1-0.2,0.1-0.5,0.2-0.7c0.1-0.3,0.2-0.5,0.2-0.8c0.1-0.3,0.2-0.5,0.2-0.7
		l0.7-2.7c0-0.1,0-0.3,0-0.5c-0.1-0.4,0-0.6,0.3-0.8c0.1,0,0.2-0.1,0.5-0.2c0.2-0.1,0.3-0.1,0.4-0.2c0.1-0.1,0.5-0.1,1.1-0.1
		c0.3,0,0.5,0.1,0.6,0.4c0,0.1,0.1,0.3,0.1,0.5c0.2,2.3,0.4,3.8,0.5,4.7c0.1,0.8,0.2,1.8,0.3,3.1c0,0.1,0,0.2,0,0.3
		c0,0.1,0,0.2,0,0.3c0,0.1,0,0.2,0,0.3c0.1,1.2,0.2,2.1,0.3,2.7c0.1,0.8,0.2,1.9,0.3,3.4c0,0.1,0,0.3,0,0.6c0,0.3,0,0.5,0,0.7
		c0,0.1-0.1,0.3-0.2,0.4c-0.7,0.4-1.2,0.6-1.6,0.7c-0.1,0-0.1,0-0.2,0.1c-0.2,0.1-0.3,0.1-0.5,0c-0.2-0.1-0.3-0.3-0.3-0.5
		c0-1.1-0.1-2.7-0.3-4.6c0-0.2-0.1-0.5-0.1-0.9c0-0.4-0.1-0.7-0.1-0.9c0-0.2-0.1-0.3-0.1-0.4c0-0.1-0.2-0.1-0.3-0.1
		c-0.2,0-0.9,0-1.9,0.1c-0.3,0-0.4,0.2-0.5,0.4c-0.1,0.4-0.3,1.3-0.6,2.9c-0.1,0.2-0.2,0.6-0.3,1c-0.1,0.5-0.2,0.8-0.3,1
		c-0.2,0.9-0.4,1.4-0.4,1.5c-0.2,0.1-0.3,0.2-0.3,0.1c0,0,0,0,0,0c0,0,0,0,0,0v0l-0.1,0.1C132.6,18.9,132.6,18.8,132.6,18.7z
		 M135.2,11.2c0.2,0,0.4,0,0.7-0.1c0.1,0,0.4,0,0.7,0c0.3,0,0.5,0,0.6,0c0.2,0,0.3,0,0.3-0.1c0,0,0-0.1,0-0.3c0-0.2-0.1-0.6-0.1-1
		c0-0.4-0.1-0.8-0.1-1c0-0.4-0.1-0.9-0.2-1.6c-0.1-0.7-0.1-1.3-0.2-1.6c0,0,0-0.1,0-0.2c0-0.1,0-0.2,0-0.2
		C136,7.3,135.4,9.4,135.2,11.2z"/>
	<path class="st0" d="M145.9,3.4c-0.1,0.7-0.2,1.8-0.2,3.5l-0.1,4.2v2.8c0,0.3,0,0.9,0,1.5c0,0.7,0,1.2,0,1.5c0,0.2,0,0.4,0,0.7
		c0,0.3,0,0.6,0,0.7c0,0.2,0,0.3-0.1,0.3c0,0-0.1,0.1-0.3,0.2c-0.3,0.1-0.7,0.2-1.2,0.3c-0.2,0-0.5,0-0.9,0c-0.1,0-0.2,0-0.2-0.1
		c-0.2-0.4-0.3-0.8-0.3-1c0-0.1,0-0.3,0-0.5c0-0.2,0-0.4,0-0.5c0-0.4,0-2.8,0.1-7.3c0-1.5,0.1-3,0.1-4.5c0-0.3,0-0.7,0.1-1.4
		c0-0.6,0.1-1.1,0.1-1.4c0-0.2,0-0.5,0-1c0-0.4,0.2-0.6,0.5-0.7c0.3-0.1,0.6-0.1,0.8-0.1c0.5,0,0.9,0.2,1.2,0.4
		c0.2,0.1,0.4,0.2,0.5,0.3c0.1,0.1,0.1,0.3,0.1,0.7C146,2.7,145.9,3.1,145.9,3.4z"/>
	<path class="st0" d="M154.7,14.6c0-0.4,0-0.9,0.1-1.6c0-0.7,0-1.3,0.1-1.6c0-0.4,0-0.9,0.1-1.7c0-0.7,0.1-1.3,0.1-1.6
		c0.1-1.4,0.2-2.5,0.2-3.3c0-0.6,0.1-1.4,0.1-2.4c0-0.2,0-0.3,0-0.4c0-0.4,0.2-0.6,0.6-0.6c0.8,0.1,1.4,0.2,1.9,0.2
		c0.2,0,0.3,0.1,0.3,0.4c0,0.1,0,0.3,0,0.5c0,0.4,0,0.9-0.1,1.6c0,0.4,0,1-0.1,1.8c0,0.8-0.1,1.4-0.1,1.8c0,0.3,0,0.7,0,1.2
		c0,0.5-0.1,1-0.1,1.2c0,0.3,0,0.7,0,1.2c0,0.5,0,0.9,0,1.2c0,0.3,0,0.9,0,1.9c0,0.9,0,1.7,0,2.2c0,0.1,0,0.5,0,1.1
		c0,0.6,0,1,0.1,1.1c0.1,0.4-0.1,0.6-0.4,0.6c-0.1,0-0.2,0-0.4,0c-0.1,0-0.3,0-0.4,0c-0.1,0-0.3,0-0.3,0c-0.3,0-0.8-0.1-1.4-0.4
		c-0.1,0-0.2-0.2-0.3-0.4c-0.2-0.5-0.4-1.2-0.7-2.2c-0.1-0.2-0.2-0.7-0.4-1.3c-0.2-0.7-0.3-1.2-0.4-1.5c-0.1-0.3-0.2-0.7-0.3-1
		s-0.2-0.8-0.3-1.2c-0.1-0.4-0.2-0.8-0.3-1c-0.5-1.8-0.8-3.2-1.1-4.1c-0.2-0.6-0.3-1.1-0.4-1.4c0,0.2,0,0.4,0,0.7c0,0.3,0,0.6,0,0.8
		c0,0.3,0,0.8-0.1,1.4c0,0.6,0,1.1-0.1,1.6c0,0.5,0,0.9,0,1.3c0,0.7,0,1.8,0,3.2c0,2,0.1,3.4,0.1,4.4c0,0.1,0,0.2,0,0.4
		c0,0.2-0.2,0.3-0.3,0.3c-0.1,0-0.1,0-0.2,0c-0.1,0-0.1,0-0.2,0c-0.1,0-0.1,0-0.2,0c-0.1,0-0.3,0-0.3,0h-0.6c-0.1,0-0.2,0-0.3,0
		c-0.3,0-0.5-0.1-0.6-0.3c-0.1-0.1-0.2-0.4-0.1-0.7c0-1.5,0-2.6,0-3.4c0-0.3,0-1,0-1.9c0-1,0-1.7,0-2.3c0-0.4,0-1.5,0.1-3.3
		c0-1,0-1.9,0-2.9c0-0.6,0-1.4-0.1-2.6c0-0.3,0-0.4,0.1-0.6c0.1-0.1,0.2-0.2,0.4-0.2c0.6-0.1,1.2-0.1,1.7,0.1
		c0.4,0.1,0.6,0.3,0.7,0.4c0.2,0.1,0.3,0.4,0.4,0.6c0.1,0.4,0.3,1,0.5,1.9c0.2,0.8,0.4,1.5,0.5,1.9c0,0,0.1,0.2,0.1,0.4
		c0.1,0.2,0.1,0.4,0.2,0.6c0.1,0.5,0.3,1.4,0.6,2.4s0.5,1.9,0.6,2.4c0.1,0.5,0.3,1.1,0.5,2s0.4,1.3,0.4,1.5c0,0.1,0.1,0.1,0.1,0.2
		h0.1C154.7,15.2,154.7,14.9,154.7,14.6z"/>
	<path class="st0" d="M159.7,18.3c0-0.4,0.2-0.7,0.5-0.8c0.3-0.1,0.5-0.2,0.8-0.2c0.4,0,0.8,0,1.1,0c0.5,0,0.7,0.3,0.7,0.8
		c-0.1,0.8-0.1,1.4-0.2,1.7c0,0.1-0.1,0.2-0.2,0.3c-0.5,0.3-1,0.5-1.5,0.6c-0.1,0-0.2,0-0.3,0.1c-0.1,0-0.2,0.1-0.3,0.1
		c-0.2,0-0.3,0-0.3-0.1c0,0-0.1-0.1-0.2-0.3c-0.1-0.2-0.2-0.3-0.2-0.4c0-0.1,0-0.3,0-0.4L159.7,18.3z M160,5.9l0.3-3.8
		c0-0.3,0-0.5,0-0.6c0-0.3,0.1-0.5,0.4-0.6c0.7-0.4,1.5-0.3,2.3,0.3c0.2,0.2,0.3,0.4,0.2,0.8c0,0.2,0,0.6-0.1,1.1
		c0,0.5-0.1,0.8-0.1,1.1C163,5.6,163,6.4,163,6.7c0,0.8,0,1.6,0,2.4c0,0.9,0,1.8,0,2.8c0,1,0,1.8,0,2.4c0,0,0,0.1,0,0.3
		c0,0.1,0,0.2,0,0.3c0,0.2,0,0.3-0.2,0.4c-0.6,0.3-1.3,0.6-2.1,0.7c-0.2,0-0.3,0-0.4-0.2c-0.2-0.4-0.3-0.8-0.3-1.3v-3.1h0
		C160,7.7,160,5.9,160,5.9z"/>
</g>
</svg>
