<?xml version="1.0" encoding="utf-8"?>
<!-- Generator: Adobe Illustrator 21.0.2, SVG Export Plug-In . SVG Version: 6.00 Build 0)  -->
<svg version="1.1" id="Layer_1" xmlns="http://www.w3.org/2000/svg" xmlns:xlink="http://www.w3.org/1999/xlink" x="0px" y="0px"
	 viewBox="0 0 178.6 33.8" style="enable-background:new 0 0 178.6 33.8;" xml:space="preserve">
<style type="text/css">
	.st0{fill:#F96495;}
</style>
<g>
	<path class="st0" d="M15.5,16.6c0.1,0.2,0.1,0.5,0.1,0.9s0.1,0.6,0.1,0.8c0,1.6-0.4,3.7-1.1,6.4c-0.1,0.3-0.2,0.6-0.4,1
		c-0.2,0.3-0.3,0.6-0.4,0.8c-0.1,0.2-0.3,0.5-0.6,0.9s-0.4,0.7-0.5,0.8c-0.8,1.2-1.9,2.3-3.2,3.2H9.4c-0.2,0.2-0.5,0.3-0.9,0.4
		S7.6,32,7,32.1c-0.7,0.1-1.5,0-2.4-0.3S2.7,31,1.8,30.4c-0.6-0.7-1-1.6-1.3-2.7C0.2,26.5,0,25.6,0,25v-1l0.1-0.6
		c0.1-0.6,0.3-1,0.4-1.4c0.2-0.4,0.5-0.5,0.9-0.2c0.2,0.1,0.3,0.2,0.3,0.3v0.2c0,0.1-0.1,0.2-0.1,0.4c-0.1,0.2-0.1,0.4-0.1,0.6
		c-0.2,0.8-0.3,1.5-0.1,2.2c0.2,2.5,1.6,3.9,4,4.4c1,0.2,1.9,0,2.5-0.5c0.7-0.5,1.1-1.3,1.4-2.2c0.3-1,0.4-1.9,0.5-2.8
		s0.1-1.8,0-2.8c0-0.7-0.1-1.4-0.2-2L9.5,19c-0.5-2.3-1.6-3.6-3.2-4l-1.8-0.5c-1.6-0.7-2.4-2-2.5-3.8c0.1-1.1,0.3-2.1,0.6-3
		C3,6.5,3.5,5.6,4,4.9c1-1.3,2.2-2.2,3.8-2.6c1.1-0.3,2-0.4,2.5-0.5c0.9-0.1,1.8,0.2,2.8,0.8c0.8,0.5,1.2,0.9,1.4,1.2
		c0.1,0.2,0.2,0.3,0.2,0.4c0.1,0.3,0.1,0.4,0,0.5s-0.2,0.2-0.4,0.2c-0.2-0.1-0.4-0.2-0.5-0.4c-0.4-0.4-1.1-0.8-2-1.2
		c-0.7-0.4-1.6-0.4-2.7,0C8.3,3.5,7.5,3.9,6.8,4.4c-1.1,0.7-1.9,1.7-2.4,3c-0.5,1.1-0.8,2-0.8,2.6c-0.1,0.2-0.1,0.4-0.1,0.4
		c0,0.5,0,0.9,0.2,1.1c0.2,0.2,0.4,0.3,0.8,0.2C5,11.5,6,11.5,7.4,11.5c0.3,0,0.7,0,1.4-0.1s1.2-0.1,1.5,0c1.5,0.1,2.7,0.7,3.6,2
		C14.7,14.3,15.2,15.3,15.5,16.6z"/>
	<path class="st0" d="M27.2,21.9c0.1-1.9,0.1-3.2,0.1-4.1c0-0.3,0-0.5-0.1-0.6c0-0.2-0.2-0.2-0.4-0.2c-1,0-1.9-0.1-2.6-0.2
		c-0.5-0.1-0.7,0.1-0.7,0.6c-0.2,3.3-0.4,5.3-0.4,6.1c0,0.4-0.1,1.1-0.2,1.9c-0.1,0.9-0.1,1.5-0.2,1.9c0,0,0,0.4,0,1.1v1.1
		c0,0.3-0.1,0.4-0.1,0.5s-0.2,0.1-0.5,0.2c-0.5,0.1-1.5,0.3-3.1,0.5c-0.4,0-0.7-0.1-1-0.4s-0.4-0.6-0.4-1c0.2-3.4,0.2-5.1,0.2-5.1
		c0.3-3.9,0.5-6.7,0.6-8.5l0.4-4.7c0.1-0.5,0.1-1.2,0.2-2.1s0.1-1.6,0.2-2.1c0-0.3,0.1-0.7,0.2-1.3s0.1-1,0.2-1.3
		c0.1-0.9,0.1-1.5,0.1-2s0.3-0.8,0.8-1C21.3,1,22.3,1,23.6,1.4c0,0,0.1,0,0.3,0.1c0.5,0.2,0.8,0.4,0.9,0.5c0.1,0.2,0.1,0.5,0.1,1
		s-0.1,1.1-0.2,1.9s-0.2,1.3-0.2,1.5c-0.1,0.7-0.1,1.6-0.3,2.9c-0.1,1.3-0.2,2.2-0.3,2.8c0,0.3-0.1,1.1-0.2,2.2c0,0.3,0,0.4,0.1,0.5
		S24,15,24.3,15c0.4,0.1,1.3,0.1,2.7,0.1c0.4,0,0.6-0.2,0.6-0.5c0.1-0.7,0.1-1.4,0.1-2.1c0-0.7,0.1-1.8,0.1-3.2
		c0.1-1.4,0.1-2.5,0.1-3.2c0-0.5,0-1.1,0-2s0-1.5,0-2c0-0.2,0-0.4,0-0.4c0-0.3,0.2-0.4,0.4-0.5c0.2-0.1,0.4,0,0.6,0.1
		c0.6,0.6,0.9,1.2,0.9,1.9c-0.1,0.7-0.1,1.7-0.1,3s0,2.2-0.1,2.7l-0.2,4.8c0,0.2,0,0.4,0,0.7s0,0.6,0,0.7c0,0.6,0,1.5-0.1,2.7
		s-0.1,2.1-0.1,2.7c0,0.1,0,2.4,0.1,7c0,0.2,0,0.4,0,0.9c0,0.4,0,0.7,0,1s-0.2,0.5-0.5,0.6c-0.5,0.2-0.9,0.2-1.3-0.1
		c-0.3-0.3-0.5-0.7-0.5-1.2c0.1-0.5,0.1-1.1,0.1-1.6c0-0.3,0-0.9-0.1-1.6l0,0C27.1,25.1,27.2,23.7,27.2,21.9z"/>
	<path class="st0" d="M37.2,29.2c0.5-0.1,1.3-0.2,2.3-0.3c1-0.1,1.8-0.3,2.3-0.3H42c0.5-0.1,0.9,0,1,0.1s0.2,0.5,0.1,1
		c0,0.3-0.1,0.6-0.4,0.6c-0.1,0-0.1,0-0.2,0c-0.1,0-0.2,0-0.2,0c-2.6,0.2-4.2,0.5-4.9,0.6C37,31,36.7,31,36.2,31s-0.8,0-0.9,0.1
		c-0.7,0-1.2,0-1.6,0c-0.8,0.1-1.3-0.3-1.6-1.2c-0.1-0.4-0.2-0.8-0.1-1.3c0.3-2.2,0.6-4.6,0.8-7.4c0-0.5,0.1-1.3,0.1-2.2
		c0-1,0.1-1.7,0.1-2.2c0-0.1,0.1-1.9,0.4-5.3c0-0.8,0.1-2.1,0.2-3.7c0.1-1,0.2-2.5,0.3-4.6c0-0.2,0.1-0.5,0.4-0.7
		c0.5-0.4,1.1-0.6,1.7-0.7c0.3,0,0.8-0.1,1.7-0.1c0.9-0.1,1.5-0.1,2-0.1c0.2,0,0.4,0,0.8,0c0.3,0,0.6,0,0.9,0c0.3,0,0.5-0.1,0.8-0.2
		h0.4c0.4,0.1,0.6,0.1,0.7,0.2c0.1,0.1,0.1,0.3,0.1,0.7c0,0.5,0,0.7-0.1,0.8S43,3.3,42.5,3.3c-1.5-0.1-2.5-0.1-3.2,0
		c-0.3,0-0.4,0.1-0.5,0.2c-0.1,0.1-0.1,0.3-0.1,0.6l-0.5,5.8c0,0,0,0.8-0.1,2.2L38,14.6c0,0.4,0,0.6,0.1,0.7c0.1,0.1,0.3,0.1,0.6,0
		c0.5-0.1,1.3-0.1,2.3-0.2c0.3,0,0.5,0,0.6,0.1s0.2,0.3,0.2,0.6c0.1,0.2,0.1,0.3,0.1,0.3c0,0.4-0.1,0.6-0.4,0.6
		c-0.3,0.1-0.8,0.1-1.5,0.2c-0.8,0.1-1.4,0.1-1.7,0.2s-0.4,0.3-0.4,0.7c0,0.3-0.1,0.8-0.1,1.5c0,0.6,0,1.1,0,1.5
		c-0.3,3.4-0.5,5.4-0.6,5.9c-0.1,0.3-0.1,0.8-0.2,1.5c-0.1,0.7-0.1,1.1-0.1,1.2C37,29.2,37.2,29.2,37.2,29.2z"/>
	<path class="st0" d="M71.9,16.6c0.1,0.2,0.1,0.5,0.1,0.9s0.1,0.6,0.1,0.8c0,1.6-0.4,3.7-1.1,6.4c-0.1,0.3-0.2,0.6-0.4,1
		c-0.2,0.3-0.3,0.6-0.4,0.8c-0.1,0.2-0.3,0.5-0.6,0.9c-0.3,0.4-0.4,0.7-0.5,0.8c-0.8,1.2-1.9,2.3-3.2,3.2h-0.1
		c-0.2,0.2-0.5,0.3-0.9,0.4S64,32,63.4,32.1c-0.7,0.1-1.5,0-2.4-0.3s-1.9-0.8-2.8-1.4c-0.6-0.7-1-1.6-1.3-2.7
		c-0.3-1-0.5-1.9-0.5-2.5v-1l0.1-0.6c0.1-0.6,0.3-1,0.4-1.4c0.2-0.4,0.5-0.5,0.9-0.2c0.2,0.1,0.3,0.2,0.3,0.3v0.2
		c0,0.1-0.1,0.2-0.1,0.4c-0.1,0.2-0.1,0.4-0.1,0.6c-0.2,0.8-0.3,1.5-0.1,2.2c0.2,2.5,1.6,3.9,4,4.4c1,0.2,1.9,0,2.5-0.5
		c0.7-0.5,1.1-1.3,1.4-2.2c0.3-1,0.4-1.9,0.5-2.8s0.1-1.8,0-2.8c0-0.7-0.1-1.4-0.2-2v-0.9c-0.5-2.2-1.6-3.5-3.2-3.9L61,14.5
		c-1.6-0.7-2.4-2-2.5-3.8c0.1-1.1,0.3-2.1,0.6-3c0.4-1.1,0.9-2,1.4-2.7c1-1.3,2.2-2.2,3.8-2.6c1.1-0.3,2-0.4,2.5-0.5
		c0.9-0.1,1.8,0.2,2.8,0.8c0.8,0.5,1.2,0.9,1.4,1.2c0.1,0.2,0.2,0.3,0.2,0.4c0.1,0.3,0.1,0.4,0,0.5S71,5,70.8,5
		c-0.2-0.1-0.4-0.2-0.5-0.4c-0.4-0.4-1.1-0.8-2-1.2c-0.7-0.4-1.6-0.4-2.7,0c-0.9,0.3-1.7,0.6-2.4,1.1c-1.1,0.7-1.9,1.7-2.4,3
		c-0.5,1.1-0.8,2-0.8,2.6c0,0,0,0.1,0,0.2c0,0.5,0,0.9,0.2,1.1c0.2,0.2,0.4,0.3,0.8,0.2c0.5-0.1,1.4-0.1,2.9-0.1
		c0.3,0,0.7,0,1.4-0.1s1.2-0.1,1.5,0c1.5,0.1,2.7,0.7,3.6,2C71.2,14.3,71.7,15.3,71.9,16.6z"/>
	<path class="st0" d="M73,30.1c0.1-0.4,0.1-0.8,0.2-1.2c0.2-0.7,0.5-1.6,0.8-2.9s0.5-2.2,0.6-2.7c0.2-0.6,0.4-1.6,0.6-2.7
		c0.2-1.2,0.4-1.9,0.4-2.2c0.7-3.1,1.1-5.1,1.3-5.8c0.1-0.4,0.2-0.8,0.3-1.2c0.1-0.4,0.3-0.9,0.4-1.4C77.8,9.6,78,9.2,78,9l1.1-4.4
		c0-0.2,0-0.4,0-0.8c-0.1-0.6,0.1-1,0.6-1.3c0.2-0.1,0.4-0.2,0.7-0.3C80.7,2.1,81,2,81.1,1.9c0.2-0.1,0.8-0.2,1.8-0.2
		c0.5-0.1,0.8,0.1,1,0.7C84,2.5,84.1,2.7,84.2,3c0.4,3.7,0.7,6.2,0.8,7.7c0.1,1.2,0.3,2.9,0.5,5c0,0.1,0,0.3,0.1,0.4
		c0,0.1,0,0.3,0,0.5s0,0.3,0,0.4c0.2,2,0.4,3.4,0.5,4.4c0.1,1.3,0.3,3.1,0.5,5.6c0,0.2,0,0.6,0,1c0,0.5,0,0.8,0,1.1
		c0,0.2-0.1,0.4-0.4,0.6c-1.1,0.6-2,1-2.7,1.1c-0.1,0-0.2,0-0.3,0.1c-0.3,0.2-0.5,0.2-0.8,0s-0.5-0.5-0.5-0.8c0-1.9-0.2-4.4-0.6-7.5
		c-0.1-0.3-0.1-0.8-0.2-1.4S81,20.1,81,19.8c-0.1-0.3-0.1-0.5-0.2-0.6s-0.3-0.1-0.6-0.1c-0.3,0-1.4,0.1-3.1,0.2
		c-0.4,0-0.7,0.3-0.8,0.7c-0.1,0.6-0.5,2.2-1,4.7c-0.1,0.4-0.3,0.9-0.5,1.7c-0.2,0.7-0.3,1.3-0.4,1.7c-0.4,1.5-0.6,2.3-0.7,2.4
		c-0.3,0.2-0.4,0.3-0.5,0.2c0-0.1-0.1-0.1-0.1-0.1v0.1l0,0L73,30.9C72.9,30.5,72.9,30.3,73,30.1z M77.1,18c0.3,0,0.6-0.1,1.1-0.1
		c0.2,0,0.6,0,1.1-0.1c0.5,0,0.8,0,1.1,0c0.3,0,0.4,0,0.5-0.1s0.1-0.2,0-0.5c-0.1-0.4-0.1-0.9-0.2-1.7c-0.1-0.7-0.1-1.3-0.2-1.7
		c-0.1-0.6-0.1-1.5-0.3-2.7c-0.1-1.1-0.2-2-0.3-2.5c0-0.1,0-0.2-0.1-0.3c0-0.1-0.1-0.2-0.1-0.3C78.4,11.7,77.5,15,77.1,18z"/>
	<path class="st0" d="M94.6,5.2c-0.2,1.1-0.3,3-0.4,5.7l-0.1,6.8v4.5c0,0.6,0,1.4-0.1,2.5s-0.1,1.9-0.1,2.5c0,0.3,0,0.7,0,1.2
		s0,0.9,0,1.2c0,0.3,0,0.5-0.1,0.6s-0.2,0.2-0.5,0.3c-0.5,0.2-1.1,0.4-1.9,0.5c-0.3,0-0.9,0-1.5,0c-0.2,0-0.3-0.1-0.4-0.2
		c-0.3-0.7-0.5-1.2-0.4-1.6c0-0.2,0-0.5,0.1-0.8c0-0.4,0-0.7,0-0.8c0-0.7,0.1-4.6,0.2-11.9c0-2.4,0.1-4.8,0.2-7.3
		c0-0.5,0.1-1.2,0.2-2.2s0.1-1.8,0.2-2.3c0-0.3,0-0.9,0-1.6c0-0.6,0.3-1,0.8-1.1C91.2,1,91.6,0.9,92,1c0.7,0.1,1.4,0.3,2,0.6
		c0.4,0.2,0.6,0.4,0.7,0.5c0.1,0.2,0.1,0.5,0.1,1.1C94.8,4.1,94.7,4.8,94.6,5.2z"/>
	<path class="st0" d="M98,4.4c-0.3,0.1-0.5,0.1-0.6,0.1c-0.2,0-0.4-0.1-0.5-0.2c-0.2-0.1-0.3-0.2-0.4-0.4c0-0.1,0.1-0.2,0.4-0.5
		C97,3.3,97.3,3.1,97.8,3c0.4-0.2,0.9-0.4,1.4-0.8c0.4-0.3,0.9-0.5,1.5-0.5c3-0.1,4.9,0,5.8,0.1c0.8,0.1,1.5,0.4,2,0.8
		c0.2,0.1,0.4,0.3,0.8,0.6s0.6,0.4,0.8,0.6c0.5,0.5,0.9,1.2,1.2,2c0.6,1.7,0.8,3.4,0.4,5.1c-0.3,1.6-0.7,2.9-1.3,4.1
		c-0.3,0.5-1,2.1-2,4.8c-0.7,1.7-1.4,3.2-2.3,4.6c-1.3,2.1-2.1,3.4-2.5,4.1c-0.5,0.7-1,1.6-1.6,2.5c-0.1,0.2-0.3,0.3-0.5,0.3
		c-0.1,0-0.2-0.1-0.4-0.1c-0.2,0-0.3,0-0.4-0.1c-0.1,0-0.2-0.1-0.3-0.2c-0.1-0.1-0.2-0.2-0.3-0.3c-0.1,0-0.2-0.1-0.4-0.2
		c-0.1,0-0.3,0-0.6,0c-0.3,0-0.4,0-0.6-0.1c-0.7-0.1-1-0.5-0.9-1.2c0-0.4,0.1-1,0.1-1.8c0.1-0.8,0.1-1.3,0.1-1.7
		c0-0.3,0.1-0.8,0.1-1.4S98,23,98,22.5s0.1-1,0.1-1.4c0.1-0.6,0.1-1.6,0.2-2.9s0.1-2.2,0.2-2.9c0.1-2,0.2-3.6,0.2-4.8
		c0-1.4,0-3.4,0-6.1c0-0.2,0-0.4,0-0.6C98.5,4.3,98.3,4.3,98,4.4z M102.9,26.1c0.1-0.1,0.2-0.2,0.2-0.2c0.3-0.6,0.6-1,0.7-1.3
		c1.5-2.6,2.6-4.8,3.2-6.6c0.1-0.3,0.7-1.8,1.9-4.3c0.9-1.9,1.3-3.8,1.1-5.6c-0.1-2.1-1.2-3.6-3.4-4.6c-0.3-0.1-1.1-0.2-2.3-0.3
		c-0.3,0-0.5,0-0.6,0.1s-0.1,0.3-0.1,0.7c-0.1,1.2-0.1,3-0.2,5.5c0,0.5,0,1.2,0,2.1c0,0.9-0.1,1.6-0.1,2.1c0,0.6-0.1,1.5-0.2,2.8
		s-0.2,2.2-0.2,2.8c-0.2,2.8-0.3,4.9-0.4,6.3c0,0.1,0,0.3,0,0.7C102.7,26.3,102.8,26.2,102.9,26.1z"/>
	<path class="st0" d="M130.7,13.4c0.2-0.6,0.3-1.1,0.4-1.4c0.2-1,0.6-2.5,1-4.5c0.4-1.9,0.7-3.3,0.9-4.1c0.2-1,0.4-1.8,0.5-2.3
		c0.1-0.6,0.4-0.9,0.8-1c0.9-0.2,1.8,0,2.6,0.6c0.1,0.1,0.2,0.1,0.4,0.3c0.2,0.1,0.3,0.2,0.3,0.3c0.6,0.4,0.7,1,0.6,1.8
		c-0.9,3.6-1.6,6.2-1.9,7.8c-0.1,0.7-0.3,1.4-0.5,2.1s-0.4,1.5-0.6,2.4c-0.2,0.9-0.4,1.6-0.6,2.1c-0.3,1.2-0.9,3.6-1.7,7.1
		c-0.1,0.5-0.3,1.2-0.5,2.2s-0.4,1.7-0.5,2.2c0,0.1-0.2,0.9-0.6,2.4c-0.1,0.3-0.2,0.4-0.3,0.4c-0.5,0.1-0.9,0.2-1.2,0.2
		c-0.8-0.1-1.7-0.2-2.6-0.4c-0.2-0.1-0.4-0.3-0.5-0.7c-0.1-0.4-0.2-0.8-0.1-1.1l1.3-5.5c0.3-1.2,0.7-3,1.3-5.5c0.1-0.5,0.1-1,0-1.6
		l-1.1-3.7c-0.2-0.6-0.4-1.5-0.7-2.7c-0.3-1.2-0.6-2.1-0.7-2.7V8c0-0.1,0-0.1,0-0.1c-0.2-0.4-0.4-1.1-0.7-1.9
		c-0.3-0.9-0.6-1.5-0.7-1.9c-0.1-0.3-0.2-0.7-0.3-0.9c-0.1-0.6,0-1,0.4-1.2c0.3-0.2,0.6-0.1,0.9,0.3c0.2,0.2,0.3,0.5,0.5,0.9
		c0.2,0.7,0.6,1.8,1.2,3.2c0.2,0.5,0.4,1.2,0.7,2.1c0.3,0.9,0.4,1.5,0.4,1.5c0.3,1,0.7,2.4,1.2,4.2c0,0,0.1,0.1,0.2,0.4
		C130.5,14.4,130.6,14,130.7,13.4z"/>
	<path class="st0" d="M145.8,29.2c0.5-0.1,1.3-0.2,2.3-0.3c1-0.1,1.8-0.3,2.3-0.3h0.2c0.5-0.1,0.9,0,1,0.1s0.2,0.5,0.1,1
		c0,0.3-0.1,0.6-0.4,0.6c-0.1,0-0.1,0-0.2,0c-0.1,0-0.2,0-0.2,0c-2.6,0.2-4.2,0.5-4.9,0.6c-0.2,0.1-0.6,0.1-1.1,0.1s-0.8,0-0.9,0.1
		c-0.7,0-1.2,0-1.6,0c-0.8,0.1-1.3-0.3-1.6-1.2c-0.1-0.4-0.2-0.8-0.1-1.3c0.3-2.2,0.6-4.6,0.8-7.4c0-0.5,0.1-1.3,0.1-2.2
		c0-1,0.1-1.7,0.1-2.2c0-0.1,0.1-1.9,0.4-5.3c0-0.8,0.1-2.1,0.2-3.7c0.1-1,0.2-2.5,0.3-4.6c0-0.2,0.1-0.5,0.4-0.7
		c0.5-0.4,1.1-0.6,1.7-0.7c0.3,0,0.8-0.1,1.7-0.1c0.9-0.1,1.5-0.1,2-0.1c0.2,0,0.4,0,0.8,0c0.3,0,0.6,0,0.9,0c0.3,0,0.5-0.1,0.8-0.2
		h0.4c0.4,0.1,0.6,0.1,0.7,0.2c0.1,0.1,0.1,0.3,0.1,0.7c0,0.5,0,0.7-0.1,0.8s-0.3,0.2-0.8,0.2c-1.4,0.1-2.4,0.1-3.1,0.2
		c-0.3,0-0.4,0.1-0.5,0.2s-0.1,0.3-0.1,0.6l-0.5,5.8c0,0,0,0.8-0.1,2.2l-0.1,2.5c0,0.4,0,0.6,0.1,0.7c0.1,0.1,0.3,0.1,0.6,0
		c0.5-0.1,1.3-0.1,2.3-0.2c0.3,0,0.5,0,0.6,0.1s0.2,0.3,0.2,0.6c0.1,0.2,0.1,0.3,0.1,0.3c0,0.4-0.1,0.6-0.4,0.6
		c-0.3,0.1-0.8,0.1-1.5,0.2c-0.8,0.1-1.4,0.1-1.7,0.2s-0.4,0.3-0.4,0.7c0,0.3-0.1,0.8-0.1,1.5c0,0.6,0,1.1,0,1.5
		c-0.3,3.4-0.5,5.4-0.6,5.9c-0.1,0.3-0.1,0.8-0.2,1.5c-0.1,0.7-0.1,1.1-0.1,1.2C145.5,29.2,145.7,29.2,145.8,29.2z"/>
	<path class="st0" d="M170,16.6c0.1,0.2,0.1,0.5,0.1,0.9s0.1,0.6,0.1,0.8c0,1.6-0.4,3.7-1.1,6.4c-0.1,0.3-0.2,0.6-0.4,1
		c-0.2,0.3-0.3,0.6-0.4,0.8c-0.1,0.2-0.3,0.5-0.6,0.9s-0.4,0.7-0.5,0.8c-0.8,1.2-1.9,2.3-3.2,3.2h-0.1c-0.2,0.2-0.5,0.3-0.9,0.4
		s-0.9,0.2-1.5,0.3c-0.7,0.1-1.5,0-2.4-0.3s-1.9-0.8-2.8-1.4c-0.6-0.7-1-1.6-1.3-2.7c-0.3-1-0.5-1.9-0.5-2.5v-1l0.1-0.6
		c0.1-0.6,0.3-1,0.4-1.4c0.2-0.4,0.5-0.5,0.9-0.2c0.2,0.1,0.3,0.2,0.3,0.3v0.2c0,0.1-0.1,0.2-0.1,0.4c-0.1,0.2-0.1,0.4-0.1,0.6
		c-0.2,0.8-0.3,1.5-0.1,2.2c0.2,2.5,1.6,3.9,4,4.4c1,0.2,1.9,0,2.5-0.5c0.7-0.5,1.1-1.3,1.4-2.2c0.3-1,0.4-1.9,0.5-2.8
		s0.1-1.8,0-2.8c0-0.7-0.1-1.4-0.2-2l-0.1-0.6c-0.5-2.2-1.6-3.5-3.2-3.9l-1.8-0.5c-1.6-0.7-2.4-2-2.5-3.8c0.1-1.1,0.3-2.1,0.6-3
		c0.4-1.1,0.9-2,1.4-2.7c1-1.3,2.2-2.2,3.8-2.6c1.1-0.3,2-0.4,2.5-0.5c0.9-0.1,1.8,0.2,2.8,0.8c0.8,0.5,1.2,0.9,1.4,1.2
		c0.1,0.2,0.2,0.3,0.2,0.4c0.1,0.3,0.1,0.4,0,0.5s-0.2,0.2-0.4,0.2c-0.2-0.1-0.4-0.2-0.5-0.4c-0.4-0.4-1.1-0.8-2-1.2
		c-0.7-0.4-1.6-0.4-2.7,0c-0.9,0.3-1.7,0.6-2.4,1.1c-1.1,0.7-1.9,1.7-2.4,3c-0.5,1.1-0.8,2-0.8,2.6c-0.1,0.2-0.1,0.4-0.1,0.4
		c0,0.5,0,0.9,0.2,1.1c0.2,0.2,0.4,0.3,0.8,0.2c0.5-0.1,1.4-0.1,2.9-0.1c0.3,0,0.7,0,1.4-0.1s1.2-0.1,1.5,0c1.5,0.1,2.7,0.7,3.6,2
		C169.3,14.3,169.8,15.3,170,16.6z"/>
	<path class="st0" d="M172.8,29.5c0.1-0.7,0.3-1.1,0.8-1.3c0.4-0.2,0.9-0.3,1.3-0.3c0.7-0.1,1.3,0,1.8,0c0.7,0.1,1.1,0.5,1.1,1.4
		c-0.1,1.3-0.2,2.2-0.3,2.8c0,0.1-0.1,0.3-0.3,0.5c-0.8,0.6-1.6,0.9-2.4,1c-0.1,0-0.3,0-0.5,0.1s-0.4,0.1-0.4,0.1
		c-0.3,0-0.5,0-0.5-0.1c0,0-0.1-0.2-0.3-0.5s-0.3-0.5-0.4-0.7c0-0.2,0-0.4,0-0.7L172.8,29.5z M173.4,9.3l0.5-6.1
		c0.1-0.5,0.1-0.8,0.1-1c0-0.5,0.2-0.8,0.6-1c1.1-0.7,2.4-0.5,3.7,0.4c0.3,0.3,0.5,0.7,0.4,1.4c0,0.4-0.1,1-0.2,1.8
		c-0.1,0.8-0.1,1.4-0.2,1.7c-0.1,2.3-0.2,3.7-0.2,4.2c0,1.3,0,2.6-0.1,4c0,1.4,0,2.9,0,4.6c0,1.7,0,3,0,3.9c0,0.1,0,0.2,0,0.4
		c0,0.2,0,0.4,0,0.4c0.1,0.3,0,0.5-0.3,0.6c-0.9,0.5-2.1,0.9-3.4,1.1c-0.3,0.1-0.5-0.1-0.7-0.3c-0.4-0.6-0.6-1.3-0.6-2.1v-5.1l0,0
		C173.3,12.3,173.4,9.3,173.4,9.3z"/>
</g>
</svg>
